<svg width="308" height="172" viewBox="0 0 308 172" fill="none" xmlns="http://www.w3.org/2000/svg">
<mask id="path-1-inside-1_2027_6266" fill="white">
<path d="M0 8C0 3.58172 3.58172 0 8 0H142C146.418 0 150 3.58172 150 8V44C150 48.4183 146.418 52 142 52H8C3.58172 52 0 48.4183 0 44V8Z"/>
</mask>
<path d="M0 8C0 3.58172 3.58172 0 8 0H142C146.418 0 150 3.58172 150 8V44C150 48.4183 146.418 52 142 52H8C3.58172 52 0 48.4183 0 44V8Z" fill="#FAF8F7"/>
<path d="M8 0V1H142V0V-1H8V0ZM150 8H149V44H150H151V8H150ZM142 52V51H8V52V53H142V52ZM0 44H1V8H0H-1V44H0ZM8 52V51C4.13401 51 1 47.866 1 44H0H-1C-1 48.9706 3.02944 53 8 53V52ZM150 44H149C149 47.866 145.866 51 142 51V52V53C146.971 53 151 48.9706 151 44H150ZM142 0V1C145.866 1 149 4.13401 149 8H150H151C151 3.02944 146.971 -1 142 -1V0ZM8 0V-1C3.02944 -1 -1 3.02944 -1 8H0H1C1 4.13401 4.13401 1 8 1V0Z" fill="#CDCBCB" mask="url(#path-1-inside-1_2027_6266)"/>
<path d="M56.7957 25.834C56.7957 24.2287 57.0571 22.978 57.5797 22.082C58.1024 21.1767 59.0171 20.724 60.3237 20.724C61.6211 20.724 62.5311 21.1767 63.0537 22.082C63.5764 22.978 63.8377 24.2287 63.8377 25.834C63.8377 27.4673 63.5764 28.7367 63.0537 29.642C62.5311 30.5473 61.6211 31 60.3237 31C59.0171 31 58.1024 30.5473 57.5797 29.642C57.0571 28.7367 56.7957 27.4673 56.7957 25.834ZM62.5777 25.834C62.5777 25.022 62.5217 24.336 62.4097 23.776C62.3071 23.2067 62.0877 22.7493 61.7517 22.404C61.4251 22.0587 60.9491 21.886 60.3237 21.886C59.6891 21.886 59.2037 22.0587 58.8677 22.404C58.5411 22.7493 58.3217 23.2067 58.2097 23.776C58.1071 24.336 58.0557 25.022 58.0557 25.834C58.0557 26.674 58.1071 27.3787 58.2097 27.948C58.3217 28.5173 58.5411 28.9747 58.8677 29.32C59.2037 29.6653 59.6891 29.838 60.3237 29.838C60.9491 29.838 61.4251 29.6653 61.7517 29.32C62.0877 28.9747 62.3071 28.5173 62.4097 27.948C62.5217 27.3787 62.5777 26.674 62.5777 25.834ZM65.5868 25.834C65.5868 24.2287 65.8481 22.978 66.3708 22.082C66.8934 21.1767 67.8081 20.724 69.1148 20.724C70.4121 20.724 71.3221 21.1767 71.8448 22.082C72.3674 22.978 72.6287 24.2287 72.6287 25.834C72.6287 27.4673 72.3674 28.7367 71.8448 29.642C71.3221 30.5473 70.4121 31 69.1148 31C67.8081 31 66.8934 30.5473 66.3708 29.642C65.8481 28.7367 65.5868 27.4673 65.5868 25.834ZM71.3688 25.834C71.3688 25.022 71.3128 24.336 71.2008 23.776C71.0981 23.2067 70.8788 22.7493 70.5428 22.404C70.2161 22.0587 69.7401 21.886 69.1148 21.886C68.4801 21.886 67.9948 22.0587 67.6588 22.404C67.3321 22.7493 67.1128 23.2067 67.0008 23.776C66.8981 24.336 66.8468 25.022 66.8468 25.834C66.8468 26.674 66.8981 27.3787 67.0008 27.948C67.1128 28.5173 67.3321 28.9747 67.6588 29.32C67.9948 29.6653 68.4801 29.838 69.1148 29.838C69.7401 29.838 70.2161 29.6653 70.5428 29.32C70.8788 28.9747 71.0981 28.5173 71.2008 27.948C71.3128 27.3787 71.3688 26.674 71.3688 25.834ZM74.9938 31.084C74.7511 31.084 74.5458 31 74.3778 30.832C74.2098 30.664 74.1258 30.4587 74.1258 30.216C74.1258 29.9733 74.2098 29.768 74.3778 29.6C74.5458 29.432 74.7511 29.348 74.9938 29.348C75.2271 29.348 75.4231 29.432 75.5818 29.6C75.7498 29.768 75.8338 29.9733 75.8338 30.216C75.8338 30.4587 75.7498 30.664 75.5818 30.832C75.4231 31 75.2271 31.084 74.9938 31.084ZM74.9938 25.092C74.7511 25.092 74.5458 25.008 74.3778 24.84C74.2098 24.672 74.1258 24.4667 74.1258 24.224C74.1258 23.9813 74.2098 23.776 74.3778 23.608C74.5458 23.44 74.7511 23.356 74.9938 23.356C75.2271 23.356 75.4231 23.44 75.5818 23.608C75.7498 23.776 75.8338 23.9813 75.8338 24.224C75.8338 24.4667 75.7498 24.672 75.5818 24.84C75.4231 25.008 75.2271 25.092 74.9938 25.092ZM77.3582 25.834C77.3582 24.2287 77.6196 22.978 78.1422 22.082C78.6649 21.1767 79.5796 20.724 80.8862 20.724C82.1836 20.724 83.0936 21.1767 83.6162 22.082C84.1389 22.978 84.4002 24.2287 84.4002 25.834C84.4002 27.4673 84.1389 28.7367 83.6162 29.642C83.0936 30.5473 82.1836 31 80.8862 31C79.5796 31 78.6649 30.5473 78.1422 29.642C77.6196 28.7367 77.3582 27.4673 77.3582 25.834ZM83.1402 25.834C83.1402 25.022 83.0842 24.336 82.9722 23.776C82.8696 23.2067 82.6502 22.7493 82.3142 22.404C81.9876 22.0587 81.5116 21.886 80.8862 21.886C80.2516 21.886 79.7662 22.0587 79.4302 22.404C79.1036 22.7493 78.8842 23.2067 78.7722 23.776C78.6696 24.336 78.6182 25.022 78.6182 25.834C78.6182 26.674 78.6696 27.3787 78.7722 27.948C78.8842 28.5173 79.1036 28.9747 79.4302 29.32C79.7662 29.6653 80.2516 29.838 80.8862 29.838C81.5116 29.838 81.9876 29.6653 82.3142 29.32C82.6502 28.9747 82.8696 28.5173 82.9722 27.948C83.0842 27.3787 83.1402 26.674 83.1402 25.834ZM86.1493 25.834C86.1493 24.2287 86.4106 22.978 86.9333 22.082C87.4559 21.1767 88.3706 20.724 89.6773 20.724C90.9746 20.724 91.8846 21.1767 92.4073 22.082C92.9299 22.978 93.1912 24.2287 93.1912 25.834C93.1912 27.4673 92.9299 28.7367 92.4073 29.642C91.8846 30.5473 90.9746 31 89.6773 31C88.3706 31 87.4559 30.5473 86.9333 29.642C86.4106 28.7367 86.1493 27.4673 86.1493 25.834ZM91.9313 25.834C91.9313 25.022 91.8753 24.336 91.7633 23.776C91.6606 23.2067 91.4413 22.7493 91.1053 22.404C90.7786 22.0587 90.3026 21.886 89.6773 21.886C89.0426 21.886 88.5573 22.0587 88.2213 22.404C87.8946 22.7493 87.6753 23.2067 87.5633 23.776C87.4606 24.336 87.4093 25.022 87.4093 25.834C87.4093 26.674 87.4606 27.3787 87.5633 27.948C87.6753 28.5173 87.8946 28.9747 88.2213 29.32C88.5573 29.6653 89.0426 29.838 89.6773 29.838C90.3026 29.838 90.7786 29.6653 91.1053 29.32C91.4413 28.9747 91.6606 28.5173 91.7633 27.948C91.8753 27.3787 91.9313 26.674 91.9313 25.834Z" fill="#91908F"/>
<path d="M55.9277 26.408H94.0732V27.108H55.9277V26.408Z" fill="#91908F"/>
<mask id="path-4-inside-2_2027_6266" fill="white">
<path d="M158 8C158 3.58172 161.582 0 166 0H300C304.418 0 308 3.58172 308 8V44C308 48.4183 304.418 52 300 52H166C161.582 52 158 48.4183 158 44V8Z"/>
</mask>
<path d="M158 8C158 3.58172 161.582 0 166 0H300C304.418 0 308 3.58172 308 8V44C308 48.4183 304.418 52 300 52H166C161.582 52 158 48.4183 158 44V8Z" fill="#FAF8F7"/>
<path d="M166 0V1H300V0V-1H166V0ZM308 8H307V44H308H309V8H308ZM300 52V51H166V52V53H300V52ZM158 44H159V8H158H157V44H158ZM166 52V51C162.134 51 159 47.866 159 44H158H157C157 48.9706 161.029 53 166 53V52ZM308 44H307C307 47.866 303.866 51 300 51V52V53C304.971 53 309 48.9706 309 44H308ZM300 0V1C303.866 1 307 4.13401 307 8H308H309C309 3.02944 304.971 -1 300 -1V0ZM166 0V-1C161.029 -1 157 3.02944 157 8H158H159C159 4.13401 162.134 1 166 1V0Z" fill="#CDCBCB" mask="url(#path-4-inside-2_2027_6266)"/>
<path d="M214.796 25.834C214.796 24.2287 215.057 22.978 215.58 22.082C216.102 21.1767 217.017 20.724 218.324 20.724C219.621 20.724 220.531 21.1767 221.054 22.082C221.576 22.978 221.838 24.2287 221.838 25.834C221.838 27.4673 221.576 28.7367 221.054 29.642C220.531 30.5473 219.621 31 218.324 31C217.017 31 216.102 30.5473 215.58 29.642C215.057 28.7367 214.796 27.4673 214.796 25.834ZM220.578 25.834C220.578 25.022 220.522 24.336 220.41 23.776C220.307 23.2067 220.088 22.7493 219.752 22.404C219.425 22.0587 218.949 21.886 218.324 21.886C217.689 21.886 217.204 22.0587 216.868 22.404C216.541 22.7493 216.322 23.2067 216.21 23.776C216.107 24.336 216.056 25.022 216.056 25.834C216.056 26.674 216.107 27.3787 216.21 27.948C216.322 28.5173 216.541 28.9747 216.868 29.32C217.204 29.6653 217.689 29.838 218.324 29.838C218.949 29.838 219.425 29.6653 219.752 29.32C220.088 28.9747 220.307 28.5173 220.41 27.948C220.522 27.3787 220.578 26.674 220.578 25.834ZM223.587 25.834C223.587 24.2287 223.848 22.978 224.371 22.082C224.893 21.1767 225.808 20.724 227.115 20.724C228.412 20.724 229.322 21.1767 229.845 22.082C230.367 22.978 230.629 24.2287 230.629 25.834C230.629 27.4673 230.367 28.7367 229.845 29.642C229.322 30.5473 228.412 31 227.115 31C225.808 31 224.893 30.5473 224.371 29.642C223.848 28.7367 223.587 27.4673 223.587 25.834ZM229.369 25.834C229.369 25.022 229.313 24.336 229.201 23.776C229.098 23.2067 228.879 22.7493 228.543 22.404C228.216 22.0587 227.74 21.886 227.115 21.886C226.48 21.886 225.995 22.0587 225.659 22.404C225.332 22.7493 225.113 23.2067 225.001 23.776C224.898 24.336 224.847 25.022 224.847 25.834C224.847 26.674 224.898 27.3787 225.001 27.948C225.113 28.5173 225.332 28.9747 225.659 29.32C225.995 29.6653 226.48 29.838 227.115 29.838C227.74 29.838 228.216 29.6653 228.543 29.32C228.879 28.9747 229.098 28.5173 229.201 27.948C229.313 27.3787 229.369 26.674 229.369 25.834ZM232.994 31.084C232.751 31.084 232.546 31 232.378 30.832C232.21 30.664 232.126 30.4587 232.126 30.216C232.126 29.9733 232.21 29.768 232.378 29.6C232.546 29.432 232.751 29.348 232.994 29.348C233.227 29.348 233.423 29.432 233.582 29.6C233.75 29.768 233.834 29.9733 233.834 30.216C233.834 30.4587 233.75 30.664 233.582 30.832C233.423 31 233.227 31.084 232.994 31.084ZM232.994 25.092C232.751 25.092 232.546 25.008 232.378 24.84C232.21 24.672 232.126 24.4667 232.126 24.224C232.126 23.9813 232.21 23.776 232.378 23.608C232.546 23.44 232.751 23.356 232.994 23.356C233.227 23.356 233.423 23.44 233.582 23.608C233.75 23.776 233.834 23.9813 233.834 24.224C233.834 24.4667 233.75 24.672 233.582 24.84C233.423 25.008 233.227 25.092 232.994 25.092ZM235.358 25.834C235.358 24.2287 235.62 22.978 236.142 22.082C236.665 21.1767 237.58 20.724 238.886 20.724C240.184 20.724 241.094 21.1767 241.616 22.082C242.139 22.978 242.4 24.2287 242.4 25.834C242.4 27.4673 242.139 28.7367 241.616 29.642C241.094 30.5473 240.184 31 238.886 31C237.58 31 236.665 30.5473 236.142 29.642C235.62 28.7367 235.358 27.4673 235.358 25.834ZM241.14 25.834C241.14 25.022 241.084 24.336 240.972 23.776C240.87 23.2067 240.65 22.7493 240.314 22.404C239.988 22.0587 239.512 21.886 238.886 21.886C238.252 21.886 237.766 22.0587 237.43 22.404C237.104 22.7493 236.884 23.2067 236.772 23.776C236.67 24.336 236.618 25.022 236.618 25.834C236.618 26.674 236.67 27.3787 236.772 27.948C236.884 28.5173 237.104 28.9747 237.43 29.32C237.766 29.6653 238.252 29.838 238.886 29.838C239.512 29.838 239.988 29.6653 240.314 29.32C240.65 28.9747 240.87 28.5173 240.972 27.948C241.084 27.3787 241.14 26.674 241.14 25.834ZM244.149 25.834C244.149 24.2287 244.411 22.978 244.933 22.082C245.456 21.1767 246.371 20.724 247.677 20.724C248.975 20.724 249.885 21.1767 250.407 22.082C250.93 22.978 251.191 24.2287 251.191 25.834C251.191 27.4673 250.93 28.7367 250.407 29.642C249.885 30.5473 248.975 31 247.677 31C246.371 31 245.456 30.5473 244.933 29.642C244.411 28.7367 244.149 27.4673 244.149 25.834ZM249.931 25.834C249.931 25.022 249.875 24.336 249.763 23.776C249.661 23.2067 249.441 22.7493 249.105 22.404C248.779 22.0587 248.303 21.886 247.677 21.886C247.043 21.886 246.557 22.0587 246.221 22.404C245.895 22.7493 245.675 23.2067 245.563 23.776C245.461 24.336 245.409 25.022 245.409 25.834C245.409 26.674 245.461 27.3787 245.563 27.948C245.675 28.5173 245.895 28.9747 246.221 29.32C246.557 29.6653 247.043 29.838 247.677 29.838C248.303 29.838 248.779 29.6653 249.105 29.32C249.441 28.9747 249.661 28.5173 249.763 27.948C249.875 27.3787 249.931 26.674 249.931 25.834Z" fill="#91908F"/>
<path d="M213.928 26.408H252.073V27.108H213.928V26.408Z" fill="#91908F"/>
<mask id="path-7-inside-3_2027_6266" fill="white">
<path d="M0 68C0 63.5817 3.58172 60 8 60H142C146.418 60 150 63.5817 150 68V104C150 108.418 146.418 112 142 112H8C3.58172 112 0 108.418 0 104V68Z"/>
</mask>
<path d="M0 68C0 63.5817 3.58172 60 8 60H142C146.418 60 150 63.5817 150 68V104C150 108.418 146.418 112 142 112H8C3.58172 112 0 108.418 0 104V68Z" fill="white"/>
<path d="M8 60V61H142V60V59H8V60ZM150 68H149V104H150H151V68H150ZM142 112V111H8V112V113H142V112ZM0 104H1V68H0H-1V104H0ZM8 112V111C4.13401 111 1 107.866 1 104H0H-1C-1 108.971 3.02944 113 8 113V112ZM150 104H149C149 107.866 145.866 111 142 111V112V113C146.971 113 151 108.971 151 104H150ZM142 60V61C145.866 61 149 64.134 149 68H150H151C151 63.0294 146.971 59 142 59V60ZM8 60V59C3.02944 59 -1 63.0294 -1 68H0H1C1 64.134 4.13401 61 8 61V60Z" fill="#CDCBCB" mask="url(#path-7-inside-3_2027_6266)"/>
<path d="M57.1649 85.834C57.1649 84.2287 57.4262 82.978 57.9489 82.082C58.4715 81.1767 59.3862 80.724 60.6929 80.724C61.9902 80.724 62.9002 81.1767 63.4229 82.082C63.9455 82.978 64.2069 84.2287 64.2069 85.834C64.2069 87.4673 63.9455 88.7367 63.4229 89.642C62.9002 90.5473 61.9902 91 60.6929 91C59.3862 91 58.4715 90.5473 57.9489 89.642C57.4262 88.7367 57.1649 87.4673 57.1649 85.834ZM62.9469 85.834C62.9469 85.022 62.8909 84.336 62.7789 83.776C62.6762 83.2067 62.4569 82.7493 62.1209 82.404C61.7942 82.0587 61.3182 81.886 60.6929 81.886C60.0582 81.886 59.5729 82.0587 59.2369 82.404C58.9102 82.7493 58.6909 83.2067 58.5789 83.776C58.4762 84.336 58.4249 85.022 58.4249 85.834C58.4249 86.674 58.4762 87.3787 58.5789 87.948C58.6909 88.5173 58.9102 88.9747 59.2369 89.32C59.5729 89.6653 60.0582 89.838 60.6929 89.838C61.3182 89.838 61.7942 89.6653 62.1209 89.32C62.4569 88.9747 62.6762 88.5173 62.7789 87.948C62.8909 87.3787 62.9469 86.674 62.9469 85.834ZM65.8019 89.978C66.9872 89.026 67.9159 88.2467 68.5879 87.64C69.2599 87.024 69.8246 86.3847 70.2819 85.722C70.7486 85.05 70.9819 84.392 70.9819 83.748C70.9819 83.1413 70.8326 82.6653 70.5339 82.32C70.2446 81.9653 69.7732 81.788 69.1199 81.788C68.4852 81.788 67.9906 81.9887 67.6359 82.39C67.2906 82.782 67.1039 83.3093 67.0759 83.972H65.8439C65.8812 82.9267 66.1986 82.1193 66.7959 81.55C67.3932 80.9807 68.1632 80.696 69.1059 80.696C70.0672 80.696 70.8279 80.962 71.3879 81.494C71.9572 82.026 72.2419 82.7587 72.2419 83.692C72.2419 84.4667 72.0086 85.2227 71.5419 85.96C71.0846 86.688 70.5619 87.332 69.9739 87.892C69.3859 88.4427 68.6346 89.0867 67.7199 89.824H72.5359V90.888H65.8019V89.978ZM74.6246 91.084C74.382 91.084 74.1766 91 74.0086 90.832C73.8406 90.664 73.7566 90.4587 73.7566 90.216C73.7566 89.9733 73.8406 89.768 74.0086 89.6C74.1766 89.432 74.382 89.348 74.6246 89.348C74.858 89.348 75.054 89.432 75.2126 89.6C75.3806 89.768 75.4646 89.9733 75.4646 90.216C75.4646 90.4587 75.3806 90.664 75.2126 90.832C75.054 91 74.858 91.084 74.6246 91.084ZM74.6246 85.092C74.382 85.092 74.1766 85.008 74.0086 84.84C73.8406 84.672 73.7566 84.4667 73.7566 84.224C73.7566 83.9813 73.8406 83.776 74.0086 83.608C74.1766 83.44 74.382 83.356 74.6246 83.356C74.858 83.356 75.054 83.44 75.2126 83.608C75.3806 83.776 75.4646 83.9813 75.4646 84.224C75.4646 84.4667 75.3806 84.672 75.2126 84.84C75.054 85.008 74.858 85.092 74.6246 85.092ZM76.9891 85.834C76.9891 84.2287 77.2504 82.978 77.7731 82.082C78.2958 81.1767 79.2104 80.724 80.5171 80.724C81.8144 80.724 82.7244 81.1767 83.2471 82.082C83.7698 82.978 84.0311 84.2287 84.0311 85.834C84.0311 87.4673 83.7698 88.7367 83.2471 89.642C82.7244 90.5473 81.8144 91 80.5171 91C79.2104 91 78.2958 90.5473 77.7731 89.642C77.2504 88.7367 76.9891 87.4673 76.9891 85.834ZM82.7711 85.834C82.7711 85.022 82.7151 84.336 82.6031 83.776C82.5004 83.2067 82.2811 82.7493 81.9451 82.404C81.6184 82.0587 81.1424 81.886 80.5171 81.886C79.8824 81.886 79.3971 82.0587 79.0611 82.404C78.7344 82.7493 78.5151 83.2067 78.4031 83.776C78.3004 84.336 78.2491 85.022 78.2491 85.834C78.2491 86.674 78.3004 87.3787 78.4031 87.948C78.5151 88.5173 78.7344 88.9747 79.0611 89.32C79.3971 89.6653 79.8824 89.838 80.5171 89.838C81.1424 89.838 81.6184 89.6653 81.9451 89.32C82.2811 88.9747 82.5004 88.5173 82.6031 87.948C82.7151 87.3787 82.7711 86.674 82.7711 85.834ZM85.7801 85.834C85.7801 84.2287 86.0414 82.978 86.5641 82.082C87.0868 81.1767 88.0014 80.724 89.3081 80.724C90.6054 80.724 91.5154 81.1767 92.0381 82.082C92.5608 82.978 92.8221 84.2287 92.8221 85.834C92.8221 87.4673 92.5608 88.7367 92.0381 89.642C91.5154 90.5473 90.6054 91 89.3081 91C88.0014 91 87.0868 90.5473 86.5641 89.642C86.0414 88.7367 85.7801 87.4673 85.7801 85.834ZM91.5621 85.834C91.5621 85.022 91.5061 84.336 91.3941 83.776C91.2914 83.2067 91.0721 82.7493 90.7361 82.404C90.4094 82.0587 89.9334 81.886 89.3081 81.886C88.6734 81.886 88.1881 82.0587 87.8521 82.404C87.5254 82.7493 87.3061 83.2067 87.1941 83.776C87.0914 84.336 87.0401 85.022 87.0401 85.834C87.0401 86.674 87.0914 87.3787 87.1941 87.948C87.3061 88.5173 87.5254 88.9747 87.8521 89.32C88.1881 89.6653 88.6734 89.838 89.3081 89.838C89.9334 89.838 90.4094 89.6653 90.7361 89.32C91.0721 88.9747 91.2914 88.5173 91.3941 87.948C91.5061 87.3787 91.5621 86.674 91.5621 85.834Z" fill="#4B4A4A"/>
<mask id="path-10-inside-4_2027_6266" fill="white">
<path d="M158 68C158 63.5817 161.582 60 166 60H300C304.418 60 308 63.5817 308 68V104C308 108.418 304.418 112 300 112H166C161.582 112 158 108.418 158 104V68Z"/>
</mask>
<path d="M158 68C158 63.5817 161.582 60 166 60H300C304.418 60 308 63.5817 308 68V104C308 108.418 304.418 112 300 112H166C161.582 112 158 108.418 158 104V68Z" fill="white"/>
<path d="M166 60V61H300V60V59H166V60ZM308 68H307V104H308H309V68H308ZM300 112V111H166V112V113H300V112ZM158 104H159V68H158H157V104H158ZM166 112V111C162.134 111 159 107.866 159 104H158H157C157 108.971 161.029 113 166 113V112ZM308 104H307C307 107.866 303.866 111 300 111V112V113C304.971 113 309 108.971 309 104H308ZM300 60V61C303.866 61 307 64.134 307 68H308H309C309 63.0294 304.971 59 300 59V60ZM166 60V59C161.029 59 157 63.0294 157 68H158H159C159 64.134 162.134 61 166 61V60Z" fill="#CDCBCB" mask="url(#path-10-inside-4_2027_6266)"/>
<path d="M215.165 85.834C215.165 84.2287 215.426 82.978 215.949 82.082C216.472 81.1767 217.386 80.724 218.693 80.724C219.99 80.724 220.9 81.1767 221.423 82.082C221.946 82.978 222.207 84.2287 222.207 85.834C222.207 87.4673 221.946 88.7367 221.423 89.642C220.9 90.5473 219.99 91 218.693 91C217.386 91 216.472 90.5473 215.949 89.642C215.426 88.7367 215.165 87.4673 215.165 85.834ZM220.947 85.834C220.947 85.022 220.891 84.336 220.779 83.776C220.676 83.2067 220.457 82.7493 220.121 82.404C219.794 82.0587 219.318 81.886 218.693 81.886C218.058 81.886 217.573 82.0587 217.237 82.404C216.91 82.7493 216.691 83.2067 216.579 83.776C216.476 84.336 216.425 85.022 216.425 85.834C216.425 86.674 216.476 87.3787 216.579 87.948C216.691 88.5173 216.91 88.9747 217.237 89.32C217.573 89.6653 218.058 89.838 218.693 89.838C219.318 89.838 219.794 89.6653 220.121 89.32C220.457 88.9747 220.676 88.5173 220.779 87.948C220.891 87.3787 220.947 86.674 220.947 85.834ZM223.802 89.978C224.987 89.026 225.916 88.2467 226.588 87.64C227.26 87.024 227.825 86.3847 228.282 85.722C228.749 85.05 228.982 84.392 228.982 83.748C228.982 83.1413 228.833 82.6653 228.534 82.32C228.245 81.9653 227.773 81.788 227.12 81.788C226.485 81.788 225.991 81.9887 225.636 82.39C225.291 82.782 225.104 83.3093 225.076 83.972H223.844C223.881 82.9267 224.199 82.1193 224.796 81.55C225.393 80.9807 226.163 80.696 227.106 80.696C228.067 80.696 228.828 80.962 229.388 81.494C229.957 82.026 230.242 82.7587 230.242 83.692C230.242 84.4667 230.009 85.2227 229.542 85.96C229.085 86.688 228.562 87.332 227.974 87.892C227.386 88.4427 226.635 89.0867 225.72 89.824H230.536V90.888H223.802V89.978ZM232.625 91.084C232.382 91.084 232.177 91 232.009 90.832C231.841 90.664 231.757 90.4587 231.757 90.216C231.757 89.9733 231.841 89.768 232.009 89.6C232.177 89.432 232.382 89.348 232.625 89.348C232.858 89.348 233.054 89.432 233.213 89.6C233.381 89.768 233.465 89.9733 233.465 90.216C233.465 90.4587 233.381 90.664 233.213 90.832C233.054 91 232.858 91.084 232.625 91.084ZM232.625 85.092C232.382 85.092 232.177 85.008 232.009 84.84C231.841 84.672 231.757 84.4667 231.757 84.224C231.757 83.9813 231.841 83.776 232.009 83.608C232.177 83.44 232.382 83.356 232.625 83.356C232.858 83.356 233.054 83.44 233.213 83.608C233.381 83.776 233.465 83.9813 233.465 84.224C233.465 84.4667 233.381 84.672 233.213 84.84C233.054 85.008 232.858 85.092 232.625 85.092ZM234.989 85.834C234.989 84.2287 235.25 82.978 235.773 82.082C236.296 81.1767 237.21 80.724 238.517 80.724C239.814 80.724 240.724 81.1767 241.247 82.082C241.77 82.978 242.031 84.2287 242.031 85.834C242.031 87.4673 241.77 88.7367 241.247 89.642C240.724 90.5473 239.814 91 238.517 91C237.21 91 236.296 90.5473 235.773 89.642C235.25 88.7367 234.989 87.4673 234.989 85.834ZM240.771 85.834C240.771 85.022 240.715 84.336 240.603 83.776C240.5 83.2067 240.281 82.7493 239.945 82.404C239.618 82.0587 239.142 81.886 238.517 81.886C237.882 81.886 237.397 82.0587 237.061 82.404C236.734 82.7493 236.515 83.2067 236.403 83.776C236.3 84.336 236.249 85.022 236.249 85.834C236.249 86.674 236.3 87.3787 236.403 87.948C236.515 88.5173 236.734 88.9747 237.061 89.32C237.397 89.6653 237.882 89.838 238.517 89.838C239.142 89.838 239.618 89.6653 239.945 89.32C240.281 88.9747 240.5 88.5173 240.603 87.948C240.715 87.3787 240.771 86.674 240.771 85.834ZM243.78 85.834C243.78 84.2287 244.041 82.978 244.564 82.082C245.087 81.1767 246.001 80.724 247.308 80.724C248.605 80.724 249.515 81.1767 250.038 82.082C250.561 82.978 250.822 84.2287 250.822 85.834C250.822 87.4673 250.561 88.7367 250.038 89.642C249.515 90.5473 248.605 91 247.308 91C246.001 91 245.087 90.5473 244.564 89.642C244.041 88.7367 243.78 87.4673 243.78 85.834ZM249.562 85.834C249.562 85.022 249.506 84.336 249.394 83.776C249.291 83.2067 249.072 82.7493 248.736 82.404C248.409 82.0587 247.933 81.886 247.308 81.886C246.673 81.886 246.188 82.0587 245.852 82.404C245.525 82.7493 245.306 83.2067 245.194 83.776C245.091 84.336 245.04 85.022 245.04 85.834C245.04 86.674 245.091 87.3787 245.194 87.948C245.306 88.5173 245.525 88.9747 245.852 89.32C246.188 89.6653 246.673 89.838 247.308 89.838C247.933 89.838 248.409 89.6653 248.736 89.32C249.072 88.9747 249.291 88.5173 249.394 87.948C249.506 87.3787 249.562 86.674 249.562 85.834Z" fill="#4B4A4A"/>
<mask id="path-13-inside-5_2027_6266" fill="white">
<path d="M0 128C0 123.582 3.58172 120 8 120H142C146.418 120 150 123.582 150 128V164C150 168.418 146.418 172 142 172H8C3.58172 172 0 168.418 0 164V128Z"/>
</mask>
<path d="M0 128C0 123.582 3.58172 120 8 120H142C146.418 120 150 123.582 150 128V164C150 168.418 146.418 172 142 172H8C3.58172 172 0 168.418 0 164V128Z" fill="white"/>
<path d="M8 120V121H142V120V119H8V120ZM150 128H149V164H150H151V128H150ZM142 172V171H8V172V173H142V172ZM0 164H1V128H0H-1V164H0ZM8 172V171C4.13401 171 1 167.866 1 164H0H-1C-1 168.971 3.02944 173 8 173V172ZM150 164H149C149 167.866 145.866 171 142 171V172V173C146.971 173 151 168.971 151 164H150ZM142 120V121C145.866 121 149 124.134 149 128H150H151C151 123.029 146.971 119 142 119V120ZM8 120V119C3.02944 119 -1 123.029 -1 128H0H1C1 124.134 4.13401 121 8 121V120Z" fill="#CDCBCB" mask="url(#path-13-inside-5_2027_6266)"/>
<path d="M57.1649 145.834C57.1649 144.229 57.4262 142.978 57.9489 142.082C58.4715 141.177 59.3862 140.724 60.6929 140.724C61.9902 140.724 62.9002 141.177 63.4229 142.082C63.9455 142.978 64.2069 144.229 64.2069 145.834C64.2069 147.467 63.9455 148.737 63.4229 149.642C62.9002 150.547 61.9902 151 60.6929 151C59.3862 151 58.4715 150.547 57.9489 149.642C57.4262 148.737 57.1649 147.467 57.1649 145.834ZM62.9469 145.834C62.9469 145.022 62.8909 144.336 62.7789 143.776C62.6762 143.207 62.4569 142.749 62.1209 142.404C61.7942 142.059 61.3182 141.886 60.6929 141.886C60.0582 141.886 59.5729 142.059 59.2369 142.404C58.9102 142.749 58.6909 143.207 58.5789 143.776C58.4762 144.336 58.4249 145.022 58.4249 145.834C58.4249 146.674 58.4762 147.379 58.5789 147.948C58.6909 148.517 58.9102 148.975 59.2369 149.32C59.5729 149.665 60.0582 149.838 60.6929 149.838C61.3182 149.838 61.7942 149.665 62.1209 149.32C62.4569 148.975 62.6762 148.517 62.7789 147.948C62.8909 147.379 62.9469 146.674 62.9469 145.834ZM65.8019 149.978C66.9872 149.026 67.9159 148.247 68.5879 147.64C69.2599 147.024 69.8246 146.385 70.2819 145.722C70.7486 145.05 70.9819 144.392 70.9819 143.748C70.9819 143.141 70.8326 142.665 70.5339 142.32C70.2446 141.965 69.7732 141.788 69.1199 141.788C68.4852 141.788 67.9906 141.989 67.6359 142.39C67.2906 142.782 67.1039 143.309 67.0759 143.972H65.8439C65.8812 142.927 66.1986 142.119 66.7959 141.55C67.3932 140.981 68.1632 140.696 69.1059 140.696C70.0672 140.696 70.8279 140.962 71.3879 141.494C71.9572 142.026 72.2419 142.759 72.2419 143.692C72.2419 144.467 72.0086 145.223 71.5419 145.96C71.0846 146.688 70.5619 147.332 69.9739 147.892C69.3859 148.443 68.6346 149.087 67.7199 149.824H72.5359V150.888H65.8019V149.978ZM74.6246 151.084C74.382 151.084 74.1766 151 74.0086 150.832C73.8406 150.664 73.7566 150.459 73.7566 150.216C73.7566 149.973 73.8406 149.768 74.0086 149.6C74.1766 149.432 74.382 149.348 74.6246 149.348C74.858 149.348 75.054 149.432 75.2126 149.6C75.3806 149.768 75.4646 149.973 75.4646 150.216C75.4646 150.459 75.3806 150.664 75.2126 150.832C75.054 151 74.858 151.084 74.6246 151.084ZM74.6246 145.092C74.382 145.092 74.1766 145.008 74.0086 144.84C73.8406 144.672 73.7566 144.467 73.7566 144.224C73.7566 143.981 73.8406 143.776 74.0086 143.608C74.1766 143.44 74.382 143.356 74.6246 143.356C74.858 143.356 75.054 143.44 75.2126 143.608C75.3806 143.776 75.4646 143.981 75.4646 144.224C75.4646 144.467 75.3806 144.672 75.2126 144.84C75.054 145.008 74.858 145.092 74.6246 145.092ZM76.9891 145.834C76.9891 144.229 77.2504 142.978 77.7731 142.082C78.2958 141.177 79.2104 140.724 80.5171 140.724C81.8144 140.724 82.7244 141.177 83.2471 142.082C83.7698 142.978 84.0311 144.229 84.0311 145.834C84.0311 147.467 83.7698 148.737 83.2471 149.642C82.7244 150.547 81.8144 151 80.5171 151C79.2104 151 78.2958 150.547 77.7731 149.642C77.2504 148.737 76.9891 147.467 76.9891 145.834ZM82.7711 145.834C82.7711 145.022 82.7151 144.336 82.6031 143.776C82.5004 143.207 82.2811 142.749 81.9451 142.404C81.6184 142.059 81.1424 141.886 80.5171 141.886C79.8824 141.886 79.3971 142.059 79.0611 142.404C78.7344 142.749 78.5151 143.207 78.4031 143.776C78.3004 144.336 78.2491 145.022 78.2491 145.834C78.2491 146.674 78.3004 147.379 78.4031 147.948C78.5151 148.517 78.7344 148.975 79.0611 149.32C79.3971 149.665 79.8824 149.838 80.5171 149.838C81.1424 149.838 81.6184 149.665 81.9451 149.32C82.2811 148.975 82.5004 148.517 82.6031 147.948C82.7151 147.379 82.7711 146.674 82.7711 145.834ZM85.7801 145.834C85.7801 144.229 86.0414 142.978 86.5641 142.082C87.0868 141.177 88.0014 140.724 89.3081 140.724C90.6054 140.724 91.5154 141.177 92.0381 142.082C92.5608 142.978 92.8221 144.229 92.8221 145.834C92.8221 147.467 92.5608 148.737 92.0381 149.642C91.5154 150.547 90.6054 151 89.3081 151C88.0014 151 87.0868 150.547 86.5641 149.642C86.0414 148.737 85.7801 147.467 85.7801 145.834ZM91.5621 145.834C91.5621 145.022 91.5061 144.336 91.3941 143.776C91.2914 143.207 91.0721 142.749 90.7361 142.404C90.4094 142.059 89.9334 141.886 89.3081 141.886C88.6734 141.886 88.1881 142.059 87.8521 142.404C87.5254 142.749 87.3061 143.207 87.1941 143.776C87.0914 144.336 87.0401 145.022 87.0401 145.834C87.0401 146.674 87.0914 147.379 87.1941 147.948C87.3061 148.517 87.5254 148.975 87.8521 149.32C88.1881 149.665 88.6734 149.838 89.3081 149.838C89.9334 149.838 90.4094 149.665 90.7361 149.32C91.0721 148.975 91.2914 148.517 91.3941 147.948C91.5061 147.379 91.5621 146.674 91.5621 145.834Z" fill="#4B4A4A"/>
<mask id="path-16-inside-6_2027_6266" fill="white">
<path d="M158 128C158 123.582 161.582 120 166 120H300C304.418 120 308 123.582 308 128V164C308 168.418 304.418 172 300 172H166C161.582 172 158 168.418 158 164V128Z"/>
</mask>
<path d="M158 128C158 123.582 161.582 120 166 120H300C304.418 120 308 123.582 308 128V164C308 168.418 304.418 172 300 172H166C161.582 172 158 168.418 158 164V128Z" fill="white"/>
<path d="M166 120V121H300V120V119H166V120ZM308 128H307V164H308H309V128H308ZM300 172V171H166V172V173H300V172ZM158 164H159V128H158H157V164H158ZM166 172V171C162.134 171 159 167.866 159 164H158H157C157 168.971 161.029 173 166 173V172ZM308 164H307C307 167.866 303.866 171 300 171V172V173C304.971 173 309 168.971 309 164H308ZM300 120V121C303.866 121 307 124.134 307 128H308H309C309 123.029 304.971 119 300 119V120ZM166 120V119C161.029 119 157 123.029 157 128H158H159C159 124.134 162.134 121 166 121V120Z" fill="#CDCBCB" mask="url(#path-16-inside-6_2027_6266)"/>
<path d="M215.165 145.834C215.165 144.229 215.426 142.978 215.949 142.082C216.472 141.177 217.386 140.724 218.693 140.724C219.99 140.724 220.9 141.177 221.423 142.082C221.946 142.978 222.207 144.229 222.207 145.834C222.207 147.467 221.946 148.737 221.423 149.642C220.9 150.547 219.99 151 218.693 151C217.386 151 216.472 150.547 215.949 149.642C215.426 148.737 215.165 147.467 215.165 145.834ZM220.947 145.834C220.947 145.022 220.891 144.336 220.779 143.776C220.676 143.207 220.457 142.749 220.121 142.404C219.794 142.059 219.318 141.886 218.693 141.886C218.058 141.886 217.573 142.059 217.237 142.404C216.91 142.749 216.691 143.207 216.579 143.776C216.476 144.336 216.425 145.022 216.425 145.834C216.425 146.674 216.476 147.379 216.579 147.948C216.691 148.517 216.91 148.975 217.237 149.32C217.573 149.665 218.058 149.838 218.693 149.838C219.318 149.838 219.794 149.665 220.121 149.32C220.457 148.975 220.676 148.517 220.779 147.948C220.891 147.379 220.947 146.674 220.947 145.834ZM223.802 149.978C224.987 149.026 225.916 148.247 226.588 147.64C227.26 147.024 227.825 146.385 228.282 145.722C228.749 145.05 228.982 144.392 228.982 143.748C228.982 143.141 228.833 142.665 228.534 142.32C228.245 141.965 227.773 141.788 227.12 141.788C226.485 141.788 225.991 141.989 225.636 142.39C225.291 142.782 225.104 143.309 225.076 143.972H223.844C223.881 142.927 224.199 142.119 224.796 141.55C225.393 140.981 226.163 140.696 227.106 140.696C228.067 140.696 228.828 140.962 229.388 141.494C229.957 142.026 230.242 142.759 230.242 143.692C230.242 144.467 230.009 145.223 229.542 145.96C229.085 146.688 228.562 147.332 227.974 147.892C227.386 148.443 226.635 149.087 225.72 149.824H230.536V150.888H223.802V149.978ZM232.625 151.084C232.382 151.084 232.177 151 232.009 150.832C231.841 150.664 231.757 150.459 231.757 150.216C231.757 149.973 231.841 149.768 232.009 149.6C232.177 149.432 232.382 149.348 232.625 149.348C232.858 149.348 233.054 149.432 233.213 149.6C233.381 149.768 233.465 149.973 233.465 150.216C233.465 150.459 233.381 150.664 233.213 150.832C233.054 151 232.858 151.084 232.625 151.084ZM232.625 145.092C232.382 145.092 232.177 145.008 232.009 144.84C231.841 144.672 231.757 144.467 231.757 144.224C231.757 143.981 231.841 143.776 232.009 143.608C232.177 143.44 232.382 143.356 232.625 143.356C232.858 143.356 233.054 143.44 233.213 143.608C233.381 143.776 233.465 143.981 233.465 144.224C233.465 144.467 233.381 144.672 233.213 144.84C233.054 145.008 232.858 145.092 232.625 145.092ZM234.989 145.834C234.989 144.229 235.25 142.978 235.773 142.082C236.296 141.177 237.21 140.724 238.517 140.724C239.814 140.724 240.724 141.177 241.247 142.082C241.77 142.978 242.031 144.229 242.031 145.834C242.031 147.467 241.77 148.737 241.247 149.642C240.724 150.547 239.814 151 238.517 151C237.21 151 236.296 150.547 235.773 149.642C235.25 148.737 234.989 147.467 234.989 145.834ZM240.771 145.834C240.771 145.022 240.715 144.336 240.603 143.776C240.5 143.207 240.281 142.749 239.945 142.404C239.618 142.059 239.142 141.886 238.517 141.886C237.882 141.886 237.397 142.059 237.061 142.404C236.734 142.749 236.515 143.207 236.403 143.776C236.3 144.336 236.249 145.022 236.249 145.834C236.249 146.674 236.3 147.379 236.403 147.948C236.515 148.517 236.734 148.975 237.061 149.32C237.397 149.665 237.882 149.838 238.517 149.838C239.142 149.838 239.618 149.665 239.945 149.32C240.281 148.975 240.5 148.517 240.603 147.948C240.715 147.379 240.771 146.674 240.771 145.834ZM243.78 145.834C243.78 144.229 244.041 142.978 244.564 142.082C245.087 141.177 246.001 140.724 247.308 140.724C248.605 140.724 249.515 141.177 250.038 142.082C250.561 142.978 250.822 144.229 250.822 145.834C250.822 147.467 250.561 148.737 250.038 149.642C249.515 150.547 248.605 151 247.308 151C246.001 151 245.087 150.547 244.564 149.642C244.041 148.737 243.78 147.467 243.78 145.834ZM249.562 145.834C249.562 145.022 249.506 144.336 249.394 143.776C249.291 143.207 249.072 142.749 248.736 142.404C248.409 142.059 247.933 141.886 247.308 141.886C246.673 141.886 246.188 142.059 245.852 142.404C245.525 142.749 245.306 143.207 245.194 143.776C245.091 144.336 245.04 145.022 245.04 145.834C245.04 146.674 245.091 147.379 245.194 147.948C245.306 148.517 245.525 148.975 245.852 149.32C246.188 149.665 246.673 149.838 247.308 149.838C247.933 149.838 248.409 149.665 248.736 149.32C249.072 148.975 249.291 148.517 249.394 147.948C249.506 147.379 249.562 146.674 249.562 145.834Z" fill="#4B4A4A"/>
</svg>
