<svg width="308" height="52" viewBox="0 0 308 52" fill="none" xmlns="http://www.w3.org/2000/svg">
<mask id="path-1-inside-1_3212_21399" fill="white">
<path d="M0 8C0 3.58172 3.58172 0 8 0H63C67.4183 0 71 3.58172 71 8V44C71 48.4183 67.4183 52 63 52H8C3.58172 52 0 48.4183 0 44V8Z"/>
</mask>
<path d="M0 8C0 3.58172 3.58172 0 8 0H63C67.4183 0 71 3.58172 71 8V44C71 48.4183 67.4183 52 63 52H8C3.58172 52 0 48.4183 0 44V8Z" fill="white"/>
<path d="M8 0V1H63V0V-1H8V0ZM71 8H70V44H71H72V8H71ZM63 52V51H8V52V53H63V52ZM0 44H1V8H0H-1V44H0ZM8 52V51C4.13401 51 1 47.866 1 44H0H-1C-1 48.9706 3.02944 53 8 53V52ZM71 44H70C70 47.866 66.866 51 63 51V52V53C67.9706 53 72 48.9706 72 44H71ZM63 0V1C66.866 1 70 4.13401 70 8H71H72C72 3.02944 67.9706 -1 63 -1V0ZM8 0V-1C3.02944 -1 -1 3.02944 -1 8H0H1C1 4.13401 4.13401 1 8 1V0Z" fill="#CDCBCB" mask="url(#path-1-inside-1_3212_21399)"/>
<path d="M17.6649 25.834C17.6649 24.2287 17.9262 22.978 18.4489 22.082C18.9715 21.1767 19.8862 20.724 21.1929 20.724C22.4902 20.724 23.4002 21.1767 23.9229 22.082C24.4455 22.978 24.7069 24.2287 24.7069 25.834C24.7069 27.4673 24.4455 28.7367 23.9229 29.642C23.4002 30.5473 22.4902 31 21.1929 31C19.8862 31 18.9715 30.5473 18.4489 29.642C17.9262 28.7367 17.6649 27.4673 17.6649 25.834ZM23.4469 25.834C23.4469 25.022 23.3909 24.336 23.2789 23.776C23.1762 23.2067 22.9569 22.7493 22.6209 22.404C22.2942 22.0587 21.8182 21.886 21.1929 21.886C20.5582 21.886 20.0729 22.0587 19.7369 22.404C19.4102 22.7493 19.1909 23.2067 19.0789 23.776C18.9762 24.336 18.9249 25.022 18.9249 25.834C18.9249 26.674 18.9762 27.3787 19.0789 27.948C19.1909 28.5173 19.4102 28.9747 19.7369 29.32C20.0729 29.6653 20.5582 29.838 21.1929 29.838C21.8182 29.838 22.2942 29.6653 22.6209 29.32C22.9569 28.9747 23.1762 28.5173 23.2789 27.948C23.3909 27.3787 23.4469 26.674 23.4469 25.834ZM26.3019 29.978C27.4872 29.026 28.4159 28.2467 29.0879 27.64C29.7599 27.024 30.3246 26.3847 30.7819 25.722C31.2486 25.05 31.4819 24.392 31.4819 23.748C31.4819 23.1413 31.3326 22.6653 31.0339 22.32C30.7446 21.9653 30.2732 21.788 29.6199 21.788C28.9852 21.788 28.4906 21.9887 28.1359 22.39C27.7906 22.782 27.6039 23.3093 27.5759 23.972H26.3439C26.3812 22.9267 26.6986 22.1193 27.2959 21.55C27.8932 20.9807 28.6632 20.696 29.6059 20.696C30.5672 20.696 31.3279 20.962 31.8879 21.494C32.4572 22.026 32.7419 22.7587 32.7419 23.692C32.7419 24.4667 32.5086 25.2227 32.0419 25.96C31.5846 26.688 31.0619 27.332 30.4739 27.892C29.8859 28.4427 29.1346 29.0867 28.2199 29.824H33.0359V30.888H26.3019V29.978ZM35.1246 31.084C34.882 31.084 34.6766 31 34.5086 30.832C34.3406 30.664 34.2566 30.4587 34.2566 30.216C34.2566 29.9733 34.3406 29.768 34.5086 29.6C34.6766 29.432 34.882 29.348 35.1246 29.348C35.358 29.348 35.554 29.432 35.7126 29.6C35.8806 29.768 35.9646 29.9733 35.9646 30.216C35.9646 30.4587 35.8806 30.664 35.7126 30.832C35.554 31 35.358 31.084 35.1246 31.084ZM35.1246 25.092C34.882 25.092 34.6766 25.008 34.5086 24.84C34.3406 24.672 34.2566 24.4667 34.2566 24.224C34.2566 23.9813 34.3406 23.776 34.5086 23.608C34.6766 23.44 34.882 23.356 35.1246 23.356C35.358 23.356 35.554 23.44 35.7126 23.608C35.8806 23.776 35.9646 23.9813 35.9646 24.224C35.9646 24.4667 35.8806 24.672 35.7126 24.84C35.554 25.008 35.358 25.092 35.1246 25.092ZM37.4891 25.834C37.4891 24.2287 37.7504 22.978 38.2731 22.082C38.7958 21.1767 39.7104 20.724 41.0171 20.724C42.3144 20.724 43.2244 21.1767 43.7471 22.082C44.2698 22.978 44.5311 24.2287 44.5311 25.834C44.5311 27.4673 44.2698 28.7367 43.7471 29.642C43.2244 30.5473 42.3144 31 41.0171 31C39.7104 31 38.7958 30.5473 38.2731 29.642C37.7504 28.7367 37.4891 27.4673 37.4891 25.834ZM43.2711 25.834C43.2711 25.022 43.2151 24.336 43.1031 23.776C43.0004 23.2067 42.7811 22.7493 42.4451 22.404C42.1184 22.0587 41.6424 21.886 41.0171 21.886C40.3824 21.886 39.8971 22.0587 39.5611 22.404C39.2344 22.7493 39.0151 23.2067 38.9031 23.776C38.8004 24.336 38.7491 25.022 38.7491 25.834C38.7491 26.674 38.8004 27.3787 38.9031 27.948C39.0151 28.5173 39.2344 28.9747 39.5611 29.32C39.8971 29.6653 40.3824 29.838 41.0171 29.838C41.6424 29.838 42.1184 29.6653 42.4451 29.32C42.7811 28.9747 43.0004 28.5173 43.1031 27.948C43.2151 27.3787 43.2711 26.674 43.2711 25.834ZM46.2801 25.834C46.2801 24.2287 46.5414 22.978 47.0641 22.082C47.5868 21.1767 48.5014 20.724 49.8081 20.724C51.1054 20.724 52.0154 21.1767 52.5381 22.082C53.0608 22.978 53.3221 24.2287 53.3221 25.834C53.3221 27.4673 53.0608 28.7367 52.5381 29.642C52.0154 30.5473 51.1054 31 49.8081 31C48.5014 31 47.5868 30.5473 47.0641 29.642C46.5414 28.7367 46.2801 27.4673 46.2801 25.834ZM52.0621 25.834C52.0621 25.022 52.0061 24.336 51.8941 23.776C51.7914 23.2067 51.5721 22.7493 51.2361 22.404C50.9094 22.0587 50.4334 21.886 49.8081 21.886C49.1734 21.886 48.6881 22.0587 48.3521 22.404C48.0254 22.7493 47.8061 23.2067 47.6941 23.776C47.5914 24.336 47.5401 25.022 47.5401 25.834C47.5401 26.674 47.5914 27.3787 47.6941 27.948C47.8061 28.5173 48.0254 28.9747 48.3521 29.32C48.6881 29.6653 49.1734 29.838 49.8081 29.838C50.4334 29.838 50.9094 29.6653 51.2361 29.32C51.5721 28.9747 51.7914 28.5173 51.8941 27.948C52.0061 27.3787 52.0621 26.674 52.0621 25.834Z" fill="#4B4A4A"/>
<mask id="path-4-inside-2_3212_21399" fill="white">
<path d="M79 8C79 3.58172 82.5817 0 87 0H142C146.418 0 150 3.58172 150 8V44C150 48.4183 146.418 52 142 52H87C82.5817 52 79 48.4183 79 44V8Z"/>
</mask>
<path d="M79 8C79 3.58172 82.5817 0 87 0H142C146.418 0 150 3.58172 150 8V44C150 48.4183 146.418 52 142 52H87C82.5817 52 79 48.4183 79 44V8Z" fill="white"/>
<path d="M87 0V1H142V0V-1H87V0ZM150 8H149V44H150H151V8H150ZM142 52V51H87V52V53H142V52ZM79 44H80V8H79H78V44H79ZM87 52V51C83.134 51 80 47.866 80 44H79H78C78 48.9706 82.0294 53 87 53V52ZM150 44H149C149 47.866 145.866 51 142 51V52V53C146.971 53 151 48.9706 151 44H150ZM142 0V1C145.866 1 149 4.13401 149 8H150H151C151 3.02944 146.971 -1 142 -1V0ZM87 0V-1C82.0294 -1 78 3.02944 78 8H79H80C80 4.13401 83.134 1 87 1V0Z" fill="#CDCBCB" mask="url(#path-4-inside-2_3212_21399)"/>
<path d="M96.6649 25.834C96.6649 24.2287 96.9262 22.978 97.4489 22.082C97.9715 21.1767 98.8862 20.724 100.193 20.724C101.49 20.724 102.4 21.1767 102.923 22.082C103.446 22.978 103.707 24.2287 103.707 25.834C103.707 27.4673 103.446 28.7367 102.923 29.642C102.4 30.5473 101.49 31 100.193 31C98.8862 31 97.9715 30.5473 97.4489 29.642C96.9262 28.7367 96.6649 27.4673 96.6649 25.834ZM102.447 25.834C102.447 25.022 102.391 24.336 102.279 23.776C102.176 23.2067 101.957 22.7493 101.621 22.404C101.294 22.0587 100.818 21.886 100.193 21.886C99.5582 21.886 99.0729 22.0587 98.7369 22.404C98.4102 22.7493 98.1909 23.2067 98.0789 23.776C97.9762 24.336 97.9249 25.022 97.9249 25.834C97.9249 26.674 97.9762 27.3787 98.0789 27.948C98.1909 28.5173 98.4102 28.9747 98.7369 29.32C99.0729 29.6653 99.5582 29.838 100.193 29.838C100.818 29.838 101.294 29.6653 101.621 29.32C101.957 28.9747 102.176 28.5173 102.279 27.948C102.391 27.3787 102.447 26.674 102.447 25.834ZM105.302 29.978C106.487 29.026 107.416 28.2467 108.088 27.64C108.76 27.024 109.325 26.3847 109.782 25.722C110.249 25.05 110.482 24.392 110.482 23.748C110.482 23.1413 110.333 22.6653 110.034 22.32C109.745 21.9653 109.273 21.788 108.62 21.788C107.985 21.788 107.491 21.9887 107.136 22.39C106.791 22.782 106.604 23.3093 106.576 23.972H105.344C105.381 22.9267 105.699 22.1193 106.296 21.55C106.893 20.9807 107.663 20.696 108.606 20.696C109.567 20.696 110.328 20.962 110.888 21.494C111.457 22.026 111.742 22.7587 111.742 23.692C111.742 24.4667 111.509 25.2227 111.042 25.96C110.585 26.688 110.062 27.332 109.474 27.892C108.886 28.4427 108.135 29.0867 107.22 29.824H112.036V30.888H105.302V29.978ZM114.125 31.084C113.882 31.084 113.677 31 113.509 30.832C113.341 30.664 113.257 30.4587 113.257 30.216C113.257 29.9733 113.341 29.768 113.509 29.6C113.677 29.432 113.882 29.348 114.125 29.348C114.358 29.348 114.554 29.432 114.713 29.6C114.881 29.768 114.965 29.9733 114.965 30.216C114.965 30.4587 114.881 30.664 114.713 30.832C114.554 31 114.358 31.084 114.125 31.084ZM114.125 25.092C113.882 25.092 113.677 25.008 113.509 24.84C113.341 24.672 113.257 24.4667 113.257 24.224C113.257 23.9813 113.341 23.776 113.509 23.608C113.677 23.44 113.882 23.356 114.125 23.356C114.358 23.356 114.554 23.44 114.713 23.608C114.881 23.776 114.965 23.9813 114.965 24.224C114.965 24.4667 114.881 24.672 114.713 24.84C114.554 25.008 114.358 25.092 114.125 25.092ZM116.489 25.834C116.489 24.2287 116.75 22.978 117.273 22.082C117.796 21.1767 118.71 20.724 120.017 20.724C121.314 20.724 122.224 21.1767 122.747 22.082C123.27 22.978 123.531 24.2287 123.531 25.834C123.531 27.4673 123.27 28.7367 122.747 29.642C122.224 30.5473 121.314 31 120.017 31C118.71 31 117.796 30.5473 117.273 29.642C116.75 28.7367 116.489 27.4673 116.489 25.834ZM122.271 25.834C122.271 25.022 122.215 24.336 122.103 23.776C122 23.2067 121.781 22.7493 121.445 22.404C121.118 22.0587 120.642 21.886 120.017 21.886C119.382 21.886 118.897 22.0587 118.561 22.404C118.234 22.7493 118.015 23.2067 117.903 23.776C117.8 24.336 117.749 25.022 117.749 25.834C117.749 26.674 117.8 27.3787 117.903 27.948C118.015 28.5173 118.234 28.9747 118.561 29.32C118.897 29.6653 119.382 29.838 120.017 29.838C120.642 29.838 121.118 29.6653 121.445 29.32C121.781 28.9747 122 28.5173 122.103 27.948C122.215 27.3787 122.271 26.674 122.271 25.834ZM125.28 25.834C125.28 24.2287 125.541 22.978 126.064 22.082C126.587 21.1767 127.501 20.724 128.808 20.724C130.105 20.724 131.015 21.1767 131.538 22.082C132.061 22.978 132.322 24.2287 132.322 25.834C132.322 27.4673 132.061 28.7367 131.538 29.642C131.015 30.5473 130.105 31 128.808 31C127.501 31 126.587 30.5473 126.064 29.642C125.541 28.7367 125.28 27.4673 125.28 25.834ZM131.062 25.834C131.062 25.022 131.006 24.336 130.894 23.776C130.791 23.2067 130.572 22.7493 130.236 22.404C129.909 22.0587 129.433 21.886 128.808 21.886C128.173 21.886 127.688 22.0587 127.352 22.404C127.025 22.7493 126.806 23.2067 126.694 23.776C126.591 24.336 126.54 25.022 126.54 25.834C126.54 26.674 126.591 27.3787 126.694 27.948C126.806 28.5173 127.025 28.9747 127.352 29.32C127.688 29.6653 128.173 29.838 128.808 29.838C129.433 29.838 129.909 29.6653 130.236 29.32C130.572 28.9747 130.791 28.5173 130.894 27.948C131.006 27.3787 131.062 26.674 131.062 25.834Z" fill="#4B4A4A"/>
<mask id="path-7-inside-3_3212_21399" fill="white">
<path d="M158 8C158 3.58172 161.582 0 166 0H221C225.418 0 229 3.58172 229 8V44C229 48.4183 225.418 52 221 52H166C161.582 52 158 48.4183 158 44V8Z"/>
</mask>
<path d="M158 8C158 3.58172 161.582 0 166 0H221C225.418 0 229 3.58172 229 8V44C229 48.4183 225.418 52 221 52H166C161.582 52 158 48.4183 158 44V8Z" fill="#FAF8F7"/>
<path d="M166 0V1H221V0V-1H166V0ZM229 8H228V44H229H230V8H229ZM221 52V51H166V52V53H221V52ZM158 44H159V8H158H157V44H158ZM166 52V51C162.134 51 159 47.866 159 44H158H157C157 48.9706 161.029 53 166 53V52ZM229 44H228C228 47.866 224.866 51 221 51V52V53C225.971 53 230 48.9706 230 44H229ZM221 0V1C224.866 1 228 4.13401 228 8H229H230C230 3.02944 225.971 -1 221 -1V0ZM166 0V-1C161.029 -1 157 3.02944 157 8H158H159C159 4.13401 162.134 1 166 1V0Z" fill="#CDCBCB" mask="url(#path-7-inside-3_3212_21399)"/>
<path d="M175.296 25.834C175.296 24.2287 175.557 22.978 176.08 22.082C176.602 21.1767 177.517 20.724 178.824 20.724C180.121 20.724 181.031 21.1767 181.554 22.082C182.076 22.978 182.338 24.2287 182.338 25.834C182.338 27.4673 182.076 28.7367 181.554 29.642C181.031 30.5473 180.121 31 178.824 31C177.517 31 176.602 30.5473 176.08 29.642C175.557 28.7367 175.296 27.4673 175.296 25.834ZM181.078 25.834C181.078 25.022 181.022 24.336 180.91 23.776C180.807 23.2067 180.588 22.7493 180.252 22.404C179.925 22.0587 179.449 21.886 178.824 21.886C178.189 21.886 177.704 22.0587 177.368 22.404C177.041 22.7493 176.822 23.2067 176.71 23.776C176.607 24.336 176.556 25.022 176.556 25.834C176.556 26.674 176.607 27.3787 176.71 27.948C176.822 28.5173 177.041 28.9747 177.368 29.32C177.704 29.6653 178.189 29.838 178.824 29.838C179.449 29.838 179.925 29.6653 180.252 29.32C180.588 28.9747 180.807 28.5173 180.91 27.948C181.022 27.3787 181.078 26.674 181.078 25.834ZM184.087 25.834C184.087 24.2287 184.348 22.978 184.871 22.082C185.393 21.1767 186.308 20.724 187.615 20.724C188.912 20.724 189.822 21.1767 190.345 22.082C190.867 22.978 191.129 24.2287 191.129 25.834C191.129 27.4673 190.867 28.7367 190.345 29.642C189.822 30.5473 188.912 31 187.615 31C186.308 31 185.393 30.5473 184.871 29.642C184.348 28.7367 184.087 27.4673 184.087 25.834ZM189.869 25.834C189.869 25.022 189.813 24.336 189.701 23.776C189.598 23.2067 189.379 22.7493 189.043 22.404C188.716 22.0587 188.24 21.886 187.615 21.886C186.98 21.886 186.495 22.0587 186.159 22.404C185.832 22.7493 185.613 23.2067 185.501 23.776C185.398 24.336 185.347 25.022 185.347 25.834C185.347 26.674 185.398 27.3787 185.501 27.948C185.613 28.5173 185.832 28.9747 186.159 29.32C186.495 29.6653 186.98 29.838 187.615 29.838C188.24 29.838 188.716 29.6653 189.043 29.32C189.379 28.9747 189.598 28.5173 189.701 27.948C189.813 27.3787 189.869 26.674 189.869 25.834ZM193.494 31.084C193.251 31.084 193.046 31 192.878 30.832C192.71 30.664 192.626 30.4587 192.626 30.216C192.626 29.9733 192.71 29.768 192.878 29.6C193.046 29.432 193.251 29.348 193.494 29.348C193.727 29.348 193.923 29.432 194.082 29.6C194.25 29.768 194.334 29.9733 194.334 30.216C194.334 30.4587 194.25 30.664 194.082 30.832C193.923 31 193.727 31.084 193.494 31.084ZM193.494 25.092C193.251 25.092 193.046 25.008 192.878 24.84C192.71 24.672 192.626 24.4667 192.626 24.224C192.626 23.9813 192.71 23.776 192.878 23.608C193.046 23.44 193.251 23.356 193.494 23.356C193.727 23.356 193.923 23.44 194.082 23.608C194.25 23.776 194.334 23.9813 194.334 24.224C194.334 24.4667 194.25 24.672 194.082 24.84C193.923 25.008 193.727 25.092 193.494 25.092ZM195.858 25.834C195.858 24.2287 196.12 22.978 196.642 22.082C197.165 21.1767 198.08 20.724 199.386 20.724C200.684 20.724 201.594 21.1767 202.116 22.082C202.639 22.978 202.9 24.2287 202.9 25.834C202.9 27.4673 202.639 28.7367 202.116 29.642C201.594 30.5473 200.684 31 199.386 31C198.08 31 197.165 30.5473 196.642 29.642C196.12 28.7367 195.858 27.4673 195.858 25.834ZM201.64 25.834C201.64 25.022 201.584 24.336 201.472 23.776C201.37 23.2067 201.15 22.7493 200.814 22.404C200.488 22.0587 200.012 21.886 199.386 21.886C198.752 21.886 198.266 22.0587 197.93 22.404C197.604 22.7493 197.384 23.2067 197.272 23.776C197.17 24.336 197.118 25.022 197.118 25.834C197.118 26.674 197.17 27.3787 197.272 27.948C197.384 28.5173 197.604 28.9747 197.93 29.32C198.266 29.6653 198.752 29.838 199.386 29.838C200.012 29.838 200.488 29.6653 200.814 29.32C201.15 28.9747 201.37 28.5173 201.472 27.948C201.584 27.3787 201.64 26.674 201.64 25.834ZM204.649 25.834C204.649 24.2287 204.911 22.978 205.433 22.082C205.956 21.1767 206.871 20.724 208.177 20.724C209.475 20.724 210.385 21.1767 210.907 22.082C211.43 22.978 211.691 24.2287 211.691 25.834C211.691 27.4673 211.43 28.7367 210.907 29.642C210.385 30.5473 209.475 31 208.177 31C206.871 31 205.956 30.5473 205.433 29.642C204.911 28.7367 204.649 27.4673 204.649 25.834ZM210.431 25.834C210.431 25.022 210.375 24.336 210.263 23.776C210.161 23.2067 209.941 22.7493 209.605 22.404C209.279 22.0587 208.803 21.886 208.177 21.886C207.543 21.886 207.057 22.0587 206.721 22.404C206.395 22.7493 206.175 23.2067 206.063 23.776C205.961 24.336 205.909 25.022 205.909 25.834C205.909 26.674 205.961 27.3787 206.063 27.948C206.175 28.5173 206.395 28.9747 206.721 29.32C207.057 29.6653 207.543 29.838 208.177 29.838C208.803 29.838 209.279 29.6653 209.605 29.32C209.941 28.9747 210.161 28.5173 210.263 27.948C210.375 27.3787 210.431 26.674 210.431 25.834Z" fill="#91908F"/>
<path d="M174.428 26.408H212.573V27.108H174.428V26.408Z" fill="#91908F"/>
<path d="M237 8C237 3.58172 240.582 0 245 0H300C304.418 0 308 3.58172 308 8V44C308 48.4183 304.418 52 300 52H245C240.582 52 237 48.4183 237 44V8Z" fill="#0A2333"/>
<path d="M253.605 25.764C253.605 24.1493 253.875 22.8893 254.417 21.984C254.967 21.0693 255.91 20.612 257.245 20.612C258.579 20.612 259.517 21.0693 260.059 21.984C260.609 22.8893 260.885 24.1493 260.885 25.764C260.885 27.3973 260.609 28.676 260.059 29.6C259.517 30.5147 258.579 30.972 257.245 30.972C255.91 30.972 254.967 30.5147 254.417 29.6C253.875 28.676 253.605 27.3973 253.605 25.764ZM259.317 25.764C259.317 25.008 259.265 24.3687 259.163 23.846C259.069 23.3233 258.873 22.8987 258.575 22.572C258.276 22.236 257.833 22.068 257.245 22.068C256.657 22.068 256.213 22.236 255.915 22.572C255.616 22.8987 255.415 23.3233 255.313 23.846C255.219 24.3687 255.173 25.008 255.173 25.764C255.173 26.548 255.219 27.206 255.313 27.738C255.406 28.27 255.602 28.6993 255.901 29.026C256.209 29.3527 256.657 29.516 257.245 29.516C257.833 29.516 258.276 29.3527 258.575 29.026C258.883 28.6993 259.083 28.27 259.177 27.738C259.27 27.206 259.317 26.548 259.317 25.764ZM262.377 28.872V27.668L267.081 20.92H269.013V27.486H270.315V28.872H269.013V31H267.445V28.872H262.377ZM267.515 22.544L264.211 27.486H267.515V22.544ZM272.492 31.098C272.203 31.098 271.96 31 271.764 30.804C271.568 30.608 271.47 30.3653 271.47 30.076C271.47 29.7867 271.568 29.544 271.764 29.348C271.96 29.152 272.203 29.054 272.492 29.054C272.772 29.054 273.01 29.152 273.206 29.348C273.402 29.544 273.5 29.7867 273.5 30.076C273.5 30.3653 273.402 30.608 273.206 30.804C273.01 31 272.772 31.098 272.492 31.098ZM272.492 25.218C272.203 25.218 271.96 25.12 271.764 24.924C271.568 24.728 271.47 24.4853 271.47 24.196C271.47 23.9067 271.568 23.664 271.764 23.468C271.96 23.272 272.203 23.174 272.492 23.174C272.772 23.174 273.01 23.272 273.206 23.468C273.402 23.664 273.5 23.9067 273.5 24.196C273.5 24.4853 273.402 24.728 273.206 24.924C273.01 25.12 272.772 25.218 272.492 25.218ZM274.873 28.872V27.668L279.577 20.92H281.509V27.486H282.811V28.872H281.509V31H279.941V28.872H274.873ZM280.011 22.544L276.707 27.486H280.011V22.544ZM290.714 22.166H286.024V24.952C286.22 24.6907 286.509 24.4713 286.892 24.294C287.284 24.1167 287.699 24.028 288.138 24.028C288.922 24.028 289.557 24.196 290.042 24.532C290.537 24.868 290.887 25.2927 291.092 25.806C291.307 26.3193 291.414 26.8607 291.414 27.43C291.414 28.1207 291.279 28.7367 291.008 29.278C290.747 29.81 290.35 30.23 289.818 30.538C289.295 30.846 288.651 31 287.886 31C286.869 31 286.052 30.748 285.436 30.244C284.82 29.74 284.451 29.0727 284.33 28.242H285.884C285.987 28.6807 286.215 29.0307 286.57 29.292C286.925 29.544 287.368 29.67 287.9 29.67C288.563 29.67 289.057 29.4693 289.384 29.068C289.72 28.6667 289.888 28.1347 289.888 27.472C289.888 26.8 289.72 26.2867 289.384 25.932C289.048 25.568 288.553 25.386 287.9 25.386C287.443 25.386 287.055 25.5027 286.738 25.736C286.43 25.96 286.206 26.268 286.066 26.66H284.554V20.766H290.714V22.166Z" fill="white"/>
</svg>
