<svg width="392" height="496" viewBox="0 0 392 496" fill="none" xmlns="http://www.w3.org/2000/svg">
<mask id="path-2-inside-1_2027_74683" fill="white">
<path d="M0 8C0 3.58172 3.58172 0 8 0H384C388.418 0 392 3.58172 392 8V44C392 48.4183 388.418 52 384 52H8C3.58172 52 0 48.4183 0 44V8Z"/>
</mask>
<path d="M0 8C0 3.58172 3.58172 0 8 0H384C388.418 0 392 3.58172 392 8V44C392 48.4183 388.418 52 384 52H8C3.58172 52 0 48.4183 0 44V8Z" fill="#FAF8F7"/>
<path d="M8 0V1H384V0V-1H8V0ZM392 8H391V44H392H393V8H392ZM384 52V51H8V52V53H384V52ZM0 44H1V8H0H-1V44H0ZM8 52V51C4.134 51 1 47.866 1 44H0H-1C-1 48.9706 3.02943 53 8 53V52ZM392 44H391C391 47.866 387.866 51 384 51V52V53C388.971 53 393 48.9706 393 44H392ZM384 0V1C387.866 1 391 4.13401 391 8H392H393C393 3.02944 388.971 -1 384 -1V0ZM8 0V-1C3.02944 -1 -1 3.02944 -1 8H0H1C1 4.13401 4.13401 1 8 1V0Z" fill="#CDCBCB" mask="url(#path-2-inside-1_2027_74683)"/>
<path d="M177.796 25.834C177.796 24.2287 178.057 22.978 178.58 22.082C179.102 21.1767 180.017 20.724 181.324 20.724C182.621 20.724 183.531 21.1767 184.054 22.082C184.576 22.978 184.838 24.2287 184.838 25.834C184.838 27.4673 184.576 28.7367 184.054 29.642C183.531 30.5473 182.621 31 181.324 31C180.017 31 179.102 30.5473 178.58 29.642C178.057 28.7367 177.796 27.4673 177.796 25.834ZM183.578 25.834C183.578 25.022 183.522 24.336 183.41 23.776C183.307 23.2067 183.088 22.7493 182.752 22.404C182.425 22.0587 181.949 21.886 181.324 21.886C180.689 21.886 180.204 22.0587 179.868 22.404C179.541 22.7493 179.322 23.2067 179.21 23.776C179.107 24.336 179.056 25.022 179.056 25.834C179.056 26.674 179.107 27.3787 179.21 27.948C179.322 28.5173 179.541 28.9747 179.868 29.32C180.204 29.6653 180.689 29.838 181.324 29.838C181.949 29.838 182.425 29.6653 182.752 29.32C183.088 28.9747 183.307 28.5173 183.41 27.948C183.522 27.3787 183.578 26.674 183.578 25.834ZM186.587 25.834C186.587 24.2287 186.848 22.978 187.371 22.082C187.893 21.1767 188.808 20.724 190.115 20.724C191.412 20.724 192.322 21.1767 192.845 22.082C193.367 22.978 193.629 24.2287 193.629 25.834C193.629 27.4673 193.367 28.7367 192.845 29.642C192.322 30.5473 191.412 31 190.115 31C188.808 31 187.893 30.5473 187.371 29.642C186.848 28.7367 186.587 27.4673 186.587 25.834ZM192.369 25.834C192.369 25.022 192.313 24.336 192.201 23.776C192.098 23.2067 191.879 22.7493 191.543 22.404C191.216 22.0587 190.74 21.886 190.115 21.886C189.48 21.886 188.995 22.0587 188.659 22.404C188.332 22.7493 188.113 23.2067 188.001 23.776C187.898 24.336 187.847 25.022 187.847 25.834C187.847 26.674 187.898 27.3787 188.001 27.948C188.113 28.5173 188.332 28.9747 188.659 29.32C188.995 29.6653 189.48 29.838 190.115 29.838C190.74 29.838 191.216 29.6653 191.543 29.32C191.879 28.9747 192.098 28.5173 192.201 27.948C192.313 27.3787 192.369 26.674 192.369 25.834ZM195.994 31.084C195.751 31.084 195.546 31 195.378 30.832C195.21 30.664 195.126 30.4587 195.126 30.216C195.126 29.9733 195.21 29.768 195.378 29.6C195.546 29.432 195.751 29.348 195.994 29.348C196.227 29.348 196.423 29.432 196.582 29.6C196.75 29.768 196.834 29.9733 196.834 30.216C196.834 30.4587 196.75 30.664 196.582 30.832C196.423 31 196.227 31.084 195.994 31.084ZM195.994 25.092C195.751 25.092 195.546 25.008 195.378 24.84C195.21 24.672 195.126 24.4667 195.126 24.224C195.126 23.9813 195.21 23.776 195.378 23.608C195.546 23.44 195.751 23.356 195.994 23.356C196.227 23.356 196.423 23.44 196.582 23.608C196.75 23.776 196.834 23.9813 196.834 24.224C196.834 24.4667 196.75 24.672 196.582 24.84C196.423 25.008 196.227 25.092 195.994 25.092ZM198.358 25.834C198.358 24.2287 198.62 22.978 199.142 22.082C199.665 21.1767 200.58 20.724 201.886 20.724C203.184 20.724 204.094 21.1767 204.616 22.082C205.139 22.978 205.4 24.2287 205.4 25.834C205.4 27.4673 205.139 28.7367 204.616 29.642C204.094 30.5473 203.184 31 201.886 31C200.58 31 199.665 30.5473 199.142 29.642C198.62 28.7367 198.358 27.4673 198.358 25.834ZM204.14 25.834C204.14 25.022 204.084 24.336 203.972 23.776C203.87 23.2067 203.65 22.7493 203.314 22.404C202.988 22.0587 202.512 21.886 201.886 21.886C201.252 21.886 200.766 22.0587 200.43 22.404C200.104 22.7493 199.884 23.2067 199.772 23.776C199.67 24.336 199.618 25.022 199.618 25.834C199.618 26.674 199.67 27.3787 199.772 27.948C199.884 28.5173 200.104 28.9747 200.43 29.32C200.766 29.6653 201.252 29.838 201.886 29.838C202.512 29.838 202.988 29.6653 203.314 29.32C203.65 28.9747 203.87 28.5173 203.972 27.948C204.084 27.3787 204.14 26.674 204.14 25.834ZM207.149 25.834C207.149 24.2287 207.411 22.978 207.933 22.082C208.456 21.1767 209.371 20.724 210.677 20.724C211.975 20.724 212.885 21.1767 213.407 22.082C213.93 22.978 214.191 24.2287 214.191 25.834C214.191 27.4673 213.93 28.7367 213.407 29.642C212.885 30.5473 211.975 31 210.677 31C209.371 31 208.456 30.5473 207.933 29.642C207.411 28.7367 207.149 27.4673 207.149 25.834ZM212.931 25.834C212.931 25.022 212.875 24.336 212.763 23.776C212.661 23.2067 212.441 22.7493 212.105 22.404C211.779 22.0587 211.303 21.886 210.677 21.886C210.043 21.886 209.557 22.0587 209.221 22.404C208.895 22.7493 208.675 23.2067 208.563 23.776C208.461 24.336 208.409 25.022 208.409 25.834C208.409 26.674 208.461 27.3787 208.563 27.948C208.675 28.5173 208.895 28.9747 209.221 29.32C209.557 29.6653 210.043 29.838 210.677 29.838C211.303 29.838 211.779 29.6653 212.105 29.32C212.441 28.9747 212.661 28.5173 212.763 27.948C212.875 27.3787 212.931 26.674 212.931 25.834Z" fill="#91908F"/>
<path d="M176.928 26.408H215.073V27.108H176.928V26.408Z" fill="#91908F"/>
<mask id="path-5-inside-2_2027_74683" fill="white">
<path d="M0 68C0 63.5817 3.58172 60 8 60H384C388.418 60 392 63.5817 392 68V104C392 108.418 388.418 112 384 112H8C3.58172 112 0 108.418 0 104V68Z"/>
</mask>
<path d="M0 68C0 63.5817 3.58172 60 8 60H384C388.418 60 392 63.5817 392 68V104C392 108.418 388.418 112 384 112H8C3.58172 112 0 108.418 0 104V68Z" fill="#FAF8F7"/>
<path d="M8 60V61H384V60V59H8V60ZM392 68H391V104H392H393V68H392ZM384 112V111H8V112V113H384V112ZM0 104H1V68H0H-1V104H0ZM8 112V111C4.134 111 1 107.866 1 104H0H-1C-1 108.971 3.02943 113 8 113V112ZM392 104H391C391 107.866 387.866 111 384 111V112V113C388.971 113 393 108.971 393 104H392ZM384 60V61C387.866 61 391 64.134 391 68H392H393C393 63.0294 388.971 59 384 59V60ZM8 60V59C3.02944 59 -1 63.0294 -1 68H0H1C1 64.134 4.13401 61 8 61V60Z" fill="#CDCBCB" mask="url(#path-5-inside-2_2027_74683)"/>
<path d="M177.796 85.834C177.796 84.2287 178.057 82.978 178.58 82.082C179.102 81.1767 180.017 80.724 181.324 80.724C182.621 80.724 183.531 81.1767 184.054 82.082C184.576 82.978 184.838 84.2287 184.838 85.834C184.838 87.4673 184.576 88.7367 184.054 89.642C183.531 90.5473 182.621 91 181.324 91C180.017 91 179.102 90.5473 178.58 89.642C178.057 88.7367 177.796 87.4673 177.796 85.834ZM183.578 85.834C183.578 85.022 183.522 84.336 183.41 83.776C183.307 83.2067 183.088 82.7493 182.752 82.404C182.425 82.0587 181.949 81.886 181.324 81.886C180.689 81.886 180.204 82.0587 179.868 82.404C179.541 82.7493 179.322 83.2067 179.21 83.776C179.107 84.336 179.056 85.022 179.056 85.834C179.056 86.674 179.107 87.3787 179.21 87.948C179.322 88.5173 179.541 88.9747 179.868 89.32C180.204 89.6653 180.689 89.838 181.324 89.838C181.949 89.838 182.425 89.6653 182.752 89.32C183.088 88.9747 183.307 88.5173 183.41 87.948C183.522 87.3787 183.578 86.674 183.578 85.834ZM186.587 85.834C186.587 84.2287 186.848 82.978 187.371 82.082C187.893 81.1767 188.808 80.724 190.115 80.724C191.412 80.724 192.322 81.1767 192.845 82.082C193.367 82.978 193.629 84.2287 193.629 85.834C193.629 87.4673 193.367 88.7367 192.845 89.642C192.322 90.5473 191.412 91 190.115 91C188.808 91 187.893 90.5473 187.371 89.642C186.848 88.7367 186.587 87.4673 186.587 85.834ZM192.369 85.834C192.369 85.022 192.313 84.336 192.201 83.776C192.098 83.2067 191.879 82.7493 191.543 82.404C191.216 82.0587 190.74 81.886 190.115 81.886C189.48 81.886 188.995 82.0587 188.659 82.404C188.332 82.7493 188.113 83.2067 188.001 83.776C187.898 84.336 187.847 85.022 187.847 85.834C187.847 86.674 187.898 87.3787 188.001 87.948C188.113 88.5173 188.332 88.9747 188.659 89.32C188.995 89.6653 189.48 89.838 190.115 89.838C190.74 89.838 191.216 89.6653 191.543 89.32C191.879 88.9747 192.098 88.5173 192.201 87.948C192.313 87.3787 192.369 86.674 192.369 85.834ZM195.994 91.084C195.751 91.084 195.546 91 195.378 90.832C195.21 90.664 195.126 90.4587 195.126 90.216C195.126 89.9733 195.21 89.768 195.378 89.6C195.546 89.432 195.751 89.348 195.994 89.348C196.227 89.348 196.423 89.432 196.582 89.6C196.75 89.768 196.834 89.9733 196.834 90.216C196.834 90.4587 196.75 90.664 196.582 90.832C196.423 91 196.227 91.084 195.994 91.084ZM195.994 85.092C195.751 85.092 195.546 85.008 195.378 84.84C195.21 84.672 195.126 84.4667 195.126 84.224C195.126 83.9813 195.21 83.776 195.378 83.608C195.546 83.44 195.751 83.356 195.994 83.356C196.227 83.356 196.423 83.44 196.582 83.608C196.75 83.776 196.834 83.9813 196.834 84.224C196.834 84.4667 196.75 84.672 196.582 84.84C196.423 85.008 196.227 85.092 195.994 85.092ZM198.358 85.834C198.358 84.2287 198.62 82.978 199.142 82.082C199.665 81.1767 200.58 80.724 201.886 80.724C203.184 80.724 204.094 81.1767 204.616 82.082C205.139 82.978 205.4 84.2287 205.4 85.834C205.4 87.4673 205.139 88.7367 204.616 89.642C204.094 90.5473 203.184 91 201.886 91C200.58 91 199.665 90.5473 199.142 89.642C198.62 88.7367 198.358 87.4673 198.358 85.834ZM204.14 85.834C204.14 85.022 204.084 84.336 203.972 83.776C203.87 83.2067 203.65 82.7493 203.314 82.404C202.988 82.0587 202.512 81.886 201.886 81.886C201.252 81.886 200.766 82.0587 200.43 82.404C200.104 82.7493 199.884 83.2067 199.772 83.776C199.67 84.336 199.618 85.022 199.618 85.834C199.618 86.674 199.67 87.3787 199.772 87.948C199.884 88.5173 200.104 88.9747 200.43 89.32C200.766 89.6653 201.252 89.838 201.886 89.838C202.512 89.838 202.988 89.6653 203.314 89.32C203.65 88.9747 203.87 88.5173 203.972 87.948C204.084 87.3787 204.14 86.674 204.14 85.834ZM207.149 85.834C207.149 84.2287 207.411 82.978 207.933 82.082C208.456 81.1767 209.371 80.724 210.677 80.724C211.975 80.724 212.885 81.1767 213.407 82.082C213.93 82.978 214.191 84.2287 214.191 85.834C214.191 87.4673 213.93 88.7367 213.407 89.642C212.885 90.5473 211.975 91 210.677 91C209.371 91 208.456 90.5473 207.933 89.642C207.411 88.7367 207.149 87.4673 207.149 85.834ZM212.931 85.834C212.931 85.022 212.875 84.336 212.763 83.776C212.661 83.2067 212.441 82.7493 212.105 82.404C211.779 82.0587 211.303 81.886 210.677 81.886C210.043 81.886 209.557 82.0587 209.221 82.404C208.895 82.7493 208.675 83.2067 208.563 83.776C208.461 84.336 208.409 85.022 208.409 85.834C208.409 86.674 208.461 87.3787 208.563 87.948C208.675 88.5173 208.895 88.9747 209.221 89.32C209.557 89.6653 210.043 89.838 210.677 89.838C211.303 89.838 211.779 89.6653 212.105 89.32C212.441 88.9747 212.661 88.5173 212.763 87.948C212.875 87.3787 212.931 86.674 212.931 85.834Z" fill="#91908F"/>
<path d="M176.928 86.408H215.073V87.108H176.928V86.408Z" fill="#91908F"/>
<mask id="path-8-inside-3_2027_74683" fill="white">
<path d="M0 128C0 123.582 3.58172 120 8 120H384C388.418 120 392 123.582 392 128V164C392 168.418 388.418 172 384 172H8C3.58172 172 0 168.418 0 164V128Z"/>
</mask>
<path d="M0 128C0 123.582 3.58172 120 8 120H384C388.418 120 392 123.582 392 128V164C392 168.418 388.418 172 384 172H8C3.58172 172 0 168.418 0 164V128Z" fill="#FAF8F7"/>
<path d="M8 120V121H384V120V119H8V120ZM392 128H391V164H392H393V128H392ZM384 172V171H8V172V173H384V172ZM0 164H1V128H0H-1V164H0ZM8 172V171C4.134 171 1 167.866 1 164H0H-1C-1 168.971 3.02943 173 8 173V172ZM392 164H391C391 167.866 387.866 171 384 171V172V173C388.971 173 393 168.971 393 164H392ZM384 120V121C387.866 121 391 124.134 391 128H392H393C393 123.029 388.971 119 384 119V120ZM8 120V119C3.02944 119 -1 123.029 -1 128H0H1C1 124.134 4.13401 121 8 121V120Z" fill="#CDCBCB" mask="url(#path-8-inside-3_2027_74683)"/>
<path d="M177.796 145.834C177.796 144.229 178.057 142.978 178.58 142.082C179.102 141.177 180.017 140.724 181.324 140.724C182.621 140.724 183.531 141.177 184.054 142.082C184.576 142.978 184.838 144.229 184.838 145.834C184.838 147.467 184.576 148.737 184.054 149.642C183.531 150.547 182.621 151 181.324 151C180.017 151 179.102 150.547 178.58 149.642C178.057 148.737 177.796 147.467 177.796 145.834ZM183.578 145.834C183.578 145.022 183.522 144.336 183.41 143.776C183.307 143.207 183.088 142.749 182.752 142.404C182.425 142.059 181.949 141.886 181.324 141.886C180.689 141.886 180.204 142.059 179.868 142.404C179.541 142.749 179.322 143.207 179.21 143.776C179.107 144.336 179.056 145.022 179.056 145.834C179.056 146.674 179.107 147.379 179.21 147.948C179.322 148.517 179.541 148.975 179.868 149.32C180.204 149.665 180.689 149.838 181.324 149.838C181.949 149.838 182.425 149.665 182.752 149.32C183.088 148.975 183.307 148.517 183.41 147.948C183.522 147.379 183.578 146.674 183.578 145.834ZM186.587 145.834C186.587 144.229 186.848 142.978 187.371 142.082C187.893 141.177 188.808 140.724 190.115 140.724C191.412 140.724 192.322 141.177 192.845 142.082C193.367 142.978 193.629 144.229 193.629 145.834C193.629 147.467 193.367 148.737 192.845 149.642C192.322 150.547 191.412 151 190.115 151C188.808 151 187.893 150.547 187.371 149.642C186.848 148.737 186.587 147.467 186.587 145.834ZM192.369 145.834C192.369 145.022 192.313 144.336 192.201 143.776C192.098 143.207 191.879 142.749 191.543 142.404C191.216 142.059 190.74 141.886 190.115 141.886C189.48 141.886 188.995 142.059 188.659 142.404C188.332 142.749 188.113 143.207 188.001 143.776C187.898 144.336 187.847 145.022 187.847 145.834C187.847 146.674 187.898 147.379 188.001 147.948C188.113 148.517 188.332 148.975 188.659 149.32C188.995 149.665 189.48 149.838 190.115 149.838C190.74 149.838 191.216 149.665 191.543 149.32C191.879 148.975 192.098 148.517 192.201 147.948C192.313 147.379 192.369 146.674 192.369 145.834ZM195.994 151.084C195.751 151.084 195.546 151 195.378 150.832C195.21 150.664 195.126 150.459 195.126 150.216C195.126 149.973 195.21 149.768 195.378 149.6C195.546 149.432 195.751 149.348 195.994 149.348C196.227 149.348 196.423 149.432 196.582 149.6C196.75 149.768 196.834 149.973 196.834 150.216C196.834 150.459 196.75 150.664 196.582 150.832C196.423 151 196.227 151.084 195.994 151.084ZM195.994 145.092C195.751 145.092 195.546 145.008 195.378 144.84C195.21 144.672 195.126 144.467 195.126 144.224C195.126 143.981 195.21 143.776 195.378 143.608C195.546 143.44 195.751 143.356 195.994 143.356C196.227 143.356 196.423 143.44 196.582 143.608C196.75 143.776 196.834 143.981 196.834 144.224C196.834 144.467 196.75 144.672 196.582 144.84C196.423 145.008 196.227 145.092 195.994 145.092ZM198.358 145.834C198.358 144.229 198.62 142.978 199.142 142.082C199.665 141.177 200.58 140.724 201.886 140.724C203.184 140.724 204.094 141.177 204.616 142.082C205.139 142.978 205.4 144.229 205.4 145.834C205.4 147.467 205.139 148.737 204.616 149.642C204.094 150.547 203.184 151 201.886 151C200.58 151 199.665 150.547 199.142 149.642C198.62 148.737 198.358 147.467 198.358 145.834ZM204.14 145.834C204.14 145.022 204.084 144.336 203.972 143.776C203.87 143.207 203.65 142.749 203.314 142.404C202.988 142.059 202.512 141.886 201.886 141.886C201.252 141.886 200.766 142.059 200.43 142.404C200.104 142.749 199.884 143.207 199.772 143.776C199.67 144.336 199.618 145.022 199.618 145.834C199.618 146.674 199.67 147.379 199.772 147.948C199.884 148.517 200.104 148.975 200.43 149.32C200.766 149.665 201.252 149.838 201.886 149.838C202.512 149.838 202.988 149.665 203.314 149.32C203.65 148.975 203.87 148.517 203.972 147.948C204.084 147.379 204.14 146.674 204.14 145.834ZM207.149 145.834C207.149 144.229 207.411 142.978 207.933 142.082C208.456 141.177 209.371 140.724 210.677 140.724C211.975 140.724 212.885 141.177 213.407 142.082C213.93 142.978 214.191 144.229 214.191 145.834C214.191 147.467 213.93 148.737 213.407 149.642C212.885 150.547 211.975 151 210.677 151C209.371 151 208.456 150.547 207.933 149.642C207.411 148.737 207.149 147.467 207.149 145.834ZM212.931 145.834C212.931 145.022 212.875 144.336 212.763 143.776C212.661 143.207 212.441 142.749 212.105 142.404C211.779 142.059 211.303 141.886 210.677 141.886C210.043 141.886 209.557 142.059 209.221 142.404C208.895 142.749 208.675 143.207 208.563 143.776C208.461 144.336 208.409 145.022 208.409 145.834C208.409 146.674 208.461 147.379 208.563 147.948C208.675 148.517 208.895 148.975 209.221 149.32C209.557 149.665 210.043 149.838 210.677 149.838C211.303 149.838 211.779 149.665 212.105 149.32C212.441 148.975 212.661 148.517 212.763 147.948C212.875 147.379 212.931 146.674 212.931 145.834Z" fill="#91908F"/>
<path d="M176.928 146.408H215.073V147.108H176.928V146.408Z" fill="#91908F"/>
<mask id="path-11-inside-4_2027_74683" fill="white">
<path d="M0 188C0 183.582 3.58172 180 8 180H384C388.418 180 392 183.582 392 188V224C392 228.418 388.418 232 384 232H8C3.58172 232 0 228.418 0 224V188Z"/>
</mask>
<path d="M0 188C0 183.582 3.58172 180 8 180H384C388.418 180 392 183.582 392 188V224C392 228.418 388.418 232 384 232H8C3.58172 232 0 228.418 0 224V188Z" fill="white"/>
<path d="M8 180V181H384V180V179H8V180ZM392 188H391V224H392H393V188H392ZM384 232V231H8V232V233H384V232ZM0 224H1V188H0H-1V224H0ZM8 232V231C4.134 231 1 227.866 1 224H0H-1C-1 228.971 3.02943 233 8 233V232ZM392 224H391C391 227.866 387.866 231 384 231V232V233C388.971 233 393 228.971 393 224H392ZM384 180V181C387.866 181 391 184.134 391 188H392H393C393 183.029 388.971 179 384 179V180ZM8 180V179C3.02944 179 -1 183.029 -1 188H0H1C1 184.134 4.13401 181 8 181V180Z" fill="#CDCBCB" mask="url(#path-11-inside-4_2027_74683)"/>
<path d="M178.165 205.834C178.165 204.229 178.426 202.978 178.949 202.082C179.472 201.177 180.386 200.724 181.693 200.724C182.99 200.724 183.9 201.177 184.423 202.082C184.946 202.978 185.207 204.229 185.207 205.834C185.207 207.467 184.946 208.737 184.423 209.642C183.9 210.547 182.99 211 181.693 211C180.386 211 179.472 210.547 178.949 209.642C178.426 208.737 178.165 207.467 178.165 205.834ZM183.947 205.834C183.947 205.022 183.891 204.336 183.779 203.776C183.676 203.207 183.457 202.749 183.121 202.404C182.794 202.059 182.318 201.886 181.693 201.886C181.058 201.886 180.573 202.059 180.237 202.404C179.91 202.749 179.691 203.207 179.579 203.776C179.476 204.336 179.425 205.022 179.425 205.834C179.425 206.674 179.476 207.379 179.579 207.948C179.691 208.517 179.91 208.975 180.237 209.32C180.573 209.665 181.058 209.838 181.693 209.838C182.318 209.838 182.794 209.665 183.121 209.32C183.457 208.975 183.676 208.517 183.779 207.948C183.891 207.379 183.947 206.674 183.947 205.834ZM186.802 209.978C187.987 209.026 188.916 208.247 189.588 207.64C190.26 207.024 190.825 206.385 191.282 205.722C191.749 205.05 191.982 204.392 191.982 203.748C191.982 203.141 191.833 202.665 191.534 202.32C191.245 201.965 190.773 201.788 190.12 201.788C189.485 201.788 188.991 201.989 188.636 202.39C188.291 202.782 188.104 203.309 188.076 203.972H186.844C186.881 202.927 187.199 202.119 187.796 201.55C188.393 200.981 189.163 200.696 190.106 200.696C191.067 200.696 191.828 200.962 192.388 201.494C192.957 202.026 193.242 202.759 193.242 203.692C193.242 204.467 193.009 205.223 192.542 205.96C192.085 206.688 191.562 207.332 190.974 207.892C190.386 208.443 189.635 209.087 188.72 209.824H193.536V210.888H186.802V209.978ZM195.625 211.084C195.382 211.084 195.177 211 195.009 210.832C194.841 210.664 194.757 210.459 194.757 210.216C194.757 209.973 194.841 209.768 195.009 209.6C195.177 209.432 195.382 209.348 195.625 209.348C195.858 209.348 196.054 209.432 196.213 209.6C196.381 209.768 196.465 209.973 196.465 210.216C196.465 210.459 196.381 210.664 196.213 210.832C196.054 211 195.858 211.084 195.625 211.084ZM195.625 205.092C195.382 205.092 195.177 205.008 195.009 204.84C194.841 204.672 194.757 204.467 194.757 204.224C194.757 203.981 194.841 203.776 195.009 203.608C195.177 203.44 195.382 203.356 195.625 203.356C195.858 203.356 196.054 203.44 196.213 203.608C196.381 203.776 196.465 203.981 196.465 204.224C196.465 204.467 196.381 204.672 196.213 204.84C196.054 205.008 195.858 205.092 195.625 205.092ZM197.989 205.834C197.989 204.229 198.25 202.978 198.773 202.082C199.296 201.177 200.21 200.724 201.517 200.724C202.814 200.724 203.724 201.177 204.247 202.082C204.77 202.978 205.031 204.229 205.031 205.834C205.031 207.467 204.77 208.737 204.247 209.642C203.724 210.547 202.814 211 201.517 211C200.21 211 199.296 210.547 198.773 209.642C198.25 208.737 197.989 207.467 197.989 205.834ZM203.771 205.834C203.771 205.022 203.715 204.336 203.603 203.776C203.5 203.207 203.281 202.749 202.945 202.404C202.618 202.059 202.142 201.886 201.517 201.886C200.882 201.886 200.397 202.059 200.061 202.404C199.734 202.749 199.515 203.207 199.403 203.776C199.3 204.336 199.249 205.022 199.249 205.834C199.249 206.674 199.3 207.379 199.403 207.948C199.515 208.517 199.734 208.975 200.061 209.32C200.397 209.665 200.882 209.838 201.517 209.838C202.142 209.838 202.618 209.665 202.945 209.32C203.281 208.975 203.5 208.517 203.603 207.948C203.715 207.379 203.771 206.674 203.771 205.834ZM206.78 205.834C206.78 204.229 207.041 202.978 207.564 202.082C208.087 201.177 209.001 200.724 210.308 200.724C211.605 200.724 212.515 201.177 213.038 202.082C213.561 202.978 213.822 204.229 213.822 205.834C213.822 207.467 213.561 208.737 213.038 209.642C212.515 210.547 211.605 211 210.308 211C209.001 211 208.087 210.547 207.564 209.642C207.041 208.737 206.78 207.467 206.78 205.834ZM212.562 205.834C212.562 205.022 212.506 204.336 212.394 203.776C212.291 203.207 212.072 202.749 211.736 202.404C211.409 202.059 210.933 201.886 210.308 201.886C209.673 201.886 209.188 202.059 208.852 202.404C208.525 202.749 208.306 203.207 208.194 203.776C208.091 204.336 208.04 205.022 208.04 205.834C208.04 206.674 208.091 207.379 208.194 207.948C208.306 208.517 208.525 208.975 208.852 209.32C209.188 209.665 209.673 209.838 210.308 209.838C210.933 209.838 211.409 209.665 211.736 209.32C212.072 208.975 212.291 208.517 212.394 207.948C212.506 207.379 212.562 206.674 212.562 205.834Z" fill="#4B4A4A"/>
<mask id="path-14-inside-5_2027_74683" fill="white">
<path d="M0 248C0 243.582 3.58172 240 8 240H384C388.418 240 392 243.582 392 248V284C392 288.418 388.418 292 384 292H8C3.58172 292 0 288.418 0 284V248Z"/>
</mask>
<path d="M0 248C0 243.582 3.58172 240 8 240H384C388.418 240 392 243.582 392 248V284C392 288.418 388.418 292 384 292H8C3.58172 292 0 288.418 0 284V248Z" fill="#FAF8F7"/>
<path d="M8 240V241H384V240V239H8V240ZM392 248H391V284H392H393V248H392ZM384 292V291H8V292V293H384V292ZM0 284H1V248H0H-1V284H0ZM8 292V291C4.134 291 1 287.866 1 284H0H-1C-1 288.971 3.02943 293 8 293V292ZM392 284H391C391 287.866 387.866 291 384 291V292V293C388.971 293 393 288.971 393 284H392ZM384 240V241C387.866 241 391 244.134 391 248H392H393C393 243.029 388.971 239 384 239V240ZM8 240V239C3.02944 239 -1 243.029 -1 248H0H1C1 244.134 4.13401 241 8 241V240Z" fill="#0A2333" mask="url(#path-14-inside-5_2027_74683)"/>
<path d="M177.105 265.764C177.105 264.149 177.375 262.889 177.917 261.984C178.467 261.069 179.41 260.612 180.745 260.612C182.079 260.612 183.017 261.069 183.559 261.984C184.109 262.889 184.385 264.149 184.385 265.764C184.385 267.397 184.109 268.676 183.559 269.6C183.017 270.515 182.079 270.972 180.745 270.972C179.41 270.972 178.467 270.515 177.917 269.6C177.375 268.676 177.105 267.397 177.105 265.764ZM182.817 265.764C182.817 265.008 182.765 264.369 182.663 263.846C182.569 263.323 182.373 262.899 182.075 262.572C181.776 262.236 181.333 262.068 180.745 262.068C180.157 262.068 179.713 262.236 179.415 262.572C179.116 262.899 178.915 263.323 178.813 263.846C178.719 264.369 178.673 265.008 178.673 265.764C178.673 266.548 178.719 267.206 178.813 267.738C178.906 268.27 179.102 268.699 179.401 269.026C179.709 269.353 180.157 269.516 180.745 269.516C181.333 269.516 181.776 269.353 182.075 269.026C182.383 268.699 182.583 268.27 182.677 267.738C182.77 267.206 182.817 266.548 182.817 265.764ZM185.877 268.872V267.668L190.581 260.92H192.513V267.486H193.815V268.872H192.513V271H190.945V268.872H185.877ZM191.015 262.544L187.711 267.486H191.015V262.544ZM195.992 271.098C195.703 271.098 195.46 271 195.264 270.804C195.068 270.608 194.97 270.365 194.97 270.076C194.97 269.787 195.068 269.544 195.264 269.348C195.46 269.152 195.703 269.054 195.992 269.054C196.272 269.054 196.51 269.152 196.706 269.348C196.902 269.544 197 269.787 197 270.076C197 270.365 196.902 270.608 196.706 270.804C196.51 271 196.272 271.098 195.992 271.098ZM195.992 265.218C195.703 265.218 195.46 265.12 195.264 264.924C195.068 264.728 194.97 264.485 194.97 264.196C194.97 263.907 195.068 263.664 195.264 263.468C195.46 263.272 195.703 263.174 195.992 263.174C196.272 263.174 196.51 263.272 196.706 263.468C196.902 263.664 197 263.907 197 264.196C197 264.485 196.902 264.728 196.706 264.924C196.51 265.12 196.272 265.218 195.992 265.218ZM198.373 268.872V267.668L203.077 260.92H205.009V267.486H206.311V268.872H205.009V271H203.441V268.872H198.373ZM203.511 262.544L200.207 267.486H203.511V262.544ZM214.214 262.166H209.524V264.952C209.72 264.691 210.009 264.471 210.392 264.294C210.784 264.117 211.199 264.028 211.638 264.028C212.422 264.028 213.057 264.196 213.542 264.532C214.037 264.868 214.387 265.293 214.592 265.806C214.807 266.319 214.914 266.861 214.914 267.43C214.914 268.121 214.779 268.737 214.508 269.278C214.247 269.81 213.85 270.23 213.318 270.538C212.795 270.846 212.151 271 211.386 271C210.369 271 209.552 270.748 208.936 270.244C208.32 269.74 207.951 269.073 207.83 268.242H209.384C209.487 268.681 209.715 269.031 210.07 269.292C210.425 269.544 210.868 269.67 211.4 269.67C212.063 269.67 212.557 269.469 212.884 269.068C213.22 268.667 213.388 268.135 213.388 267.472C213.388 266.8 213.22 266.287 212.884 265.932C212.548 265.568 212.053 265.386 211.4 265.386C210.943 265.386 210.555 265.503 210.238 265.736C209.93 265.96 209.706 266.268 209.566 266.66H208.054V260.766H214.214V262.166Z" fill="#0A2333"/>
<mask id="path-17-inside-6_2027_74683" fill="white">
<path d="M0 308C0 303.582 3.58172 300 8 300H384C388.418 300 392 303.582 392 308V344C392 348.418 388.418 352 384 352H8C3.58172 352 0 348.418 0 344V308Z"/>
</mask>
<path d="M0 308C0 303.582 3.58172 300 8 300H384C388.418 300 392 303.582 392 308V344C392 348.418 388.418 352 384 352H8C3.58172 352 0 348.418 0 344V308Z" fill="white"/>
<path d="M8 300V301H384V300V299H8V300ZM392 308H391V344H392H393V308H392ZM384 352V351H8V352V353H384V352ZM0 344H1V308H0H-1V344H0ZM8 352V351C4.134 351 1 347.866 1 344H0H-1C-1 348.971 3.02943 353 8 353V352ZM392 344H391C391 347.866 387.866 351 384 351V352V353C388.971 353 393 348.971 393 344H392ZM384 300V301C387.866 301 391 304.134 391 308H392H393C393 303.029 388.971 299 384 299V300ZM8 300V299C3.02944 299 -1 303.029 -1 308H0H1C1 304.134 4.13401 301 8 301V300Z" fill="#CDCBCB" mask="url(#path-17-inside-6_2027_74683)"/>
<path d="M178.165 325.834C178.165 324.229 178.426 322.978 178.949 322.082C179.472 321.177 180.386 320.724 181.693 320.724C182.99 320.724 183.9 321.177 184.423 322.082C184.946 322.978 185.207 324.229 185.207 325.834C185.207 327.467 184.946 328.737 184.423 329.642C183.9 330.547 182.99 331 181.693 331C180.386 331 179.472 330.547 178.949 329.642C178.426 328.737 178.165 327.467 178.165 325.834ZM183.947 325.834C183.947 325.022 183.891 324.336 183.779 323.776C183.676 323.207 183.457 322.749 183.121 322.404C182.794 322.059 182.318 321.886 181.693 321.886C181.058 321.886 180.573 322.059 180.237 322.404C179.91 322.749 179.691 323.207 179.579 323.776C179.476 324.336 179.425 325.022 179.425 325.834C179.425 326.674 179.476 327.379 179.579 327.948C179.691 328.517 179.91 328.975 180.237 329.32C180.573 329.665 181.058 329.838 181.693 329.838C182.318 329.838 182.794 329.665 183.121 329.32C183.457 328.975 183.676 328.517 183.779 327.948C183.891 327.379 183.947 326.674 183.947 325.834ZM186.802 329.978C187.987 329.026 188.916 328.247 189.588 327.64C190.26 327.024 190.825 326.385 191.282 325.722C191.749 325.05 191.982 324.392 191.982 323.748C191.982 323.141 191.833 322.665 191.534 322.32C191.245 321.965 190.773 321.788 190.12 321.788C189.485 321.788 188.991 321.989 188.636 322.39C188.291 322.782 188.104 323.309 188.076 323.972H186.844C186.881 322.927 187.199 322.119 187.796 321.55C188.393 320.981 189.163 320.696 190.106 320.696C191.067 320.696 191.828 320.962 192.388 321.494C192.957 322.026 193.242 322.759 193.242 323.692C193.242 324.467 193.009 325.223 192.542 325.96C192.085 326.688 191.562 327.332 190.974 327.892C190.386 328.443 189.635 329.087 188.72 329.824H193.536V330.888H186.802V329.978ZM195.625 331.084C195.382 331.084 195.177 331 195.009 330.832C194.841 330.664 194.757 330.459 194.757 330.216C194.757 329.973 194.841 329.768 195.009 329.6C195.177 329.432 195.382 329.348 195.625 329.348C195.858 329.348 196.054 329.432 196.213 329.6C196.381 329.768 196.465 329.973 196.465 330.216C196.465 330.459 196.381 330.664 196.213 330.832C196.054 331 195.858 331.084 195.625 331.084ZM195.625 325.092C195.382 325.092 195.177 325.008 195.009 324.84C194.841 324.672 194.757 324.467 194.757 324.224C194.757 323.981 194.841 323.776 195.009 323.608C195.177 323.44 195.382 323.356 195.625 323.356C195.858 323.356 196.054 323.44 196.213 323.608C196.381 323.776 196.465 323.981 196.465 324.224C196.465 324.467 196.381 324.672 196.213 324.84C196.054 325.008 195.858 325.092 195.625 325.092ZM197.989 325.834C197.989 324.229 198.25 322.978 198.773 322.082C199.296 321.177 200.21 320.724 201.517 320.724C202.814 320.724 203.724 321.177 204.247 322.082C204.77 322.978 205.031 324.229 205.031 325.834C205.031 327.467 204.77 328.737 204.247 329.642C203.724 330.547 202.814 331 201.517 331C200.21 331 199.296 330.547 198.773 329.642C198.25 328.737 197.989 327.467 197.989 325.834ZM203.771 325.834C203.771 325.022 203.715 324.336 203.603 323.776C203.5 323.207 203.281 322.749 202.945 322.404C202.618 322.059 202.142 321.886 201.517 321.886C200.882 321.886 200.397 322.059 200.061 322.404C199.734 322.749 199.515 323.207 199.403 323.776C199.3 324.336 199.249 325.022 199.249 325.834C199.249 326.674 199.3 327.379 199.403 327.948C199.515 328.517 199.734 328.975 200.061 329.32C200.397 329.665 200.882 329.838 201.517 329.838C202.142 329.838 202.618 329.665 202.945 329.32C203.281 328.975 203.5 328.517 203.603 327.948C203.715 327.379 203.771 326.674 203.771 325.834ZM206.78 325.834C206.78 324.229 207.041 322.978 207.564 322.082C208.087 321.177 209.001 320.724 210.308 320.724C211.605 320.724 212.515 321.177 213.038 322.082C213.561 322.978 213.822 324.229 213.822 325.834C213.822 327.467 213.561 328.737 213.038 329.642C212.515 330.547 211.605 331 210.308 331C209.001 331 208.087 330.547 207.564 329.642C207.041 328.737 206.78 327.467 206.78 325.834ZM212.562 325.834C212.562 325.022 212.506 324.336 212.394 323.776C212.291 323.207 212.072 322.749 211.736 322.404C211.409 322.059 210.933 321.886 210.308 321.886C209.673 321.886 209.188 322.059 208.852 322.404C208.525 322.749 208.306 323.207 208.194 323.776C208.091 324.336 208.04 325.022 208.04 325.834C208.04 326.674 208.091 327.379 208.194 327.948C208.306 328.517 208.525 328.975 208.852 329.32C209.188 329.665 209.673 329.838 210.308 329.838C210.933 329.838 211.409 329.665 211.736 329.32C212.072 328.975 212.291 328.517 212.394 327.948C212.506 327.379 212.562 326.674 212.562 325.834Z" fill="#4B4A4A"/>
<mask id="path-20-inside-7_2027_74683" fill="white">
<path d="M0 368C0 363.582 3.58172 360 8 360H384C388.418 360 392 363.582 392 368V404C392 408.418 388.418 412 384 412H8C3.58172 412 0 408.418 0 404V368Z"/>
</mask>
<path d="M0 368C0 363.582 3.58172 360 8 360H384C388.418 360 392 363.582 392 368V404C392 408.418 388.418 412 384 412H8C3.58172 412 0 408.418 0 404V368Z" fill="white"/>
<path d="M8 360V361H384V360V359H8V360ZM392 368H391V404H392H393V368H392ZM384 412V411H8V412V413H384V412ZM0 404H1V368H0H-1V404H0ZM8 412V411C4.134 411 1 407.866 1 404H0H-1C-1 408.971 3.02943 413 8 413V412ZM392 404H391C391 407.866 387.866 411 384 411V412V413C388.971 413 393 408.971 393 404H392ZM384 360V361C387.866 361 391 364.134 391 368H392H393C393 363.029 388.971 359 384 359V360ZM8 360V359C3.02944 359 -1 363.029 -1 368H0H1C1 364.134 4.13401 361 8 361V360Z" fill="#CDCBCB" mask="url(#path-20-inside-7_2027_74683)"/>
<path d="M178.165 385.834C178.165 384.229 178.426 382.978 178.949 382.082C179.472 381.177 180.386 380.724 181.693 380.724C182.99 380.724 183.9 381.177 184.423 382.082C184.946 382.978 185.207 384.229 185.207 385.834C185.207 387.467 184.946 388.737 184.423 389.642C183.9 390.547 182.99 391 181.693 391C180.386 391 179.472 390.547 178.949 389.642C178.426 388.737 178.165 387.467 178.165 385.834ZM183.947 385.834C183.947 385.022 183.891 384.336 183.779 383.776C183.676 383.207 183.457 382.749 183.121 382.404C182.794 382.059 182.318 381.886 181.693 381.886C181.058 381.886 180.573 382.059 180.237 382.404C179.91 382.749 179.691 383.207 179.579 383.776C179.476 384.336 179.425 385.022 179.425 385.834C179.425 386.674 179.476 387.379 179.579 387.948C179.691 388.517 179.91 388.975 180.237 389.32C180.573 389.665 181.058 389.838 181.693 389.838C182.318 389.838 182.794 389.665 183.121 389.32C183.457 388.975 183.676 388.517 183.779 387.948C183.891 387.379 183.947 386.674 183.947 385.834ZM186.802 389.978C187.987 389.026 188.916 388.247 189.588 387.64C190.26 387.024 190.825 386.385 191.282 385.722C191.749 385.05 191.982 384.392 191.982 383.748C191.982 383.141 191.833 382.665 191.534 382.32C191.245 381.965 190.773 381.788 190.12 381.788C189.485 381.788 188.991 381.989 188.636 382.39C188.291 382.782 188.104 383.309 188.076 383.972H186.844C186.881 382.927 187.199 382.119 187.796 381.55C188.393 380.981 189.163 380.696 190.106 380.696C191.067 380.696 191.828 380.962 192.388 381.494C192.957 382.026 193.242 382.759 193.242 383.692C193.242 384.467 193.009 385.223 192.542 385.96C192.085 386.688 191.562 387.332 190.974 387.892C190.386 388.443 189.635 389.087 188.72 389.824H193.536V390.888H186.802V389.978ZM195.625 391.084C195.382 391.084 195.177 391 195.009 390.832C194.841 390.664 194.757 390.459 194.757 390.216C194.757 389.973 194.841 389.768 195.009 389.6C195.177 389.432 195.382 389.348 195.625 389.348C195.858 389.348 196.054 389.432 196.213 389.6C196.381 389.768 196.465 389.973 196.465 390.216C196.465 390.459 196.381 390.664 196.213 390.832C196.054 391 195.858 391.084 195.625 391.084ZM195.625 385.092C195.382 385.092 195.177 385.008 195.009 384.84C194.841 384.672 194.757 384.467 194.757 384.224C194.757 383.981 194.841 383.776 195.009 383.608C195.177 383.44 195.382 383.356 195.625 383.356C195.858 383.356 196.054 383.44 196.213 383.608C196.381 383.776 196.465 383.981 196.465 384.224C196.465 384.467 196.381 384.672 196.213 384.84C196.054 385.008 195.858 385.092 195.625 385.092ZM197.989 385.834C197.989 384.229 198.25 382.978 198.773 382.082C199.296 381.177 200.21 380.724 201.517 380.724C202.814 380.724 203.724 381.177 204.247 382.082C204.77 382.978 205.031 384.229 205.031 385.834C205.031 387.467 204.77 388.737 204.247 389.642C203.724 390.547 202.814 391 201.517 391C200.21 391 199.296 390.547 198.773 389.642C198.25 388.737 197.989 387.467 197.989 385.834ZM203.771 385.834C203.771 385.022 203.715 384.336 203.603 383.776C203.5 383.207 203.281 382.749 202.945 382.404C202.618 382.059 202.142 381.886 201.517 381.886C200.882 381.886 200.397 382.059 200.061 382.404C199.734 382.749 199.515 383.207 199.403 383.776C199.3 384.336 199.249 385.022 199.249 385.834C199.249 386.674 199.3 387.379 199.403 387.948C199.515 388.517 199.734 388.975 200.061 389.32C200.397 389.665 200.882 389.838 201.517 389.838C202.142 389.838 202.618 389.665 202.945 389.32C203.281 388.975 203.5 388.517 203.603 387.948C203.715 387.379 203.771 386.674 203.771 385.834ZM206.78 385.834C206.78 384.229 207.041 382.978 207.564 382.082C208.087 381.177 209.001 380.724 210.308 380.724C211.605 380.724 212.515 381.177 213.038 382.082C213.561 382.978 213.822 384.229 213.822 385.834C213.822 387.467 213.561 388.737 213.038 389.642C212.515 390.547 211.605 391 210.308 391C209.001 391 208.087 390.547 207.564 389.642C207.041 388.737 206.78 387.467 206.78 385.834ZM212.562 385.834C212.562 385.022 212.506 384.336 212.394 383.776C212.291 383.207 212.072 382.749 211.736 382.404C211.409 382.059 210.933 381.886 210.308 381.886C209.673 381.886 209.188 382.059 208.852 382.404C208.525 382.749 208.306 383.207 208.194 383.776C208.091 384.336 208.04 385.022 208.04 385.834C208.04 386.674 208.091 387.379 208.194 387.948C208.306 388.517 208.525 388.975 208.852 389.32C209.188 389.665 209.673 389.838 210.308 389.838C210.933 389.838 211.409 389.665 211.736 389.32C212.072 388.975 212.291 388.517 212.394 387.948C212.506 387.379 212.562 386.674 212.562 385.834Z" fill="#4B4A4A"/>
<mask id="path-23-inside-8_2027_74683" fill="white">
<path d="M0 428H392V496H0V428Z"/>
</mask>
<path d="M0 428V429H392V428V427H0V428Z" fill="#CDCBCB" mask="url(#path-23-inside-8_2027_74683)"/>
<mask id="path-25-inside-9_2027_74683" fill="white">
<path d="M0 470C0 455.641 11.6406 444 26 444H162C176.359 444 188 455.641 188 470C188 484.359 176.359 496 162 496H26C11.6406 496 0 484.359 0 470Z"/>
</mask>
<path d="M0 470M188 470M188 470M0 470M26 444V445H162V444V443H26V444ZM188 470M162 496V495H26V496V497H162V496ZM0 470M26 496V495C12.1929 495 1 483.807 1 470H0H-1C-1 484.912 11.0883 497 26 497V496ZM188 470H187C187 483.807 175.807 495 162 495V496V497C176.912 497 189 484.912 189 470H188ZM162 444V445C175.807 445 187 456.193 187 470H188H189C189 455.088 176.912 443 162 443V444ZM26 444V443C11.0883 443 -1 455.088 -1 470H0H1C1 456.193 12.1929 445 26 445V444Z" fill="#CDCBCB" mask="url(#path-25-inside-9_2027_74683)"/>
<path d="M56.5012 470.002C57.0238 470.095 57.4672 470.371 57.8312 470.828C58.1952 471.285 58.3772 471.803 58.3772 472.382C58.3772 472.877 58.2465 473.325 57.9852 473.726C57.7332 474.118 57.3645 474.431 56.8792 474.664C56.3938 474.888 55.8292 475 55.1852 475H51.2932V465.27H55.0032C55.6658 465.27 56.2352 465.382 56.7112 465.606C57.1872 465.83 57.5465 466.133 57.7892 466.516C58.0318 466.889 58.1532 467.309 58.1532 467.776C58.1532 468.336 58.0038 468.803 57.7052 469.176C57.4065 469.549 57.0052 469.825 56.5012 470.002ZM52.8892 469.358H54.8632C55.3858 469.358 55.7918 469.241 56.0812 469.008C56.3798 468.765 56.5292 468.42 56.5292 467.972C56.5292 467.533 56.3798 467.193 56.0812 466.95C55.7918 466.698 55.3858 466.572 54.8632 466.572H52.8892V469.358ZM55.0452 473.698C55.5865 473.698 56.0112 473.567 56.3192 473.306C56.6272 473.045 56.7812 472.681 56.7812 472.214C56.7812 471.738 56.6178 471.36 56.2912 471.08C55.9645 470.8 55.5305 470.66 54.9892 470.66H52.8892V473.698H55.0452ZM67.0975 467.286V475H65.5015V474.09C65.2495 474.407 64.9182 474.659 64.5075 474.846C64.1062 475.023 63.6769 475.112 63.2195 475.112C62.6129 475.112 62.0669 474.986 61.5815 474.734C61.1055 474.482 60.7275 474.109 60.4475 473.614C60.1769 473.119 60.0415 472.522 60.0415 471.822V467.286H61.6235V471.584C61.6235 472.275 61.7962 472.807 62.1415 473.18C62.4869 473.544 62.9582 473.726 63.5555 473.726C64.1529 473.726 64.6242 473.544 64.9695 473.18C65.3242 472.807 65.5015 472.275 65.5015 471.584V467.286H67.0975ZM71.0653 468.588V472.858C71.0653 473.147 71.1307 473.357 71.2613 473.488C71.4013 473.609 71.6347 473.67 71.9613 473.67H72.9413V475H71.6813C70.9627 475 70.412 474.832 70.0293 474.496C69.6467 474.16 69.4553 473.614 69.4553 472.858V468.588H68.5453V467.286H69.4553V465.368H71.0653V467.286H72.9413V468.588H71.0653ZM76.2743 468.588V472.858C76.2743 473.147 76.3396 473.357 76.4703 473.488C76.6103 473.609 76.8436 473.67 77.1703 473.67H78.1503V475H76.8903C76.1716 475 75.621 474.832 75.2383 474.496C74.8556 474.16 74.6643 473.614 74.6643 472.858V468.588H73.7543V467.286H74.6643V465.368H76.2743V467.286H78.1503V468.588H76.2743ZM82.9673 475.126C82.2393 475.126 81.5813 474.963 80.9933 474.636C80.4053 474.3 79.9433 473.833 79.6073 473.236C79.2713 472.629 79.1033 471.929 79.1033 471.136C79.1033 470.352 79.276 469.657 79.6213 469.05C79.9666 468.443 80.438 467.977 81.0353 467.65C81.6326 467.323 82.3 467.16 83.0373 467.16C83.7746 467.16 84.442 467.323 85.0393 467.65C85.6366 467.977 86.108 468.443 86.4533 469.05C86.7986 469.657 86.9713 470.352 86.9713 471.136C86.9713 471.92 86.794 472.615 86.4393 473.222C86.0846 473.829 85.5993 474.3 84.9833 474.636C84.3766 474.963 83.7046 475.126 82.9673 475.126ZM82.9673 473.74C83.378 473.74 83.7606 473.642 84.1153 473.446C84.4793 473.25 84.7733 472.956 84.9973 472.564C85.2213 472.172 85.3333 471.696 85.3333 471.136C85.3333 470.576 85.226 470.105 85.0113 469.722C84.7966 469.33 84.512 469.036 84.1573 468.84C83.8026 468.644 83.42 468.546 83.0093 468.546C82.5986 468.546 82.216 468.644 81.8613 468.84C81.516 469.036 81.2406 469.33 81.0353 469.722C80.83 470.105 80.7273 470.576 80.7273 471.136C80.7273 471.967 80.9373 472.611 81.3573 473.068C81.7866 473.516 82.3233 473.74 82.9673 473.74ZM92.441 467.16C93.0477 467.16 93.589 467.286 94.065 467.538C94.5504 467.79 94.9284 468.163 95.199 468.658C95.4697 469.153 95.605 469.75 95.605 470.45V475H94.023V470.688C94.023 469.997 93.8504 469.47 93.505 469.106C93.1597 468.733 92.6884 468.546 92.091 468.546C91.4937 468.546 91.0177 468.733 90.663 469.106C90.3177 469.47 90.145 469.997 90.145 470.688V475H88.549V467.286H90.145V468.168C90.4064 467.851 90.7377 467.603 91.139 467.426C91.5497 467.249 91.9837 467.16 92.441 467.16ZM102.874 473.712H106.164V475H101.278V465.27H102.874V473.712ZM106.966 471.108C106.966 470.333 107.125 469.647 107.442 469.05C107.769 468.453 108.208 467.991 108.758 467.664C109.318 467.328 109.934 467.16 110.606 467.16C111.213 467.16 111.74 467.281 112.188 467.524C112.646 467.757 113.01 468.051 113.28 468.406V467.286H114.89V475H113.28V473.852C113.01 474.216 112.641 474.519 112.174 474.762C111.708 475.005 111.176 475.126 110.578 475.126C109.916 475.126 109.309 474.958 108.758 474.622C108.208 474.277 107.769 473.801 107.442 473.194C107.125 472.578 106.966 471.883 106.966 471.108ZM113.28 471.136C113.28 470.604 113.168 470.142 112.944 469.75C112.73 469.358 112.445 469.059 112.09 468.854C111.736 468.649 111.353 468.546 110.942 468.546C110.532 468.546 110.149 468.649 109.794 468.854C109.44 469.05 109.15 469.344 108.926 469.736C108.712 470.119 108.604 470.576 108.604 471.108C108.604 471.64 108.712 472.107 108.926 472.508C109.15 472.909 109.44 473.217 109.794 473.432C110.158 473.637 110.541 473.74 110.942 473.74C111.353 473.74 111.736 473.637 112.09 473.432C112.445 473.227 112.73 472.928 112.944 472.536C113.168 472.135 113.28 471.668 113.28 471.136ZM118.583 468.434C118.853 468.061 119.222 467.757 119.689 467.524C120.165 467.281 120.692 467.16 121.271 467.16C121.952 467.16 122.568 467.323 123.119 467.65C123.669 467.977 124.103 468.443 124.421 469.05C124.738 469.647 124.897 470.333 124.897 471.108C124.897 471.883 124.738 472.578 124.421 473.194C124.103 473.801 123.665 474.277 123.105 474.622C122.554 474.958 121.943 475.126 121.271 475.126C120.673 475.126 120.141 475.009 119.675 474.776C119.217 474.543 118.853 474.244 118.583 473.88V475H116.987V464.64H118.583V468.434ZM123.273 471.108C123.273 470.576 123.161 470.119 122.937 469.736C122.722 469.344 122.433 469.05 122.069 468.854C121.714 468.649 121.331 468.546 120.921 468.546C120.519 468.546 120.137 468.649 119.773 468.854C119.418 469.059 119.129 469.358 118.905 469.75C118.69 470.142 118.583 470.604 118.583 471.136C118.583 471.668 118.69 472.135 118.905 472.536C119.129 472.928 119.418 473.227 119.773 473.432C120.137 473.637 120.519 473.74 120.921 473.74C121.331 473.74 121.714 473.637 122.069 473.432C122.433 473.217 122.722 472.909 122.937 472.508C123.161 472.107 123.273 471.64 123.273 471.108ZM133.545 470.954C133.545 471.243 133.526 471.505 133.489 471.738H127.595C127.641 472.354 127.87 472.849 128.281 473.222C128.691 473.595 129.195 473.782 129.793 473.782C130.651 473.782 131.258 473.423 131.613 472.704H133.335C133.101 473.413 132.677 473.997 132.061 474.454C131.454 474.902 130.698 475.126 129.793 475.126C129.055 475.126 128.393 474.963 127.805 474.636C127.226 474.3 126.769 473.833 126.433 473.236C126.106 472.629 125.943 471.929 125.943 471.136C125.943 470.343 126.101 469.647 126.419 469.05C126.745 468.443 127.198 467.977 127.777 467.65C128.365 467.323 129.037 467.16 129.793 467.16C130.521 467.16 131.169 467.319 131.739 467.636C132.308 467.953 132.751 468.401 133.069 468.98C133.386 469.549 133.545 470.207 133.545 470.954ZM131.879 470.45C131.869 469.862 131.659 469.391 131.249 469.036C130.838 468.681 130.329 468.504 129.723 468.504C129.172 468.504 128.701 468.681 128.309 469.036C127.917 469.381 127.683 469.853 127.609 470.45H131.879ZM136.711 464.64V475H135.115V464.64H136.711Z" fill="#91908F"/>
<path d="M204 470C204 455.641 215.641 444 230 444H366C380.359 444 392 455.641 392 470C392 484.359 380.359 496 366 496H230C215.641 496 204 484.359 204 470Z" fill="#0A2333"/>
<path d="M260.501 470.002C261.024 470.095 261.467 470.371 261.831 470.828C262.195 471.285 262.377 471.803 262.377 472.382C262.377 472.877 262.246 473.325 261.985 473.726C261.733 474.118 261.364 474.431 260.879 474.664C260.394 474.888 259.829 475 259.185 475H255.293V465.27H259.003C259.666 465.27 260.235 465.382 260.711 465.606C261.187 465.83 261.546 466.133 261.789 466.516C262.032 466.889 262.153 467.309 262.153 467.776C262.153 468.336 262.004 468.803 261.705 469.176C261.406 469.549 261.005 469.825 260.501 470.002ZM256.889 469.358H258.863C259.386 469.358 259.792 469.241 260.081 469.008C260.38 468.765 260.529 468.42 260.529 467.972C260.529 467.533 260.38 467.193 260.081 466.95C259.792 466.698 259.386 466.572 258.863 466.572H256.889V469.358ZM259.045 473.698C259.586 473.698 260.011 473.567 260.319 473.306C260.627 473.045 260.781 472.681 260.781 472.214C260.781 471.738 260.618 471.36 260.291 471.08C259.964 470.8 259.53 470.66 258.989 470.66H256.889V473.698H259.045ZM271.098 467.286V475H269.502V474.09C269.25 474.407 268.918 474.659 268.508 474.846C268.106 475.023 267.677 475.112 267.22 475.112C266.613 475.112 266.067 474.986 265.582 474.734C265.106 474.482 264.728 474.109 264.448 473.614C264.177 473.119 264.042 472.522 264.042 471.822V467.286H265.624V471.584C265.624 472.275 265.796 472.807 266.142 473.18C266.487 473.544 266.958 473.726 267.556 473.726C268.153 473.726 268.624 473.544 268.97 473.18C269.324 472.807 269.502 472.275 269.502 471.584V467.286H271.098ZM275.065 468.588V472.858C275.065 473.147 275.131 473.357 275.261 473.488C275.401 473.609 275.635 473.67 275.961 473.67H276.941V475H275.681C274.963 475 274.412 474.832 274.029 474.496C273.647 474.16 273.455 473.614 273.455 472.858V468.588H272.545V467.286H273.455V465.368H275.065V467.286H276.941V468.588H275.065ZM280.274 468.588V472.858C280.274 473.147 280.34 473.357 280.47 473.488C280.61 473.609 280.844 473.67 281.17 473.67H282.15V475H280.89C280.172 475 279.621 474.832 279.238 474.496C278.856 474.16 278.664 473.614 278.664 472.858V468.588H277.754V467.286H278.664V465.368H280.274V467.286H282.15V468.588H280.274ZM286.967 475.126C286.239 475.126 285.581 474.963 284.993 474.636C284.405 474.3 283.943 473.833 283.607 473.236C283.271 472.629 283.103 471.929 283.103 471.136C283.103 470.352 283.276 469.657 283.621 469.05C283.967 468.443 284.438 467.977 285.035 467.65C285.633 467.323 286.3 467.16 287.037 467.16C287.775 467.16 288.442 467.323 289.039 467.65C289.637 467.977 290.108 468.443 290.453 469.05C290.799 469.657 290.971 470.352 290.971 471.136C290.971 471.92 290.794 472.615 290.439 473.222C290.085 473.829 289.599 474.3 288.983 474.636C288.377 474.963 287.705 475.126 286.967 475.126ZM286.967 473.74C287.378 473.74 287.761 473.642 288.115 473.446C288.479 473.25 288.773 472.956 288.997 472.564C289.221 472.172 289.333 471.696 289.333 471.136C289.333 470.576 289.226 470.105 289.011 469.722C288.797 469.33 288.512 469.036 288.157 468.84C287.803 468.644 287.42 468.546 287.009 468.546C286.599 468.546 286.216 468.644 285.861 468.84C285.516 469.036 285.241 469.33 285.035 469.722C284.83 470.105 284.727 470.576 284.727 471.136C284.727 471.967 284.937 472.611 285.357 473.068C285.787 473.516 286.323 473.74 286.967 473.74ZM296.441 467.16C297.048 467.16 297.589 467.286 298.065 467.538C298.55 467.79 298.928 468.163 299.199 468.658C299.47 469.153 299.605 469.75 299.605 470.45V475H298.023V470.688C298.023 469.997 297.85 469.47 297.505 469.106C297.16 468.733 296.688 468.546 296.091 468.546C295.494 468.546 295.018 468.733 294.663 469.106C294.318 469.47 294.145 469.997 294.145 470.688V475H292.549V467.286H294.145V468.168C294.406 467.851 294.738 467.603 295.139 467.426C295.55 467.249 295.984 467.16 296.441 467.16ZM306.874 473.712H310.164V475H305.278V465.27H306.874V473.712ZM310.966 471.108C310.966 470.333 311.125 469.647 311.442 469.05C311.769 468.453 312.208 467.991 312.758 467.664C313.318 467.328 313.934 467.16 314.606 467.16C315.213 467.16 315.74 467.281 316.188 467.524C316.646 467.757 317.01 468.051 317.28 468.406V467.286H318.89V475H317.28V473.852C317.01 474.216 316.641 474.519 316.174 474.762C315.708 475.005 315.176 475.126 314.578 475.126C313.916 475.126 313.309 474.958 312.758 474.622C312.208 474.277 311.769 473.801 311.442 473.194C311.125 472.578 310.966 471.883 310.966 471.108ZM317.28 471.136C317.28 470.604 317.168 470.142 316.944 469.75C316.73 469.358 316.445 469.059 316.09 468.854C315.736 468.649 315.353 468.546 314.942 468.546C314.532 468.546 314.149 468.649 313.794 468.854C313.44 469.05 313.15 469.344 312.926 469.736C312.712 470.119 312.604 470.576 312.604 471.108C312.604 471.64 312.712 472.107 312.926 472.508C313.15 472.909 313.44 473.217 313.794 473.432C314.158 473.637 314.541 473.74 314.942 473.74C315.353 473.74 315.736 473.637 316.09 473.432C316.445 473.227 316.73 472.928 316.944 472.536C317.168 472.135 317.28 471.668 317.28 471.136ZM322.583 468.434C322.853 468.061 323.222 467.757 323.689 467.524C324.165 467.281 324.692 467.16 325.271 467.16C325.952 467.16 326.568 467.323 327.119 467.65C327.669 467.977 328.103 468.443 328.421 469.05C328.738 469.647 328.897 470.333 328.897 471.108C328.897 471.883 328.738 472.578 328.421 473.194C328.103 473.801 327.665 474.277 327.105 474.622C326.554 474.958 325.943 475.126 325.271 475.126C324.673 475.126 324.141 475.009 323.675 474.776C323.217 474.543 322.853 474.244 322.583 473.88V475H320.987V464.64H322.583V468.434ZM327.273 471.108C327.273 470.576 327.161 470.119 326.937 469.736C326.722 469.344 326.433 469.05 326.069 468.854C325.714 468.649 325.331 468.546 324.921 468.546C324.519 468.546 324.137 468.649 323.773 468.854C323.418 469.059 323.129 469.358 322.905 469.75C322.69 470.142 322.583 470.604 322.583 471.136C322.583 471.668 322.69 472.135 322.905 472.536C323.129 472.928 323.418 473.227 323.773 473.432C324.137 473.637 324.519 473.74 324.921 473.74C325.331 473.74 325.714 473.637 326.069 473.432C326.433 473.217 326.722 472.909 326.937 472.508C327.161 472.107 327.273 471.64 327.273 471.108ZM337.545 470.954C337.545 471.243 337.526 471.505 337.489 471.738H331.595C331.641 472.354 331.87 472.849 332.281 473.222C332.691 473.595 333.195 473.782 333.793 473.782C334.651 473.782 335.258 473.423 335.613 472.704H337.335C337.101 473.413 336.677 473.997 336.061 474.454C335.454 474.902 334.698 475.126 333.793 475.126C333.055 475.126 332.393 474.963 331.805 474.636C331.226 474.3 330.769 473.833 330.433 473.236C330.106 472.629 329.943 471.929 329.943 471.136C329.943 470.343 330.101 469.647 330.419 469.05C330.745 468.443 331.198 467.977 331.777 467.65C332.365 467.323 333.037 467.16 333.793 467.16C334.521 467.16 335.169 467.319 335.739 467.636C336.308 467.953 336.751 468.401 337.069 468.98C337.386 469.549 337.545 470.207 337.545 470.954ZM335.879 470.45C335.869 469.862 335.659 469.391 335.249 469.036C334.838 468.681 334.329 468.504 333.723 468.504C333.172 468.504 332.701 468.681 332.309 469.036C331.917 469.381 331.683 469.853 331.609 470.45H335.879ZM340.711 464.64V475H339.115V464.64H340.711Z" fill="white"/>
</svg>
