<svg width="392" height="316" viewBox="0 0 392 316" fill="none" xmlns="http://www.w3.org/2000/svg">
<mask id="path-2-inside-1_2027_75025" fill="white">
<path d="M0 8C0 3.58172 3.58172 0 8 0H384C388.418 0 392 3.58172 392 8V44C392 48.4183 388.418 52 384 52H8C3.58172 52 0 48.4183 0 44V8Z"/>
</mask>
<path d="M0 8C0 3.58172 3.58172 0 8 0H384C388.418 0 392 3.58172 392 8V44C392 48.4183 388.418 52 384 52H8C3.58172 52 0 48.4183 0 44V8Z" fill="#FAF8F7"/>
<path d="M8 0V1H384V0V-1H8V0ZM392 8H391V44H392H393V8H392ZM384 52V51H8V52V53H384V52ZM0 44H1V8H0H-1V44H0ZM8 52V51C4.134 51 1 47.866 1 44H0H-1C-1 48.9706 3.02943 53 8 53V52ZM392 44H391C391 47.866 387.866 51 384 51V52V53C388.971 53 393 48.9706 393 44H392ZM384 0V1C387.866 1 391 4.13401 391 8H392H393C393 3.02944 388.971 -1 384 -1V0ZM8 0V-1C3.02944 -1 -1 3.02944 -1 8H0H1C1 4.13401 4.13401 1 8 1V0Z" fill="#CDCBCB" mask="url(#path-2-inside-1_2027_75025)"/>
<path d="M177.796 25.834C177.796 24.2287 178.057 22.978 178.58 22.082C179.102 21.1767 180.017 20.724 181.324 20.724C182.621 20.724 183.531 21.1767 184.054 22.082C184.576 22.978 184.838 24.2287 184.838 25.834C184.838 27.4673 184.576 28.7367 184.054 29.642C183.531 30.5473 182.621 31 181.324 31C180.017 31 179.102 30.5473 178.58 29.642C178.057 28.7367 177.796 27.4673 177.796 25.834ZM183.578 25.834C183.578 25.022 183.522 24.336 183.41 23.776C183.307 23.2067 183.088 22.7493 182.752 22.404C182.425 22.0587 181.949 21.886 181.324 21.886C180.689 21.886 180.204 22.0587 179.868 22.404C179.541 22.7493 179.322 23.2067 179.21 23.776C179.107 24.336 179.056 25.022 179.056 25.834C179.056 26.674 179.107 27.3787 179.21 27.948C179.322 28.5173 179.541 28.9747 179.868 29.32C180.204 29.6653 180.689 29.838 181.324 29.838C181.949 29.838 182.425 29.6653 182.752 29.32C183.088 28.9747 183.307 28.5173 183.41 27.948C183.522 27.3787 183.578 26.674 183.578 25.834ZM186.587 25.834C186.587 24.2287 186.848 22.978 187.371 22.082C187.893 21.1767 188.808 20.724 190.115 20.724C191.412 20.724 192.322 21.1767 192.845 22.082C193.367 22.978 193.629 24.2287 193.629 25.834C193.629 27.4673 193.367 28.7367 192.845 29.642C192.322 30.5473 191.412 31 190.115 31C188.808 31 187.893 30.5473 187.371 29.642C186.848 28.7367 186.587 27.4673 186.587 25.834ZM192.369 25.834C192.369 25.022 192.313 24.336 192.201 23.776C192.098 23.2067 191.879 22.7493 191.543 22.404C191.216 22.0587 190.74 21.886 190.115 21.886C189.48 21.886 188.995 22.0587 188.659 22.404C188.332 22.7493 188.113 23.2067 188.001 23.776C187.898 24.336 187.847 25.022 187.847 25.834C187.847 26.674 187.898 27.3787 188.001 27.948C188.113 28.5173 188.332 28.9747 188.659 29.32C188.995 29.6653 189.48 29.838 190.115 29.838C190.74 29.838 191.216 29.6653 191.543 29.32C191.879 28.9747 192.098 28.5173 192.201 27.948C192.313 27.3787 192.369 26.674 192.369 25.834ZM195.994 31.084C195.751 31.084 195.546 31 195.378 30.832C195.21 30.664 195.126 30.4587 195.126 30.216C195.126 29.9733 195.21 29.768 195.378 29.6C195.546 29.432 195.751 29.348 195.994 29.348C196.227 29.348 196.423 29.432 196.582 29.6C196.75 29.768 196.834 29.9733 196.834 30.216C196.834 30.4587 196.75 30.664 196.582 30.832C196.423 31 196.227 31.084 195.994 31.084ZM195.994 25.092C195.751 25.092 195.546 25.008 195.378 24.84C195.21 24.672 195.126 24.4667 195.126 24.224C195.126 23.9813 195.21 23.776 195.378 23.608C195.546 23.44 195.751 23.356 195.994 23.356C196.227 23.356 196.423 23.44 196.582 23.608C196.75 23.776 196.834 23.9813 196.834 24.224C196.834 24.4667 196.75 24.672 196.582 24.84C196.423 25.008 196.227 25.092 195.994 25.092ZM198.358 25.834C198.358 24.2287 198.62 22.978 199.142 22.082C199.665 21.1767 200.58 20.724 201.886 20.724C203.184 20.724 204.094 21.1767 204.616 22.082C205.139 22.978 205.4 24.2287 205.4 25.834C205.4 27.4673 205.139 28.7367 204.616 29.642C204.094 30.5473 203.184 31 201.886 31C200.58 31 199.665 30.5473 199.142 29.642C198.62 28.7367 198.358 27.4673 198.358 25.834ZM204.14 25.834C204.14 25.022 204.084 24.336 203.972 23.776C203.87 23.2067 203.65 22.7493 203.314 22.404C202.988 22.0587 202.512 21.886 201.886 21.886C201.252 21.886 200.766 22.0587 200.43 22.404C200.104 22.7493 199.884 23.2067 199.772 23.776C199.67 24.336 199.618 25.022 199.618 25.834C199.618 26.674 199.67 27.3787 199.772 27.948C199.884 28.5173 200.104 28.9747 200.43 29.32C200.766 29.6653 201.252 29.838 201.886 29.838C202.512 29.838 202.988 29.6653 203.314 29.32C203.65 28.9747 203.87 28.5173 203.972 27.948C204.084 27.3787 204.14 26.674 204.14 25.834ZM207.149 25.834C207.149 24.2287 207.411 22.978 207.933 22.082C208.456 21.1767 209.371 20.724 210.677 20.724C211.975 20.724 212.885 21.1767 213.407 22.082C213.93 22.978 214.191 24.2287 214.191 25.834C214.191 27.4673 213.93 28.7367 213.407 29.642C212.885 30.5473 211.975 31 210.677 31C209.371 31 208.456 30.5473 207.933 29.642C207.411 28.7367 207.149 27.4673 207.149 25.834ZM212.931 25.834C212.931 25.022 212.875 24.336 212.763 23.776C212.661 23.2067 212.441 22.7493 212.105 22.404C211.779 22.0587 211.303 21.886 210.677 21.886C210.043 21.886 209.557 22.0587 209.221 22.404C208.895 22.7493 208.675 23.2067 208.563 23.776C208.461 24.336 208.409 25.022 208.409 25.834C208.409 26.674 208.461 27.3787 208.563 27.948C208.675 28.5173 208.895 28.9747 209.221 29.32C209.557 29.6653 210.043 29.838 210.677 29.838C211.303 29.838 211.779 29.6653 212.105 29.32C212.441 28.9747 212.661 28.5173 212.763 27.948C212.875 27.3787 212.931 26.674 212.931 25.834Z" fill="#91908F"/>
<path d="M176.928 26.408H215.073V27.108H176.928V26.408Z" fill="#91908F"/>
<mask id="path-5-inside-2_2027_75025" fill="white">
<path d="M0 68C0 63.5817 3.58172 60 8 60H384C388.418 60 392 63.5817 392 68V104C392 108.418 388.418 112 384 112H8C3.58172 112 0 108.418 0 104V68Z"/>
</mask>
<path d="M0 68C0 63.5817 3.58172 60 8 60H384C388.418 60 392 63.5817 392 68V104C392 108.418 388.418 112 384 112H8C3.58172 112 0 108.418 0 104V68Z" fill="white"/>
<path d="M8 60V61H384V60V59H8V60ZM392 68H391V104H392H393V68H392ZM384 112V111H8V112V113H384V112ZM0 104H1V68H0H-1V104H0ZM8 112V111C4.134 111 1 107.866 1 104H0H-1C-1 108.971 3.02943 113 8 113V112ZM392 104H391C391 107.866 387.866 111 384 111V112V113C388.971 113 393 108.971 393 104H392ZM384 60V61C387.866 61 391 64.134 391 68H392H393C393 63.0294 388.971 59 384 59V60ZM8 60V59C3.02944 59 -1 63.0294 -1 68H0H1C1 64.134 4.13401 61 8 61V60Z" fill="#CDCBCB" mask="url(#path-5-inside-2_2027_75025)"/>
<path d="M178.165 85.834C178.165 84.2287 178.426 82.978 178.949 82.082C179.472 81.1767 180.386 80.724 181.693 80.724C182.99 80.724 183.9 81.1767 184.423 82.082C184.946 82.978 185.207 84.2287 185.207 85.834C185.207 87.4673 184.946 88.7367 184.423 89.642C183.9 90.5473 182.99 91 181.693 91C180.386 91 179.472 90.5473 178.949 89.642C178.426 88.7367 178.165 87.4673 178.165 85.834ZM183.947 85.834C183.947 85.022 183.891 84.336 183.779 83.776C183.676 83.2067 183.457 82.7493 183.121 82.404C182.794 82.0587 182.318 81.886 181.693 81.886C181.058 81.886 180.573 82.0587 180.237 82.404C179.91 82.7493 179.691 83.2067 179.579 83.776C179.476 84.336 179.425 85.022 179.425 85.834C179.425 86.674 179.476 87.3787 179.579 87.948C179.691 88.5173 179.91 88.9747 180.237 89.32C180.573 89.6653 181.058 89.838 181.693 89.838C182.318 89.838 182.794 89.6653 183.121 89.32C183.457 88.9747 183.676 88.5173 183.779 87.948C183.891 87.3787 183.947 86.674 183.947 85.834ZM186.802 89.978C187.987 89.026 188.916 88.2467 189.588 87.64C190.26 87.024 190.825 86.3847 191.282 85.722C191.749 85.05 191.982 84.392 191.982 83.748C191.982 83.1413 191.833 82.6653 191.534 82.32C191.245 81.9653 190.773 81.788 190.12 81.788C189.485 81.788 188.991 81.9887 188.636 82.39C188.291 82.782 188.104 83.3093 188.076 83.972H186.844C186.881 82.9267 187.199 82.1193 187.796 81.55C188.393 80.9807 189.163 80.696 190.106 80.696C191.067 80.696 191.828 80.962 192.388 81.494C192.957 82.026 193.242 82.7587 193.242 83.692C193.242 84.4667 193.009 85.2227 192.542 85.96C192.085 86.688 191.562 87.332 190.974 87.892C190.386 88.4427 189.635 89.0867 188.72 89.824H193.536V90.888H186.802V89.978ZM195.625 91.084C195.382 91.084 195.177 91 195.009 90.832C194.841 90.664 194.757 90.4587 194.757 90.216C194.757 89.9733 194.841 89.768 195.009 89.6C195.177 89.432 195.382 89.348 195.625 89.348C195.858 89.348 196.054 89.432 196.213 89.6C196.381 89.768 196.465 89.9733 196.465 90.216C196.465 90.4587 196.381 90.664 196.213 90.832C196.054 91 195.858 91.084 195.625 91.084ZM195.625 85.092C195.382 85.092 195.177 85.008 195.009 84.84C194.841 84.672 194.757 84.4667 194.757 84.224C194.757 83.9813 194.841 83.776 195.009 83.608C195.177 83.44 195.382 83.356 195.625 83.356C195.858 83.356 196.054 83.44 196.213 83.608C196.381 83.776 196.465 83.9813 196.465 84.224C196.465 84.4667 196.381 84.672 196.213 84.84C196.054 85.008 195.858 85.092 195.625 85.092ZM197.989 85.834C197.989 84.2287 198.25 82.978 198.773 82.082C199.296 81.1767 200.21 80.724 201.517 80.724C202.814 80.724 203.724 81.1767 204.247 82.082C204.77 82.978 205.031 84.2287 205.031 85.834C205.031 87.4673 204.77 88.7367 204.247 89.642C203.724 90.5473 202.814 91 201.517 91C200.21 91 199.296 90.5473 198.773 89.642C198.25 88.7367 197.989 87.4673 197.989 85.834ZM203.771 85.834C203.771 85.022 203.715 84.336 203.603 83.776C203.5 83.2067 203.281 82.7493 202.945 82.404C202.618 82.0587 202.142 81.886 201.517 81.886C200.882 81.886 200.397 82.0587 200.061 82.404C199.734 82.7493 199.515 83.2067 199.403 83.776C199.3 84.336 199.249 85.022 199.249 85.834C199.249 86.674 199.3 87.3787 199.403 87.948C199.515 88.5173 199.734 88.9747 200.061 89.32C200.397 89.6653 200.882 89.838 201.517 89.838C202.142 89.838 202.618 89.6653 202.945 89.32C203.281 88.9747 203.5 88.5173 203.603 87.948C203.715 87.3787 203.771 86.674 203.771 85.834ZM206.78 85.834C206.78 84.2287 207.041 82.978 207.564 82.082C208.087 81.1767 209.001 80.724 210.308 80.724C211.605 80.724 212.515 81.1767 213.038 82.082C213.561 82.978 213.822 84.2287 213.822 85.834C213.822 87.4673 213.561 88.7367 213.038 89.642C212.515 90.5473 211.605 91 210.308 91C209.001 91 208.087 90.5473 207.564 89.642C207.041 88.7367 206.78 87.4673 206.78 85.834ZM212.562 85.834C212.562 85.022 212.506 84.336 212.394 83.776C212.291 83.2067 212.072 82.7493 211.736 82.404C211.409 82.0587 210.933 81.886 210.308 81.886C209.673 81.886 209.188 82.0587 208.852 82.404C208.525 82.7493 208.306 83.2067 208.194 83.776C208.091 84.336 208.04 85.022 208.04 85.834C208.04 86.674 208.091 87.3787 208.194 87.948C208.306 88.5173 208.525 88.9747 208.852 89.32C209.188 89.6653 209.673 89.838 210.308 89.838C210.933 89.838 211.409 89.6653 211.736 89.32C212.072 88.9747 212.291 88.5173 212.394 87.948C212.506 87.3787 212.562 86.674 212.562 85.834Z" fill="#4B4A4A"/>
<mask id="path-8-inside-3_2027_75025" fill="white">
<path d="M0 128C0 123.582 3.58172 120 8 120H384C388.418 120 392 123.582 392 128V164C392 168.418 388.418 172 384 172H8C3.58172 172 0 168.418 0 164V128Z"/>
</mask>
<path d="M0 128C0 123.582 3.58172 120 8 120H384C388.418 120 392 123.582 392 128V164C392 168.418 388.418 172 384 172H8C3.58172 172 0 168.418 0 164V128Z" fill="#FAF8F7"/>
<path d="M8 120V121H384V120V119H8V120ZM392 128H391V164H392H393V128H392ZM384 172V171H8V172V173H384V172ZM0 164H1V128H0H-1V164H0ZM8 172V171C4.134 171 1 167.866 1 164H0H-1C-1 168.971 3.02943 173 8 173V172ZM392 164H391C391 167.866 387.866 171 384 171V172V173C388.971 173 393 168.971 393 164H392ZM384 120V121C387.866 121 391 124.134 391 128H392H393C393 123.029 388.971 119 384 119V120ZM8 120V119C3.02944 119 -1 123.029 -1 128H0H1C1 124.134 4.13401 121 8 121V120Z" fill="#0A2333" mask="url(#path-8-inside-3_2027_75025)"/>
<path d="M177.105 145.764C177.105 144.149 177.375 142.889 177.917 141.984C178.467 141.069 179.41 140.612 180.745 140.612C182.079 140.612 183.017 141.069 183.559 141.984C184.109 142.889 184.385 144.149 184.385 145.764C184.385 147.397 184.109 148.676 183.559 149.6C183.017 150.515 182.079 150.972 180.745 150.972C179.41 150.972 178.467 150.515 177.917 149.6C177.375 148.676 177.105 147.397 177.105 145.764ZM182.817 145.764C182.817 145.008 182.765 144.369 182.663 143.846C182.569 143.323 182.373 142.899 182.075 142.572C181.776 142.236 181.333 142.068 180.745 142.068C180.157 142.068 179.713 142.236 179.415 142.572C179.116 142.899 178.915 143.323 178.813 143.846C178.719 144.369 178.673 145.008 178.673 145.764C178.673 146.548 178.719 147.206 178.813 147.738C178.906 148.27 179.102 148.699 179.401 149.026C179.709 149.353 180.157 149.516 180.745 149.516C181.333 149.516 181.776 149.353 182.075 149.026C182.383 148.699 182.583 148.27 182.677 147.738C182.77 147.206 182.817 146.548 182.817 145.764ZM185.877 148.872V147.668L190.581 140.92H192.513V147.486H193.815V148.872H192.513V151H190.945V148.872H185.877ZM191.015 142.544L187.711 147.486H191.015V142.544ZM195.992 151.098C195.703 151.098 195.46 151 195.264 150.804C195.068 150.608 194.97 150.365 194.97 150.076C194.97 149.787 195.068 149.544 195.264 149.348C195.46 149.152 195.703 149.054 195.992 149.054C196.272 149.054 196.51 149.152 196.706 149.348C196.902 149.544 197 149.787 197 150.076C197 150.365 196.902 150.608 196.706 150.804C196.51 151 196.272 151.098 195.992 151.098ZM195.992 145.218C195.703 145.218 195.46 145.12 195.264 144.924C195.068 144.728 194.97 144.485 194.97 144.196C194.97 143.907 195.068 143.664 195.264 143.468C195.46 143.272 195.703 143.174 195.992 143.174C196.272 143.174 196.51 143.272 196.706 143.468C196.902 143.664 197 143.907 197 144.196C197 144.485 196.902 144.728 196.706 144.924C196.51 145.12 196.272 145.218 195.992 145.218ZM198.373 148.872V147.668L203.077 140.92H205.009V147.486H206.311V148.872H205.009V151H203.441V148.872H198.373ZM203.511 142.544L200.207 147.486H203.511V142.544ZM214.214 142.166H209.524V144.952C209.72 144.691 210.009 144.471 210.392 144.294C210.784 144.117 211.199 144.028 211.638 144.028C212.422 144.028 213.057 144.196 213.542 144.532C214.037 144.868 214.387 145.293 214.592 145.806C214.807 146.319 214.914 146.861 214.914 147.43C214.914 148.121 214.779 148.737 214.508 149.278C214.247 149.81 213.85 150.23 213.318 150.538C212.795 150.846 212.151 151 211.386 151C210.369 151 209.552 150.748 208.936 150.244C208.32 149.74 207.951 149.073 207.83 148.242H209.384C209.487 148.681 209.715 149.031 210.07 149.292C210.425 149.544 210.868 149.67 211.4 149.67C212.063 149.67 212.557 149.469 212.884 149.068C213.22 148.667 213.388 148.135 213.388 147.472C213.388 146.8 213.22 146.287 212.884 145.932C212.548 145.568 212.053 145.386 211.4 145.386C210.943 145.386 210.555 145.503 210.238 145.736C209.93 145.96 209.706 146.268 209.566 146.66H208.054V140.766H214.214V142.166Z" fill="#0A2333"/>
<mask id="path-11-inside-4_2027_75025" fill="white">
<path d="M0 188C0 183.582 3.58172 180 8 180H384C388.418 180 392 183.582 392 188V224C392 228.418 388.418 232 384 232H8C3.58172 232 0 228.418 0 224V188Z"/>
</mask>
<path d="M0 188C0 183.582 3.58172 180 8 180H384C388.418 180 392 183.582 392 188V224C392 228.418 388.418 232 384 232H8C3.58172 232 0 228.418 0 224V188Z" fill="white"/>
<path d="M8 180V181H384V180V179H8V180ZM392 188H391V224H392H393V188H392ZM384 232V231H8V232V233H384V232ZM0 224H1V188H0H-1V224H0ZM8 232V231C4.134 231 1 227.866 1 224H0H-1C-1 228.971 3.02943 233 8 233V232ZM392 224H391C391 227.866 387.866 231 384 231V232V233C388.971 233 393 228.971 393 224H392ZM384 180V181C387.866 181 391 184.134 391 188H392H393C393 183.029 388.971 179 384 179V180ZM8 180V179C3.02944 179 -1 183.029 -1 188H0H1C1 184.134 4.13401 181 8 181V180Z" fill="#CDCBCB" mask="url(#path-11-inside-4_2027_75025)"/>
<path d="M178.165 205.834C178.165 204.229 178.426 202.978 178.949 202.082C179.472 201.177 180.386 200.724 181.693 200.724C182.99 200.724 183.9 201.177 184.423 202.082C184.946 202.978 185.207 204.229 185.207 205.834C185.207 207.467 184.946 208.737 184.423 209.642C183.9 210.547 182.99 211 181.693 211C180.386 211 179.472 210.547 178.949 209.642C178.426 208.737 178.165 207.467 178.165 205.834ZM183.947 205.834C183.947 205.022 183.891 204.336 183.779 203.776C183.676 203.207 183.457 202.749 183.121 202.404C182.794 202.059 182.318 201.886 181.693 201.886C181.058 201.886 180.573 202.059 180.237 202.404C179.91 202.749 179.691 203.207 179.579 203.776C179.476 204.336 179.425 205.022 179.425 205.834C179.425 206.674 179.476 207.379 179.579 207.948C179.691 208.517 179.91 208.975 180.237 209.32C180.573 209.665 181.058 209.838 181.693 209.838C182.318 209.838 182.794 209.665 183.121 209.32C183.457 208.975 183.676 208.517 183.779 207.948C183.891 207.379 183.947 206.674 183.947 205.834ZM186.802 209.978C187.987 209.026 188.916 208.247 189.588 207.64C190.26 207.024 190.825 206.385 191.282 205.722C191.749 205.05 191.982 204.392 191.982 203.748C191.982 203.141 191.833 202.665 191.534 202.32C191.245 201.965 190.773 201.788 190.12 201.788C189.485 201.788 188.991 201.989 188.636 202.39C188.291 202.782 188.104 203.309 188.076 203.972H186.844C186.881 202.927 187.199 202.119 187.796 201.55C188.393 200.981 189.163 200.696 190.106 200.696C191.067 200.696 191.828 200.962 192.388 201.494C192.957 202.026 193.242 202.759 193.242 203.692C193.242 204.467 193.009 205.223 192.542 205.96C192.085 206.688 191.562 207.332 190.974 207.892C190.386 208.443 189.635 209.087 188.72 209.824H193.536V210.888H186.802V209.978ZM195.625 211.084C195.382 211.084 195.177 211 195.009 210.832C194.841 210.664 194.757 210.459 194.757 210.216C194.757 209.973 194.841 209.768 195.009 209.6C195.177 209.432 195.382 209.348 195.625 209.348C195.858 209.348 196.054 209.432 196.213 209.6C196.381 209.768 196.465 209.973 196.465 210.216C196.465 210.459 196.381 210.664 196.213 210.832C196.054 211 195.858 211.084 195.625 211.084ZM195.625 205.092C195.382 205.092 195.177 205.008 195.009 204.84C194.841 204.672 194.757 204.467 194.757 204.224C194.757 203.981 194.841 203.776 195.009 203.608C195.177 203.44 195.382 203.356 195.625 203.356C195.858 203.356 196.054 203.44 196.213 203.608C196.381 203.776 196.465 203.981 196.465 204.224C196.465 204.467 196.381 204.672 196.213 204.84C196.054 205.008 195.858 205.092 195.625 205.092ZM197.989 205.834C197.989 204.229 198.25 202.978 198.773 202.082C199.296 201.177 200.21 200.724 201.517 200.724C202.814 200.724 203.724 201.177 204.247 202.082C204.77 202.978 205.031 204.229 205.031 205.834C205.031 207.467 204.77 208.737 204.247 209.642C203.724 210.547 202.814 211 201.517 211C200.21 211 199.296 210.547 198.773 209.642C198.25 208.737 197.989 207.467 197.989 205.834ZM203.771 205.834C203.771 205.022 203.715 204.336 203.603 203.776C203.5 203.207 203.281 202.749 202.945 202.404C202.618 202.059 202.142 201.886 201.517 201.886C200.882 201.886 200.397 202.059 200.061 202.404C199.734 202.749 199.515 203.207 199.403 203.776C199.3 204.336 199.249 205.022 199.249 205.834C199.249 206.674 199.3 207.379 199.403 207.948C199.515 208.517 199.734 208.975 200.061 209.32C200.397 209.665 200.882 209.838 201.517 209.838C202.142 209.838 202.618 209.665 202.945 209.32C203.281 208.975 203.5 208.517 203.603 207.948C203.715 207.379 203.771 206.674 203.771 205.834ZM206.78 205.834C206.78 204.229 207.041 202.978 207.564 202.082C208.087 201.177 209.001 200.724 210.308 200.724C211.605 200.724 212.515 201.177 213.038 202.082C213.561 202.978 213.822 204.229 213.822 205.834C213.822 207.467 213.561 208.737 213.038 209.642C212.515 210.547 211.605 211 210.308 211C209.001 211 208.087 210.547 207.564 209.642C207.041 208.737 206.78 207.467 206.78 205.834ZM212.562 205.834C212.562 205.022 212.506 204.336 212.394 203.776C212.291 203.207 212.072 202.749 211.736 202.404C211.409 202.059 210.933 201.886 210.308 201.886C209.673 201.886 209.188 202.059 208.852 202.404C208.525 202.749 208.306 203.207 208.194 203.776C208.091 204.336 208.04 205.022 208.04 205.834C208.04 206.674 208.091 207.379 208.194 207.948C208.306 208.517 208.525 208.975 208.852 209.32C209.188 209.665 209.673 209.838 210.308 209.838C210.933 209.838 211.409 209.665 211.736 209.32C212.072 208.975 212.291 208.517 212.394 207.948C212.506 207.379 212.562 206.674 212.562 205.834Z" fill="#4B4A4A"/>
<mask id="path-14-inside-5_2027_75025" fill="white">
<path d="M0 248H392V316H0V248Z"/>
</mask>
<path d="M0 248V249H392V248V247H0V248Z" fill="#CDCBCB" mask="url(#path-14-inside-5_2027_75025)"/>
<mask id="path-16-inside-6_2027_75025" fill="white">
<path d="M0 290C0 275.641 11.6406 264 26 264H162C176.359 264 188 275.641 188 290C188 304.359 176.359 316 162 316H26C11.6406 316 0 304.359 0 290Z"/>
</mask>
<path d="M0 290M188 290M188 290M0 290M26 264V265H162V264V263H26V264ZM188 290M162 316V315H26V316V317H162V316ZM0 290M26 316V315C12.1929 315 1 303.807 1 290H0H-1C-1 304.912 11.0883 317 26 317V316ZM188 290H187C187 303.807 175.807 315 162 315V316V317C176.912 317 189 304.912 189 290H188ZM162 264V265C175.807 265 187 276.193 187 290H188H189C189 275.088 176.912 263 162 263V264ZM26 264V263C11.0883 263 -1 275.088 -1 290H0H1C1 276.193 12.1929 265 26 265V264Z" fill="#CDCBCB" mask="url(#path-16-inside-6_2027_75025)"/>
<path d="M56.5012 290.002C57.0238 290.095 57.4672 290.371 57.8312 290.828C58.1952 291.285 58.3772 291.803 58.3772 292.382C58.3772 292.877 58.2465 293.325 57.9852 293.726C57.7332 294.118 57.3645 294.431 56.8792 294.664C56.3938 294.888 55.8292 295 55.1852 295H51.2932V285.27H55.0032C55.6658 285.27 56.2352 285.382 56.7112 285.606C57.1872 285.83 57.5465 286.133 57.7892 286.516C58.0318 286.889 58.1532 287.309 58.1532 287.776C58.1532 288.336 58.0038 288.803 57.7052 289.176C57.4065 289.549 57.0052 289.825 56.5012 290.002ZM52.8892 289.358H54.8632C55.3858 289.358 55.7918 289.241 56.0812 289.008C56.3798 288.765 56.5292 288.42 56.5292 287.972C56.5292 287.533 56.3798 287.193 56.0812 286.95C55.7918 286.698 55.3858 286.572 54.8632 286.572H52.8892V289.358ZM55.0452 293.698C55.5865 293.698 56.0112 293.567 56.3192 293.306C56.6272 293.045 56.7812 292.681 56.7812 292.214C56.7812 291.738 56.6178 291.36 56.2912 291.08C55.9645 290.8 55.5305 290.66 54.9892 290.66H52.8892V293.698H55.0452ZM67.0975 287.286V295H65.5015V294.09C65.2495 294.407 64.9182 294.659 64.5075 294.846C64.1062 295.023 63.6769 295.112 63.2195 295.112C62.6129 295.112 62.0669 294.986 61.5815 294.734C61.1055 294.482 60.7275 294.109 60.4475 293.614C60.1769 293.119 60.0415 292.522 60.0415 291.822V287.286H61.6235V291.584C61.6235 292.275 61.7962 292.807 62.1415 293.18C62.4869 293.544 62.9582 293.726 63.5555 293.726C64.1529 293.726 64.6242 293.544 64.9695 293.18C65.3242 292.807 65.5015 292.275 65.5015 291.584V287.286H67.0975ZM71.0653 288.588V292.858C71.0653 293.147 71.1307 293.357 71.2613 293.488C71.4013 293.609 71.6347 293.67 71.9613 293.67H72.9413V295H71.6813C70.9627 295 70.412 294.832 70.0293 294.496C69.6467 294.16 69.4553 293.614 69.4553 292.858V288.588H68.5453V287.286H69.4553V285.368H71.0653V287.286H72.9413V288.588H71.0653ZM76.2743 288.588V292.858C76.2743 293.147 76.3396 293.357 76.4703 293.488C76.6103 293.609 76.8436 293.67 77.1703 293.67H78.1503V295H76.8903C76.1716 295 75.621 294.832 75.2383 294.496C74.8556 294.16 74.6643 293.614 74.6643 292.858V288.588H73.7543V287.286H74.6643V285.368H76.2743V287.286H78.1503V288.588H76.2743ZM82.9673 295.126C82.2393 295.126 81.5813 294.963 80.9933 294.636C80.4053 294.3 79.9433 293.833 79.6073 293.236C79.2713 292.629 79.1033 291.929 79.1033 291.136C79.1033 290.352 79.276 289.657 79.6213 289.05C79.9666 288.443 80.438 287.977 81.0353 287.65C81.6326 287.323 82.3 287.16 83.0373 287.16C83.7746 287.16 84.442 287.323 85.0393 287.65C85.6366 287.977 86.108 288.443 86.4533 289.05C86.7986 289.657 86.9713 290.352 86.9713 291.136C86.9713 291.92 86.794 292.615 86.4393 293.222C86.0846 293.829 85.5993 294.3 84.9833 294.636C84.3766 294.963 83.7046 295.126 82.9673 295.126ZM82.9673 293.74C83.378 293.74 83.7606 293.642 84.1153 293.446C84.4793 293.25 84.7733 292.956 84.9973 292.564C85.2213 292.172 85.3333 291.696 85.3333 291.136C85.3333 290.576 85.226 290.105 85.0113 289.722C84.7966 289.33 84.512 289.036 84.1573 288.84C83.8026 288.644 83.42 288.546 83.0093 288.546C82.5986 288.546 82.216 288.644 81.8613 288.84C81.516 289.036 81.2406 289.33 81.0353 289.722C80.83 290.105 80.7273 290.576 80.7273 291.136C80.7273 291.967 80.9373 292.611 81.3573 293.068C81.7866 293.516 82.3233 293.74 82.9673 293.74ZM92.441 287.16C93.0477 287.16 93.589 287.286 94.065 287.538C94.5504 287.79 94.9284 288.163 95.199 288.658C95.4697 289.153 95.605 289.75 95.605 290.45V295H94.023V290.688C94.023 289.997 93.8504 289.47 93.505 289.106C93.1597 288.733 92.6884 288.546 92.091 288.546C91.4937 288.546 91.0177 288.733 90.663 289.106C90.3177 289.47 90.145 289.997 90.145 290.688V295H88.549V287.286H90.145V288.168C90.4064 287.851 90.7377 287.603 91.139 287.426C91.5497 287.249 91.9837 287.16 92.441 287.16ZM102.874 293.712H106.164V295H101.278V285.27H102.874V293.712ZM106.966 291.108C106.966 290.333 107.125 289.647 107.442 289.05C107.769 288.453 108.208 287.991 108.758 287.664C109.318 287.328 109.934 287.16 110.606 287.16C111.213 287.16 111.74 287.281 112.188 287.524C112.646 287.757 113.01 288.051 113.28 288.406V287.286H114.89V295H113.28V293.852C113.01 294.216 112.641 294.519 112.174 294.762C111.708 295.005 111.176 295.126 110.578 295.126C109.916 295.126 109.309 294.958 108.758 294.622C108.208 294.277 107.769 293.801 107.442 293.194C107.125 292.578 106.966 291.883 106.966 291.108ZM113.28 291.136C113.28 290.604 113.168 290.142 112.944 289.75C112.73 289.358 112.445 289.059 112.09 288.854C111.736 288.649 111.353 288.546 110.942 288.546C110.532 288.546 110.149 288.649 109.794 288.854C109.44 289.05 109.15 289.344 108.926 289.736C108.712 290.119 108.604 290.576 108.604 291.108C108.604 291.64 108.712 292.107 108.926 292.508C109.15 292.909 109.44 293.217 109.794 293.432C110.158 293.637 110.541 293.74 110.942 293.74C111.353 293.74 111.736 293.637 112.09 293.432C112.445 293.227 112.73 292.928 112.944 292.536C113.168 292.135 113.28 291.668 113.28 291.136ZM118.583 288.434C118.853 288.061 119.222 287.757 119.689 287.524C120.165 287.281 120.692 287.16 121.271 287.16C121.952 287.16 122.568 287.323 123.119 287.65C123.669 287.977 124.103 288.443 124.421 289.05C124.738 289.647 124.897 290.333 124.897 291.108C124.897 291.883 124.738 292.578 124.421 293.194C124.103 293.801 123.665 294.277 123.105 294.622C122.554 294.958 121.943 295.126 121.271 295.126C120.673 295.126 120.141 295.009 119.675 294.776C119.217 294.543 118.853 294.244 118.583 293.88V295H116.987V284.64H118.583V288.434ZM123.273 291.108C123.273 290.576 123.161 290.119 122.937 289.736C122.722 289.344 122.433 289.05 122.069 288.854C121.714 288.649 121.331 288.546 120.921 288.546C120.519 288.546 120.137 288.649 119.773 288.854C119.418 289.059 119.129 289.358 118.905 289.75C118.69 290.142 118.583 290.604 118.583 291.136C118.583 291.668 118.69 292.135 118.905 292.536C119.129 292.928 119.418 293.227 119.773 293.432C120.137 293.637 120.519 293.74 120.921 293.74C121.331 293.74 121.714 293.637 122.069 293.432C122.433 293.217 122.722 292.909 122.937 292.508C123.161 292.107 123.273 291.64 123.273 291.108ZM133.545 290.954C133.545 291.243 133.526 291.505 133.489 291.738H127.595C127.641 292.354 127.87 292.849 128.281 293.222C128.691 293.595 129.195 293.782 129.793 293.782C130.651 293.782 131.258 293.423 131.613 292.704H133.335C133.101 293.413 132.677 293.997 132.061 294.454C131.454 294.902 130.698 295.126 129.793 295.126C129.055 295.126 128.393 294.963 127.805 294.636C127.226 294.3 126.769 293.833 126.433 293.236C126.106 292.629 125.943 291.929 125.943 291.136C125.943 290.343 126.101 289.647 126.419 289.05C126.745 288.443 127.198 287.977 127.777 287.65C128.365 287.323 129.037 287.16 129.793 287.16C130.521 287.16 131.169 287.319 131.739 287.636C132.308 287.953 132.751 288.401 133.069 288.98C133.386 289.549 133.545 290.207 133.545 290.954ZM131.879 290.45C131.869 289.862 131.659 289.391 131.249 289.036C130.838 288.681 130.329 288.504 129.723 288.504C129.172 288.504 128.701 288.681 128.309 289.036C127.917 289.381 127.683 289.853 127.609 290.45H131.879ZM136.711 284.64V295H135.115V284.64H136.711Z" fill="#91908F"/>
<path d="M204 290C204 275.641 215.641 264 230 264H366C380.359 264 392 275.641 392 290C392 304.359 380.359 316 366 316H230C215.641 316 204 304.359 204 290Z" fill="#0A2333"/>
<path d="M260.501 290.002C261.024 290.095 261.467 290.371 261.831 290.828C262.195 291.285 262.377 291.803 262.377 292.382C262.377 292.877 262.246 293.325 261.985 293.726C261.733 294.118 261.364 294.431 260.879 294.664C260.394 294.888 259.829 295 259.185 295H255.293V285.27H259.003C259.666 285.27 260.235 285.382 260.711 285.606C261.187 285.83 261.546 286.133 261.789 286.516C262.032 286.889 262.153 287.309 262.153 287.776C262.153 288.336 262.004 288.803 261.705 289.176C261.406 289.549 261.005 289.825 260.501 290.002ZM256.889 289.358H258.863C259.386 289.358 259.792 289.241 260.081 289.008C260.38 288.765 260.529 288.42 260.529 287.972C260.529 287.533 260.38 287.193 260.081 286.95C259.792 286.698 259.386 286.572 258.863 286.572H256.889V289.358ZM259.045 293.698C259.586 293.698 260.011 293.567 260.319 293.306C260.627 293.045 260.781 292.681 260.781 292.214C260.781 291.738 260.618 291.36 260.291 291.08C259.964 290.8 259.53 290.66 258.989 290.66H256.889V293.698H259.045ZM271.098 287.286V295H269.502V294.09C269.25 294.407 268.918 294.659 268.508 294.846C268.106 295.023 267.677 295.112 267.22 295.112C266.613 295.112 266.067 294.986 265.582 294.734C265.106 294.482 264.728 294.109 264.448 293.614C264.177 293.119 264.042 292.522 264.042 291.822V287.286H265.624V291.584C265.624 292.275 265.796 292.807 266.142 293.18C266.487 293.544 266.958 293.726 267.556 293.726C268.153 293.726 268.624 293.544 268.97 293.18C269.324 292.807 269.502 292.275 269.502 291.584V287.286H271.098ZM275.065 288.588V292.858C275.065 293.147 275.131 293.357 275.261 293.488C275.401 293.609 275.635 293.67 275.961 293.67H276.941V295H275.681C274.963 295 274.412 294.832 274.029 294.496C273.647 294.16 273.455 293.614 273.455 292.858V288.588H272.545V287.286H273.455V285.368H275.065V287.286H276.941V288.588H275.065ZM280.274 288.588V292.858C280.274 293.147 280.34 293.357 280.47 293.488C280.61 293.609 280.844 293.67 281.17 293.67H282.15V295H280.89C280.172 295 279.621 294.832 279.238 294.496C278.856 294.16 278.664 293.614 278.664 292.858V288.588H277.754V287.286H278.664V285.368H280.274V287.286H282.15V288.588H280.274ZM286.967 295.126C286.239 295.126 285.581 294.963 284.993 294.636C284.405 294.3 283.943 293.833 283.607 293.236C283.271 292.629 283.103 291.929 283.103 291.136C283.103 290.352 283.276 289.657 283.621 289.05C283.967 288.443 284.438 287.977 285.035 287.65C285.633 287.323 286.3 287.16 287.037 287.16C287.775 287.16 288.442 287.323 289.039 287.65C289.637 287.977 290.108 288.443 290.453 289.05C290.799 289.657 290.971 290.352 290.971 291.136C290.971 291.92 290.794 292.615 290.439 293.222C290.085 293.829 289.599 294.3 288.983 294.636C288.377 294.963 287.705 295.126 286.967 295.126ZM286.967 293.74C287.378 293.74 287.761 293.642 288.115 293.446C288.479 293.25 288.773 292.956 288.997 292.564C289.221 292.172 289.333 291.696 289.333 291.136C289.333 290.576 289.226 290.105 289.011 289.722C288.797 289.33 288.512 289.036 288.157 288.84C287.803 288.644 287.42 288.546 287.009 288.546C286.599 288.546 286.216 288.644 285.861 288.84C285.516 289.036 285.241 289.33 285.035 289.722C284.83 290.105 284.727 290.576 284.727 291.136C284.727 291.967 284.937 292.611 285.357 293.068C285.787 293.516 286.323 293.74 286.967 293.74ZM296.441 287.16C297.048 287.16 297.589 287.286 298.065 287.538C298.55 287.79 298.928 288.163 299.199 288.658C299.47 289.153 299.605 289.75 299.605 290.45V295H298.023V290.688C298.023 289.997 297.85 289.47 297.505 289.106C297.16 288.733 296.688 288.546 296.091 288.546C295.494 288.546 295.018 288.733 294.663 289.106C294.318 289.47 294.145 289.997 294.145 290.688V295H292.549V287.286H294.145V288.168C294.406 287.851 294.738 287.603 295.139 287.426C295.55 287.249 295.984 287.16 296.441 287.16ZM306.874 293.712H310.164V295H305.278V285.27H306.874V293.712ZM310.966 291.108C310.966 290.333 311.125 289.647 311.442 289.05C311.769 288.453 312.208 287.991 312.758 287.664C313.318 287.328 313.934 287.16 314.606 287.16C315.213 287.16 315.74 287.281 316.188 287.524C316.646 287.757 317.01 288.051 317.28 288.406V287.286H318.89V295H317.28V293.852C317.01 294.216 316.641 294.519 316.174 294.762C315.708 295.005 315.176 295.126 314.578 295.126C313.916 295.126 313.309 294.958 312.758 294.622C312.208 294.277 311.769 293.801 311.442 293.194C311.125 292.578 310.966 291.883 310.966 291.108ZM317.28 291.136C317.28 290.604 317.168 290.142 316.944 289.75C316.73 289.358 316.445 289.059 316.09 288.854C315.736 288.649 315.353 288.546 314.942 288.546C314.532 288.546 314.149 288.649 313.794 288.854C313.44 289.05 313.15 289.344 312.926 289.736C312.712 290.119 312.604 290.576 312.604 291.108C312.604 291.64 312.712 292.107 312.926 292.508C313.15 292.909 313.44 293.217 313.794 293.432C314.158 293.637 314.541 293.74 314.942 293.74C315.353 293.74 315.736 293.637 316.09 293.432C316.445 293.227 316.73 292.928 316.944 292.536C317.168 292.135 317.28 291.668 317.28 291.136ZM322.583 288.434C322.853 288.061 323.222 287.757 323.689 287.524C324.165 287.281 324.692 287.16 325.271 287.16C325.952 287.16 326.568 287.323 327.119 287.65C327.669 287.977 328.103 288.443 328.421 289.05C328.738 289.647 328.897 290.333 328.897 291.108C328.897 291.883 328.738 292.578 328.421 293.194C328.103 293.801 327.665 294.277 327.105 294.622C326.554 294.958 325.943 295.126 325.271 295.126C324.673 295.126 324.141 295.009 323.675 294.776C323.217 294.543 322.853 294.244 322.583 293.88V295H320.987V284.64H322.583V288.434ZM327.273 291.108C327.273 290.576 327.161 290.119 326.937 289.736C326.722 289.344 326.433 289.05 326.069 288.854C325.714 288.649 325.331 288.546 324.921 288.546C324.519 288.546 324.137 288.649 323.773 288.854C323.418 289.059 323.129 289.358 322.905 289.75C322.69 290.142 322.583 290.604 322.583 291.136C322.583 291.668 322.69 292.135 322.905 292.536C323.129 292.928 323.418 293.227 323.773 293.432C324.137 293.637 324.519 293.74 324.921 293.74C325.331 293.74 325.714 293.637 326.069 293.432C326.433 293.217 326.722 292.909 326.937 292.508C327.161 292.107 327.273 291.64 327.273 291.108ZM337.545 290.954C337.545 291.243 337.526 291.505 337.489 291.738H331.595C331.641 292.354 331.87 292.849 332.281 293.222C332.691 293.595 333.195 293.782 333.793 293.782C334.651 293.782 335.258 293.423 335.613 292.704H337.335C337.101 293.413 336.677 293.997 336.061 294.454C335.454 294.902 334.698 295.126 333.793 295.126C333.055 295.126 332.393 294.963 331.805 294.636C331.226 294.3 330.769 293.833 330.433 293.236C330.106 292.629 329.943 291.929 329.943 291.136C329.943 290.343 330.101 289.647 330.419 289.05C330.745 288.443 331.198 287.977 331.777 287.65C332.365 287.323 333.037 287.16 333.793 287.16C334.521 287.16 335.169 287.319 335.739 287.636C336.308 287.953 336.751 288.401 337.069 288.98C337.386 289.549 337.545 290.207 337.545 290.954ZM335.879 290.45C335.869 289.862 335.659 289.391 335.249 289.036C334.838 288.681 334.329 288.504 333.723 288.504C333.172 288.504 332.701 288.681 332.309 289.036C331.917 289.381 331.683 289.853 331.609 290.45H335.879ZM340.711 284.64V295H339.115V284.64H340.711Z" fill="white"/>
</svg>
