<svg width="392" height="436" viewBox="0 0 392 436" fill="none" xmlns="http://www.w3.org/2000/svg">
<mask id="path-2-inside-1_2027_74809" fill="white">
<path d="M0 8C0 3.58172 3.58172 0 8 0H384C388.418 0 392 3.58172 392 8V44C392 48.4183 388.418 52 384 52H8C3.58172 52 0 48.4183 0 44V8Z"/>
</mask>
<path d="M0 8C0 3.58172 3.58172 0 8 0H384C388.418 0 392 3.58172 392 8V44C392 48.4183 388.418 52 384 52H8C3.58172 52 0 48.4183 0 44V8Z" fill="#FAF8F7"/>
<path d="M8 0V1H384V0V-1H8V0ZM392 8H391V44H392H393V8H392ZM384 52V51H8V52V53H384V52ZM0 44H1V8H0H-1V44H0ZM8 52V51C4.134 51 1 47.866 1 44H0H-1C-1 48.9706 3.02943 53 8 53V52ZM392 44H391C391 47.866 387.866 51 384 51V52V53C388.971 53 393 48.9706 393 44H392ZM384 0V1C387.866 1 391 4.13401 391 8H392H393C393 3.02944 388.971 -1 384 -1V0ZM8 0V-1C3.02944 -1 -1 3.02944 -1 8H0H1C1 4.13401 4.13401 1 8 1V0Z" fill="#CDCBCB" mask="url(#path-2-inside-1_2027_74809)"/>
<path d="M177.795 25.834C177.795 24.2287 178.057 22.978 178.579 22.082C179.102 21.1767 180.017 20.724 181.323 20.724C182.621 20.724 183.531 21.1767 184.053 22.082C184.576 22.978 184.837 24.2287 184.837 25.834C184.837 27.4673 184.576 28.7367 184.053 29.642C183.531 30.5473 182.621 31 181.323 31C180.017 31 179.102 30.5473 178.579 29.642C178.057 28.7367 177.795 27.4673 177.795 25.834ZM183.577 25.834C183.577 25.022 183.521 24.336 183.409 23.776C183.307 23.2067 183.087 22.7493 182.751 22.404C182.425 22.0587 181.949 21.886 181.323 21.886C180.689 21.886 180.203 22.0587 179.867 22.404C179.541 22.7493 179.321 23.2067 179.209 23.776C179.107 24.336 179.055 25.022 179.055 25.834C179.055 26.674 179.107 27.3787 179.209 27.948C179.321 28.5173 179.541 28.9747 179.867 29.32C180.203 29.6653 180.689 29.838 181.323 29.838C181.949 29.838 182.425 29.6653 182.751 29.32C183.087 28.9747 183.307 28.5173 183.409 27.948C183.521 27.3787 183.577 26.674 183.577 25.834ZM186.587 25.834C186.587 24.2287 186.848 22.978 187.371 22.082C187.893 21.1767 188.808 20.724 190.115 20.724C191.412 20.724 192.322 21.1767 192.845 22.082C193.367 22.978 193.629 24.2287 193.629 25.834C193.629 27.4673 193.367 28.7367 192.845 29.642C192.322 30.5473 191.412 31 190.115 31C188.808 31 187.893 30.5473 187.371 29.642C186.848 28.7367 186.587 27.4673 186.587 25.834ZM192.369 25.834C192.369 25.022 192.313 24.336 192.201 23.776C192.098 23.2067 191.879 22.7493 191.543 22.404C191.216 22.0587 190.74 21.886 190.115 21.886C189.48 21.886 188.995 22.0587 188.659 22.404C188.332 22.7493 188.113 23.2067 188.001 23.776C187.898 24.336 187.847 25.022 187.847 25.834C187.847 26.674 187.898 27.3787 188.001 27.948C188.113 28.5173 188.332 28.9747 188.659 29.32C188.995 29.6653 189.48 29.838 190.115 29.838C190.74 29.838 191.216 29.6653 191.543 29.32C191.879 28.9747 192.098 28.5173 192.201 27.948C192.313 27.3787 192.369 26.674 192.369 25.834ZM195.994 31.084C195.751 31.084 195.546 31 195.378 30.832C195.21 30.664 195.126 30.4587 195.126 30.216C195.126 29.9733 195.21 29.768 195.378 29.6C195.546 29.432 195.751 29.348 195.994 29.348C196.227 29.348 196.423 29.432 196.582 29.6C196.75 29.768 196.834 29.9733 196.834 30.216C196.834 30.4587 196.75 30.664 196.582 30.832C196.423 31 196.227 31.084 195.994 31.084ZM195.994 25.092C195.751 25.092 195.546 25.008 195.378 24.84C195.21 24.672 195.126 24.4667 195.126 24.224C195.126 23.9813 195.21 23.776 195.378 23.608C195.546 23.44 195.751 23.356 195.994 23.356C196.227 23.356 196.423 23.44 196.582 23.608C196.75 23.776 196.834 23.9813 196.834 24.224C196.834 24.4667 196.75 24.672 196.582 24.84C196.423 25.008 196.227 25.092 195.994 25.092ZM198.358 25.834C198.358 24.2287 198.619 22.978 199.142 22.082C199.665 21.1767 200.579 20.724 201.886 20.724C203.183 20.724 204.093 21.1767 204.616 22.082C205.139 22.978 205.4 24.2287 205.4 25.834C205.4 27.4673 205.139 28.7367 204.616 29.642C204.093 30.5473 203.183 31 201.886 31C200.579 31 199.665 30.5473 199.142 29.642C198.619 28.7367 198.358 27.4673 198.358 25.834ZM204.14 25.834C204.14 25.022 204.084 24.336 203.972 23.776C203.869 23.2067 203.65 22.7493 203.314 22.404C202.987 22.0587 202.511 21.886 201.886 21.886C201.251 21.886 200.766 22.0587 200.43 22.404C200.103 22.7493 199.884 23.2067 199.772 23.776C199.669 24.336 199.618 25.022 199.618 25.834C199.618 26.674 199.669 27.3787 199.772 27.948C199.884 28.5173 200.103 28.9747 200.43 29.32C200.766 29.6653 201.251 29.838 201.886 29.838C202.511 29.838 202.987 29.6653 203.314 29.32C203.65 28.9747 203.869 28.5173 203.972 27.948C204.084 27.3787 204.14 26.674 204.14 25.834ZM207.149 25.834C207.149 24.2287 207.41 22.978 207.933 22.082C208.456 21.1767 209.37 20.724 210.677 20.724C211.974 20.724 212.884 21.1767 213.407 22.082C213.93 22.978 214.191 24.2287 214.191 25.834C214.191 27.4673 213.93 28.7367 213.407 29.642C212.884 30.5473 211.974 31 210.677 31C209.37 31 208.456 30.5473 207.933 29.642C207.41 28.7367 207.149 27.4673 207.149 25.834ZM212.931 25.834C212.931 25.022 212.875 24.336 212.763 23.776C212.66 23.2067 212.441 22.7493 212.105 22.404C211.778 22.0587 211.302 21.886 210.677 21.886C210.042 21.886 209.557 22.0587 209.221 22.404C208.894 22.7493 208.675 23.2067 208.563 23.776C208.46 24.336 208.409 25.022 208.409 25.834C208.409 26.674 208.46 27.3787 208.563 27.948C208.675 28.5173 208.894 28.9747 209.221 29.32C209.557 29.6653 210.042 29.838 210.677 29.838C211.302 29.838 211.778 29.6653 212.105 29.32C212.441 28.9747 212.66 28.5173 212.763 27.948C212.875 27.3787 212.931 26.674 212.931 25.834Z" fill="#91908F"/>
<path d="M176.927 26.408H215.073V27.108H176.927V26.408Z" fill="#91908F"/>
<mask id="path-5-inside-2_2027_74809" fill="white">
<path d="M0 68C0 63.5817 3.58172 60 8 60H384C388.418 60 392 63.5817 392 68V104C392 108.418 388.418 112 384 112H8C3.58172 112 0 108.418 0 104V68Z"/>
</mask>
<path d="M0 68C0 63.5817 3.58172 60 8 60H384C388.418 60 392 63.5817 392 68V104C392 108.418 388.418 112 384 112H8C3.58172 112 0 108.418 0 104V68Z" fill="#FAF8F7"/>
<path d="M8 60V61H384V60V59H8V60ZM392 68H391V104H392H393V68H392ZM384 112V111H8V112V113H384V112ZM0 104H1V68H0H-1V104H0ZM8 112V111C4.134 111 1 107.866 1 104H0H-1C-1 108.971 3.02943 113 8 113V112ZM392 104H391C391 107.866 387.866 111 384 111V112V113C388.971 113 393 108.971 393 104H392ZM384 60V61C387.866 61 391 64.134 391 68H392H393C393 63.0294 388.971 59 384 59V60ZM8 60V59C3.02944 59 -1 63.0294 -1 68H0H1C1 64.134 4.13401 61 8 61V60Z" fill="#CDCBCB" mask="url(#path-5-inside-2_2027_74809)"/>
<path d="M177.795 85.834C177.795 84.2287 178.057 82.978 178.579 82.082C179.102 81.1767 180.017 80.724 181.323 80.724C182.621 80.724 183.531 81.1767 184.053 82.082C184.576 82.978 184.837 84.2287 184.837 85.834C184.837 87.4673 184.576 88.7367 184.053 89.642C183.531 90.5473 182.621 91 181.323 91C180.017 91 179.102 90.5473 178.579 89.642C178.057 88.7367 177.795 87.4673 177.795 85.834ZM183.577 85.834C183.577 85.022 183.521 84.336 183.409 83.776C183.307 83.2067 183.087 82.7493 182.751 82.404C182.425 82.0587 181.949 81.886 181.323 81.886C180.689 81.886 180.203 82.0587 179.867 82.404C179.541 82.7493 179.321 83.2067 179.209 83.776C179.107 84.336 179.055 85.022 179.055 85.834C179.055 86.674 179.107 87.3787 179.209 87.948C179.321 88.5173 179.541 88.9747 179.867 89.32C180.203 89.6653 180.689 89.838 181.323 89.838C181.949 89.838 182.425 89.6653 182.751 89.32C183.087 88.9747 183.307 88.5173 183.409 87.948C183.521 87.3787 183.577 86.674 183.577 85.834ZM186.587 85.834C186.587 84.2287 186.848 82.978 187.371 82.082C187.893 81.1767 188.808 80.724 190.115 80.724C191.412 80.724 192.322 81.1767 192.845 82.082C193.367 82.978 193.629 84.2287 193.629 85.834C193.629 87.4673 193.367 88.7367 192.845 89.642C192.322 90.5473 191.412 91 190.115 91C188.808 91 187.893 90.5473 187.371 89.642C186.848 88.7367 186.587 87.4673 186.587 85.834ZM192.369 85.834C192.369 85.022 192.313 84.336 192.201 83.776C192.098 83.2067 191.879 82.7493 191.543 82.404C191.216 82.0587 190.74 81.886 190.115 81.886C189.48 81.886 188.995 82.0587 188.659 82.404C188.332 82.7493 188.113 83.2067 188.001 83.776C187.898 84.336 187.847 85.022 187.847 85.834C187.847 86.674 187.898 87.3787 188.001 87.948C188.113 88.5173 188.332 88.9747 188.659 89.32C188.995 89.6653 189.48 89.838 190.115 89.838C190.74 89.838 191.216 89.6653 191.543 89.32C191.879 88.9747 192.098 88.5173 192.201 87.948C192.313 87.3787 192.369 86.674 192.369 85.834ZM195.994 91.084C195.751 91.084 195.546 91 195.378 90.832C195.21 90.664 195.126 90.4587 195.126 90.216C195.126 89.9733 195.21 89.768 195.378 89.6C195.546 89.432 195.751 89.348 195.994 89.348C196.227 89.348 196.423 89.432 196.582 89.6C196.75 89.768 196.834 89.9733 196.834 90.216C196.834 90.4587 196.75 90.664 196.582 90.832C196.423 91 196.227 91.084 195.994 91.084ZM195.994 85.092C195.751 85.092 195.546 85.008 195.378 84.84C195.21 84.672 195.126 84.4667 195.126 84.224C195.126 83.9813 195.21 83.776 195.378 83.608C195.546 83.44 195.751 83.356 195.994 83.356C196.227 83.356 196.423 83.44 196.582 83.608C196.75 83.776 196.834 83.9813 196.834 84.224C196.834 84.4667 196.75 84.672 196.582 84.84C196.423 85.008 196.227 85.092 195.994 85.092ZM198.358 85.834C198.358 84.2287 198.619 82.978 199.142 82.082C199.665 81.1767 200.579 80.724 201.886 80.724C203.183 80.724 204.093 81.1767 204.616 82.082C205.139 82.978 205.4 84.2287 205.4 85.834C205.4 87.4673 205.139 88.7367 204.616 89.642C204.093 90.5473 203.183 91 201.886 91C200.579 91 199.665 90.5473 199.142 89.642C198.619 88.7367 198.358 87.4673 198.358 85.834ZM204.14 85.834C204.14 85.022 204.084 84.336 203.972 83.776C203.869 83.2067 203.65 82.7493 203.314 82.404C202.987 82.0587 202.511 81.886 201.886 81.886C201.251 81.886 200.766 82.0587 200.43 82.404C200.103 82.7493 199.884 83.2067 199.772 83.776C199.669 84.336 199.618 85.022 199.618 85.834C199.618 86.674 199.669 87.3787 199.772 87.948C199.884 88.5173 200.103 88.9747 200.43 89.32C200.766 89.6653 201.251 89.838 201.886 89.838C202.511 89.838 202.987 89.6653 203.314 89.32C203.65 88.9747 203.869 88.5173 203.972 87.948C204.084 87.3787 204.14 86.674 204.14 85.834ZM207.149 85.834C207.149 84.2287 207.41 82.978 207.933 82.082C208.456 81.1767 209.37 80.724 210.677 80.724C211.974 80.724 212.884 81.1767 213.407 82.082C213.93 82.978 214.191 84.2287 214.191 85.834C214.191 87.4673 213.93 88.7367 213.407 89.642C212.884 90.5473 211.974 91 210.677 91C209.37 91 208.456 90.5473 207.933 89.642C207.41 88.7367 207.149 87.4673 207.149 85.834ZM212.931 85.834C212.931 85.022 212.875 84.336 212.763 83.776C212.66 83.2067 212.441 82.7493 212.105 82.404C211.778 82.0587 211.302 81.886 210.677 81.886C210.042 81.886 209.557 82.0587 209.221 82.404C208.894 82.7493 208.675 83.2067 208.563 83.776C208.46 84.336 208.409 85.022 208.409 85.834C208.409 86.674 208.46 87.3787 208.563 87.948C208.675 88.5173 208.894 88.9747 209.221 89.32C209.557 89.6653 210.042 89.838 210.677 89.838C211.302 89.838 211.778 89.6653 212.105 89.32C212.441 88.9747 212.66 88.5173 212.763 87.948C212.875 87.3787 212.931 86.674 212.931 85.834Z" fill="#91908F"/>
<path d="M176.927 86.408H215.073V87.108H176.927V86.408Z" fill="#91908F"/>
<mask id="path-8-inside-3_2027_74809" fill="white">
<path d="M0 128C0 123.582 3.58172 120 8 120H384C388.418 120 392 123.582 392 128V164C392 168.418 388.418 172 384 172H8C3.58172 172 0 168.418 0 164V128Z"/>
</mask>
<path d="M0 128C0 123.582 3.58172 120 8 120H384C388.418 120 392 123.582 392 128V164C392 168.418 388.418 172 384 172H8C3.58172 172 0 168.418 0 164V128Z" fill="#FAF8F7"/>
<path d="M8 120V121H384V120V119H8V120ZM392 128H391V164H392H393V128H392ZM384 172V171H8V172V173H384V172ZM0 164H1V128H0H-1V164H0ZM8 172V171C4.134 171 1 167.866 1 164H0H-1C-1 168.971 3.02943 173 8 173V172ZM392 164H391C391 167.866 387.866 171 384 171V172V173C388.971 173 393 168.971 393 164H392ZM384 120V121C387.866 121 391 124.134 391 128H392H393C393 123.029 388.971 119 384 119V120ZM8 120V119C3.02944 119 -1 123.029 -1 128H0H1C1 124.134 4.13401 121 8 121V120Z" fill="#CDCBCB" mask="url(#path-8-inside-3_2027_74809)"/>
<path d="M177.795 145.834C177.795 144.229 178.057 142.978 178.579 142.082C179.102 141.177 180.017 140.724 181.323 140.724C182.621 140.724 183.531 141.177 184.053 142.082C184.576 142.978 184.837 144.229 184.837 145.834C184.837 147.467 184.576 148.737 184.053 149.642C183.531 150.547 182.621 151 181.323 151C180.017 151 179.102 150.547 178.579 149.642C178.057 148.737 177.795 147.467 177.795 145.834ZM183.577 145.834C183.577 145.022 183.521 144.336 183.409 143.776C183.307 143.207 183.087 142.749 182.751 142.404C182.425 142.059 181.949 141.886 181.323 141.886C180.689 141.886 180.203 142.059 179.867 142.404C179.541 142.749 179.321 143.207 179.209 143.776C179.107 144.336 179.055 145.022 179.055 145.834C179.055 146.674 179.107 147.379 179.209 147.948C179.321 148.517 179.541 148.975 179.867 149.32C180.203 149.665 180.689 149.838 181.323 149.838C181.949 149.838 182.425 149.665 182.751 149.32C183.087 148.975 183.307 148.517 183.409 147.948C183.521 147.379 183.577 146.674 183.577 145.834ZM186.587 145.834C186.587 144.229 186.848 142.978 187.371 142.082C187.893 141.177 188.808 140.724 190.115 140.724C191.412 140.724 192.322 141.177 192.845 142.082C193.367 142.978 193.629 144.229 193.629 145.834C193.629 147.467 193.367 148.737 192.845 149.642C192.322 150.547 191.412 151 190.115 151C188.808 151 187.893 150.547 187.371 149.642C186.848 148.737 186.587 147.467 186.587 145.834ZM192.369 145.834C192.369 145.022 192.313 144.336 192.201 143.776C192.098 143.207 191.879 142.749 191.543 142.404C191.216 142.059 190.74 141.886 190.115 141.886C189.48 141.886 188.995 142.059 188.659 142.404C188.332 142.749 188.113 143.207 188.001 143.776C187.898 144.336 187.847 145.022 187.847 145.834C187.847 146.674 187.898 147.379 188.001 147.948C188.113 148.517 188.332 148.975 188.659 149.32C188.995 149.665 189.48 149.838 190.115 149.838C190.74 149.838 191.216 149.665 191.543 149.32C191.879 148.975 192.098 148.517 192.201 147.948C192.313 147.379 192.369 146.674 192.369 145.834ZM195.994 151.084C195.751 151.084 195.546 151 195.378 150.832C195.21 150.664 195.126 150.459 195.126 150.216C195.126 149.973 195.21 149.768 195.378 149.6C195.546 149.432 195.751 149.348 195.994 149.348C196.227 149.348 196.423 149.432 196.582 149.6C196.75 149.768 196.834 149.973 196.834 150.216C196.834 150.459 196.75 150.664 196.582 150.832C196.423 151 196.227 151.084 195.994 151.084ZM195.994 145.092C195.751 145.092 195.546 145.008 195.378 144.84C195.21 144.672 195.126 144.467 195.126 144.224C195.126 143.981 195.21 143.776 195.378 143.608C195.546 143.44 195.751 143.356 195.994 143.356C196.227 143.356 196.423 143.44 196.582 143.608C196.75 143.776 196.834 143.981 196.834 144.224C196.834 144.467 196.75 144.672 196.582 144.84C196.423 145.008 196.227 145.092 195.994 145.092ZM198.358 145.834C198.358 144.229 198.619 142.978 199.142 142.082C199.665 141.177 200.579 140.724 201.886 140.724C203.183 140.724 204.093 141.177 204.616 142.082C205.139 142.978 205.4 144.229 205.4 145.834C205.4 147.467 205.139 148.737 204.616 149.642C204.093 150.547 203.183 151 201.886 151C200.579 151 199.665 150.547 199.142 149.642C198.619 148.737 198.358 147.467 198.358 145.834ZM204.14 145.834C204.14 145.022 204.084 144.336 203.972 143.776C203.869 143.207 203.65 142.749 203.314 142.404C202.987 142.059 202.511 141.886 201.886 141.886C201.251 141.886 200.766 142.059 200.43 142.404C200.103 142.749 199.884 143.207 199.772 143.776C199.669 144.336 199.618 145.022 199.618 145.834C199.618 146.674 199.669 147.379 199.772 147.948C199.884 148.517 200.103 148.975 200.43 149.32C200.766 149.665 201.251 149.838 201.886 149.838C202.511 149.838 202.987 149.665 203.314 149.32C203.65 148.975 203.869 148.517 203.972 147.948C204.084 147.379 204.14 146.674 204.14 145.834ZM207.149 145.834C207.149 144.229 207.41 142.978 207.933 142.082C208.456 141.177 209.37 140.724 210.677 140.724C211.974 140.724 212.884 141.177 213.407 142.082C213.93 142.978 214.191 144.229 214.191 145.834C214.191 147.467 213.93 148.737 213.407 149.642C212.884 150.547 211.974 151 210.677 151C209.37 151 208.456 150.547 207.933 149.642C207.41 148.737 207.149 147.467 207.149 145.834ZM212.931 145.834C212.931 145.022 212.875 144.336 212.763 143.776C212.66 143.207 212.441 142.749 212.105 142.404C211.778 142.059 211.302 141.886 210.677 141.886C210.042 141.886 209.557 142.059 209.221 142.404C208.894 142.749 208.675 143.207 208.563 143.776C208.46 144.336 208.409 145.022 208.409 145.834C208.409 146.674 208.46 147.379 208.563 147.948C208.675 148.517 208.894 148.975 209.221 149.32C209.557 149.665 210.042 149.838 210.677 149.838C211.302 149.838 211.778 149.665 212.105 149.32C212.441 148.975 212.66 148.517 212.763 147.948C212.875 147.379 212.931 146.674 212.931 145.834Z" fill="#91908F"/>
<path d="M176.927 146.408H215.073V147.108H176.927V146.408Z" fill="#91908F"/>
<mask id="path-11-inside-4_2027_74809" fill="white">
<path d="M0 188C0 183.582 3.58172 180 8 180H384C388.418 180 392 183.582 392 188V224C392 228.418 388.418 232 384 232H8C3.58172 232 0 228.418 0 224V188Z"/>
</mask>
<path d="M0 188C0 183.582 3.58172 180 8 180H384C388.418 180 392 183.582 392 188V224C392 228.418 388.418 232 384 232H8C3.58172 232 0 228.418 0 224V188Z" fill="white"/>
<path d="M8 180V181H384V180V179H8V180ZM392 188H391V224H392H393V188H392ZM384 232V231H8V232V233H384V232ZM0 224H1V188H0H-1V224H0ZM8 232V231C4.134 231 1 227.866 1 224H0H-1C-1 228.971 3.02943 233 8 233V232ZM392 224H391C391 227.866 387.866 231 384 231V232V233C388.971 233 393 228.971 393 224H392ZM384 180V181C387.866 181 391 184.134 391 188H392H393C393 183.029 388.971 179 384 179V180ZM8 180V179C3.02944 179 -1 183.029 -1 188H0H1C1 184.134 4.13401 181 8 181V180Z" fill="#CDCBCB" mask="url(#path-11-inside-4_2027_74809)"/>
<path d="M178.165 205.834C178.165 204.229 178.426 202.978 178.949 202.082C179.471 201.177 180.386 200.724 181.693 200.724C182.99 200.724 183.9 201.177 184.423 202.082C184.945 202.978 185.207 204.229 185.207 205.834C185.207 207.467 184.945 208.737 184.423 209.642C183.9 210.547 182.99 211 181.693 211C180.386 211 179.471 210.547 178.949 209.642C178.426 208.737 178.165 207.467 178.165 205.834ZM183.947 205.834C183.947 205.022 183.891 204.336 183.779 203.776C183.676 203.207 183.457 202.749 183.121 202.404C182.794 202.059 182.318 201.886 181.693 201.886C181.058 201.886 180.573 202.059 180.237 202.404C179.91 202.749 179.691 203.207 179.579 203.776C179.476 204.336 179.425 205.022 179.425 205.834C179.425 206.674 179.476 207.379 179.579 207.948C179.691 208.517 179.91 208.975 180.237 209.32C180.573 209.665 181.058 209.838 181.693 209.838C182.318 209.838 182.794 209.665 183.121 209.32C183.457 208.975 183.676 208.517 183.779 207.948C183.891 207.379 183.947 206.674 183.947 205.834ZM186.802 209.978C187.987 209.026 188.916 208.247 189.588 207.64C190.26 207.024 190.824 206.385 191.282 205.722C191.748 205.05 191.982 204.392 191.982 203.748C191.982 203.141 191.832 202.665 191.534 202.32C191.244 201.965 190.773 201.788 190.12 201.788C189.485 201.788 188.99 201.989 188.636 202.39C188.29 202.782 188.104 203.309 188.076 203.972H186.844C186.881 202.927 187.198 202.119 187.796 201.55C188.393 200.981 189.163 200.696 190.106 200.696C191.067 200.696 191.828 200.962 192.388 201.494C192.957 202.026 193.242 202.759 193.242 203.692C193.242 204.467 193.008 205.223 192.542 205.96C192.084 206.688 191.562 207.332 190.974 207.892C190.386 208.443 189.634 209.087 188.72 209.824H193.536V210.888H186.802V209.978ZM195.624 211.084C195.382 211.084 195.176 211 195.008 210.832C194.84 210.664 194.756 210.459 194.756 210.216C194.756 209.973 194.84 209.768 195.008 209.6C195.176 209.432 195.382 209.348 195.624 209.348C195.858 209.348 196.054 209.432 196.212 209.6C196.38 209.768 196.464 209.973 196.464 210.216C196.464 210.459 196.38 210.664 196.212 210.832C196.054 211 195.858 211.084 195.624 211.084ZM195.624 205.092C195.382 205.092 195.176 205.008 195.008 204.84C194.84 204.672 194.756 204.467 194.756 204.224C194.756 203.981 194.84 203.776 195.008 203.608C195.176 203.44 195.382 203.356 195.624 203.356C195.858 203.356 196.054 203.44 196.212 203.608C196.38 203.776 196.464 203.981 196.464 204.224C196.464 204.467 196.38 204.672 196.212 204.84C196.054 205.008 195.858 205.092 195.624 205.092ZM197.989 205.834C197.989 204.229 198.25 202.978 198.773 202.082C199.296 201.177 200.21 200.724 201.517 200.724C202.814 200.724 203.724 201.177 204.247 202.082C204.77 202.978 205.031 204.229 205.031 205.834C205.031 207.467 204.77 208.737 204.247 209.642C203.724 210.547 202.814 211 201.517 211C200.21 211 199.296 210.547 198.773 209.642C198.25 208.737 197.989 207.467 197.989 205.834ZM203.771 205.834C203.771 205.022 203.715 204.336 203.603 203.776C203.5 203.207 203.281 202.749 202.945 202.404C202.618 202.059 202.142 201.886 201.517 201.886C200.882 201.886 200.397 202.059 200.061 202.404C199.734 202.749 199.515 203.207 199.403 203.776C199.3 204.336 199.249 205.022 199.249 205.834C199.249 206.674 199.3 207.379 199.403 207.948C199.515 208.517 199.734 208.975 200.061 209.32C200.397 209.665 200.882 209.838 201.517 209.838C202.142 209.838 202.618 209.665 202.945 209.32C203.281 208.975 203.5 208.517 203.603 207.948C203.715 207.379 203.771 206.674 203.771 205.834ZM206.78 205.834C206.78 204.229 207.041 202.978 207.564 202.082C208.087 201.177 209.001 200.724 210.308 200.724C211.605 200.724 212.515 201.177 213.038 202.082C213.561 202.978 213.822 204.229 213.822 205.834C213.822 207.467 213.561 208.737 213.038 209.642C212.515 210.547 211.605 211 210.308 211C209.001 211 208.087 210.547 207.564 209.642C207.041 208.737 206.78 207.467 206.78 205.834ZM212.562 205.834C212.562 205.022 212.506 204.336 212.394 203.776C212.291 203.207 212.072 202.749 211.736 202.404C211.409 202.059 210.933 201.886 210.308 201.886C209.673 201.886 209.188 202.059 208.852 202.404C208.525 202.749 208.306 203.207 208.194 203.776C208.091 204.336 208.04 205.022 208.04 205.834C208.04 206.674 208.091 207.379 208.194 207.948C208.306 208.517 208.525 208.975 208.852 209.32C209.188 209.665 209.673 209.838 210.308 209.838C210.933 209.838 211.409 209.665 211.736 209.32C212.072 208.975 212.291 208.517 212.394 207.948C212.506 207.379 212.562 206.674 212.562 205.834Z" fill="#4B4A4A"/>
<mask id="path-14-inside-5_2027_74809" fill="white">
<path d="M0 248C0 243.582 3.58172 240 8 240H384C388.418 240 392 243.582 392 248V284C392 288.418 388.418 292 384 292H8C3.58172 292 0 288.418 0 284V248Z"/>
</mask>
<path d="M0 248C0 243.582 3.58172 240 8 240H384C388.418 240 392 243.582 392 248V284C392 288.418 388.418 292 384 292H8C3.58172 292 0 288.418 0 284V248Z" fill="#FAF8F7"/>
<path d="M8 240V241H384V240V239H8V240ZM392 248H391V284H392H393V248H392ZM384 292V291H8V292V293H384V292ZM0 284H1V248H0H-1V284H0ZM8 292V291C4.134 291 1 287.866 1 284H0H-1C-1 288.971 3.02943 293 8 293V292ZM392 284H391C391 287.866 387.866 291 384 291V292V293C388.971 293 393 288.971 393 284H392ZM384 240V241C387.866 241 391 244.134 391 248H392H393C393 243.029 388.971 239 384 239V240ZM8 240V239C3.02944 239 -1 243.029 -1 248H0H1C1 244.134 4.13401 241 8 241V240Z" fill="#0A2333" mask="url(#path-14-inside-5_2027_74809)"/>
<path d="M177.104 265.764C177.104 264.149 177.375 262.889 177.916 261.984C178.467 261.069 179.41 260.612 180.744 260.612C182.079 260.612 183.017 261.069 183.558 261.984C184.109 262.889 184.384 264.149 184.384 265.764C184.384 267.397 184.109 268.676 183.558 269.6C183.017 270.515 182.079 270.972 180.744 270.972C179.41 270.972 178.467 270.515 177.916 269.6C177.375 268.676 177.104 267.397 177.104 265.764ZM182.816 265.764C182.816 265.008 182.765 264.369 182.662 263.846C182.569 263.323 182.373 262.899 182.074 262.572C181.776 262.236 181.332 262.068 180.744 262.068C180.156 262.068 179.713 262.236 179.414 262.572C179.116 262.899 178.915 263.323 178.812 263.846C178.719 264.369 178.672 265.008 178.672 265.764C178.672 266.548 178.719 267.206 178.812 267.738C178.906 268.27 179.102 268.699 179.4 269.026C179.708 269.353 180.156 269.516 180.744 269.516C181.332 269.516 181.776 269.353 182.074 269.026C182.382 268.699 182.583 268.27 182.676 267.738C182.77 267.206 182.816 266.548 182.816 265.764ZM185.877 268.872V267.668L190.581 260.92H192.513V267.486H193.815V268.872H192.513V271H190.945V268.872H185.877ZM191.015 262.544L187.711 267.486H191.015V262.544ZM195.992 271.098C195.702 271.098 195.46 271 195.264 270.804C195.068 270.608 194.97 270.365 194.97 270.076C194.97 269.787 195.068 269.544 195.264 269.348C195.46 269.152 195.702 269.054 195.992 269.054C196.272 269.054 196.51 269.152 196.706 269.348C196.902 269.544 197 269.787 197 270.076C197 270.365 196.902 270.608 196.706 270.804C196.51 271 196.272 271.098 195.992 271.098ZM195.992 265.218C195.702 265.218 195.46 265.12 195.264 264.924C195.068 264.728 194.97 264.485 194.97 264.196C194.97 263.907 195.068 263.664 195.264 263.468C195.46 263.272 195.702 263.174 195.992 263.174C196.272 263.174 196.51 263.272 196.706 263.468C196.902 263.664 197 263.907 197 264.196C197 264.485 196.902 264.728 196.706 264.924C196.51 265.12 196.272 265.218 195.992 265.218ZM198.373 268.872V267.668L203.077 260.92H205.009V267.486H206.311V268.872H205.009V271H203.441V268.872H198.373ZM203.511 262.544L200.207 267.486H203.511V262.544ZM214.214 262.166H209.524V264.952C209.72 264.691 210.009 264.471 210.392 264.294C210.784 264.117 211.199 264.028 211.638 264.028C212.422 264.028 213.056 264.196 213.542 264.532C214.036 264.868 214.386 265.293 214.592 265.806C214.806 266.319 214.914 266.861 214.914 267.43C214.914 268.121 214.778 268.737 214.508 269.278C214.246 269.81 213.85 270.23 213.318 270.538C212.795 270.846 212.151 271 211.386 271C210.368 271 209.552 270.748 208.936 270.244C208.32 269.74 207.951 269.073 207.83 268.242H209.384C209.486 268.681 209.715 269.031 210.07 269.292C210.424 269.544 210.868 269.67 211.4 269.67C212.062 269.67 212.557 269.469 212.884 269.068C213.22 268.667 213.388 268.135 213.388 267.472C213.388 266.8 213.22 266.287 212.884 265.932C212.548 265.568 212.053 265.386 211.4 265.386C210.942 265.386 210.555 265.503 210.238 265.736C209.93 265.96 209.706 266.268 209.566 266.66H208.054V260.766H214.214V262.166Z" fill="#0A2333"/>
<mask id="path-17-inside-6_2027_74809" fill="white">
<path d="M0 308C0 303.582 3.58172 300 8 300H384C388.418 300 392 303.582 392 308V344C392 348.418 388.418 352 384 352H8C3.58172 352 0 348.418 0 344V308Z"/>
</mask>
<path d="M0 308C0 303.582 3.58172 300 8 300H384C388.418 300 392 303.582 392 308V344C392 348.418 388.418 352 384 352H8C3.58172 352 0 348.418 0 344V308Z" fill="white"/>
<path d="M8 300V301H384V300V299H8V300ZM392 308H391V344H392H393V308H392ZM384 352V351H8V352V353H384V352ZM0 344H1V308H0H-1V344H0ZM8 352V351C4.134 351 1 347.866 1 344H0H-1C-1 348.971 3.02943 353 8 353V352ZM392 344H391C391 347.866 387.866 351 384 351V352V353C388.971 353 393 348.971 393 344H392ZM384 300V301C387.866 301 391 304.134 391 308H392H393C393 303.029 388.971 299 384 299V300ZM8 300V299C3.02944 299 -1 303.029 -1 308H0H1C1 304.134 4.13401 301 8 301V300Z" fill="#CDCBCB" mask="url(#path-17-inside-6_2027_74809)"/>
<path d="M178.165 325.834C178.165 324.229 178.426 322.978 178.949 322.082C179.471 321.177 180.386 320.724 181.693 320.724C182.99 320.724 183.9 321.177 184.423 322.082C184.945 322.978 185.207 324.229 185.207 325.834C185.207 327.467 184.945 328.737 184.423 329.642C183.9 330.547 182.99 331 181.693 331C180.386 331 179.471 330.547 178.949 329.642C178.426 328.737 178.165 327.467 178.165 325.834ZM183.947 325.834C183.947 325.022 183.891 324.336 183.779 323.776C183.676 323.207 183.457 322.749 183.121 322.404C182.794 322.059 182.318 321.886 181.693 321.886C181.058 321.886 180.573 322.059 180.237 322.404C179.91 322.749 179.691 323.207 179.579 323.776C179.476 324.336 179.425 325.022 179.425 325.834C179.425 326.674 179.476 327.379 179.579 327.948C179.691 328.517 179.91 328.975 180.237 329.32C180.573 329.665 181.058 329.838 181.693 329.838C182.318 329.838 182.794 329.665 183.121 329.32C183.457 328.975 183.676 328.517 183.779 327.948C183.891 327.379 183.947 326.674 183.947 325.834ZM186.802 329.978C187.987 329.026 188.916 328.247 189.588 327.64C190.26 327.024 190.824 326.385 191.282 325.722C191.748 325.05 191.982 324.392 191.982 323.748C191.982 323.141 191.832 322.665 191.534 322.32C191.244 321.965 190.773 321.788 190.12 321.788C189.485 321.788 188.99 321.989 188.636 322.39C188.29 322.782 188.104 323.309 188.076 323.972H186.844C186.881 322.927 187.198 322.119 187.796 321.55C188.393 320.981 189.163 320.696 190.106 320.696C191.067 320.696 191.828 320.962 192.388 321.494C192.957 322.026 193.242 322.759 193.242 323.692C193.242 324.467 193.008 325.223 192.542 325.96C192.084 326.688 191.562 327.332 190.974 327.892C190.386 328.443 189.634 329.087 188.72 329.824H193.536V330.888H186.802V329.978ZM195.624 331.084C195.382 331.084 195.176 331 195.008 330.832C194.84 330.664 194.756 330.459 194.756 330.216C194.756 329.973 194.84 329.768 195.008 329.6C195.176 329.432 195.382 329.348 195.624 329.348C195.858 329.348 196.054 329.432 196.212 329.6C196.38 329.768 196.464 329.973 196.464 330.216C196.464 330.459 196.38 330.664 196.212 330.832C196.054 331 195.858 331.084 195.624 331.084ZM195.624 325.092C195.382 325.092 195.176 325.008 195.008 324.84C194.84 324.672 194.756 324.467 194.756 324.224C194.756 323.981 194.84 323.776 195.008 323.608C195.176 323.44 195.382 323.356 195.624 323.356C195.858 323.356 196.054 323.44 196.212 323.608C196.38 323.776 196.464 323.981 196.464 324.224C196.464 324.467 196.38 324.672 196.212 324.84C196.054 325.008 195.858 325.092 195.624 325.092ZM197.989 325.834C197.989 324.229 198.25 322.978 198.773 322.082C199.296 321.177 200.21 320.724 201.517 320.724C202.814 320.724 203.724 321.177 204.247 322.082C204.77 322.978 205.031 324.229 205.031 325.834C205.031 327.467 204.77 328.737 204.247 329.642C203.724 330.547 202.814 331 201.517 331C200.21 331 199.296 330.547 198.773 329.642C198.25 328.737 197.989 327.467 197.989 325.834ZM203.771 325.834C203.771 325.022 203.715 324.336 203.603 323.776C203.5 323.207 203.281 322.749 202.945 322.404C202.618 322.059 202.142 321.886 201.517 321.886C200.882 321.886 200.397 322.059 200.061 322.404C199.734 322.749 199.515 323.207 199.403 323.776C199.3 324.336 199.249 325.022 199.249 325.834C199.249 326.674 199.3 327.379 199.403 327.948C199.515 328.517 199.734 328.975 200.061 329.32C200.397 329.665 200.882 329.838 201.517 329.838C202.142 329.838 202.618 329.665 202.945 329.32C203.281 328.975 203.5 328.517 203.603 327.948C203.715 327.379 203.771 326.674 203.771 325.834ZM206.78 325.834C206.78 324.229 207.041 322.978 207.564 322.082C208.087 321.177 209.001 320.724 210.308 320.724C211.605 320.724 212.515 321.177 213.038 322.082C213.561 322.978 213.822 324.229 213.822 325.834C213.822 327.467 213.561 328.737 213.038 329.642C212.515 330.547 211.605 331 210.308 331C209.001 331 208.087 330.547 207.564 329.642C207.041 328.737 206.78 327.467 206.78 325.834ZM212.562 325.834C212.562 325.022 212.506 324.336 212.394 323.776C212.291 323.207 212.072 322.749 211.736 322.404C211.409 322.059 210.933 321.886 210.308 321.886C209.673 321.886 209.188 322.059 208.852 322.404C208.525 322.749 208.306 323.207 208.194 323.776C208.091 324.336 208.04 325.022 208.04 325.834C208.04 326.674 208.091 327.379 208.194 327.948C208.306 328.517 208.525 328.975 208.852 329.32C209.188 329.665 209.673 329.838 210.308 329.838C210.933 329.838 211.409 329.665 211.736 329.32C212.072 328.975 212.291 328.517 212.394 327.948C212.506 327.379 212.562 326.674 212.562 325.834Z" fill="#4B4A4A"/>
<mask id="path-20-inside-7_2027_74809" fill="white">
<path d="M0 368H392V436H0V368Z"/>
</mask>
<path d="M0 368V369H392V368V367H0V368Z" fill="#CDCBCB" mask="url(#path-20-inside-7_2027_74809)"/>
<mask id="path-22-inside-8_2027_74809" fill="white">
<path d="M0 410C0 395.641 11.6406 384 26 384H162C176.359 384 188 395.641 188 410C188 424.359 176.359 436 162 436H26C11.6406 436 0 424.359 0 410Z"/>
</mask>
<path d="M0 410M188 410M188 410M0 410M26 384V385H162V384V383H26V384ZM188 410M162 436V435H26V436V437H162V436ZM0 410M26 436V435C12.1929 435 1 423.807 1 410H0H-1C-1 424.912 11.0883 437 26 437V436ZM188 410H187C187 423.807 175.807 435 162 435V436V437C176.912 437 189 424.912 189 410H188ZM162 384V385C175.807 385 187 396.193 187 410H188H189C189 395.088 176.912 383 162 383V384ZM26 384V383C11.0883 383 -1 395.088 -1 410H0H1C1 396.193 12.1929 385 26 385V384Z" fill="#CDCBCB" mask="url(#path-22-inside-8_2027_74809)"/>
<path d="M56.5012 410.002C57.0238 410.095 57.4672 410.371 57.8312 410.828C58.1952 411.285 58.3772 411.803 58.3772 412.382C58.3772 412.877 58.2465 413.325 57.9852 413.726C57.7332 414.118 57.3645 414.431 56.8792 414.664C56.3938 414.888 55.8292 415 55.1852 415H51.2932V405.27H55.0032C55.6658 405.27 56.2352 405.382 56.7112 405.606C57.1872 405.83 57.5465 406.133 57.7892 406.516C58.0318 406.889 58.1532 407.309 58.1532 407.776C58.1532 408.336 58.0038 408.803 57.7052 409.176C57.4065 409.549 57.0052 409.825 56.5012 410.002ZM52.8892 409.358H54.8632C55.3858 409.358 55.7918 409.241 56.0812 409.008C56.3798 408.765 56.5292 408.42 56.5292 407.972C56.5292 407.533 56.3798 407.193 56.0812 406.95C55.7918 406.698 55.3858 406.572 54.8632 406.572H52.8892V409.358ZM55.0452 413.698C55.5865 413.698 56.0112 413.567 56.3192 413.306C56.6272 413.045 56.7812 412.681 56.7812 412.214C56.7812 411.738 56.6178 411.36 56.2912 411.08C55.9645 410.8 55.5305 410.66 54.9892 410.66H52.8892V413.698H55.0452ZM67.0975 407.286V415H65.5015V414.09C65.2495 414.407 64.9182 414.659 64.5075 414.846C64.1062 415.023 63.6769 415.112 63.2195 415.112C62.6129 415.112 62.0669 414.986 61.5815 414.734C61.1055 414.482 60.7275 414.109 60.4475 413.614C60.1769 413.119 60.0415 412.522 60.0415 411.822V407.286H61.6235V411.584C61.6235 412.275 61.7962 412.807 62.1415 413.18C62.4869 413.544 62.9582 413.726 63.5555 413.726C64.1529 413.726 64.6242 413.544 64.9695 413.18C65.3242 412.807 65.5015 412.275 65.5015 411.584V407.286H67.0975ZM71.0653 408.588V412.858C71.0653 413.147 71.1307 413.357 71.2613 413.488C71.4013 413.609 71.6347 413.67 71.9613 413.67H72.9413V415H71.6813C70.9627 415 70.412 414.832 70.0293 414.496C69.6467 414.16 69.4553 413.614 69.4553 412.858V408.588H68.5453V407.286H69.4553V405.368H71.0653V407.286H72.9413V408.588H71.0653ZM76.2743 408.588V412.858C76.2743 413.147 76.3396 413.357 76.4703 413.488C76.6103 413.609 76.8436 413.67 77.1703 413.67H78.1503V415H76.8903C76.1716 415 75.621 414.832 75.2383 414.496C74.8556 414.16 74.6643 413.614 74.6643 412.858V408.588H73.7543V407.286H74.6643V405.368H76.2743V407.286H78.1503V408.588H76.2743ZM82.9673 415.126C82.2393 415.126 81.5813 414.963 80.9933 414.636C80.4053 414.3 79.9433 413.833 79.6073 413.236C79.2713 412.629 79.1033 411.929 79.1033 411.136C79.1033 410.352 79.276 409.657 79.6213 409.05C79.9666 408.443 80.438 407.977 81.0353 407.65C81.6326 407.323 82.3 407.16 83.0373 407.16C83.7746 407.16 84.442 407.323 85.0393 407.65C85.6366 407.977 86.108 408.443 86.4533 409.05C86.7986 409.657 86.9713 410.352 86.9713 411.136C86.9713 411.92 86.794 412.615 86.4393 413.222C86.0846 413.829 85.5993 414.3 84.9833 414.636C84.3766 414.963 83.7046 415.126 82.9673 415.126ZM82.9673 413.74C83.378 413.74 83.7606 413.642 84.1153 413.446C84.4793 413.25 84.7733 412.956 84.9973 412.564C85.2213 412.172 85.3333 411.696 85.3333 411.136C85.3333 410.576 85.226 410.105 85.0113 409.722C84.7966 409.33 84.512 409.036 84.1573 408.84C83.8026 408.644 83.42 408.546 83.0093 408.546C82.5986 408.546 82.216 408.644 81.8613 408.84C81.516 409.036 81.2406 409.33 81.0353 409.722C80.83 410.105 80.7273 410.576 80.7273 411.136C80.7273 411.967 80.9373 412.611 81.3573 413.068C81.7866 413.516 82.3233 413.74 82.9673 413.74ZM92.441 407.16C93.0477 407.16 93.589 407.286 94.065 407.538C94.5504 407.79 94.9284 408.163 95.199 408.658C95.4697 409.153 95.605 409.75 95.605 410.45V415H94.023V410.688C94.023 409.997 93.8504 409.47 93.505 409.106C93.1597 408.733 92.6884 408.546 92.091 408.546C91.4937 408.546 91.0177 408.733 90.663 409.106C90.3177 409.47 90.145 409.997 90.145 410.688V415H88.549V407.286H90.145V408.168C90.4064 407.851 90.7377 407.603 91.139 407.426C91.5497 407.249 91.9837 407.16 92.441 407.16ZM102.874 413.712H106.164V415H101.278V405.27H102.874V413.712ZM106.966 411.108C106.966 410.333 107.125 409.647 107.442 409.05C107.769 408.453 108.208 407.991 108.758 407.664C109.318 407.328 109.934 407.16 110.606 407.16C111.213 407.16 111.74 407.281 112.188 407.524C112.646 407.757 113.01 408.051 113.28 408.406V407.286H114.89V415H113.28V413.852C113.01 414.216 112.641 414.519 112.174 414.762C111.708 415.005 111.176 415.126 110.578 415.126C109.916 415.126 109.309 414.958 108.758 414.622C108.208 414.277 107.769 413.801 107.442 413.194C107.125 412.578 106.966 411.883 106.966 411.108ZM113.28 411.136C113.28 410.604 113.168 410.142 112.944 409.75C112.73 409.358 112.445 409.059 112.09 408.854C111.736 408.649 111.353 408.546 110.942 408.546C110.532 408.546 110.149 408.649 109.794 408.854C109.44 409.05 109.15 409.344 108.926 409.736C108.712 410.119 108.604 410.576 108.604 411.108C108.604 411.64 108.712 412.107 108.926 412.508C109.15 412.909 109.44 413.217 109.794 413.432C110.158 413.637 110.541 413.74 110.942 413.74C111.353 413.74 111.736 413.637 112.09 413.432C112.445 413.227 112.73 412.928 112.944 412.536C113.168 412.135 113.28 411.668 113.28 411.136ZM118.583 408.434C118.853 408.061 119.222 407.757 119.689 407.524C120.165 407.281 120.692 407.16 121.271 407.16C121.952 407.16 122.568 407.323 123.119 407.65C123.669 407.977 124.103 408.443 124.421 409.05C124.738 409.647 124.897 410.333 124.897 411.108C124.897 411.883 124.738 412.578 124.421 413.194C124.103 413.801 123.665 414.277 123.105 414.622C122.554 414.958 121.943 415.126 121.271 415.126C120.673 415.126 120.141 415.009 119.675 414.776C119.217 414.543 118.853 414.244 118.583 413.88V415H116.987V404.64H118.583V408.434ZM123.273 411.108C123.273 410.576 123.161 410.119 122.937 409.736C122.722 409.344 122.433 409.05 122.069 408.854C121.714 408.649 121.331 408.546 120.921 408.546C120.519 408.546 120.137 408.649 119.773 408.854C119.418 409.059 119.129 409.358 118.905 409.75C118.69 410.142 118.583 410.604 118.583 411.136C118.583 411.668 118.69 412.135 118.905 412.536C119.129 412.928 119.418 413.227 119.773 413.432C120.137 413.637 120.519 413.74 120.921 413.74C121.331 413.74 121.714 413.637 122.069 413.432C122.433 413.217 122.722 412.909 122.937 412.508C123.161 412.107 123.273 411.64 123.273 411.108ZM133.545 410.954C133.545 411.243 133.526 411.505 133.489 411.738H127.595C127.641 412.354 127.87 412.849 128.281 413.222C128.691 413.595 129.195 413.782 129.793 413.782C130.651 413.782 131.258 413.423 131.613 412.704H133.335C133.101 413.413 132.677 413.997 132.061 414.454C131.454 414.902 130.698 415.126 129.793 415.126C129.055 415.126 128.393 414.963 127.805 414.636C127.226 414.3 126.769 413.833 126.433 413.236C126.106 412.629 125.943 411.929 125.943 411.136C125.943 410.343 126.101 409.647 126.419 409.05C126.745 408.443 127.198 407.977 127.777 407.65C128.365 407.323 129.037 407.16 129.793 407.16C130.521 407.16 131.169 407.319 131.739 407.636C132.308 407.953 132.751 408.401 133.069 408.98C133.386 409.549 133.545 410.207 133.545 410.954ZM131.879 410.45C131.869 409.862 131.659 409.391 131.249 409.036C130.838 408.681 130.329 408.504 129.723 408.504C129.172 408.504 128.701 408.681 128.309 409.036C127.917 409.381 127.683 409.853 127.609 410.45H131.879ZM136.711 404.64V415H135.115V404.64H136.711Z" fill="#91908F"/>
<path d="M204 410C204 395.641 215.64 384 230 384H366C380.359 384 392 395.641 392 410C392 424.359 380.359 436 366 436H230C215.64 436 204 424.359 204 410Z" fill="#0A2333"/>
<path d="M260.501 410.002C261.024 410.095 261.467 410.371 261.831 410.828C262.195 411.285 262.377 411.803 262.377 412.382C262.377 412.877 262.246 413.325 261.985 413.726C261.733 414.118 261.364 414.431 260.879 414.664C260.394 414.888 259.829 415 259.185 415H255.293V405.27H259.003C259.666 405.27 260.235 405.382 260.711 405.606C261.187 405.83 261.546 406.133 261.789 406.516C262.032 406.889 262.153 407.309 262.153 407.776C262.153 408.336 262.004 408.803 261.705 409.176C261.406 409.549 261.005 409.825 260.501 410.002ZM256.889 409.358H258.863C259.386 409.358 259.792 409.241 260.081 409.008C260.38 408.765 260.529 408.42 260.529 407.972C260.529 407.533 260.38 407.193 260.081 406.95C259.792 406.698 259.386 406.572 258.863 406.572H256.889V409.358ZM259.045 413.698C259.586 413.698 260.011 413.567 260.319 413.306C260.627 413.045 260.781 412.681 260.781 412.214C260.781 411.738 260.618 411.36 260.291 411.08C259.964 410.8 259.53 410.66 258.989 410.66H256.889V413.698H259.045ZM271.097 407.286V415H269.501V414.09C269.249 414.407 268.918 414.659 268.507 414.846C268.106 415.023 267.677 415.112 267.219 415.112C266.613 415.112 266.067 414.986 265.581 414.734C265.105 414.482 264.727 414.109 264.447 413.614C264.177 413.119 264.041 412.522 264.041 411.822V407.286H265.623V411.584C265.623 412.275 265.796 412.807 266.141 413.18C266.487 413.544 266.958 413.726 267.555 413.726C268.153 413.726 268.624 413.544 268.969 413.18C269.324 412.807 269.501 412.275 269.501 411.584V407.286H271.097ZM275.065 408.588V412.858C275.065 413.147 275.13 413.357 275.261 413.488C275.401 413.609 275.634 413.67 275.961 413.67H276.941V415H275.681C274.962 415 274.412 414.832 274.029 414.496C273.646 414.16 273.455 413.614 273.455 412.858V408.588H272.545V407.286H273.455V405.368H275.065V407.286H276.941V408.588H275.065ZM280.274 408.588V412.858C280.274 413.147 280.339 413.357 280.47 413.488C280.61 413.609 280.843 413.67 281.17 413.67H282.15V415H280.89C280.171 415 279.621 414.832 279.238 414.496C278.855 414.16 278.664 413.614 278.664 412.858V408.588H277.754V407.286H278.664V405.368H280.274V407.286H282.15V408.588H280.274ZM286.967 415.126C286.239 415.126 285.581 414.963 284.993 414.636C284.405 414.3 283.943 413.833 283.607 413.236C283.271 412.629 283.103 411.929 283.103 411.136C283.103 410.352 283.276 409.657 283.621 409.05C283.966 408.443 284.438 407.977 285.035 407.65C285.632 407.323 286.3 407.16 287.037 407.16C287.774 407.16 288.442 407.323 289.039 407.65C289.636 407.977 290.108 408.443 290.453 409.05C290.798 409.657 290.971 410.352 290.971 411.136C290.971 411.92 290.794 412.615 290.439 413.222C290.084 413.829 289.599 414.3 288.983 414.636C288.376 414.963 287.704 415.126 286.967 415.126ZM286.967 413.74C287.378 413.74 287.76 413.642 288.115 413.446C288.479 413.25 288.773 412.956 288.997 412.564C289.221 412.172 289.333 411.696 289.333 411.136C289.333 410.576 289.226 410.105 289.011 409.722C288.796 409.33 288.512 409.036 288.157 408.84C287.802 408.644 287.42 408.546 287.009 408.546C286.598 408.546 286.216 408.644 285.861 408.84C285.516 409.036 285.24 409.33 285.035 409.722C284.83 410.105 284.727 410.576 284.727 411.136C284.727 411.967 284.937 412.611 285.357 413.068C285.786 413.516 286.323 413.74 286.967 413.74ZM296.441 407.16C297.047 407.16 297.589 407.286 298.065 407.538C298.55 407.79 298.928 408.163 299.199 408.658C299.469 409.153 299.605 409.75 299.605 410.45V415H298.023V410.688C298.023 409.997 297.85 409.47 297.505 409.106C297.159 408.733 296.688 408.546 296.091 408.546C295.493 408.546 295.017 408.733 294.663 409.106C294.317 409.47 294.145 409.997 294.145 410.688V415H292.549V407.286H294.145V408.168C294.406 407.851 294.737 407.603 295.139 407.426C295.549 407.249 295.983 407.16 296.441 407.16ZM306.873 413.712H310.163V415H305.277V405.27H306.873V413.712ZM310.966 411.108C310.966 410.333 311.125 409.647 311.442 409.05C311.769 408.453 312.207 407.991 312.758 407.664C313.318 407.328 313.934 407.16 314.606 407.16C315.213 407.16 315.74 407.281 316.188 407.524C316.645 407.757 317.009 408.051 317.28 408.406V407.286H318.89V415H317.28V413.852C317.009 414.216 316.641 414.519 316.174 414.762C315.707 415.005 315.175 415.126 314.578 415.126C313.915 415.126 313.309 414.958 312.758 414.622C312.207 414.277 311.769 413.801 311.442 413.194C311.125 412.578 310.966 411.883 310.966 411.108ZM317.28 411.136C317.28 410.604 317.168 410.142 316.944 409.75C316.729 409.358 316.445 409.059 316.09 408.854C315.735 408.649 315.353 408.546 314.942 408.546C314.531 408.546 314.149 408.649 313.794 408.854C313.439 409.05 313.15 409.344 312.926 409.736C312.711 410.119 312.604 410.576 312.604 411.108C312.604 411.64 312.711 412.107 312.926 412.508C313.15 412.909 313.439 413.217 313.794 413.432C314.158 413.637 314.541 413.74 314.942 413.74C315.353 413.74 315.735 413.637 316.09 413.432C316.445 413.227 316.729 412.928 316.944 412.536C317.168 412.135 317.28 411.668 317.28 411.136ZM322.582 408.434C322.853 408.061 323.222 407.757 323.688 407.524C324.164 407.281 324.692 407.16 325.27 407.16C325.952 407.16 326.568 407.323 327.118 407.65C327.669 407.977 328.103 408.443 328.42 409.05C328.738 409.647 328.896 410.333 328.896 411.108C328.896 411.883 328.738 412.578 328.42 413.194C328.103 413.801 327.664 414.277 327.104 414.622C326.554 414.958 325.942 415.126 325.27 415.126C324.673 415.126 324.141 415.009 323.674 414.776C323.217 414.543 322.853 414.244 322.582 413.88V415H320.986V404.64H322.582V408.434ZM327.272 411.108C327.272 410.576 327.16 410.119 326.936 409.736C326.722 409.344 326.432 409.05 326.068 408.854C325.714 408.649 325.331 408.546 324.92 408.546C324.519 408.546 324.136 408.649 323.772 408.854C323.418 409.059 323.128 409.358 322.904 409.75C322.69 410.142 322.582 410.604 322.582 411.136C322.582 411.668 322.69 412.135 322.904 412.536C323.128 412.928 323.418 413.227 323.772 413.432C324.136 413.637 324.519 413.74 324.92 413.74C325.331 413.74 325.714 413.637 326.068 413.432C326.432 413.217 326.722 412.909 326.936 412.508C327.16 412.107 327.272 411.64 327.272 411.108ZM337.545 410.954C337.545 411.243 337.526 411.505 337.489 411.738H331.595C331.641 412.354 331.87 412.849 332.281 413.222C332.691 413.595 333.195 413.782 333.793 413.782C334.651 413.782 335.258 413.423 335.613 412.704H337.335C337.101 413.413 336.677 413.997 336.061 414.454C335.454 414.902 334.698 415.126 333.793 415.126C333.055 415.126 332.393 414.963 331.805 414.636C331.226 414.3 330.769 413.833 330.433 413.236C330.106 412.629 329.943 411.929 329.943 411.136C329.943 410.343 330.101 409.647 330.419 409.05C330.745 408.443 331.198 407.977 331.777 407.65C332.365 407.323 333.037 407.16 333.793 407.16C334.521 407.16 335.169 407.319 335.739 407.636C336.308 407.953 336.751 408.401 337.069 408.98C337.386 409.549 337.545 410.207 337.545 410.954ZM335.879 410.45C335.869 409.862 335.659 409.391 335.249 409.036C334.838 408.681 334.329 408.504 333.723 408.504C333.172 408.504 332.701 408.681 332.309 409.036C331.917 409.381 331.683 409.853 331.609 410.45H335.879ZM340.711 404.64V415H339.115V404.64H340.711Z" fill="white"/>
</svg>
