<svg width="70" height="24" viewBox="0 0 70 24" fill="none" xmlns="http://www.w3.org/2000/svg">
<path d="M0 12C0 5.37258 5.37258 0 12 0H36C42.6274 0 48 5.37258 48 12C48 18.6274 42.6274 24 36 24H12C5.37258 24 0 18.6274 0 12Z" fill="#EBE9E8"/>
<path d="M2 12C2 6.47715 6.47715 2 12 2C17.5228 2 22 6.47715 22 12C22 17.5228 17.5228 22 12 22C6.47715 22 2 17.5228 2 12Z" fill="white"/>
<path d="M56.716 16.084C55.94 16.084 55.232 15.904 54.592 15.544C53.952 15.176 53.444 14.668 53.068 14.02C52.7 13.364 52.516 12.628 52.516 11.812C52.516 10.996 52.7 10.264 53.068 9.616C53.444 8.96 53.952 8.452 54.592 8.092C55.232 7.724 55.94 7.54 56.716 7.54C57.5 7.54 58.212 7.724 58.852 8.092C59.492 8.452 59.996 8.956 60.364 9.604C60.732 10.252 60.916 10.988 60.916 11.812C60.916 12.636 60.732 13.372 60.364 14.02C59.996 14.668 59.492 15.176 58.852 15.544C58.212 15.904 57.5 16.084 56.716 16.084ZM56.716 15.136C57.3 15.136 57.824 15 58.288 14.728C58.76 14.456 59.128 14.068 59.392 13.564C59.664 13.06 59.8 12.476 59.8 11.812C59.8 11.14 59.664 10.556 59.392 10.06C59.128 9.556 58.764 9.168 58.3 8.896C57.836 8.624 57.308 8.488 56.716 8.488C56.124 8.488 55.596 8.624 55.132 8.896C54.668 9.168 54.3 9.556 54.028 10.06C53.764 10.556 53.632 11.14 53.632 11.812C53.632 12.476 53.764 13.06 54.028 13.564C54.3 14.068 54.668 14.456 55.132 14.728C55.604 15 56.132 15.136 56.716 15.136ZM65.0336 10.324H63.6536V16H62.5616V10.324H61.7096V9.424H62.5616V8.956C62.5616 8.22 62.7496 7.684 63.1256 7.348C63.5096 7.004 64.1216 6.832 64.9616 6.832V7.744C64.4816 7.744 64.1416 7.84 63.9416 8.032C63.7496 8.216 63.6536 8.524 63.6536 8.956V9.424H65.0336V10.324ZM68.9828 10.324H67.6028V16H66.5108V10.324H65.6588V9.424H66.5108V8.956C66.5108 8.22 66.6988 7.684 67.0748 7.348C67.4588 7.004 68.0708 6.832 68.9108 6.832V7.744C68.4308 7.744 68.0908 7.84 67.8908 8.032C67.6988 8.216 67.6028 8.524 67.6028 8.956V9.424H68.9828V10.324Z" fill="#91908F"/>
</svg>
