<svg width="73" height="30" viewBox="0 0 73 30" fill="none" xmlns="http://www.w3.org/2000/svg">
<path d="M3 15C3 8.37258 8.37258 3 15 3H39C45.6274 3 51 8.37258 51 15C51 21.6274 45.6274 27 39 27H15C8.37258 27 3 21.6274 3 15Z" fill="#063E56"/>
<path d="M29 15C29 9.47715 33.4772 5 39 5C44.5228 5 49 9.47715 49 15C49 20.5228 44.5228 25 39 25C33.4772 25 29 20.5228 29 15Z" fill="white"/>
<mask id="path-4-outside-1_299_224" maskUnits="userSpaceOnUse" x="0" y="0" width="54" height="30" fill="black">
<rect fill="white" width="54" height="30"/>
<path d="M2 15C2 7.8203 7.8203 2 15 2H39C46.1797 2 52 7.8203 52 15C52 22.1797 46.1797 28 39 28H15C7.8203 28 2 22.1797 2 15Z"/>
</mask>
<path d="M15 2V4H39V2V0H15V2ZM39 28V26H15V28V30H39V28ZM15 28V26C8.92487 26 4 21.0751 4 15H2H0C0 23.2843 6.71573 30 15 30V28ZM52 15H50C50 21.0751 45.0751 26 39 26V28V30C47.2843 30 54 23.2843 54 15H52ZM39 2V4C45.0751 4 50 8.92487 50 15H52H54C54 6.71573 47.2843 0 39 0V2ZM15 2V0C6.71573 0 0 6.71573 0 15H2H4C4 8.92487 8.92487 4 15 4V2Z" fill="#0A2333" mask="url(#path-4-outside-1_299_224)"/>
<path d="M59.716 19.084C58.94 19.084 58.232 18.904 57.592 18.544C56.952 18.176 56.444 17.668 56.068 17.02C55.7 16.364 55.516 15.628 55.516 14.812C55.516 13.996 55.7 13.264 56.068 12.616C56.444 11.96 56.952 11.452 57.592 11.092C58.232 10.724 58.94 10.54 59.716 10.54C60.5 10.54 61.212 10.724 61.852 11.092C62.492 11.452 62.996 11.956 63.364 12.604C63.732 13.252 63.916 13.988 63.916 14.812C63.916 15.636 63.732 16.372 63.364 17.02C62.996 17.668 62.492 18.176 61.852 18.544C61.212 18.904 60.5 19.084 59.716 19.084ZM59.716 18.136C60.3 18.136 60.824 18 61.288 17.728C61.76 17.456 62.128 17.068 62.392 16.564C62.664 16.06 62.8 15.476 62.8 14.812C62.8 14.14 62.664 13.556 62.392 13.06C62.128 12.556 61.764 12.168 61.3 11.896C60.836 11.624 60.308 11.488 59.716 11.488C59.124 11.488 58.596 11.624 58.132 11.896C57.668 12.168 57.3 12.556 57.028 13.06C56.764 13.556 56.632 14.14 56.632 14.812C56.632 15.476 56.764 16.06 57.028 16.564C57.3 17.068 57.668 17.456 58.132 17.728C58.604 18 59.132 18.136 59.716 18.136ZM68.5616 12.304C69.3616 12.304 70.0096 12.548 70.5056 13.036C71.0016 13.516 71.2496 14.212 71.2496 15.124V19H70.1696V15.28C70.1696 14.624 70.0056 14.124 69.6776 13.78C69.3496 13.428 68.9016 13.252 68.3336 13.252C67.7576 13.252 67.2976 13.432 66.9536 13.792C66.6176 14.152 66.4496 14.676 66.4496 15.364V19H65.3576V12.424H66.4496V13.36C66.6656 13.024 66.9576 12.764 67.3256 12.58C67.7016 12.396 68.1136 12.304 68.5616 12.304Z" fill="#0A2333"/>
</svg>
