<svg width="245" height="115" viewBox="0 0 245 115" fill="none" xmlns="http://www.w3.org/2000/svg">
<mask id="path-1-inside-1_2216_9457" fill="white">
<path d="M0 8C0 3.58172 3.58172 0 8 0H237C241.418 0 245 3.58172 245 8V106.5C245 110.918 241.418 114.5 237 114.5H7.99999C3.58172 114.5 0 110.918 0 106.5V8Z"/>
</mask>
<path d="M8 0V1H237V0V-1H8V0ZM245 8H244V106.5H245H246V8H245ZM237 114.5V113.5H7.99999V114.5V115.5H237V114.5ZM0 106.5H1V8H0H-1V106.5H0ZM7.99999 114.5V113.5C4.134 113.5 1 110.366 1 106.5H0H-1C-1 111.471 3.02943 115.5 7.99999 115.5V114.5ZM245 106.5H244C244 110.366 240.866 113.5 237 113.5V114.5V115.5C241.971 115.5 246 111.471 246 106.5H245ZM237 0V1C240.866 1 244 4.13401 244 8H245H246C246 3.02944 241.971 -1 237 -1V0ZM8 0V-1C3.02944 -1 -1 3.02944 -1 8H0H1C1 4.13401 4.13401 1 8 1V0Z" fill="#CDCBCB" mask="url(#path-1-inside-1_2216_9457)"/>
<path fill-rule="evenodd" clip-rule="evenodd" d="M41.4988 47.0503C44.203 47.0535 46.7957 48.1294 48.7078 50.0415C50.6196 51.9535 51.6957 54.5456 51.699 57.2495C51.699 59.2669 51.1 61.2391 49.9793 62.9165C48.8585 64.5938 47.2659 65.9013 45.4021 66.6733C43.5383 67.4453 41.4872 67.647 39.5086 67.2534C37.5301 66.8598 35.7123 65.8888 34.2859 64.4624C32.8595 63.036 31.8884 61.2182 31.4949 59.2397C31.1014 57.2612 31.303 55.2099 32.075 53.3462C32.847 51.4826 34.1546 49.8898 35.8318 48.769C37.5092 47.6483 39.4815 47.0503 41.4988 47.0503ZM44.9431 48.9351C43.2986 48.2539 41.4888 48.0761 39.7429 48.4233C37.9971 48.7706 36.3932 49.6276 35.1345 50.8862C33.876 52.1449 33.0189 53.7489 32.6717 55.4946C32.3245 57.2403 32.5032 59.0495 33.1843 60.6938C33.8655 62.3384 35.0188 63.744 36.4988 64.7329C37.9788 65.7218 39.7188 66.2495 41.4988 66.2495C43.8849 66.2468 46.1729 65.298 47.8601 63.6108C49.5472 61.9236 50.4962 59.6355 50.4988 57.2495C50.4987 55.4697 49.971 53.7294 48.9822 52.2495C47.9933 50.7696 46.5875 49.6162 44.9431 48.9351ZM45.4988 56.6499C45.6578 56.6499 45.8102 56.7133 45.9226 56.8257C46.035 56.9381 46.0983 57.0906 46.0984 57.2495C46.0984 57.4086 46.0352 57.5618 45.9226 57.6743C45.8102 57.7867 45.6578 57.8501 45.4988 57.8501H37.4988C37.3397 57.8501 37.1865 57.7868 37.074 57.6743C36.9616 57.5618 36.8992 57.4085 36.8992 57.2495C36.8993 57.0907 36.9617 56.9381 37.074 56.8257C37.1865 56.7132 37.3397 56.6499 37.4988 56.6499H45.4988Z" fill="#91908F"/>
<path d="M81.5 24.5H163.5C165.433 24.5 167 26.067 167 28V47.5127C161.986 47.7727 158 51.921 158 57C158 62.079 161.986 66.2263 167 66.4863V86.5C167 88.433 165.433 90 163.5 90H81.5C79.567 90 78 88.433 78 86.5V66.4863C83.0143 66.2263 87 62.079 87 57C87 51.921 83.0143 47.7727 78 47.5127V28L78.0049 27.8203C78.0984 25.9708 79.6273 24.5 81.5 24.5Z" fill="white" stroke="#CDCBCB"/>
<path d="M121.999 67.392C120.347 67.392 118.901 66.9627 117.659 66.104C116.427 65.236 115.466 64.0273 114.775 62.478C114.085 60.9193 113.739 59.104 113.739 57.032C113.739 55.0533 114.085 53.3127 114.775 51.81C115.466 50.298 116.427 49.122 117.659 48.282C118.901 47.4327 120.347 47.008 121.999 47.008C123.661 47.008 125.107 47.4327 126.339 48.282C127.581 49.1313 128.542 50.312 129.223 51.824C129.914 53.3267 130.259 55.0627 130.259 57.032C130.259 59.104 129.914 60.9193 129.223 62.478C128.542 64.0273 127.581 65.236 126.339 66.104C125.107 66.9627 123.661 67.392 121.999 67.392ZM121.999 64.172C122.886 64.172 123.679 63.9293 124.379 63.444C125.089 62.9587 125.649 62.1933 126.059 61.148C126.47 60.0933 126.675 58.7213 126.675 57.032C126.675 54.708 126.227 52.986 125.331 51.866C124.445 50.7367 123.334 50.172 121.999 50.172C120.674 50.172 119.563 50.732 118.667 51.852C117.771 52.9627 117.323 54.6893 117.323 57.032C117.323 58.7027 117.529 60.0653 117.939 61.12C118.35 62.1653 118.905 62.9353 119.605 63.43C120.315 63.9247 121.113 64.172 121.999 64.172Z" fill="#0A2333"/>
<path fill-rule="evenodd" clip-rule="evenodd" d="M203.498 47.0503C206.202 47.0535 208.795 48.1294 210.707 50.0415C212.619 51.9535 213.695 54.5456 213.699 57.2495C213.699 59.2669 213.1 61.2391 211.979 62.9165C210.858 64.5938 209.265 65.9013 207.402 66.6733C205.538 67.4453 203.487 67.647 201.508 67.2534C199.53 66.8598 197.712 65.8888 196.285 64.4624C194.859 63.036 193.888 61.2182 193.494 59.2397C193.101 57.2612 193.302 55.2099 194.074 53.3462C194.846 51.4826 196.154 49.8898 197.831 48.769C199.509 47.6483 201.481 47.0503 203.498 47.0503ZM206.943 48.9351C205.298 48.2539 203.488 48.0761 201.742 48.4233C199.997 48.7706 198.393 49.6276 197.134 50.8862C195.876 52.1449 195.018 53.7489 194.671 55.4946C194.324 57.2403 194.503 59.0495 195.184 60.6938C195.865 62.3384 197.018 63.744 198.498 64.7329C199.978 65.7218 201.718 66.2495 203.498 66.2495C205.884 66.2468 208.172 65.298 209.86 63.6108C211.547 61.9236 212.496 59.6355 212.498 57.2495C212.498 55.4697 211.971 53.7294 210.982 52.2495C209.993 50.7696 208.587 49.6162 206.943 48.9351ZM203.498 52.6499C203.657 52.6499 203.81 52.7133 203.922 52.8257C204.035 52.9382 204.098 53.0914 204.098 53.2505V56.6499H207.498C207.657 56.6499 207.81 56.7133 207.922 56.8257C208.035 56.9381 208.098 57.0906 208.098 57.2495C208.098 57.4086 208.035 57.5618 207.922 57.6743C207.81 57.7867 207.657 57.8501 207.498 57.8501H204.098V61.2495C204.098 61.4086 204.035 61.5618 203.922 61.6743C203.81 61.7867 203.657 61.8501 203.498 61.8501C203.339 61.8501 203.186 61.7868 203.074 61.6743C202.961 61.5618 202.898 61.4086 202.898 61.2495V57.8501H199.498C199.339 57.8501 199.186 57.7868 199.074 57.6743C198.961 57.5618 198.899 57.4085 198.899 57.2495C198.899 57.0907 198.961 56.9381 199.074 56.8257C199.186 56.7132 199.339 56.6499 199.498 56.6499H202.898V53.2505C202.898 53.0914 202.961 52.9382 203.074 52.8257C203.186 52.7132 203.339 52.6499 203.498 52.6499Z" fill="#006B99"/>
</svg>
