<svg width="124" height="40" viewBox="0 0 124 40" fill="none" xmlns="http://www.w3.org/2000/svg">
<path fill-rule="evenodd" clip-rule="evenodd" d="M19.9972 3C24.5041 3.00529 28.8249 4.7985 32.0118 7.98535C35.1987 11.1723 36.9919 15.493 36.9972 20C36.9972 23.3622 35.9998 26.6488 34.132 29.4443C32.264 32.2399 29.6093 34.4194 26.503 35.7061C23.3967 36.9927 19.9784 37.3288 16.6808 36.6729C13.3832 36.0169 10.3541 34.3979 7.97668 32.0205C5.59929 29.6431 3.98027 26.614 3.32434 23.3164C2.66845 20.0188 3.00448 16.6004 4.29113 13.4941C5.57782 10.3879 7.75732 7.73315 10.5529 5.86523C13.3484 3.99735 16.635 3.00003 19.9972 3ZM25.7374 6.14258C22.9967 5.00734 19.9809 4.70944 17.0714 5.28809C14.1617 5.86686 11.4885 7.29579 9.39074 9.39355C7.29298 11.4913 5.86405 14.1645 5.28528 17.0742C4.70663 19.9837 5.00453 22.9995 6.13977 25.7402C7.27507 28.4811 9.1975 30.8235 11.6642 32.4717C14.1308 34.1198 17.0306 35 19.9972 35C23.974 34.9956 27.7867 33.4136 30.5988 30.6016C33.4108 27.7895 34.9928 23.9768 34.9972 20C34.9972 17.0334 34.117 14.1337 32.4689 11.667C30.8207 9.20031 28.4782 7.27788 25.7374 6.14258ZM26.6642 19C26.9293 19.0001 27.1837 19.1055 27.3712 19.293C27.5587 19.4805 27.6641 19.7349 27.6642 20C27.6642 20.2651 27.5586 20.5195 27.3712 20.707C27.1837 20.8945 26.9293 20.9999 26.6642 21H13.3312C13.066 21 12.8107 20.8946 12.6232 20.707C12.4358 20.5195 12.3312 20.2651 12.3312 20C12.3312 19.7349 12.4358 19.4805 12.6232 19.293C12.8107 19.1054 13.066 19 13.3312 19H26.6642Z" fill="#91908F"/>
<path d="M58.8551 19.764C58.8551 18.1493 59.1258 16.8893 59.6671 15.984C60.2178 15.0693 61.1605 14.612 62.4951 14.612C63.8298 14.612 64.7678 15.0693 65.3091 15.984C65.8598 16.8893 66.1351 18.1493 66.1351 19.764C66.1351 21.3973 65.8598 22.676 65.3091 23.6C64.7678 24.5147 63.8298 24.972 62.4951 24.972C61.1605 24.972 60.2178 24.5147 59.6671 23.6C59.1258 22.676 58.8551 21.3973 58.8551 19.764ZM64.5671 19.764C64.5671 19.008 64.5158 18.3687 64.4131 17.846C64.3198 17.3233 64.1238 16.8987 63.8251 16.572C63.5265 16.236 63.0831 16.068 62.4951 16.068C61.9071 16.068 61.4638 16.236 61.1651 16.572C60.8665 16.8987 60.6658 17.3233 60.5631 17.846C60.4698 18.3687 60.4231 19.008 60.4231 19.764C60.4231 20.548 60.4698 21.206 60.5631 21.738C60.6565 22.27 60.8525 22.6993 61.1511 23.026C61.4591 23.3527 61.9071 23.516 62.4951 23.516C63.0831 23.516 63.5265 23.3527 63.8251 23.026C64.1331 22.6993 64.3338 22.27 64.4271 21.738C64.5205 21.206 64.5671 20.548 64.5671 19.764Z" fill="#0A2333"/>
<path fill-rule="evenodd" clip-rule="evenodd" d="M103.997 3C108.504 3.00529 112.824 4.7985 116.011 7.98535C119.198 11.1723 120.991 15.493 120.997 20C120.997 23.3622 119.999 26.6488 118.131 29.4443C116.264 32.2399 113.609 34.4194 110.503 35.7061C107.396 36.9927 103.978 37.3288 100.68 36.6729C97.3827 36.0169 94.3536 34.3979 91.9762 32.0205C89.5988 29.6431 87.9798 26.614 87.3238 23.3164C86.668 20.0188 87.004 16.6004 88.2906 13.4941C89.5773 10.3879 91.7568 7.73315 94.5524 5.86523C97.3479 3.99735 100.635 3.00003 103.997 3ZM109.737 6.14258C106.996 5.00734 103.98 4.70944 101.071 5.28809C98.1612 5.86686 95.488 7.29579 93.3903 9.39355C91.2925 11.4913 89.8636 14.1645 89.2848 17.0742C88.7061 19.9837 89.004 22.9995 90.1393 25.7402C91.2746 28.4811 93.197 30.8235 95.6637 32.4717C98.1304 34.1198 101.03 35 103.997 35C107.974 34.9956 111.786 33.4136 114.598 30.6016C117.41 27.7895 118.992 23.9768 118.997 20C118.997 17.0334 118.117 14.1337 116.468 11.667C114.82 9.20031 112.478 7.27788 109.737 6.14258ZM103.997 12.334C104.262 12.334 104.516 12.4387 104.704 12.626C104.891 12.8135 104.997 13.0688 104.997 13.334V19H110.664C110.929 19.0001 111.183 19.1055 111.371 19.293C111.558 19.4805 111.664 19.7349 111.664 20C111.664 20.2651 111.558 20.5195 111.371 20.707C111.183 20.8945 110.929 20.9999 110.664 21H104.997V26.667C104.997 26.9321 104.891 27.1866 104.704 27.374C104.516 27.5614 104.262 27.667 103.997 27.667C103.732 27.667 103.477 27.5615 103.29 27.374C103.102 27.1866 102.997 26.9321 102.997 26.667V21H97.3307C97.0655 21 96.8102 20.8946 96.6227 20.707C96.4354 20.5195 96.3307 20.2651 96.3307 20C96.3307 19.7349 96.4353 19.4805 96.6227 19.293C96.8102 19.1054 97.0655 19 97.3307 19H102.997V13.334C102.997 13.0688 103.102 12.8135 103.29 12.626C103.477 12.4386 103.732 12.334 103.997 12.334Z" fill="#006B99"/>
</svg>
