<svg width="84" height="20" viewBox="0 0 84 20" fill="none" xmlns="http://www.w3.org/2000/svg">
<path d="M9.99854 1.5C12.2521 1.50265 14.4129 2.39969 16.0063 3.99316C17.5995 5.58657 18.4958 7.74673 18.4985 10C18.4985 11.6811 17.9999 13.3248 17.0659 14.7227C16.1319 16.1204 14.8046 17.2102 13.2515 17.8535C11.6983 18.4968 9.98914 18.6649 8.34033 18.3369C6.69149 18.0089 5.17654 17.1995 3.98779 16.0107C2.79908 14.822 1.98959 13.307 1.66162 11.6582C1.33372 10.0094 1.50268 8.30016 2.146 6.74707C2.78934 5.19414 3.87826 3.86652 5.27588 2.93262C6.6737 1.99863 8.31739 1.5 9.99854 1.5ZM12.8687 3.07129C11.4983 2.50367 9.99042 2.35521 8.53564 2.64453C7.08079 2.93392 5.74372 3.64837 4.69482 4.69727C3.64614 5.7461 2.93242 7.08243 2.64307 8.53711C2.35369 9.99196 2.50217 11.4997 3.06982 12.8701C3.63747 14.2405 4.5982 15.4122 5.83154 16.2363C7.06491 17.0604 8.51518 17.5 9.99854 17.5C11.987 17.4978 13.8933 16.7068 15.2993 15.3008C16.7053 13.8947 17.4963 11.9884 17.4985 10C17.4985 8.5167 17.0589 7.06633 16.2349 5.83301C15.4108 4.59972 14.239 3.63894 12.8687 3.07129ZM13.3315 9.5C13.464 9.5 13.5913 9.55286 13.6851 9.64648C13.7788 9.74021 13.8315 9.86745 13.8315 10C13.8315 10.1326 13.7788 10.2597 13.6851 10.3535C13.5913 10.4472 13.4641 10.5 13.3315 10.5H6.66553C6.53296 10.5 6.40577 10.4472 6.31201 10.3535C6.21824 10.2597 6.16553 10.1326 6.16553 10C6.16557 9.86745 6.21828 9.74021 6.31201 9.64648C6.40576 9.55288 6.53304 9.5 6.66553 9.5H13.3315Z" fill="#91908F"/>
<path d="M38.8556 9.764C38.8556 8.14933 39.1263 6.88933 39.6676 5.984C40.2183 5.06933 41.161 4.612 42.4956 4.612C43.8303 4.612 44.7683 5.06933 45.3096 5.984C45.8603 6.88933 46.1356 8.14933 46.1356 9.764C46.1356 11.3973 45.8603 12.676 45.3096 13.6C44.7683 14.5147 43.8303 14.972 42.4956 14.972C41.161 14.972 40.2183 14.5147 39.6676 13.6C39.1263 12.676 38.8556 11.3973 38.8556 9.764ZM44.5676 9.764C44.5676 9.008 44.5163 8.36867 44.4136 7.846C44.3203 7.32333 44.1243 6.89867 43.8256 6.572C43.527 6.236 43.0836 6.068 42.4956 6.068C41.9076 6.068 41.4643 6.236 41.1656 6.572C40.867 6.89867 40.6663 7.32333 40.5636 7.846C40.4703 8.36867 40.4236 9.008 40.4236 9.764C40.4236 10.548 40.4703 11.206 40.5636 11.738C40.657 12.27 40.853 12.6993 41.1516 13.026C41.4596 13.3527 41.9076 13.516 42.4956 13.516C43.0836 13.516 43.527 13.3527 43.8256 13.026C44.1336 12.6993 44.3343 12.27 44.4276 11.738C44.521 11.206 44.5676 10.548 44.5676 9.764Z" fill="#0A2333"/>
<path fill-rule="evenodd" clip-rule="evenodd" d="M73.9988 1.5C76.2522 1.50273 78.4123 2.39975 80.0057 3.99316C81.5991 5.5866 82.4961 7.74657 82.4988 10C82.4988 11.6811 82.0002 13.3248 81.0662 14.7227C80.1323 16.1204 78.8048 17.2102 77.2518 17.8535C75.6987 18.4968 73.9893 18.6648 72.3406 18.3369C70.6918 18.0089 69.1768 17.1994 67.9881 16.0107C66.7993 14.822 65.9899 13.307 65.6619 11.6582C65.334 10.0094 65.502 8.30018 66.1453 6.74707C66.7887 5.19397 67.8784 3.86658 69.2762 2.93262C70.674 1.99864 72.3177 1.5 73.9988 1.5ZM76.8689 3.07129C75.4985 2.50363 73.9898 2.35514 72.535 2.64453C71.0803 2.93397 69.7439 3.64847 68.6951 4.69727C67.6464 5.74612 66.9317 7.08237 66.6424 8.53711C66.3531 9.99183 66.5016 11.4998 67.0691 12.8701C67.6368 14.2406 68.5985 15.4122 69.8318 16.2363C71.0652 17.0604 72.5155 17.5 73.9988 17.5C75.9872 17.4977 77.8936 16.7068 79.2996 15.3008C80.7055 13.8948 81.4966 11.9883 81.4988 10C81.4988 8.5167 81.0583 7.06633 80.2342 5.83301C79.4102 4.59995 78.2391 3.6389 76.8689 3.07129ZM73.9988 6.16699C74.1313 6.16708 74.2586 6.21978 74.3523 6.31348C74.446 6.40722 74.4988 6.5345 74.4988 6.66699V9.5H77.3318C77.4644 9.5 77.5916 9.55277 77.6853 9.64648C77.7791 9.74021 77.8318 9.86745 77.8318 10C77.8318 10.1326 77.7791 10.2598 77.6853 10.3535C77.5916 10.4473 77.4644 10.5 77.3318 10.5H74.4988V13.334C74.4987 13.4664 74.446 13.5938 74.3523 13.6875C74.2587 13.7811 74.1313 13.8339 73.9988 13.834C73.8664 13.834 73.739 13.781 73.6453 13.6875C73.5517 13.5938 73.499 13.4664 73.4988 13.334V10.5H70.6648C70.5324 10.4999 70.405 10.4472 70.3113 10.3535C70.2177 10.2598 70.1648 10.1325 70.1648 10C70.1649 9.86749 70.2176 9.74021 70.3113 9.64648C70.405 9.55279 70.5324 9.50009 70.6648 9.5H73.4988V6.66699C73.4988 6.53438 73.5515 6.40724 73.6453 6.31348C73.7391 6.21976 73.8663 6.16699 73.9988 6.16699Z" fill="#006B99"/>
</svg>
