<svg width="487" height="72" viewBox="0 0 487 72" fill="none" xmlns="http://www.w3.org/2000/svg">
<mask id="path-2-inside-1_3109_44526" fill="white">
<path d="M0 8C0 3.58172 3.58172 0 8 0H479C483.418 0 487 3.58172 487 8V64C487 68.4183 483.418 72 479 72H8C3.58172 72 0 68.4183 0 64V8Z"/>
</mask>
<path d="M0 8C0 3.58172 3.58172 0 8 0H479C483.418 0 487 3.58172 487 8V64C487 68.4183 483.418 72 479 72H8C3.58172 72 0 68.4183 0 64V8Z" fill="white"/>
<path d="M8 0V1H479V0V-1H8V0ZM487 8H486V64H487H488V8H487ZM479 72V71H8V72V73H479V72ZM0 64H1V8H0H-1V64H0ZM8 72V71C4.13401 71 1 67.866 1 64H0H-1C-1 68.9706 3.02943 73 8 73V72ZM487 64H486C486 67.866 482.866 71 479 71V72V73C483.971 73 488 68.9706 488 64H487ZM479 0V1C482.866 1 486 4.13401 486 8H487H488C488 3.02944 483.971 -1 479 -1V0ZM8 0V-1C3.02944 -1 -1 3.02944 -1 8H0H1C1 4.13401 4.13401 1 8 1V0Z" fill="#CDCBCB" mask="url(#path-2-inside-1_3109_44526)"/>
<path d="M19.084 21.242V22.278H16.424V31H15.15V22.278H12.476V21.242H19.084ZM21.3102 22.082C21.0676 22.082 20.8622 21.998 20.6942 21.83C20.5262 21.662 20.4422 21.4567 20.4422 21.214C20.4422 20.9713 20.5262 20.766 20.6942 20.598C20.8622 20.43 21.0676 20.346 21.3102 20.346C21.5436 20.346 21.7396 20.43 21.8982 20.598C22.0662 20.766 22.1502 20.9713 22.1502 21.214C22.1502 21.4567 22.0662 21.662 21.8982 21.83C21.7396 21.998 21.5436 22.082 21.3102 22.082ZM21.9262 23.328V31H20.6522V23.328H21.9262ZM25.6515 24.378V28.9C25.6515 29.2733 25.7309 29.5393 25.8895 29.698C26.0482 29.8473 26.3235 29.922 26.7155 29.922H27.6535V31H26.5055C25.7962 31 25.2642 30.8367 24.9095 30.51C24.5549 30.1833 24.3775 29.6467 24.3775 28.9V24.378H23.3835V23.328H24.3775V21.396H25.6515V23.328H27.6535V24.378H25.6515ZM30.4711 20.64V31H29.1971V20.64H30.4711ZM39.6425 26.87C39.6425 27.1127 39.6285 27.3693 39.6005 27.64H33.4685C33.5151 28.396 33.7718 28.9887 34.2385 29.418C34.7145 29.838 35.2885 30.048 35.9605 30.048C36.5111 30.048 36.9685 29.922 37.3325 29.67C37.7058 29.4087 37.9671 29.0633 38.1165 28.634H39.4885C39.2831 29.3713 38.8725 29.9733 38.2565 30.44C37.6405 30.8973 36.8751 31.126 35.9605 31.126C35.2325 31.126 34.5791 30.9627 34.0005 30.636C33.4311 30.3093 32.9831 29.8473 32.6565 29.25C32.3298 28.6433 32.1665 27.9433 32.1665 27.15C32.1665 26.3567 32.3251 25.6613 32.6425 25.064C32.9598 24.4667 33.4031 24.0093 33.9725 23.692C34.5511 23.3653 35.2138 23.202 35.9605 23.202C36.6885 23.202 37.3325 23.3607 37.8925 23.678C38.4525 23.9953 38.8818 24.434 39.1805 24.994C39.4885 25.5447 39.6425 26.17 39.6425 26.87ZM38.3265 26.604C38.3265 26.1187 38.2191 25.7033 38.0045 25.358C37.7898 25.0033 37.4958 24.7373 37.1225 24.56C36.7585 24.3733 36.3525 24.28 35.9045 24.28C35.2605 24.28 34.7098 24.4853 34.2525 24.896C33.8045 25.3067 33.5478 25.876 33.4825 26.604H38.3265ZM44.5105 22.04V20.878H47.1425V31H45.8545V22.04H44.5105Z" fill="#4B4A4A"/>
<path d="M16.116 41.242C17.18 41.242 18.0993 41.4427 18.874 41.844C19.658 42.236 20.2553 42.8007 20.666 43.538C21.086 44.2753 21.296 45.1433 21.296 46.142C21.296 47.1407 21.086 48.0087 20.666 48.746C20.2553 49.474 19.658 50.034 18.874 50.426C18.0993 50.8087 17.18 51 16.116 51H13.078V41.242H16.116ZM16.116 49.95C17.376 49.95 18.3373 49.6187 19 48.956C19.6627 48.284 19.994 47.346 19.994 46.142C19.994 44.9287 19.658 43.9813 18.986 43.3C18.3233 42.6187 17.3667 42.278 16.116 42.278H14.352V49.95H16.116ZM29.9764 46.87C29.9764 47.1127 29.9624 47.3693 29.9344 47.64H23.8024C23.8491 48.396 24.1058 48.9887 24.5724 49.418C25.0484 49.838 25.6224 50.048 26.2944 50.048C26.8451 50.048 27.3024 49.922 27.6664 49.67C28.0398 49.4087 28.3011 49.0633 28.4504 48.634H29.8224C29.6171 49.3713 29.2064 49.9733 28.5904 50.44C27.9744 50.8973 27.2091 51.126 26.2944 51.126C25.5664 51.126 24.9131 50.9627 24.3344 50.636C23.7651 50.3093 23.3171 49.8473 22.9904 49.25C22.6638 48.6433 22.5004 47.9433 22.5004 47.15C22.5004 46.3567 22.6591 45.6613 22.9764 45.064C23.2938 44.4667 23.7371 44.0093 24.3064 43.692C24.8851 43.3653 25.5478 43.202 26.2944 43.202C27.0224 43.202 27.6664 43.3607 28.2264 43.678C28.7864 43.9953 29.2158 44.434 29.5144 44.994C29.8224 45.5447 29.9764 46.17 29.9764 46.87ZM28.6604 46.604C28.6604 46.1187 28.5531 45.7033 28.3384 45.358C28.1238 45.0033 27.8298 44.7373 27.4564 44.56C27.0924 44.3733 26.6864 44.28 26.2384 44.28C25.5944 44.28 25.0438 44.4853 24.5864 44.896C24.1384 45.3067 23.8818 45.876 23.8164 46.604H28.6604ZM34.3741 51.126C33.7861 51.126 33.2587 51.028 32.7921 50.832C32.3254 50.6267 31.9567 50.3467 31.6861 49.992C31.4154 49.628 31.2661 49.2127 31.2381 48.746H32.5541C32.5914 49.1287 32.7687 49.4413 33.0861 49.684C33.4127 49.9267 33.8374 50.048 34.3601 50.048C34.8454 50.048 35.2281 49.9407 35.5081 49.726C35.7881 49.5113 35.9281 49.2407 35.9281 48.914C35.9281 48.578 35.7787 48.3307 35.4801 48.172C35.1814 48.004 34.7194 47.8407 34.0941 47.682C33.5247 47.5327 33.0581 47.3833 32.6941 47.234C32.3394 47.0753 32.0314 46.8467 31.7701 46.548C31.5181 46.24 31.3921 45.8387 31.3921 45.344C31.3921 44.952 31.5087 44.5927 31.7421 44.266C31.9754 43.9393 32.3067 43.6827 32.7361 43.496C33.1654 43.3 33.6554 43.202 34.2061 43.202C35.0554 43.202 35.7414 43.4167 36.2641 43.846C36.7867 44.2753 37.0667 44.8633 37.1041 45.61H35.8301C35.8021 45.2087 35.6387 44.8867 35.3401 44.644C35.0507 44.4013 34.6587 44.28 34.1641 44.28C33.7067 44.28 33.3427 44.378 33.0721 44.574C32.8014 44.77 32.6661 45.0267 32.6661 45.344C32.6661 45.596 32.7454 45.806 32.9041 45.974C33.0721 46.1327 33.2774 46.2633 33.5201 46.366C33.7721 46.4593 34.1174 46.5667 34.5561 46.688C35.1067 46.8373 35.5547 46.9867 35.9001 47.136C36.2454 47.276 36.5394 47.4907 36.7821 47.78C37.0341 48.0693 37.1647 48.4473 37.1741 48.914C37.1741 49.334 37.0574 49.712 36.8241 50.048C36.5907 50.384 36.2594 50.65 35.8301 50.846C35.4101 51.0327 34.9247 51.126 34.3741 51.126ZM38.4965 47.15C38.4965 46.3567 38.6552 45.666 38.9725 45.078C39.2899 44.4807 39.7285 44.0187 40.2885 43.692C40.8579 43.3653 41.5065 43.202 42.2345 43.202C43.1772 43.202 43.9519 43.4307 44.5585 43.888C45.1745 44.3453 45.5805 44.98 45.7765 45.792H44.4045C44.2739 45.3253 44.0172 44.9567 43.6345 44.686C43.2612 44.4153 42.7945 44.28 42.2345 44.28C41.5065 44.28 40.9185 44.532 40.4705 45.036C40.0225 45.5307 39.7985 46.2353 39.7985 47.15C39.7985 48.074 40.0225 48.788 40.4705 49.292C40.9185 49.796 41.5065 50.048 42.2345 50.048C42.7945 50.048 43.2612 49.9173 43.6345 49.656C44.0079 49.3947 44.2645 49.0213 44.4045 48.536H45.7765C45.5712 49.32 45.1605 49.95 44.5445 50.426C43.9285 50.8927 43.1585 51.126 42.2345 51.126C41.5065 51.126 40.8579 50.9627 40.2885 50.636C39.7285 50.3093 39.2899 49.8473 38.9725 49.25C38.6552 48.6527 38.4965 47.9527 38.4965 47.15ZM48.7504 44.574C48.9744 44.1353 49.2918 43.7947 49.7024 43.552C50.1224 43.3093 50.6311 43.188 51.2284 43.188V44.504H50.8924C49.4644 44.504 48.7504 45.2787 48.7504 46.828V51H47.4764V43.328H48.7504V44.574ZM53.3571 42.082C53.1144 42.082 52.9091 41.998 52.7411 41.83C52.5731 41.662 52.4891 41.4567 52.4891 41.214C52.4891 40.9713 52.5731 40.766 52.7411 40.598C52.9091 40.43 53.1144 40.346 53.3571 40.346C53.5904 40.346 53.7864 40.43 53.9451 40.598C54.1131 40.766 54.1971 40.9713 54.1971 41.214C54.1971 41.4567 54.1131 41.662 53.9451 41.83C53.7864 41.998 53.5904 42.082 53.3571 42.082ZM53.9731 43.328V51H52.6991V43.328H53.9731ZM57.4184 44.742C57.6704 44.3033 58.0437 43.9393 58.5384 43.65C59.0424 43.3513 59.6257 43.202 60.2884 43.202C60.9697 43.202 61.5857 43.3653 62.1364 43.692C62.6964 44.0187 63.1351 44.4807 63.4524 45.078C63.7697 45.666 63.9284 46.352 63.9284 47.136C63.9284 47.9107 63.7697 48.6013 63.4524 49.208C63.1351 49.8147 62.6964 50.286 62.1364 50.622C61.5857 50.958 60.9697 51.126 60.2884 51.126C59.6351 51.126 59.0564 50.9813 58.5524 50.692C58.0577 50.3933 57.6797 50.0247 57.4184 49.586V54.64H56.1444V43.328H57.4184V44.742ZM62.6264 47.136C62.6264 46.5573 62.5097 46.0533 62.2764 45.624C62.0431 45.1947 61.7257 44.868 61.3244 44.644C60.9324 44.42 60.4984 44.308 60.0224 44.308C59.5557 44.308 59.1217 44.4247 58.7204 44.658C58.3284 44.882 58.0111 45.2133 57.7684 45.652C57.5351 46.0813 57.4184 46.5807 57.4184 47.15C57.4184 47.7287 57.5351 48.2373 57.7684 48.676C58.0111 49.1053 58.3284 49.4367 58.7204 49.67C59.1217 49.894 59.5557 50.006 60.0224 50.006C60.4984 50.006 60.9324 49.894 61.3244 49.67C61.7257 49.4367 62.0431 49.1053 62.2764 48.676C62.5097 48.2373 62.6264 47.724 62.6264 47.136ZM67.1593 44.378V48.9C67.1593 49.2733 67.2387 49.5393 67.3973 49.698C67.556 49.8473 67.8313 49.922 68.2233 49.922H69.1613V51H68.0133C67.304 51 66.772 50.8367 66.4173 50.51C66.0627 50.1833 65.8853 49.6467 65.8853 48.9V44.378H64.8913V43.328H65.8853V41.396H67.1593V43.328H69.1613V44.378H67.1593ZM71.363 42.082C71.1203 42.082 70.915 41.998 70.747 41.83C70.579 41.662 70.495 41.4567 70.495 41.214C70.495 40.9713 70.579 40.766 70.747 40.598C70.915 40.43 71.1203 40.346 71.363 40.346C71.5963 40.346 71.7923 40.43 71.951 40.598C72.119 40.766 72.203 40.9713 72.203 41.214C72.203 41.4567 72.119 41.662 71.951 41.83C71.7923 41.998 71.5963 42.082 71.363 42.082ZM71.979 43.328V51H70.705V43.328H71.979ZM77.4963 51.126C76.7776 51.126 76.1243 50.9627 75.5363 50.636C74.9576 50.3093 74.5003 49.8473 74.1643 49.25C73.8376 48.6433 73.6743 47.9433 73.6743 47.15C73.6743 46.366 73.8423 45.6753 74.1783 45.078C74.5236 44.4713 74.9903 44.0093 75.5783 43.692C76.1663 43.3653 76.8243 43.202 77.5523 43.202C78.2803 43.202 78.9383 43.3653 79.5263 43.692C80.1143 44.0093 80.5763 44.4667 80.9123 45.064C81.2576 45.6613 81.4303 46.3567 81.4303 47.15C81.4303 47.9433 81.2529 48.6433 80.8983 49.25C80.5529 49.8473 80.0816 50.3093 79.4843 50.636C78.8869 50.9627 78.2243 51.126 77.4963 51.126ZM77.4963 50.006C77.9536 50.006 78.3829 49.8987 78.7843 49.684C79.1856 49.4693 79.5076 49.1473 79.7503 48.718C80.0023 48.2887 80.1283 47.766 80.1283 47.15C80.1283 46.534 80.0069 46.0113 79.7643 45.582C79.5216 45.1527 79.2043 44.8353 78.8123 44.63C78.4203 44.4153 77.9956 44.308 77.5383 44.308C77.0716 44.308 76.6423 44.4153 76.2503 44.63C75.8676 44.8353 75.5596 45.1527 75.3263 45.582C75.0929 46.0113 74.9763 46.534 74.9763 47.15C74.9763 47.7753 75.0883 48.3027 75.3123 48.732C75.5456 49.1613 75.8536 49.4833 76.2363 49.698C76.6189 49.9033 77.0389 50.006 77.4963 50.006ZM86.8433 43.188C87.7767 43.188 88.5327 43.4727 89.1113 44.042C89.69 44.602 89.9793 45.414 89.9793 46.478V51H88.7193V46.66C88.7193 45.8947 88.528 45.3113 88.1453 44.91C87.7627 44.4993 87.24 44.294 86.5773 44.294C85.9053 44.294 85.3687 44.504 84.9673 44.924C84.5753 45.344 84.3793 45.9553 84.3793 46.758V51H83.1053V43.328H84.3793V44.42C84.6313 44.028 84.972 43.7247 85.4013 43.51C85.84 43.2953 86.3207 43.188 86.8433 43.188ZM95.2468 42.04V40.878H97.8788V51H96.5908V42.04H95.2468Z" fill="#737272"/>
<path d="M385.999 22.4001C389.604 22.4044 393.06 23.839 395.61 26.3884C398.159 28.9379 399.594 32.3943 399.598 35.9998C399.598 38.6895 398.801 41.319 397.306 43.5554C395.812 45.7919 393.688 47.5349 391.203 48.5642C388.718 49.5935 385.983 49.8634 383.345 49.3386C380.707 48.8139 378.284 47.5187 376.382 45.6169C374.48 43.715 373.184 41.2912 372.66 38.6531C372.135 36.015 372.405 33.2806 373.434 30.7957C374.463 28.3106 376.206 26.1865 378.443 24.6921C380.679 23.1978 383.309 22.4001 385.999 22.4001ZM390.59 24.9138C388.398 24.0057 385.985 23.7683 383.658 24.2312C381.33 24.6942 379.191 25.8363 377.513 27.5144C375.835 29.1926 374.692 31.3312 374.229 33.6589C373.766 35.9867 374.003 38.3998 374.912 40.5925C375.82 42.7851 377.358 44.6588 379.332 45.9773C381.305 47.2959 383.625 47.9998 385.999 47.9998C389.18 47.9962 392.23 46.7308 394.48 44.4812C396.73 42.2316 397.995 39.1811 397.999 35.9998C397.999 33.6267 397.294 31.3069 395.976 29.3337C394.658 27.3604 392.783 25.8221 390.59 24.9138ZM391.332 35.2C391.544 35.2 391.747 35.2844 391.897 35.4343C392.047 35.5843 392.131 35.7877 392.131 35.9998C392.131 36.2119 392.047 36.4161 391.897 36.5662C391.747 36.7159 391.544 36.7996 391.332 36.7996H380.666C380.453 36.7996 380.249 36.7162 380.099 36.5662C379.949 36.4161 379.865 36.2119 379.865 35.9998C379.865 35.7878 379.949 35.5843 380.099 35.4343C380.249 35.2843 380.453 35.2 380.666 35.2H391.332Z" fill="#91908F"/>
<path d="M420.856 35.764C420.856 34.1493 421.127 32.8893 421.668 31.984C422.219 31.0693 423.161 30.612 424.496 30.612C425.831 30.612 426.769 31.0693 427.31 31.984C427.861 32.8893 428.136 34.1493 428.136 35.764C428.136 37.3973 427.861 38.676 427.31 39.6C426.769 40.5147 425.831 40.972 424.496 40.972C423.161 40.972 422.219 40.5147 421.668 39.6C421.127 38.676 420.856 37.3973 420.856 35.764ZM426.568 35.764C426.568 35.008 426.517 34.3687 426.414 33.846C426.321 33.3233 426.125 32.8987 425.826 32.572C425.527 32.236 425.084 32.068 424.496 32.068C423.908 32.068 423.465 32.236 423.166 32.572C422.867 32.8987 422.667 33.3233 422.564 33.846C422.471 34.3687 422.424 35.008 422.424 35.764C422.424 36.548 422.471 37.206 422.564 37.738C422.657 38.27 422.853 38.6993 423.152 39.026C423.46 39.3527 423.908 39.516 424.496 39.516C425.084 39.516 425.527 39.3527 425.826 39.026C426.134 38.6993 426.335 38.27 426.428 37.738C426.521 37.206 426.568 36.548 426.568 35.764Z" fill="#0A2333"/>
<path d="M461.998 22.4001C465.604 22.4044 469.06 23.839 471.61 26.3884C474.159 28.9379 475.594 32.3943 475.598 35.9998C475.598 38.6895 474.8 41.319 473.306 43.5554C471.811 45.7919 469.687 47.5349 467.202 48.5642C464.717 49.5935 461.983 49.8634 459.345 49.3386C456.707 48.8139 454.284 47.5187 452.382 45.6169C450.48 43.715 449.184 41.2912 448.659 38.6531C448.135 36.015 448.404 33.2806 449.434 30.7957C450.463 28.3106 452.206 26.1865 454.443 24.6921C456.679 23.1978 459.308 22.4001 461.998 22.4001ZM466.59 24.9138C464.397 24.0057 461.985 23.7683 459.657 24.2312C457.33 24.6942 455.191 25.8363 453.513 27.5144C451.835 29.1926 450.692 31.3312 450.229 33.6589C449.766 35.9867 450.003 38.3998 450.911 40.5925C451.82 42.7851 453.358 44.6588 455.331 45.9773C457.305 47.2959 459.625 47.9998 461.998 47.9998C465.18 47.9962 468.23 46.7308 470.48 44.4812C472.729 42.2316 473.995 39.1811 473.998 35.9998C473.998 33.6267 473.294 31.3069 471.976 29.3337C470.657 27.3604 468.783 25.8221 466.59 24.9138ZM461.998 29.8669C462.21 29.867 462.414 29.9513 462.564 30.1013C462.714 30.2513 462.798 30.4546 462.798 30.6667V35.2H467.331C467.543 35.2 467.747 35.2844 467.897 35.4343C468.047 35.5843 468.131 35.7877 468.131 35.9998C468.131 36.2119 468.047 36.4161 467.897 36.5662C467.747 36.7159 467.543 36.7996 467.331 36.7996H462.798V41.3337C462.798 41.5458 462.714 41.7492 462.564 41.8992C462.414 42.0491 462.21 42.1335 461.998 42.1335C461.786 42.1335 461.583 42.049 461.433 41.8992C461.283 41.7492 461.199 41.5458 461.198 41.3337V36.7996H456.665C456.453 36.7996 456.249 36.7162 456.099 36.5662C455.949 36.4161 455.864 36.2119 455.864 35.9998C455.865 35.7878 455.949 35.5843 456.099 35.4343C456.249 35.2843 456.453 35.2 456.665 35.2H461.198V30.6667C461.198 30.4546 461.283 30.2513 461.433 30.1013C461.583 29.9513 461.786 29.8669 461.998 29.8669Z" fill="#006B99"/>
</svg>
