<svg width="108" height="32" viewBox="0 0 108 32" fill="none" xmlns="http://www.w3.org/2000/svg">
<path fill-rule="evenodd" clip-rule="evenodd" d="M15.9982 2.40039C19.6037 2.40475 23.0601 3.83924 25.6096 6.38867C28.159 8.93814 29.5935 12.3945 29.5978 16C29.5978 18.6897 28.8001 21.3193 27.3058 23.5557C25.8115 25.7921 23.6872 27.5351 21.2023 28.5645C18.7174 29.5937 15.9829 29.8635 13.3449 29.3389C10.7068 28.8141 8.28299 27.5191 6.38104 25.6172C4.47907 23.7152 3.18411 21.2914 2.65936 18.6533C2.13465 16.0153 2.40352 13.2809 3.43279 10.7959C4.46213 8.31085 6.20608 6.18675 8.44256 4.69238C10.679 3.19817 13.3086 2.40039 15.9982 2.40039ZM20.59 4.91406C18.3973 4.00582 15.9842 3.76843 13.6564 4.23145C11.329 4.69447 9.19094 5.83673 7.51287 7.51465C5.83469 9.19283 4.69172 11.3315 4.22869 13.6592C3.76568 15.9869 4.00307 18.4001 4.91131 20.5928C5.81957 22.7853 7.35795 24.659 9.33123 25.9775C11.3046 27.2961 13.6249 28 15.9982 28C19.1795 27.9963 22.2292 26.7309 24.4787 24.4814C26.7283 22.2318 27.9937 19.1815 27.9972 16C27.9972 13.6268 27.2933 11.3072 25.9748 9.33398C24.6563 7.36067 22.7826 5.82231 20.59 4.91406ZM21.3312 15.2002C21.5433 15.2003 21.7467 15.2846 21.8967 15.4346C22.0466 15.5845 22.131 15.7879 22.131 16C22.131 16.2122 22.0467 16.4164 21.8967 16.5664C21.7467 16.7162 21.5432 16.7997 21.3312 16.7998H10.6642C10.4523 16.7997 10.2488 16.7162 10.0988 16.5664C9.94878 16.4164 9.86444 16.2122 9.86444 16C9.86451 15.7879 9.94885 15.5845 10.0988 15.4346C10.2488 15.2846 10.4522 15.2003 10.6642 15.2002H21.3312Z" fill="#91908F"/>
<path d="M50.8551 15.764C50.8551 14.1493 51.1258 12.8893 51.6671 11.984C52.2178 11.0693 53.1605 10.612 54.4951 10.612C55.8298 10.612 56.7678 11.0693 57.3091 11.984C57.8598 12.8893 58.1351 14.1493 58.1351 15.764C58.1351 17.3973 57.8598 18.676 57.3091 19.6C56.7678 20.5147 55.8298 20.972 54.4951 20.972C53.1605 20.972 52.2178 20.5147 51.6671 19.6C51.1258 18.676 50.8551 17.3973 50.8551 15.764ZM56.5671 15.764C56.5671 15.008 56.5158 14.3687 56.4131 13.846C56.3198 13.3233 56.1238 12.8987 55.8251 12.572C55.5265 12.236 55.0831 12.068 54.4951 12.068C53.9071 12.068 53.4638 12.236 53.1651 12.572C52.8665 12.8987 52.6658 13.3233 52.5631 13.846C52.4698 14.3687 52.4231 15.008 52.4231 15.764C52.4231 16.548 52.4698 17.206 52.5631 17.738C52.6565 18.27 52.8525 18.6993 53.1511 19.026C53.4591 19.3527 53.9071 19.516 54.4951 19.516C55.0831 19.516 55.5265 19.3527 55.8251 19.026C56.1331 18.6993 56.3338 18.27 56.4271 17.738C56.5205 17.206 56.5671 16.548 56.5671 15.764Z" fill="#0A2333"/>
<path fill-rule="evenodd" clip-rule="evenodd" d="M91.9977 2.40039C95.6032 2.40475 99.0596 3.83924 101.609 6.38867C104.158 8.93814 105.593 12.3945 105.597 16C105.597 18.6897 104.8 21.3193 103.305 23.5557C101.811 25.7921 99.6868 27.5351 97.2018 28.5645C94.7169 29.5937 91.9824 29.8635 89.3444 29.3389C86.7063 28.8141 84.2825 27.5191 82.3805 25.6172C80.4786 23.7152 79.1836 21.2914 78.6589 18.6533C78.1342 16.0153 78.403 13.2809 79.4323 10.7959C80.4616 8.31085 82.2056 6.18675 84.4421 4.69238C86.6785 3.19817 89.3081 2.40039 91.9977 2.40039ZM96.5895 4.91406C94.3968 4.00582 91.9837 3.76843 89.6559 4.23145C87.3285 4.69447 85.1905 5.83673 83.5124 7.51465C81.8342 9.19283 80.6912 11.3315 80.2282 13.6592C79.7652 15.9869 80.0026 18.4001 80.9108 20.5928C81.8191 22.7853 83.3575 24.659 85.3307 25.9775C87.3041 27.2961 89.6244 28 91.9977 28C95.179 27.9963 98.2287 26.7309 100.478 24.4814C102.728 22.2318 103.993 19.1815 103.997 16C103.997 13.6268 103.293 11.3072 101.974 9.33398C100.656 7.36067 98.7821 5.82231 96.5895 4.91406ZM91.9977 9.86719C92.2097 9.86731 92.4133 9.95165 92.5632 10.1016C92.713 10.2516 92.7975 10.4549 92.7975 10.667V15.2002H97.3307C97.5428 15.2003 97.7462 15.2846 97.8962 15.4346C98.0461 15.5845 98.1305 15.7879 98.1305 16C98.1305 16.2122 98.0462 16.4164 97.8962 16.5664C97.7462 16.7162 97.5427 16.7997 97.3307 16.7998H92.7975V21.334C92.7974 21.546 92.7131 21.7495 92.5632 21.8994C92.4133 22.0493 92.2097 22.1337 91.9977 22.1338C91.7856 22.1338 91.5814 22.0494 91.4313 21.8994C91.2814 21.7495 91.1971 21.546 91.197 21.334V16.7998H86.6638C86.4518 16.7997 86.2483 16.7162 86.0983 16.5664C85.9483 16.4164 85.8639 16.2122 85.8639 16C85.864 15.7879 85.9484 15.5845 86.0983 15.4346C86.2483 15.2846 86.4517 15.2003 86.6638 15.2002H91.197V10.667C91.197 10.4549 91.2815 10.2516 91.4313 10.1016C91.5814 9.95154 91.7856 9.86719 91.9977 9.86719Z" fill="#006B99"/>
</svg>
