<svg width="308" height="52" viewBox="0 0 308 52" fill="none" xmlns="http://www.w3.org/2000/svg">
<mask id="path-1-inside-1_2020_2283" fill="white">
<path d="M158 8C158 3.58172 161.582 0 166 0H300C304.418 0 308 3.58172 308 8V44C308 48.4183 304.418 52 300 52H166C161.582 52 158 48.4183 158 44V8Z"/>
</mask>
<path d="M158 8C158 3.58172 161.582 0 166 0H300C304.418 0 308 3.58172 308 8V44C308 48.4183 304.418 52 300 52H166C161.582 52 158 48.4183 158 44V8Z" fill="white"/>
<path d="M166 0V1H300V0V-1H166V0ZM308 8H307V44H308H309V8H308ZM300 52V51H166V52V53H300V52ZM158 44H159V8H158H157V44H158ZM166 52V51C162.134 51 159 47.866 159 44H158H157C157 48.9706 161.029 53 166 53V52ZM308 44H307C307 47.866 303.866 51 300 51V52V53C304.971 53 309 48.9706 309 44H308ZM300 0V1C303.866 1 307 4.13401 307 8H308H309C309 3.02944 304.971 -1 300 -1V0ZM166 0V-1C161.029 -1 157 3.02944 157 8H158H159C159 4.13401 162.134 1 166 1V0Z" fill="#CDCBCB" mask="url(#path-1-inside-1_2020_2283)"/>
<path d="M215.165 25.834C215.165 24.2287 215.426 22.978 215.949 22.082C216.472 21.1767 217.386 20.724 218.693 20.724C219.99 20.724 220.9 21.1767 221.423 22.082C221.946 22.978 222.207 24.2287 222.207 25.834C222.207 27.4673 221.946 28.7367 221.423 29.642C220.9 30.5473 219.99 31 218.693 31C217.386 31 216.472 30.5473 215.949 29.642C215.426 28.7367 215.165 27.4673 215.165 25.834ZM220.947 25.834C220.947 25.022 220.891 24.336 220.779 23.776C220.676 23.2067 220.457 22.7493 220.121 22.404C219.794 22.0587 219.318 21.886 218.693 21.886C218.058 21.886 217.573 22.0587 217.237 22.404C216.91 22.7493 216.691 23.2067 216.579 23.776C216.476 24.336 216.425 25.022 216.425 25.834C216.425 26.674 216.476 27.3787 216.579 27.948C216.691 28.5173 216.91 28.9747 217.237 29.32C217.573 29.6653 218.058 29.838 218.693 29.838C219.318 29.838 219.794 29.6653 220.121 29.32C220.457 28.9747 220.676 28.5173 220.779 27.948C220.891 27.3787 220.947 26.674 220.947 25.834ZM223.802 29.978C224.987 29.026 225.916 28.2467 226.588 27.64C227.26 27.024 227.825 26.3847 228.282 25.722C228.749 25.05 228.982 24.392 228.982 23.748C228.982 23.1413 228.833 22.6653 228.534 22.32C228.245 21.9653 227.773 21.788 227.12 21.788C226.485 21.788 225.991 21.9887 225.636 22.39C225.291 22.782 225.104 23.3093 225.076 23.972H223.844C223.881 22.9267 224.199 22.1193 224.796 21.55C225.393 20.9807 226.163 20.696 227.106 20.696C228.067 20.696 228.828 20.962 229.388 21.494C229.957 22.026 230.242 22.7587 230.242 23.692C230.242 24.4667 230.009 25.2227 229.542 25.96C229.085 26.688 228.562 27.332 227.974 27.892C227.386 28.4427 226.635 29.0867 225.72 29.824H230.536V30.888H223.802V29.978ZM232.625 31.084C232.382 31.084 232.177 31 232.009 30.832C231.841 30.664 231.757 30.4587 231.757 30.216C231.757 29.9733 231.841 29.768 232.009 29.6C232.177 29.432 232.382 29.348 232.625 29.348C232.858 29.348 233.054 29.432 233.213 29.6C233.381 29.768 233.465 29.9733 233.465 30.216C233.465 30.4587 233.381 30.664 233.213 30.832C233.054 31 232.858 31.084 232.625 31.084ZM232.625 25.092C232.382 25.092 232.177 25.008 232.009 24.84C231.841 24.672 231.757 24.4667 231.757 24.224C231.757 23.9813 231.841 23.776 232.009 23.608C232.177 23.44 232.382 23.356 232.625 23.356C232.858 23.356 233.054 23.44 233.213 23.608C233.381 23.776 233.465 23.9813 233.465 24.224C233.465 24.4667 233.381 24.672 233.213 24.84C233.054 25.008 232.858 25.092 232.625 25.092ZM234.989 25.834C234.989 24.2287 235.25 22.978 235.773 22.082C236.296 21.1767 237.21 20.724 238.517 20.724C239.814 20.724 240.724 21.1767 241.247 22.082C241.77 22.978 242.031 24.2287 242.031 25.834C242.031 27.4673 241.77 28.7367 241.247 29.642C240.724 30.5473 239.814 31 238.517 31C237.21 31 236.296 30.5473 235.773 29.642C235.25 28.7367 234.989 27.4673 234.989 25.834ZM240.771 25.834C240.771 25.022 240.715 24.336 240.603 23.776C240.5 23.2067 240.281 22.7493 239.945 22.404C239.618 22.0587 239.142 21.886 238.517 21.886C237.882 21.886 237.397 22.0587 237.061 22.404C236.734 22.7493 236.515 23.2067 236.403 23.776C236.3 24.336 236.249 25.022 236.249 25.834C236.249 26.674 236.3 27.3787 236.403 27.948C236.515 28.5173 236.734 28.9747 237.061 29.32C237.397 29.6653 237.882 29.838 238.517 29.838C239.142 29.838 239.618 29.6653 239.945 29.32C240.281 28.9747 240.5 28.5173 240.603 27.948C240.715 27.3787 240.771 26.674 240.771 25.834ZM243.78 25.834C243.78 24.2287 244.041 22.978 244.564 22.082C245.087 21.1767 246.001 20.724 247.308 20.724C248.605 20.724 249.515 21.1767 250.038 22.082C250.561 22.978 250.822 24.2287 250.822 25.834C250.822 27.4673 250.561 28.7367 250.038 29.642C249.515 30.5473 248.605 31 247.308 31C246.001 31 245.087 30.5473 244.564 29.642C244.041 28.7367 243.78 27.4673 243.78 25.834ZM249.562 25.834C249.562 25.022 249.506 24.336 249.394 23.776C249.291 23.2067 249.072 22.7493 248.736 22.404C248.409 22.0587 247.933 21.886 247.308 21.886C246.673 21.886 246.188 22.0587 245.852 22.404C245.525 22.7493 245.306 23.2067 245.194 23.776C245.091 24.336 245.04 25.022 245.04 25.834C245.04 26.674 245.091 27.3787 245.194 27.948C245.306 28.5173 245.525 28.9747 245.852 29.32C246.188 29.6653 246.673 29.838 247.308 29.838C247.933 29.838 248.409 29.6653 248.736 29.32C249.072 28.9747 249.291 28.5173 249.394 27.948C249.506 27.3787 249.562 26.674 249.562 25.834Z" fill="#4B4A4A"/>
<mask id="path-4-inside-2_2020_2283" fill="white">
<path d="M0 8C0 3.58172 3.58172 0 8 0H142C146.418 0 150 3.58172 150 8V44C150 48.4183 146.418 52 142 52H8C3.58172 52 0 48.4183 0 44V8Z"/>
</mask>
<path d="M0 8C0 3.58172 3.58172 0 8 0H142C146.418 0 150 3.58172 150 8V44C150 48.4183 146.418 52 142 52H8C3.58172 52 0 48.4183 0 44V8Z" fill="white"/>
<path d="M8 0V1H142V0V-1H8V0ZM150 8H149V44H150H151V8H150ZM142 52V51H8V52V53H142V52ZM0 44H1V8H0H-1V44H0ZM8 52V51C4.13401 51 1 47.866 1 44H0H-1C-1 48.9706 3.02944 53 8 53V52ZM150 44H149C149 47.866 145.866 51 142 51V52V53C146.971 53 151 48.9706 151 44H150ZM142 0V1C145.866 1 149 4.13401 149 8H150H151C151 3.02944 146.971 -1 142 -1V0ZM8 0V-1C3.02944 -1 -1 3.02944 -1 8H0H1C1 4.13401 4.13401 1 8 1V0Z" fill="#CDCBCB" mask="url(#path-4-inside-2_2020_2283)"/>
<path d="M57.1649 25.834C57.1649 24.2287 57.4262 22.978 57.9489 22.082C58.4715 21.1767 59.3862 20.724 60.6929 20.724C61.9902 20.724 62.9002 21.1767 63.4229 22.082C63.9455 22.978 64.2069 24.2287 64.2069 25.834C64.2069 27.4673 63.9455 28.7367 63.4229 29.642C62.9002 30.5473 61.9902 31 60.6929 31C59.3862 31 58.4715 30.5473 57.9489 29.642C57.4262 28.7367 57.1649 27.4673 57.1649 25.834ZM62.9469 25.834C62.9469 25.022 62.8909 24.336 62.7789 23.776C62.6762 23.2067 62.4569 22.7493 62.1209 22.404C61.7942 22.0587 61.3182 21.886 60.6929 21.886C60.0582 21.886 59.5729 22.0587 59.2369 22.404C58.9102 22.7493 58.6909 23.2067 58.5789 23.776C58.4762 24.336 58.4249 25.022 58.4249 25.834C58.4249 26.674 58.4762 27.3787 58.5789 27.948C58.6909 28.5173 58.9102 28.9747 59.2369 29.32C59.5729 29.6653 60.0582 29.838 60.6929 29.838C61.3182 29.838 61.7942 29.6653 62.1209 29.32C62.4569 28.9747 62.6762 28.5173 62.7789 27.948C62.8909 27.3787 62.9469 26.674 62.9469 25.834ZM65.8019 29.978C66.9872 29.026 67.9159 28.2467 68.5879 27.64C69.2599 27.024 69.8246 26.3847 70.2819 25.722C70.7486 25.05 70.9819 24.392 70.9819 23.748C70.9819 23.1413 70.8326 22.6653 70.5339 22.32C70.2446 21.9653 69.7732 21.788 69.1199 21.788C68.4852 21.788 67.9906 21.9887 67.6359 22.39C67.2906 22.782 67.1039 23.3093 67.0759 23.972H65.8439C65.8812 22.9267 66.1986 22.1193 66.7959 21.55C67.3932 20.9807 68.1632 20.696 69.1059 20.696C70.0672 20.696 70.8279 20.962 71.3879 21.494C71.9572 22.026 72.2419 22.7587 72.2419 23.692C72.2419 24.4667 72.0086 25.2227 71.5419 25.96C71.0846 26.688 70.5619 27.332 69.9739 27.892C69.3859 28.4427 68.6346 29.0867 67.7199 29.824H72.5359V30.888H65.8019V29.978ZM74.6246 31.084C74.382 31.084 74.1766 31 74.0086 30.832C73.8406 30.664 73.7566 30.4587 73.7566 30.216C73.7566 29.9733 73.8406 29.768 74.0086 29.6C74.1766 29.432 74.382 29.348 74.6246 29.348C74.858 29.348 75.054 29.432 75.2126 29.6C75.3806 29.768 75.4646 29.9733 75.4646 30.216C75.4646 30.4587 75.3806 30.664 75.2126 30.832C75.054 31 74.858 31.084 74.6246 31.084ZM74.6246 25.092C74.382 25.092 74.1766 25.008 74.0086 24.84C73.8406 24.672 73.7566 24.4667 73.7566 24.224C73.7566 23.9813 73.8406 23.776 74.0086 23.608C74.1766 23.44 74.382 23.356 74.6246 23.356C74.858 23.356 75.054 23.44 75.2126 23.608C75.3806 23.776 75.4646 23.9813 75.4646 24.224C75.4646 24.4667 75.3806 24.672 75.2126 24.84C75.054 25.008 74.858 25.092 74.6246 25.092ZM76.9891 25.834C76.9891 24.2287 77.2504 22.978 77.7731 22.082C78.2958 21.1767 79.2104 20.724 80.5171 20.724C81.8144 20.724 82.7244 21.1767 83.2471 22.082C83.7698 22.978 84.0311 24.2287 84.0311 25.834C84.0311 27.4673 83.7698 28.7367 83.2471 29.642C82.7244 30.5473 81.8144 31 80.5171 31C79.2104 31 78.2958 30.5473 77.7731 29.642C77.2504 28.7367 76.9891 27.4673 76.9891 25.834ZM82.7711 25.834C82.7711 25.022 82.7151 24.336 82.6031 23.776C82.5004 23.2067 82.2811 22.7493 81.9451 22.404C81.6184 22.0587 81.1424 21.886 80.5171 21.886C79.8824 21.886 79.3971 22.0587 79.0611 22.404C78.7344 22.7493 78.5151 23.2067 78.4031 23.776C78.3004 24.336 78.2491 25.022 78.2491 25.834C78.2491 26.674 78.3004 27.3787 78.4031 27.948C78.5151 28.5173 78.7344 28.9747 79.0611 29.32C79.3971 29.6653 79.8824 29.838 80.5171 29.838C81.1424 29.838 81.6184 29.6653 81.9451 29.32C82.2811 28.9747 82.5004 28.5173 82.6031 27.948C82.7151 27.3787 82.7711 26.674 82.7711 25.834ZM85.7801 25.834C85.7801 24.2287 86.0414 22.978 86.5641 22.082C87.0868 21.1767 88.0014 20.724 89.3081 20.724C90.6054 20.724 91.5154 21.1767 92.0381 22.082C92.5608 22.978 92.8221 24.2287 92.8221 25.834C92.8221 27.4673 92.5608 28.7367 92.0381 29.642C91.5154 30.5473 90.6054 31 89.3081 31C88.0014 31 87.0868 30.5473 86.5641 29.642C86.0414 28.7367 85.7801 27.4673 85.7801 25.834ZM91.5621 25.834C91.5621 25.022 91.5061 24.336 91.3941 23.776C91.2914 23.2067 91.0721 22.7493 90.7361 22.404C90.4094 22.0587 89.9334 21.886 89.3081 21.886C88.6734 21.886 88.1881 22.0587 87.8521 22.404C87.5254 22.7493 87.3061 23.2067 87.1941 23.776C87.0914 24.336 87.0401 25.022 87.0401 25.834C87.0401 26.674 87.0914 27.3787 87.1941 27.948C87.3061 28.5173 87.5254 28.9747 87.8521 29.32C88.1881 29.6653 88.6734 29.838 89.3081 29.838C89.9334 29.838 90.4094 29.6653 90.7361 29.32C91.0721 28.9747 91.2914 28.5173 91.3941 27.948C91.5061 27.3787 91.5621 26.674 91.5621 25.834Z" fill="#4B4A4A"/>
</svg>
