<svg width="308" height="472" viewBox="0 0 308 472" fill="none" xmlns="http://www.w3.org/2000/svg">
<mask id="path-1-inside-1_3268_8491" fill="white">
<path d="M0 8C0 3.58172 3.58172 0 8 0H142C146.418 0 150 3.58172 150 8V44C150 48.4183 146.418 52 142 52H8C3.58172 52 0 48.4183 0 44V8Z"/>
</mask>
<path d="M0 8C0 3.58172 3.58172 0 8 0H142C146.418 0 150 3.58172 150 8V44C150 48.4183 146.418 52 142 52H8C3.58172 52 0 48.4183 0 44V8Z" fill="#FAF8F7"/>
<path d="M8 0V1H142V0V-1H8V0ZM150 8H149V44H150H151V8H150ZM142 52V51H8V52V53H142V52ZM0 44H1V8H0H-1V44H0ZM8 52V51C4.13401 51 1 47.866 1 44H0H-1C-1 48.9706 3.02944 53 8 53V52ZM150 44H149C149 47.866 145.866 51 142 51V52V53C146.971 53 151 48.9706 151 44H150ZM142 0V1C145.866 1 149 4.13401 149 8H150H151C151 3.02944 146.971 -1 142 -1V0ZM8 0V-1C3.02944 -1 -1 3.02944 -1 8H0H1C1 4.13401 4.13401 1 8 1V0Z" fill="#CDCBCB" mask="url(#path-1-inside-1_3268_8491)"/>
<path d="M56.7957 25.834C56.7957 24.2287 57.0571 22.978 57.5797 22.082C58.1024 21.1767 59.0171 20.724 60.3237 20.724C61.6211 20.724 62.5311 21.1767 63.0537 22.082C63.5764 22.978 63.8377 24.2287 63.8377 25.834C63.8377 27.4673 63.5764 28.7367 63.0537 29.642C62.5311 30.5473 61.6211 31 60.3237 31C59.0171 31 58.1024 30.5473 57.5797 29.642C57.0571 28.7367 56.7957 27.4673 56.7957 25.834ZM62.5777 25.834C62.5777 25.022 62.5217 24.336 62.4097 23.776C62.3071 23.2067 62.0877 22.7493 61.7517 22.404C61.4251 22.0587 60.9491 21.886 60.3237 21.886C59.6891 21.886 59.2037 22.0587 58.8677 22.404C58.5411 22.7493 58.3217 23.2067 58.2097 23.776C58.1071 24.336 58.0557 25.022 58.0557 25.834C58.0557 26.674 58.1071 27.3787 58.2097 27.948C58.3217 28.5173 58.5411 28.9747 58.8677 29.32C59.2037 29.6653 59.6891 29.838 60.3237 29.838C60.9491 29.838 61.4251 29.6653 61.7517 29.32C62.0877 28.9747 62.3071 28.5173 62.4097 27.948C62.5217 27.3787 62.5777 26.674 62.5777 25.834ZM65.5868 25.834C65.5868 24.2287 65.8481 22.978 66.3708 22.082C66.8934 21.1767 67.8081 20.724 69.1148 20.724C70.4121 20.724 71.3221 21.1767 71.8448 22.082C72.3674 22.978 72.6287 24.2287 72.6287 25.834C72.6287 27.4673 72.3674 28.7367 71.8448 29.642C71.3221 30.5473 70.4121 31 69.1148 31C67.8081 31 66.8934 30.5473 66.3708 29.642C65.8481 28.7367 65.5868 27.4673 65.5868 25.834ZM71.3688 25.834C71.3688 25.022 71.3128 24.336 71.2008 23.776C71.0981 23.2067 70.8788 22.7493 70.5428 22.404C70.2161 22.0587 69.7401 21.886 69.1148 21.886C68.4801 21.886 67.9948 22.0587 67.6588 22.404C67.3321 22.7493 67.1128 23.2067 67.0008 23.776C66.8981 24.336 66.8468 25.022 66.8468 25.834C66.8468 26.674 66.8981 27.3787 67.0008 27.948C67.1128 28.5173 67.3321 28.9747 67.6588 29.32C67.9948 29.6653 68.4801 29.838 69.1148 29.838C69.7401 29.838 70.2161 29.6653 70.5428 29.32C70.8788 28.9747 71.0981 28.5173 71.2008 27.948C71.3128 27.3787 71.3688 26.674 71.3688 25.834ZM74.9938 31.084C74.7511 31.084 74.5458 31 74.3778 30.832C74.2098 30.664 74.1258 30.4587 74.1258 30.216C74.1258 29.9733 74.2098 29.768 74.3778 29.6C74.5458 29.432 74.7511 29.348 74.9938 29.348C75.2271 29.348 75.4231 29.432 75.5818 29.6C75.7498 29.768 75.8338 29.9733 75.8338 30.216C75.8338 30.4587 75.7498 30.664 75.5818 30.832C75.4231 31 75.2271 31.084 74.9938 31.084ZM74.9938 25.092C74.7511 25.092 74.5458 25.008 74.3778 24.84C74.2098 24.672 74.1258 24.4667 74.1258 24.224C74.1258 23.9813 74.2098 23.776 74.3778 23.608C74.5458 23.44 74.7511 23.356 74.9938 23.356C75.2271 23.356 75.4231 23.44 75.5818 23.608C75.7498 23.776 75.8338 23.9813 75.8338 24.224C75.8338 24.4667 75.7498 24.672 75.5818 24.84C75.4231 25.008 75.2271 25.092 74.9938 25.092ZM77.3582 25.834C77.3582 24.2287 77.6196 22.978 78.1422 22.082C78.6649 21.1767 79.5796 20.724 80.8862 20.724C82.1836 20.724 83.0936 21.1767 83.6162 22.082C84.1389 22.978 84.4002 24.2287 84.4002 25.834C84.4002 27.4673 84.1389 28.7367 83.6162 29.642C83.0936 30.5473 82.1836 31 80.8862 31C79.5796 31 78.6649 30.5473 78.1422 29.642C77.6196 28.7367 77.3582 27.4673 77.3582 25.834ZM83.1402 25.834C83.1402 25.022 83.0842 24.336 82.9722 23.776C82.8696 23.2067 82.6502 22.7493 82.3142 22.404C81.9876 22.0587 81.5116 21.886 80.8862 21.886C80.2516 21.886 79.7662 22.0587 79.4302 22.404C79.1036 22.7493 78.8842 23.2067 78.7722 23.776C78.6696 24.336 78.6182 25.022 78.6182 25.834C78.6182 26.674 78.6696 27.3787 78.7722 27.948C78.8842 28.5173 79.1036 28.9747 79.4302 29.32C79.7662 29.6653 80.2516 29.838 80.8862 29.838C81.5116 29.838 81.9876 29.6653 82.3142 29.32C82.6502 28.9747 82.8696 28.5173 82.9722 27.948C83.0842 27.3787 83.1402 26.674 83.1402 25.834ZM86.1493 25.834C86.1493 24.2287 86.4106 22.978 86.9333 22.082C87.4559 21.1767 88.3706 20.724 89.6773 20.724C90.9746 20.724 91.8846 21.1767 92.4073 22.082C92.9299 22.978 93.1912 24.2287 93.1912 25.834C93.1912 27.4673 92.9299 28.7367 92.4073 29.642C91.8846 30.5473 90.9746 31 89.6773 31C88.3706 31 87.4559 30.5473 86.9333 29.642C86.4106 28.7367 86.1493 27.4673 86.1493 25.834ZM91.9313 25.834C91.9313 25.022 91.8753 24.336 91.7633 23.776C91.6606 23.2067 91.4413 22.7493 91.1053 22.404C90.7786 22.0587 90.3026 21.886 89.6773 21.886C89.0426 21.886 88.5573 22.0587 88.2213 22.404C87.8946 22.7493 87.6753 23.2067 87.5633 23.776C87.4606 24.336 87.4093 25.022 87.4093 25.834C87.4093 26.674 87.4606 27.3787 87.5633 27.948C87.6753 28.5173 87.8946 28.9747 88.2213 29.32C88.5573 29.6653 89.0426 29.838 89.6773 29.838C90.3026 29.838 90.7786 29.6653 91.1053 29.32C91.4413 28.9747 91.6606 28.5173 91.7633 27.948C91.8753 27.3787 91.9313 26.674 91.9313 25.834Z" fill="#91908F"/>
<path d="M55.9277 26.408H94.0732V27.108H55.9277V26.408Z" fill="#91908F"/>
<mask id="path-4-inside-2_3268_8491" fill="white">
<path d="M158 8C158 3.58172 161.582 0 166 0H300C304.418 0 308 3.58172 308 8V44C308 48.4183 304.418 52 300 52H166C161.582 52 158 48.4183 158 44V8Z"/>
</mask>
<path d="M158 8C158 3.58172 161.582 0 166 0H300C304.418 0 308 3.58172 308 8V44C308 48.4183 304.418 52 300 52H166C161.582 52 158 48.4183 158 44V8Z" fill="#FAF8F7"/>
<path d="M166 0V1H300V0V-1H166V0ZM308 8H307V44H308H309V8H308ZM300 52V51H166V52V53H300V52ZM158 44H159V8H158H157V44H158ZM166 52V51C162.134 51 159 47.866 159 44H158H157C157 48.9706 161.029 53 166 53V52ZM308 44H307C307 47.866 303.866 51 300 51V52V53C304.971 53 309 48.9706 309 44H308ZM300 0V1C303.866 1 307 4.13401 307 8H308H309C309 3.02944 304.971 -1 300 -1V0ZM166 0V-1C161.029 -1 157 3.02944 157 8H158H159C159 4.13401 162.134 1 166 1V0Z" fill="#CDCBCB" mask="url(#path-4-inside-2_3268_8491)"/>
<path d="M214.796 25.834C214.796 24.2287 215.057 22.978 215.58 22.082C216.102 21.1767 217.017 20.724 218.324 20.724C219.621 20.724 220.531 21.1767 221.054 22.082C221.576 22.978 221.838 24.2287 221.838 25.834C221.838 27.4673 221.576 28.7367 221.054 29.642C220.531 30.5473 219.621 31 218.324 31C217.017 31 216.102 30.5473 215.58 29.642C215.057 28.7367 214.796 27.4673 214.796 25.834ZM220.578 25.834C220.578 25.022 220.522 24.336 220.41 23.776C220.307 23.2067 220.088 22.7493 219.752 22.404C219.425 22.0587 218.949 21.886 218.324 21.886C217.689 21.886 217.204 22.0587 216.868 22.404C216.541 22.7493 216.322 23.2067 216.21 23.776C216.107 24.336 216.056 25.022 216.056 25.834C216.056 26.674 216.107 27.3787 216.21 27.948C216.322 28.5173 216.541 28.9747 216.868 29.32C217.204 29.6653 217.689 29.838 218.324 29.838C218.949 29.838 219.425 29.6653 219.752 29.32C220.088 28.9747 220.307 28.5173 220.41 27.948C220.522 27.3787 220.578 26.674 220.578 25.834ZM223.587 25.834C223.587 24.2287 223.848 22.978 224.371 22.082C224.893 21.1767 225.808 20.724 227.115 20.724C228.412 20.724 229.322 21.1767 229.845 22.082C230.367 22.978 230.629 24.2287 230.629 25.834C230.629 27.4673 230.367 28.7367 229.845 29.642C229.322 30.5473 228.412 31 227.115 31C225.808 31 224.893 30.5473 224.371 29.642C223.848 28.7367 223.587 27.4673 223.587 25.834ZM229.369 25.834C229.369 25.022 229.313 24.336 229.201 23.776C229.098 23.2067 228.879 22.7493 228.543 22.404C228.216 22.0587 227.74 21.886 227.115 21.886C226.48 21.886 225.995 22.0587 225.659 22.404C225.332 22.7493 225.113 23.2067 225.001 23.776C224.898 24.336 224.847 25.022 224.847 25.834C224.847 26.674 224.898 27.3787 225.001 27.948C225.113 28.5173 225.332 28.9747 225.659 29.32C225.995 29.6653 226.48 29.838 227.115 29.838C227.74 29.838 228.216 29.6653 228.543 29.32C228.879 28.9747 229.098 28.5173 229.201 27.948C229.313 27.3787 229.369 26.674 229.369 25.834ZM232.994 31.084C232.751 31.084 232.546 31 232.378 30.832C232.21 30.664 232.126 30.4587 232.126 30.216C232.126 29.9733 232.21 29.768 232.378 29.6C232.546 29.432 232.751 29.348 232.994 29.348C233.227 29.348 233.423 29.432 233.582 29.6C233.75 29.768 233.834 29.9733 233.834 30.216C233.834 30.4587 233.75 30.664 233.582 30.832C233.423 31 233.227 31.084 232.994 31.084ZM232.994 25.092C232.751 25.092 232.546 25.008 232.378 24.84C232.21 24.672 232.126 24.4667 232.126 24.224C232.126 23.9813 232.21 23.776 232.378 23.608C232.546 23.44 232.751 23.356 232.994 23.356C233.227 23.356 233.423 23.44 233.582 23.608C233.75 23.776 233.834 23.9813 233.834 24.224C233.834 24.4667 233.75 24.672 233.582 24.84C233.423 25.008 233.227 25.092 232.994 25.092ZM235.358 25.834C235.358 24.2287 235.62 22.978 236.142 22.082C236.665 21.1767 237.58 20.724 238.886 20.724C240.184 20.724 241.094 21.1767 241.616 22.082C242.139 22.978 242.4 24.2287 242.4 25.834C242.4 27.4673 242.139 28.7367 241.616 29.642C241.094 30.5473 240.184 31 238.886 31C237.58 31 236.665 30.5473 236.142 29.642C235.62 28.7367 235.358 27.4673 235.358 25.834ZM241.14 25.834C241.14 25.022 241.084 24.336 240.972 23.776C240.87 23.2067 240.65 22.7493 240.314 22.404C239.988 22.0587 239.512 21.886 238.886 21.886C238.252 21.886 237.766 22.0587 237.43 22.404C237.104 22.7493 236.884 23.2067 236.772 23.776C236.67 24.336 236.618 25.022 236.618 25.834C236.618 26.674 236.67 27.3787 236.772 27.948C236.884 28.5173 237.104 28.9747 237.43 29.32C237.766 29.6653 238.252 29.838 238.886 29.838C239.512 29.838 239.988 29.6653 240.314 29.32C240.65 28.9747 240.87 28.5173 240.972 27.948C241.084 27.3787 241.14 26.674 241.14 25.834ZM244.149 25.834C244.149 24.2287 244.411 22.978 244.933 22.082C245.456 21.1767 246.371 20.724 247.677 20.724C248.975 20.724 249.885 21.1767 250.407 22.082C250.93 22.978 251.191 24.2287 251.191 25.834C251.191 27.4673 250.93 28.7367 250.407 29.642C249.885 30.5473 248.975 31 247.677 31C246.371 31 245.456 30.5473 244.933 29.642C244.411 28.7367 244.149 27.4673 244.149 25.834ZM249.931 25.834C249.931 25.022 249.875 24.336 249.763 23.776C249.661 23.2067 249.441 22.7493 249.105 22.404C248.779 22.0587 248.303 21.886 247.677 21.886C247.043 21.886 246.557 22.0587 246.221 22.404C245.895 22.7493 245.675 23.2067 245.563 23.776C245.461 24.336 245.409 25.022 245.409 25.834C245.409 26.674 245.461 27.3787 245.563 27.948C245.675 28.5173 245.895 28.9747 246.221 29.32C246.557 29.6653 247.043 29.838 247.677 29.838C248.303 29.838 248.779 29.6653 249.105 29.32C249.441 28.9747 249.661 28.5173 249.763 27.948C249.875 27.3787 249.931 26.674 249.931 25.834Z" fill="#91908F"/>
<path d="M213.928 26.408H252.073V27.108H213.928V26.408Z" fill="#91908F"/>
<mask id="path-7-inside-3_3268_8491" fill="white">
<path d="M0 68C0 63.5817 3.58172 60 8 60H142C146.418 60 150 63.5817 150 68V104C150 108.418 146.418 112 142 112H8C3.58172 112 0 108.418 0 104V68Z"/>
</mask>
<path d="M0 68C0 63.5817 3.58172 60 8 60H142C146.418 60 150 63.5817 150 68V104C150 108.418 146.418 112 142 112H8C3.58172 112 0 108.418 0 104V68Z" fill="#FAF8F7"/>
<path d="M8 60V61H142V60V59H8V60ZM150 68H149V104H150H151V68H150ZM142 112V111H8V112V113H142V112ZM0 104H1V68H0H-1V104H0ZM8 112V111C4.13401 111 1 107.866 1 104H0H-1C-1 108.971 3.02944 113 8 113V112ZM150 104H149C149 107.866 145.866 111 142 111V112V113C146.971 113 151 108.971 151 104H150ZM142 60V61C145.866 61 149 64.134 149 68H150H151C151 63.0294 146.971 59 142 59V60ZM8 60V59C3.02944 59 -1 63.0294 -1 68H0H1C1 64.134 4.13401 61 8 61V60Z" fill="#CDCBCB" mask="url(#path-7-inside-3_3268_8491)"/>
<path d="M56.7957 85.834C56.7957 84.2287 57.0571 82.978 57.5797 82.082C58.1024 81.1767 59.0171 80.724 60.3237 80.724C61.6211 80.724 62.5311 81.1767 63.0537 82.082C63.5764 82.978 63.8377 84.2287 63.8377 85.834C63.8377 87.4673 63.5764 88.7367 63.0537 89.642C62.5311 90.5473 61.6211 91 60.3237 91C59.0171 91 58.1024 90.5473 57.5797 89.642C57.0571 88.7367 56.7957 87.4673 56.7957 85.834ZM62.5777 85.834C62.5777 85.022 62.5217 84.336 62.4097 83.776C62.3071 83.2067 62.0877 82.7493 61.7517 82.404C61.4251 82.0587 60.9491 81.886 60.3237 81.886C59.6891 81.886 59.2037 82.0587 58.8677 82.404C58.5411 82.7493 58.3217 83.2067 58.2097 83.776C58.1071 84.336 58.0557 85.022 58.0557 85.834C58.0557 86.674 58.1071 87.3787 58.2097 87.948C58.3217 88.5173 58.5411 88.9747 58.8677 89.32C59.2037 89.6653 59.6891 89.838 60.3237 89.838C60.9491 89.838 61.4251 89.6653 61.7517 89.32C62.0877 88.9747 62.3071 88.5173 62.4097 87.948C62.5217 87.3787 62.5777 86.674 62.5777 85.834ZM65.5868 85.834C65.5868 84.2287 65.8481 82.978 66.3708 82.082C66.8934 81.1767 67.8081 80.724 69.1148 80.724C70.4121 80.724 71.3221 81.1767 71.8448 82.082C72.3674 82.978 72.6287 84.2287 72.6287 85.834C72.6287 87.4673 72.3674 88.7367 71.8448 89.642C71.3221 90.5473 70.4121 91 69.1148 91C67.8081 91 66.8934 90.5473 66.3708 89.642C65.8481 88.7367 65.5868 87.4673 65.5868 85.834ZM71.3688 85.834C71.3688 85.022 71.3128 84.336 71.2008 83.776C71.0981 83.2067 70.8788 82.7493 70.5428 82.404C70.2161 82.0587 69.7401 81.886 69.1148 81.886C68.4801 81.886 67.9948 82.0587 67.6588 82.404C67.3321 82.7493 67.1128 83.2067 67.0008 83.776C66.8981 84.336 66.8468 85.022 66.8468 85.834C66.8468 86.674 66.8981 87.3787 67.0008 87.948C67.1128 88.5173 67.3321 88.9747 67.6588 89.32C67.9948 89.6653 68.4801 89.838 69.1148 89.838C69.7401 89.838 70.2161 89.6653 70.5428 89.32C70.8788 88.9747 71.0981 88.5173 71.2008 87.948C71.3128 87.3787 71.3688 86.674 71.3688 85.834ZM74.9938 91.084C74.7511 91.084 74.5458 91 74.3778 90.832C74.2098 90.664 74.1258 90.4587 74.1258 90.216C74.1258 89.9733 74.2098 89.768 74.3778 89.6C74.5458 89.432 74.7511 89.348 74.9938 89.348C75.2271 89.348 75.4231 89.432 75.5818 89.6C75.7498 89.768 75.8338 89.9733 75.8338 90.216C75.8338 90.4587 75.7498 90.664 75.5818 90.832C75.4231 91 75.2271 91.084 74.9938 91.084ZM74.9938 85.092C74.7511 85.092 74.5458 85.008 74.3778 84.84C74.2098 84.672 74.1258 84.4667 74.1258 84.224C74.1258 83.9813 74.2098 83.776 74.3778 83.608C74.5458 83.44 74.7511 83.356 74.9938 83.356C75.2271 83.356 75.4231 83.44 75.5818 83.608C75.7498 83.776 75.8338 83.9813 75.8338 84.224C75.8338 84.4667 75.7498 84.672 75.5818 84.84C75.4231 85.008 75.2271 85.092 74.9938 85.092ZM77.3582 85.834C77.3582 84.2287 77.6196 82.978 78.1422 82.082C78.6649 81.1767 79.5796 80.724 80.8862 80.724C82.1836 80.724 83.0936 81.1767 83.6162 82.082C84.1389 82.978 84.4002 84.2287 84.4002 85.834C84.4002 87.4673 84.1389 88.7367 83.6162 89.642C83.0936 90.5473 82.1836 91 80.8862 91C79.5796 91 78.6649 90.5473 78.1422 89.642C77.6196 88.7367 77.3582 87.4673 77.3582 85.834ZM83.1402 85.834C83.1402 85.022 83.0842 84.336 82.9722 83.776C82.8696 83.2067 82.6502 82.7493 82.3142 82.404C81.9876 82.0587 81.5116 81.886 80.8862 81.886C80.2516 81.886 79.7662 82.0587 79.4302 82.404C79.1036 82.7493 78.8842 83.2067 78.7722 83.776C78.6696 84.336 78.6182 85.022 78.6182 85.834C78.6182 86.674 78.6696 87.3787 78.7722 87.948C78.8842 88.5173 79.1036 88.9747 79.4302 89.32C79.7662 89.6653 80.2516 89.838 80.8862 89.838C81.5116 89.838 81.9876 89.6653 82.3142 89.32C82.6502 88.9747 82.8696 88.5173 82.9722 87.948C83.0842 87.3787 83.1402 86.674 83.1402 85.834ZM86.1493 85.834C86.1493 84.2287 86.4106 82.978 86.9333 82.082C87.4559 81.1767 88.3706 80.724 89.6773 80.724C90.9746 80.724 91.8846 81.1767 92.4073 82.082C92.9299 82.978 93.1912 84.2287 93.1912 85.834C93.1912 87.4673 92.9299 88.7367 92.4073 89.642C91.8846 90.5473 90.9746 91 89.6773 91C88.3706 91 87.4559 90.5473 86.9333 89.642C86.4106 88.7367 86.1493 87.4673 86.1493 85.834ZM91.9313 85.834C91.9313 85.022 91.8753 84.336 91.7633 83.776C91.6606 83.2067 91.4413 82.7493 91.1053 82.404C90.7786 82.0587 90.3026 81.886 89.6773 81.886C89.0426 81.886 88.5573 82.0587 88.2213 82.404C87.8946 82.7493 87.6753 83.2067 87.5633 83.776C87.4606 84.336 87.4093 85.022 87.4093 85.834C87.4093 86.674 87.4606 87.3787 87.5633 87.948C87.6753 88.5173 87.8946 88.9747 88.2213 89.32C88.5573 89.6653 89.0426 89.838 89.6773 89.838C90.3026 89.838 90.7786 89.6653 91.1053 89.32C91.4413 88.9747 91.6606 88.5173 91.7633 87.948C91.8753 87.3787 91.9313 86.674 91.9313 85.834Z" fill="#91908F"/>
<path d="M55.9277 86.408H94.0732V87.108H55.9277V86.408Z" fill="#91908F"/>
<mask id="path-10-inside-4_3268_8491" fill="white">
<path d="M158 68C158 63.5817 161.582 60 166 60H300C304.418 60 308 63.5817 308 68V104C308 108.418 304.418 112 300 112H166C161.582 112 158 108.418 158 104V68Z"/>
</mask>
<path d="M158 68C158 63.5817 161.582 60 166 60H300C304.418 60 308 63.5817 308 68V104C308 108.418 304.418 112 300 112H166C161.582 112 158 108.418 158 104V68Z" fill="#FAF8F7"/>
<path d="M166 60V61H300V60V59H166V60ZM308 68H307V104H308H309V68H308ZM300 112V111H166V112V113H300V112ZM158 104H159V68H158H157V104H158ZM166 112V111C162.134 111 159 107.866 159 104H158H157C157 108.971 161.029 113 166 113V112ZM308 104H307C307 107.866 303.866 111 300 111V112V113C304.971 113 309 108.971 309 104H308ZM300 60V61C303.866 61 307 64.134 307 68H308H309C309 63.0294 304.971 59 300 59V60ZM166 60V59C161.029 59 157 63.0294 157 68H158H159C159 64.134 162.134 61 166 61V60Z" fill="#CDCBCB" mask="url(#path-10-inside-4_3268_8491)"/>
<path d="M214.796 85.834C214.796 84.2287 215.057 82.978 215.58 82.082C216.102 81.1767 217.017 80.724 218.324 80.724C219.621 80.724 220.531 81.1767 221.054 82.082C221.576 82.978 221.838 84.2287 221.838 85.834C221.838 87.4673 221.576 88.7367 221.054 89.642C220.531 90.5473 219.621 91 218.324 91C217.017 91 216.102 90.5473 215.58 89.642C215.057 88.7367 214.796 87.4673 214.796 85.834ZM220.578 85.834C220.578 85.022 220.522 84.336 220.41 83.776C220.307 83.2067 220.088 82.7493 219.752 82.404C219.425 82.0587 218.949 81.886 218.324 81.886C217.689 81.886 217.204 82.0587 216.868 82.404C216.541 82.7493 216.322 83.2067 216.21 83.776C216.107 84.336 216.056 85.022 216.056 85.834C216.056 86.674 216.107 87.3787 216.21 87.948C216.322 88.5173 216.541 88.9747 216.868 89.32C217.204 89.6653 217.689 89.838 218.324 89.838C218.949 89.838 219.425 89.6653 219.752 89.32C220.088 88.9747 220.307 88.5173 220.41 87.948C220.522 87.3787 220.578 86.674 220.578 85.834ZM223.587 85.834C223.587 84.2287 223.848 82.978 224.371 82.082C224.893 81.1767 225.808 80.724 227.115 80.724C228.412 80.724 229.322 81.1767 229.845 82.082C230.367 82.978 230.629 84.2287 230.629 85.834C230.629 87.4673 230.367 88.7367 229.845 89.642C229.322 90.5473 228.412 91 227.115 91C225.808 91 224.893 90.5473 224.371 89.642C223.848 88.7367 223.587 87.4673 223.587 85.834ZM229.369 85.834C229.369 85.022 229.313 84.336 229.201 83.776C229.098 83.2067 228.879 82.7493 228.543 82.404C228.216 82.0587 227.74 81.886 227.115 81.886C226.48 81.886 225.995 82.0587 225.659 82.404C225.332 82.7493 225.113 83.2067 225.001 83.776C224.898 84.336 224.847 85.022 224.847 85.834C224.847 86.674 224.898 87.3787 225.001 87.948C225.113 88.5173 225.332 88.9747 225.659 89.32C225.995 89.6653 226.48 89.838 227.115 89.838C227.74 89.838 228.216 89.6653 228.543 89.32C228.879 88.9747 229.098 88.5173 229.201 87.948C229.313 87.3787 229.369 86.674 229.369 85.834ZM232.994 91.084C232.751 91.084 232.546 91 232.378 90.832C232.21 90.664 232.126 90.4587 232.126 90.216C232.126 89.9733 232.21 89.768 232.378 89.6C232.546 89.432 232.751 89.348 232.994 89.348C233.227 89.348 233.423 89.432 233.582 89.6C233.75 89.768 233.834 89.9733 233.834 90.216C233.834 90.4587 233.75 90.664 233.582 90.832C233.423 91 233.227 91.084 232.994 91.084ZM232.994 85.092C232.751 85.092 232.546 85.008 232.378 84.84C232.21 84.672 232.126 84.4667 232.126 84.224C232.126 83.9813 232.21 83.776 232.378 83.608C232.546 83.44 232.751 83.356 232.994 83.356C233.227 83.356 233.423 83.44 233.582 83.608C233.75 83.776 233.834 83.9813 233.834 84.224C233.834 84.4667 233.75 84.672 233.582 84.84C233.423 85.008 233.227 85.092 232.994 85.092ZM235.358 85.834C235.358 84.2287 235.62 82.978 236.142 82.082C236.665 81.1767 237.58 80.724 238.886 80.724C240.184 80.724 241.094 81.1767 241.616 82.082C242.139 82.978 242.4 84.2287 242.4 85.834C242.4 87.4673 242.139 88.7367 241.616 89.642C241.094 90.5473 240.184 91 238.886 91C237.58 91 236.665 90.5473 236.142 89.642C235.62 88.7367 235.358 87.4673 235.358 85.834ZM241.14 85.834C241.14 85.022 241.084 84.336 240.972 83.776C240.87 83.2067 240.65 82.7493 240.314 82.404C239.988 82.0587 239.512 81.886 238.886 81.886C238.252 81.886 237.766 82.0587 237.43 82.404C237.104 82.7493 236.884 83.2067 236.772 83.776C236.67 84.336 236.618 85.022 236.618 85.834C236.618 86.674 236.67 87.3787 236.772 87.948C236.884 88.5173 237.104 88.9747 237.43 89.32C237.766 89.6653 238.252 89.838 238.886 89.838C239.512 89.838 239.988 89.6653 240.314 89.32C240.65 88.9747 240.87 88.5173 240.972 87.948C241.084 87.3787 241.14 86.674 241.14 85.834ZM244.149 85.834C244.149 84.2287 244.411 82.978 244.933 82.082C245.456 81.1767 246.371 80.724 247.677 80.724C248.975 80.724 249.885 81.1767 250.407 82.082C250.93 82.978 251.191 84.2287 251.191 85.834C251.191 87.4673 250.93 88.7367 250.407 89.642C249.885 90.5473 248.975 91 247.677 91C246.371 91 245.456 90.5473 244.933 89.642C244.411 88.7367 244.149 87.4673 244.149 85.834ZM249.931 85.834C249.931 85.022 249.875 84.336 249.763 83.776C249.661 83.2067 249.441 82.7493 249.105 82.404C248.779 82.0587 248.303 81.886 247.677 81.886C247.043 81.886 246.557 82.0587 246.221 82.404C245.895 82.7493 245.675 83.2067 245.563 83.776C245.461 84.336 245.409 85.022 245.409 85.834C245.409 86.674 245.461 87.3787 245.563 87.948C245.675 88.5173 245.895 88.9747 246.221 89.32C246.557 89.6653 247.043 89.838 247.677 89.838C248.303 89.838 248.779 89.6653 249.105 89.32C249.441 88.9747 249.661 88.5173 249.763 87.948C249.875 87.3787 249.931 86.674 249.931 85.834Z" fill="#91908F"/>
<path d="M213.928 86.408H252.073V87.108H213.928V86.408Z" fill="#91908F"/>
<mask id="path-13-inside-5_3268_8491" fill="white">
<path d="M0 128C0 123.582 3.58172 120 8 120H142C146.418 120 150 123.582 150 128V164C150 168.418 146.418 172 142 172H8C3.58172 172 0 168.418 0 164V128Z"/>
</mask>
<path d="M0 128C0 123.582 3.58172 120 8 120H142C146.418 120 150 123.582 150 128V164C150 168.418 146.418 172 142 172H8C3.58172 172 0 168.418 0 164V128Z" fill="white"/>
<path d="M8 120V121H142V120V119H8V120ZM150 128H149V164H150H151V128H150ZM142 172V171H8V172V173H142V172ZM0 164H1V128H0H-1V164H0ZM8 172V171C4.13401 171 1 167.866 1 164H0H-1C-1 168.971 3.02944 173 8 173V172ZM150 164H149C149 167.866 145.866 171 142 171V172V173C146.971 173 151 168.971 151 164H150ZM142 120V121C145.866 121 149 124.134 149 128H150H151C151 123.029 146.971 119 142 119V120ZM8 120V119C3.02944 119 -1 123.029 -1 128H0H1C1 124.134 4.13401 121 8 121V120Z" fill="#CDCBCB" mask="url(#path-13-inside-5_3268_8491)"/>
<path d="M57.1649 145.834C57.1649 144.229 57.4262 142.978 57.9489 142.082C58.4715 141.177 59.3862 140.724 60.6929 140.724C61.9902 140.724 62.9002 141.177 63.4229 142.082C63.9455 142.978 64.2069 144.229 64.2069 145.834C64.2069 147.467 63.9455 148.737 63.4229 149.642C62.9002 150.547 61.9902 151 60.6929 151C59.3862 151 58.4715 150.547 57.9489 149.642C57.4262 148.737 57.1649 147.467 57.1649 145.834ZM62.9469 145.834C62.9469 145.022 62.8909 144.336 62.7789 143.776C62.6762 143.207 62.4569 142.749 62.1209 142.404C61.7942 142.059 61.3182 141.886 60.6929 141.886C60.0582 141.886 59.5729 142.059 59.2369 142.404C58.9102 142.749 58.6909 143.207 58.5789 143.776C58.4762 144.336 58.4249 145.022 58.4249 145.834C58.4249 146.674 58.4762 147.379 58.5789 147.948C58.6909 148.517 58.9102 148.975 59.2369 149.32C59.5729 149.665 60.0582 149.838 60.6929 149.838C61.3182 149.838 61.7942 149.665 62.1209 149.32C62.4569 148.975 62.6762 148.517 62.7789 147.948C62.8909 147.379 62.9469 146.674 62.9469 145.834ZM65.8019 149.978C66.9872 149.026 67.9159 148.247 68.5879 147.64C69.2599 147.024 69.8246 146.385 70.2819 145.722C70.7486 145.05 70.9819 144.392 70.9819 143.748C70.9819 143.141 70.8326 142.665 70.5339 142.32C70.2446 141.965 69.7732 141.788 69.1199 141.788C68.4852 141.788 67.9906 141.989 67.6359 142.39C67.2906 142.782 67.1039 143.309 67.0759 143.972H65.8439C65.8812 142.927 66.1986 142.119 66.7959 141.55C67.3932 140.981 68.1632 140.696 69.1059 140.696C70.0672 140.696 70.8279 140.962 71.3879 141.494C71.9572 142.026 72.2419 142.759 72.2419 143.692C72.2419 144.467 72.0086 145.223 71.5419 145.96C71.0846 146.688 70.5619 147.332 69.9739 147.892C69.3859 148.443 68.6346 149.087 67.7199 149.824H72.5359V150.888H65.8019V149.978ZM74.6246 151.084C74.382 151.084 74.1766 151 74.0086 150.832C73.8406 150.664 73.7566 150.459 73.7566 150.216C73.7566 149.973 73.8406 149.768 74.0086 149.6C74.1766 149.432 74.382 149.348 74.6246 149.348C74.858 149.348 75.054 149.432 75.2126 149.6C75.3806 149.768 75.4646 149.973 75.4646 150.216C75.4646 150.459 75.3806 150.664 75.2126 150.832C75.054 151 74.858 151.084 74.6246 151.084ZM74.6246 145.092C74.382 145.092 74.1766 145.008 74.0086 144.84C73.8406 144.672 73.7566 144.467 73.7566 144.224C73.7566 143.981 73.8406 143.776 74.0086 143.608C74.1766 143.44 74.382 143.356 74.6246 143.356C74.858 143.356 75.054 143.44 75.2126 143.608C75.3806 143.776 75.4646 143.981 75.4646 144.224C75.4646 144.467 75.3806 144.672 75.2126 144.84C75.054 145.008 74.858 145.092 74.6246 145.092ZM76.9891 145.834C76.9891 144.229 77.2504 142.978 77.7731 142.082C78.2958 141.177 79.2104 140.724 80.5171 140.724C81.8144 140.724 82.7244 141.177 83.2471 142.082C83.7698 142.978 84.0311 144.229 84.0311 145.834C84.0311 147.467 83.7698 148.737 83.2471 149.642C82.7244 150.547 81.8144 151 80.5171 151C79.2104 151 78.2958 150.547 77.7731 149.642C77.2504 148.737 76.9891 147.467 76.9891 145.834ZM82.7711 145.834C82.7711 145.022 82.7151 144.336 82.6031 143.776C82.5004 143.207 82.2811 142.749 81.9451 142.404C81.6184 142.059 81.1424 141.886 80.5171 141.886C79.8824 141.886 79.3971 142.059 79.0611 142.404C78.7344 142.749 78.5151 143.207 78.4031 143.776C78.3004 144.336 78.2491 145.022 78.2491 145.834C78.2491 146.674 78.3004 147.379 78.4031 147.948C78.5151 148.517 78.7344 148.975 79.0611 149.32C79.3971 149.665 79.8824 149.838 80.5171 149.838C81.1424 149.838 81.6184 149.665 81.9451 149.32C82.2811 148.975 82.5004 148.517 82.6031 147.948C82.7151 147.379 82.7711 146.674 82.7711 145.834ZM85.7801 145.834C85.7801 144.229 86.0414 142.978 86.5641 142.082C87.0868 141.177 88.0014 140.724 89.3081 140.724C90.6054 140.724 91.5154 141.177 92.0381 142.082C92.5608 142.978 92.8221 144.229 92.8221 145.834C92.8221 147.467 92.5608 148.737 92.0381 149.642C91.5154 150.547 90.6054 151 89.3081 151C88.0014 151 87.0868 150.547 86.5641 149.642C86.0414 148.737 85.7801 147.467 85.7801 145.834ZM91.5621 145.834C91.5621 145.022 91.5061 144.336 91.3941 143.776C91.2914 143.207 91.0721 142.749 90.7361 142.404C90.4094 142.059 89.9334 141.886 89.3081 141.886C88.6734 141.886 88.1881 142.059 87.8521 142.404C87.5254 142.749 87.3061 143.207 87.1941 143.776C87.0914 144.336 87.0401 145.022 87.0401 145.834C87.0401 146.674 87.0914 147.379 87.1941 147.948C87.3061 148.517 87.5254 148.975 87.8521 149.32C88.1881 149.665 88.6734 149.838 89.3081 149.838C89.9334 149.838 90.4094 149.665 90.7361 149.32C91.0721 148.975 91.2914 148.517 91.3941 147.948C91.5061 147.379 91.5621 146.674 91.5621 145.834Z" fill="#4B4A4A"/>
<mask id="path-16-inside-6_3268_8491" fill="white">
<path d="M158 128C158 123.582 161.582 120 166 120H300C304.418 120 308 123.582 308 128V164C308 168.418 304.418 172 300 172H166C161.582 172 158 168.418 158 164V128Z"/>
</mask>
<path d="M158 128C158 123.582 161.582 120 166 120H300C304.418 120 308 123.582 308 128V164C308 168.418 304.418 172 300 172H166C161.582 172 158 168.418 158 164V128Z" fill="white"/>
<path d="M166 120V121H300V120V119H166V120ZM308 128H307V164H308H309V128H308ZM300 172V171H166V172V173H300V172ZM158 164H159V128H158H157V164H158ZM166 172V171C162.134 171 159 167.866 159 164H158H157C157 168.971 161.029 173 166 173V172ZM308 164H307C307 167.866 303.866 171 300 171V172V173C304.971 173 309 168.971 309 164H308ZM300 120V121C303.866 121 307 124.134 307 128H308H309C309 123.029 304.971 119 300 119V120ZM166 120V119C161.029 119 157 123.029 157 128H158H159C159 124.134 162.134 121 166 121V120Z" fill="#CDCBCB" mask="url(#path-16-inside-6_3268_8491)"/>
<path d="M215.165 145.834C215.165 144.229 215.426 142.978 215.949 142.082C216.472 141.177 217.386 140.724 218.693 140.724C219.99 140.724 220.9 141.177 221.423 142.082C221.946 142.978 222.207 144.229 222.207 145.834C222.207 147.467 221.946 148.737 221.423 149.642C220.9 150.547 219.99 151 218.693 151C217.386 151 216.472 150.547 215.949 149.642C215.426 148.737 215.165 147.467 215.165 145.834ZM220.947 145.834C220.947 145.022 220.891 144.336 220.779 143.776C220.676 143.207 220.457 142.749 220.121 142.404C219.794 142.059 219.318 141.886 218.693 141.886C218.058 141.886 217.573 142.059 217.237 142.404C216.91 142.749 216.691 143.207 216.579 143.776C216.476 144.336 216.425 145.022 216.425 145.834C216.425 146.674 216.476 147.379 216.579 147.948C216.691 148.517 216.91 148.975 217.237 149.32C217.573 149.665 218.058 149.838 218.693 149.838C219.318 149.838 219.794 149.665 220.121 149.32C220.457 148.975 220.676 148.517 220.779 147.948C220.891 147.379 220.947 146.674 220.947 145.834ZM223.802 149.978C224.987 149.026 225.916 148.247 226.588 147.64C227.26 147.024 227.825 146.385 228.282 145.722C228.749 145.05 228.982 144.392 228.982 143.748C228.982 143.141 228.833 142.665 228.534 142.32C228.245 141.965 227.773 141.788 227.12 141.788C226.485 141.788 225.991 141.989 225.636 142.39C225.291 142.782 225.104 143.309 225.076 143.972H223.844C223.881 142.927 224.199 142.119 224.796 141.55C225.393 140.981 226.163 140.696 227.106 140.696C228.067 140.696 228.828 140.962 229.388 141.494C229.957 142.026 230.242 142.759 230.242 143.692C230.242 144.467 230.009 145.223 229.542 145.96C229.085 146.688 228.562 147.332 227.974 147.892C227.386 148.443 226.635 149.087 225.72 149.824H230.536V150.888H223.802V149.978ZM232.625 151.084C232.382 151.084 232.177 151 232.009 150.832C231.841 150.664 231.757 150.459 231.757 150.216C231.757 149.973 231.841 149.768 232.009 149.6C232.177 149.432 232.382 149.348 232.625 149.348C232.858 149.348 233.054 149.432 233.213 149.6C233.381 149.768 233.465 149.973 233.465 150.216C233.465 150.459 233.381 150.664 233.213 150.832C233.054 151 232.858 151.084 232.625 151.084ZM232.625 145.092C232.382 145.092 232.177 145.008 232.009 144.84C231.841 144.672 231.757 144.467 231.757 144.224C231.757 143.981 231.841 143.776 232.009 143.608C232.177 143.44 232.382 143.356 232.625 143.356C232.858 143.356 233.054 143.44 233.213 143.608C233.381 143.776 233.465 143.981 233.465 144.224C233.465 144.467 233.381 144.672 233.213 144.84C233.054 145.008 232.858 145.092 232.625 145.092ZM234.989 145.834C234.989 144.229 235.25 142.978 235.773 142.082C236.296 141.177 237.21 140.724 238.517 140.724C239.814 140.724 240.724 141.177 241.247 142.082C241.77 142.978 242.031 144.229 242.031 145.834C242.031 147.467 241.77 148.737 241.247 149.642C240.724 150.547 239.814 151 238.517 151C237.21 151 236.296 150.547 235.773 149.642C235.25 148.737 234.989 147.467 234.989 145.834ZM240.771 145.834C240.771 145.022 240.715 144.336 240.603 143.776C240.5 143.207 240.281 142.749 239.945 142.404C239.618 142.059 239.142 141.886 238.517 141.886C237.882 141.886 237.397 142.059 237.061 142.404C236.734 142.749 236.515 143.207 236.403 143.776C236.3 144.336 236.249 145.022 236.249 145.834C236.249 146.674 236.3 147.379 236.403 147.948C236.515 148.517 236.734 148.975 237.061 149.32C237.397 149.665 237.882 149.838 238.517 149.838C239.142 149.838 239.618 149.665 239.945 149.32C240.281 148.975 240.5 148.517 240.603 147.948C240.715 147.379 240.771 146.674 240.771 145.834ZM243.78 145.834C243.78 144.229 244.041 142.978 244.564 142.082C245.087 141.177 246.001 140.724 247.308 140.724C248.605 140.724 249.515 141.177 250.038 142.082C250.561 142.978 250.822 144.229 250.822 145.834C250.822 147.467 250.561 148.737 250.038 149.642C249.515 150.547 248.605 151 247.308 151C246.001 151 245.087 150.547 244.564 149.642C244.041 148.737 243.78 147.467 243.78 145.834ZM249.562 145.834C249.562 145.022 249.506 144.336 249.394 143.776C249.291 143.207 249.072 142.749 248.736 142.404C248.409 142.059 247.933 141.886 247.308 141.886C246.673 141.886 246.188 142.059 245.852 142.404C245.525 142.749 245.306 143.207 245.194 143.776C245.091 144.336 245.04 145.022 245.04 145.834C245.04 146.674 245.091 147.379 245.194 147.948C245.306 148.517 245.525 148.975 245.852 149.32C246.188 149.665 246.673 149.838 247.308 149.838C247.933 149.838 248.409 149.665 248.736 149.32C249.072 148.975 249.291 148.517 249.394 147.948C249.506 147.379 249.562 146.674 249.562 145.834Z" fill="#4B4A4A"/>
<mask id="path-19-inside-7_3268_8491" fill="white">
<path d="M0 188C0 183.582 3.58172 180 8 180H142C146.418 180 150 183.582 150 188V224C150 228.418 146.418 232 142 232H8C3.58172 232 0 228.418 0 224V188Z"/>
</mask>
<path d="M0 188C0 183.582 3.58172 180 8 180H142C146.418 180 150 183.582 150 188V224C150 228.418 146.418 232 142 232H8C3.58172 232 0 228.418 0 224V188Z" fill="white"/>
<path d="M8 180V181H142V180V179H8V180ZM150 188H149V224H150H151V188H150ZM142 232V231H8V232V233H142V232ZM0 224H1V188H0H-1V224H0ZM8 232V231C4.13401 231 1 227.866 1 224H0H-1C-1 228.971 3.02944 233 8 233V232ZM150 224H149C149 227.866 145.866 231 142 231V232V233C146.971 233 151 228.971 151 224H150ZM142 180V181C145.866 181 149 184.134 149 188H150H151C151 183.029 146.971 179 142 179V180ZM8 180V179C3.02944 179 -1 183.029 -1 188H0H1C1 184.134 4.13401 181 8 181V180Z" fill="#CDCBCB" mask="url(#path-19-inside-7_3268_8491)"/>
<path d="M57.1649 205.834C57.1649 204.229 57.4262 202.978 57.9489 202.082C58.4715 201.177 59.3862 200.724 60.6929 200.724C61.9902 200.724 62.9002 201.177 63.4229 202.082C63.9455 202.978 64.2069 204.229 64.2069 205.834C64.2069 207.467 63.9455 208.737 63.4229 209.642C62.9002 210.547 61.9902 211 60.6929 211C59.3862 211 58.4715 210.547 57.9489 209.642C57.4262 208.737 57.1649 207.467 57.1649 205.834ZM62.9469 205.834C62.9469 205.022 62.8909 204.336 62.7789 203.776C62.6762 203.207 62.4569 202.749 62.1209 202.404C61.7942 202.059 61.3182 201.886 60.6929 201.886C60.0582 201.886 59.5729 202.059 59.2369 202.404C58.9102 202.749 58.6909 203.207 58.5789 203.776C58.4762 204.336 58.4249 205.022 58.4249 205.834C58.4249 206.674 58.4762 207.379 58.5789 207.948C58.6909 208.517 58.9102 208.975 59.2369 209.32C59.5729 209.665 60.0582 209.838 60.6929 209.838C61.3182 209.838 61.7942 209.665 62.1209 209.32C62.4569 208.975 62.6762 208.517 62.7789 207.948C62.8909 207.379 62.9469 206.674 62.9469 205.834ZM65.8019 209.978C66.9872 209.026 67.9159 208.247 68.5879 207.64C69.2599 207.024 69.8246 206.385 70.2819 205.722C70.7486 205.05 70.9819 204.392 70.9819 203.748C70.9819 203.141 70.8326 202.665 70.5339 202.32C70.2446 201.965 69.7732 201.788 69.1199 201.788C68.4852 201.788 67.9906 201.989 67.6359 202.39C67.2906 202.782 67.1039 203.309 67.0759 203.972H65.8439C65.8812 202.927 66.1986 202.119 66.7959 201.55C67.3932 200.981 68.1632 200.696 69.1059 200.696C70.0672 200.696 70.8279 200.962 71.3879 201.494C71.9572 202.026 72.2419 202.759 72.2419 203.692C72.2419 204.467 72.0086 205.223 71.5419 205.96C71.0846 206.688 70.5619 207.332 69.9739 207.892C69.3859 208.443 68.6346 209.087 67.7199 209.824H72.5359V210.888H65.8019V209.978ZM74.6246 211.084C74.382 211.084 74.1766 211 74.0086 210.832C73.8406 210.664 73.7566 210.459 73.7566 210.216C73.7566 209.973 73.8406 209.768 74.0086 209.6C74.1766 209.432 74.382 209.348 74.6246 209.348C74.858 209.348 75.054 209.432 75.2126 209.6C75.3806 209.768 75.4646 209.973 75.4646 210.216C75.4646 210.459 75.3806 210.664 75.2126 210.832C75.054 211 74.858 211.084 74.6246 211.084ZM74.6246 205.092C74.382 205.092 74.1766 205.008 74.0086 204.84C73.8406 204.672 73.7566 204.467 73.7566 204.224C73.7566 203.981 73.8406 203.776 74.0086 203.608C74.1766 203.44 74.382 203.356 74.6246 203.356C74.858 203.356 75.054 203.44 75.2126 203.608C75.3806 203.776 75.4646 203.981 75.4646 204.224C75.4646 204.467 75.3806 204.672 75.2126 204.84C75.054 205.008 74.858 205.092 74.6246 205.092ZM76.9891 205.834C76.9891 204.229 77.2504 202.978 77.7731 202.082C78.2958 201.177 79.2104 200.724 80.5171 200.724C81.8144 200.724 82.7244 201.177 83.2471 202.082C83.7698 202.978 84.0311 204.229 84.0311 205.834C84.0311 207.467 83.7698 208.737 83.2471 209.642C82.7244 210.547 81.8144 211 80.5171 211C79.2104 211 78.2958 210.547 77.7731 209.642C77.2504 208.737 76.9891 207.467 76.9891 205.834ZM82.7711 205.834C82.7711 205.022 82.7151 204.336 82.6031 203.776C82.5004 203.207 82.2811 202.749 81.9451 202.404C81.6184 202.059 81.1424 201.886 80.5171 201.886C79.8824 201.886 79.3971 202.059 79.0611 202.404C78.7344 202.749 78.5151 203.207 78.4031 203.776C78.3004 204.336 78.2491 205.022 78.2491 205.834C78.2491 206.674 78.3004 207.379 78.4031 207.948C78.5151 208.517 78.7344 208.975 79.0611 209.32C79.3971 209.665 79.8824 209.838 80.5171 209.838C81.1424 209.838 81.6184 209.665 81.9451 209.32C82.2811 208.975 82.5004 208.517 82.6031 207.948C82.7151 207.379 82.7711 206.674 82.7711 205.834ZM85.7801 205.834C85.7801 204.229 86.0414 202.978 86.5641 202.082C87.0868 201.177 88.0014 200.724 89.3081 200.724C90.6054 200.724 91.5154 201.177 92.0381 202.082C92.5608 202.978 92.8221 204.229 92.8221 205.834C92.8221 207.467 92.5608 208.737 92.0381 209.642C91.5154 210.547 90.6054 211 89.3081 211C88.0014 211 87.0868 210.547 86.5641 209.642C86.0414 208.737 85.7801 207.467 85.7801 205.834ZM91.5621 205.834C91.5621 205.022 91.5061 204.336 91.3941 203.776C91.2914 203.207 91.0721 202.749 90.7361 202.404C90.4094 202.059 89.9334 201.886 89.3081 201.886C88.6734 201.886 88.1881 202.059 87.8521 202.404C87.5254 202.749 87.3061 203.207 87.1941 203.776C87.0914 204.336 87.0401 205.022 87.0401 205.834C87.0401 206.674 87.0914 207.379 87.1941 207.948C87.3061 208.517 87.5254 208.975 87.8521 209.32C88.1881 209.665 88.6734 209.838 89.3081 209.838C89.9334 209.838 90.4094 209.665 90.7361 209.32C91.0721 208.975 91.2914 208.517 91.3941 207.948C91.5061 207.379 91.5621 206.674 91.5621 205.834Z" fill="#4B4A4A"/>
<path d="M158 188C158 183.582 161.582 180 166 180H300C304.418 180 308 183.582 308 188V224C308 228.418 304.418 232 300 232H166C161.582 232 158 228.418 158 224V188Z" fill="#0A2333"/>
<path d="M214.105 205.764C214.105 204.149 214.375 202.889 214.917 201.984C215.467 201.069 216.41 200.612 217.745 200.612C219.079 200.612 220.017 201.069 220.559 201.984C221.109 202.889 221.385 204.149 221.385 205.764C221.385 207.397 221.109 208.676 220.559 209.6C220.017 210.515 219.079 210.972 217.745 210.972C216.41 210.972 215.467 210.515 214.917 209.6C214.375 208.676 214.105 207.397 214.105 205.764ZM219.817 205.764C219.817 205.008 219.765 204.369 219.663 203.846C219.569 203.323 219.373 202.899 219.075 202.572C218.776 202.236 218.333 202.068 217.745 202.068C217.157 202.068 216.713 202.236 216.415 202.572C216.116 202.899 215.915 203.323 215.813 203.846C215.719 204.369 215.673 205.008 215.673 205.764C215.673 206.548 215.719 207.206 215.813 207.738C215.906 208.27 216.102 208.699 216.401 209.026C216.709 209.353 217.157 209.516 217.745 209.516C218.333 209.516 218.776 209.353 219.075 209.026C219.383 208.699 219.583 208.27 219.677 207.738C219.77 207.206 219.817 206.548 219.817 205.764ZM222.877 208.872V207.668L227.581 200.92H229.513V207.486H230.815V208.872H229.513V211H227.945V208.872H222.877ZM228.015 202.544L224.711 207.486H228.015V202.544ZM232.992 211.098C232.703 211.098 232.46 211 232.264 210.804C232.068 210.608 231.97 210.365 231.97 210.076C231.97 209.787 232.068 209.544 232.264 209.348C232.46 209.152 232.703 209.054 232.992 209.054C233.272 209.054 233.51 209.152 233.706 209.348C233.902 209.544 234 209.787 234 210.076C234 210.365 233.902 210.608 233.706 210.804C233.51 211 233.272 211.098 232.992 211.098ZM232.992 205.218C232.703 205.218 232.46 205.12 232.264 204.924C232.068 204.728 231.97 204.485 231.97 204.196C231.97 203.907 232.068 203.664 232.264 203.468C232.46 203.272 232.703 203.174 232.992 203.174C233.272 203.174 233.51 203.272 233.706 203.468C233.902 203.664 234 203.907 234 204.196C234 204.485 233.902 204.728 233.706 204.924C233.51 205.12 233.272 205.218 232.992 205.218ZM235.373 208.872V207.668L240.077 200.92H242.009V207.486H243.311V208.872H242.009V211H240.441V208.872H235.373ZM240.511 202.544L237.207 207.486H240.511V202.544ZM251.214 202.166H246.524V204.952C246.72 204.691 247.009 204.471 247.392 204.294C247.784 204.117 248.199 204.028 248.638 204.028C249.422 204.028 250.057 204.196 250.542 204.532C251.037 204.868 251.387 205.293 251.592 205.806C251.807 206.319 251.914 206.861 251.914 207.43C251.914 208.121 251.779 208.737 251.508 209.278C251.247 209.81 250.85 210.23 250.318 210.538C249.795 210.846 249.151 211 248.386 211C247.369 211 246.552 210.748 245.936 210.244C245.32 209.74 244.951 209.073 244.83 208.242H246.384C246.487 208.681 246.715 209.031 247.07 209.292C247.425 209.544 247.868 209.67 248.4 209.67C249.063 209.67 249.557 209.469 249.884 209.068C250.22 208.667 250.388 208.135 250.388 207.472C250.388 206.8 250.22 206.287 249.884 205.932C249.548 205.568 249.053 205.386 248.4 205.386C247.943 205.386 247.555 205.503 247.238 205.736C246.93 205.96 246.706 206.268 246.566 206.66H245.054V200.766H251.214V202.166Z" fill="white"/>
<mask id="path-24-inside-8_3268_8491" fill="white">
<path d="M0 248C0 243.582 3.58172 240 8 240H142C146.418 240 150 243.582 150 248V284C150 288.418 146.418 292 142 292H8C3.58172 292 0 288.418 0 284V248Z"/>
</mask>
<path d="M0 248C0 243.582 3.58172 240 8 240H142C146.418 240 150 243.582 150 248V284C150 288.418 146.418 292 142 292H8C3.58172 292 0 288.418 0 284V248Z" fill="white"/>
<path d="M8 240V241H142V240V239H8V240ZM150 248H149V284H150H151V248H150ZM142 292V291H8V292V293H142V292ZM0 284H1V248H0H-1V284H0ZM8 292V291C4.13401 291 1 287.866 1 284H0H-1C-1 288.971 3.02944 293 8 293V292ZM150 284H149C149 287.866 145.866 291 142 291V292V293C146.971 293 151 288.971 151 284H150ZM142 240V241C145.866 241 149 244.134 149 248H150H151C151 243.029 146.971 239 142 239V240ZM8 240V239C3.02944 239 -1 243.029 -1 248H0H1C1 244.134 4.13401 241 8 241V240Z" fill="#CDCBCB" mask="url(#path-24-inside-8_3268_8491)"/>
<path d="M57.1649 265.834C57.1649 264.229 57.4262 262.978 57.9489 262.082C58.4715 261.177 59.3862 260.724 60.6929 260.724C61.9902 260.724 62.9002 261.177 63.4229 262.082C63.9455 262.978 64.2069 264.229 64.2069 265.834C64.2069 267.467 63.9455 268.737 63.4229 269.642C62.9002 270.547 61.9902 271 60.6929 271C59.3862 271 58.4715 270.547 57.9489 269.642C57.4262 268.737 57.1649 267.467 57.1649 265.834ZM62.9469 265.834C62.9469 265.022 62.8909 264.336 62.7789 263.776C62.6762 263.207 62.4569 262.749 62.1209 262.404C61.7942 262.059 61.3182 261.886 60.6929 261.886C60.0582 261.886 59.5729 262.059 59.2369 262.404C58.9102 262.749 58.6909 263.207 58.5789 263.776C58.4762 264.336 58.4249 265.022 58.4249 265.834C58.4249 266.674 58.4762 267.379 58.5789 267.948C58.6909 268.517 58.9102 268.975 59.2369 269.32C59.5729 269.665 60.0582 269.838 60.6929 269.838C61.3182 269.838 61.7942 269.665 62.1209 269.32C62.4569 268.975 62.6762 268.517 62.7789 267.948C62.8909 267.379 62.9469 266.674 62.9469 265.834ZM65.8019 269.978C66.9872 269.026 67.9159 268.247 68.5879 267.64C69.2599 267.024 69.8246 266.385 70.2819 265.722C70.7486 265.05 70.9819 264.392 70.9819 263.748C70.9819 263.141 70.8326 262.665 70.5339 262.32C70.2446 261.965 69.7732 261.788 69.1199 261.788C68.4852 261.788 67.9906 261.989 67.6359 262.39C67.2906 262.782 67.1039 263.309 67.0759 263.972H65.8439C65.8812 262.927 66.1986 262.119 66.7959 261.55C67.3932 260.981 68.1632 260.696 69.1059 260.696C70.0672 260.696 70.8279 260.962 71.3879 261.494C71.9572 262.026 72.2419 262.759 72.2419 263.692C72.2419 264.467 72.0086 265.223 71.5419 265.96C71.0846 266.688 70.5619 267.332 69.9739 267.892C69.3859 268.443 68.6346 269.087 67.7199 269.824H72.5359V270.888H65.8019V269.978ZM74.6246 271.084C74.382 271.084 74.1766 271 74.0086 270.832C73.8406 270.664 73.7566 270.459 73.7566 270.216C73.7566 269.973 73.8406 269.768 74.0086 269.6C74.1766 269.432 74.382 269.348 74.6246 269.348C74.858 269.348 75.054 269.432 75.2126 269.6C75.3806 269.768 75.4646 269.973 75.4646 270.216C75.4646 270.459 75.3806 270.664 75.2126 270.832C75.054 271 74.858 271.084 74.6246 271.084ZM74.6246 265.092C74.382 265.092 74.1766 265.008 74.0086 264.84C73.8406 264.672 73.7566 264.467 73.7566 264.224C73.7566 263.981 73.8406 263.776 74.0086 263.608C74.1766 263.44 74.382 263.356 74.6246 263.356C74.858 263.356 75.054 263.44 75.2126 263.608C75.3806 263.776 75.4646 263.981 75.4646 264.224C75.4646 264.467 75.3806 264.672 75.2126 264.84C75.054 265.008 74.858 265.092 74.6246 265.092ZM76.9891 265.834C76.9891 264.229 77.2504 262.978 77.7731 262.082C78.2958 261.177 79.2104 260.724 80.5171 260.724C81.8144 260.724 82.7244 261.177 83.2471 262.082C83.7698 262.978 84.0311 264.229 84.0311 265.834C84.0311 267.467 83.7698 268.737 83.2471 269.642C82.7244 270.547 81.8144 271 80.5171 271C79.2104 271 78.2958 270.547 77.7731 269.642C77.2504 268.737 76.9891 267.467 76.9891 265.834ZM82.7711 265.834C82.7711 265.022 82.7151 264.336 82.6031 263.776C82.5004 263.207 82.2811 262.749 81.9451 262.404C81.6184 262.059 81.1424 261.886 80.5171 261.886C79.8824 261.886 79.3971 262.059 79.0611 262.404C78.7344 262.749 78.5151 263.207 78.4031 263.776C78.3004 264.336 78.2491 265.022 78.2491 265.834C78.2491 266.674 78.3004 267.379 78.4031 267.948C78.5151 268.517 78.7344 268.975 79.0611 269.32C79.3971 269.665 79.8824 269.838 80.5171 269.838C81.1424 269.838 81.6184 269.665 81.9451 269.32C82.2811 268.975 82.5004 268.517 82.6031 267.948C82.7151 267.379 82.7711 266.674 82.7711 265.834ZM85.7801 265.834C85.7801 264.229 86.0414 262.978 86.5641 262.082C87.0868 261.177 88.0014 260.724 89.3081 260.724C90.6054 260.724 91.5154 261.177 92.0381 262.082C92.5608 262.978 92.8221 264.229 92.8221 265.834C92.8221 267.467 92.5608 268.737 92.0381 269.642C91.5154 270.547 90.6054 271 89.3081 271C88.0014 271 87.0868 270.547 86.5641 269.642C86.0414 268.737 85.7801 267.467 85.7801 265.834ZM91.5621 265.834C91.5621 265.022 91.5061 264.336 91.3941 263.776C91.2914 263.207 91.0721 262.749 90.7361 262.404C90.4094 262.059 89.9334 261.886 89.3081 261.886C88.6734 261.886 88.1881 262.059 87.8521 262.404C87.5254 262.749 87.3061 263.207 87.1941 263.776C87.0914 264.336 87.0401 265.022 87.0401 265.834C87.0401 266.674 87.0914 267.379 87.1941 267.948C87.3061 268.517 87.5254 268.975 87.8521 269.32C88.1881 269.665 88.6734 269.838 89.3081 269.838C89.9334 269.838 90.4094 269.665 90.7361 269.32C91.0721 268.975 91.2914 268.517 91.3941 267.948C91.5061 267.379 91.5621 266.674 91.5621 265.834Z" fill="#4B4A4A"/>
<mask id="path-27-inside-9_3268_8491" fill="white">
<path d="M158 248C158 243.582 161.582 240 166 240H300C304.418 240 308 243.582 308 248V284C308 288.418 304.418 292 300 292H166C161.582 292 158 288.418 158 284V248Z"/>
</mask>
<path d="M158 248C158 243.582 161.582 240 166 240H300C304.418 240 308 243.582 308 248V284C308 288.418 304.418 292 300 292H166C161.582 292 158 288.418 158 284V248Z" fill="white"/>
<path d="M166 240V241H300V240V239H166V240ZM308 248H307V284H308H309V248H308ZM300 292V291H166V292V293H300V292ZM158 284H159V248H158H157V284H158ZM166 292V291C162.134 291 159 287.866 159 284H158H157C157 288.971 161.029 293 166 293V292ZM308 284H307C307 287.866 303.866 291 300 291V292V293C304.971 293 309 288.971 309 284H308ZM300 240V241C303.866 241 307 244.134 307 248H308H309C309 243.029 304.971 239 300 239V240ZM166 240V239C161.029 239 157 243.029 157 248H158H159C159 244.134 162.134 241 166 241V240Z" fill="#CDCBCB" mask="url(#path-27-inside-9_3268_8491)"/>
<path d="M215.165 265.834C215.165 264.229 215.426 262.978 215.949 262.082C216.472 261.177 217.386 260.724 218.693 260.724C219.99 260.724 220.9 261.177 221.423 262.082C221.946 262.978 222.207 264.229 222.207 265.834C222.207 267.467 221.946 268.737 221.423 269.642C220.9 270.547 219.99 271 218.693 271C217.386 271 216.472 270.547 215.949 269.642C215.426 268.737 215.165 267.467 215.165 265.834ZM220.947 265.834C220.947 265.022 220.891 264.336 220.779 263.776C220.676 263.207 220.457 262.749 220.121 262.404C219.794 262.059 219.318 261.886 218.693 261.886C218.058 261.886 217.573 262.059 217.237 262.404C216.91 262.749 216.691 263.207 216.579 263.776C216.476 264.336 216.425 265.022 216.425 265.834C216.425 266.674 216.476 267.379 216.579 267.948C216.691 268.517 216.91 268.975 217.237 269.32C217.573 269.665 218.058 269.838 218.693 269.838C219.318 269.838 219.794 269.665 220.121 269.32C220.457 268.975 220.676 268.517 220.779 267.948C220.891 267.379 220.947 266.674 220.947 265.834ZM223.802 269.978C224.987 269.026 225.916 268.247 226.588 267.64C227.26 267.024 227.825 266.385 228.282 265.722C228.749 265.05 228.982 264.392 228.982 263.748C228.982 263.141 228.833 262.665 228.534 262.32C228.245 261.965 227.773 261.788 227.12 261.788C226.485 261.788 225.991 261.989 225.636 262.39C225.291 262.782 225.104 263.309 225.076 263.972H223.844C223.881 262.927 224.199 262.119 224.796 261.55C225.393 260.981 226.163 260.696 227.106 260.696C228.067 260.696 228.828 260.962 229.388 261.494C229.957 262.026 230.242 262.759 230.242 263.692C230.242 264.467 230.009 265.223 229.542 265.96C229.085 266.688 228.562 267.332 227.974 267.892C227.386 268.443 226.635 269.087 225.72 269.824H230.536V270.888H223.802V269.978ZM232.625 271.084C232.382 271.084 232.177 271 232.009 270.832C231.841 270.664 231.757 270.459 231.757 270.216C231.757 269.973 231.841 269.768 232.009 269.6C232.177 269.432 232.382 269.348 232.625 269.348C232.858 269.348 233.054 269.432 233.213 269.6C233.381 269.768 233.465 269.973 233.465 270.216C233.465 270.459 233.381 270.664 233.213 270.832C233.054 271 232.858 271.084 232.625 271.084ZM232.625 265.092C232.382 265.092 232.177 265.008 232.009 264.84C231.841 264.672 231.757 264.467 231.757 264.224C231.757 263.981 231.841 263.776 232.009 263.608C232.177 263.44 232.382 263.356 232.625 263.356C232.858 263.356 233.054 263.44 233.213 263.608C233.381 263.776 233.465 263.981 233.465 264.224C233.465 264.467 233.381 264.672 233.213 264.84C233.054 265.008 232.858 265.092 232.625 265.092ZM234.989 265.834C234.989 264.229 235.25 262.978 235.773 262.082C236.296 261.177 237.21 260.724 238.517 260.724C239.814 260.724 240.724 261.177 241.247 262.082C241.77 262.978 242.031 264.229 242.031 265.834C242.031 267.467 241.77 268.737 241.247 269.642C240.724 270.547 239.814 271 238.517 271C237.21 271 236.296 270.547 235.773 269.642C235.25 268.737 234.989 267.467 234.989 265.834ZM240.771 265.834C240.771 265.022 240.715 264.336 240.603 263.776C240.5 263.207 240.281 262.749 239.945 262.404C239.618 262.059 239.142 261.886 238.517 261.886C237.882 261.886 237.397 262.059 237.061 262.404C236.734 262.749 236.515 263.207 236.403 263.776C236.3 264.336 236.249 265.022 236.249 265.834C236.249 266.674 236.3 267.379 236.403 267.948C236.515 268.517 236.734 268.975 237.061 269.32C237.397 269.665 237.882 269.838 238.517 269.838C239.142 269.838 239.618 269.665 239.945 269.32C240.281 268.975 240.5 268.517 240.603 267.948C240.715 267.379 240.771 266.674 240.771 265.834ZM243.78 265.834C243.78 264.229 244.041 262.978 244.564 262.082C245.087 261.177 246.001 260.724 247.308 260.724C248.605 260.724 249.515 261.177 250.038 262.082C250.561 262.978 250.822 264.229 250.822 265.834C250.822 267.467 250.561 268.737 250.038 269.642C249.515 270.547 248.605 271 247.308 271C246.001 271 245.087 270.547 244.564 269.642C244.041 268.737 243.78 267.467 243.78 265.834ZM249.562 265.834C249.562 265.022 249.506 264.336 249.394 263.776C249.291 263.207 249.072 262.749 248.736 262.404C248.409 262.059 247.933 261.886 247.308 261.886C246.673 261.886 246.188 262.059 245.852 262.404C245.525 262.749 245.306 263.207 245.194 263.776C245.091 264.336 245.04 265.022 245.04 265.834C245.04 266.674 245.091 267.379 245.194 267.948C245.306 268.517 245.525 268.975 245.852 269.32C246.188 269.665 246.673 269.838 247.308 269.838C247.933 269.838 248.409 269.665 248.736 269.32C249.072 268.975 249.291 268.517 249.394 267.948C249.506 267.379 249.562 266.674 249.562 265.834Z" fill="#4B4A4A"/>
<mask id="path-30-inside-10_3268_8491" fill="white">
<path d="M0 308C0 303.582 3.58172 300 8 300H142C146.418 300 150 303.582 150 308V344C150 348.418 146.418 352 142 352H8C3.58172 352 0 348.418 0 344V308Z"/>
</mask>
<path d="M0 308C0 303.582 3.58172 300 8 300H142C146.418 300 150 303.582 150 308V344C150 348.418 146.418 352 142 352H8C3.58172 352 0 348.418 0 344V308Z" fill="#FAF8F7"/>
<path d="M8 300V301H142V300V299H8V300ZM150 308H149V344H150H151V308H150ZM142 352V351H8V352V353H142V352ZM0 344H1V308H0H-1V344H0ZM8 352V351C4.13401 351 1 347.866 1 344H0H-1C-1 348.971 3.02944 353 8 353V352ZM150 344H149C149 347.866 145.866 351 142 351V352V353C146.971 353 151 348.971 151 344H150ZM142 300V301C145.866 301 149 304.134 149 308H150H151C151 303.029 146.971 299 142 299V300ZM8 300V299C3.02944 299 -1 303.029 -1 308H0H1C1 304.134 4.13401 301 8 301V300Z" fill="#CDCBCB" mask="url(#path-30-inside-10_3268_8491)"/>
<path d="M56.7957 325.834C56.7957 324.229 57.0571 322.978 57.5797 322.082C58.1024 321.177 59.0171 320.724 60.3237 320.724C61.6211 320.724 62.5311 321.177 63.0537 322.082C63.5764 322.978 63.8377 324.229 63.8377 325.834C63.8377 327.467 63.5764 328.737 63.0537 329.642C62.5311 330.547 61.6211 331 60.3237 331C59.0171 331 58.1024 330.547 57.5797 329.642C57.0571 328.737 56.7957 327.467 56.7957 325.834ZM62.5777 325.834C62.5777 325.022 62.5217 324.336 62.4097 323.776C62.3071 323.207 62.0877 322.749 61.7517 322.404C61.4251 322.059 60.9491 321.886 60.3237 321.886C59.6891 321.886 59.2037 322.059 58.8677 322.404C58.5411 322.749 58.3217 323.207 58.2097 323.776C58.1071 324.336 58.0557 325.022 58.0557 325.834C58.0557 326.674 58.1071 327.379 58.2097 327.948C58.3217 328.517 58.5411 328.975 58.8677 329.32C59.2037 329.665 59.6891 329.838 60.3237 329.838C60.9491 329.838 61.4251 329.665 61.7517 329.32C62.0877 328.975 62.3071 328.517 62.4097 327.948C62.5217 327.379 62.5777 326.674 62.5777 325.834ZM65.5868 325.834C65.5868 324.229 65.8481 322.978 66.3708 322.082C66.8934 321.177 67.8081 320.724 69.1148 320.724C70.4121 320.724 71.3221 321.177 71.8448 322.082C72.3674 322.978 72.6287 324.229 72.6287 325.834C72.6287 327.467 72.3674 328.737 71.8448 329.642C71.3221 330.547 70.4121 331 69.1148 331C67.8081 331 66.8934 330.547 66.3708 329.642C65.8481 328.737 65.5868 327.467 65.5868 325.834ZM71.3688 325.834C71.3688 325.022 71.3128 324.336 71.2008 323.776C71.0981 323.207 70.8788 322.749 70.5428 322.404C70.2161 322.059 69.7401 321.886 69.1148 321.886C68.4801 321.886 67.9948 322.059 67.6588 322.404C67.3321 322.749 67.1128 323.207 67.0008 323.776C66.8981 324.336 66.8468 325.022 66.8468 325.834C66.8468 326.674 66.8981 327.379 67.0008 327.948C67.1128 328.517 67.3321 328.975 67.6588 329.32C67.9948 329.665 68.4801 329.838 69.1148 329.838C69.7401 329.838 70.2161 329.665 70.5428 329.32C70.8788 328.975 71.0981 328.517 71.2008 327.948C71.3128 327.379 71.3688 326.674 71.3688 325.834ZM74.9938 331.084C74.7511 331.084 74.5458 331 74.3778 330.832C74.2098 330.664 74.1258 330.459 74.1258 330.216C74.1258 329.973 74.2098 329.768 74.3778 329.6C74.5458 329.432 74.7511 329.348 74.9938 329.348C75.2271 329.348 75.4231 329.432 75.5818 329.6C75.7498 329.768 75.8338 329.973 75.8338 330.216C75.8338 330.459 75.7498 330.664 75.5818 330.832C75.4231 331 75.2271 331.084 74.9938 331.084ZM74.9938 325.092C74.7511 325.092 74.5458 325.008 74.3778 324.84C74.2098 324.672 74.1258 324.467 74.1258 324.224C74.1258 323.981 74.2098 323.776 74.3778 323.608C74.5458 323.44 74.7511 323.356 74.9938 323.356C75.2271 323.356 75.4231 323.44 75.5818 323.608C75.7498 323.776 75.8338 323.981 75.8338 324.224C75.8338 324.467 75.7498 324.672 75.5818 324.84C75.4231 325.008 75.2271 325.092 74.9938 325.092ZM77.3582 325.834C77.3582 324.229 77.6196 322.978 78.1422 322.082C78.6649 321.177 79.5796 320.724 80.8862 320.724C82.1836 320.724 83.0936 321.177 83.6162 322.082C84.1389 322.978 84.4002 324.229 84.4002 325.834C84.4002 327.467 84.1389 328.737 83.6162 329.642C83.0936 330.547 82.1836 331 80.8862 331C79.5796 331 78.6649 330.547 78.1422 329.642C77.6196 328.737 77.3582 327.467 77.3582 325.834ZM83.1402 325.834C83.1402 325.022 83.0842 324.336 82.9722 323.776C82.8696 323.207 82.6502 322.749 82.3142 322.404C81.9876 322.059 81.5116 321.886 80.8862 321.886C80.2516 321.886 79.7662 322.059 79.4302 322.404C79.1036 322.749 78.8842 323.207 78.7722 323.776C78.6696 324.336 78.6182 325.022 78.6182 325.834C78.6182 326.674 78.6696 327.379 78.7722 327.948C78.8842 328.517 79.1036 328.975 79.4302 329.32C79.7662 329.665 80.2516 329.838 80.8862 329.838C81.5116 329.838 81.9876 329.665 82.3142 329.32C82.6502 328.975 82.8696 328.517 82.9722 327.948C83.0842 327.379 83.1402 326.674 83.1402 325.834ZM86.1493 325.834C86.1493 324.229 86.4106 322.978 86.9333 322.082C87.4559 321.177 88.3706 320.724 89.6773 320.724C90.9746 320.724 91.8846 321.177 92.4073 322.082C92.9299 322.978 93.1912 324.229 93.1912 325.834C93.1912 327.467 92.9299 328.737 92.4073 329.642C91.8846 330.547 90.9746 331 89.6773 331C88.3706 331 87.4559 330.547 86.9333 329.642C86.4106 328.737 86.1493 327.467 86.1493 325.834ZM91.9313 325.834C91.9313 325.022 91.8753 324.336 91.7633 323.776C91.6606 323.207 91.4413 322.749 91.1053 322.404C90.7786 322.059 90.3026 321.886 89.6773 321.886C89.0426 321.886 88.5573 322.059 88.2213 322.404C87.8946 322.749 87.6753 323.207 87.5633 323.776C87.4606 324.336 87.4093 325.022 87.4093 325.834C87.4093 326.674 87.4606 327.379 87.5633 327.948C87.6753 328.517 87.8946 328.975 88.2213 329.32C88.5573 329.665 89.0426 329.838 89.6773 329.838C90.3026 329.838 90.7786 329.665 91.1053 329.32C91.4413 328.975 91.6606 328.517 91.7633 327.948C91.8753 327.379 91.9313 326.674 91.9313 325.834Z" fill="#91908F"/>
<path d="M55.9277 326.408H94.0732V327.108H55.9277V326.408Z" fill="#91908F"/>
<mask id="path-33-inside-11_3268_8491" fill="white">
<path d="M158 308C158 303.582 161.582 300 166 300H300C304.418 300 308 303.582 308 308V344C308 348.418 304.418 352 300 352H166C161.582 352 158 348.418 158 344V308Z"/>
</mask>
<path d="M158 308C158 303.582 161.582 300 166 300H300C304.418 300 308 303.582 308 308V344C308 348.418 304.418 352 300 352H166C161.582 352 158 348.418 158 344V308Z" fill="#FAF8F7"/>
<path d="M166 300V301H300V300V299H166V300ZM308 308H307V344H308H309V308H308ZM300 352V351H166V352V353H300V352ZM158 344H159V308H158H157V344H158ZM166 352V351C162.134 351 159 347.866 159 344H158H157C157 348.971 161.029 353 166 353V352ZM308 344H307C307 347.866 303.866 351 300 351V352V353C304.971 353 309 348.971 309 344H308ZM300 300V301C303.866 301 307 304.134 307 308H308H309C309 303.029 304.971 299 300 299V300ZM166 300V299C161.029 299 157 303.029 157 308H158H159C159 304.134 162.134 301 166 301V300Z" fill="#CDCBCB" mask="url(#path-33-inside-11_3268_8491)"/>
<path d="M214.796 325.834C214.796 324.229 215.057 322.978 215.58 322.082C216.102 321.177 217.017 320.724 218.324 320.724C219.621 320.724 220.531 321.177 221.054 322.082C221.576 322.978 221.838 324.229 221.838 325.834C221.838 327.467 221.576 328.737 221.054 329.642C220.531 330.547 219.621 331 218.324 331C217.017 331 216.102 330.547 215.58 329.642C215.057 328.737 214.796 327.467 214.796 325.834ZM220.578 325.834C220.578 325.022 220.522 324.336 220.41 323.776C220.307 323.207 220.088 322.749 219.752 322.404C219.425 322.059 218.949 321.886 218.324 321.886C217.689 321.886 217.204 322.059 216.868 322.404C216.541 322.749 216.322 323.207 216.21 323.776C216.107 324.336 216.056 325.022 216.056 325.834C216.056 326.674 216.107 327.379 216.21 327.948C216.322 328.517 216.541 328.975 216.868 329.32C217.204 329.665 217.689 329.838 218.324 329.838C218.949 329.838 219.425 329.665 219.752 329.32C220.088 328.975 220.307 328.517 220.41 327.948C220.522 327.379 220.578 326.674 220.578 325.834ZM223.587 325.834C223.587 324.229 223.848 322.978 224.371 322.082C224.893 321.177 225.808 320.724 227.115 320.724C228.412 320.724 229.322 321.177 229.845 322.082C230.367 322.978 230.629 324.229 230.629 325.834C230.629 327.467 230.367 328.737 229.845 329.642C229.322 330.547 228.412 331 227.115 331C225.808 331 224.893 330.547 224.371 329.642C223.848 328.737 223.587 327.467 223.587 325.834ZM229.369 325.834C229.369 325.022 229.313 324.336 229.201 323.776C229.098 323.207 228.879 322.749 228.543 322.404C228.216 322.059 227.74 321.886 227.115 321.886C226.48 321.886 225.995 322.059 225.659 322.404C225.332 322.749 225.113 323.207 225.001 323.776C224.898 324.336 224.847 325.022 224.847 325.834C224.847 326.674 224.898 327.379 225.001 327.948C225.113 328.517 225.332 328.975 225.659 329.32C225.995 329.665 226.48 329.838 227.115 329.838C227.74 329.838 228.216 329.665 228.543 329.32C228.879 328.975 229.098 328.517 229.201 327.948C229.313 327.379 229.369 326.674 229.369 325.834ZM232.994 331.084C232.751 331.084 232.546 331 232.378 330.832C232.21 330.664 232.126 330.459 232.126 330.216C232.126 329.973 232.21 329.768 232.378 329.6C232.546 329.432 232.751 329.348 232.994 329.348C233.227 329.348 233.423 329.432 233.582 329.6C233.75 329.768 233.834 329.973 233.834 330.216C233.834 330.459 233.75 330.664 233.582 330.832C233.423 331 233.227 331.084 232.994 331.084ZM232.994 325.092C232.751 325.092 232.546 325.008 232.378 324.84C232.21 324.672 232.126 324.467 232.126 324.224C232.126 323.981 232.21 323.776 232.378 323.608C232.546 323.44 232.751 323.356 232.994 323.356C233.227 323.356 233.423 323.44 233.582 323.608C233.75 323.776 233.834 323.981 233.834 324.224C233.834 324.467 233.75 324.672 233.582 324.84C233.423 325.008 233.227 325.092 232.994 325.092ZM235.358 325.834C235.358 324.229 235.62 322.978 236.142 322.082C236.665 321.177 237.58 320.724 238.886 320.724C240.184 320.724 241.094 321.177 241.616 322.082C242.139 322.978 242.4 324.229 242.4 325.834C242.4 327.467 242.139 328.737 241.616 329.642C241.094 330.547 240.184 331 238.886 331C237.58 331 236.665 330.547 236.142 329.642C235.62 328.737 235.358 327.467 235.358 325.834ZM241.14 325.834C241.14 325.022 241.084 324.336 240.972 323.776C240.87 323.207 240.65 322.749 240.314 322.404C239.988 322.059 239.512 321.886 238.886 321.886C238.252 321.886 237.766 322.059 237.43 322.404C237.104 322.749 236.884 323.207 236.772 323.776C236.67 324.336 236.618 325.022 236.618 325.834C236.618 326.674 236.67 327.379 236.772 327.948C236.884 328.517 237.104 328.975 237.43 329.32C237.766 329.665 238.252 329.838 238.886 329.838C239.512 329.838 239.988 329.665 240.314 329.32C240.65 328.975 240.87 328.517 240.972 327.948C241.084 327.379 241.14 326.674 241.14 325.834ZM244.149 325.834C244.149 324.229 244.411 322.978 244.933 322.082C245.456 321.177 246.371 320.724 247.677 320.724C248.975 320.724 249.885 321.177 250.407 322.082C250.93 322.978 251.191 324.229 251.191 325.834C251.191 327.467 250.93 328.737 250.407 329.642C249.885 330.547 248.975 331 247.677 331C246.371 331 245.456 330.547 244.933 329.642C244.411 328.737 244.149 327.467 244.149 325.834ZM249.931 325.834C249.931 325.022 249.875 324.336 249.763 323.776C249.661 323.207 249.441 322.749 249.105 322.404C248.779 322.059 248.303 321.886 247.677 321.886C247.043 321.886 246.557 322.059 246.221 322.404C245.895 322.749 245.675 323.207 245.563 323.776C245.461 324.336 245.409 325.022 245.409 325.834C245.409 326.674 245.461 327.379 245.563 327.948C245.675 328.517 245.895 328.975 246.221 329.32C246.557 329.665 247.043 329.838 247.677 329.838C248.303 329.838 248.779 329.665 249.105 329.32C249.441 328.975 249.661 328.517 249.763 327.948C249.875 327.379 249.931 326.674 249.931 325.834Z" fill="#91908F"/>
<path d="M213.928 326.408H252.073V327.108H213.928V326.408Z" fill="#91908F"/>
<mask id="path-36-inside-12_3268_8491" fill="white">
<path d="M0 368C0 363.582 3.58172 360 8 360H142C146.418 360 150 363.582 150 368V404C150 408.418 146.418 412 142 412H8C3.58172 412 0 408.418 0 404V368Z"/>
</mask>
<path d="M0 368C0 363.582 3.58172 360 8 360H142C146.418 360 150 363.582 150 368V404C150 408.418 146.418 412 142 412H8C3.58172 412 0 408.418 0 404V368Z" fill="#FAF8F7"/>
<path d="M8 360V361H142V360V359H8V360ZM150 368H149V404H150H151V368H150ZM142 412V411H8V412V413H142V412ZM0 404H1V368H0H-1V404H0ZM8 412V411C4.13401 411 1 407.866 1 404H0H-1C-1 408.971 3.02944 413 8 413V412ZM150 404H149C149 407.866 145.866 411 142 411V412V413C146.971 413 151 408.971 151 404H150ZM142 360V361C145.866 361 149 364.134 149 368H150H151C151 363.029 146.971 359 142 359V360ZM8 360V359C3.02944 359 -1 363.029 -1 368H0H1C1 364.134 4.13401 361 8 361V360Z" fill="#CDCBCB" mask="url(#path-36-inside-12_3268_8491)"/>
<path d="M56.7957 385.834C56.7957 384.229 57.0571 382.978 57.5797 382.082C58.1024 381.177 59.0171 380.724 60.3237 380.724C61.6211 380.724 62.5311 381.177 63.0537 382.082C63.5764 382.978 63.8377 384.229 63.8377 385.834C63.8377 387.467 63.5764 388.737 63.0537 389.642C62.5311 390.547 61.6211 391 60.3237 391C59.0171 391 58.1024 390.547 57.5797 389.642C57.0571 388.737 56.7957 387.467 56.7957 385.834ZM62.5777 385.834C62.5777 385.022 62.5217 384.336 62.4097 383.776C62.3071 383.207 62.0877 382.749 61.7517 382.404C61.4251 382.059 60.9491 381.886 60.3237 381.886C59.6891 381.886 59.2037 382.059 58.8677 382.404C58.5411 382.749 58.3217 383.207 58.2097 383.776C58.1071 384.336 58.0557 385.022 58.0557 385.834C58.0557 386.674 58.1071 387.379 58.2097 387.948C58.3217 388.517 58.5411 388.975 58.8677 389.32C59.2037 389.665 59.6891 389.838 60.3237 389.838C60.9491 389.838 61.4251 389.665 61.7517 389.32C62.0877 388.975 62.3071 388.517 62.4097 387.948C62.5217 387.379 62.5777 386.674 62.5777 385.834ZM65.5868 385.834C65.5868 384.229 65.8481 382.978 66.3708 382.082C66.8934 381.177 67.8081 380.724 69.1148 380.724C70.4121 380.724 71.3221 381.177 71.8448 382.082C72.3674 382.978 72.6287 384.229 72.6287 385.834C72.6287 387.467 72.3674 388.737 71.8448 389.642C71.3221 390.547 70.4121 391 69.1148 391C67.8081 391 66.8934 390.547 66.3708 389.642C65.8481 388.737 65.5868 387.467 65.5868 385.834ZM71.3688 385.834C71.3688 385.022 71.3128 384.336 71.2008 383.776C71.0981 383.207 70.8788 382.749 70.5428 382.404C70.2161 382.059 69.7401 381.886 69.1148 381.886C68.4801 381.886 67.9948 382.059 67.6588 382.404C67.3321 382.749 67.1128 383.207 67.0008 383.776C66.8981 384.336 66.8468 385.022 66.8468 385.834C66.8468 386.674 66.8981 387.379 67.0008 387.948C67.1128 388.517 67.3321 388.975 67.6588 389.32C67.9948 389.665 68.4801 389.838 69.1148 389.838C69.7401 389.838 70.2161 389.665 70.5428 389.32C70.8788 388.975 71.0981 388.517 71.2008 387.948C71.3128 387.379 71.3688 386.674 71.3688 385.834ZM74.9938 391.084C74.7511 391.084 74.5458 391 74.3778 390.832C74.2098 390.664 74.1258 390.459 74.1258 390.216C74.1258 389.973 74.2098 389.768 74.3778 389.6C74.5458 389.432 74.7511 389.348 74.9938 389.348C75.2271 389.348 75.4231 389.432 75.5818 389.6C75.7498 389.768 75.8338 389.973 75.8338 390.216C75.8338 390.459 75.7498 390.664 75.5818 390.832C75.4231 391 75.2271 391.084 74.9938 391.084ZM74.9938 385.092C74.7511 385.092 74.5458 385.008 74.3778 384.84C74.2098 384.672 74.1258 384.467 74.1258 384.224C74.1258 383.981 74.2098 383.776 74.3778 383.608C74.5458 383.44 74.7511 383.356 74.9938 383.356C75.2271 383.356 75.4231 383.44 75.5818 383.608C75.7498 383.776 75.8338 383.981 75.8338 384.224C75.8338 384.467 75.7498 384.672 75.5818 384.84C75.4231 385.008 75.2271 385.092 74.9938 385.092ZM77.3582 385.834C77.3582 384.229 77.6196 382.978 78.1422 382.082C78.6649 381.177 79.5796 380.724 80.8862 380.724C82.1836 380.724 83.0936 381.177 83.6162 382.082C84.1389 382.978 84.4002 384.229 84.4002 385.834C84.4002 387.467 84.1389 388.737 83.6162 389.642C83.0936 390.547 82.1836 391 80.8862 391C79.5796 391 78.6649 390.547 78.1422 389.642C77.6196 388.737 77.3582 387.467 77.3582 385.834ZM83.1402 385.834C83.1402 385.022 83.0842 384.336 82.9722 383.776C82.8696 383.207 82.6502 382.749 82.3142 382.404C81.9876 382.059 81.5116 381.886 80.8862 381.886C80.2516 381.886 79.7662 382.059 79.4302 382.404C79.1036 382.749 78.8842 383.207 78.7722 383.776C78.6696 384.336 78.6182 385.022 78.6182 385.834C78.6182 386.674 78.6696 387.379 78.7722 387.948C78.8842 388.517 79.1036 388.975 79.4302 389.32C79.7662 389.665 80.2516 389.838 80.8862 389.838C81.5116 389.838 81.9876 389.665 82.3142 389.32C82.6502 388.975 82.8696 388.517 82.9722 387.948C83.0842 387.379 83.1402 386.674 83.1402 385.834ZM86.1493 385.834C86.1493 384.229 86.4106 382.978 86.9333 382.082C87.4559 381.177 88.3706 380.724 89.6773 380.724C90.9746 380.724 91.8846 381.177 92.4073 382.082C92.9299 382.978 93.1912 384.229 93.1912 385.834C93.1912 387.467 92.9299 388.737 92.4073 389.642C91.8846 390.547 90.9746 391 89.6773 391C88.3706 391 87.4559 390.547 86.9333 389.642C86.4106 388.737 86.1493 387.467 86.1493 385.834ZM91.9313 385.834C91.9313 385.022 91.8753 384.336 91.7633 383.776C91.6606 383.207 91.4413 382.749 91.1053 382.404C90.7786 382.059 90.3026 381.886 89.6773 381.886C89.0426 381.886 88.5573 382.059 88.2213 382.404C87.8946 382.749 87.6753 383.207 87.5633 383.776C87.4606 384.336 87.4093 385.022 87.4093 385.834C87.4093 386.674 87.4606 387.379 87.5633 387.948C87.6753 388.517 87.8946 388.975 88.2213 389.32C88.5573 389.665 89.0426 389.838 89.6773 389.838C90.3026 389.838 90.7786 389.665 91.1053 389.32C91.4413 388.975 91.6606 388.517 91.7633 387.948C91.8753 387.379 91.9313 386.674 91.9313 385.834Z" fill="#91908F"/>
<path d="M55.9277 386.408H94.0732V387.108H55.9277V386.408Z" fill="#91908F"/>
<mask id="path-39-inside-13_3268_8491" fill="white">
<path d="M158 368C158 363.582 161.582 360 166 360H300C304.418 360 308 363.582 308 368V404C308 408.418 304.418 412 300 412H166C161.582 412 158 408.418 158 404V368Z"/>
</mask>
<path d="M158 368C158 363.582 161.582 360 166 360H300C304.418 360 308 363.582 308 368V404C308 408.418 304.418 412 300 412H166C161.582 412 158 408.418 158 404V368Z" fill="#FAF8F7"/>
<path d="M166 360V361H300V360V359H166V360ZM308 368H307V404H308H309V368H308ZM300 412V411H166V412V413H300V412ZM158 404H159V368H158H157V404H158ZM166 412V411C162.134 411 159 407.866 159 404H158H157C157 408.971 161.029 413 166 413V412ZM308 404H307C307 407.866 303.866 411 300 411V412V413C304.971 413 309 408.971 309 404H308ZM300 360V361C303.866 361 307 364.134 307 368H308H309C309 363.029 304.971 359 300 359V360ZM166 360V359C161.029 359 157 363.029 157 368H158H159C159 364.134 162.134 361 166 361V360Z" fill="#CDCBCB" mask="url(#path-39-inside-13_3268_8491)"/>
<path d="M214.796 385.834C214.796 384.229 215.057 382.978 215.58 382.082C216.102 381.177 217.017 380.724 218.324 380.724C219.621 380.724 220.531 381.177 221.054 382.082C221.576 382.978 221.838 384.229 221.838 385.834C221.838 387.467 221.576 388.737 221.054 389.642C220.531 390.547 219.621 391 218.324 391C217.017 391 216.102 390.547 215.58 389.642C215.057 388.737 214.796 387.467 214.796 385.834ZM220.578 385.834C220.578 385.022 220.522 384.336 220.41 383.776C220.307 383.207 220.088 382.749 219.752 382.404C219.425 382.059 218.949 381.886 218.324 381.886C217.689 381.886 217.204 382.059 216.868 382.404C216.541 382.749 216.322 383.207 216.21 383.776C216.107 384.336 216.056 385.022 216.056 385.834C216.056 386.674 216.107 387.379 216.21 387.948C216.322 388.517 216.541 388.975 216.868 389.32C217.204 389.665 217.689 389.838 218.324 389.838C218.949 389.838 219.425 389.665 219.752 389.32C220.088 388.975 220.307 388.517 220.41 387.948C220.522 387.379 220.578 386.674 220.578 385.834ZM223.587 385.834C223.587 384.229 223.848 382.978 224.371 382.082C224.893 381.177 225.808 380.724 227.115 380.724C228.412 380.724 229.322 381.177 229.845 382.082C230.367 382.978 230.629 384.229 230.629 385.834C230.629 387.467 230.367 388.737 229.845 389.642C229.322 390.547 228.412 391 227.115 391C225.808 391 224.893 390.547 224.371 389.642C223.848 388.737 223.587 387.467 223.587 385.834ZM229.369 385.834C229.369 385.022 229.313 384.336 229.201 383.776C229.098 383.207 228.879 382.749 228.543 382.404C228.216 382.059 227.74 381.886 227.115 381.886C226.48 381.886 225.995 382.059 225.659 382.404C225.332 382.749 225.113 383.207 225.001 383.776C224.898 384.336 224.847 385.022 224.847 385.834C224.847 386.674 224.898 387.379 225.001 387.948C225.113 388.517 225.332 388.975 225.659 389.32C225.995 389.665 226.48 389.838 227.115 389.838C227.74 389.838 228.216 389.665 228.543 389.32C228.879 388.975 229.098 388.517 229.201 387.948C229.313 387.379 229.369 386.674 229.369 385.834ZM232.994 391.084C232.751 391.084 232.546 391 232.378 390.832C232.21 390.664 232.126 390.459 232.126 390.216C232.126 389.973 232.21 389.768 232.378 389.6C232.546 389.432 232.751 389.348 232.994 389.348C233.227 389.348 233.423 389.432 233.582 389.6C233.75 389.768 233.834 389.973 233.834 390.216C233.834 390.459 233.75 390.664 233.582 390.832C233.423 391 233.227 391.084 232.994 391.084ZM232.994 385.092C232.751 385.092 232.546 385.008 232.378 384.84C232.21 384.672 232.126 384.467 232.126 384.224C232.126 383.981 232.21 383.776 232.378 383.608C232.546 383.44 232.751 383.356 232.994 383.356C233.227 383.356 233.423 383.44 233.582 383.608C233.75 383.776 233.834 383.981 233.834 384.224C233.834 384.467 233.75 384.672 233.582 384.84C233.423 385.008 233.227 385.092 232.994 385.092ZM235.358 385.834C235.358 384.229 235.62 382.978 236.142 382.082C236.665 381.177 237.58 380.724 238.886 380.724C240.184 380.724 241.094 381.177 241.616 382.082C242.139 382.978 242.4 384.229 242.4 385.834C242.4 387.467 242.139 388.737 241.616 389.642C241.094 390.547 240.184 391 238.886 391C237.58 391 236.665 390.547 236.142 389.642C235.62 388.737 235.358 387.467 235.358 385.834ZM241.14 385.834C241.14 385.022 241.084 384.336 240.972 383.776C240.87 383.207 240.65 382.749 240.314 382.404C239.988 382.059 239.512 381.886 238.886 381.886C238.252 381.886 237.766 382.059 237.43 382.404C237.104 382.749 236.884 383.207 236.772 383.776C236.67 384.336 236.618 385.022 236.618 385.834C236.618 386.674 236.67 387.379 236.772 387.948C236.884 388.517 237.104 388.975 237.43 389.32C237.766 389.665 238.252 389.838 238.886 389.838C239.512 389.838 239.988 389.665 240.314 389.32C240.65 388.975 240.87 388.517 240.972 387.948C241.084 387.379 241.14 386.674 241.14 385.834ZM244.149 385.834C244.149 384.229 244.411 382.978 244.933 382.082C245.456 381.177 246.371 380.724 247.677 380.724C248.975 380.724 249.885 381.177 250.407 382.082C250.93 382.978 251.191 384.229 251.191 385.834C251.191 387.467 250.93 388.737 250.407 389.642C249.885 390.547 248.975 391 247.677 391C246.371 391 245.456 390.547 244.933 389.642C244.411 388.737 244.149 387.467 244.149 385.834ZM249.931 385.834C249.931 385.022 249.875 384.336 249.763 383.776C249.661 383.207 249.441 382.749 249.105 382.404C248.779 382.059 248.303 381.886 247.677 381.886C247.043 381.886 246.557 382.059 246.221 382.404C245.895 382.749 245.675 383.207 245.563 383.776C245.461 384.336 245.409 385.022 245.409 385.834C245.409 386.674 245.461 387.379 245.563 387.948C245.675 388.517 245.895 388.975 246.221 389.32C246.557 389.665 247.043 389.838 247.677 389.838C248.303 389.838 248.779 389.665 249.105 389.32C249.441 388.975 249.661 388.517 249.763 387.948C249.875 387.379 249.931 386.674 249.931 385.834Z" fill="#91908F"/>
<path d="M213.928 386.408H252.073V387.108H213.928V386.408Z" fill="#91908F"/>
<mask id="path-42-inside-14_3268_8491" fill="white">
<path d="M0 428C0 423.582 3.58172 420 8 420H142C146.418 420 150 423.582 150 428V464C150 468.418 146.418 472 142 472H8C3.58172 472 0 468.418 0 464V428Z"/>
</mask>
<path d="M0 428C0 423.582 3.58172 420 8 420H142C146.418 420 150 423.582 150 428V464C150 468.418 146.418 472 142 472H8C3.58172 472 0 468.418 0 464V428Z" fill="#FAF8F7"/>
<path d="M8 420V421H142V420V419H8V420ZM150 428H149V464H150H151V428H150ZM142 472V471H8V472V473H142V472ZM0 464H1V428H0H-1V464H0ZM8 472V471C4.13401 471 1 467.866 1 464H0H-1C-1 468.971 3.02944 473 8 473V472ZM150 464H149C149 467.866 145.866 471 142 471V472V473C146.971 473 151 468.971 151 464H150ZM142 420V421C145.866 421 149 424.134 149 428H150H151C151 423.029 146.971 419 142 419V420ZM8 420V419C3.02944 419 -1 423.029 -1 428H0H1C1 424.134 4.13401 421 8 421V420Z" fill="#CDCBCB" mask="url(#path-42-inside-14_3268_8491)"/>
<path d="M56.7957 445.834C56.7957 444.229 57.0571 442.978 57.5797 442.082C58.1024 441.177 59.0171 440.724 60.3237 440.724C61.6211 440.724 62.5311 441.177 63.0537 442.082C63.5764 442.978 63.8377 444.229 63.8377 445.834C63.8377 447.467 63.5764 448.737 63.0537 449.642C62.5311 450.547 61.6211 451 60.3237 451C59.0171 451 58.1024 450.547 57.5797 449.642C57.0571 448.737 56.7957 447.467 56.7957 445.834ZM62.5777 445.834C62.5777 445.022 62.5217 444.336 62.4097 443.776C62.3071 443.207 62.0877 442.749 61.7517 442.404C61.4251 442.059 60.9491 441.886 60.3237 441.886C59.6891 441.886 59.2037 442.059 58.8677 442.404C58.5411 442.749 58.3217 443.207 58.2097 443.776C58.1071 444.336 58.0557 445.022 58.0557 445.834C58.0557 446.674 58.1071 447.379 58.2097 447.948C58.3217 448.517 58.5411 448.975 58.8677 449.32C59.2037 449.665 59.6891 449.838 60.3237 449.838C60.9491 449.838 61.4251 449.665 61.7517 449.32C62.0877 448.975 62.3071 448.517 62.4097 447.948C62.5217 447.379 62.5777 446.674 62.5777 445.834ZM65.5868 445.834C65.5868 444.229 65.8481 442.978 66.3708 442.082C66.8934 441.177 67.8081 440.724 69.1148 440.724C70.4121 440.724 71.3221 441.177 71.8448 442.082C72.3674 442.978 72.6287 444.229 72.6287 445.834C72.6287 447.467 72.3674 448.737 71.8448 449.642C71.3221 450.547 70.4121 451 69.1148 451C67.8081 451 66.8934 450.547 66.3708 449.642C65.8481 448.737 65.5868 447.467 65.5868 445.834ZM71.3688 445.834C71.3688 445.022 71.3128 444.336 71.2008 443.776C71.0981 443.207 70.8788 442.749 70.5428 442.404C70.2161 442.059 69.7401 441.886 69.1148 441.886C68.4801 441.886 67.9948 442.059 67.6588 442.404C67.3321 442.749 67.1128 443.207 67.0008 443.776C66.8981 444.336 66.8468 445.022 66.8468 445.834C66.8468 446.674 66.8981 447.379 67.0008 447.948C67.1128 448.517 67.3321 448.975 67.6588 449.32C67.9948 449.665 68.4801 449.838 69.1148 449.838C69.7401 449.838 70.2161 449.665 70.5428 449.32C70.8788 448.975 71.0981 448.517 71.2008 447.948C71.3128 447.379 71.3688 446.674 71.3688 445.834ZM74.9938 451.084C74.7511 451.084 74.5458 451 74.3778 450.832C74.2098 450.664 74.1258 450.459 74.1258 450.216C74.1258 449.973 74.2098 449.768 74.3778 449.6C74.5458 449.432 74.7511 449.348 74.9938 449.348C75.2271 449.348 75.4231 449.432 75.5818 449.6C75.7498 449.768 75.8338 449.973 75.8338 450.216C75.8338 450.459 75.7498 450.664 75.5818 450.832C75.4231 451 75.2271 451.084 74.9938 451.084ZM74.9938 445.092C74.7511 445.092 74.5458 445.008 74.3778 444.84C74.2098 444.672 74.1258 444.467 74.1258 444.224C74.1258 443.981 74.2098 443.776 74.3778 443.608C74.5458 443.44 74.7511 443.356 74.9938 443.356C75.2271 443.356 75.4231 443.44 75.5818 443.608C75.7498 443.776 75.8338 443.981 75.8338 444.224C75.8338 444.467 75.7498 444.672 75.5818 444.84C75.4231 445.008 75.2271 445.092 74.9938 445.092ZM77.3582 445.834C77.3582 444.229 77.6196 442.978 78.1422 442.082C78.6649 441.177 79.5796 440.724 80.8862 440.724C82.1836 440.724 83.0936 441.177 83.6162 442.082C84.1389 442.978 84.4002 444.229 84.4002 445.834C84.4002 447.467 84.1389 448.737 83.6162 449.642C83.0936 450.547 82.1836 451 80.8862 451C79.5796 451 78.6649 450.547 78.1422 449.642C77.6196 448.737 77.3582 447.467 77.3582 445.834ZM83.1402 445.834C83.1402 445.022 83.0842 444.336 82.9722 443.776C82.8696 443.207 82.6502 442.749 82.3142 442.404C81.9876 442.059 81.5116 441.886 80.8862 441.886C80.2516 441.886 79.7662 442.059 79.4302 442.404C79.1036 442.749 78.8842 443.207 78.7722 443.776C78.6696 444.336 78.6182 445.022 78.6182 445.834C78.6182 446.674 78.6696 447.379 78.7722 447.948C78.8842 448.517 79.1036 448.975 79.4302 449.32C79.7662 449.665 80.2516 449.838 80.8862 449.838C81.5116 449.838 81.9876 449.665 82.3142 449.32C82.6502 448.975 82.8696 448.517 82.9722 447.948C83.0842 447.379 83.1402 446.674 83.1402 445.834ZM86.1493 445.834C86.1493 444.229 86.4106 442.978 86.9333 442.082C87.4559 441.177 88.3706 440.724 89.6773 440.724C90.9746 440.724 91.8846 441.177 92.4073 442.082C92.9299 442.978 93.1912 444.229 93.1912 445.834C93.1912 447.467 92.9299 448.737 92.4073 449.642C91.8846 450.547 90.9746 451 89.6773 451C88.3706 451 87.4559 450.547 86.9333 449.642C86.4106 448.737 86.1493 447.467 86.1493 445.834ZM91.9313 445.834C91.9313 445.022 91.8753 444.336 91.7633 443.776C91.6606 443.207 91.4413 442.749 91.1053 442.404C90.7786 442.059 90.3026 441.886 89.6773 441.886C89.0426 441.886 88.5573 442.059 88.2213 442.404C87.8946 442.749 87.6753 443.207 87.5633 443.776C87.4606 444.336 87.4093 445.022 87.4093 445.834C87.4093 446.674 87.4606 447.379 87.5633 447.948C87.6753 448.517 87.8946 448.975 88.2213 449.32C88.5573 449.665 89.0426 449.838 89.6773 449.838C90.3026 449.838 90.7786 449.665 91.1053 449.32C91.4413 448.975 91.6606 448.517 91.7633 447.948C91.8753 447.379 91.9313 446.674 91.9313 445.834Z" fill="#91908F"/>
<path d="M55.9277 446.408H94.0732V447.108H55.9277V446.408Z" fill="#91908F"/>
<mask id="path-45-inside-15_3268_8491" fill="white">
<path d="M158 428C158 423.582 161.582 420 166 420H300C304.418 420 308 423.582 308 428V464C308 468.418 304.418 472 300 472H166C161.582 472 158 468.418 158 464V428Z"/>
</mask>
<path d="M158 428C158 423.582 161.582 420 166 420H300C304.418 420 308 423.582 308 428V464C308 468.418 304.418 472 300 472H166C161.582 472 158 468.418 158 464V428Z" fill="#FAF8F7"/>
<path d="M166 420V421H300V420V419H166V420ZM308 428H307V464H308H309V428H308ZM300 472V471H166V472V473H300V472ZM158 464H159V428H158H157V464H158ZM166 472V471C162.134 471 159 467.866 159 464H158H157C157 468.971 161.029 473 166 473V472ZM308 464H307C307 467.866 303.866 471 300 471V472V473C304.971 473 309 468.971 309 464H308ZM300 420V421C303.866 421 307 424.134 307 428H308H309C309 423.029 304.971 419 300 419V420ZM166 420V419C161.029 419 157 423.029 157 428H158H159C159 424.134 162.134 421 166 421V420Z" fill="#CDCBCB" mask="url(#path-45-inside-15_3268_8491)"/>
<path d="M214.796 445.834C214.796 444.229 215.057 442.978 215.58 442.082C216.102 441.177 217.017 440.724 218.324 440.724C219.621 440.724 220.531 441.177 221.054 442.082C221.576 442.978 221.838 444.229 221.838 445.834C221.838 447.467 221.576 448.737 221.054 449.642C220.531 450.547 219.621 451 218.324 451C217.017 451 216.102 450.547 215.58 449.642C215.057 448.737 214.796 447.467 214.796 445.834ZM220.578 445.834C220.578 445.022 220.522 444.336 220.41 443.776C220.307 443.207 220.088 442.749 219.752 442.404C219.425 442.059 218.949 441.886 218.324 441.886C217.689 441.886 217.204 442.059 216.868 442.404C216.541 442.749 216.322 443.207 216.21 443.776C216.107 444.336 216.056 445.022 216.056 445.834C216.056 446.674 216.107 447.379 216.21 447.948C216.322 448.517 216.541 448.975 216.868 449.32C217.204 449.665 217.689 449.838 218.324 449.838C218.949 449.838 219.425 449.665 219.752 449.32C220.088 448.975 220.307 448.517 220.41 447.948C220.522 447.379 220.578 446.674 220.578 445.834ZM223.587 445.834C223.587 444.229 223.848 442.978 224.371 442.082C224.893 441.177 225.808 440.724 227.115 440.724C228.412 440.724 229.322 441.177 229.845 442.082C230.367 442.978 230.629 444.229 230.629 445.834C230.629 447.467 230.367 448.737 229.845 449.642C229.322 450.547 228.412 451 227.115 451C225.808 451 224.893 450.547 224.371 449.642C223.848 448.737 223.587 447.467 223.587 445.834ZM229.369 445.834C229.369 445.022 229.313 444.336 229.201 443.776C229.098 443.207 228.879 442.749 228.543 442.404C228.216 442.059 227.74 441.886 227.115 441.886C226.48 441.886 225.995 442.059 225.659 442.404C225.332 442.749 225.113 443.207 225.001 443.776C224.898 444.336 224.847 445.022 224.847 445.834C224.847 446.674 224.898 447.379 225.001 447.948C225.113 448.517 225.332 448.975 225.659 449.32C225.995 449.665 226.48 449.838 227.115 449.838C227.74 449.838 228.216 449.665 228.543 449.32C228.879 448.975 229.098 448.517 229.201 447.948C229.313 447.379 229.369 446.674 229.369 445.834ZM232.994 451.084C232.751 451.084 232.546 451 232.378 450.832C232.21 450.664 232.126 450.459 232.126 450.216C232.126 449.973 232.21 449.768 232.378 449.6C232.546 449.432 232.751 449.348 232.994 449.348C233.227 449.348 233.423 449.432 233.582 449.6C233.75 449.768 233.834 449.973 233.834 450.216C233.834 450.459 233.75 450.664 233.582 450.832C233.423 451 233.227 451.084 232.994 451.084ZM232.994 445.092C232.751 445.092 232.546 445.008 232.378 444.84C232.21 444.672 232.126 444.467 232.126 444.224C232.126 443.981 232.21 443.776 232.378 443.608C232.546 443.44 232.751 443.356 232.994 443.356C233.227 443.356 233.423 443.44 233.582 443.608C233.75 443.776 233.834 443.981 233.834 444.224C233.834 444.467 233.75 444.672 233.582 444.84C233.423 445.008 233.227 445.092 232.994 445.092ZM235.358 445.834C235.358 444.229 235.62 442.978 236.142 442.082C236.665 441.177 237.58 440.724 238.886 440.724C240.184 440.724 241.094 441.177 241.616 442.082C242.139 442.978 242.4 444.229 242.4 445.834C242.4 447.467 242.139 448.737 241.616 449.642C241.094 450.547 240.184 451 238.886 451C237.58 451 236.665 450.547 236.142 449.642C235.62 448.737 235.358 447.467 235.358 445.834ZM241.14 445.834C241.14 445.022 241.084 444.336 240.972 443.776C240.87 443.207 240.65 442.749 240.314 442.404C239.988 442.059 239.512 441.886 238.886 441.886C238.252 441.886 237.766 442.059 237.43 442.404C237.104 442.749 236.884 443.207 236.772 443.776C236.67 444.336 236.618 445.022 236.618 445.834C236.618 446.674 236.67 447.379 236.772 447.948C236.884 448.517 237.104 448.975 237.43 449.32C237.766 449.665 238.252 449.838 238.886 449.838C239.512 449.838 239.988 449.665 240.314 449.32C240.65 448.975 240.87 448.517 240.972 447.948C241.084 447.379 241.14 446.674 241.14 445.834ZM244.149 445.834C244.149 444.229 244.411 442.978 244.933 442.082C245.456 441.177 246.371 440.724 247.677 440.724C248.975 440.724 249.885 441.177 250.407 442.082C250.93 442.978 251.191 444.229 251.191 445.834C251.191 447.467 250.93 448.737 250.407 449.642C249.885 450.547 248.975 451 247.677 451C246.371 451 245.456 450.547 244.933 449.642C244.411 448.737 244.149 447.467 244.149 445.834ZM249.931 445.834C249.931 445.022 249.875 444.336 249.763 443.776C249.661 443.207 249.441 442.749 249.105 442.404C248.779 442.059 248.303 441.886 247.677 441.886C247.043 441.886 246.557 442.059 246.221 442.404C245.895 442.749 245.675 443.207 245.563 443.776C245.461 444.336 245.409 445.022 245.409 445.834C245.409 446.674 245.461 447.379 245.563 447.948C245.675 448.517 245.895 448.975 246.221 449.32C246.557 449.665 247.043 449.838 247.677 449.838C248.303 449.838 248.779 449.665 249.105 449.32C249.441 448.975 249.661 448.517 249.763 447.948C249.875 447.379 249.931 446.674 249.931 445.834Z" fill="#91908F"/>
<path d="M213.928 446.408H252.073V447.108H213.928V446.408Z" fill="#91908F"/>
</svg>
