<svg width="308" height="112" viewBox="0 0 308 112" fill="none" xmlns="http://www.w3.org/2000/svg">
<mask id="path-1-inside-1_2027_5970" fill="white">
<path d="M0 8C0 3.58172 3.58172 0 8 0H142C146.418 0 150 3.58172 150 8V44C150 48.4183 146.418 52 142 52H8C3.58172 52 0 48.4183 0 44V8Z"/>
</mask>
<path d="M0 8C0 3.58172 3.58172 0 8 0H142C146.418 0 150 3.58172 150 8V44C150 48.4183 146.418 52 142 52H8C3.58172 52 0 48.4183 0 44V8Z" fill="#FAF8F7"/>
<path d="M8 0V1H142V0V-1H8V0ZM150 8H149V44H150H151V8H150ZM142 52V51H8V52V53H142V52ZM0 44H1V8H0H-1V44H0ZM8 52V51C4.13401 51 1 47.866 1 44H0H-1C-1 48.9706 3.02944 53 8 53V52ZM150 44H149C149 47.866 145.866 51 142 51V52V53C146.971 53 151 48.9706 151 44H150ZM142 0V1C145.866 1 149 4.13401 149 8H150H151C151 3.02944 146.971 -1 142 -1V0ZM8 0V-1C3.02944 -1 -1 3.02944 -1 8H0H1C1 4.13401 4.13401 1 8 1V0Z" fill="#CDCBCB" mask="url(#path-1-inside-1_2027_5970)"/>
<path d="M56.7956 25.834C56.7956 24.2287 57.0569 22.978 57.5796 22.082C58.1023 21.1767 59.0169 20.724 60.3236 20.724C61.6209 20.724 62.5309 21.1767 63.0536 22.082C63.5763 22.978 63.8376 24.2287 63.8376 25.834C63.8376 27.4673 63.5763 28.7367 63.0536 29.642C62.5309 30.5473 61.6209 31 60.3236 31C59.0169 31 58.1023 30.5473 57.5796 29.642C57.0569 28.7367 56.7956 27.4673 56.7956 25.834ZM62.5776 25.834C62.5776 25.022 62.5216 24.336 62.4096 23.776C62.3069 23.2067 62.0876 22.7493 61.7516 22.404C61.4249 22.0587 60.9489 21.886 60.3236 21.886C59.6889 21.886 59.2036 22.0587 58.8676 22.404C58.5409 22.7493 58.3216 23.2067 58.2096 23.776C58.1069 24.336 58.0556 25.022 58.0556 25.834C58.0556 26.674 58.1069 27.3787 58.2096 27.948C58.3216 28.5173 58.5409 28.9747 58.8676 29.32C59.2036 29.6653 59.6889 29.838 60.3236 29.838C60.9489 29.838 61.4249 29.6653 61.7516 29.32C62.0876 28.9747 62.3069 28.5173 62.4096 27.948C62.5216 27.3787 62.5776 26.674 62.5776 25.834ZM65.5866 25.834C65.5866 24.2287 65.848 22.978 66.3706 22.082C66.8933 21.1767 67.808 20.724 69.1146 20.724C70.412 20.724 71.322 21.1767 71.8446 22.082C72.3673 22.978 72.6286 24.2287 72.6286 25.834C72.6286 27.4673 72.3673 28.7367 71.8446 29.642C71.322 30.5473 70.412 31 69.1146 31C67.808 31 66.8933 30.5473 66.3706 29.642C65.848 28.7367 65.5866 27.4673 65.5866 25.834ZM71.3686 25.834C71.3686 25.022 71.3126 24.336 71.2006 23.776C71.098 23.2067 70.8786 22.7493 70.5426 22.404C70.216 22.0587 69.74 21.886 69.1146 21.886C68.48 21.886 67.9946 22.0587 67.6586 22.404C67.332 22.7493 67.1126 23.2067 67.0006 23.776C66.898 24.336 66.8466 25.022 66.8466 25.834C66.8466 26.674 66.898 27.3787 67.0006 27.948C67.1126 28.5173 67.332 28.9747 67.6586 29.32C67.9946 29.6653 68.48 29.838 69.1146 29.838C69.74 29.838 70.216 29.6653 70.5426 29.32C70.8786 28.9747 71.098 28.5173 71.2006 27.948C71.3126 27.3787 71.3686 26.674 71.3686 25.834ZM74.9936 31.084C74.751 31.084 74.5456 31 74.3776 30.832C74.2096 30.664 74.1256 30.4587 74.1256 30.216C74.1256 29.9733 74.2096 29.768 74.3776 29.6C74.5456 29.432 74.751 29.348 74.9936 29.348C75.227 29.348 75.423 29.432 75.5816 29.6C75.7496 29.768 75.8336 29.9733 75.8336 30.216C75.8336 30.4587 75.7496 30.664 75.5816 30.832C75.423 31 75.227 31.084 74.9936 31.084ZM74.9936 25.092C74.751 25.092 74.5456 25.008 74.3776 24.84C74.2096 24.672 74.1256 24.4667 74.1256 24.224C74.1256 23.9813 74.2096 23.776 74.3776 23.608C74.5456 23.44 74.751 23.356 74.9936 23.356C75.227 23.356 75.423 23.44 75.5816 23.608C75.7496 23.776 75.8336 23.9813 75.8336 24.224C75.8336 24.4667 75.7496 24.672 75.5816 24.84C75.423 25.008 75.227 25.092 74.9936 25.092ZM77.3581 25.834C77.3581 24.2287 77.6194 22.978 78.1421 22.082C78.6648 21.1767 79.5794 20.724 80.8861 20.724C82.1834 20.724 83.0934 21.1767 83.6161 22.082C84.1388 22.978 84.4001 24.2287 84.4001 25.834C84.4001 27.4673 84.1388 28.7367 83.6161 29.642C83.0934 30.5473 82.1834 31 80.8861 31C79.5794 31 78.6648 30.5473 78.1421 29.642C77.6194 28.7367 77.3581 27.4673 77.3581 25.834ZM83.1401 25.834C83.1401 25.022 83.0841 24.336 82.9721 23.776C82.8694 23.2067 82.6501 22.7493 82.3141 22.404C81.9874 22.0587 81.5114 21.886 80.8861 21.886C80.2514 21.886 79.7661 22.0587 79.4301 22.404C79.1034 22.7493 78.8841 23.2067 78.7721 23.776C78.6694 24.336 78.6181 25.022 78.6181 25.834C78.6181 26.674 78.6694 27.3787 78.7721 27.948C78.8841 28.5173 79.1034 28.9747 79.4301 29.32C79.7661 29.6653 80.2514 29.838 80.8861 29.838C81.5114 29.838 81.9874 29.6653 82.3141 29.32C82.6501 28.9747 82.8694 28.5173 82.9721 27.948C83.0841 27.3787 83.1401 26.674 83.1401 25.834ZM86.1491 25.834C86.1491 24.2287 86.4105 22.978 86.9331 22.082C87.4558 21.1767 88.3705 20.724 89.6771 20.724C90.9745 20.724 91.8845 21.1767 92.4071 22.082C92.9298 22.978 93.1911 24.2287 93.1911 25.834C93.1911 27.4673 92.9298 28.7367 92.4071 29.642C91.8845 30.5473 90.9745 31 89.6771 31C88.3705 31 87.4558 30.5473 86.9331 29.642C86.4105 28.7367 86.1491 27.4673 86.1491 25.834ZM91.9311 25.834C91.9311 25.022 91.8751 24.336 91.7631 23.776C91.6605 23.2067 91.4411 22.7493 91.1051 22.404C90.7785 22.0587 90.3025 21.886 89.6771 21.886C89.0425 21.886 88.5571 22.0587 88.2211 22.404C87.8945 22.7493 87.6751 23.2067 87.5631 23.776C87.4605 24.336 87.4091 25.022 87.4091 25.834C87.4091 26.674 87.4605 27.3787 87.5631 27.948C87.6751 28.5173 87.8945 28.9747 88.2211 29.32C88.5571 29.6653 89.0425 29.838 89.6771 29.838C90.3025 29.838 90.7785 29.6653 91.1051 29.32C91.4411 28.9747 91.6605 28.5173 91.7631 27.948C91.8751 27.3787 91.9311 26.674 91.9311 25.834Z" fill="#91908F"/>
<path d="M55.9276 26.408H94.0731V27.108H55.9276V26.408Z" fill="#91908F"/>
<mask id="path-4-inside-2_2027_5970" fill="white">
<path d="M158 8C158 3.58172 161.582 0 166 0H300C304.418 0 308 3.58172 308 8V44C308 48.4183 304.418 52 300 52H166C161.582 52 158 48.4183 158 44V8Z"/>
</mask>
<path d="M158 8C158 3.58172 161.582 0 166 0H300C304.418 0 308 3.58172 308 8V44C308 48.4183 304.418 52 300 52H166C161.582 52 158 48.4183 158 44V8Z" fill="#FAF8F7"/>
<path d="M166 0V1H300V0V-1H166V0ZM308 8H307V44H308H309V8H308ZM300 52V51H166V52V53H300V52ZM158 44H159V8H158H157V44H158ZM166 52V51C162.134 51 159 47.866 159 44H158H157C157 48.9706 161.029 53 166 53V52ZM308 44H307C307 47.866 303.866 51 300 51V52V53C304.97 53 309 48.9706 309 44H308ZM300 0V1C303.866 1 307 4.13401 307 8H308H309C309 3.02944 304.97 -1 300 -1V0ZM166 0V-1C161.029 -1 157 3.02944 157 8H158H159C159 4.13401 162.134 1 166 1V0Z" fill="#CDCBCB" mask="url(#path-4-inside-2_2027_5970)"/>
<path d="M214.796 25.834C214.796 24.2287 215.057 22.978 215.58 22.082C216.102 21.1767 217.017 20.724 218.324 20.724C219.621 20.724 220.531 21.1767 221.054 22.082C221.576 22.978 221.838 24.2287 221.838 25.834C221.838 27.4673 221.576 28.7367 221.054 29.642C220.531 30.5473 219.621 31 218.324 31C217.017 31 216.102 30.5473 215.58 29.642C215.057 28.7367 214.796 27.4673 214.796 25.834ZM220.578 25.834C220.578 25.022 220.522 24.336 220.41 23.776C220.307 23.2067 220.088 22.7493 219.752 22.404C219.425 22.0587 218.949 21.886 218.324 21.886C217.689 21.886 217.204 22.0587 216.868 22.404C216.541 22.7493 216.322 23.2067 216.21 23.776C216.107 24.336 216.056 25.022 216.056 25.834C216.056 26.674 216.107 27.3787 216.21 27.948C216.322 28.5173 216.541 28.9747 216.868 29.32C217.204 29.6653 217.689 29.838 218.324 29.838C218.949 29.838 219.425 29.6653 219.752 29.32C220.088 28.9747 220.307 28.5173 220.41 27.948C220.522 27.3787 220.578 26.674 220.578 25.834ZM223.587 25.834C223.587 24.2287 223.848 22.978 224.371 22.082C224.893 21.1767 225.808 20.724 227.115 20.724C228.412 20.724 229.322 21.1767 229.845 22.082C230.367 22.978 230.629 24.2287 230.629 25.834C230.629 27.4673 230.367 28.7367 229.845 29.642C229.322 30.5473 228.412 31 227.115 31C225.808 31 224.893 30.5473 224.371 29.642C223.848 28.7367 223.587 27.4673 223.587 25.834ZM229.369 25.834C229.369 25.022 229.313 24.336 229.201 23.776C229.098 23.2067 228.879 22.7493 228.543 22.404C228.216 22.0587 227.74 21.886 227.115 21.886C226.48 21.886 225.995 22.0587 225.659 22.404C225.332 22.7493 225.113 23.2067 225.001 23.776C224.898 24.336 224.847 25.022 224.847 25.834C224.847 26.674 224.898 27.3787 225.001 27.948C225.113 28.5173 225.332 28.9747 225.659 29.32C225.995 29.6653 226.48 29.838 227.115 29.838C227.74 29.838 228.216 29.6653 228.543 29.32C228.879 28.9747 229.098 28.5173 229.201 27.948C229.313 27.3787 229.369 26.674 229.369 25.834ZM232.994 31.084C232.751 31.084 232.546 31 232.378 30.832C232.21 30.664 232.126 30.4587 232.126 30.216C232.126 29.9733 232.21 29.768 232.378 29.6C232.546 29.432 232.751 29.348 232.994 29.348C233.227 29.348 233.423 29.432 233.582 29.6C233.75 29.768 233.834 29.9733 233.834 30.216C233.834 30.4587 233.75 30.664 233.582 30.832C233.423 31 233.227 31.084 232.994 31.084ZM232.994 25.092C232.751 25.092 232.546 25.008 232.378 24.84C232.21 24.672 232.126 24.4667 232.126 24.224C232.126 23.9813 232.21 23.776 232.378 23.608C232.546 23.44 232.751 23.356 232.994 23.356C233.227 23.356 233.423 23.44 233.582 23.608C233.75 23.776 233.834 23.9813 233.834 24.224C233.834 24.4667 233.75 24.672 233.582 24.84C233.423 25.008 233.227 25.092 232.994 25.092ZM235.358 25.834C235.358 24.2287 235.619 22.978 236.142 22.082C236.665 21.1767 237.579 20.724 238.886 20.724C240.183 20.724 241.093 21.1767 241.616 22.082C242.139 22.978 242.4 24.2287 242.4 25.834C242.4 27.4673 242.139 28.7367 241.616 29.642C241.093 30.5473 240.183 31 238.886 31C237.579 31 236.665 30.5473 236.142 29.642C235.619 28.7367 235.358 27.4673 235.358 25.834ZM241.14 25.834C241.14 25.022 241.084 24.336 240.972 23.776C240.869 23.2067 240.65 22.7493 240.314 22.404C239.987 22.0587 239.511 21.886 238.886 21.886C238.251 21.886 237.766 22.0587 237.43 22.404C237.103 22.7493 236.884 23.2067 236.772 23.776C236.669 24.336 236.618 25.022 236.618 25.834C236.618 26.674 236.669 27.3787 236.772 27.948C236.884 28.5173 237.103 28.9747 237.43 29.32C237.766 29.6653 238.251 29.838 238.886 29.838C239.511 29.838 239.987 29.6653 240.314 29.32C240.65 28.9747 240.869 28.5173 240.972 27.948C241.084 27.3787 241.14 26.674 241.14 25.834ZM244.149 25.834C244.149 24.2287 244.41 22.978 244.933 22.082C245.456 21.1767 246.37 20.724 247.677 20.724C248.974 20.724 249.884 21.1767 250.407 22.082C250.93 22.978 251.191 24.2287 251.191 25.834C251.191 27.4673 250.93 28.7367 250.407 29.642C249.884 30.5473 248.974 31 247.677 31C246.37 31 245.456 30.5473 244.933 29.642C244.41 28.7367 244.149 27.4673 244.149 25.834ZM249.931 25.834C249.931 25.022 249.875 24.336 249.763 23.776C249.66 23.2067 249.441 22.7493 249.105 22.404C248.778 22.0587 248.302 21.886 247.677 21.886C247.042 21.886 246.557 22.0587 246.221 22.404C245.894 22.7493 245.675 23.2067 245.563 23.776C245.46 24.336 245.409 25.022 245.409 25.834C245.409 26.674 245.46 27.3787 245.563 27.948C245.675 28.5173 245.894 28.9747 246.221 29.32C246.557 29.6653 247.042 29.838 247.677 29.838C248.302 29.838 248.778 29.6653 249.105 29.32C249.441 28.9747 249.66 28.5173 249.763 27.948C249.875 27.3787 249.931 26.674 249.931 25.834Z" fill="#91908F"/>
<path d="M213.928 26.408H252.073V27.108H213.928V26.408Z" fill="#91908F"/>
<path d="M0 68C0 63.5817 3.58172 60 8 60H142C146.418 60 150 63.5817 150 68V104C150 108.418 146.418 112 142 112H8C3.58172 112 0 108.418 0 104V68Z" fill="#0A2333"/>
<path d="M56.1045 85.764C56.1045 84.1493 56.3752 82.8893 56.9165 81.984C57.4672 81.0693 58.4099 80.612 59.7445 80.612C61.0792 80.612 62.0172 81.0693 62.5585 81.984C63.1092 82.8893 63.3845 84.1493 63.3845 85.764C63.3845 87.3973 63.1092 88.676 62.5585 89.6C62.0172 90.5147 61.0792 90.972 59.7445 90.972C58.4099 90.972 57.4672 90.5147 56.9165 89.6C56.3752 88.676 56.1045 87.3973 56.1045 85.764ZM61.8165 85.764C61.8165 85.008 61.7652 84.3687 61.6625 83.846C61.5692 83.3233 61.3732 82.8987 61.0745 82.572C60.7759 82.236 60.3325 82.068 59.7445 82.068C59.1565 82.068 58.7132 82.236 58.4145 82.572C58.1159 82.8987 57.9152 83.3233 57.8125 83.846C57.7192 84.3687 57.6725 85.008 57.6725 85.764C57.6725 86.548 57.7192 87.206 57.8125 87.738C57.9059 88.27 58.1019 88.6993 58.4005 89.026C58.7085 89.3527 59.1565 89.516 59.7445 89.516C60.3325 89.516 60.7759 89.3527 61.0745 89.026C61.3825 88.6993 61.5832 88.27 61.6765 87.738C61.7699 87.206 61.8165 86.548 61.8165 85.764ZM64.8773 88.872V87.668L69.5813 80.92H71.5133V87.486H72.8153V88.872H71.5133V91H69.9453V88.872H64.8773ZM70.0153 82.544L66.7113 87.486H70.0153V82.544ZM74.9917 91.098C74.7024 91.098 74.4597 91 74.2637 90.804C74.0677 90.608 73.9697 90.3653 73.9697 90.076C73.9697 89.7867 74.0677 89.544 74.2637 89.348C74.4597 89.152 74.7024 89.054 74.9917 89.054C75.2717 89.054 75.5097 89.152 75.7057 89.348C75.9017 89.544 75.9997 89.7867 75.9997 90.076C75.9997 90.3653 75.9017 90.608 75.7057 90.804C75.5097 91 75.2717 91.098 74.9917 91.098ZM74.9917 85.218C74.7024 85.218 74.4597 85.12 74.2637 84.924C74.0677 84.728 73.9697 84.4853 73.9697 84.196C73.9697 83.9067 74.0677 83.664 74.2637 83.468C74.4597 83.272 74.7024 83.174 74.9917 83.174C75.2717 83.174 75.5097 83.272 75.7057 83.468C75.9017 83.664 75.9997 83.9067 75.9997 84.196C75.9997 84.4853 75.9017 84.728 75.7057 84.924C75.5097 85.12 75.2717 85.218 74.9917 85.218ZM77.3734 88.872V87.668L82.0774 80.92H84.0094V87.486H85.3114V88.872H84.0094V91H82.4414V88.872H77.3734ZM82.5114 82.544L79.2074 87.486H82.5114V82.544ZM93.2138 82.166H88.5238V84.952C88.7198 84.6907 89.0092 84.4713 89.3918 84.294C89.7838 84.1167 90.1992 84.028 90.6378 84.028C91.4218 84.028 92.0565 84.196 92.5418 84.532C93.0365 84.868 93.3865 85.2927 93.5918 85.806C93.8065 86.3193 93.9138 86.8607 93.9138 87.43C93.9138 88.1207 93.7785 88.7367 93.5078 89.278C93.2465 89.81 92.8498 90.23 92.3178 90.538C91.7952 90.846 91.1512 91 90.3858 91C89.3685 91 88.5518 90.748 87.9358 90.244C87.3198 89.74 86.9512 89.0727 86.8298 88.242H88.3838C88.4865 88.6807 88.7152 89.0307 89.0698 89.292C89.4245 89.544 89.8678 89.67 90.3998 89.67C91.0625 89.67 91.5572 89.4693 91.8838 89.068C92.2198 88.6667 92.3878 88.1347 92.3878 87.472C92.3878 86.8 92.2198 86.2867 91.8838 85.932C91.5478 85.568 91.0532 85.386 90.3998 85.386C89.9425 85.386 89.5552 85.5027 89.2378 85.736C88.9298 85.96 88.7058 86.268 88.5658 86.66H87.0538V80.766H93.2138V82.166Z" fill="white"/>
<mask id="path-9-inside-3_2027_5970" fill="white">
<path d="M158 68C158 63.5817 161.582 60 166 60H300C304.418 60 308 63.5817 308 68V104C308 108.418 304.418 112 300 112H166C161.582 112 158 108.418 158 104V68Z"/>
</mask>
<path d="M158 68C158 63.5817 161.582 60 166 60H300C304.418 60 308 63.5817 308 68V104C308 108.418 304.418 112 300 112H166C161.582 112 158 108.418 158 104V68Z" fill="white"/>
<path d="M166 60V61H300V60V59H166V60ZM308 68H307V104H308H309V68H308ZM300 112V111H166V112V113H300V112ZM158 104H159V68H158H157V104H158ZM166 112V111C162.134 111 159 107.866 159 104H158H157C157 108.971 161.029 113 166 113V112ZM308 104H307C307 107.866 303.866 111 300 111V112V113C304.97 113 309 108.971 309 104H308ZM300 60V61C303.866 61 307 64.134 307 68H308H309C309 63.0294 304.97 59 300 59V60ZM166 60V59C161.029 59 157 63.0294 157 68H158H159C159 64.134 162.134 61 166 61V60Z" fill="#CDCBCB" mask="url(#path-9-inside-3_2027_5970)"/>
<path d="M215.165 85.834C215.165 84.2287 215.426 82.978 215.949 82.082C216.471 81.1767 217.386 80.724 218.693 80.724C219.99 80.724 220.9 81.1767 221.423 82.082C221.945 82.978 222.207 84.2287 222.207 85.834C222.207 87.4673 221.945 88.7367 221.423 89.642C220.9 90.5473 219.99 91 218.693 91C217.386 91 216.471 90.5473 215.949 89.642C215.426 88.7367 215.165 87.4673 215.165 85.834ZM220.947 85.834C220.947 85.022 220.891 84.336 220.779 83.776C220.676 83.2067 220.457 82.7493 220.121 82.404C219.794 82.0587 219.318 81.886 218.693 81.886C218.058 81.886 217.573 82.0587 217.237 82.404C216.91 82.7493 216.691 83.2067 216.579 83.776C216.476 84.336 216.425 85.022 216.425 85.834C216.425 86.674 216.476 87.3787 216.579 87.948C216.691 88.5173 216.91 88.9747 217.237 89.32C217.573 89.6653 218.058 89.838 218.693 89.838C219.318 89.838 219.794 89.6653 220.121 89.32C220.457 88.9747 220.676 88.5173 220.779 87.948C220.891 87.3787 220.947 86.674 220.947 85.834ZM223.802 89.978C224.987 89.026 225.916 88.2467 226.588 87.64C227.26 87.024 227.824 86.3847 228.282 85.722C228.748 85.05 228.982 84.392 228.982 83.748C228.982 83.1413 228.832 82.6653 228.534 82.32C228.244 81.9653 227.773 81.788 227.12 81.788C226.485 81.788 225.99 81.9887 225.636 82.39C225.29 82.782 225.104 83.3093 225.076 83.972H223.844C223.881 82.9267 224.198 82.1193 224.796 81.55C225.393 80.9807 226.163 80.696 227.106 80.696C228.067 80.696 228.828 80.962 229.388 81.494C229.957 82.026 230.242 82.7587 230.242 83.692C230.242 84.4667 230.008 85.2227 229.542 85.96C229.084 86.688 228.562 87.332 227.974 87.892C227.386 88.4427 226.634 89.0867 225.72 89.824H230.536V90.888H223.802V89.978ZM232.625 91.084C232.382 91.084 232.177 91 232.009 90.832C231.841 90.664 231.757 90.4587 231.757 90.216C231.757 89.9733 231.841 89.768 232.009 89.6C232.177 89.432 232.382 89.348 232.625 89.348C232.858 89.348 233.054 89.432 233.213 89.6C233.381 89.768 233.465 89.9733 233.465 90.216C233.465 90.4587 233.381 90.664 233.213 90.832C233.054 91 232.858 91.084 232.625 91.084ZM232.625 85.092C232.382 85.092 232.177 85.008 232.009 84.84C231.841 84.672 231.757 84.4667 231.757 84.224C231.757 83.9813 231.841 83.776 232.009 83.608C232.177 83.44 232.382 83.356 232.625 83.356C232.858 83.356 233.054 83.44 233.213 83.608C233.381 83.776 233.465 83.9813 233.465 84.224C233.465 84.4667 233.381 84.672 233.213 84.84C233.054 85.008 232.858 85.092 232.625 85.092ZM234.989 85.834C234.989 84.2287 235.25 82.978 235.773 82.082C236.296 81.1767 237.21 80.724 238.517 80.724C239.814 80.724 240.724 81.1767 241.247 82.082C241.77 82.978 242.031 84.2287 242.031 85.834C242.031 87.4673 241.77 88.7367 241.247 89.642C240.724 90.5473 239.814 91 238.517 91C237.21 91 236.296 90.5473 235.773 89.642C235.25 88.7367 234.989 87.4673 234.989 85.834ZM240.771 85.834C240.771 85.022 240.715 84.336 240.603 83.776C240.5 83.2067 240.281 82.7493 239.945 82.404C239.618 82.0587 239.142 81.886 238.517 81.886C237.882 81.886 237.397 82.0587 237.061 82.404C236.734 82.7493 236.515 83.2067 236.403 83.776C236.3 84.336 236.249 85.022 236.249 85.834C236.249 86.674 236.3 87.3787 236.403 87.948C236.515 88.5173 236.734 88.9747 237.061 89.32C237.397 89.6653 237.882 89.838 238.517 89.838C239.142 89.838 239.618 89.6653 239.945 89.32C240.281 88.9747 240.5 88.5173 240.603 87.948C240.715 87.3787 240.771 86.674 240.771 85.834ZM243.78 85.834C243.78 84.2287 244.041 82.978 244.564 82.082C245.087 81.1767 246.001 80.724 247.308 80.724C248.605 80.724 249.515 81.1767 250.038 82.082C250.561 82.978 250.822 84.2287 250.822 85.834C250.822 87.4673 250.561 88.7367 250.038 89.642C249.515 90.5473 248.605 91 247.308 91C246.001 91 245.087 90.5473 244.564 89.642C244.041 88.7367 243.78 87.4673 243.78 85.834ZM249.562 85.834C249.562 85.022 249.506 84.336 249.394 83.776C249.291 83.2067 249.072 82.7493 248.736 82.404C248.409 82.0587 247.933 81.886 247.308 81.886C246.673 81.886 246.188 82.0587 245.852 82.404C245.525 82.7493 245.306 83.2067 245.194 83.776C245.091 84.336 245.04 85.022 245.04 85.834C245.04 86.674 245.091 87.3787 245.194 87.948C245.306 88.5173 245.525 88.9747 245.852 89.32C246.188 89.6653 246.673 89.838 247.308 89.838C247.933 89.838 248.409 89.6653 248.736 89.32C249.072 88.9747 249.291 88.5173 249.394 87.948C249.506 87.3787 249.562 86.674 249.562 85.834Z" fill="#4B4A4A"/>
</svg>
