<svg width="308" height="112" viewBox="0 0 308 112" fill="none" xmlns="http://www.w3.org/2000/svg">
<mask id="path-1-inside-1_3274_56416" fill="white">
<path d="M0 8C0 3.58172 3.58172 0 8 0H63C67.4183 0 71 3.58172 71 8V44C71 48.4183 67.4183 52 63 52H8C3.58172 52 0 48.4183 0 44V8Z"/>
</mask>
<path d="M0 8C0 3.58172 3.58172 0 8 0H63C67.4183 0 71 3.58172 71 8V44C71 48.4183 67.4183 52 63 52H8C3.58172 52 0 48.4183 0 44V8Z" fill="white"/>
<path d="M8 0V1H63V0V-1H8V0ZM71 8H70V44H71H72V8H71ZM63 52V51H8V52V53H63V52ZM0 44H1V8H0H-1V44H0ZM8 52V51C4.13401 51 1 47.866 1 44H0H-1C-1 48.9706 3.02944 53 8 53V52ZM71 44H70C70 47.866 66.866 51 63 51V52V53C67.9706 53 72 48.9706 72 44H71ZM63 0V1C66.866 1 70 4.13401 70 8H71H72C72 3.02944 67.9706 -1 63 -1V0ZM8 0V-1C3.02944 -1 -1 3.02944 -1 8H0H1C1 4.13401 4.13401 1 8 1V0Z" fill="#CDCBCB" mask="url(#path-1-inside-1_3274_56416)"/>
<path d="M17.6649 25.834C17.6649 24.2287 17.9262 22.978 18.4489 22.082C18.9715 21.1767 19.8862 20.724 21.1929 20.724C22.4902 20.724 23.4002 21.1767 23.9229 22.082C24.4455 22.978 24.7069 24.2287 24.7069 25.834C24.7069 27.4673 24.4455 28.7367 23.9229 29.642C23.4002 30.5473 22.4902 31 21.1929 31C19.8862 31 18.9715 30.5473 18.4489 29.642C17.9262 28.7367 17.6649 27.4673 17.6649 25.834ZM23.4469 25.834C23.4469 25.022 23.3909 24.336 23.2789 23.776C23.1762 23.2067 22.9569 22.7493 22.6209 22.404C22.2942 22.0587 21.8182 21.886 21.1929 21.886C20.5582 21.886 20.0729 22.0587 19.7369 22.404C19.4102 22.7493 19.1909 23.2067 19.0789 23.776C18.9762 24.336 18.9249 25.022 18.9249 25.834C18.9249 26.674 18.9762 27.3787 19.0789 27.948C19.1909 28.5173 19.4102 28.9747 19.7369 29.32C20.0729 29.6653 20.5582 29.838 21.1929 29.838C21.8182 29.838 22.2942 29.6653 22.6209 29.32C22.9569 28.9747 23.1762 28.5173 23.2789 27.948C23.3909 27.3787 23.4469 26.674 23.4469 25.834ZM26.3019 29.978C27.4872 29.026 28.4159 28.2467 29.0879 27.64C29.7599 27.024 30.3246 26.3847 30.7819 25.722C31.2486 25.05 31.4819 24.392 31.4819 23.748C31.4819 23.1413 31.3326 22.6653 31.0339 22.32C30.7446 21.9653 30.2732 21.788 29.6199 21.788C28.9852 21.788 28.4906 21.9887 28.1359 22.39C27.7906 22.782 27.6039 23.3093 27.5759 23.972H26.3439C26.3812 22.9267 26.6986 22.1193 27.2959 21.55C27.8932 20.9807 28.6632 20.696 29.6059 20.696C30.5672 20.696 31.3279 20.962 31.8879 21.494C32.4572 22.026 32.7419 22.7587 32.7419 23.692C32.7419 24.4667 32.5086 25.2227 32.0419 25.96C31.5846 26.688 31.0619 27.332 30.4739 27.892C29.8859 28.4427 29.1346 29.0867 28.2199 29.824H33.0359V30.888H26.3019V29.978ZM35.1246 31.084C34.882 31.084 34.6766 31 34.5086 30.832C34.3406 30.664 34.2566 30.4587 34.2566 30.216C34.2566 29.9733 34.3406 29.768 34.5086 29.6C34.6766 29.432 34.882 29.348 35.1246 29.348C35.358 29.348 35.554 29.432 35.7126 29.6C35.8806 29.768 35.9646 29.9733 35.9646 30.216C35.9646 30.4587 35.8806 30.664 35.7126 30.832C35.554 31 35.358 31.084 35.1246 31.084ZM35.1246 25.092C34.882 25.092 34.6766 25.008 34.5086 24.84C34.3406 24.672 34.2566 24.4667 34.2566 24.224C34.2566 23.9813 34.3406 23.776 34.5086 23.608C34.6766 23.44 34.882 23.356 35.1246 23.356C35.358 23.356 35.554 23.44 35.7126 23.608C35.8806 23.776 35.9646 23.9813 35.9646 24.224C35.9646 24.4667 35.8806 24.672 35.7126 24.84C35.554 25.008 35.358 25.092 35.1246 25.092ZM37.4891 25.834C37.4891 24.2287 37.7504 22.978 38.2731 22.082C38.7958 21.1767 39.7104 20.724 41.0171 20.724C42.3144 20.724 43.2244 21.1767 43.7471 22.082C44.2698 22.978 44.5311 24.2287 44.5311 25.834C44.5311 27.4673 44.2698 28.7367 43.7471 29.642C43.2244 30.5473 42.3144 31 41.0171 31C39.7104 31 38.7958 30.5473 38.2731 29.642C37.7504 28.7367 37.4891 27.4673 37.4891 25.834ZM43.2711 25.834C43.2711 25.022 43.2151 24.336 43.1031 23.776C43.0004 23.2067 42.7811 22.7493 42.4451 22.404C42.1184 22.0587 41.6424 21.886 41.0171 21.886C40.3824 21.886 39.8971 22.0587 39.5611 22.404C39.2344 22.7493 39.0151 23.2067 38.9031 23.776C38.8004 24.336 38.7491 25.022 38.7491 25.834C38.7491 26.674 38.8004 27.3787 38.9031 27.948C39.0151 28.5173 39.2344 28.9747 39.5611 29.32C39.8971 29.6653 40.3824 29.838 41.0171 29.838C41.6424 29.838 42.1184 29.6653 42.4451 29.32C42.7811 28.9747 43.0004 28.5173 43.1031 27.948C43.2151 27.3787 43.2711 26.674 43.2711 25.834ZM46.2801 25.834C46.2801 24.2287 46.5414 22.978 47.0641 22.082C47.5868 21.1767 48.5014 20.724 49.8081 20.724C51.1054 20.724 52.0154 21.1767 52.5381 22.082C53.0608 22.978 53.3221 24.2287 53.3221 25.834C53.3221 27.4673 53.0608 28.7367 52.5381 29.642C52.0154 30.5473 51.1054 31 49.8081 31C48.5014 31 47.5868 30.5473 47.0641 29.642C46.5414 28.7367 46.2801 27.4673 46.2801 25.834ZM52.0621 25.834C52.0621 25.022 52.0061 24.336 51.8941 23.776C51.7914 23.2067 51.5721 22.7493 51.2361 22.404C50.9094 22.0587 50.4334 21.886 49.8081 21.886C49.1734 21.886 48.6881 22.0587 48.3521 22.404C48.0254 22.7493 47.8061 23.2067 47.6941 23.776C47.5914 24.336 47.5401 25.022 47.5401 25.834C47.5401 26.674 47.5914 27.3787 47.6941 27.948C47.8061 28.5173 48.0254 28.9747 48.3521 29.32C48.6881 29.6653 49.1734 29.838 49.8081 29.838C50.4334 29.838 50.9094 29.6653 51.2361 29.32C51.5721 28.9747 51.7914 28.5173 51.8941 27.948C52.0061 27.3787 52.0621 26.674 52.0621 25.834Z" fill="#4B4A4A"/>
<mask id="path-4-inside-2_3274_56416" fill="white">
<path d="M78.9999 8C78.9999 3.58172 82.5816 0 86.9999 0H142C146.418 0 150 3.58172 150 8V44C150 48.4183 146.418 52 142 52H86.9999C82.5816 52 78.9999 48.4183 78.9999 44V8Z"/>
</mask>
<path d="M78.9999 8C78.9999 3.58172 82.5816 0 86.9999 0H142C146.418 0 150 3.58172 150 8V44C150 48.4183 146.418 52 142 52H86.9999C82.5816 52 78.9999 48.4183 78.9999 44V8Z" fill="#FAF8F7"/>
<path d="M86.9999 0V1H142V0V-1H86.9999V0ZM150 8H149V44H150H151V8H150ZM142 52V51H86.9999V52V53H142V52ZM78.9999 44H79.9999V8H78.9999H77.9999V44H78.9999ZM86.9999 52V51C83.1339 51 79.9999 47.866 79.9999 44H78.9999H77.9999C77.9999 48.9706 82.0293 53 86.9999 53V52ZM150 44H149C149 47.866 145.866 51 142 51V52V53C146.97 53 151 48.9706 151 44H150ZM142 0V1C145.866 1 149 4.13401 149 8H150H151C151 3.02944 146.97 -1 142 -1V0ZM86.9999 0V-1C82.0293 -1 77.9999 3.02944 77.9999 8H78.9999H79.9999C79.9999 4.13401 83.1339 1 86.9999 1V0Z" fill="#CDCBCB" mask="url(#path-4-inside-2_3274_56416)"/>
<path d="M96.2956 25.834C96.2956 24.2287 96.5569 22.978 97.0796 22.082C97.6023 21.1767 98.5169 20.724 99.8236 20.724C101.121 20.724 102.031 21.1767 102.554 22.082C103.076 22.978 103.338 24.2287 103.338 25.834C103.338 27.4673 103.076 28.7367 102.554 29.642C102.031 30.5473 101.121 31 99.8236 31C98.5169 31 97.6023 30.5473 97.0796 29.642C96.5569 28.7367 96.2956 27.4673 96.2956 25.834ZM102.078 25.834C102.078 25.022 102.022 24.336 101.91 23.776C101.807 23.2067 101.588 22.7493 101.252 22.404C100.925 22.0587 100.449 21.886 99.8236 21.886C99.1889 21.886 98.7036 22.0587 98.3676 22.404C98.0409 22.7493 97.8216 23.2067 97.7096 23.776C97.6069 24.336 97.5556 25.022 97.5556 25.834C97.5556 26.674 97.6069 27.3787 97.7096 27.948C97.8216 28.5173 98.0409 28.9747 98.3676 29.32C98.7036 29.6653 99.1889 29.838 99.8236 29.838C100.449 29.838 100.925 29.6653 101.252 29.32C101.588 28.9747 101.807 28.5173 101.91 27.948C102.022 27.3787 102.078 26.674 102.078 25.834ZM105.087 25.834C105.087 24.2287 105.348 22.978 105.871 22.082C106.393 21.1767 107.308 20.724 108.615 20.724C109.912 20.724 110.822 21.1767 111.345 22.082C111.867 22.978 112.129 24.2287 112.129 25.834C112.129 27.4673 111.867 28.7367 111.345 29.642C110.822 30.5473 109.912 31 108.615 31C107.308 31 106.393 30.5473 105.871 29.642C105.348 28.7367 105.087 27.4673 105.087 25.834ZM110.869 25.834C110.869 25.022 110.813 24.336 110.701 23.776C110.598 23.2067 110.379 22.7493 110.043 22.404C109.716 22.0587 109.24 21.886 108.615 21.886C107.98 21.886 107.495 22.0587 107.159 22.404C106.832 22.7493 106.613 23.2067 106.501 23.776C106.398 24.336 106.347 25.022 106.347 25.834C106.347 26.674 106.398 27.3787 106.501 27.948C106.613 28.5173 106.832 28.9747 107.159 29.32C107.495 29.6653 107.98 29.838 108.615 29.838C109.24 29.838 109.716 29.6653 110.043 29.32C110.379 28.9747 110.598 28.5173 110.701 27.948C110.813 27.3787 110.869 26.674 110.869 25.834ZM114.494 31.084C114.251 31.084 114.046 31 113.878 30.832C113.71 30.664 113.626 30.4587 113.626 30.216C113.626 29.9733 113.71 29.768 113.878 29.6C114.046 29.432 114.251 29.348 114.494 29.348C114.727 29.348 114.923 29.432 115.082 29.6C115.25 29.768 115.334 29.9733 115.334 30.216C115.334 30.4587 115.25 30.664 115.082 30.832C114.923 31 114.727 31.084 114.494 31.084ZM114.494 25.092C114.251 25.092 114.046 25.008 113.878 24.84C113.71 24.672 113.626 24.4667 113.626 24.224C113.626 23.9813 113.71 23.776 113.878 23.608C114.046 23.44 114.251 23.356 114.494 23.356C114.727 23.356 114.923 23.44 115.082 23.608C115.25 23.776 115.334 23.9813 115.334 24.224C115.334 24.4667 115.25 24.672 115.082 24.84C114.923 25.008 114.727 25.092 114.494 25.092ZM116.858 25.834C116.858 24.2287 117.119 22.978 117.642 22.082C118.165 21.1767 119.079 20.724 120.386 20.724C121.683 20.724 122.593 21.1767 123.116 22.082C123.639 22.978 123.9 24.2287 123.9 25.834C123.9 27.4673 123.639 28.7367 123.116 29.642C122.593 30.5473 121.683 31 120.386 31C119.079 31 118.165 30.5473 117.642 29.642C117.119 28.7367 116.858 27.4673 116.858 25.834ZM122.64 25.834C122.64 25.022 122.584 24.336 122.472 23.776C122.369 23.2067 122.15 22.7493 121.814 22.404C121.487 22.0587 121.011 21.886 120.386 21.886C119.751 21.886 119.266 22.0587 118.93 22.404C118.603 22.7493 118.384 23.2067 118.272 23.776C118.169 24.336 118.118 25.022 118.118 25.834C118.118 26.674 118.169 27.3787 118.272 27.948C118.384 28.5173 118.603 28.9747 118.93 29.32C119.266 29.6653 119.751 29.838 120.386 29.838C121.011 29.838 121.487 29.6653 121.814 29.32C122.15 28.9747 122.369 28.5173 122.472 27.948C122.584 27.3787 122.64 26.674 122.64 25.834ZM125.649 25.834C125.649 24.2287 125.91 22.978 126.433 22.082C126.956 21.1767 127.87 20.724 129.177 20.724C130.474 20.724 131.384 21.1767 131.907 22.082C132.43 22.978 132.691 24.2287 132.691 25.834C132.691 27.4673 132.43 28.7367 131.907 29.642C131.384 30.5473 130.474 31 129.177 31C127.87 31 126.956 30.5473 126.433 29.642C125.91 28.7367 125.649 27.4673 125.649 25.834ZM131.431 25.834C131.431 25.022 131.375 24.336 131.263 23.776C131.16 23.2067 130.941 22.7493 130.605 22.404C130.278 22.0587 129.802 21.886 129.177 21.886C128.542 21.886 128.057 22.0587 127.721 22.404C127.394 22.7493 127.175 23.2067 127.063 23.776C126.96 24.336 126.909 25.022 126.909 25.834C126.909 26.674 126.96 27.3787 127.063 27.948C127.175 28.5173 127.394 28.9747 127.721 29.32C128.057 29.6653 128.542 29.838 129.177 29.838C129.802 29.838 130.278 29.6653 130.605 29.32C130.941 28.9747 131.16 28.5173 131.263 27.948C131.375 27.3787 131.431 26.674 131.431 25.834Z" fill="#91908F"/>
<path d="M95.4276 26.408H133.573V27.108H95.4276V26.408Z" fill="#91908F"/>
<path d="M158 8C158 3.58172 161.582 0 166 0H221C225.418 0 229 3.58172 229 8V44C229 48.4183 225.418 52 221 52H166C161.582 52 158 48.4183 158 44V8Z" fill="#0A2333"/>
<path d="M174.605 25.764C174.605 24.1493 174.875 22.8893 175.417 21.984C175.967 21.0693 176.91 20.612 178.245 20.612C179.579 20.612 180.517 21.0693 181.059 21.984C181.609 22.8893 181.885 24.1493 181.885 25.764C181.885 27.3973 181.609 28.676 181.059 29.6C180.517 30.5147 179.579 30.972 178.245 30.972C176.91 30.972 175.967 30.5147 175.417 29.6C174.875 28.676 174.605 27.3973 174.605 25.764ZM180.317 25.764C180.317 25.008 180.265 24.3687 180.163 23.846C180.069 23.3233 179.873 22.8987 179.575 22.572C179.276 22.236 178.833 22.068 178.245 22.068C177.657 22.068 177.213 22.236 176.915 22.572C176.616 22.8987 176.415 23.3233 176.313 23.846C176.219 24.3687 176.173 25.008 176.173 25.764C176.173 26.548 176.219 27.206 176.313 27.738C176.406 28.27 176.602 28.6993 176.901 29.026C177.209 29.3527 177.657 29.516 178.245 29.516C178.833 29.516 179.276 29.3527 179.575 29.026C179.883 28.6993 180.083 28.27 180.177 27.738C180.27 27.206 180.317 26.548 180.317 25.764ZM183.377 28.872V27.668L188.081 20.92H190.013V27.486H191.315V28.872H190.013V31H188.445V28.872H183.377ZM188.515 22.544L185.211 27.486H188.515V22.544ZM193.492 31.098C193.202 31.098 192.96 31 192.764 30.804C192.568 30.608 192.47 30.3653 192.47 30.076C192.47 29.7867 192.568 29.544 192.764 29.348C192.96 29.152 193.202 29.054 193.492 29.054C193.772 29.054 194.01 29.152 194.206 29.348C194.402 29.544 194.5 29.7867 194.5 30.076C194.5 30.3653 194.402 30.608 194.206 30.804C194.01 31 193.772 31.098 193.492 31.098ZM193.492 25.218C193.202 25.218 192.96 25.12 192.764 24.924C192.568 24.728 192.47 24.4853 192.47 24.196C192.47 23.9067 192.568 23.664 192.764 23.468C192.96 23.272 193.202 23.174 193.492 23.174C193.772 23.174 194.01 23.272 194.206 23.468C194.402 23.664 194.5 23.9067 194.5 24.196C194.5 24.4853 194.402 24.728 194.206 24.924C194.01 25.12 193.772 25.218 193.492 25.218ZM195.873 28.872V27.668L200.577 20.92H202.509V27.486H203.811V28.872H202.509V31H200.941V28.872H195.873ZM201.011 22.544L197.707 27.486H201.011V22.544ZM211.714 22.166H207.024V24.952C207.22 24.6907 207.509 24.4713 207.892 24.294C208.284 24.1167 208.699 24.028 209.138 24.028C209.922 24.028 210.556 24.196 211.042 24.532C211.536 24.868 211.886 25.2927 212.092 25.806C212.306 26.3193 212.414 26.8607 212.414 27.43C212.414 28.1207 212.278 28.7367 212.008 29.278C211.746 29.81 211.35 30.23 210.818 30.538C210.295 30.846 209.651 31 208.886 31C207.868 31 207.052 30.748 206.436 30.244C205.82 29.74 205.451 29.0727 205.33 28.242H206.884C206.986 28.6807 207.215 29.0307 207.57 29.292C207.924 29.544 208.368 29.67 208.9 29.67C209.562 29.67 210.057 29.4693 210.384 29.068C210.72 28.6667 210.888 28.1347 210.888 27.472C210.888 26.8 210.72 26.2867 210.384 25.932C210.048 25.568 209.553 25.386 208.9 25.386C208.442 25.386 208.055 25.5027 207.738 25.736C207.43 25.96 207.206 26.268 207.066 26.66H205.554V20.766H211.714V22.166Z" fill="white"/>
<mask id="path-9-inside-3_3274_56416" fill="white">
<path d="M237 8C237 3.58172 240.582 0 245 0H300C304.418 0 308 3.58172 308 8V44C308 48.4183 304.418 52 300 52H245C240.582 52 237 48.4183 237 44V8Z"/>
</mask>
<path d="M237 8C237 3.58172 240.582 0 245 0H300C304.418 0 308 3.58172 308 8V44C308 48.4183 304.418 52 300 52H245C240.582 52 237 48.4183 237 44V8Z" fill="#FAF8F7"/>
<path d="M245 0V1H300V0V-1H245V0ZM308 8H307V44H308H309V8H308ZM300 52V51H245V52V53H300V52ZM237 44H238V8H237H236V44H237ZM245 52V51C241.134 51 238 47.866 238 44H237H236C236 48.9706 240.029 53 245 53V52ZM308 44H307C307 47.866 303.866 51 300 51V52V53C304.97 53 309 48.9706 309 44H308ZM300 0V1C303.866 1 307 4.13401 307 8H308H309C309 3.02944 304.97 -1 300 -1V0ZM245 0V-1C240.029 -1 236 3.02944 236 8H237H238C238 4.13401 241.134 1 245 1V0Z" fill="#CDCBCB" mask="url(#path-9-inside-3_3274_56416)"/>
<path d="M254.296 25.834C254.296 24.2287 254.557 22.978 255.08 22.082C255.602 21.1767 256.517 20.724 257.824 20.724C259.121 20.724 260.031 21.1767 260.554 22.082C261.076 22.978 261.338 24.2287 261.338 25.834C261.338 27.4673 261.076 28.7367 260.554 29.642C260.031 30.5473 259.121 31 257.824 31C256.517 31 255.602 30.5473 255.08 29.642C254.557 28.7367 254.296 27.4673 254.296 25.834ZM260.078 25.834C260.078 25.022 260.022 24.336 259.91 23.776C259.807 23.2067 259.588 22.7493 259.252 22.404C258.925 22.0587 258.449 21.886 257.824 21.886C257.189 21.886 256.704 22.0587 256.368 22.404C256.041 22.7493 255.822 23.2067 255.71 23.776C255.607 24.336 255.556 25.022 255.556 25.834C255.556 26.674 255.607 27.3787 255.71 27.948C255.822 28.5173 256.041 28.9747 256.368 29.32C256.704 29.6653 257.189 29.838 257.824 29.838C258.449 29.838 258.925 29.6653 259.252 29.32C259.588 28.9747 259.807 28.5173 259.91 27.948C260.022 27.3787 260.078 26.674 260.078 25.834ZM263.087 25.834C263.087 24.2287 263.348 22.978 263.871 22.082C264.393 21.1767 265.308 20.724 266.615 20.724C267.912 20.724 268.822 21.1767 269.345 22.082C269.867 22.978 270.129 24.2287 270.129 25.834C270.129 27.4673 269.867 28.7367 269.345 29.642C268.822 30.5473 267.912 31 266.615 31C265.308 31 264.393 30.5473 263.871 29.642C263.348 28.7367 263.087 27.4673 263.087 25.834ZM268.869 25.834C268.869 25.022 268.813 24.336 268.701 23.776C268.598 23.2067 268.379 22.7493 268.043 22.404C267.716 22.0587 267.24 21.886 266.615 21.886C265.98 21.886 265.495 22.0587 265.159 22.404C264.832 22.7493 264.613 23.2067 264.501 23.776C264.398 24.336 264.347 25.022 264.347 25.834C264.347 26.674 264.398 27.3787 264.501 27.948C264.613 28.5173 264.832 28.9747 265.159 29.32C265.495 29.6653 265.98 29.838 266.615 29.838C267.24 29.838 267.716 29.6653 268.043 29.32C268.379 28.9747 268.598 28.5173 268.701 27.948C268.813 27.3787 268.869 26.674 268.869 25.834ZM272.494 31.084C272.251 31.084 272.046 31 271.878 30.832C271.71 30.664 271.626 30.4587 271.626 30.216C271.626 29.9733 271.71 29.768 271.878 29.6C272.046 29.432 272.251 29.348 272.494 29.348C272.727 29.348 272.923 29.432 273.082 29.6C273.25 29.768 273.334 29.9733 273.334 30.216C273.334 30.4587 273.25 30.664 273.082 30.832C272.923 31 272.727 31.084 272.494 31.084ZM272.494 25.092C272.251 25.092 272.046 25.008 271.878 24.84C271.71 24.672 271.626 24.4667 271.626 24.224C271.626 23.9813 271.71 23.776 271.878 23.608C272.046 23.44 272.251 23.356 272.494 23.356C272.727 23.356 272.923 23.44 273.082 23.608C273.25 23.776 273.334 23.9813 273.334 24.224C273.334 24.4667 273.25 24.672 273.082 24.84C272.923 25.008 272.727 25.092 272.494 25.092ZM274.858 25.834C274.858 24.2287 275.119 22.978 275.642 22.082C276.165 21.1767 277.079 20.724 278.386 20.724C279.683 20.724 280.593 21.1767 281.116 22.082C281.639 22.978 281.9 24.2287 281.9 25.834C281.9 27.4673 281.639 28.7367 281.116 29.642C280.593 30.5473 279.683 31 278.386 31C277.079 31 276.165 30.5473 275.642 29.642C275.119 28.7367 274.858 27.4673 274.858 25.834ZM280.64 25.834C280.64 25.022 280.584 24.336 280.472 23.776C280.369 23.2067 280.15 22.7493 279.814 22.404C279.487 22.0587 279.011 21.886 278.386 21.886C277.751 21.886 277.266 22.0587 276.93 22.404C276.603 22.7493 276.384 23.2067 276.272 23.776C276.169 24.336 276.118 25.022 276.118 25.834C276.118 26.674 276.169 27.3787 276.272 27.948C276.384 28.5173 276.603 28.9747 276.93 29.32C277.266 29.6653 277.751 29.838 278.386 29.838C279.011 29.838 279.487 29.6653 279.814 29.32C280.15 28.9747 280.369 28.5173 280.472 27.948C280.584 27.3787 280.64 26.674 280.64 25.834ZM283.649 25.834C283.649 24.2287 283.91 22.978 284.433 22.082C284.956 21.1767 285.87 20.724 287.177 20.724C288.474 20.724 289.384 21.1767 289.907 22.082C290.43 22.978 290.691 24.2287 290.691 25.834C290.691 27.4673 290.43 28.7367 289.907 29.642C289.384 30.5473 288.474 31 287.177 31C285.87 31 284.956 30.5473 284.433 29.642C283.91 28.7367 283.649 27.4673 283.649 25.834ZM289.431 25.834C289.431 25.022 289.375 24.336 289.263 23.776C289.16 23.2067 288.941 22.7493 288.605 22.404C288.278 22.0587 287.802 21.886 287.177 21.886C286.542 21.886 286.057 22.0587 285.721 22.404C285.394 22.7493 285.175 23.2067 285.063 23.776C284.96 24.336 284.909 25.022 284.909 25.834C284.909 26.674 284.96 27.3787 285.063 27.948C285.175 28.5173 285.394 28.9747 285.721 29.32C286.057 29.6653 286.542 29.838 287.177 29.838C287.802 29.838 288.278 29.6653 288.605 29.32C288.941 28.9747 289.16 28.5173 289.263 27.948C289.375 27.3787 289.431 26.674 289.431 25.834Z" fill="#91908F"/>
<path d="M253.428 26.408H291.573V27.108H253.428V26.408Z" fill="#91908F"/>
<mask id="path-12-inside-4_3274_56416" fill="white">
<path d="M0 68C0 63.5817 3.58172 60 8 60H63C67.4183 60 71 63.5817 71 68V104C71 108.418 67.4183 112 63 112H8C3.58172 112 0 108.418 0 104V68Z"/>
</mask>
<path d="M0 68C0 63.5817 3.58172 60 8 60H63C67.4183 60 71 63.5817 71 68V104C71 108.418 67.4183 112 63 112H8C3.58172 112 0 108.418 0 104V68Z" fill="#FAF8F7"/>
<path d="M8 60V61H63V60V59H8V60ZM71 68H70V104H71H72V68H71ZM63 112V111H8V112V113H63V112ZM0 104H1V68H0H-1V104H0ZM8 112V111C4.13401 111 1 107.866 1 104H0H-1C-1 108.971 3.02944 113 8 113V112ZM71 104H70C70 107.866 66.866 111 63 111V112V113C67.9706 113 72 108.971 72 104H71ZM63 60V61C66.866 61 70 64.134 70 68H71H72C72 63.0294 67.9706 59 63 59V60ZM8 60V59C3.02944 59 -1 63.0294 -1 68H0H1C1 64.134 4.13401 61 8 61V60Z" fill="#CDCBCB" mask="url(#path-12-inside-4_3274_56416)"/>
<path d="M17.2957 85.834C17.2957 84.2287 17.5571 82.978 18.0797 82.082C18.6024 81.1767 19.5171 80.724 20.8237 80.724C22.1211 80.724 23.0311 81.1767 23.5537 82.082C24.0764 82.978 24.3377 84.2287 24.3377 85.834C24.3377 87.4673 24.0764 88.7367 23.5537 89.642C23.0311 90.5473 22.1211 91 20.8237 91C19.5171 91 18.6024 90.5473 18.0797 89.642C17.5571 88.7367 17.2957 87.4673 17.2957 85.834ZM23.0777 85.834C23.0777 85.022 23.0217 84.336 22.9097 83.776C22.8071 83.2067 22.5877 82.7493 22.2517 82.404C21.9251 82.0587 21.4491 81.886 20.8237 81.886C20.1891 81.886 19.7037 82.0587 19.3677 82.404C19.0411 82.7493 18.8217 83.2067 18.7097 83.776C18.6071 84.336 18.5557 85.022 18.5557 85.834C18.5557 86.674 18.6071 87.3787 18.7097 87.948C18.8217 88.5173 19.0411 88.9747 19.3677 89.32C19.7037 89.6653 20.1891 89.838 20.8237 89.838C21.4491 89.838 21.9251 89.6653 22.2517 89.32C22.5877 88.9747 22.8071 88.5173 22.9097 87.948C23.0217 87.3787 23.0777 86.674 23.0777 85.834ZM26.0868 85.834C26.0868 84.2287 26.3481 82.978 26.8708 82.082C27.3934 81.1767 28.3081 80.724 29.6148 80.724C30.9121 80.724 31.8221 81.1767 32.3448 82.082C32.8674 82.978 33.1287 84.2287 33.1287 85.834C33.1287 87.4673 32.8674 88.7367 32.3448 89.642C31.8221 90.5473 30.9121 91 29.6148 91C28.3081 91 27.3934 90.5473 26.8708 89.642C26.3481 88.7367 26.0868 87.4673 26.0868 85.834ZM31.8688 85.834C31.8688 85.022 31.8128 84.336 31.7008 83.776C31.5981 83.2067 31.3788 82.7493 31.0428 82.404C30.7161 82.0587 30.2401 81.886 29.6148 81.886C28.9801 81.886 28.4948 82.0587 28.1588 82.404C27.8321 82.7493 27.6128 83.2067 27.5008 83.776C27.3981 84.336 27.3468 85.022 27.3468 85.834C27.3468 86.674 27.3981 87.3787 27.5008 87.948C27.6128 88.5173 27.8321 88.9747 28.1588 89.32C28.4948 89.6653 28.9801 89.838 29.6148 89.838C30.2401 89.838 30.7161 89.6653 31.0428 89.32C31.3788 88.9747 31.5981 88.5173 31.7008 87.948C31.8128 87.3787 31.8688 86.674 31.8688 85.834ZM35.4938 91.084C35.2511 91.084 35.0458 91 34.8778 90.832C34.7098 90.664 34.6258 90.4587 34.6258 90.216C34.6258 89.9733 34.7098 89.768 34.8778 89.6C35.0458 89.432 35.2511 89.348 35.4938 89.348C35.7271 89.348 35.9231 89.432 36.0818 89.6C36.2498 89.768 36.3338 89.9733 36.3338 90.216C36.3338 90.4587 36.2498 90.664 36.0818 90.832C35.9231 91 35.7271 91.084 35.4938 91.084ZM35.4938 85.092C35.2511 85.092 35.0458 85.008 34.8778 84.84C34.7098 84.672 34.6258 84.4667 34.6258 84.224C34.6258 83.9813 34.7098 83.776 34.8778 83.608C35.0458 83.44 35.2511 83.356 35.4938 83.356C35.7271 83.356 35.9231 83.44 36.0818 83.608C36.2498 83.776 36.3338 83.9813 36.3338 84.224C36.3338 84.4667 36.2498 84.672 36.0818 84.84C35.9231 85.008 35.7271 85.092 35.4938 85.092ZM37.8582 85.834C37.8582 84.2287 38.1196 82.978 38.6422 82.082C39.1649 81.1767 40.0796 80.724 41.3862 80.724C42.6836 80.724 43.5936 81.1767 44.1162 82.082C44.6389 82.978 44.9002 84.2287 44.9002 85.834C44.9002 87.4673 44.6389 88.7367 44.1162 89.642C43.5936 90.5473 42.6836 91 41.3862 91C40.0796 91 39.1649 90.5473 38.6422 89.642C38.1196 88.7367 37.8582 87.4673 37.8582 85.834ZM43.6402 85.834C43.6402 85.022 43.5842 84.336 43.4722 83.776C43.3696 83.2067 43.1502 82.7493 42.8142 82.404C42.4876 82.0587 42.0116 81.886 41.3862 81.886C40.7516 81.886 40.2662 82.0587 39.9302 82.404C39.6036 82.7493 39.3842 83.2067 39.2722 83.776C39.1696 84.336 39.1182 85.022 39.1182 85.834C39.1182 86.674 39.1696 87.3787 39.2722 87.948C39.3842 88.5173 39.6036 88.9747 39.9302 89.32C40.2662 89.6653 40.7516 89.838 41.3862 89.838C42.0116 89.838 42.4876 89.6653 42.8142 89.32C43.1502 88.9747 43.3696 88.5173 43.4722 87.948C43.5842 87.3787 43.6402 86.674 43.6402 85.834ZM46.6493 85.834C46.6493 84.2287 46.9106 82.978 47.4333 82.082C47.9559 81.1767 48.8706 80.724 50.1773 80.724C51.4746 80.724 52.3846 81.1767 52.9073 82.082C53.4299 82.978 53.6912 84.2287 53.6912 85.834C53.6912 87.4673 53.4299 88.7367 52.9073 89.642C52.3846 90.5473 51.4746 91 50.1773 91C48.8706 91 47.9559 90.5473 47.4333 89.642C46.9106 88.7367 46.6493 87.4673 46.6493 85.834ZM52.4313 85.834C52.4313 85.022 52.3753 84.336 52.2633 83.776C52.1606 83.2067 51.9413 82.7493 51.6053 82.404C51.2786 82.0587 50.8026 81.886 50.1773 81.886C49.5426 81.886 49.0573 82.0587 48.7213 82.404C48.3946 82.7493 48.1753 83.2067 48.0633 83.776C47.9606 84.336 47.9093 85.022 47.9093 85.834C47.9093 86.674 47.9606 87.3787 48.0633 87.948C48.1753 88.5173 48.3946 88.9747 48.7213 89.32C49.0573 89.6653 49.5426 89.838 50.1773 89.838C50.8026 89.838 51.2786 89.6653 51.6053 89.32C51.9413 88.9747 52.1606 88.5173 52.2633 87.948C52.3753 87.3787 52.4313 86.674 52.4313 85.834Z" fill="#91908F"/>
<path d="M16.4277 86.408H54.5732V87.108H16.4277V86.408Z" fill="#91908F"/>
<mask id="path-15-inside-5_3274_56416" fill="white">
<path d="M78.9999 68C78.9999 63.5817 82.5816 60 86.9999 60H142C146.418 60 150 63.5817 150 68V104C150 108.418 146.418 112 142 112H86.9999C82.5816 112 78.9999 108.418 78.9999 104V68Z"/>
</mask>
<path d="M78.9999 68C78.9999 63.5817 82.5816 60 86.9999 60H142C146.418 60 150 63.5817 150 68V104C150 108.418 146.418 112 142 112H86.9999C82.5816 112 78.9999 108.418 78.9999 104V68Z" fill="#FAF8F7"/>
<path d="M86.9999 60V61H142V60V59H86.9999V60ZM150 68H149V104H150H151V68H150ZM142 112V111H86.9999V112V113H142V112ZM78.9999 104H79.9999V68H78.9999H77.9999V104H78.9999ZM86.9999 112V111C83.1339 111 79.9999 107.866 79.9999 104H78.9999H77.9999C77.9999 108.971 82.0293 113 86.9999 113V112ZM150 104H149C149 107.866 145.866 111 142 111V112V113C146.97 113 151 108.971 151 104H150ZM142 60V61C145.866 61 149 64.134 149 68H150H151C151 63.0294 146.97 59 142 59V60ZM86.9999 60V59C82.0293 59 77.9999 63.0294 77.9999 68H78.9999H79.9999C79.9999 64.134 83.1339 61 86.9999 61V60Z" fill="#CDCBCB" mask="url(#path-15-inside-5_3274_56416)"/>
<path d="M96.2956 85.834C96.2956 84.2287 96.5569 82.978 97.0796 82.082C97.6023 81.1767 98.5169 80.724 99.8236 80.724C101.121 80.724 102.031 81.1767 102.554 82.082C103.076 82.978 103.338 84.2287 103.338 85.834C103.338 87.4673 103.076 88.7367 102.554 89.642C102.031 90.5473 101.121 91 99.8236 91C98.5169 91 97.6023 90.5473 97.0796 89.642C96.5569 88.7367 96.2956 87.4673 96.2956 85.834ZM102.078 85.834C102.078 85.022 102.022 84.336 101.91 83.776C101.807 83.2067 101.588 82.7493 101.252 82.404C100.925 82.0587 100.449 81.886 99.8236 81.886C99.1889 81.886 98.7036 82.0587 98.3676 82.404C98.0409 82.7493 97.8216 83.2067 97.7096 83.776C97.6069 84.336 97.5556 85.022 97.5556 85.834C97.5556 86.674 97.6069 87.3787 97.7096 87.948C97.8216 88.5173 98.0409 88.9747 98.3676 89.32C98.7036 89.6653 99.1889 89.838 99.8236 89.838C100.449 89.838 100.925 89.6653 101.252 89.32C101.588 88.9747 101.807 88.5173 101.91 87.948C102.022 87.3787 102.078 86.674 102.078 85.834ZM105.087 85.834C105.087 84.2287 105.348 82.978 105.871 82.082C106.393 81.1767 107.308 80.724 108.615 80.724C109.912 80.724 110.822 81.1767 111.345 82.082C111.867 82.978 112.129 84.2287 112.129 85.834C112.129 87.4673 111.867 88.7367 111.345 89.642C110.822 90.5473 109.912 91 108.615 91C107.308 91 106.393 90.5473 105.871 89.642C105.348 88.7367 105.087 87.4673 105.087 85.834ZM110.869 85.834C110.869 85.022 110.813 84.336 110.701 83.776C110.598 83.2067 110.379 82.7493 110.043 82.404C109.716 82.0587 109.24 81.886 108.615 81.886C107.98 81.886 107.495 82.0587 107.159 82.404C106.832 82.7493 106.613 83.2067 106.501 83.776C106.398 84.336 106.347 85.022 106.347 85.834C106.347 86.674 106.398 87.3787 106.501 87.948C106.613 88.5173 106.832 88.9747 107.159 89.32C107.495 89.6653 107.98 89.838 108.615 89.838C109.24 89.838 109.716 89.6653 110.043 89.32C110.379 88.9747 110.598 88.5173 110.701 87.948C110.813 87.3787 110.869 86.674 110.869 85.834ZM114.494 91.084C114.251 91.084 114.046 91 113.878 90.832C113.71 90.664 113.626 90.4587 113.626 90.216C113.626 89.9733 113.71 89.768 113.878 89.6C114.046 89.432 114.251 89.348 114.494 89.348C114.727 89.348 114.923 89.432 115.082 89.6C115.25 89.768 115.334 89.9733 115.334 90.216C115.334 90.4587 115.25 90.664 115.082 90.832C114.923 91 114.727 91.084 114.494 91.084ZM114.494 85.092C114.251 85.092 114.046 85.008 113.878 84.84C113.71 84.672 113.626 84.4667 113.626 84.224C113.626 83.9813 113.71 83.776 113.878 83.608C114.046 83.44 114.251 83.356 114.494 83.356C114.727 83.356 114.923 83.44 115.082 83.608C115.25 83.776 115.334 83.9813 115.334 84.224C115.334 84.4667 115.25 84.672 115.082 84.84C114.923 85.008 114.727 85.092 114.494 85.092ZM116.858 85.834C116.858 84.2287 117.119 82.978 117.642 82.082C118.165 81.1767 119.079 80.724 120.386 80.724C121.683 80.724 122.593 81.1767 123.116 82.082C123.639 82.978 123.9 84.2287 123.9 85.834C123.9 87.4673 123.639 88.7367 123.116 89.642C122.593 90.5473 121.683 91 120.386 91C119.079 91 118.165 90.5473 117.642 89.642C117.119 88.7367 116.858 87.4673 116.858 85.834ZM122.64 85.834C122.64 85.022 122.584 84.336 122.472 83.776C122.369 83.2067 122.15 82.7493 121.814 82.404C121.487 82.0587 121.011 81.886 120.386 81.886C119.751 81.886 119.266 82.0587 118.93 82.404C118.603 82.7493 118.384 83.2067 118.272 83.776C118.169 84.336 118.118 85.022 118.118 85.834C118.118 86.674 118.169 87.3787 118.272 87.948C118.384 88.5173 118.603 88.9747 118.93 89.32C119.266 89.6653 119.751 89.838 120.386 89.838C121.011 89.838 121.487 89.6653 121.814 89.32C122.15 88.9747 122.369 88.5173 122.472 87.948C122.584 87.3787 122.64 86.674 122.64 85.834ZM125.649 85.834C125.649 84.2287 125.91 82.978 126.433 82.082C126.956 81.1767 127.87 80.724 129.177 80.724C130.474 80.724 131.384 81.1767 131.907 82.082C132.43 82.978 132.691 84.2287 132.691 85.834C132.691 87.4673 132.43 88.7367 131.907 89.642C131.384 90.5473 130.474 91 129.177 91C127.87 91 126.956 90.5473 126.433 89.642C125.91 88.7367 125.649 87.4673 125.649 85.834ZM131.431 85.834C131.431 85.022 131.375 84.336 131.263 83.776C131.16 83.2067 130.941 82.7493 130.605 82.404C130.278 82.0587 129.802 81.886 129.177 81.886C128.542 81.886 128.057 82.0587 127.721 82.404C127.394 82.7493 127.175 83.2067 127.063 83.776C126.96 84.336 126.909 85.022 126.909 85.834C126.909 86.674 126.96 87.3787 127.063 87.948C127.175 88.5173 127.394 88.9747 127.721 89.32C128.057 89.6653 128.542 89.838 129.177 89.838C129.802 89.838 130.278 89.6653 130.605 89.32C130.941 88.9747 131.16 88.5173 131.263 87.948C131.375 87.3787 131.431 86.674 131.431 85.834Z" fill="#91908F"/>
<path d="M95.4276 86.408H133.573V87.108H95.4276V86.408Z" fill="#91908F"/>
<mask id="path-18-inside-6_3274_56416" fill="white">
<path d="M158 68C158 63.5817 161.582 60 166 60H221C225.418 60 229 63.5817 229 68V104C229 108.418 225.418 112 221 112H166C161.582 112 158 108.418 158 104V68Z"/>
</mask>
<path d="M158 68C158 63.5817 161.582 60 166 60H221C225.418 60 229 63.5817 229 68V104C229 108.418 225.418 112 221 112H166C161.582 112 158 108.418 158 104V68Z" fill="#FAF8F7"/>
<path d="M166 60V61H221V60V59H166V60ZM229 68H228V104H229H230V68H229ZM221 112V111H166V112V113H221V112ZM158 104H159V68H158H157V104H158ZM166 112V111C162.134 111 159 107.866 159 104H158H157C157 108.971 161.029 113 166 113V112ZM229 104H228C228 107.866 224.866 111 221 111V112V113C225.97 113 230 108.971 230 104H229ZM221 60V61C224.866 61 228 64.134 228 68H229H230C230 63.0294 225.97 59 221 59V60ZM166 60V59C161.029 59 157 63.0294 157 68H158H159C159 64.134 162.134 61 166 61V60Z" fill="#CDCBCB" mask="url(#path-18-inside-6_3274_56416)"/>
<path d="M175.296 85.834C175.296 84.2287 175.557 82.978 176.08 82.082C176.602 81.1767 177.517 80.724 178.824 80.724C180.121 80.724 181.031 81.1767 181.554 82.082C182.076 82.978 182.338 84.2287 182.338 85.834C182.338 87.4673 182.076 88.7367 181.554 89.642C181.031 90.5473 180.121 91 178.824 91C177.517 91 176.602 90.5473 176.08 89.642C175.557 88.7367 175.296 87.4673 175.296 85.834ZM181.078 85.834C181.078 85.022 181.022 84.336 180.91 83.776C180.807 83.2067 180.588 82.7493 180.252 82.404C179.925 82.0587 179.449 81.886 178.824 81.886C178.189 81.886 177.704 82.0587 177.368 82.404C177.041 82.7493 176.822 83.2067 176.71 83.776C176.607 84.336 176.556 85.022 176.556 85.834C176.556 86.674 176.607 87.3787 176.71 87.948C176.822 88.5173 177.041 88.9747 177.368 89.32C177.704 89.6653 178.189 89.838 178.824 89.838C179.449 89.838 179.925 89.6653 180.252 89.32C180.588 88.9747 180.807 88.5173 180.91 87.948C181.022 87.3787 181.078 86.674 181.078 85.834ZM184.087 85.834C184.087 84.2287 184.348 82.978 184.871 82.082C185.393 81.1767 186.308 80.724 187.615 80.724C188.912 80.724 189.822 81.1767 190.345 82.082C190.867 82.978 191.129 84.2287 191.129 85.834C191.129 87.4673 190.867 88.7367 190.345 89.642C189.822 90.5473 188.912 91 187.615 91C186.308 91 185.393 90.5473 184.871 89.642C184.348 88.7367 184.087 87.4673 184.087 85.834ZM189.869 85.834C189.869 85.022 189.813 84.336 189.701 83.776C189.598 83.2067 189.379 82.7493 189.043 82.404C188.716 82.0587 188.24 81.886 187.615 81.886C186.98 81.886 186.495 82.0587 186.159 82.404C185.832 82.7493 185.613 83.2067 185.501 83.776C185.398 84.336 185.347 85.022 185.347 85.834C185.347 86.674 185.398 87.3787 185.501 87.948C185.613 88.5173 185.832 88.9747 186.159 89.32C186.495 89.6653 186.98 89.838 187.615 89.838C188.24 89.838 188.716 89.6653 189.043 89.32C189.379 88.9747 189.598 88.5173 189.701 87.948C189.813 87.3787 189.869 86.674 189.869 85.834ZM193.494 91.084C193.251 91.084 193.046 91 192.878 90.832C192.71 90.664 192.626 90.4587 192.626 90.216C192.626 89.9733 192.71 89.768 192.878 89.6C193.046 89.432 193.251 89.348 193.494 89.348C193.727 89.348 193.923 89.432 194.082 89.6C194.25 89.768 194.334 89.9733 194.334 90.216C194.334 90.4587 194.25 90.664 194.082 90.832C193.923 91 193.727 91.084 193.494 91.084ZM193.494 85.092C193.251 85.092 193.046 85.008 192.878 84.84C192.71 84.672 192.626 84.4667 192.626 84.224C192.626 83.9813 192.71 83.776 192.878 83.608C193.046 83.44 193.251 83.356 193.494 83.356C193.727 83.356 193.923 83.44 194.082 83.608C194.25 83.776 194.334 83.9813 194.334 84.224C194.334 84.4667 194.25 84.672 194.082 84.84C193.923 85.008 193.727 85.092 193.494 85.092ZM195.858 85.834C195.858 84.2287 196.119 82.978 196.642 82.082C197.165 81.1767 198.079 80.724 199.386 80.724C200.683 80.724 201.593 81.1767 202.116 82.082C202.639 82.978 202.9 84.2287 202.9 85.834C202.9 87.4673 202.639 88.7367 202.116 89.642C201.593 90.5473 200.683 91 199.386 91C198.079 91 197.165 90.5473 196.642 89.642C196.119 88.7367 195.858 87.4673 195.858 85.834ZM201.64 85.834C201.64 85.022 201.584 84.336 201.472 83.776C201.369 83.2067 201.15 82.7493 200.814 82.404C200.487 82.0587 200.011 81.886 199.386 81.886C198.751 81.886 198.266 82.0587 197.93 82.404C197.603 82.7493 197.384 83.2067 197.272 83.776C197.169 84.336 197.118 85.022 197.118 85.834C197.118 86.674 197.169 87.3787 197.272 87.948C197.384 88.5173 197.603 88.9747 197.93 89.32C198.266 89.6653 198.751 89.838 199.386 89.838C200.011 89.838 200.487 89.6653 200.814 89.32C201.15 88.9747 201.369 88.5173 201.472 87.948C201.584 87.3787 201.64 86.674 201.64 85.834ZM204.649 85.834C204.649 84.2287 204.91 82.978 205.433 82.082C205.956 81.1767 206.87 80.724 208.177 80.724C209.474 80.724 210.384 81.1767 210.907 82.082C211.43 82.978 211.691 84.2287 211.691 85.834C211.691 87.4673 211.43 88.7367 210.907 89.642C210.384 90.5473 209.474 91 208.177 91C206.87 91 205.956 90.5473 205.433 89.642C204.91 88.7367 204.649 87.4673 204.649 85.834ZM210.431 85.834C210.431 85.022 210.375 84.336 210.263 83.776C210.16 83.2067 209.941 82.7493 209.605 82.404C209.278 82.0587 208.802 81.886 208.177 81.886C207.542 81.886 207.057 82.0587 206.721 82.404C206.394 82.7493 206.175 83.2067 206.063 83.776C205.96 84.336 205.909 85.022 205.909 85.834C205.909 86.674 205.96 87.3787 206.063 87.948C206.175 88.5173 206.394 88.9747 206.721 89.32C207.057 89.6653 207.542 89.838 208.177 89.838C208.802 89.838 209.278 89.6653 209.605 89.32C209.941 88.9747 210.16 88.5173 210.263 87.948C210.375 87.3787 210.431 86.674 210.431 85.834Z" fill="#91908F"/>
<path d="M174.428 86.408H212.573V87.108H174.428V86.408Z" fill="#91908F"/>
<mask id="path-21-inside-7_3274_56416" fill="white">
<path d="M237 68C237 63.5817 240.582 60 245 60H300C304.418 60 308 63.5817 308 68V104C308 108.418 304.418 112 300 112H245C240.582 112 237 108.418 237 104V68Z"/>
</mask>
<path d="M237 68C237 63.5817 240.582 60 245 60H300C304.418 60 308 63.5817 308 68V104C308 108.418 304.418 112 300 112H245C240.582 112 237 108.418 237 104V68Z" fill="#FAF8F7"/>
<path d="M245 60V61H300V60V59H245V60ZM308 68H307V104H308H309V68H308ZM300 112V111H245V112V113H300V112ZM237 104H238V68H237H236V104H237ZM245 112V111C241.134 111 238 107.866 238 104H237H236C236 108.971 240.029 113 245 113V112ZM308 104H307C307 107.866 303.866 111 300 111V112V113C304.97 113 309 108.971 309 104H308ZM300 60V61C303.866 61 307 64.134 307 68H308H309C309 63.0294 304.97 59 300 59V60ZM245 60V59C240.029 59 236 63.0294 236 68H237H238C238 64.134 241.134 61 245 61V60Z" fill="#CDCBCB" mask="url(#path-21-inside-7_3274_56416)"/>
<path d="M254.296 85.834C254.296 84.2287 254.557 82.978 255.08 82.082C255.602 81.1767 256.517 80.724 257.824 80.724C259.121 80.724 260.031 81.1767 260.554 82.082C261.076 82.978 261.338 84.2287 261.338 85.834C261.338 87.4673 261.076 88.7367 260.554 89.642C260.031 90.5473 259.121 91 257.824 91C256.517 91 255.602 90.5473 255.08 89.642C254.557 88.7367 254.296 87.4673 254.296 85.834ZM260.078 85.834C260.078 85.022 260.022 84.336 259.91 83.776C259.807 83.2067 259.588 82.7493 259.252 82.404C258.925 82.0587 258.449 81.886 257.824 81.886C257.189 81.886 256.704 82.0587 256.368 82.404C256.041 82.7493 255.822 83.2067 255.71 83.776C255.607 84.336 255.556 85.022 255.556 85.834C255.556 86.674 255.607 87.3787 255.71 87.948C255.822 88.5173 256.041 88.9747 256.368 89.32C256.704 89.6653 257.189 89.838 257.824 89.838C258.449 89.838 258.925 89.6653 259.252 89.32C259.588 88.9747 259.807 88.5173 259.91 87.948C260.022 87.3787 260.078 86.674 260.078 85.834ZM263.087 85.834C263.087 84.2287 263.348 82.978 263.871 82.082C264.393 81.1767 265.308 80.724 266.615 80.724C267.912 80.724 268.822 81.1767 269.345 82.082C269.867 82.978 270.129 84.2287 270.129 85.834C270.129 87.4673 269.867 88.7367 269.345 89.642C268.822 90.5473 267.912 91 266.615 91C265.308 91 264.393 90.5473 263.871 89.642C263.348 88.7367 263.087 87.4673 263.087 85.834ZM268.869 85.834C268.869 85.022 268.813 84.336 268.701 83.776C268.598 83.2067 268.379 82.7493 268.043 82.404C267.716 82.0587 267.24 81.886 266.615 81.886C265.98 81.886 265.495 82.0587 265.159 82.404C264.832 82.7493 264.613 83.2067 264.501 83.776C264.398 84.336 264.347 85.022 264.347 85.834C264.347 86.674 264.398 87.3787 264.501 87.948C264.613 88.5173 264.832 88.9747 265.159 89.32C265.495 89.6653 265.98 89.838 266.615 89.838C267.24 89.838 267.716 89.6653 268.043 89.32C268.379 88.9747 268.598 88.5173 268.701 87.948C268.813 87.3787 268.869 86.674 268.869 85.834ZM272.494 91.084C272.251 91.084 272.046 91 271.878 90.832C271.71 90.664 271.626 90.4587 271.626 90.216C271.626 89.9733 271.71 89.768 271.878 89.6C272.046 89.432 272.251 89.348 272.494 89.348C272.727 89.348 272.923 89.432 273.082 89.6C273.25 89.768 273.334 89.9733 273.334 90.216C273.334 90.4587 273.25 90.664 273.082 90.832C272.923 91 272.727 91.084 272.494 91.084ZM272.494 85.092C272.251 85.092 272.046 85.008 271.878 84.84C271.71 84.672 271.626 84.4667 271.626 84.224C271.626 83.9813 271.71 83.776 271.878 83.608C272.046 83.44 272.251 83.356 272.494 83.356C272.727 83.356 272.923 83.44 273.082 83.608C273.25 83.776 273.334 83.9813 273.334 84.224C273.334 84.4667 273.25 84.672 273.082 84.84C272.923 85.008 272.727 85.092 272.494 85.092ZM274.858 85.834C274.858 84.2287 275.119 82.978 275.642 82.082C276.165 81.1767 277.079 80.724 278.386 80.724C279.683 80.724 280.593 81.1767 281.116 82.082C281.639 82.978 281.9 84.2287 281.9 85.834C281.9 87.4673 281.639 88.7367 281.116 89.642C280.593 90.5473 279.683 91 278.386 91C277.079 91 276.165 90.5473 275.642 89.642C275.119 88.7367 274.858 87.4673 274.858 85.834ZM280.64 85.834C280.64 85.022 280.584 84.336 280.472 83.776C280.369 83.2067 280.15 82.7493 279.814 82.404C279.487 82.0587 279.011 81.886 278.386 81.886C277.751 81.886 277.266 82.0587 276.93 82.404C276.603 82.7493 276.384 83.2067 276.272 83.776C276.169 84.336 276.118 85.022 276.118 85.834C276.118 86.674 276.169 87.3787 276.272 87.948C276.384 88.5173 276.603 88.9747 276.93 89.32C277.266 89.6653 277.751 89.838 278.386 89.838C279.011 89.838 279.487 89.6653 279.814 89.32C280.15 88.9747 280.369 88.5173 280.472 87.948C280.584 87.3787 280.64 86.674 280.64 85.834ZM283.649 85.834C283.649 84.2287 283.91 82.978 284.433 82.082C284.956 81.1767 285.87 80.724 287.177 80.724C288.474 80.724 289.384 81.1767 289.907 82.082C290.43 82.978 290.691 84.2287 290.691 85.834C290.691 87.4673 290.43 88.7367 289.907 89.642C289.384 90.5473 288.474 91 287.177 91C285.87 91 284.956 90.5473 284.433 89.642C283.91 88.7367 283.649 87.4673 283.649 85.834ZM289.431 85.834C289.431 85.022 289.375 84.336 289.263 83.776C289.16 83.2067 288.941 82.7493 288.605 82.404C288.278 82.0587 287.802 81.886 287.177 81.886C286.542 81.886 286.057 82.0587 285.721 82.404C285.394 82.7493 285.175 83.2067 285.063 83.776C284.96 84.336 284.909 85.022 284.909 85.834C284.909 86.674 284.96 87.3787 285.063 87.948C285.175 88.5173 285.394 88.9747 285.721 89.32C286.057 89.6653 286.542 89.838 287.177 89.838C287.802 89.838 288.278 89.6653 288.605 89.32C288.941 88.9747 289.16 88.5173 289.263 87.948C289.375 87.3787 289.431 86.674 289.431 85.834Z" fill="#91908F"/>
<path d="M253.428 86.408H291.573V87.108H253.428V86.408Z" fill="#91908F"/>
</svg>
