<svg width="308" height="292" viewBox="0 0 308 292" fill="none" xmlns="http://www.w3.org/2000/svg">
<mask id="path-1-inside-1_2027_6858" fill="white">
<path d="M0 8C0 3.58172 3.58172 0 8 0H142C146.418 0 150 3.58172 150 8V44C150 48.4183 146.418 52 142 52H8C3.58172 52 0 48.4183 0 44V8Z"/>
</mask>
<path d="M0 8C0 3.58172 3.58172 0 8 0H142C146.418 0 150 3.58172 150 8V44C150 48.4183 146.418 52 142 52H8C3.58172 52 0 48.4183 0 44V8Z" fill="#FAF8F7"/>
<path d="M8 0V1H142V0V-1H8V0ZM150 8H149V44H150H151V8H150ZM142 52V51H8V52V53H142V52ZM0 44H1V8H0H-1V44H0ZM8 52V51C4.13401 51 1 47.866 1 44H0H-1C-1 48.9706 3.02944 53 8 53V52ZM150 44H149C149 47.866 145.866 51 142 51V52V53C146.971 53 151 48.9706 151 44H150ZM142 0V1C145.866 1 149 4.13401 149 8H150H151C151 3.02944 146.971 -1 142 -1V0ZM8 0V-1C3.02944 -1 -1 3.02944 -1 8H0H1C1 4.13401 4.13401 1 8 1V0Z" fill="#CDCBCB" mask="url(#path-1-inside-1_2027_6858)"/>
<path d="M56.7957 25.834C56.7957 24.2287 57.0571 22.978 57.5797 22.082C58.1024 21.1767 59.0171 20.724 60.3237 20.724C61.6211 20.724 62.5311 21.1767 63.0537 22.082C63.5764 22.978 63.8377 24.2287 63.8377 25.834C63.8377 27.4673 63.5764 28.7367 63.0537 29.642C62.5311 30.5473 61.6211 31 60.3237 31C59.0171 31 58.1024 30.5473 57.5797 29.642C57.0571 28.7367 56.7957 27.4673 56.7957 25.834ZM62.5777 25.834C62.5777 25.022 62.5217 24.336 62.4097 23.776C62.3071 23.2067 62.0877 22.7493 61.7517 22.404C61.4251 22.0587 60.9491 21.886 60.3237 21.886C59.6891 21.886 59.2037 22.0587 58.8677 22.404C58.5411 22.7493 58.3217 23.2067 58.2097 23.776C58.1071 24.336 58.0557 25.022 58.0557 25.834C58.0557 26.674 58.1071 27.3787 58.2097 27.948C58.3217 28.5173 58.5411 28.9747 58.8677 29.32C59.2037 29.6653 59.6891 29.838 60.3237 29.838C60.9491 29.838 61.4251 29.6653 61.7517 29.32C62.0877 28.9747 62.3071 28.5173 62.4097 27.948C62.5217 27.3787 62.5777 26.674 62.5777 25.834ZM65.5868 25.834C65.5868 24.2287 65.8481 22.978 66.3708 22.082C66.8934 21.1767 67.8081 20.724 69.1148 20.724C70.4121 20.724 71.3221 21.1767 71.8448 22.082C72.3674 22.978 72.6287 24.2287 72.6287 25.834C72.6287 27.4673 72.3674 28.7367 71.8448 29.642C71.3221 30.5473 70.4121 31 69.1148 31C67.8081 31 66.8934 30.5473 66.3708 29.642C65.8481 28.7367 65.5868 27.4673 65.5868 25.834ZM71.3688 25.834C71.3688 25.022 71.3128 24.336 71.2008 23.776C71.0981 23.2067 70.8788 22.7493 70.5428 22.404C70.2161 22.0587 69.7401 21.886 69.1148 21.886C68.4801 21.886 67.9948 22.0587 67.6588 22.404C67.3321 22.7493 67.1128 23.2067 67.0008 23.776C66.8981 24.336 66.8468 25.022 66.8468 25.834C66.8468 26.674 66.8981 27.3787 67.0008 27.948C67.1128 28.5173 67.3321 28.9747 67.6588 29.32C67.9948 29.6653 68.4801 29.838 69.1148 29.838C69.7401 29.838 70.2161 29.6653 70.5428 29.32C70.8788 28.9747 71.0981 28.5173 71.2008 27.948C71.3128 27.3787 71.3688 26.674 71.3688 25.834ZM74.9938 31.084C74.7511 31.084 74.5458 31 74.3778 30.832C74.2098 30.664 74.1258 30.4587 74.1258 30.216C74.1258 29.9733 74.2098 29.768 74.3778 29.6C74.5458 29.432 74.7511 29.348 74.9938 29.348C75.2271 29.348 75.4231 29.432 75.5818 29.6C75.7498 29.768 75.8338 29.9733 75.8338 30.216C75.8338 30.4587 75.7498 30.664 75.5818 30.832C75.4231 31 75.2271 31.084 74.9938 31.084ZM74.9938 25.092C74.7511 25.092 74.5458 25.008 74.3778 24.84C74.2098 24.672 74.1258 24.4667 74.1258 24.224C74.1258 23.9813 74.2098 23.776 74.3778 23.608C74.5458 23.44 74.7511 23.356 74.9938 23.356C75.2271 23.356 75.4231 23.44 75.5818 23.608C75.7498 23.776 75.8338 23.9813 75.8338 24.224C75.8338 24.4667 75.7498 24.672 75.5818 24.84C75.4231 25.008 75.2271 25.092 74.9938 25.092ZM77.3582 25.834C77.3582 24.2287 77.6196 22.978 78.1422 22.082C78.6649 21.1767 79.5796 20.724 80.8862 20.724C82.1836 20.724 83.0936 21.1767 83.6162 22.082C84.1389 22.978 84.4002 24.2287 84.4002 25.834C84.4002 27.4673 84.1389 28.7367 83.6162 29.642C83.0936 30.5473 82.1836 31 80.8862 31C79.5796 31 78.6649 30.5473 78.1422 29.642C77.6196 28.7367 77.3582 27.4673 77.3582 25.834ZM83.1402 25.834C83.1402 25.022 83.0842 24.336 82.9722 23.776C82.8696 23.2067 82.6502 22.7493 82.3142 22.404C81.9876 22.0587 81.5116 21.886 80.8862 21.886C80.2516 21.886 79.7662 22.0587 79.4302 22.404C79.1036 22.7493 78.8842 23.2067 78.7722 23.776C78.6696 24.336 78.6182 25.022 78.6182 25.834C78.6182 26.674 78.6696 27.3787 78.7722 27.948C78.8842 28.5173 79.1036 28.9747 79.4302 29.32C79.7662 29.6653 80.2516 29.838 80.8862 29.838C81.5116 29.838 81.9876 29.6653 82.3142 29.32C82.6502 28.9747 82.8696 28.5173 82.9722 27.948C83.0842 27.3787 83.1402 26.674 83.1402 25.834ZM86.1493 25.834C86.1493 24.2287 86.4106 22.978 86.9333 22.082C87.4559 21.1767 88.3706 20.724 89.6773 20.724C90.9746 20.724 91.8846 21.1767 92.4073 22.082C92.9299 22.978 93.1912 24.2287 93.1912 25.834C93.1912 27.4673 92.9299 28.7367 92.4073 29.642C91.8846 30.5473 90.9746 31 89.6773 31C88.3706 31 87.4559 30.5473 86.9333 29.642C86.4106 28.7367 86.1493 27.4673 86.1493 25.834ZM91.9313 25.834C91.9313 25.022 91.8753 24.336 91.7633 23.776C91.6606 23.2067 91.4413 22.7493 91.1053 22.404C90.7786 22.0587 90.3026 21.886 89.6773 21.886C89.0426 21.886 88.5573 22.0587 88.2213 22.404C87.8946 22.7493 87.6753 23.2067 87.5633 23.776C87.4606 24.336 87.4093 25.022 87.4093 25.834C87.4093 26.674 87.4606 27.3787 87.5633 27.948C87.6753 28.5173 87.8946 28.9747 88.2213 29.32C88.5573 29.6653 89.0426 29.838 89.6773 29.838C90.3026 29.838 90.7786 29.6653 91.1053 29.32C91.4413 28.9747 91.6606 28.5173 91.7633 27.948C91.8753 27.3787 91.9313 26.674 91.9313 25.834Z" fill="#91908F"/>
<path d="M55.9277 26.408H94.0732V27.108H55.9277V26.408Z" fill="#91908F"/>
<mask id="path-4-inside-2_2027_6858" fill="white">
<path d="M158 8C158 3.58172 161.582 0 166 0H300C304.418 0 308 3.58172 308 8V44C308 48.4183 304.418 52 300 52H166C161.582 52 158 48.4183 158 44V8Z"/>
</mask>
<path d="M158 8C158 3.58172 161.582 0 166 0H300C304.418 0 308 3.58172 308 8V44C308 48.4183 304.418 52 300 52H166C161.582 52 158 48.4183 158 44V8Z" fill="#FAF8F7"/>
<path d="M166 0V1H300V0V-1H166V0ZM308 8H307V44H308H309V8H308ZM300 52V51H166V52V53H300V52ZM158 44H159V8H158H157V44H158ZM166 52V51C162.134 51 159 47.866 159 44H158H157C157 48.9706 161.029 53 166 53V52ZM308 44H307C307 47.866 303.866 51 300 51V52V53C304.971 53 309 48.9706 309 44H308ZM300 0V1C303.866 1 307 4.13401 307 8H308H309C309 3.02944 304.971 -1 300 -1V0ZM166 0V-1C161.029 -1 157 3.02944 157 8H158H159C159 4.13401 162.134 1 166 1V0Z" fill="#CDCBCB" mask="url(#path-4-inside-2_2027_6858)"/>
<path d="M214.796 25.834C214.796 24.2287 215.057 22.978 215.58 22.082C216.102 21.1767 217.017 20.724 218.324 20.724C219.621 20.724 220.531 21.1767 221.054 22.082C221.576 22.978 221.838 24.2287 221.838 25.834C221.838 27.4673 221.576 28.7367 221.054 29.642C220.531 30.5473 219.621 31 218.324 31C217.017 31 216.102 30.5473 215.58 29.642C215.057 28.7367 214.796 27.4673 214.796 25.834ZM220.578 25.834C220.578 25.022 220.522 24.336 220.41 23.776C220.307 23.2067 220.088 22.7493 219.752 22.404C219.425 22.0587 218.949 21.886 218.324 21.886C217.689 21.886 217.204 22.0587 216.868 22.404C216.541 22.7493 216.322 23.2067 216.21 23.776C216.107 24.336 216.056 25.022 216.056 25.834C216.056 26.674 216.107 27.3787 216.21 27.948C216.322 28.5173 216.541 28.9747 216.868 29.32C217.204 29.6653 217.689 29.838 218.324 29.838C218.949 29.838 219.425 29.6653 219.752 29.32C220.088 28.9747 220.307 28.5173 220.41 27.948C220.522 27.3787 220.578 26.674 220.578 25.834ZM223.587 25.834C223.587 24.2287 223.848 22.978 224.371 22.082C224.893 21.1767 225.808 20.724 227.115 20.724C228.412 20.724 229.322 21.1767 229.845 22.082C230.367 22.978 230.629 24.2287 230.629 25.834C230.629 27.4673 230.367 28.7367 229.845 29.642C229.322 30.5473 228.412 31 227.115 31C225.808 31 224.893 30.5473 224.371 29.642C223.848 28.7367 223.587 27.4673 223.587 25.834ZM229.369 25.834C229.369 25.022 229.313 24.336 229.201 23.776C229.098 23.2067 228.879 22.7493 228.543 22.404C228.216 22.0587 227.74 21.886 227.115 21.886C226.48 21.886 225.995 22.0587 225.659 22.404C225.332 22.7493 225.113 23.2067 225.001 23.776C224.898 24.336 224.847 25.022 224.847 25.834C224.847 26.674 224.898 27.3787 225.001 27.948C225.113 28.5173 225.332 28.9747 225.659 29.32C225.995 29.6653 226.48 29.838 227.115 29.838C227.74 29.838 228.216 29.6653 228.543 29.32C228.879 28.9747 229.098 28.5173 229.201 27.948C229.313 27.3787 229.369 26.674 229.369 25.834ZM232.994 31.084C232.751 31.084 232.546 31 232.378 30.832C232.21 30.664 232.126 30.4587 232.126 30.216C232.126 29.9733 232.21 29.768 232.378 29.6C232.546 29.432 232.751 29.348 232.994 29.348C233.227 29.348 233.423 29.432 233.582 29.6C233.75 29.768 233.834 29.9733 233.834 30.216C233.834 30.4587 233.75 30.664 233.582 30.832C233.423 31 233.227 31.084 232.994 31.084ZM232.994 25.092C232.751 25.092 232.546 25.008 232.378 24.84C232.21 24.672 232.126 24.4667 232.126 24.224C232.126 23.9813 232.21 23.776 232.378 23.608C232.546 23.44 232.751 23.356 232.994 23.356C233.227 23.356 233.423 23.44 233.582 23.608C233.75 23.776 233.834 23.9813 233.834 24.224C233.834 24.4667 233.75 24.672 233.582 24.84C233.423 25.008 233.227 25.092 232.994 25.092ZM235.358 25.834C235.358 24.2287 235.62 22.978 236.142 22.082C236.665 21.1767 237.58 20.724 238.886 20.724C240.184 20.724 241.094 21.1767 241.616 22.082C242.139 22.978 242.4 24.2287 242.4 25.834C242.4 27.4673 242.139 28.7367 241.616 29.642C241.094 30.5473 240.184 31 238.886 31C237.58 31 236.665 30.5473 236.142 29.642C235.62 28.7367 235.358 27.4673 235.358 25.834ZM241.14 25.834C241.14 25.022 241.084 24.336 240.972 23.776C240.87 23.2067 240.65 22.7493 240.314 22.404C239.988 22.0587 239.512 21.886 238.886 21.886C238.252 21.886 237.766 22.0587 237.43 22.404C237.104 22.7493 236.884 23.2067 236.772 23.776C236.67 24.336 236.618 25.022 236.618 25.834C236.618 26.674 236.67 27.3787 236.772 27.948C236.884 28.5173 237.104 28.9747 237.43 29.32C237.766 29.6653 238.252 29.838 238.886 29.838C239.512 29.838 239.988 29.6653 240.314 29.32C240.65 28.9747 240.87 28.5173 240.972 27.948C241.084 27.3787 241.14 26.674 241.14 25.834ZM244.149 25.834C244.149 24.2287 244.411 22.978 244.933 22.082C245.456 21.1767 246.371 20.724 247.677 20.724C248.975 20.724 249.885 21.1767 250.407 22.082C250.93 22.978 251.191 24.2287 251.191 25.834C251.191 27.4673 250.93 28.7367 250.407 29.642C249.885 30.5473 248.975 31 247.677 31C246.371 31 245.456 30.5473 244.933 29.642C244.411 28.7367 244.149 27.4673 244.149 25.834ZM249.931 25.834C249.931 25.022 249.875 24.336 249.763 23.776C249.661 23.2067 249.441 22.7493 249.105 22.404C248.779 22.0587 248.303 21.886 247.677 21.886C247.043 21.886 246.557 22.0587 246.221 22.404C245.895 22.7493 245.675 23.2067 245.563 23.776C245.461 24.336 245.409 25.022 245.409 25.834C245.409 26.674 245.461 27.3787 245.563 27.948C245.675 28.5173 245.895 28.9747 246.221 29.32C246.557 29.6653 247.043 29.838 247.677 29.838C248.303 29.838 248.779 29.6653 249.105 29.32C249.441 28.9747 249.661 28.5173 249.763 27.948C249.875 27.3787 249.931 26.674 249.931 25.834Z" fill="#91908F"/>
<path d="M213.928 26.408H252.073V27.108H213.928V26.408Z" fill="#91908F"/>
<mask id="path-7-inside-3_2027_6858" fill="white">
<path d="M0 68C0 63.5817 3.58172 60 8 60H142C146.418 60 150 63.5817 150 68V104C150 108.418 146.418 112 142 112H8C3.58172 112 0 108.418 0 104V68Z"/>
</mask>
<path d="M0 68C0 63.5817 3.58172 60 8 60H142C146.418 60 150 63.5817 150 68V104C150 108.418 146.418 112 142 112H8C3.58172 112 0 108.418 0 104V68Z" fill="#FAF8F7"/>
<path d="M8 60V61H142V60V59H8V60ZM150 68H149V104H150H151V68H150ZM142 112V111H8V112V113H142V112ZM0 104H1V68H0H-1V104H0ZM8 112V111C4.13401 111 1 107.866 1 104H0H-1C-1 108.971 3.02944 113 8 113V112ZM150 104H149C149 107.866 145.866 111 142 111V112V113C146.971 113 151 108.971 151 104H150ZM142 60V61C145.866 61 149 64.134 149 68H150H151C151 63.0294 146.971 59 142 59V60ZM8 60V59C3.02944 59 -1 63.0294 -1 68H0H1C1 64.134 4.13401 61 8 61V60Z" fill="#CDCBCB" mask="url(#path-7-inside-3_2027_6858)"/>
<path d="M56.7957 85.834C56.7957 84.2287 57.0571 82.978 57.5797 82.082C58.1024 81.1767 59.0171 80.724 60.3237 80.724C61.6211 80.724 62.5311 81.1767 63.0537 82.082C63.5764 82.978 63.8377 84.2287 63.8377 85.834C63.8377 87.4673 63.5764 88.7367 63.0537 89.642C62.5311 90.5473 61.6211 91 60.3237 91C59.0171 91 58.1024 90.5473 57.5797 89.642C57.0571 88.7367 56.7957 87.4673 56.7957 85.834ZM62.5777 85.834C62.5777 85.022 62.5217 84.336 62.4097 83.776C62.3071 83.2067 62.0877 82.7493 61.7517 82.404C61.4251 82.0587 60.9491 81.886 60.3237 81.886C59.6891 81.886 59.2037 82.0587 58.8677 82.404C58.5411 82.7493 58.3217 83.2067 58.2097 83.776C58.1071 84.336 58.0557 85.022 58.0557 85.834C58.0557 86.674 58.1071 87.3787 58.2097 87.948C58.3217 88.5173 58.5411 88.9747 58.8677 89.32C59.2037 89.6653 59.6891 89.838 60.3237 89.838C60.9491 89.838 61.4251 89.6653 61.7517 89.32C62.0877 88.9747 62.3071 88.5173 62.4097 87.948C62.5217 87.3787 62.5777 86.674 62.5777 85.834ZM65.5868 85.834C65.5868 84.2287 65.8481 82.978 66.3708 82.082C66.8934 81.1767 67.8081 80.724 69.1148 80.724C70.4121 80.724 71.3221 81.1767 71.8448 82.082C72.3674 82.978 72.6287 84.2287 72.6287 85.834C72.6287 87.4673 72.3674 88.7367 71.8448 89.642C71.3221 90.5473 70.4121 91 69.1148 91C67.8081 91 66.8934 90.5473 66.3708 89.642C65.8481 88.7367 65.5868 87.4673 65.5868 85.834ZM71.3688 85.834C71.3688 85.022 71.3128 84.336 71.2008 83.776C71.0981 83.2067 70.8788 82.7493 70.5428 82.404C70.2161 82.0587 69.7401 81.886 69.1148 81.886C68.4801 81.886 67.9948 82.0587 67.6588 82.404C67.3321 82.7493 67.1128 83.2067 67.0008 83.776C66.8981 84.336 66.8468 85.022 66.8468 85.834C66.8468 86.674 66.8981 87.3787 67.0008 87.948C67.1128 88.5173 67.3321 88.9747 67.6588 89.32C67.9948 89.6653 68.4801 89.838 69.1148 89.838C69.7401 89.838 70.2161 89.6653 70.5428 89.32C70.8788 88.9747 71.0981 88.5173 71.2008 87.948C71.3128 87.3787 71.3688 86.674 71.3688 85.834ZM74.9938 91.084C74.7511 91.084 74.5458 91 74.3778 90.832C74.2098 90.664 74.1258 90.4587 74.1258 90.216C74.1258 89.9733 74.2098 89.768 74.3778 89.6C74.5458 89.432 74.7511 89.348 74.9938 89.348C75.2271 89.348 75.4231 89.432 75.5818 89.6C75.7498 89.768 75.8338 89.9733 75.8338 90.216C75.8338 90.4587 75.7498 90.664 75.5818 90.832C75.4231 91 75.2271 91.084 74.9938 91.084ZM74.9938 85.092C74.7511 85.092 74.5458 85.008 74.3778 84.84C74.2098 84.672 74.1258 84.4667 74.1258 84.224C74.1258 83.9813 74.2098 83.776 74.3778 83.608C74.5458 83.44 74.7511 83.356 74.9938 83.356C75.2271 83.356 75.4231 83.44 75.5818 83.608C75.7498 83.776 75.8338 83.9813 75.8338 84.224C75.8338 84.4667 75.7498 84.672 75.5818 84.84C75.4231 85.008 75.2271 85.092 74.9938 85.092ZM77.3582 85.834C77.3582 84.2287 77.6196 82.978 78.1422 82.082C78.6649 81.1767 79.5796 80.724 80.8862 80.724C82.1836 80.724 83.0936 81.1767 83.6162 82.082C84.1389 82.978 84.4002 84.2287 84.4002 85.834C84.4002 87.4673 84.1389 88.7367 83.6162 89.642C83.0936 90.5473 82.1836 91 80.8862 91C79.5796 91 78.6649 90.5473 78.1422 89.642C77.6196 88.7367 77.3582 87.4673 77.3582 85.834ZM83.1402 85.834C83.1402 85.022 83.0842 84.336 82.9722 83.776C82.8696 83.2067 82.6502 82.7493 82.3142 82.404C81.9876 82.0587 81.5116 81.886 80.8862 81.886C80.2516 81.886 79.7662 82.0587 79.4302 82.404C79.1036 82.7493 78.8842 83.2067 78.7722 83.776C78.6696 84.336 78.6182 85.022 78.6182 85.834C78.6182 86.674 78.6696 87.3787 78.7722 87.948C78.8842 88.5173 79.1036 88.9747 79.4302 89.32C79.7662 89.6653 80.2516 89.838 80.8862 89.838C81.5116 89.838 81.9876 89.6653 82.3142 89.32C82.6502 88.9747 82.8696 88.5173 82.9722 87.948C83.0842 87.3787 83.1402 86.674 83.1402 85.834ZM86.1493 85.834C86.1493 84.2287 86.4106 82.978 86.9333 82.082C87.4559 81.1767 88.3706 80.724 89.6773 80.724C90.9746 80.724 91.8846 81.1767 92.4073 82.082C92.9299 82.978 93.1912 84.2287 93.1912 85.834C93.1912 87.4673 92.9299 88.7367 92.4073 89.642C91.8846 90.5473 90.9746 91 89.6773 91C88.3706 91 87.4559 90.5473 86.9333 89.642C86.4106 88.7367 86.1493 87.4673 86.1493 85.834ZM91.9313 85.834C91.9313 85.022 91.8753 84.336 91.7633 83.776C91.6606 83.2067 91.4413 82.7493 91.1053 82.404C90.7786 82.0587 90.3026 81.886 89.6773 81.886C89.0426 81.886 88.5573 82.0587 88.2213 82.404C87.8946 82.7493 87.6753 83.2067 87.5633 83.776C87.4606 84.336 87.4093 85.022 87.4093 85.834C87.4093 86.674 87.4606 87.3787 87.5633 87.948C87.6753 88.5173 87.8946 88.9747 88.2213 89.32C88.5573 89.6653 89.0426 89.838 89.6773 89.838C90.3026 89.838 90.7786 89.6653 91.1053 89.32C91.4413 88.9747 91.6606 88.5173 91.7633 87.948C91.8753 87.3787 91.9313 86.674 91.9313 85.834Z" fill="#91908F"/>
<path d="M55.9277 86.408H94.0732V87.108H55.9277V86.408Z" fill="#91908F"/>
<mask id="path-10-inside-4_2027_6858" fill="white">
<path d="M158 68C158 63.5817 161.582 60 166 60H300C304.418 60 308 63.5817 308 68V104C308 108.418 304.418 112 300 112H166C161.582 112 158 108.418 158 104V68Z"/>
</mask>
<path d="M158 68C158 63.5817 161.582 60 166 60H300C304.418 60 308 63.5817 308 68V104C308 108.418 304.418 112 300 112H166C161.582 112 158 108.418 158 104V68Z" fill="#FAF8F7"/>
<path d="M166 60V61H300V60V59H166V60ZM308 68H307V104H308H309V68H308ZM300 112V111H166V112V113H300V112ZM158 104H159V68H158H157V104H158ZM166 112V111C162.134 111 159 107.866 159 104H158H157C157 108.971 161.029 113 166 113V112ZM308 104H307C307 107.866 303.866 111 300 111V112V113C304.971 113 309 108.971 309 104H308ZM300 60V61C303.866 61 307 64.134 307 68H308H309C309 63.0294 304.971 59 300 59V60ZM166 60V59C161.029 59 157 63.0294 157 68H158H159C159 64.134 162.134 61 166 61V60Z" fill="#CDCBCB" mask="url(#path-10-inside-4_2027_6858)"/>
<path d="M214.796 85.834C214.796 84.2287 215.057 82.978 215.58 82.082C216.102 81.1767 217.017 80.724 218.324 80.724C219.621 80.724 220.531 81.1767 221.054 82.082C221.576 82.978 221.838 84.2287 221.838 85.834C221.838 87.4673 221.576 88.7367 221.054 89.642C220.531 90.5473 219.621 91 218.324 91C217.017 91 216.102 90.5473 215.58 89.642C215.057 88.7367 214.796 87.4673 214.796 85.834ZM220.578 85.834C220.578 85.022 220.522 84.336 220.41 83.776C220.307 83.2067 220.088 82.7493 219.752 82.404C219.425 82.0587 218.949 81.886 218.324 81.886C217.689 81.886 217.204 82.0587 216.868 82.404C216.541 82.7493 216.322 83.2067 216.21 83.776C216.107 84.336 216.056 85.022 216.056 85.834C216.056 86.674 216.107 87.3787 216.21 87.948C216.322 88.5173 216.541 88.9747 216.868 89.32C217.204 89.6653 217.689 89.838 218.324 89.838C218.949 89.838 219.425 89.6653 219.752 89.32C220.088 88.9747 220.307 88.5173 220.41 87.948C220.522 87.3787 220.578 86.674 220.578 85.834ZM223.587 85.834C223.587 84.2287 223.848 82.978 224.371 82.082C224.893 81.1767 225.808 80.724 227.115 80.724C228.412 80.724 229.322 81.1767 229.845 82.082C230.367 82.978 230.629 84.2287 230.629 85.834C230.629 87.4673 230.367 88.7367 229.845 89.642C229.322 90.5473 228.412 91 227.115 91C225.808 91 224.893 90.5473 224.371 89.642C223.848 88.7367 223.587 87.4673 223.587 85.834ZM229.369 85.834C229.369 85.022 229.313 84.336 229.201 83.776C229.098 83.2067 228.879 82.7493 228.543 82.404C228.216 82.0587 227.74 81.886 227.115 81.886C226.48 81.886 225.995 82.0587 225.659 82.404C225.332 82.7493 225.113 83.2067 225.001 83.776C224.898 84.336 224.847 85.022 224.847 85.834C224.847 86.674 224.898 87.3787 225.001 87.948C225.113 88.5173 225.332 88.9747 225.659 89.32C225.995 89.6653 226.48 89.838 227.115 89.838C227.74 89.838 228.216 89.6653 228.543 89.32C228.879 88.9747 229.098 88.5173 229.201 87.948C229.313 87.3787 229.369 86.674 229.369 85.834ZM232.994 91.084C232.751 91.084 232.546 91 232.378 90.832C232.21 90.664 232.126 90.4587 232.126 90.216C232.126 89.9733 232.21 89.768 232.378 89.6C232.546 89.432 232.751 89.348 232.994 89.348C233.227 89.348 233.423 89.432 233.582 89.6C233.75 89.768 233.834 89.9733 233.834 90.216C233.834 90.4587 233.75 90.664 233.582 90.832C233.423 91 233.227 91.084 232.994 91.084ZM232.994 85.092C232.751 85.092 232.546 85.008 232.378 84.84C232.21 84.672 232.126 84.4667 232.126 84.224C232.126 83.9813 232.21 83.776 232.378 83.608C232.546 83.44 232.751 83.356 232.994 83.356C233.227 83.356 233.423 83.44 233.582 83.608C233.75 83.776 233.834 83.9813 233.834 84.224C233.834 84.4667 233.75 84.672 233.582 84.84C233.423 85.008 233.227 85.092 232.994 85.092ZM235.358 85.834C235.358 84.2287 235.62 82.978 236.142 82.082C236.665 81.1767 237.58 80.724 238.886 80.724C240.184 80.724 241.094 81.1767 241.616 82.082C242.139 82.978 242.4 84.2287 242.4 85.834C242.4 87.4673 242.139 88.7367 241.616 89.642C241.094 90.5473 240.184 91 238.886 91C237.58 91 236.665 90.5473 236.142 89.642C235.62 88.7367 235.358 87.4673 235.358 85.834ZM241.14 85.834C241.14 85.022 241.084 84.336 240.972 83.776C240.87 83.2067 240.65 82.7493 240.314 82.404C239.988 82.0587 239.512 81.886 238.886 81.886C238.252 81.886 237.766 82.0587 237.43 82.404C237.104 82.7493 236.884 83.2067 236.772 83.776C236.67 84.336 236.618 85.022 236.618 85.834C236.618 86.674 236.67 87.3787 236.772 87.948C236.884 88.5173 237.104 88.9747 237.43 89.32C237.766 89.6653 238.252 89.838 238.886 89.838C239.512 89.838 239.988 89.6653 240.314 89.32C240.65 88.9747 240.87 88.5173 240.972 87.948C241.084 87.3787 241.14 86.674 241.14 85.834ZM244.149 85.834C244.149 84.2287 244.411 82.978 244.933 82.082C245.456 81.1767 246.371 80.724 247.677 80.724C248.975 80.724 249.885 81.1767 250.407 82.082C250.93 82.978 251.191 84.2287 251.191 85.834C251.191 87.4673 250.93 88.7367 250.407 89.642C249.885 90.5473 248.975 91 247.677 91C246.371 91 245.456 90.5473 244.933 89.642C244.411 88.7367 244.149 87.4673 244.149 85.834ZM249.931 85.834C249.931 85.022 249.875 84.336 249.763 83.776C249.661 83.2067 249.441 82.7493 249.105 82.404C248.779 82.0587 248.303 81.886 247.677 81.886C247.043 81.886 246.557 82.0587 246.221 82.404C245.895 82.7493 245.675 83.2067 245.563 83.776C245.461 84.336 245.409 85.022 245.409 85.834C245.409 86.674 245.461 87.3787 245.563 87.948C245.675 88.5173 245.895 88.9747 246.221 89.32C246.557 89.6653 247.043 89.838 247.677 89.838C248.303 89.838 248.779 89.6653 249.105 89.32C249.441 88.9747 249.661 88.5173 249.763 87.948C249.875 87.3787 249.931 86.674 249.931 85.834Z" fill="#91908F"/>
<path d="M213.928 86.408H252.073V87.108H213.928V86.408Z" fill="#91908F"/>
<mask id="path-13-inside-5_2027_6858" fill="white">
<path d="M0 128C0 123.582 3.58172 120 8 120H142C146.418 120 150 123.582 150 128V164C150 168.418 146.418 172 142 172H8C3.58172 172 0 168.418 0 164V128Z"/>
</mask>
<path d="M0 128C0 123.582 3.58172 120 8 120H142C146.418 120 150 123.582 150 128V164C150 168.418 146.418 172 142 172H8C3.58172 172 0 168.418 0 164V128Z" fill="#FAF8F7"/>
<path d="M8 120V121H142V120V119H8V120ZM150 128H149V164H150H151V128H150ZM142 172V171H8V172V173H142V172ZM0 164H1V128H0H-1V164H0ZM8 172V171C4.13401 171 1 167.866 1 164H0H-1C-1 168.971 3.02944 173 8 173V172ZM150 164H149C149 167.866 145.866 171 142 171V172V173C146.971 173 151 168.971 151 164H150ZM142 120V121C145.866 121 149 124.134 149 128H150H151C151 123.029 146.971 119 142 119V120ZM8 120V119C3.02944 119 -1 123.029 -1 128H0H1C1 124.134 4.13401 121 8 121V120Z" fill="#CDCBCB" mask="url(#path-13-inside-5_2027_6858)"/>
<path d="M56.7957 145.834C56.7957 144.229 57.0571 142.978 57.5797 142.082C58.1024 141.177 59.0171 140.724 60.3237 140.724C61.6211 140.724 62.5311 141.177 63.0537 142.082C63.5764 142.978 63.8377 144.229 63.8377 145.834C63.8377 147.467 63.5764 148.737 63.0537 149.642C62.5311 150.547 61.6211 151 60.3237 151C59.0171 151 58.1024 150.547 57.5797 149.642C57.0571 148.737 56.7957 147.467 56.7957 145.834ZM62.5777 145.834C62.5777 145.022 62.5217 144.336 62.4097 143.776C62.3071 143.207 62.0877 142.749 61.7517 142.404C61.4251 142.059 60.9491 141.886 60.3237 141.886C59.6891 141.886 59.2037 142.059 58.8677 142.404C58.5411 142.749 58.3217 143.207 58.2097 143.776C58.1071 144.336 58.0557 145.022 58.0557 145.834C58.0557 146.674 58.1071 147.379 58.2097 147.948C58.3217 148.517 58.5411 148.975 58.8677 149.32C59.2037 149.665 59.6891 149.838 60.3237 149.838C60.9491 149.838 61.4251 149.665 61.7517 149.32C62.0877 148.975 62.3071 148.517 62.4097 147.948C62.5217 147.379 62.5777 146.674 62.5777 145.834ZM65.5868 145.834C65.5868 144.229 65.8481 142.978 66.3708 142.082C66.8934 141.177 67.8081 140.724 69.1148 140.724C70.4121 140.724 71.3221 141.177 71.8448 142.082C72.3674 142.978 72.6287 144.229 72.6287 145.834C72.6287 147.467 72.3674 148.737 71.8448 149.642C71.3221 150.547 70.4121 151 69.1148 151C67.8081 151 66.8934 150.547 66.3708 149.642C65.8481 148.737 65.5868 147.467 65.5868 145.834ZM71.3688 145.834C71.3688 145.022 71.3128 144.336 71.2008 143.776C71.0981 143.207 70.8788 142.749 70.5428 142.404C70.2161 142.059 69.7401 141.886 69.1148 141.886C68.4801 141.886 67.9948 142.059 67.6588 142.404C67.3321 142.749 67.1128 143.207 67.0008 143.776C66.8981 144.336 66.8468 145.022 66.8468 145.834C66.8468 146.674 66.8981 147.379 67.0008 147.948C67.1128 148.517 67.3321 148.975 67.6588 149.32C67.9948 149.665 68.4801 149.838 69.1148 149.838C69.7401 149.838 70.2161 149.665 70.5428 149.32C70.8788 148.975 71.0981 148.517 71.2008 147.948C71.3128 147.379 71.3688 146.674 71.3688 145.834ZM74.9938 151.084C74.7511 151.084 74.5458 151 74.3778 150.832C74.2098 150.664 74.1258 150.459 74.1258 150.216C74.1258 149.973 74.2098 149.768 74.3778 149.6C74.5458 149.432 74.7511 149.348 74.9938 149.348C75.2271 149.348 75.4231 149.432 75.5818 149.6C75.7498 149.768 75.8338 149.973 75.8338 150.216C75.8338 150.459 75.7498 150.664 75.5818 150.832C75.4231 151 75.2271 151.084 74.9938 151.084ZM74.9938 145.092C74.7511 145.092 74.5458 145.008 74.3778 144.84C74.2098 144.672 74.1258 144.467 74.1258 144.224C74.1258 143.981 74.2098 143.776 74.3778 143.608C74.5458 143.44 74.7511 143.356 74.9938 143.356C75.2271 143.356 75.4231 143.44 75.5818 143.608C75.7498 143.776 75.8338 143.981 75.8338 144.224C75.8338 144.467 75.7498 144.672 75.5818 144.84C75.4231 145.008 75.2271 145.092 74.9938 145.092ZM77.3582 145.834C77.3582 144.229 77.6196 142.978 78.1422 142.082C78.6649 141.177 79.5796 140.724 80.8862 140.724C82.1836 140.724 83.0936 141.177 83.6162 142.082C84.1389 142.978 84.4002 144.229 84.4002 145.834C84.4002 147.467 84.1389 148.737 83.6162 149.642C83.0936 150.547 82.1836 151 80.8862 151C79.5796 151 78.6649 150.547 78.1422 149.642C77.6196 148.737 77.3582 147.467 77.3582 145.834ZM83.1402 145.834C83.1402 145.022 83.0842 144.336 82.9722 143.776C82.8696 143.207 82.6502 142.749 82.3142 142.404C81.9876 142.059 81.5116 141.886 80.8862 141.886C80.2516 141.886 79.7662 142.059 79.4302 142.404C79.1036 142.749 78.8842 143.207 78.7722 143.776C78.6696 144.336 78.6182 145.022 78.6182 145.834C78.6182 146.674 78.6696 147.379 78.7722 147.948C78.8842 148.517 79.1036 148.975 79.4302 149.32C79.7662 149.665 80.2516 149.838 80.8862 149.838C81.5116 149.838 81.9876 149.665 82.3142 149.32C82.6502 148.975 82.8696 148.517 82.9722 147.948C83.0842 147.379 83.1402 146.674 83.1402 145.834ZM86.1493 145.834C86.1493 144.229 86.4106 142.978 86.9333 142.082C87.4559 141.177 88.3706 140.724 89.6773 140.724C90.9746 140.724 91.8846 141.177 92.4073 142.082C92.9299 142.978 93.1912 144.229 93.1912 145.834C93.1912 147.467 92.9299 148.737 92.4073 149.642C91.8846 150.547 90.9746 151 89.6773 151C88.3706 151 87.4559 150.547 86.9333 149.642C86.4106 148.737 86.1493 147.467 86.1493 145.834ZM91.9313 145.834C91.9313 145.022 91.8753 144.336 91.7633 143.776C91.6606 143.207 91.4413 142.749 91.1053 142.404C90.7786 142.059 90.3026 141.886 89.6773 141.886C89.0426 141.886 88.5573 142.059 88.2213 142.404C87.8946 142.749 87.6753 143.207 87.5633 143.776C87.4606 144.336 87.4093 145.022 87.4093 145.834C87.4093 146.674 87.4606 147.379 87.5633 147.948C87.6753 148.517 87.8946 148.975 88.2213 149.32C88.5573 149.665 89.0426 149.838 89.6773 149.838C90.3026 149.838 90.7786 149.665 91.1053 149.32C91.4413 148.975 91.6606 148.517 91.7633 147.948C91.8753 147.379 91.9313 146.674 91.9313 145.834Z" fill="#91908F"/>
<path d="M55.9277 146.408H94.0732V147.108H55.9277V146.408Z" fill="#91908F"/>
<mask id="path-16-inside-6_2027_6858" fill="white">
<path d="M158 128C158 123.582 161.582 120 166 120H300C304.418 120 308 123.582 308 128V164C308 168.418 304.418 172 300 172H166C161.582 172 158 168.418 158 164V128Z"/>
</mask>
<path d="M158 128C158 123.582 161.582 120 166 120H300C304.418 120 308 123.582 308 128V164C308 168.418 304.418 172 300 172H166C161.582 172 158 168.418 158 164V128Z" fill="#FAF8F7"/>
<path d="M166 120V121H300V120V119H166V120ZM308 128H307V164H308H309V128H308ZM300 172V171H166V172V173H300V172ZM158 164H159V128H158H157V164H158ZM166 172V171C162.134 171 159 167.866 159 164H158H157C157 168.971 161.029 173 166 173V172ZM308 164H307C307 167.866 303.866 171 300 171V172V173C304.971 173 309 168.971 309 164H308ZM300 120V121C303.866 121 307 124.134 307 128H308H309C309 123.029 304.971 119 300 119V120ZM166 120V119C161.029 119 157 123.029 157 128H158H159C159 124.134 162.134 121 166 121V120Z" fill="#CDCBCB" mask="url(#path-16-inside-6_2027_6858)"/>
<path d="M214.796 145.834C214.796 144.229 215.057 142.978 215.58 142.082C216.102 141.177 217.017 140.724 218.324 140.724C219.621 140.724 220.531 141.177 221.054 142.082C221.576 142.978 221.838 144.229 221.838 145.834C221.838 147.467 221.576 148.737 221.054 149.642C220.531 150.547 219.621 151 218.324 151C217.017 151 216.102 150.547 215.58 149.642C215.057 148.737 214.796 147.467 214.796 145.834ZM220.578 145.834C220.578 145.022 220.522 144.336 220.41 143.776C220.307 143.207 220.088 142.749 219.752 142.404C219.425 142.059 218.949 141.886 218.324 141.886C217.689 141.886 217.204 142.059 216.868 142.404C216.541 142.749 216.322 143.207 216.21 143.776C216.107 144.336 216.056 145.022 216.056 145.834C216.056 146.674 216.107 147.379 216.21 147.948C216.322 148.517 216.541 148.975 216.868 149.32C217.204 149.665 217.689 149.838 218.324 149.838C218.949 149.838 219.425 149.665 219.752 149.32C220.088 148.975 220.307 148.517 220.41 147.948C220.522 147.379 220.578 146.674 220.578 145.834ZM223.587 145.834C223.587 144.229 223.848 142.978 224.371 142.082C224.893 141.177 225.808 140.724 227.115 140.724C228.412 140.724 229.322 141.177 229.845 142.082C230.367 142.978 230.629 144.229 230.629 145.834C230.629 147.467 230.367 148.737 229.845 149.642C229.322 150.547 228.412 151 227.115 151C225.808 151 224.893 150.547 224.371 149.642C223.848 148.737 223.587 147.467 223.587 145.834ZM229.369 145.834C229.369 145.022 229.313 144.336 229.201 143.776C229.098 143.207 228.879 142.749 228.543 142.404C228.216 142.059 227.74 141.886 227.115 141.886C226.48 141.886 225.995 142.059 225.659 142.404C225.332 142.749 225.113 143.207 225.001 143.776C224.898 144.336 224.847 145.022 224.847 145.834C224.847 146.674 224.898 147.379 225.001 147.948C225.113 148.517 225.332 148.975 225.659 149.32C225.995 149.665 226.48 149.838 227.115 149.838C227.74 149.838 228.216 149.665 228.543 149.32C228.879 148.975 229.098 148.517 229.201 147.948C229.313 147.379 229.369 146.674 229.369 145.834ZM232.994 151.084C232.751 151.084 232.546 151 232.378 150.832C232.21 150.664 232.126 150.459 232.126 150.216C232.126 149.973 232.21 149.768 232.378 149.6C232.546 149.432 232.751 149.348 232.994 149.348C233.227 149.348 233.423 149.432 233.582 149.6C233.75 149.768 233.834 149.973 233.834 150.216C233.834 150.459 233.75 150.664 233.582 150.832C233.423 151 233.227 151.084 232.994 151.084ZM232.994 145.092C232.751 145.092 232.546 145.008 232.378 144.84C232.21 144.672 232.126 144.467 232.126 144.224C232.126 143.981 232.21 143.776 232.378 143.608C232.546 143.44 232.751 143.356 232.994 143.356C233.227 143.356 233.423 143.44 233.582 143.608C233.75 143.776 233.834 143.981 233.834 144.224C233.834 144.467 233.75 144.672 233.582 144.84C233.423 145.008 233.227 145.092 232.994 145.092ZM235.358 145.834C235.358 144.229 235.62 142.978 236.142 142.082C236.665 141.177 237.58 140.724 238.886 140.724C240.184 140.724 241.094 141.177 241.616 142.082C242.139 142.978 242.4 144.229 242.4 145.834C242.4 147.467 242.139 148.737 241.616 149.642C241.094 150.547 240.184 151 238.886 151C237.58 151 236.665 150.547 236.142 149.642C235.62 148.737 235.358 147.467 235.358 145.834ZM241.14 145.834C241.14 145.022 241.084 144.336 240.972 143.776C240.87 143.207 240.65 142.749 240.314 142.404C239.988 142.059 239.512 141.886 238.886 141.886C238.252 141.886 237.766 142.059 237.43 142.404C237.104 142.749 236.884 143.207 236.772 143.776C236.67 144.336 236.618 145.022 236.618 145.834C236.618 146.674 236.67 147.379 236.772 147.948C236.884 148.517 237.104 148.975 237.43 149.32C237.766 149.665 238.252 149.838 238.886 149.838C239.512 149.838 239.988 149.665 240.314 149.32C240.65 148.975 240.87 148.517 240.972 147.948C241.084 147.379 241.14 146.674 241.14 145.834ZM244.149 145.834C244.149 144.229 244.411 142.978 244.933 142.082C245.456 141.177 246.371 140.724 247.677 140.724C248.975 140.724 249.885 141.177 250.407 142.082C250.93 142.978 251.191 144.229 251.191 145.834C251.191 147.467 250.93 148.737 250.407 149.642C249.885 150.547 248.975 151 247.677 151C246.371 151 245.456 150.547 244.933 149.642C244.411 148.737 244.149 147.467 244.149 145.834ZM249.931 145.834C249.931 145.022 249.875 144.336 249.763 143.776C249.661 143.207 249.441 142.749 249.105 142.404C248.779 142.059 248.303 141.886 247.677 141.886C247.043 141.886 246.557 142.059 246.221 142.404C245.895 142.749 245.675 143.207 245.563 143.776C245.461 144.336 245.409 145.022 245.409 145.834C245.409 146.674 245.461 147.379 245.563 147.948C245.675 148.517 245.895 148.975 246.221 149.32C246.557 149.665 247.043 149.838 247.677 149.838C248.303 149.838 248.779 149.665 249.105 149.32C249.441 148.975 249.661 148.517 249.763 147.948C249.875 147.379 249.931 146.674 249.931 145.834Z" fill="#91908F"/>
<path d="M213.928 146.408H252.073V147.108H213.928V146.408Z" fill="#91908F"/>
<mask id="path-19-inside-7_2027_6858" fill="white">
<path d="M0 188C0 183.582 3.58172 180 8 180H142C146.418 180 150 183.582 150 188V224C150 228.418 146.418 232 142 232H8C3.58172 232 0 228.418 0 224V188Z"/>
</mask>
<path d="M0 188C0 183.582 3.58172 180 8 180H142C146.418 180 150 183.582 150 188V224C150 228.418 146.418 232 142 232H8C3.58172 232 0 228.418 0 224V188Z" fill="white"/>
<path d="M8 180V181H142V180V179H8V180ZM150 188H149V224H150H151V188H150ZM142 232V231H8V232V233H142V232ZM0 224H1V188H0H-1V224H0ZM8 232V231C4.13401 231 1 227.866 1 224H0H-1C-1 228.971 3.02944 233 8 233V232ZM150 224H149C149 227.866 145.866 231 142 231V232V233C146.971 233 151 228.971 151 224H150ZM142 180V181C145.866 181 149 184.134 149 188H150H151C151 183.029 146.971 179 142 179V180ZM8 180V179C3.02944 179 -1 183.029 -1 188H0H1C1 184.134 4.13401 181 8 181V180Z" fill="#CDCBCB" mask="url(#path-19-inside-7_2027_6858)"/>
<path d="M57.1649 205.834C57.1649 204.229 57.4262 202.978 57.9489 202.082C58.4715 201.177 59.3862 200.724 60.6929 200.724C61.9902 200.724 62.9002 201.177 63.4229 202.082C63.9455 202.978 64.2069 204.229 64.2069 205.834C64.2069 207.467 63.9455 208.737 63.4229 209.642C62.9002 210.547 61.9902 211 60.6929 211C59.3862 211 58.4715 210.547 57.9489 209.642C57.4262 208.737 57.1649 207.467 57.1649 205.834ZM62.9469 205.834C62.9469 205.022 62.8909 204.336 62.7789 203.776C62.6762 203.207 62.4569 202.749 62.1209 202.404C61.7942 202.059 61.3182 201.886 60.6929 201.886C60.0582 201.886 59.5729 202.059 59.2369 202.404C58.9102 202.749 58.6909 203.207 58.5789 203.776C58.4762 204.336 58.4249 205.022 58.4249 205.834C58.4249 206.674 58.4762 207.379 58.5789 207.948C58.6909 208.517 58.9102 208.975 59.2369 209.32C59.5729 209.665 60.0582 209.838 60.6929 209.838C61.3182 209.838 61.7942 209.665 62.1209 209.32C62.4569 208.975 62.6762 208.517 62.7789 207.948C62.8909 207.379 62.9469 206.674 62.9469 205.834ZM65.8019 209.978C66.9872 209.026 67.9159 208.247 68.5879 207.64C69.2599 207.024 69.8246 206.385 70.2819 205.722C70.7486 205.05 70.9819 204.392 70.9819 203.748C70.9819 203.141 70.8326 202.665 70.5339 202.32C70.2446 201.965 69.7732 201.788 69.1199 201.788C68.4852 201.788 67.9906 201.989 67.6359 202.39C67.2906 202.782 67.1039 203.309 67.0759 203.972H65.8439C65.8812 202.927 66.1986 202.119 66.7959 201.55C67.3932 200.981 68.1632 200.696 69.1059 200.696C70.0672 200.696 70.8279 200.962 71.3879 201.494C71.9572 202.026 72.2419 202.759 72.2419 203.692C72.2419 204.467 72.0086 205.223 71.5419 205.96C71.0846 206.688 70.5619 207.332 69.9739 207.892C69.3859 208.443 68.6346 209.087 67.7199 209.824H72.5359V210.888H65.8019V209.978ZM74.6246 211.084C74.382 211.084 74.1766 211 74.0086 210.832C73.8406 210.664 73.7566 210.459 73.7566 210.216C73.7566 209.973 73.8406 209.768 74.0086 209.6C74.1766 209.432 74.382 209.348 74.6246 209.348C74.858 209.348 75.054 209.432 75.2126 209.6C75.3806 209.768 75.4646 209.973 75.4646 210.216C75.4646 210.459 75.3806 210.664 75.2126 210.832C75.054 211 74.858 211.084 74.6246 211.084ZM74.6246 205.092C74.382 205.092 74.1766 205.008 74.0086 204.84C73.8406 204.672 73.7566 204.467 73.7566 204.224C73.7566 203.981 73.8406 203.776 74.0086 203.608C74.1766 203.44 74.382 203.356 74.6246 203.356C74.858 203.356 75.054 203.44 75.2126 203.608C75.3806 203.776 75.4646 203.981 75.4646 204.224C75.4646 204.467 75.3806 204.672 75.2126 204.84C75.054 205.008 74.858 205.092 74.6246 205.092ZM76.9891 205.834C76.9891 204.229 77.2504 202.978 77.7731 202.082C78.2958 201.177 79.2104 200.724 80.5171 200.724C81.8144 200.724 82.7244 201.177 83.2471 202.082C83.7698 202.978 84.0311 204.229 84.0311 205.834C84.0311 207.467 83.7698 208.737 83.2471 209.642C82.7244 210.547 81.8144 211 80.5171 211C79.2104 211 78.2958 210.547 77.7731 209.642C77.2504 208.737 76.9891 207.467 76.9891 205.834ZM82.7711 205.834C82.7711 205.022 82.7151 204.336 82.6031 203.776C82.5004 203.207 82.2811 202.749 81.9451 202.404C81.6184 202.059 81.1424 201.886 80.5171 201.886C79.8824 201.886 79.3971 202.059 79.0611 202.404C78.7344 202.749 78.5151 203.207 78.4031 203.776C78.3004 204.336 78.2491 205.022 78.2491 205.834C78.2491 206.674 78.3004 207.379 78.4031 207.948C78.5151 208.517 78.7344 208.975 79.0611 209.32C79.3971 209.665 79.8824 209.838 80.5171 209.838C81.1424 209.838 81.6184 209.665 81.9451 209.32C82.2811 208.975 82.5004 208.517 82.6031 207.948C82.7151 207.379 82.7711 206.674 82.7711 205.834ZM85.7801 205.834C85.7801 204.229 86.0414 202.978 86.5641 202.082C87.0868 201.177 88.0014 200.724 89.3081 200.724C90.6054 200.724 91.5154 201.177 92.0381 202.082C92.5608 202.978 92.8221 204.229 92.8221 205.834C92.8221 207.467 92.5608 208.737 92.0381 209.642C91.5154 210.547 90.6054 211 89.3081 211C88.0014 211 87.0868 210.547 86.5641 209.642C86.0414 208.737 85.7801 207.467 85.7801 205.834ZM91.5621 205.834C91.5621 205.022 91.5061 204.336 91.3941 203.776C91.2914 203.207 91.0721 202.749 90.7361 202.404C90.4094 202.059 89.9334 201.886 89.3081 201.886C88.6734 201.886 88.1881 202.059 87.8521 202.404C87.5254 202.749 87.3061 203.207 87.1941 203.776C87.0914 204.336 87.0401 205.022 87.0401 205.834C87.0401 206.674 87.0914 207.379 87.1941 207.948C87.3061 208.517 87.5254 208.975 87.8521 209.32C88.1881 209.665 88.6734 209.838 89.3081 209.838C89.9334 209.838 90.4094 209.665 90.7361 209.32C91.0721 208.975 91.2914 208.517 91.3941 207.948C91.5061 207.379 91.5621 206.674 91.5621 205.834Z" fill="#4B4A4A"/>
<path d="M158 188C158 183.582 161.582 180 166 180H300C304.418 180 308 183.582 308 188V224C308 228.418 304.418 232 300 232H166C161.582 232 158 228.418 158 224V188Z" fill="#0A2333"/>
<path d="M214.105 205.764C214.105 204.149 214.375 202.889 214.917 201.984C215.467 201.069 216.41 200.612 217.745 200.612C219.079 200.612 220.017 201.069 220.559 201.984C221.109 202.889 221.385 204.149 221.385 205.764C221.385 207.397 221.109 208.676 220.559 209.6C220.017 210.515 219.079 210.972 217.745 210.972C216.41 210.972 215.467 210.515 214.917 209.6C214.375 208.676 214.105 207.397 214.105 205.764ZM219.817 205.764C219.817 205.008 219.765 204.369 219.663 203.846C219.569 203.323 219.373 202.899 219.075 202.572C218.776 202.236 218.333 202.068 217.745 202.068C217.157 202.068 216.713 202.236 216.415 202.572C216.116 202.899 215.915 203.323 215.813 203.846C215.719 204.369 215.673 205.008 215.673 205.764C215.673 206.548 215.719 207.206 215.813 207.738C215.906 208.27 216.102 208.699 216.401 209.026C216.709 209.353 217.157 209.516 217.745 209.516C218.333 209.516 218.776 209.353 219.075 209.026C219.383 208.699 219.583 208.27 219.677 207.738C219.77 207.206 219.817 206.548 219.817 205.764ZM222.877 208.872V207.668L227.581 200.92H229.513V207.486H230.815V208.872H229.513V211H227.945V208.872H222.877ZM228.015 202.544L224.711 207.486H228.015V202.544ZM232.992 211.098C232.703 211.098 232.46 211 232.264 210.804C232.068 210.608 231.97 210.365 231.97 210.076C231.97 209.787 232.068 209.544 232.264 209.348C232.46 209.152 232.703 209.054 232.992 209.054C233.272 209.054 233.51 209.152 233.706 209.348C233.902 209.544 234 209.787 234 210.076C234 210.365 233.902 210.608 233.706 210.804C233.51 211 233.272 211.098 232.992 211.098ZM232.992 205.218C232.703 205.218 232.46 205.12 232.264 204.924C232.068 204.728 231.97 204.485 231.97 204.196C231.97 203.907 232.068 203.664 232.264 203.468C232.46 203.272 232.703 203.174 232.992 203.174C233.272 203.174 233.51 203.272 233.706 203.468C233.902 203.664 234 203.907 234 204.196C234 204.485 233.902 204.728 233.706 204.924C233.51 205.12 233.272 205.218 232.992 205.218ZM235.373 208.872V207.668L240.077 200.92H242.009V207.486H243.311V208.872H242.009V211H240.441V208.872H235.373ZM240.511 202.544L237.207 207.486H240.511V202.544ZM251.214 202.166H246.524V204.952C246.72 204.691 247.009 204.471 247.392 204.294C247.784 204.117 248.199 204.028 248.638 204.028C249.422 204.028 250.057 204.196 250.542 204.532C251.037 204.868 251.387 205.293 251.592 205.806C251.807 206.319 251.914 206.861 251.914 207.43C251.914 208.121 251.779 208.737 251.508 209.278C251.247 209.81 250.85 210.23 250.318 210.538C249.795 210.846 249.151 211 248.386 211C247.369 211 246.552 210.748 245.936 210.244C245.32 209.74 244.951 209.073 244.83 208.242H246.384C246.487 208.681 246.715 209.031 247.07 209.292C247.425 209.544 247.868 209.67 248.4 209.67C249.063 209.67 249.557 209.469 249.884 209.068C250.22 208.667 250.388 208.135 250.388 207.472C250.388 206.8 250.22 206.287 249.884 205.932C249.548 205.568 249.053 205.386 248.4 205.386C247.943 205.386 247.555 205.503 247.238 205.736C246.93 205.96 246.706 206.268 246.566 206.66H245.054V200.766H251.214V202.166Z" fill="white"/>
<mask id="path-24-inside-8_2027_6858" fill="white">
<path d="M0 248C0 243.582 3.58172 240 8 240H142C146.418 240 150 243.582 150 248V284C150 288.418 146.418 292 142 292H8C3.58172 292 0 288.418 0 284V248Z"/>
</mask>
<path d="M0 248C0 243.582 3.58172 240 8 240H142C146.418 240 150 243.582 150 248V284C150 288.418 146.418 292 142 292H8C3.58172 292 0 288.418 0 284V248Z" fill="#FAF8F7"/>
<path d="M8 240V241H142V240V239H8V240ZM150 248H149V284H150H151V248H150ZM142 292V291H8V292V293H142V292ZM0 284H1V248H0H-1V284H0ZM8 292V291C4.13401 291 1 287.866 1 284H0H-1C-1 288.971 3.02944 293 8 293V292ZM150 284H149C149 287.866 145.866 291 142 291V292V293C146.971 293 151 288.971 151 284H150ZM142 240V241C145.866 241 149 244.134 149 248H150H151C151 243.029 146.971 239 142 239V240ZM8 240V239C3.02944 239 -1 243.029 -1 248H0H1C1 244.134 4.13401 241 8 241V240Z" fill="#CDCBCB" mask="url(#path-24-inside-8_2027_6858)"/>
<path d="M56.7957 265.834C56.7957 264.229 57.0571 262.978 57.5797 262.082C58.1024 261.177 59.0171 260.724 60.3237 260.724C61.6211 260.724 62.5311 261.177 63.0537 262.082C63.5764 262.978 63.8377 264.229 63.8377 265.834C63.8377 267.467 63.5764 268.737 63.0537 269.642C62.5311 270.547 61.6211 271 60.3237 271C59.0171 271 58.1024 270.547 57.5797 269.642C57.0571 268.737 56.7957 267.467 56.7957 265.834ZM62.5777 265.834C62.5777 265.022 62.5217 264.336 62.4097 263.776C62.3071 263.207 62.0877 262.749 61.7517 262.404C61.4251 262.059 60.9491 261.886 60.3237 261.886C59.6891 261.886 59.2037 262.059 58.8677 262.404C58.5411 262.749 58.3217 263.207 58.2097 263.776C58.1071 264.336 58.0557 265.022 58.0557 265.834C58.0557 266.674 58.1071 267.379 58.2097 267.948C58.3217 268.517 58.5411 268.975 58.8677 269.32C59.2037 269.665 59.6891 269.838 60.3237 269.838C60.9491 269.838 61.4251 269.665 61.7517 269.32C62.0877 268.975 62.3071 268.517 62.4097 267.948C62.5217 267.379 62.5777 266.674 62.5777 265.834ZM65.5868 265.834C65.5868 264.229 65.8481 262.978 66.3708 262.082C66.8934 261.177 67.8081 260.724 69.1148 260.724C70.4121 260.724 71.3221 261.177 71.8448 262.082C72.3674 262.978 72.6287 264.229 72.6287 265.834C72.6287 267.467 72.3674 268.737 71.8448 269.642C71.3221 270.547 70.4121 271 69.1148 271C67.8081 271 66.8934 270.547 66.3708 269.642C65.8481 268.737 65.5868 267.467 65.5868 265.834ZM71.3688 265.834C71.3688 265.022 71.3128 264.336 71.2008 263.776C71.0981 263.207 70.8788 262.749 70.5428 262.404C70.2161 262.059 69.7401 261.886 69.1148 261.886C68.4801 261.886 67.9948 262.059 67.6588 262.404C67.3321 262.749 67.1128 263.207 67.0008 263.776C66.8981 264.336 66.8468 265.022 66.8468 265.834C66.8468 266.674 66.8981 267.379 67.0008 267.948C67.1128 268.517 67.3321 268.975 67.6588 269.32C67.9948 269.665 68.4801 269.838 69.1148 269.838C69.7401 269.838 70.2161 269.665 70.5428 269.32C70.8788 268.975 71.0981 268.517 71.2008 267.948C71.3128 267.379 71.3688 266.674 71.3688 265.834ZM74.9938 271.084C74.7511 271.084 74.5458 271 74.3778 270.832C74.2098 270.664 74.1258 270.459 74.1258 270.216C74.1258 269.973 74.2098 269.768 74.3778 269.6C74.5458 269.432 74.7511 269.348 74.9938 269.348C75.2271 269.348 75.4231 269.432 75.5818 269.6C75.7498 269.768 75.8338 269.973 75.8338 270.216C75.8338 270.459 75.7498 270.664 75.5818 270.832C75.4231 271 75.2271 271.084 74.9938 271.084ZM74.9938 265.092C74.7511 265.092 74.5458 265.008 74.3778 264.84C74.2098 264.672 74.1258 264.467 74.1258 264.224C74.1258 263.981 74.2098 263.776 74.3778 263.608C74.5458 263.44 74.7511 263.356 74.9938 263.356C75.2271 263.356 75.4231 263.44 75.5818 263.608C75.7498 263.776 75.8338 263.981 75.8338 264.224C75.8338 264.467 75.7498 264.672 75.5818 264.84C75.4231 265.008 75.2271 265.092 74.9938 265.092ZM77.3582 265.834C77.3582 264.229 77.6196 262.978 78.1422 262.082C78.6649 261.177 79.5796 260.724 80.8862 260.724C82.1836 260.724 83.0936 261.177 83.6162 262.082C84.1389 262.978 84.4002 264.229 84.4002 265.834C84.4002 267.467 84.1389 268.737 83.6162 269.642C83.0936 270.547 82.1836 271 80.8862 271C79.5796 271 78.6649 270.547 78.1422 269.642C77.6196 268.737 77.3582 267.467 77.3582 265.834ZM83.1402 265.834C83.1402 265.022 83.0842 264.336 82.9722 263.776C82.8696 263.207 82.6502 262.749 82.3142 262.404C81.9876 262.059 81.5116 261.886 80.8862 261.886C80.2516 261.886 79.7662 262.059 79.4302 262.404C79.1036 262.749 78.8842 263.207 78.7722 263.776C78.6696 264.336 78.6182 265.022 78.6182 265.834C78.6182 266.674 78.6696 267.379 78.7722 267.948C78.8842 268.517 79.1036 268.975 79.4302 269.32C79.7662 269.665 80.2516 269.838 80.8862 269.838C81.5116 269.838 81.9876 269.665 82.3142 269.32C82.6502 268.975 82.8696 268.517 82.9722 267.948C83.0842 267.379 83.1402 266.674 83.1402 265.834ZM86.1493 265.834C86.1493 264.229 86.4106 262.978 86.9333 262.082C87.4559 261.177 88.3706 260.724 89.6773 260.724C90.9746 260.724 91.8846 261.177 92.4073 262.082C92.9299 262.978 93.1912 264.229 93.1912 265.834C93.1912 267.467 92.9299 268.737 92.4073 269.642C91.8846 270.547 90.9746 271 89.6773 271C88.3706 271 87.4559 270.547 86.9333 269.642C86.4106 268.737 86.1493 267.467 86.1493 265.834ZM91.9313 265.834C91.9313 265.022 91.8753 264.336 91.7633 263.776C91.6606 263.207 91.4413 262.749 91.1053 262.404C90.7786 262.059 90.3026 261.886 89.6773 261.886C89.0426 261.886 88.5573 262.059 88.2213 262.404C87.8946 262.749 87.6753 263.207 87.5633 263.776C87.4606 264.336 87.4093 265.022 87.4093 265.834C87.4093 266.674 87.4606 267.379 87.5633 267.948C87.6753 268.517 87.8946 268.975 88.2213 269.32C88.5573 269.665 89.0426 269.838 89.6773 269.838C90.3026 269.838 90.7786 269.665 91.1053 269.32C91.4413 268.975 91.6606 268.517 91.7633 267.948C91.8753 267.379 91.9313 266.674 91.9313 265.834Z" fill="#91908F"/>
<path d="M55.9277 266.408H94.0732V267.108H55.9277V266.408Z" fill="#91908F"/>
<mask id="path-27-inside-9_2027_6858" fill="white">
<path d="M158 248C158 243.582 161.582 240 166 240H300C304.418 240 308 243.582 308 248V284C308 288.418 304.418 292 300 292H166C161.582 292 158 288.418 158 284V248Z"/>
</mask>
<path d="M158 248C158 243.582 161.582 240 166 240H300C304.418 240 308 243.582 308 248V284C308 288.418 304.418 292 300 292H166C161.582 292 158 288.418 158 284V248Z" fill="white"/>
<path d="M166 240V241H300V240V239H166V240ZM308 248H307V284H308H309V248H308ZM300 292V291H166V292V293H300V292ZM158 284H159V248H158H157V284H158ZM166 292V291C162.134 291 159 287.866 159 284H158H157C157 288.971 161.029 293 166 293V292ZM308 284H307C307 287.866 303.866 291 300 291V292V293C304.971 293 309 288.971 309 284H308ZM300 240V241C303.866 241 307 244.134 307 248H308H309C309 243.029 304.971 239 300 239V240ZM166 240V239C161.029 239 157 243.029 157 248H158H159C159 244.134 162.134 241 166 241V240Z" fill="#CDCBCB" mask="url(#path-27-inside-9_2027_6858)"/>
<path d="M215.165 265.834C215.165 264.229 215.426 262.978 215.949 262.082C216.472 261.177 217.386 260.724 218.693 260.724C219.99 260.724 220.9 261.177 221.423 262.082C221.946 262.978 222.207 264.229 222.207 265.834C222.207 267.467 221.946 268.737 221.423 269.642C220.9 270.547 219.99 271 218.693 271C217.386 271 216.472 270.547 215.949 269.642C215.426 268.737 215.165 267.467 215.165 265.834ZM220.947 265.834C220.947 265.022 220.891 264.336 220.779 263.776C220.676 263.207 220.457 262.749 220.121 262.404C219.794 262.059 219.318 261.886 218.693 261.886C218.058 261.886 217.573 262.059 217.237 262.404C216.91 262.749 216.691 263.207 216.579 263.776C216.476 264.336 216.425 265.022 216.425 265.834C216.425 266.674 216.476 267.379 216.579 267.948C216.691 268.517 216.91 268.975 217.237 269.32C217.573 269.665 218.058 269.838 218.693 269.838C219.318 269.838 219.794 269.665 220.121 269.32C220.457 268.975 220.676 268.517 220.779 267.948C220.891 267.379 220.947 266.674 220.947 265.834ZM223.802 269.978C224.987 269.026 225.916 268.247 226.588 267.64C227.26 267.024 227.825 266.385 228.282 265.722C228.749 265.05 228.982 264.392 228.982 263.748C228.982 263.141 228.833 262.665 228.534 262.32C228.245 261.965 227.773 261.788 227.12 261.788C226.485 261.788 225.991 261.989 225.636 262.39C225.291 262.782 225.104 263.309 225.076 263.972H223.844C223.881 262.927 224.199 262.119 224.796 261.55C225.393 260.981 226.163 260.696 227.106 260.696C228.067 260.696 228.828 260.962 229.388 261.494C229.957 262.026 230.242 262.759 230.242 263.692C230.242 264.467 230.009 265.223 229.542 265.96C229.085 266.688 228.562 267.332 227.974 267.892C227.386 268.443 226.635 269.087 225.72 269.824H230.536V270.888H223.802V269.978ZM232.625 271.084C232.382 271.084 232.177 271 232.009 270.832C231.841 270.664 231.757 270.459 231.757 270.216C231.757 269.973 231.841 269.768 232.009 269.6C232.177 269.432 232.382 269.348 232.625 269.348C232.858 269.348 233.054 269.432 233.213 269.6C233.381 269.768 233.465 269.973 233.465 270.216C233.465 270.459 233.381 270.664 233.213 270.832C233.054 271 232.858 271.084 232.625 271.084ZM232.625 265.092C232.382 265.092 232.177 265.008 232.009 264.84C231.841 264.672 231.757 264.467 231.757 264.224C231.757 263.981 231.841 263.776 232.009 263.608C232.177 263.44 232.382 263.356 232.625 263.356C232.858 263.356 233.054 263.44 233.213 263.608C233.381 263.776 233.465 263.981 233.465 264.224C233.465 264.467 233.381 264.672 233.213 264.84C233.054 265.008 232.858 265.092 232.625 265.092ZM234.989 265.834C234.989 264.229 235.25 262.978 235.773 262.082C236.296 261.177 237.21 260.724 238.517 260.724C239.814 260.724 240.724 261.177 241.247 262.082C241.77 262.978 242.031 264.229 242.031 265.834C242.031 267.467 241.77 268.737 241.247 269.642C240.724 270.547 239.814 271 238.517 271C237.21 271 236.296 270.547 235.773 269.642C235.25 268.737 234.989 267.467 234.989 265.834ZM240.771 265.834C240.771 265.022 240.715 264.336 240.603 263.776C240.5 263.207 240.281 262.749 239.945 262.404C239.618 262.059 239.142 261.886 238.517 261.886C237.882 261.886 237.397 262.059 237.061 262.404C236.734 262.749 236.515 263.207 236.403 263.776C236.3 264.336 236.249 265.022 236.249 265.834C236.249 266.674 236.3 267.379 236.403 267.948C236.515 268.517 236.734 268.975 237.061 269.32C237.397 269.665 237.882 269.838 238.517 269.838C239.142 269.838 239.618 269.665 239.945 269.32C240.281 268.975 240.5 268.517 240.603 267.948C240.715 267.379 240.771 266.674 240.771 265.834ZM243.78 265.834C243.78 264.229 244.041 262.978 244.564 262.082C245.087 261.177 246.001 260.724 247.308 260.724C248.605 260.724 249.515 261.177 250.038 262.082C250.561 262.978 250.822 264.229 250.822 265.834C250.822 267.467 250.561 268.737 250.038 269.642C249.515 270.547 248.605 271 247.308 271C246.001 271 245.087 270.547 244.564 269.642C244.041 268.737 243.78 267.467 243.78 265.834ZM249.562 265.834C249.562 265.022 249.506 264.336 249.394 263.776C249.291 263.207 249.072 262.749 248.736 262.404C248.409 262.059 247.933 261.886 247.308 261.886C246.673 261.886 246.188 262.059 245.852 262.404C245.525 262.749 245.306 263.207 245.194 263.776C245.091 264.336 245.04 265.022 245.04 265.834C245.04 266.674 245.091 267.379 245.194 267.948C245.306 268.517 245.525 268.975 245.852 269.32C246.188 269.665 246.673 269.838 247.308 269.838C247.933 269.838 248.409 269.665 248.736 269.32C249.072 268.975 249.291 268.517 249.394 267.948C249.506 267.379 249.562 266.674 249.562 265.834Z" fill="#4B4A4A"/>
</svg>
