<svg width="392" height="310" viewBox="0 0 392 310" fill="none" xmlns="http://www.w3.org/2000/svg">
<path d="M146.076 58.42C144.306 58.42 142.756 57.96 141.426 57.04C140.106 56.11 139.076 54.815 138.336 53.155C137.596 51.485 137.226 49.54 137.226 47.32C137.226 45.2 137.596 43.335 138.336 41.725C139.076 40.105 140.106 38.845 141.426 37.945C142.756 37.035 144.306 36.58 146.076 36.58C147.856 36.58 149.406 37.035 150.726 37.945C152.056 38.855 153.086 40.12 153.816 41.74C154.556 43.35 154.926 45.21 154.926 47.32C154.926 49.54 154.556 51.485 153.816 53.155C153.086 54.815 152.056 56.11 150.726 57.04C149.406 57.96 147.856 58.42 146.076 58.42ZM146.076 54.97C147.026 54.97 147.876 54.71 148.626 54.19C149.386 53.67 149.986 52.85 150.426 51.73C150.866 50.6 151.086 49.13 151.086 47.32C151.086 44.83 150.606 42.985 149.646 41.785C148.696 40.575 147.506 39.97 146.076 39.97C144.656 39.97 143.466 40.57 142.506 41.77C141.546 42.96 141.066 44.81 141.066 47.32C141.066 49.11 141.286 50.57 141.726 51.7C142.166 52.82 142.761 53.645 143.511 54.175C144.271 54.705 145.126 54.97 146.076 54.97ZM162.968 58L160.298 55.9C160.818 55.65 161.438 55.295 162.158 54.835C162.878 54.375 163.618 53.83 164.378 53.2C165.138 52.56 165.848 51.84 166.508 51.04C167.168 50.24 167.703 49.37 168.113 48.43C168.523 47.49 168.728 46.49 168.728 45.43L169.808 46.75C169.288 47.6 168.583 48.295 167.693 48.835C166.813 49.365 165.668 49.63 164.258 49.63C163.088 49.63 162.038 49.36 161.108 48.82C160.188 48.28 159.458 47.535 158.918 46.585C158.378 45.635 158.108 44.54 158.108 43.3C158.108 41.97 158.388 40.8 158.948 39.79C159.508 38.78 160.303 37.995 161.333 37.435C162.373 36.865 163.598 36.58 165.008 36.58C166.468 36.58 167.743 36.905 168.833 37.555C169.923 38.205 170.768 39.12 171.368 40.3C171.968 41.47 172.268 42.84 172.268 44.41C172.268 46.04 171.978 47.57 171.398 49C170.828 50.42 170.078 51.715 169.148 52.885C168.228 54.045 167.223 55.06 166.133 55.93C165.053 56.79 163.998 57.48 162.968 58ZM164.948 46.33C165.908 46.33 166.698 46.03 167.318 45.43C167.938 44.82 168.248 44.06 168.248 43.15C168.248 42.23 167.938 41.455 167.318 40.825C166.698 40.195 165.908 39.88 164.948 39.88C164.008 39.88 163.223 40.195 162.593 40.825C161.963 41.455 161.648 42.23 161.648 43.15C161.648 44.06 161.963 44.82 162.593 45.43C163.223 46.03 164.008 46.33 164.948 46.33Z" fill="#91908F"/>
<mask id="path-2-inside-1_4937_38620" fill="white">
<path d="M131.5 82H177.5V128H131.5V82Z"/>
</mask>
<path d="M177.5 128V126H131.5V128V130H177.5V128Z" fill="#0A2333" mask="url(#path-2-inside-1_4937_38620)"/>
<path d="M142.692 116V100.43C142.302 100.68 141.887 100.9 141.447 101.09C141.017 101.28 140.552 101.42 140.052 101.51L139.722 98.27C140.152 98.18 140.632 97.965 141.162 97.625C141.692 97.285 142.182 96.885 142.632 96.425C143.082 95.955 143.402 95.48 143.592 95H146.532V116H142.692ZM160.036 116.42C158.266 116.42 156.716 115.96 155.386 115.04C154.066 114.11 153.036 112.815 152.296 111.155C151.556 109.485 151.186 107.54 151.186 105.32C151.186 103.2 151.556 101.335 152.296 99.725C153.036 98.105 154.066 96.845 155.386 95.945C156.716 95.035 158.266 94.58 160.036 94.58C161.816 94.58 163.366 95.035 164.686 95.945C166.016 96.855 167.046 98.12 167.776 99.74C168.516 101.35 168.886 103.21 168.886 105.32C168.886 107.54 168.516 109.485 167.776 111.155C167.046 112.815 166.016 114.11 164.686 115.04C163.366 115.96 161.816 116.42 160.036 116.42ZM160.036 112.97C160.986 112.97 161.836 112.71 162.586 112.19C163.346 111.67 163.946 110.85 164.386 109.73C164.826 108.6 165.046 107.13 165.046 105.32C165.046 102.83 164.566 100.985 163.606 99.785C162.656 98.575 161.466 97.97 160.036 97.97C158.616 97.97 157.426 98.57 156.466 99.77C155.506 100.96 155.026 102.81 155.026 105.32C155.026 107.11 155.246 108.57 155.686 109.7C156.126 110.82 156.721 111.645 157.471 112.175C158.231 112.705 159.086 112.97 160.036 112.97Z" fill="#0A2333"/>
<path d="M147.746 174V158.43C147.356 158.68 146.941 158.9 146.501 159.09C146.071 159.28 145.606 159.42 145.106 159.51L144.776 156.27C145.206 156.18 145.686 155.965 146.216 155.625C146.746 155.285 147.236 154.885 147.686 154.425C148.136 153.955 148.456 153.48 148.646 153H151.586V174H147.746ZM158.82 174V158.43C158.43 158.68 158.015 158.9 157.575 159.09C157.145 159.28 156.68 159.42 156.18 159.51L155.85 156.27C156.28 156.18 156.76 155.965 157.29 155.625C157.82 155.285 158.31 154.885 158.76 154.425C159.21 153.955 159.53 153.48 159.72 153H162.66V174H158.82Z" fill="#91908F"/>
<path d="M194.055 105.08V101H197.955V105.08H194.055ZM194.055 116V111.92H197.955V116H194.055Z" fill="#0A2333"/>
<path d="M230.807 58V53.2H220.337L231.887 37H234.497V50.08H237.197V53.2H234.497V58H230.807ZM225.377 51.34L224.657 50.08H230.807V41.14L231.797 42.22L225.377 51.34ZM245.99 58.39C244.84 58.39 243.785 58.24 242.825 57.94C241.865 57.64 241 57.23 240.23 56.71L241.13 53.23C241.87 53.69 242.62 54.065 243.38 54.355C244.15 54.645 245 54.79 245.93 54.79C247.07 54.79 247.975 54.49 248.645 53.89C249.315 53.29 249.65 52.48 249.65 51.46C249.65 50.36 249.27 49.5 248.51 48.88C247.75 48.26 246.65 47.95 245.21 47.95C244.55 47.95 243.89 47.99 243.23 48.07C242.58 48.15 241.93 48.25 241.28 48.37L242.63 37H252.53L252.29 40.72H245.51L244.79 46.54L243.35 45.22C243.83 45.08 244.33 44.975 244.85 44.905C245.38 44.835 245.95 44.8 246.56 44.8C247.9 44.8 249.08 45.065 250.1 45.595C251.13 46.115 251.93 46.875 252.5 47.875C253.08 48.865 253.37 50.06 253.37 51.46C253.37 52.9 253.05 54.14 252.41 55.18C251.78 56.21 250.91 57.005 249.8 57.565C248.69 58.115 247.42 58.39 245.99 58.39Z" fill="#91908F"/>
<mask id="path-8-inside-2_4937_38620" fill="white">
<path d="M214.5 82H260.5V128H214.5V82Z"/>
</mask>
<path d="M260.5 128V126H214.5V128V130H260.5V128Z" fill="#0A2333" mask="url(#path-8-inside-2_4937_38620)"/>
<path d="M227.86 116V100.43C227.47 100.68 227.055 100.9 226.615 101.09C226.185 101.28 225.72 101.42 225.22 101.51L224.89 98.27C225.32 98.18 225.8 97.965 226.33 97.625C226.86 97.285 227.35 96.885 227.8 96.425C228.25 95.955 228.57 95.48 228.76 95H231.7V116H227.86ZM240.914 116L238.244 113.9C238.764 113.65 239.384 113.295 240.104 112.835C240.824 112.375 241.564 111.83 242.324 111.2C243.084 110.56 243.794 109.84 244.454 109.04C245.114 108.24 245.649 107.37 246.059 106.43C246.469 105.49 246.674 104.49 246.674 103.43L247.754 104.75C247.234 105.6 246.529 106.295 245.639 106.835C244.759 107.365 243.614 107.63 242.204 107.63C241.034 107.63 239.984 107.36 239.054 106.82C238.134 106.28 237.404 105.535 236.864 104.585C236.324 103.635 236.054 102.54 236.054 101.3C236.054 99.97 236.334 98.8 236.894 97.79C237.454 96.78 238.249 95.995 239.279 95.435C240.319 94.865 241.544 94.58 242.954 94.58C244.414 94.58 245.689 94.905 246.779 95.555C247.869 96.205 248.714 97.12 249.314 98.3C249.914 99.47 250.214 100.84 250.214 102.41C250.214 104.04 249.924 105.57 249.344 107C248.774 108.42 248.024 109.715 247.094 110.885C246.174 112.045 245.169 113.06 244.079 113.93C242.999 114.79 241.944 115.48 240.914 116ZM242.894 104.33C243.854 104.33 244.644 104.03 245.264 103.43C245.884 102.82 246.194 102.06 246.194 101.15C246.194 100.23 245.884 99.455 245.264 98.825C244.644 98.195 243.854 97.88 242.894 97.88C241.954 97.88 241.169 98.195 240.539 98.825C239.909 99.455 239.594 100.23 239.594 101.15C239.594 102.06 239.909 102.82 240.539 103.43C241.169 104.03 241.954 104.33 242.894 104.33Z" fill="#0A2333"/>
<path d="M227.028 174.42C225.768 174.42 224.623 174.275 223.593 173.985C222.563 173.685 221.738 173.38 221.118 173.07L222.048 169.83C222.708 170.16 223.468 170.46 224.328 170.73C225.188 170.99 226.088 171.12 227.028 171.12C228.128 171.12 229.008 170.87 229.668 170.37C230.328 169.86 230.658 169.08 230.658 168.03C230.658 166.98 230.333 166.19 229.683 165.66C229.043 165.12 228.078 164.85 226.788 164.85H224.658V161.25H226.758C227.838 161.25 228.663 161 229.233 160.5C229.803 160 230.088 159.31 230.088 158.43C230.088 157.66 229.823 157.045 229.293 156.585C228.773 156.115 228.018 155.88 227.028 155.88C226.178 155.88 225.373 156.01 224.613 156.27C223.863 156.53 223.118 156.87 222.378 157.29L221.808 153.9C222.498 153.54 223.318 153.23 224.268 152.97C225.228 152.71 226.278 152.58 227.418 152.58C228.788 152.58 229.943 152.815 230.883 153.285C231.823 153.745 232.533 154.38 233.013 155.19C233.503 156 233.748 156.92 233.748 157.95C233.748 159.3 233.388 160.445 232.668 161.385C231.948 162.325 230.928 162.96 229.608 163.29L229.578 162.6C231.038 162.84 232.223 163.425 233.133 164.355C234.043 165.285 234.498 166.51 234.498 168.03C234.498 169.4 234.183 170.56 233.553 171.51C232.933 172.46 232.063 173.185 230.943 173.685C229.823 174.175 228.518 174.42 227.028 174.42ZM246.95 174V169.2H236.48L248.03 153H250.64V166.08H253.34V169.2H250.64V174H246.95ZM241.52 167.34L240.8 166.08H246.95V157.14L247.94 158.22L241.52 167.34Z" fill="#91908F"/>
<mask id="path-12-inside-3_4937_38620" fill="white">
<path d="M0 242H392V310H0V242Z"/>
</mask>
<path d="M0 242V243H392V242V241H0V242Z" fill="#CDCBCB" mask="url(#path-12-inside-3_4937_38620)"/>
<mask id="path-14-inside-4_4937_38620" fill="white">
<path d="M0 284C0 269.641 11.6406 258 26 258H162C176.359 258 188 269.641 188 284C188 298.359 176.359 310 162 310H26C11.6406 310 0 298.359 0 284Z"/>
</mask>
<path d="M0 284M188 284M188 284M0 284M26 258V259H162V258V257H26V258ZM188 284M162 310V309H26V310V311H162V310ZM0 284M26 310V309C12.1929 309 1 297.807 1 284H0H-1C-1 298.912 11.0883 311 26 311V310ZM188 284H187C187 297.807 175.807 309 162 309V310V311C176.912 311 189 298.912 189 284H188ZM162 258V259C175.807 259 187 270.193 187 284H188H189C189 269.088 176.912 257 162 257V258ZM26 258V257C11.0883 257 -1 269.088 -1 284H0H1C1 270.193 12.1929 259 26 259V258Z" fill="#CDCBCB" mask="url(#path-14-inside-4_4937_38620)"/>
<path d="M56.5012 284.002C57.0238 284.095 57.4672 284.371 57.8312 284.828C58.1952 285.285 58.3772 285.803 58.3772 286.382C58.3772 286.877 58.2465 287.325 57.9852 287.726C57.7332 288.118 57.3645 288.431 56.8792 288.664C56.3938 288.888 55.8292 289 55.1852 289H51.2932V279.27H55.0032C55.6658 279.27 56.2352 279.382 56.7112 279.606C57.1872 279.83 57.5465 280.133 57.7892 280.516C58.0318 280.889 58.1532 281.309 58.1532 281.776C58.1532 282.336 58.0038 282.803 57.7052 283.176C57.4065 283.549 57.0052 283.825 56.5012 284.002ZM52.8892 283.358H54.8632C55.3858 283.358 55.7918 283.241 56.0812 283.008C56.3798 282.765 56.5292 282.42 56.5292 281.972C56.5292 281.533 56.3798 281.193 56.0812 280.95C55.7918 280.698 55.3858 280.572 54.8632 280.572H52.8892V283.358ZM55.0452 287.698C55.5865 287.698 56.0112 287.567 56.3192 287.306C56.6272 287.045 56.7812 286.681 56.7812 286.214C56.7812 285.738 56.6178 285.36 56.2912 285.08C55.9645 284.8 55.5305 284.66 54.9892 284.66H52.8892V287.698H55.0452ZM67.0975 281.286V289H65.5015V288.09C65.2495 288.407 64.9182 288.659 64.5075 288.846C64.1062 289.023 63.6769 289.112 63.2195 289.112C62.6129 289.112 62.0669 288.986 61.5815 288.734C61.1055 288.482 60.7275 288.109 60.4475 287.614C60.1769 287.119 60.0415 286.522 60.0415 285.822V281.286H61.6235V285.584C61.6235 286.275 61.7962 286.807 62.1415 287.18C62.4869 287.544 62.9582 287.726 63.5555 287.726C64.1529 287.726 64.6242 287.544 64.9695 287.18C65.3242 286.807 65.5015 286.275 65.5015 285.584V281.286H67.0975ZM71.0653 282.588V286.858C71.0653 287.147 71.1307 287.357 71.2613 287.488C71.4013 287.609 71.6347 287.67 71.9613 287.67H72.9413V289H71.6813C70.9627 289 70.412 288.832 70.0293 288.496C69.6467 288.16 69.4553 287.614 69.4553 286.858V282.588H68.5453V281.286H69.4553V279.368H71.0653V281.286H72.9413V282.588H71.0653ZM76.2743 282.588V286.858C76.2743 287.147 76.3396 287.357 76.4703 287.488C76.6103 287.609 76.8436 287.67 77.1703 287.67H78.1503V289H76.8903C76.1716 289 75.621 288.832 75.2383 288.496C74.8556 288.16 74.6643 287.614 74.6643 286.858V282.588H73.7543V281.286H74.6643V279.368H76.2743V281.286H78.1503V282.588H76.2743ZM82.9673 289.126C82.2393 289.126 81.5813 288.963 80.9933 288.636C80.4053 288.3 79.9433 287.833 79.6073 287.236C79.2713 286.629 79.1033 285.929 79.1033 285.136C79.1033 284.352 79.276 283.657 79.6213 283.05C79.9666 282.443 80.438 281.977 81.0353 281.65C81.6326 281.323 82.3 281.16 83.0373 281.16C83.7746 281.16 84.442 281.323 85.0393 281.65C85.6366 281.977 86.108 282.443 86.4533 283.05C86.7986 283.657 86.9713 284.352 86.9713 285.136C86.9713 285.92 86.794 286.615 86.4393 287.222C86.0846 287.829 85.5993 288.3 84.9833 288.636C84.3766 288.963 83.7046 289.126 82.9673 289.126ZM82.9673 287.74C83.378 287.74 83.7606 287.642 84.1153 287.446C84.4793 287.25 84.7733 286.956 84.9973 286.564C85.2213 286.172 85.3333 285.696 85.3333 285.136C85.3333 284.576 85.226 284.105 85.0113 283.722C84.7966 283.33 84.512 283.036 84.1573 282.84C83.8026 282.644 83.42 282.546 83.0093 282.546C82.5986 282.546 82.216 282.644 81.8613 282.84C81.516 283.036 81.2406 283.33 81.0353 283.722C80.83 284.105 80.7273 284.576 80.7273 285.136C80.7273 285.967 80.9373 286.611 81.3573 287.068C81.7866 287.516 82.3233 287.74 82.9673 287.74ZM92.441 281.16C93.0477 281.16 93.589 281.286 94.065 281.538C94.5504 281.79 94.9284 282.163 95.199 282.658C95.4697 283.153 95.605 283.75 95.605 284.45V289H94.023V284.688C94.023 283.997 93.8504 283.47 93.505 283.106C93.1597 282.733 92.6884 282.546 92.091 282.546C91.4937 282.546 91.0177 282.733 90.663 283.106C90.3177 283.47 90.145 283.997 90.145 284.688V289H88.549V281.286H90.145V282.168C90.4064 281.851 90.7377 281.603 91.139 281.426C91.5497 281.249 91.9837 281.16 92.441 281.16ZM102.874 287.712H106.164V289H101.278V279.27H102.874V287.712ZM106.966 285.108C106.966 284.333 107.125 283.647 107.442 283.05C107.769 282.453 108.208 281.991 108.758 281.664C109.318 281.328 109.934 281.16 110.606 281.16C111.213 281.16 111.74 281.281 112.188 281.524C112.646 281.757 113.01 282.051 113.28 282.406V281.286H114.89V289H113.28V287.852C113.01 288.216 112.641 288.519 112.174 288.762C111.708 289.005 111.176 289.126 110.578 289.126C109.916 289.126 109.309 288.958 108.758 288.622C108.208 288.277 107.769 287.801 107.442 287.194C107.125 286.578 106.966 285.883 106.966 285.108ZM113.28 285.136C113.28 284.604 113.168 284.142 112.944 283.75C112.73 283.358 112.445 283.059 112.09 282.854C111.736 282.649 111.353 282.546 110.942 282.546C110.532 282.546 110.149 282.649 109.794 282.854C109.44 283.05 109.15 283.344 108.926 283.736C108.712 284.119 108.604 284.576 108.604 285.108C108.604 285.64 108.712 286.107 108.926 286.508C109.15 286.909 109.44 287.217 109.794 287.432C110.158 287.637 110.541 287.74 110.942 287.74C111.353 287.74 111.736 287.637 112.09 287.432C112.445 287.227 112.73 286.928 112.944 286.536C113.168 286.135 113.28 285.668 113.28 285.136ZM118.583 282.434C118.853 282.061 119.222 281.757 119.689 281.524C120.165 281.281 120.692 281.16 121.271 281.16C121.952 281.16 122.568 281.323 123.119 281.65C123.669 281.977 124.103 282.443 124.421 283.05C124.738 283.647 124.897 284.333 124.897 285.108C124.897 285.883 124.738 286.578 124.421 287.194C124.103 287.801 123.665 288.277 123.105 288.622C122.554 288.958 121.943 289.126 121.271 289.126C120.673 289.126 120.141 289.009 119.675 288.776C119.217 288.543 118.853 288.244 118.583 287.88V289H116.987V278.64H118.583V282.434ZM123.273 285.108C123.273 284.576 123.161 284.119 122.937 283.736C122.722 283.344 122.433 283.05 122.069 282.854C121.714 282.649 121.331 282.546 120.921 282.546C120.519 282.546 120.137 282.649 119.773 282.854C119.418 283.059 119.129 283.358 118.905 283.75C118.69 284.142 118.583 284.604 118.583 285.136C118.583 285.668 118.69 286.135 118.905 286.536C119.129 286.928 119.418 287.227 119.773 287.432C120.137 287.637 120.519 287.74 120.921 287.74C121.331 287.74 121.714 287.637 122.069 287.432C122.433 287.217 122.722 286.909 122.937 286.508C123.161 286.107 123.273 285.64 123.273 285.108ZM133.545 284.954C133.545 285.243 133.526 285.505 133.489 285.738H127.595C127.641 286.354 127.87 286.849 128.281 287.222C128.691 287.595 129.195 287.782 129.793 287.782C130.651 287.782 131.258 287.423 131.613 286.704H133.335C133.101 287.413 132.677 287.997 132.061 288.454C131.454 288.902 130.698 289.126 129.793 289.126C129.055 289.126 128.393 288.963 127.805 288.636C127.226 288.3 126.769 287.833 126.433 287.236C126.106 286.629 125.943 285.929 125.943 285.136C125.943 284.343 126.101 283.647 126.419 283.05C126.745 282.443 127.198 281.977 127.777 281.65C128.365 281.323 129.037 281.16 129.793 281.16C130.521 281.16 131.169 281.319 131.739 281.636C132.308 281.953 132.751 282.401 133.069 282.98C133.386 283.549 133.545 284.207 133.545 284.954ZM131.879 284.45C131.869 283.862 131.659 283.391 131.249 283.036C130.838 282.681 130.329 282.504 129.723 282.504C129.172 282.504 128.701 282.681 128.309 283.036C127.917 283.381 127.683 283.853 127.609 284.45H131.879ZM136.711 278.64V289H135.115V278.64H136.711Z" fill="#91908F"/>
<path d="M204 284C204 269.641 215.641 258 230 258H366C380.359 258 392 269.641 392 284C392 298.359 380.359 310 366 310H230C215.641 310 204 298.359 204 284Z" fill="#0A2333"/>
<path d="M260.501 284.002C261.024 284.095 261.467 284.371 261.831 284.828C262.195 285.285 262.377 285.803 262.377 286.382C262.377 286.877 262.246 287.325 261.985 287.726C261.733 288.118 261.364 288.431 260.879 288.664C260.394 288.888 259.829 289 259.185 289H255.293V279.27H259.003C259.666 279.27 260.235 279.382 260.711 279.606C261.187 279.83 261.546 280.133 261.789 280.516C262.032 280.889 262.153 281.309 262.153 281.776C262.153 282.336 262.004 282.803 261.705 283.176C261.406 283.549 261.005 283.825 260.501 284.002ZM256.889 283.358H258.863C259.386 283.358 259.792 283.241 260.081 283.008C260.38 282.765 260.529 282.42 260.529 281.972C260.529 281.533 260.38 281.193 260.081 280.95C259.792 280.698 259.386 280.572 258.863 280.572H256.889V283.358ZM259.045 287.698C259.586 287.698 260.011 287.567 260.319 287.306C260.627 287.045 260.781 286.681 260.781 286.214C260.781 285.738 260.618 285.36 260.291 285.08C259.964 284.8 259.53 284.66 258.989 284.66H256.889V287.698H259.045ZM271.098 281.286V289H269.502V288.09C269.25 288.407 268.918 288.659 268.508 288.846C268.106 289.023 267.677 289.112 267.22 289.112C266.613 289.112 266.067 288.986 265.582 288.734C265.106 288.482 264.728 288.109 264.448 287.614C264.177 287.119 264.042 286.522 264.042 285.822V281.286H265.624V285.584C265.624 286.275 265.796 286.807 266.142 287.18C266.487 287.544 266.958 287.726 267.556 287.726C268.153 287.726 268.624 287.544 268.97 287.18C269.324 286.807 269.502 286.275 269.502 285.584V281.286H271.098ZM275.065 282.588V286.858C275.065 287.147 275.131 287.357 275.261 287.488C275.401 287.609 275.635 287.67 275.961 287.67H276.941V289H275.681C274.963 289 274.412 288.832 274.029 288.496C273.647 288.16 273.455 287.614 273.455 286.858V282.588H272.545V281.286H273.455V279.368H275.065V281.286H276.941V282.588H275.065ZM280.274 282.588V286.858C280.274 287.147 280.34 287.357 280.47 287.488C280.61 287.609 280.844 287.67 281.17 287.67H282.15V289H280.89C280.172 289 279.621 288.832 279.238 288.496C278.856 288.16 278.664 287.614 278.664 286.858V282.588H277.754V281.286H278.664V279.368H280.274V281.286H282.15V282.588H280.274ZM286.967 289.126C286.239 289.126 285.581 288.963 284.993 288.636C284.405 288.3 283.943 287.833 283.607 287.236C283.271 286.629 283.103 285.929 283.103 285.136C283.103 284.352 283.276 283.657 283.621 283.05C283.967 282.443 284.438 281.977 285.035 281.65C285.633 281.323 286.3 281.16 287.037 281.16C287.775 281.16 288.442 281.323 289.039 281.65C289.637 281.977 290.108 282.443 290.453 283.05C290.799 283.657 290.971 284.352 290.971 285.136C290.971 285.92 290.794 286.615 290.439 287.222C290.085 287.829 289.599 288.3 288.983 288.636C288.377 288.963 287.705 289.126 286.967 289.126ZM286.967 287.74C287.378 287.74 287.761 287.642 288.115 287.446C288.479 287.25 288.773 286.956 288.997 286.564C289.221 286.172 289.333 285.696 289.333 285.136C289.333 284.576 289.226 284.105 289.011 283.722C288.797 283.33 288.512 283.036 288.157 282.84C287.803 282.644 287.42 282.546 287.009 282.546C286.599 282.546 286.216 282.644 285.861 282.84C285.516 283.036 285.241 283.33 285.035 283.722C284.83 284.105 284.727 284.576 284.727 285.136C284.727 285.967 284.937 286.611 285.357 287.068C285.787 287.516 286.323 287.74 286.967 287.74ZM296.441 281.16C297.048 281.16 297.589 281.286 298.065 281.538C298.55 281.79 298.928 282.163 299.199 282.658C299.47 283.153 299.605 283.75 299.605 284.45V289H298.023V284.688C298.023 283.997 297.85 283.47 297.505 283.106C297.16 282.733 296.688 282.546 296.091 282.546C295.494 282.546 295.018 282.733 294.663 283.106C294.318 283.47 294.145 283.997 294.145 284.688V289H292.549V281.286H294.145V282.168C294.406 281.851 294.738 281.603 295.139 281.426C295.55 281.249 295.984 281.16 296.441 281.16ZM306.874 287.712H310.164V289H305.278V279.27H306.874V287.712ZM310.966 285.108C310.966 284.333 311.125 283.647 311.442 283.05C311.769 282.453 312.208 281.991 312.758 281.664C313.318 281.328 313.934 281.16 314.606 281.16C315.213 281.16 315.74 281.281 316.188 281.524C316.646 281.757 317.01 282.051 317.28 282.406V281.286H318.89V289H317.28V287.852C317.01 288.216 316.641 288.519 316.174 288.762C315.708 289.005 315.176 289.126 314.578 289.126C313.916 289.126 313.309 288.958 312.758 288.622C312.208 288.277 311.769 287.801 311.442 287.194C311.125 286.578 310.966 285.883 310.966 285.108ZM317.28 285.136C317.28 284.604 317.168 284.142 316.944 283.75C316.73 283.358 316.445 283.059 316.09 282.854C315.736 282.649 315.353 282.546 314.942 282.546C314.532 282.546 314.149 282.649 313.794 282.854C313.44 283.05 313.15 283.344 312.926 283.736C312.712 284.119 312.604 284.576 312.604 285.108C312.604 285.64 312.712 286.107 312.926 286.508C313.15 286.909 313.44 287.217 313.794 287.432C314.158 287.637 314.541 287.74 314.942 287.74C315.353 287.74 315.736 287.637 316.09 287.432C316.445 287.227 316.73 286.928 316.944 286.536C317.168 286.135 317.28 285.668 317.28 285.136ZM322.583 282.434C322.853 282.061 323.222 281.757 323.689 281.524C324.165 281.281 324.692 281.16 325.271 281.16C325.952 281.16 326.568 281.323 327.119 281.65C327.669 281.977 328.103 282.443 328.421 283.05C328.738 283.647 328.897 284.333 328.897 285.108C328.897 285.883 328.738 286.578 328.421 287.194C328.103 287.801 327.665 288.277 327.105 288.622C326.554 288.958 325.943 289.126 325.271 289.126C324.673 289.126 324.141 289.009 323.675 288.776C323.217 288.543 322.853 288.244 322.583 287.88V289H320.987V278.64H322.583V282.434ZM327.273 285.108C327.273 284.576 327.161 284.119 326.937 283.736C326.722 283.344 326.433 283.05 326.069 282.854C325.714 282.649 325.331 282.546 324.921 282.546C324.519 282.546 324.137 282.649 323.773 282.854C323.418 283.059 323.129 283.358 322.905 283.75C322.69 284.142 322.583 284.604 322.583 285.136C322.583 285.668 322.69 286.135 322.905 286.536C323.129 286.928 323.418 287.227 323.773 287.432C324.137 287.637 324.519 287.74 324.921 287.74C325.331 287.74 325.714 287.637 326.069 287.432C326.433 287.217 326.722 286.909 326.937 286.508C327.161 286.107 327.273 285.64 327.273 285.108ZM337.545 284.954C337.545 285.243 337.526 285.505 337.489 285.738H331.595C331.641 286.354 331.87 286.849 332.281 287.222C332.691 287.595 333.195 287.782 333.793 287.782C334.651 287.782 335.258 287.423 335.613 286.704H337.335C337.101 287.413 336.677 287.997 336.061 288.454C335.454 288.902 334.698 289.126 333.793 289.126C333.055 289.126 332.393 288.963 331.805 288.636C331.226 288.3 330.769 287.833 330.433 287.236C330.106 286.629 329.943 285.929 329.943 285.136C329.943 284.343 330.101 283.647 330.419 283.05C330.745 282.443 331.198 281.977 331.777 281.65C332.365 281.323 333.037 281.16 333.793 281.16C334.521 281.16 335.169 281.319 335.739 281.636C336.308 281.953 336.751 282.401 337.069 282.98C337.386 283.549 337.545 284.207 337.545 284.954ZM335.879 284.45C335.869 283.862 335.659 283.391 335.249 283.036C334.838 282.681 334.329 282.504 333.723 282.504C333.172 282.504 332.701 282.681 332.309 283.036C331.917 283.381 331.683 283.853 331.609 284.45H335.879ZM340.711 278.64V289H339.115V278.64H340.711Z" fill="white"/>
</svg>
