<svg width="392" height="136" viewBox="0 0 392 136" fill="none" xmlns="http://www.w3.org/2000/svg">
<mask id="path-2-inside-1_2027_75295" fill="white">
<path d="M0 8C0 3.58172 3.58172 0 8 0H384C388.418 0 392 3.58172 392 8V44C392 48.4183 388.418 52 384 52H8C3.58172 52 0 48.4183 0 44V8Z"/>
</mask>
<path d="M0 8C0 3.58172 3.58172 0 8 0H384C388.418 0 392 3.58172 392 8V44C392 48.4183 388.418 52 384 52H8C3.58172 52 0 48.4183 0 44V8Z" fill="#FAF8F7"/>
<path d="M8 0V1H384V0V-1H8V0ZM392 8H391V44H392H393V8H392ZM384 52V51H8V52V53H384V52ZM0 44H1V8H0H-1V44H0ZM8 52V51C4.134 51 1 47.866 1 44H0H-1C-1 48.9706 3.02943 53 8 53V52ZM392 44H391C391 47.866 387.866 51 384 51V52V53C388.971 53 393 48.9706 393 44H392ZM384 0V1C387.866 1 391 4.13401 391 8H392H393C393 3.02944 388.971 -1 384 -1V0ZM8 0V-1C3.02944 -1 -1 3.02944 -1 8H0H1C1 4.13401 4.13401 1 8 1V0Z" fill="#CDCBCB" mask="url(#path-2-inside-1_2027_75295)"/>
<path d="M177.796 25.834C177.796 24.2287 178.057 22.978 178.58 22.082C179.102 21.1767 180.017 20.724 181.324 20.724C182.621 20.724 183.531 21.1767 184.054 22.082C184.576 22.978 184.838 24.2287 184.838 25.834C184.838 27.4673 184.576 28.7367 184.054 29.642C183.531 30.5473 182.621 31 181.324 31C180.017 31 179.102 30.5473 178.58 29.642C178.057 28.7367 177.796 27.4673 177.796 25.834ZM183.578 25.834C183.578 25.022 183.522 24.336 183.41 23.776C183.307 23.2067 183.088 22.7493 182.752 22.404C182.425 22.0587 181.949 21.886 181.324 21.886C180.689 21.886 180.204 22.0587 179.868 22.404C179.541 22.7493 179.322 23.2067 179.21 23.776C179.107 24.336 179.056 25.022 179.056 25.834C179.056 26.674 179.107 27.3787 179.21 27.948C179.322 28.5173 179.541 28.9747 179.868 29.32C180.204 29.6653 180.689 29.838 181.324 29.838C181.949 29.838 182.425 29.6653 182.752 29.32C183.088 28.9747 183.307 28.5173 183.41 27.948C183.522 27.3787 183.578 26.674 183.578 25.834ZM186.587 25.834C186.587 24.2287 186.848 22.978 187.371 22.082C187.893 21.1767 188.808 20.724 190.115 20.724C191.412 20.724 192.322 21.1767 192.845 22.082C193.367 22.978 193.629 24.2287 193.629 25.834C193.629 27.4673 193.367 28.7367 192.845 29.642C192.322 30.5473 191.412 31 190.115 31C188.808 31 187.893 30.5473 187.371 29.642C186.848 28.7367 186.587 27.4673 186.587 25.834ZM192.369 25.834C192.369 25.022 192.313 24.336 192.201 23.776C192.098 23.2067 191.879 22.7493 191.543 22.404C191.216 22.0587 190.74 21.886 190.115 21.886C189.48 21.886 188.995 22.0587 188.659 22.404C188.332 22.7493 188.113 23.2067 188.001 23.776C187.898 24.336 187.847 25.022 187.847 25.834C187.847 26.674 187.898 27.3787 188.001 27.948C188.113 28.5173 188.332 28.9747 188.659 29.32C188.995 29.6653 189.48 29.838 190.115 29.838C190.74 29.838 191.216 29.6653 191.543 29.32C191.879 28.9747 192.098 28.5173 192.201 27.948C192.313 27.3787 192.369 26.674 192.369 25.834ZM195.994 31.084C195.751 31.084 195.546 31 195.378 30.832C195.21 30.664 195.126 30.4587 195.126 30.216C195.126 29.9733 195.21 29.768 195.378 29.6C195.546 29.432 195.751 29.348 195.994 29.348C196.227 29.348 196.423 29.432 196.582 29.6C196.75 29.768 196.834 29.9733 196.834 30.216C196.834 30.4587 196.75 30.664 196.582 30.832C196.423 31 196.227 31.084 195.994 31.084ZM195.994 25.092C195.751 25.092 195.546 25.008 195.378 24.84C195.21 24.672 195.126 24.4667 195.126 24.224C195.126 23.9813 195.21 23.776 195.378 23.608C195.546 23.44 195.751 23.356 195.994 23.356C196.227 23.356 196.423 23.44 196.582 23.608C196.75 23.776 196.834 23.9813 196.834 24.224C196.834 24.4667 196.75 24.672 196.582 24.84C196.423 25.008 196.227 25.092 195.994 25.092ZM198.358 25.834C198.358 24.2287 198.62 22.978 199.142 22.082C199.665 21.1767 200.58 20.724 201.886 20.724C203.184 20.724 204.094 21.1767 204.616 22.082C205.139 22.978 205.4 24.2287 205.4 25.834C205.4 27.4673 205.139 28.7367 204.616 29.642C204.094 30.5473 203.184 31 201.886 31C200.58 31 199.665 30.5473 199.142 29.642C198.62 28.7367 198.358 27.4673 198.358 25.834ZM204.14 25.834C204.14 25.022 204.084 24.336 203.972 23.776C203.87 23.2067 203.65 22.7493 203.314 22.404C202.988 22.0587 202.512 21.886 201.886 21.886C201.252 21.886 200.766 22.0587 200.43 22.404C200.104 22.7493 199.884 23.2067 199.772 23.776C199.67 24.336 199.618 25.022 199.618 25.834C199.618 26.674 199.67 27.3787 199.772 27.948C199.884 28.5173 200.104 28.9747 200.43 29.32C200.766 29.6653 201.252 29.838 201.886 29.838C202.512 29.838 202.988 29.6653 203.314 29.32C203.65 28.9747 203.87 28.5173 203.972 27.948C204.084 27.3787 204.14 26.674 204.14 25.834ZM207.149 25.834C207.149 24.2287 207.411 22.978 207.933 22.082C208.456 21.1767 209.371 20.724 210.677 20.724C211.975 20.724 212.885 21.1767 213.407 22.082C213.93 22.978 214.191 24.2287 214.191 25.834C214.191 27.4673 213.93 28.7367 213.407 29.642C212.885 30.5473 211.975 31 210.677 31C209.371 31 208.456 30.5473 207.933 29.642C207.411 28.7367 207.149 27.4673 207.149 25.834ZM212.931 25.834C212.931 25.022 212.875 24.336 212.763 23.776C212.661 23.2067 212.441 22.7493 212.105 22.404C211.779 22.0587 211.303 21.886 210.677 21.886C210.043 21.886 209.557 22.0587 209.221 22.404C208.895 22.7493 208.675 23.2067 208.563 23.776C208.461 24.336 208.409 25.022 208.409 25.834C208.409 26.674 208.461 27.3787 208.563 27.948C208.675 28.5173 208.895 28.9747 209.221 29.32C209.557 29.6653 210.043 29.838 210.677 29.838C211.303 29.838 211.779 29.6653 212.105 29.32C212.441 28.9747 212.661 28.5173 212.763 27.948C212.875 27.3787 212.931 26.674 212.931 25.834Z" fill="#91908F"/>
<path d="M176.928 26.408H215.073V27.108H176.928V26.408Z" fill="#91908F"/>
<mask id="path-5-inside-2_2027_75295" fill="white">
<path d="M0 68H392V136H0V68Z"/>
</mask>
<path d="M0 68V69H392V68V67H0V68Z" fill="#CDCBCB" mask="url(#path-5-inside-2_2027_75295)"/>
<mask id="path-7-inside-3_2027_75295" fill="white">
<path d="M0 110C0 95.6406 11.6406 84 26 84H162C176.359 84 188 95.6406 188 110C188 124.359 176.359 136 162 136H26C11.6406 136 0 124.359 0 110Z"/>
</mask>
<path d="M0 110M188 110M188 110M0 110M26 84V85H162V84V83H26V84ZM188 110M162 136V135H26V136V137H162V136ZM0 110M26 136V135C12.1929 135 1 123.807 1 110H0H-1C-1 124.912 11.0883 137 26 137V136ZM188 110H187C187 123.807 175.807 135 162 135V136V137C176.912 137 189 124.912 189 110H188ZM162 84V85C175.807 85 187 96.1929 187 110H188H189C189 95.0883 176.912 83 162 83V84ZM26 84V83C11.0883 83 -1 95.0883 -1 110H0H1C1 96.1929 12.1929 85 26 85V84Z" fill="#CDCBCB" mask="url(#path-7-inside-3_2027_75295)"/>
<path d="M56.5012 110.002C57.0238 110.095 57.4672 110.371 57.8312 110.828C58.1952 111.285 58.3772 111.803 58.3772 112.382C58.3772 112.877 58.2465 113.325 57.9852 113.726C57.7332 114.118 57.3645 114.431 56.8792 114.664C56.3938 114.888 55.8292 115 55.1852 115H51.2932V105.27H55.0032C55.6658 105.27 56.2352 105.382 56.7112 105.606C57.1872 105.83 57.5465 106.133 57.7892 106.516C58.0318 106.889 58.1532 107.309 58.1532 107.776C58.1532 108.336 58.0038 108.803 57.7052 109.176C57.4065 109.549 57.0052 109.825 56.5012 110.002ZM52.8892 109.358H54.8632C55.3858 109.358 55.7918 109.241 56.0812 109.008C56.3798 108.765 56.5292 108.42 56.5292 107.972C56.5292 107.533 56.3798 107.193 56.0812 106.95C55.7918 106.698 55.3858 106.572 54.8632 106.572H52.8892V109.358ZM55.0452 113.698C55.5865 113.698 56.0112 113.567 56.3192 113.306C56.6272 113.045 56.7812 112.681 56.7812 112.214C56.7812 111.738 56.6178 111.36 56.2912 111.08C55.9645 110.8 55.5305 110.66 54.9892 110.66H52.8892V113.698H55.0452ZM67.0975 107.286V115H65.5015V114.09C65.2495 114.407 64.9182 114.659 64.5075 114.846C64.1062 115.023 63.6769 115.112 63.2195 115.112C62.6129 115.112 62.0669 114.986 61.5815 114.734C61.1055 114.482 60.7275 114.109 60.4475 113.614C60.1769 113.119 60.0415 112.522 60.0415 111.822V107.286H61.6235V111.584C61.6235 112.275 61.7962 112.807 62.1415 113.18C62.4869 113.544 62.9582 113.726 63.5555 113.726C64.1529 113.726 64.6242 113.544 64.9695 113.18C65.3242 112.807 65.5015 112.275 65.5015 111.584V107.286H67.0975ZM71.0653 108.588V112.858C71.0653 113.147 71.1307 113.357 71.2613 113.488C71.4013 113.609 71.6347 113.67 71.9613 113.67H72.9413V115H71.6813C70.9627 115 70.412 114.832 70.0293 114.496C69.6467 114.16 69.4553 113.614 69.4553 112.858V108.588H68.5453V107.286H69.4553V105.368H71.0653V107.286H72.9413V108.588H71.0653ZM76.2743 108.588V112.858C76.2743 113.147 76.3396 113.357 76.4703 113.488C76.6103 113.609 76.8436 113.67 77.1703 113.67H78.1503V115H76.8903C76.1716 115 75.621 114.832 75.2383 114.496C74.8556 114.16 74.6643 113.614 74.6643 112.858V108.588H73.7543V107.286H74.6643V105.368H76.2743V107.286H78.1503V108.588H76.2743ZM82.9673 115.126C82.2393 115.126 81.5813 114.963 80.9933 114.636C80.4053 114.3 79.9433 113.833 79.6073 113.236C79.2713 112.629 79.1033 111.929 79.1033 111.136C79.1033 110.352 79.276 109.657 79.6213 109.05C79.9666 108.443 80.438 107.977 81.0353 107.65C81.6326 107.323 82.3 107.16 83.0373 107.16C83.7746 107.16 84.442 107.323 85.0393 107.65C85.6366 107.977 86.108 108.443 86.4533 109.05C86.7986 109.657 86.9713 110.352 86.9713 111.136C86.9713 111.92 86.794 112.615 86.4393 113.222C86.0846 113.829 85.5993 114.3 84.9833 114.636C84.3766 114.963 83.7046 115.126 82.9673 115.126ZM82.9673 113.74C83.378 113.74 83.7606 113.642 84.1153 113.446C84.4793 113.25 84.7733 112.956 84.9973 112.564C85.2213 112.172 85.3333 111.696 85.3333 111.136C85.3333 110.576 85.226 110.105 85.0113 109.722C84.7966 109.33 84.512 109.036 84.1573 108.84C83.8026 108.644 83.42 108.546 83.0093 108.546C82.5986 108.546 82.216 108.644 81.8613 108.84C81.516 109.036 81.2406 109.33 81.0353 109.722C80.83 110.105 80.7273 110.576 80.7273 111.136C80.7273 111.967 80.9373 112.611 81.3573 113.068C81.7866 113.516 82.3233 113.74 82.9673 113.74ZM92.441 107.16C93.0477 107.16 93.589 107.286 94.065 107.538C94.5504 107.79 94.9284 108.163 95.199 108.658C95.4697 109.153 95.605 109.75 95.605 110.45V115H94.023V110.688C94.023 109.997 93.8504 109.47 93.505 109.106C93.1597 108.733 92.6884 108.546 92.091 108.546C91.4937 108.546 91.0177 108.733 90.663 109.106C90.3177 109.47 90.145 109.997 90.145 110.688V115H88.549V107.286H90.145V108.168C90.4064 107.851 90.7377 107.603 91.139 107.426C91.5497 107.249 91.9837 107.16 92.441 107.16ZM102.874 113.712H106.164V115H101.278V105.27H102.874V113.712ZM106.966 111.108C106.966 110.333 107.125 109.647 107.442 109.05C107.769 108.453 108.208 107.991 108.758 107.664C109.318 107.328 109.934 107.16 110.606 107.16C111.213 107.16 111.74 107.281 112.188 107.524C112.646 107.757 113.01 108.051 113.28 108.406V107.286H114.89V115H113.28V113.852C113.01 114.216 112.641 114.519 112.174 114.762C111.708 115.005 111.176 115.126 110.578 115.126C109.916 115.126 109.309 114.958 108.758 114.622C108.208 114.277 107.769 113.801 107.442 113.194C107.125 112.578 106.966 111.883 106.966 111.108ZM113.28 111.136C113.28 110.604 113.168 110.142 112.944 109.75C112.73 109.358 112.445 109.059 112.09 108.854C111.736 108.649 111.353 108.546 110.942 108.546C110.532 108.546 110.149 108.649 109.794 108.854C109.44 109.05 109.15 109.344 108.926 109.736C108.712 110.119 108.604 110.576 108.604 111.108C108.604 111.64 108.712 112.107 108.926 112.508C109.15 112.909 109.44 113.217 109.794 113.432C110.158 113.637 110.541 113.74 110.942 113.74C111.353 113.74 111.736 113.637 112.09 113.432C112.445 113.227 112.73 112.928 112.944 112.536C113.168 112.135 113.28 111.668 113.28 111.136ZM118.583 108.434C118.853 108.061 119.222 107.757 119.689 107.524C120.165 107.281 120.692 107.16 121.271 107.16C121.952 107.16 122.568 107.323 123.119 107.65C123.669 107.977 124.103 108.443 124.421 109.05C124.738 109.647 124.897 110.333 124.897 111.108C124.897 111.883 124.738 112.578 124.421 113.194C124.103 113.801 123.665 114.277 123.105 114.622C122.554 114.958 121.943 115.126 121.271 115.126C120.673 115.126 120.141 115.009 119.675 114.776C119.217 114.543 118.853 114.244 118.583 113.88V115H116.987V104.64H118.583V108.434ZM123.273 111.108C123.273 110.576 123.161 110.119 122.937 109.736C122.722 109.344 122.433 109.05 122.069 108.854C121.714 108.649 121.331 108.546 120.921 108.546C120.519 108.546 120.137 108.649 119.773 108.854C119.418 109.059 119.129 109.358 118.905 109.75C118.69 110.142 118.583 110.604 118.583 111.136C118.583 111.668 118.69 112.135 118.905 112.536C119.129 112.928 119.418 113.227 119.773 113.432C120.137 113.637 120.519 113.74 120.921 113.74C121.331 113.74 121.714 113.637 122.069 113.432C122.433 113.217 122.722 112.909 122.937 112.508C123.161 112.107 123.273 111.64 123.273 111.108ZM133.545 110.954C133.545 111.243 133.526 111.505 133.489 111.738H127.595C127.641 112.354 127.87 112.849 128.281 113.222C128.691 113.595 129.195 113.782 129.793 113.782C130.651 113.782 131.258 113.423 131.613 112.704H133.335C133.101 113.413 132.677 113.997 132.061 114.454C131.454 114.902 130.698 115.126 129.793 115.126C129.055 115.126 128.393 114.963 127.805 114.636C127.226 114.3 126.769 113.833 126.433 113.236C126.106 112.629 125.943 111.929 125.943 111.136C125.943 110.343 126.101 109.647 126.419 109.05C126.745 108.443 127.198 107.977 127.777 107.65C128.365 107.323 129.037 107.16 129.793 107.16C130.521 107.16 131.169 107.319 131.739 107.636C132.308 107.953 132.751 108.401 133.069 108.98C133.386 109.549 133.545 110.207 133.545 110.954ZM131.879 110.45C131.869 109.862 131.659 109.391 131.249 109.036C130.838 108.681 130.329 108.504 129.723 108.504C129.172 108.504 128.701 108.681 128.309 109.036C127.917 109.381 127.683 109.853 127.609 110.45H131.879ZM136.711 104.64V115H135.115V104.64H136.711Z" fill="#91908F"/>
<path d="M204 110C204 95.6406 215.641 84 230 84H366C380.359 84 392 95.6406 392 110C392 124.359 380.359 136 366 136H230C215.641 136 204 124.359 204 110Z" fill="#0A2333"/>
<path d="M260.501 110.002C261.024 110.095 261.467 110.371 261.831 110.828C262.195 111.285 262.377 111.803 262.377 112.382C262.377 112.877 262.246 113.325 261.985 113.726C261.733 114.118 261.364 114.431 260.879 114.664C260.394 114.888 259.829 115 259.185 115H255.293V105.27H259.003C259.666 105.27 260.235 105.382 260.711 105.606C261.187 105.83 261.546 106.133 261.789 106.516C262.032 106.889 262.153 107.309 262.153 107.776C262.153 108.336 262.004 108.803 261.705 109.176C261.406 109.549 261.005 109.825 260.501 110.002ZM256.889 109.358H258.863C259.386 109.358 259.792 109.241 260.081 109.008C260.38 108.765 260.529 108.42 260.529 107.972C260.529 107.533 260.38 107.193 260.081 106.95C259.792 106.698 259.386 106.572 258.863 106.572H256.889V109.358ZM259.045 113.698C259.586 113.698 260.011 113.567 260.319 113.306C260.627 113.045 260.781 112.681 260.781 112.214C260.781 111.738 260.618 111.36 260.291 111.08C259.964 110.8 259.53 110.66 258.989 110.66H256.889V113.698H259.045ZM271.098 107.286V115H269.502V114.09C269.25 114.407 268.918 114.659 268.508 114.846C268.106 115.023 267.677 115.112 267.22 115.112C266.613 115.112 266.067 114.986 265.582 114.734C265.106 114.482 264.728 114.109 264.448 113.614C264.177 113.119 264.042 112.522 264.042 111.822V107.286H265.624V111.584C265.624 112.275 265.796 112.807 266.142 113.18C266.487 113.544 266.958 113.726 267.556 113.726C268.153 113.726 268.624 113.544 268.97 113.18C269.324 112.807 269.502 112.275 269.502 111.584V107.286H271.098ZM275.065 108.588V112.858C275.065 113.147 275.131 113.357 275.261 113.488C275.401 113.609 275.635 113.67 275.961 113.67H276.941V115H275.681C274.963 115 274.412 114.832 274.029 114.496C273.647 114.16 273.455 113.614 273.455 112.858V108.588H272.545V107.286H273.455V105.368H275.065V107.286H276.941V108.588H275.065ZM280.274 108.588V112.858C280.274 113.147 280.34 113.357 280.47 113.488C280.61 113.609 280.844 113.67 281.17 113.67H282.15V115H280.89C280.172 115 279.621 114.832 279.238 114.496C278.856 114.16 278.664 113.614 278.664 112.858V108.588H277.754V107.286H278.664V105.368H280.274V107.286H282.15V108.588H280.274ZM286.967 115.126C286.239 115.126 285.581 114.963 284.993 114.636C284.405 114.3 283.943 113.833 283.607 113.236C283.271 112.629 283.103 111.929 283.103 111.136C283.103 110.352 283.276 109.657 283.621 109.05C283.967 108.443 284.438 107.977 285.035 107.65C285.633 107.323 286.3 107.16 287.037 107.16C287.775 107.16 288.442 107.323 289.039 107.65C289.637 107.977 290.108 108.443 290.453 109.05C290.799 109.657 290.971 110.352 290.971 111.136C290.971 111.92 290.794 112.615 290.439 113.222C290.085 113.829 289.599 114.3 288.983 114.636C288.377 114.963 287.705 115.126 286.967 115.126ZM286.967 113.74C287.378 113.74 287.761 113.642 288.115 113.446C288.479 113.25 288.773 112.956 288.997 112.564C289.221 112.172 289.333 111.696 289.333 111.136C289.333 110.576 289.226 110.105 289.011 109.722C288.797 109.33 288.512 109.036 288.157 108.84C287.803 108.644 287.42 108.546 287.009 108.546C286.599 108.546 286.216 108.644 285.861 108.84C285.516 109.036 285.241 109.33 285.035 109.722C284.83 110.105 284.727 110.576 284.727 111.136C284.727 111.967 284.937 112.611 285.357 113.068C285.787 113.516 286.323 113.74 286.967 113.74ZM296.441 107.16C297.048 107.16 297.589 107.286 298.065 107.538C298.55 107.79 298.928 108.163 299.199 108.658C299.47 109.153 299.605 109.75 299.605 110.45V115H298.023V110.688C298.023 109.997 297.85 109.47 297.505 109.106C297.16 108.733 296.688 108.546 296.091 108.546C295.494 108.546 295.018 108.733 294.663 109.106C294.318 109.47 294.145 109.997 294.145 110.688V115H292.549V107.286H294.145V108.168C294.406 107.851 294.738 107.603 295.139 107.426C295.55 107.249 295.984 107.16 296.441 107.16ZM306.874 113.712H310.164V115H305.278V105.27H306.874V113.712ZM310.966 111.108C310.966 110.333 311.125 109.647 311.442 109.05C311.769 108.453 312.208 107.991 312.758 107.664C313.318 107.328 313.934 107.16 314.606 107.16C315.213 107.16 315.74 107.281 316.188 107.524C316.646 107.757 317.01 108.051 317.28 108.406V107.286H318.89V115H317.28V113.852C317.01 114.216 316.641 114.519 316.174 114.762C315.708 115.005 315.176 115.126 314.578 115.126C313.916 115.126 313.309 114.958 312.758 114.622C312.208 114.277 311.769 113.801 311.442 113.194C311.125 112.578 310.966 111.883 310.966 111.108ZM317.28 111.136C317.28 110.604 317.168 110.142 316.944 109.75C316.73 109.358 316.445 109.059 316.09 108.854C315.736 108.649 315.353 108.546 314.942 108.546C314.532 108.546 314.149 108.649 313.794 108.854C313.44 109.05 313.15 109.344 312.926 109.736C312.712 110.119 312.604 110.576 312.604 111.108C312.604 111.64 312.712 112.107 312.926 112.508C313.15 112.909 313.44 113.217 313.794 113.432C314.158 113.637 314.541 113.74 314.942 113.74C315.353 113.74 315.736 113.637 316.09 113.432C316.445 113.227 316.73 112.928 316.944 112.536C317.168 112.135 317.28 111.668 317.28 111.136ZM322.583 108.434C322.853 108.061 323.222 107.757 323.689 107.524C324.165 107.281 324.692 107.16 325.271 107.16C325.952 107.16 326.568 107.323 327.119 107.65C327.669 107.977 328.103 108.443 328.421 109.05C328.738 109.647 328.897 110.333 328.897 111.108C328.897 111.883 328.738 112.578 328.421 113.194C328.103 113.801 327.665 114.277 327.105 114.622C326.554 114.958 325.943 115.126 325.271 115.126C324.673 115.126 324.141 115.009 323.675 114.776C323.217 114.543 322.853 114.244 322.583 113.88V115H320.987V104.64H322.583V108.434ZM327.273 111.108C327.273 110.576 327.161 110.119 326.937 109.736C326.722 109.344 326.433 109.05 326.069 108.854C325.714 108.649 325.331 108.546 324.921 108.546C324.519 108.546 324.137 108.649 323.773 108.854C323.418 109.059 323.129 109.358 322.905 109.75C322.69 110.142 322.583 110.604 322.583 111.136C322.583 111.668 322.69 112.135 322.905 112.536C323.129 112.928 323.418 113.227 323.773 113.432C324.137 113.637 324.519 113.74 324.921 113.74C325.331 113.74 325.714 113.637 326.069 113.432C326.433 113.217 326.722 112.909 326.937 112.508C327.161 112.107 327.273 111.64 327.273 111.108ZM337.545 110.954C337.545 111.243 337.526 111.505 337.489 111.738H331.595C331.641 112.354 331.87 112.849 332.281 113.222C332.691 113.595 333.195 113.782 333.793 113.782C334.651 113.782 335.258 113.423 335.613 112.704H337.335C337.101 113.413 336.677 113.997 336.061 114.454C335.454 114.902 334.698 115.126 333.793 115.126C333.055 115.126 332.393 114.963 331.805 114.636C331.226 114.3 330.769 113.833 330.433 113.236C330.106 112.629 329.943 111.929 329.943 111.136C329.943 110.343 330.101 109.647 330.419 109.05C330.745 108.443 331.198 107.977 331.777 107.65C332.365 107.323 333.037 107.16 333.793 107.16C334.521 107.16 335.169 107.319 335.739 107.636C336.308 107.953 336.751 108.401 337.069 108.98C337.386 109.549 337.545 110.207 337.545 110.954ZM335.879 110.45C335.869 109.862 335.659 109.391 335.249 109.036C334.838 108.681 334.329 108.504 333.723 108.504C333.172 108.504 332.701 108.681 332.309 109.036C331.917 109.381 331.683 109.853 331.609 110.45H335.879ZM340.711 104.64V115H339.115V104.64H340.711Z" fill="white"/>
</svg>
