<svg width="392" height="376" viewBox="0 0 392 376" fill="none" xmlns="http://www.w3.org/2000/svg">
<mask id="path-2-inside-1_2027_74923" fill="white">
<path d="M0 8C0 3.58172 3.58172 0 8 0H384C388.418 0 392 3.58172 392 8V44C392 48.4183 388.418 52 384 52H8C3.58172 52 0 48.4183 0 44V8Z"/>
</mask>
<path d="M0 8C0 3.58172 3.58172 0 8 0H384C388.418 0 392 3.58172 392 8V44C392 48.4183 388.418 52 384 52H8C3.58172 52 0 48.4183 0 44V8Z" fill="#FAF8F7"/>
<path d="M8 0V1H384V0V-1H8V0ZM392 8H391V44H392H393V8H392ZM384 52V51H8V52V53H384V52ZM0 44H1V8H0H-1V44H0ZM8 52V51C4.134 51 1 47.866 1 44H0H-1C-1 48.9706 3.02943 53 8 53V52ZM392 44H391C391 47.866 387.866 51 384 51V52V53C388.971 53 393 48.9706 393 44H392ZM384 0V1C387.866 1 391 4.13401 391 8H392H393C393 3.02944 388.971 -1 384 -1V0ZM8 0V-1C3.02944 -1 -1 3.02944 -1 8H0H1C1 4.13401 4.13401 1 8 1V0Z" fill="#CDCBCB" mask="url(#path-2-inside-1_2027_74923)"/>
<path d="M177.796 25.834C177.796 24.2287 178.057 22.978 178.58 22.082C179.102 21.1767 180.017 20.724 181.324 20.724C182.621 20.724 183.531 21.1767 184.054 22.082C184.576 22.978 184.838 24.2287 184.838 25.834C184.838 27.4673 184.576 28.7367 184.054 29.642C183.531 30.5473 182.621 31 181.324 31C180.017 31 179.102 30.5473 178.58 29.642C178.057 28.7367 177.796 27.4673 177.796 25.834ZM183.578 25.834C183.578 25.022 183.522 24.336 183.41 23.776C183.307 23.2067 183.088 22.7493 182.752 22.404C182.425 22.0587 181.949 21.886 181.324 21.886C180.689 21.886 180.204 22.0587 179.868 22.404C179.541 22.7493 179.322 23.2067 179.21 23.776C179.107 24.336 179.056 25.022 179.056 25.834C179.056 26.674 179.107 27.3787 179.21 27.948C179.322 28.5173 179.541 28.9747 179.868 29.32C180.204 29.6653 180.689 29.838 181.324 29.838C181.949 29.838 182.425 29.6653 182.752 29.32C183.088 28.9747 183.307 28.5173 183.41 27.948C183.522 27.3787 183.578 26.674 183.578 25.834ZM186.587 25.834C186.587 24.2287 186.848 22.978 187.371 22.082C187.893 21.1767 188.808 20.724 190.115 20.724C191.412 20.724 192.322 21.1767 192.845 22.082C193.367 22.978 193.629 24.2287 193.629 25.834C193.629 27.4673 193.367 28.7367 192.845 29.642C192.322 30.5473 191.412 31 190.115 31C188.808 31 187.893 30.5473 187.371 29.642C186.848 28.7367 186.587 27.4673 186.587 25.834ZM192.369 25.834C192.369 25.022 192.313 24.336 192.201 23.776C192.098 23.2067 191.879 22.7493 191.543 22.404C191.216 22.0587 190.74 21.886 190.115 21.886C189.48 21.886 188.995 22.0587 188.659 22.404C188.332 22.7493 188.113 23.2067 188.001 23.776C187.898 24.336 187.847 25.022 187.847 25.834C187.847 26.674 187.898 27.3787 188.001 27.948C188.113 28.5173 188.332 28.9747 188.659 29.32C188.995 29.6653 189.48 29.838 190.115 29.838C190.74 29.838 191.216 29.6653 191.543 29.32C191.879 28.9747 192.098 28.5173 192.201 27.948C192.313 27.3787 192.369 26.674 192.369 25.834ZM195.994 31.084C195.751 31.084 195.546 31 195.378 30.832C195.21 30.664 195.126 30.4587 195.126 30.216C195.126 29.9733 195.21 29.768 195.378 29.6C195.546 29.432 195.751 29.348 195.994 29.348C196.227 29.348 196.423 29.432 196.582 29.6C196.75 29.768 196.834 29.9733 196.834 30.216C196.834 30.4587 196.75 30.664 196.582 30.832C196.423 31 196.227 31.084 195.994 31.084ZM195.994 25.092C195.751 25.092 195.546 25.008 195.378 24.84C195.21 24.672 195.126 24.4667 195.126 24.224C195.126 23.9813 195.21 23.776 195.378 23.608C195.546 23.44 195.751 23.356 195.994 23.356C196.227 23.356 196.423 23.44 196.582 23.608C196.75 23.776 196.834 23.9813 196.834 24.224C196.834 24.4667 196.75 24.672 196.582 24.84C196.423 25.008 196.227 25.092 195.994 25.092ZM198.358 25.834C198.358 24.2287 198.62 22.978 199.142 22.082C199.665 21.1767 200.58 20.724 201.886 20.724C203.184 20.724 204.094 21.1767 204.616 22.082C205.139 22.978 205.4 24.2287 205.4 25.834C205.4 27.4673 205.139 28.7367 204.616 29.642C204.094 30.5473 203.184 31 201.886 31C200.58 31 199.665 30.5473 199.142 29.642C198.62 28.7367 198.358 27.4673 198.358 25.834ZM204.14 25.834C204.14 25.022 204.084 24.336 203.972 23.776C203.87 23.2067 203.65 22.7493 203.314 22.404C202.988 22.0587 202.512 21.886 201.886 21.886C201.252 21.886 200.766 22.0587 200.43 22.404C200.104 22.7493 199.884 23.2067 199.772 23.776C199.67 24.336 199.618 25.022 199.618 25.834C199.618 26.674 199.67 27.3787 199.772 27.948C199.884 28.5173 200.104 28.9747 200.43 29.32C200.766 29.6653 201.252 29.838 201.886 29.838C202.512 29.838 202.988 29.6653 203.314 29.32C203.65 28.9747 203.87 28.5173 203.972 27.948C204.084 27.3787 204.14 26.674 204.14 25.834ZM207.149 25.834C207.149 24.2287 207.411 22.978 207.933 22.082C208.456 21.1767 209.371 20.724 210.677 20.724C211.975 20.724 212.885 21.1767 213.407 22.082C213.93 22.978 214.191 24.2287 214.191 25.834C214.191 27.4673 213.93 28.7367 213.407 29.642C212.885 30.5473 211.975 31 210.677 31C209.371 31 208.456 30.5473 207.933 29.642C207.411 28.7367 207.149 27.4673 207.149 25.834ZM212.931 25.834C212.931 25.022 212.875 24.336 212.763 23.776C212.661 23.2067 212.441 22.7493 212.105 22.404C211.779 22.0587 211.303 21.886 210.677 21.886C210.043 21.886 209.557 22.0587 209.221 22.404C208.895 22.7493 208.675 23.2067 208.563 23.776C208.461 24.336 208.409 25.022 208.409 25.834C208.409 26.674 208.461 27.3787 208.563 27.948C208.675 28.5173 208.895 28.9747 209.221 29.32C209.557 29.6653 210.043 29.838 210.677 29.838C211.303 29.838 211.779 29.6653 212.105 29.32C212.441 28.9747 212.661 28.5173 212.763 27.948C212.875 27.3787 212.931 26.674 212.931 25.834Z" fill="#91908F"/>
<path d="M176.928 26.408H215.073V27.108H176.928V26.408Z" fill="#91908F"/>
<mask id="path-5-inside-2_2027_74923" fill="white">
<path d="M0 68C0 63.5817 3.58172 60 8 60H384C388.418 60 392 63.5817 392 68V104C392 108.418 388.418 112 384 112H8C3.58172 112 0 108.418 0 104V68Z"/>
</mask>
<path d="M0 68C0 63.5817 3.58172 60 8 60H384C388.418 60 392 63.5817 392 68V104C392 108.418 388.418 112 384 112H8C3.58172 112 0 108.418 0 104V68Z" fill="white"/>
<path d="M8 60V61H384V60V59H8V60ZM392 68H391V104H392H393V68H392ZM384 112V111H8V112V113H384V112ZM0 104H1V68H0H-1V104H0ZM8 112V111C4.134 111 1 107.866 1 104H0H-1C-1 108.971 3.02943 113 8 113V112ZM392 104H391C391 107.866 387.866 111 384 111V112V113C388.971 113 393 108.971 393 104H392ZM384 60V61C387.866 61 391 64.134 391 68H392H393C393 63.0294 388.971 59 384 59V60ZM8 60V59C3.02944 59 -1 63.0294 -1 68H0H1C1 64.134 4.13401 61 8 61V60Z" fill="#CDCBCB" mask="url(#path-5-inside-2_2027_74923)"/>
<path d="M178.165 85.834C178.165 84.2287 178.426 82.978 178.949 82.082C179.472 81.1767 180.386 80.724 181.693 80.724C182.99 80.724 183.9 81.1767 184.423 82.082C184.946 82.978 185.207 84.2287 185.207 85.834C185.207 87.4673 184.946 88.7367 184.423 89.642C183.9 90.5473 182.99 91 181.693 91C180.386 91 179.472 90.5473 178.949 89.642C178.426 88.7367 178.165 87.4673 178.165 85.834ZM183.947 85.834C183.947 85.022 183.891 84.336 183.779 83.776C183.676 83.2067 183.457 82.7493 183.121 82.404C182.794 82.0587 182.318 81.886 181.693 81.886C181.058 81.886 180.573 82.0587 180.237 82.404C179.91 82.7493 179.691 83.2067 179.579 83.776C179.476 84.336 179.425 85.022 179.425 85.834C179.425 86.674 179.476 87.3787 179.579 87.948C179.691 88.5173 179.91 88.9747 180.237 89.32C180.573 89.6653 181.058 89.838 181.693 89.838C182.318 89.838 182.794 89.6653 183.121 89.32C183.457 88.9747 183.676 88.5173 183.779 87.948C183.891 87.3787 183.947 86.674 183.947 85.834ZM186.802 89.978C187.987 89.026 188.916 88.2467 189.588 87.64C190.26 87.024 190.825 86.3847 191.282 85.722C191.749 85.05 191.982 84.392 191.982 83.748C191.982 83.1413 191.833 82.6653 191.534 82.32C191.245 81.9653 190.773 81.788 190.12 81.788C189.485 81.788 188.991 81.9887 188.636 82.39C188.291 82.782 188.104 83.3093 188.076 83.972H186.844C186.881 82.9267 187.199 82.1193 187.796 81.55C188.393 80.9807 189.163 80.696 190.106 80.696C191.067 80.696 191.828 80.962 192.388 81.494C192.957 82.026 193.242 82.7587 193.242 83.692C193.242 84.4667 193.009 85.2227 192.542 85.96C192.085 86.688 191.562 87.332 190.974 87.892C190.386 88.4427 189.635 89.0867 188.72 89.824H193.536V90.888H186.802V89.978ZM195.625 91.084C195.382 91.084 195.177 91 195.009 90.832C194.841 90.664 194.757 90.4587 194.757 90.216C194.757 89.9733 194.841 89.768 195.009 89.6C195.177 89.432 195.382 89.348 195.625 89.348C195.858 89.348 196.054 89.432 196.213 89.6C196.381 89.768 196.465 89.9733 196.465 90.216C196.465 90.4587 196.381 90.664 196.213 90.832C196.054 91 195.858 91.084 195.625 91.084ZM195.625 85.092C195.382 85.092 195.177 85.008 195.009 84.84C194.841 84.672 194.757 84.4667 194.757 84.224C194.757 83.9813 194.841 83.776 195.009 83.608C195.177 83.44 195.382 83.356 195.625 83.356C195.858 83.356 196.054 83.44 196.213 83.608C196.381 83.776 196.465 83.9813 196.465 84.224C196.465 84.4667 196.381 84.672 196.213 84.84C196.054 85.008 195.858 85.092 195.625 85.092ZM197.989 85.834C197.989 84.2287 198.25 82.978 198.773 82.082C199.296 81.1767 200.21 80.724 201.517 80.724C202.814 80.724 203.724 81.1767 204.247 82.082C204.77 82.978 205.031 84.2287 205.031 85.834C205.031 87.4673 204.77 88.7367 204.247 89.642C203.724 90.5473 202.814 91 201.517 91C200.21 91 199.296 90.5473 198.773 89.642C198.25 88.7367 197.989 87.4673 197.989 85.834ZM203.771 85.834C203.771 85.022 203.715 84.336 203.603 83.776C203.5 83.2067 203.281 82.7493 202.945 82.404C202.618 82.0587 202.142 81.886 201.517 81.886C200.882 81.886 200.397 82.0587 200.061 82.404C199.734 82.7493 199.515 83.2067 199.403 83.776C199.3 84.336 199.249 85.022 199.249 85.834C199.249 86.674 199.3 87.3787 199.403 87.948C199.515 88.5173 199.734 88.9747 200.061 89.32C200.397 89.6653 200.882 89.838 201.517 89.838C202.142 89.838 202.618 89.6653 202.945 89.32C203.281 88.9747 203.5 88.5173 203.603 87.948C203.715 87.3787 203.771 86.674 203.771 85.834ZM206.78 85.834C206.78 84.2287 207.041 82.978 207.564 82.082C208.087 81.1767 209.001 80.724 210.308 80.724C211.605 80.724 212.515 81.1767 213.038 82.082C213.561 82.978 213.822 84.2287 213.822 85.834C213.822 87.4673 213.561 88.7367 213.038 89.642C212.515 90.5473 211.605 91 210.308 91C209.001 91 208.087 90.5473 207.564 89.642C207.041 88.7367 206.78 87.4673 206.78 85.834ZM212.562 85.834C212.562 85.022 212.506 84.336 212.394 83.776C212.291 83.2067 212.072 82.7493 211.736 82.404C211.409 82.0587 210.933 81.886 210.308 81.886C209.673 81.886 209.188 82.0587 208.852 82.404C208.525 82.7493 208.306 83.2067 208.194 83.776C208.091 84.336 208.04 85.022 208.04 85.834C208.04 86.674 208.091 87.3787 208.194 87.948C208.306 88.5173 208.525 88.9747 208.852 89.32C209.188 89.6653 209.673 89.838 210.308 89.838C210.933 89.838 211.409 89.6653 211.736 89.32C212.072 88.9747 212.291 88.5173 212.394 87.948C212.506 87.3787 212.562 86.674 212.562 85.834Z" fill="#4B4A4A"/>
<mask id="path-8-inside-3_2027_74923" fill="white">
<path d="M0 128C0 123.582 3.58172 120 8 120H384C388.418 120 392 123.582 392 128V164C392 168.418 388.418 172 384 172H8C3.58172 172 0 168.418 0 164V128Z"/>
</mask>
<path d="M0 128C0 123.582 3.58172 120 8 120H384C388.418 120 392 123.582 392 128V164C392 168.418 388.418 172 384 172H8C3.58172 172 0 168.418 0 164V128Z" fill="white"/>
<path d="M8 120V121H384V120V119H8V120ZM392 128H391V164H392H393V128H392ZM384 172V171H8V172V173H384V172ZM0 164H1V128H0H-1V164H0ZM8 172V171C4.134 171 1 167.866 1 164H0H-1C-1 168.971 3.02943 173 8 173V172ZM392 164H391C391 167.866 387.866 171 384 171V172V173C388.971 173 393 168.971 393 164H392ZM384 120V121C387.866 121 391 124.134 391 128H392H393C393 123.029 388.971 119 384 119V120ZM8 120V119C3.02944 119 -1 123.029 -1 128H0H1C1 124.134 4.13401 121 8 121V120Z" fill="#CDCBCB" mask="url(#path-8-inside-3_2027_74923)"/>
<path d="M178.165 145.834C178.165 144.229 178.426 142.978 178.949 142.082C179.472 141.177 180.386 140.724 181.693 140.724C182.99 140.724 183.9 141.177 184.423 142.082C184.946 142.978 185.207 144.229 185.207 145.834C185.207 147.467 184.946 148.737 184.423 149.642C183.9 150.547 182.99 151 181.693 151C180.386 151 179.472 150.547 178.949 149.642C178.426 148.737 178.165 147.467 178.165 145.834ZM183.947 145.834C183.947 145.022 183.891 144.336 183.779 143.776C183.676 143.207 183.457 142.749 183.121 142.404C182.794 142.059 182.318 141.886 181.693 141.886C181.058 141.886 180.573 142.059 180.237 142.404C179.91 142.749 179.691 143.207 179.579 143.776C179.476 144.336 179.425 145.022 179.425 145.834C179.425 146.674 179.476 147.379 179.579 147.948C179.691 148.517 179.91 148.975 180.237 149.32C180.573 149.665 181.058 149.838 181.693 149.838C182.318 149.838 182.794 149.665 183.121 149.32C183.457 148.975 183.676 148.517 183.779 147.948C183.891 147.379 183.947 146.674 183.947 145.834ZM186.802 149.978C187.987 149.026 188.916 148.247 189.588 147.64C190.26 147.024 190.825 146.385 191.282 145.722C191.749 145.05 191.982 144.392 191.982 143.748C191.982 143.141 191.833 142.665 191.534 142.32C191.245 141.965 190.773 141.788 190.12 141.788C189.485 141.788 188.991 141.989 188.636 142.39C188.291 142.782 188.104 143.309 188.076 143.972H186.844C186.881 142.927 187.199 142.119 187.796 141.55C188.393 140.981 189.163 140.696 190.106 140.696C191.067 140.696 191.828 140.962 192.388 141.494C192.957 142.026 193.242 142.759 193.242 143.692C193.242 144.467 193.009 145.223 192.542 145.96C192.085 146.688 191.562 147.332 190.974 147.892C190.386 148.443 189.635 149.087 188.72 149.824H193.536V150.888H186.802V149.978ZM195.625 151.084C195.382 151.084 195.177 151 195.009 150.832C194.841 150.664 194.757 150.459 194.757 150.216C194.757 149.973 194.841 149.768 195.009 149.6C195.177 149.432 195.382 149.348 195.625 149.348C195.858 149.348 196.054 149.432 196.213 149.6C196.381 149.768 196.465 149.973 196.465 150.216C196.465 150.459 196.381 150.664 196.213 150.832C196.054 151 195.858 151.084 195.625 151.084ZM195.625 145.092C195.382 145.092 195.177 145.008 195.009 144.84C194.841 144.672 194.757 144.467 194.757 144.224C194.757 143.981 194.841 143.776 195.009 143.608C195.177 143.44 195.382 143.356 195.625 143.356C195.858 143.356 196.054 143.44 196.213 143.608C196.381 143.776 196.465 143.981 196.465 144.224C196.465 144.467 196.381 144.672 196.213 144.84C196.054 145.008 195.858 145.092 195.625 145.092ZM197.989 145.834C197.989 144.229 198.25 142.978 198.773 142.082C199.296 141.177 200.21 140.724 201.517 140.724C202.814 140.724 203.724 141.177 204.247 142.082C204.77 142.978 205.031 144.229 205.031 145.834C205.031 147.467 204.77 148.737 204.247 149.642C203.724 150.547 202.814 151 201.517 151C200.21 151 199.296 150.547 198.773 149.642C198.25 148.737 197.989 147.467 197.989 145.834ZM203.771 145.834C203.771 145.022 203.715 144.336 203.603 143.776C203.5 143.207 203.281 142.749 202.945 142.404C202.618 142.059 202.142 141.886 201.517 141.886C200.882 141.886 200.397 142.059 200.061 142.404C199.734 142.749 199.515 143.207 199.403 143.776C199.3 144.336 199.249 145.022 199.249 145.834C199.249 146.674 199.3 147.379 199.403 147.948C199.515 148.517 199.734 148.975 200.061 149.32C200.397 149.665 200.882 149.838 201.517 149.838C202.142 149.838 202.618 149.665 202.945 149.32C203.281 148.975 203.5 148.517 203.603 147.948C203.715 147.379 203.771 146.674 203.771 145.834ZM206.78 145.834C206.78 144.229 207.041 142.978 207.564 142.082C208.087 141.177 209.001 140.724 210.308 140.724C211.605 140.724 212.515 141.177 213.038 142.082C213.561 142.978 213.822 144.229 213.822 145.834C213.822 147.467 213.561 148.737 213.038 149.642C212.515 150.547 211.605 151 210.308 151C209.001 151 208.087 150.547 207.564 149.642C207.041 148.737 206.78 147.467 206.78 145.834ZM212.562 145.834C212.562 145.022 212.506 144.336 212.394 143.776C212.291 143.207 212.072 142.749 211.736 142.404C211.409 142.059 210.933 141.886 210.308 141.886C209.673 141.886 209.188 142.059 208.852 142.404C208.525 142.749 208.306 143.207 208.194 143.776C208.091 144.336 208.04 145.022 208.04 145.834C208.04 146.674 208.091 147.379 208.194 147.948C208.306 148.517 208.525 148.975 208.852 149.32C209.188 149.665 209.673 149.838 210.308 149.838C210.933 149.838 211.409 149.665 211.736 149.32C212.072 148.975 212.291 148.517 212.394 147.948C212.506 147.379 212.562 146.674 212.562 145.834Z" fill="#4B4A4A"/>
<mask id="path-11-inside-4_2027_74923" fill="white">
<path d="M0 188C0 183.582 3.58172 180 8 180H384C388.418 180 392 183.582 392 188V224C392 228.418 388.418 232 384 232H8C3.58172 232 0 228.418 0 224V188Z"/>
</mask>
<path d="M0 188C0 183.582 3.58172 180 8 180H384C388.418 180 392 183.582 392 188V224C392 228.418 388.418 232 384 232H8C3.58172 232 0 228.418 0 224V188Z" fill="white"/>
<path d="M8 180V181H384V180V179H8V180ZM392 188H391V224H392H393V188H392ZM384 232V231H8V232V233H384V232ZM0 224H1V188H0H-1V224H0ZM8 232V231C4.134 231 1 227.866 1 224H0H-1C-1 228.971 3.02943 233 8 233V232ZM392 224H391C391 227.866 387.866 231 384 231V232V233C388.971 233 393 228.971 393 224H392ZM384 180V181C387.866 181 391 184.134 391 188H392H393C393 183.029 388.971 179 384 179V180ZM8 180V179C3.02944 179 -1 183.029 -1 188H0H1C1 184.134 4.13401 181 8 181V180Z" fill="#CDCBCB" mask="url(#path-11-inside-4_2027_74923)"/>
<path d="M178.165 205.834C178.165 204.229 178.426 202.978 178.949 202.082C179.472 201.177 180.386 200.724 181.693 200.724C182.99 200.724 183.9 201.177 184.423 202.082C184.946 202.978 185.207 204.229 185.207 205.834C185.207 207.467 184.946 208.737 184.423 209.642C183.9 210.547 182.99 211 181.693 211C180.386 211 179.472 210.547 178.949 209.642C178.426 208.737 178.165 207.467 178.165 205.834ZM183.947 205.834C183.947 205.022 183.891 204.336 183.779 203.776C183.676 203.207 183.457 202.749 183.121 202.404C182.794 202.059 182.318 201.886 181.693 201.886C181.058 201.886 180.573 202.059 180.237 202.404C179.91 202.749 179.691 203.207 179.579 203.776C179.476 204.336 179.425 205.022 179.425 205.834C179.425 206.674 179.476 207.379 179.579 207.948C179.691 208.517 179.91 208.975 180.237 209.32C180.573 209.665 181.058 209.838 181.693 209.838C182.318 209.838 182.794 209.665 183.121 209.32C183.457 208.975 183.676 208.517 183.779 207.948C183.891 207.379 183.947 206.674 183.947 205.834ZM186.802 209.978C187.987 209.026 188.916 208.247 189.588 207.64C190.26 207.024 190.825 206.385 191.282 205.722C191.749 205.05 191.982 204.392 191.982 203.748C191.982 203.141 191.833 202.665 191.534 202.32C191.245 201.965 190.773 201.788 190.12 201.788C189.485 201.788 188.991 201.989 188.636 202.39C188.291 202.782 188.104 203.309 188.076 203.972H186.844C186.881 202.927 187.199 202.119 187.796 201.55C188.393 200.981 189.163 200.696 190.106 200.696C191.067 200.696 191.828 200.962 192.388 201.494C192.957 202.026 193.242 202.759 193.242 203.692C193.242 204.467 193.009 205.223 192.542 205.96C192.085 206.688 191.562 207.332 190.974 207.892C190.386 208.443 189.635 209.087 188.72 209.824H193.536V210.888H186.802V209.978ZM195.625 211.084C195.382 211.084 195.177 211 195.009 210.832C194.841 210.664 194.757 210.459 194.757 210.216C194.757 209.973 194.841 209.768 195.009 209.6C195.177 209.432 195.382 209.348 195.625 209.348C195.858 209.348 196.054 209.432 196.213 209.6C196.381 209.768 196.465 209.973 196.465 210.216C196.465 210.459 196.381 210.664 196.213 210.832C196.054 211 195.858 211.084 195.625 211.084ZM195.625 205.092C195.382 205.092 195.177 205.008 195.009 204.84C194.841 204.672 194.757 204.467 194.757 204.224C194.757 203.981 194.841 203.776 195.009 203.608C195.177 203.44 195.382 203.356 195.625 203.356C195.858 203.356 196.054 203.44 196.213 203.608C196.381 203.776 196.465 203.981 196.465 204.224C196.465 204.467 196.381 204.672 196.213 204.84C196.054 205.008 195.858 205.092 195.625 205.092ZM197.989 205.834C197.989 204.229 198.25 202.978 198.773 202.082C199.296 201.177 200.21 200.724 201.517 200.724C202.814 200.724 203.724 201.177 204.247 202.082C204.77 202.978 205.031 204.229 205.031 205.834C205.031 207.467 204.77 208.737 204.247 209.642C203.724 210.547 202.814 211 201.517 211C200.21 211 199.296 210.547 198.773 209.642C198.25 208.737 197.989 207.467 197.989 205.834ZM203.771 205.834C203.771 205.022 203.715 204.336 203.603 203.776C203.5 203.207 203.281 202.749 202.945 202.404C202.618 202.059 202.142 201.886 201.517 201.886C200.882 201.886 200.397 202.059 200.061 202.404C199.734 202.749 199.515 203.207 199.403 203.776C199.3 204.336 199.249 205.022 199.249 205.834C199.249 206.674 199.3 207.379 199.403 207.948C199.515 208.517 199.734 208.975 200.061 209.32C200.397 209.665 200.882 209.838 201.517 209.838C202.142 209.838 202.618 209.665 202.945 209.32C203.281 208.975 203.5 208.517 203.603 207.948C203.715 207.379 203.771 206.674 203.771 205.834ZM206.78 205.834C206.78 204.229 207.041 202.978 207.564 202.082C208.087 201.177 209.001 200.724 210.308 200.724C211.605 200.724 212.515 201.177 213.038 202.082C213.561 202.978 213.822 204.229 213.822 205.834C213.822 207.467 213.561 208.737 213.038 209.642C212.515 210.547 211.605 211 210.308 211C209.001 211 208.087 210.547 207.564 209.642C207.041 208.737 206.78 207.467 206.78 205.834ZM212.562 205.834C212.562 205.022 212.506 204.336 212.394 203.776C212.291 203.207 212.072 202.749 211.736 202.404C211.409 202.059 210.933 201.886 210.308 201.886C209.673 201.886 209.188 202.059 208.852 202.404C208.525 202.749 208.306 203.207 208.194 203.776C208.091 204.336 208.04 205.022 208.04 205.834C208.04 206.674 208.091 207.379 208.194 207.948C208.306 208.517 208.525 208.975 208.852 209.32C209.188 209.665 209.673 209.838 210.308 209.838C210.933 209.838 211.409 209.665 211.736 209.32C212.072 208.975 212.291 208.517 212.394 207.948C212.506 207.379 212.562 206.674 212.562 205.834Z" fill="#4B4A4A"/>
<mask id="path-14-inside-5_2027_74923" fill="white">
<path d="M0 248C0 243.582 3.58172 240 8 240H384C388.418 240 392 243.582 392 248V284C392 288.418 388.418 292 384 292H8C3.58172 292 0 288.418 0 284V248Z"/>
</mask>
<path d="M0 248C0 243.582 3.58172 240 8 240H384C388.418 240 392 243.582 392 248V284C392 288.418 388.418 292 384 292H8C3.58172 292 0 288.418 0 284V248Z" fill="#FAF8F7"/>
<path d="M8 240V241H384V240V239H8V240ZM392 248H391V284H392H393V248H392ZM384 292V291H8V292V293H384V292ZM0 284H1V248H0H-1V284H0ZM8 292V291C4.134 291 1 287.866 1 284H0H-1C-1 288.971 3.02943 293 8 293V292ZM392 284H391C391 287.866 387.866 291 384 291V292V293C388.971 293 393 288.971 393 284H392ZM384 240V241C387.866 241 391 244.134 391 248H392H393C393 243.029 388.971 239 384 239V240ZM8 240V239C3.02944 239 -1 243.029 -1 248H0H1C1 244.134 4.13401 241 8 241V240Z" fill="#0A2333" mask="url(#path-14-inside-5_2027_74923)"/>
<path d="M177.105 265.764C177.105 264.149 177.375 262.889 177.917 261.984C178.467 261.069 179.41 260.612 180.745 260.612C182.079 260.612 183.017 261.069 183.559 261.984C184.109 262.889 184.385 264.149 184.385 265.764C184.385 267.397 184.109 268.676 183.559 269.6C183.017 270.515 182.079 270.972 180.745 270.972C179.41 270.972 178.467 270.515 177.917 269.6C177.375 268.676 177.105 267.397 177.105 265.764ZM182.817 265.764C182.817 265.008 182.765 264.369 182.663 263.846C182.569 263.323 182.373 262.899 182.075 262.572C181.776 262.236 181.333 262.068 180.745 262.068C180.157 262.068 179.713 262.236 179.415 262.572C179.116 262.899 178.915 263.323 178.813 263.846C178.719 264.369 178.673 265.008 178.673 265.764C178.673 266.548 178.719 267.206 178.813 267.738C178.906 268.27 179.102 268.699 179.401 269.026C179.709 269.353 180.157 269.516 180.745 269.516C181.333 269.516 181.776 269.353 182.075 269.026C182.383 268.699 182.583 268.27 182.677 267.738C182.77 267.206 182.817 266.548 182.817 265.764ZM185.877 268.872V267.668L190.581 260.92H192.513V267.486H193.815V268.872H192.513V271H190.945V268.872H185.877ZM191.015 262.544L187.711 267.486H191.015V262.544ZM195.992 271.098C195.703 271.098 195.46 271 195.264 270.804C195.068 270.608 194.97 270.365 194.97 270.076C194.97 269.787 195.068 269.544 195.264 269.348C195.46 269.152 195.703 269.054 195.992 269.054C196.272 269.054 196.51 269.152 196.706 269.348C196.902 269.544 197 269.787 197 270.076C197 270.365 196.902 270.608 196.706 270.804C196.51 271 196.272 271.098 195.992 271.098ZM195.992 265.218C195.703 265.218 195.46 265.12 195.264 264.924C195.068 264.728 194.97 264.485 194.97 264.196C194.97 263.907 195.068 263.664 195.264 263.468C195.46 263.272 195.703 263.174 195.992 263.174C196.272 263.174 196.51 263.272 196.706 263.468C196.902 263.664 197 263.907 197 264.196C197 264.485 196.902 264.728 196.706 264.924C196.51 265.12 196.272 265.218 195.992 265.218ZM198.373 268.872V267.668L203.077 260.92H205.009V267.486H206.311V268.872H205.009V271H203.441V268.872H198.373ZM203.511 262.544L200.207 267.486H203.511V262.544ZM214.214 262.166H209.524V264.952C209.72 264.691 210.009 264.471 210.392 264.294C210.784 264.117 211.199 264.028 211.638 264.028C212.422 264.028 213.057 264.196 213.542 264.532C214.037 264.868 214.387 265.293 214.592 265.806C214.807 266.319 214.914 266.861 214.914 267.43C214.914 268.121 214.779 268.737 214.508 269.278C214.247 269.81 213.85 270.23 213.318 270.538C212.795 270.846 212.151 271 211.386 271C210.369 271 209.552 270.748 208.936 270.244C208.32 269.74 207.951 269.073 207.83 268.242H209.384C209.487 268.681 209.715 269.031 210.07 269.292C210.425 269.544 210.868 269.67 211.4 269.67C212.063 269.67 212.557 269.469 212.884 269.068C213.22 268.667 213.388 268.135 213.388 267.472C213.388 266.8 213.22 266.287 212.884 265.932C212.548 265.568 212.053 265.386 211.4 265.386C210.943 265.386 210.555 265.503 210.238 265.736C209.93 265.96 209.706 266.268 209.566 266.66H208.054V260.766H214.214V262.166Z" fill="#0A2333"/>
<mask id="path-17-inside-6_2027_74923" fill="white">
<path d="M0 308H392V376H0V308Z"/>
</mask>
<path d="M0 308V309H392V308V307H0V308Z" fill="#CDCBCB" mask="url(#path-17-inside-6_2027_74923)"/>
<mask id="path-19-inside-7_2027_74923" fill="white">
<path d="M0 350C0 335.641 11.6406 324 26 324H162C176.359 324 188 335.641 188 350C188 364.359 176.359 376 162 376H26C11.6406 376 0 364.359 0 350Z"/>
</mask>
<path d="M0 350M188 350M188 350M0 350M26 324V325H162V324V323H26V324ZM188 350M162 376V375H26V376V377H162V376ZM0 350M26 376V375C12.1929 375 1 363.807 1 350H0H-1C-1 364.912 11.0883 377 26 377V376ZM188 350H187C187 363.807 175.807 375 162 375V376V377C176.912 377 189 364.912 189 350H188ZM162 324V325C175.807 325 187 336.193 187 350H188H189C189 335.088 176.912 323 162 323V324ZM26 324V323C11.0883 323 -1 335.088 -1 350H0H1C1 336.193 12.1929 325 26 325V324Z" fill="#CDCBCB" mask="url(#path-19-inside-7_2027_74923)"/>
<path d="M56.5012 350.002C57.0238 350.095 57.4672 350.371 57.8312 350.828C58.1952 351.285 58.3772 351.803 58.3772 352.382C58.3772 352.877 58.2465 353.325 57.9852 353.726C57.7332 354.118 57.3645 354.431 56.8792 354.664C56.3938 354.888 55.8292 355 55.1852 355H51.2932V345.27H55.0032C55.6658 345.27 56.2352 345.382 56.7112 345.606C57.1872 345.83 57.5465 346.133 57.7892 346.516C58.0318 346.889 58.1532 347.309 58.1532 347.776C58.1532 348.336 58.0038 348.803 57.7052 349.176C57.4065 349.549 57.0052 349.825 56.5012 350.002ZM52.8892 349.358H54.8632C55.3858 349.358 55.7918 349.241 56.0812 349.008C56.3798 348.765 56.5292 348.42 56.5292 347.972C56.5292 347.533 56.3798 347.193 56.0812 346.95C55.7918 346.698 55.3858 346.572 54.8632 346.572H52.8892V349.358ZM55.0452 353.698C55.5865 353.698 56.0112 353.567 56.3192 353.306C56.6272 353.045 56.7812 352.681 56.7812 352.214C56.7812 351.738 56.6178 351.36 56.2912 351.08C55.9645 350.8 55.5305 350.66 54.9892 350.66H52.8892V353.698H55.0452ZM67.0975 347.286V355H65.5015V354.09C65.2495 354.407 64.9182 354.659 64.5075 354.846C64.1062 355.023 63.6769 355.112 63.2195 355.112C62.6129 355.112 62.0669 354.986 61.5815 354.734C61.1055 354.482 60.7275 354.109 60.4475 353.614C60.1769 353.119 60.0415 352.522 60.0415 351.822V347.286H61.6235V351.584C61.6235 352.275 61.7962 352.807 62.1415 353.18C62.4869 353.544 62.9582 353.726 63.5555 353.726C64.1529 353.726 64.6242 353.544 64.9695 353.18C65.3242 352.807 65.5015 352.275 65.5015 351.584V347.286H67.0975ZM71.0653 348.588V352.858C71.0653 353.147 71.1307 353.357 71.2613 353.488C71.4013 353.609 71.6347 353.67 71.9613 353.67H72.9413V355H71.6813C70.9627 355 70.412 354.832 70.0293 354.496C69.6467 354.16 69.4553 353.614 69.4553 352.858V348.588H68.5453V347.286H69.4553V345.368H71.0653V347.286H72.9413V348.588H71.0653ZM76.2743 348.588V352.858C76.2743 353.147 76.3396 353.357 76.4703 353.488C76.6103 353.609 76.8436 353.67 77.1703 353.67H78.1503V355H76.8903C76.1716 355 75.621 354.832 75.2383 354.496C74.8556 354.16 74.6643 353.614 74.6643 352.858V348.588H73.7543V347.286H74.6643V345.368H76.2743V347.286H78.1503V348.588H76.2743ZM82.9673 355.126C82.2393 355.126 81.5813 354.963 80.9933 354.636C80.4053 354.3 79.9433 353.833 79.6073 353.236C79.2713 352.629 79.1033 351.929 79.1033 351.136C79.1033 350.352 79.276 349.657 79.6213 349.05C79.9666 348.443 80.438 347.977 81.0353 347.65C81.6326 347.323 82.3 347.16 83.0373 347.16C83.7746 347.16 84.442 347.323 85.0393 347.65C85.6366 347.977 86.108 348.443 86.4533 349.05C86.7986 349.657 86.9713 350.352 86.9713 351.136C86.9713 351.92 86.794 352.615 86.4393 353.222C86.0846 353.829 85.5993 354.3 84.9833 354.636C84.3766 354.963 83.7046 355.126 82.9673 355.126ZM82.9673 353.74C83.378 353.74 83.7606 353.642 84.1153 353.446C84.4793 353.25 84.7733 352.956 84.9973 352.564C85.2213 352.172 85.3333 351.696 85.3333 351.136C85.3333 350.576 85.226 350.105 85.0113 349.722C84.7966 349.33 84.512 349.036 84.1573 348.84C83.8026 348.644 83.42 348.546 83.0093 348.546C82.5986 348.546 82.216 348.644 81.8613 348.84C81.516 349.036 81.2406 349.33 81.0353 349.722C80.83 350.105 80.7273 350.576 80.7273 351.136C80.7273 351.967 80.9373 352.611 81.3573 353.068C81.7866 353.516 82.3233 353.74 82.9673 353.74ZM92.441 347.16C93.0477 347.16 93.589 347.286 94.065 347.538C94.5504 347.79 94.9284 348.163 95.199 348.658C95.4697 349.153 95.605 349.75 95.605 350.45V355H94.023V350.688C94.023 349.997 93.8504 349.47 93.505 349.106C93.1597 348.733 92.6884 348.546 92.091 348.546C91.4937 348.546 91.0177 348.733 90.663 349.106C90.3177 349.47 90.145 349.997 90.145 350.688V355H88.549V347.286H90.145V348.168C90.4064 347.851 90.7377 347.603 91.139 347.426C91.5497 347.249 91.9837 347.16 92.441 347.16ZM102.874 353.712H106.164V355H101.278V345.27H102.874V353.712ZM106.966 351.108C106.966 350.333 107.125 349.647 107.442 349.05C107.769 348.453 108.208 347.991 108.758 347.664C109.318 347.328 109.934 347.16 110.606 347.16C111.213 347.16 111.74 347.281 112.188 347.524C112.646 347.757 113.01 348.051 113.28 348.406V347.286H114.89V355H113.28V353.852C113.01 354.216 112.641 354.519 112.174 354.762C111.708 355.005 111.176 355.126 110.578 355.126C109.916 355.126 109.309 354.958 108.758 354.622C108.208 354.277 107.769 353.801 107.442 353.194C107.125 352.578 106.966 351.883 106.966 351.108ZM113.28 351.136C113.28 350.604 113.168 350.142 112.944 349.75C112.73 349.358 112.445 349.059 112.09 348.854C111.736 348.649 111.353 348.546 110.942 348.546C110.532 348.546 110.149 348.649 109.794 348.854C109.44 349.05 109.15 349.344 108.926 349.736C108.712 350.119 108.604 350.576 108.604 351.108C108.604 351.64 108.712 352.107 108.926 352.508C109.15 352.909 109.44 353.217 109.794 353.432C110.158 353.637 110.541 353.74 110.942 353.74C111.353 353.74 111.736 353.637 112.09 353.432C112.445 353.227 112.73 352.928 112.944 352.536C113.168 352.135 113.28 351.668 113.28 351.136ZM118.583 348.434C118.853 348.061 119.222 347.757 119.689 347.524C120.165 347.281 120.692 347.16 121.271 347.16C121.952 347.16 122.568 347.323 123.119 347.65C123.669 347.977 124.103 348.443 124.421 349.05C124.738 349.647 124.897 350.333 124.897 351.108C124.897 351.883 124.738 352.578 124.421 353.194C124.103 353.801 123.665 354.277 123.105 354.622C122.554 354.958 121.943 355.126 121.271 355.126C120.673 355.126 120.141 355.009 119.675 354.776C119.217 354.543 118.853 354.244 118.583 353.88V355H116.987V344.64H118.583V348.434ZM123.273 351.108C123.273 350.576 123.161 350.119 122.937 349.736C122.722 349.344 122.433 349.05 122.069 348.854C121.714 348.649 121.331 348.546 120.921 348.546C120.519 348.546 120.137 348.649 119.773 348.854C119.418 349.059 119.129 349.358 118.905 349.75C118.69 350.142 118.583 350.604 118.583 351.136C118.583 351.668 118.69 352.135 118.905 352.536C119.129 352.928 119.418 353.227 119.773 353.432C120.137 353.637 120.519 353.74 120.921 353.74C121.331 353.74 121.714 353.637 122.069 353.432C122.433 353.217 122.722 352.909 122.937 352.508C123.161 352.107 123.273 351.64 123.273 351.108ZM133.545 350.954C133.545 351.243 133.526 351.505 133.489 351.738H127.595C127.641 352.354 127.87 352.849 128.281 353.222C128.691 353.595 129.195 353.782 129.793 353.782C130.651 353.782 131.258 353.423 131.613 352.704H133.335C133.101 353.413 132.677 353.997 132.061 354.454C131.454 354.902 130.698 355.126 129.793 355.126C129.055 355.126 128.393 354.963 127.805 354.636C127.226 354.3 126.769 353.833 126.433 353.236C126.106 352.629 125.943 351.929 125.943 351.136C125.943 350.343 126.101 349.647 126.419 349.05C126.745 348.443 127.198 347.977 127.777 347.65C128.365 347.323 129.037 347.16 129.793 347.16C130.521 347.16 131.169 347.319 131.739 347.636C132.308 347.953 132.751 348.401 133.069 348.98C133.386 349.549 133.545 350.207 133.545 350.954ZM131.879 350.45C131.869 349.862 131.659 349.391 131.249 349.036C130.838 348.681 130.329 348.504 129.723 348.504C129.172 348.504 128.701 348.681 128.309 349.036C127.917 349.381 127.683 349.853 127.609 350.45H131.879ZM136.711 344.64V355H135.115V344.64H136.711Z" fill="#91908F"/>
<path d="M204 350C204 335.641 215.641 324 230 324H366C380.359 324 392 335.641 392 350C392 364.359 380.359 376 366 376H230C215.641 376 204 364.359 204 350Z" fill="#0A2333"/>
<path d="M260.501 350.002C261.024 350.095 261.467 350.371 261.831 350.828C262.195 351.285 262.377 351.803 262.377 352.382C262.377 352.877 262.246 353.325 261.985 353.726C261.733 354.118 261.364 354.431 260.879 354.664C260.394 354.888 259.829 355 259.185 355H255.293V345.27H259.003C259.666 345.27 260.235 345.382 260.711 345.606C261.187 345.83 261.546 346.133 261.789 346.516C262.032 346.889 262.153 347.309 262.153 347.776C262.153 348.336 262.004 348.803 261.705 349.176C261.406 349.549 261.005 349.825 260.501 350.002ZM256.889 349.358H258.863C259.386 349.358 259.792 349.241 260.081 349.008C260.38 348.765 260.529 348.42 260.529 347.972C260.529 347.533 260.38 347.193 260.081 346.95C259.792 346.698 259.386 346.572 258.863 346.572H256.889V349.358ZM259.045 353.698C259.586 353.698 260.011 353.567 260.319 353.306C260.627 353.045 260.781 352.681 260.781 352.214C260.781 351.738 260.618 351.36 260.291 351.08C259.964 350.8 259.53 350.66 258.989 350.66H256.889V353.698H259.045ZM271.098 347.286V355H269.502V354.09C269.25 354.407 268.918 354.659 268.508 354.846C268.106 355.023 267.677 355.112 267.22 355.112C266.613 355.112 266.067 354.986 265.582 354.734C265.106 354.482 264.728 354.109 264.448 353.614C264.177 353.119 264.042 352.522 264.042 351.822V347.286H265.624V351.584C265.624 352.275 265.796 352.807 266.142 353.18C266.487 353.544 266.958 353.726 267.556 353.726C268.153 353.726 268.624 353.544 268.97 353.18C269.324 352.807 269.502 352.275 269.502 351.584V347.286H271.098ZM275.065 348.588V352.858C275.065 353.147 275.131 353.357 275.261 353.488C275.401 353.609 275.635 353.67 275.961 353.67H276.941V355H275.681C274.963 355 274.412 354.832 274.029 354.496C273.647 354.16 273.455 353.614 273.455 352.858V348.588H272.545V347.286H273.455V345.368H275.065V347.286H276.941V348.588H275.065ZM280.274 348.588V352.858C280.274 353.147 280.34 353.357 280.47 353.488C280.61 353.609 280.844 353.67 281.17 353.67H282.15V355H280.89C280.172 355 279.621 354.832 279.238 354.496C278.856 354.16 278.664 353.614 278.664 352.858V348.588H277.754V347.286H278.664V345.368H280.274V347.286H282.15V348.588H280.274ZM286.967 355.126C286.239 355.126 285.581 354.963 284.993 354.636C284.405 354.3 283.943 353.833 283.607 353.236C283.271 352.629 283.103 351.929 283.103 351.136C283.103 350.352 283.276 349.657 283.621 349.05C283.967 348.443 284.438 347.977 285.035 347.65C285.633 347.323 286.3 347.16 287.037 347.16C287.775 347.16 288.442 347.323 289.039 347.65C289.637 347.977 290.108 348.443 290.453 349.05C290.799 349.657 290.971 350.352 290.971 351.136C290.971 351.92 290.794 352.615 290.439 353.222C290.085 353.829 289.599 354.3 288.983 354.636C288.377 354.963 287.705 355.126 286.967 355.126ZM286.967 353.74C287.378 353.74 287.761 353.642 288.115 353.446C288.479 353.25 288.773 352.956 288.997 352.564C289.221 352.172 289.333 351.696 289.333 351.136C289.333 350.576 289.226 350.105 289.011 349.722C288.797 349.33 288.512 349.036 288.157 348.84C287.803 348.644 287.42 348.546 287.009 348.546C286.599 348.546 286.216 348.644 285.861 348.84C285.516 349.036 285.241 349.33 285.035 349.722C284.83 350.105 284.727 350.576 284.727 351.136C284.727 351.967 284.937 352.611 285.357 353.068C285.787 353.516 286.323 353.74 286.967 353.74ZM296.441 347.16C297.048 347.16 297.589 347.286 298.065 347.538C298.55 347.79 298.928 348.163 299.199 348.658C299.47 349.153 299.605 349.75 299.605 350.45V355H298.023V350.688C298.023 349.997 297.85 349.47 297.505 349.106C297.16 348.733 296.688 348.546 296.091 348.546C295.494 348.546 295.018 348.733 294.663 349.106C294.318 349.47 294.145 349.997 294.145 350.688V355H292.549V347.286H294.145V348.168C294.406 347.851 294.738 347.603 295.139 347.426C295.55 347.249 295.984 347.16 296.441 347.16ZM306.874 353.712H310.164V355H305.278V345.27H306.874V353.712ZM310.966 351.108C310.966 350.333 311.125 349.647 311.442 349.05C311.769 348.453 312.208 347.991 312.758 347.664C313.318 347.328 313.934 347.16 314.606 347.16C315.213 347.16 315.74 347.281 316.188 347.524C316.646 347.757 317.01 348.051 317.28 348.406V347.286H318.89V355H317.28V353.852C317.01 354.216 316.641 354.519 316.174 354.762C315.708 355.005 315.176 355.126 314.578 355.126C313.916 355.126 313.309 354.958 312.758 354.622C312.208 354.277 311.769 353.801 311.442 353.194C311.125 352.578 310.966 351.883 310.966 351.108ZM317.28 351.136C317.28 350.604 317.168 350.142 316.944 349.75C316.73 349.358 316.445 349.059 316.09 348.854C315.736 348.649 315.353 348.546 314.942 348.546C314.532 348.546 314.149 348.649 313.794 348.854C313.44 349.05 313.15 349.344 312.926 349.736C312.712 350.119 312.604 350.576 312.604 351.108C312.604 351.64 312.712 352.107 312.926 352.508C313.15 352.909 313.44 353.217 313.794 353.432C314.158 353.637 314.541 353.74 314.942 353.74C315.353 353.74 315.736 353.637 316.09 353.432C316.445 353.227 316.73 352.928 316.944 352.536C317.168 352.135 317.28 351.668 317.28 351.136ZM322.583 348.434C322.853 348.061 323.222 347.757 323.689 347.524C324.165 347.281 324.692 347.16 325.271 347.16C325.952 347.16 326.568 347.323 327.119 347.65C327.669 347.977 328.103 348.443 328.421 349.05C328.738 349.647 328.897 350.333 328.897 351.108C328.897 351.883 328.738 352.578 328.421 353.194C328.103 353.801 327.665 354.277 327.105 354.622C326.554 354.958 325.943 355.126 325.271 355.126C324.673 355.126 324.141 355.009 323.675 354.776C323.217 354.543 322.853 354.244 322.583 353.88V355H320.987V344.64H322.583V348.434ZM327.273 351.108C327.273 350.576 327.161 350.119 326.937 349.736C326.722 349.344 326.433 349.05 326.069 348.854C325.714 348.649 325.331 348.546 324.921 348.546C324.519 348.546 324.137 348.649 323.773 348.854C323.418 349.059 323.129 349.358 322.905 349.75C322.69 350.142 322.583 350.604 322.583 351.136C322.583 351.668 322.69 352.135 322.905 352.536C323.129 352.928 323.418 353.227 323.773 353.432C324.137 353.637 324.519 353.74 324.921 353.74C325.331 353.74 325.714 353.637 326.069 353.432C326.433 353.217 326.722 352.909 326.937 352.508C327.161 352.107 327.273 351.64 327.273 351.108ZM337.545 350.954C337.545 351.243 337.526 351.505 337.489 351.738H331.595C331.641 352.354 331.87 352.849 332.281 353.222C332.691 353.595 333.195 353.782 333.793 353.782C334.651 353.782 335.258 353.423 335.613 352.704H337.335C337.101 353.413 336.677 353.997 336.061 354.454C335.454 354.902 334.698 355.126 333.793 355.126C333.055 355.126 332.393 354.963 331.805 354.636C331.226 354.3 330.769 353.833 330.433 353.236C330.106 352.629 329.943 351.929 329.943 351.136C329.943 350.343 330.101 349.647 330.419 349.05C330.745 348.443 331.198 347.977 331.777 347.65C332.365 347.323 333.037 347.16 333.793 347.16C334.521 347.16 335.169 347.319 335.739 347.636C336.308 347.953 336.751 348.401 337.069 348.98C337.386 349.549 337.545 350.207 337.545 350.954ZM335.879 350.45C335.869 349.862 335.659 349.391 335.249 349.036C334.838 348.681 334.329 348.504 333.723 348.504C333.172 348.504 332.701 348.681 332.309 349.036C331.917 349.381 331.683 349.853 331.609 350.45H335.879ZM340.711 344.64V355H339.115V344.64H340.711Z" fill="white"/>
</svg>
