<svg width="392" height="256" viewBox="0 0 392 256" fill="none" xmlns="http://www.w3.org/2000/svg">
<mask id="path-2-inside-1_2027_75115" fill="white">
<path d="M0 8C0 3.58172 3.58172 0 8 0H384C388.418 0 392 3.58172 392 8V44C392 48.4183 388.418 52 384 52H8C3.58172 52 0 48.4183 0 44V8Z"/>
</mask>
<path d="M0 8C0 3.58172 3.58172 0 8 0H384C388.418 0 392 3.58172 392 8V44C392 48.4183 388.418 52 384 52H8C3.58172 52 0 48.4183 0 44V8Z" fill="#FAF8F7"/>
<path d="M8 0V1H384V0V-1H8V0ZM392 8H391V44H392H393V8H392ZM384 52V51H8V52V53H384V52ZM0 44H1V8H0H-1V44H0ZM8 52V51C4.134 51 1 47.866 1 44H0H-1C-1 48.9706 3.02943 53 8 53V52ZM392 44H391C391 47.866 387.866 51 384 51V52V53C388.971 53 393 48.9706 393 44H392ZM384 0V1C387.866 1 391 4.13401 391 8H392H393C393 3.02944 388.971 -1 384 -1V0ZM8 0V-1C3.02944 -1 -1 3.02944 -1 8H0H1C1 4.13401 4.13401 1 8 1V0Z" fill="#CDCBCB" mask="url(#path-2-inside-1_2027_75115)"/>
<path d="M177.796 25.834C177.796 24.2287 178.057 22.978 178.58 22.082C179.102 21.1767 180.017 20.724 181.324 20.724C182.621 20.724 183.531 21.1767 184.054 22.082C184.576 22.978 184.838 24.2287 184.838 25.834C184.838 27.4673 184.576 28.7367 184.054 29.642C183.531 30.5473 182.621 31 181.324 31C180.017 31 179.102 30.5473 178.58 29.642C178.057 28.7367 177.796 27.4673 177.796 25.834ZM183.578 25.834C183.578 25.022 183.522 24.336 183.41 23.776C183.307 23.2067 183.088 22.7493 182.752 22.404C182.425 22.0587 181.949 21.886 181.324 21.886C180.689 21.886 180.204 22.0587 179.868 22.404C179.541 22.7493 179.322 23.2067 179.21 23.776C179.107 24.336 179.056 25.022 179.056 25.834C179.056 26.674 179.107 27.3787 179.21 27.948C179.322 28.5173 179.541 28.9747 179.868 29.32C180.204 29.6653 180.689 29.838 181.324 29.838C181.949 29.838 182.425 29.6653 182.752 29.32C183.088 28.9747 183.307 28.5173 183.41 27.948C183.522 27.3787 183.578 26.674 183.578 25.834ZM186.587 25.834C186.587 24.2287 186.848 22.978 187.371 22.082C187.893 21.1767 188.808 20.724 190.115 20.724C191.412 20.724 192.322 21.1767 192.845 22.082C193.367 22.978 193.629 24.2287 193.629 25.834C193.629 27.4673 193.367 28.7367 192.845 29.642C192.322 30.5473 191.412 31 190.115 31C188.808 31 187.893 30.5473 187.371 29.642C186.848 28.7367 186.587 27.4673 186.587 25.834ZM192.369 25.834C192.369 25.022 192.313 24.336 192.201 23.776C192.098 23.2067 191.879 22.7493 191.543 22.404C191.216 22.0587 190.74 21.886 190.115 21.886C189.48 21.886 188.995 22.0587 188.659 22.404C188.332 22.7493 188.113 23.2067 188.001 23.776C187.898 24.336 187.847 25.022 187.847 25.834C187.847 26.674 187.898 27.3787 188.001 27.948C188.113 28.5173 188.332 28.9747 188.659 29.32C188.995 29.6653 189.48 29.838 190.115 29.838C190.74 29.838 191.216 29.6653 191.543 29.32C191.879 28.9747 192.098 28.5173 192.201 27.948C192.313 27.3787 192.369 26.674 192.369 25.834ZM195.994 31.084C195.751 31.084 195.546 31 195.378 30.832C195.21 30.664 195.126 30.4587 195.126 30.216C195.126 29.9733 195.21 29.768 195.378 29.6C195.546 29.432 195.751 29.348 195.994 29.348C196.227 29.348 196.423 29.432 196.582 29.6C196.75 29.768 196.834 29.9733 196.834 30.216C196.834 30.4587 196.75 30.664 196.582 30.832C196.423 31 196.227 31.084 195.994 31.084ZM195.994 25.092C195.751 25.092 195.546 25.008 195.378 24.84C195.21 24.672 195.126 24.4667 195.126 24.224C195.126 23.9813 195.21 23.776 195.378 23.608C195.546 23.44 195.751 23.356 195.994 23.356C196.227 23.356 196.423 23.44 196.582 23.608C196.75 23.776 196.834 23.9813 196.834 24.224C196.834 24.4667 196.75 24.672 196.582 24.84C196.423 25.008 196.227 25.092 195.994 25.092ZM198.358 25.834C198.358 24.2287 198.62 22.978 199.142 22.082C199.665 21.1767 200.58 20.724 201.886 20.724C203.184 20.724 204.094 21.1767 204.616 22.082C205.139 22.978 205.4 24.2287 205.4 25.834C205.4 27.4673 205.139 28.7367 204.616 29.642C204.094 30.5473 203.184 31 201.886 31C200.58 31 199.665 30.5473 199.142 29.642C198.62 28.7367 198.358 27.4673 198.358 25.834ZM204.14 25.834C204.14 25.022 204.084 24.336 203.972 23.776C203.87 23.2067 203.65 22.7493 203.314 22.404C202.988 22.0587 202.512 21.886 201.886 21.886C201.252 21.886 200.766 22.0587 200.43 22.404C200.104 22.7493 199.884 23.2067 199.772 23.776C199.67 24.336 199.618 25.022 199.618 25.834C199.618 26.674 199.67 27.3787 199.772 27.948C199.884 28.5173 200.104 28.9747 200.43 29.32C200.766 29.6653 201.252 29.838 201.886 29.838C202.512 29.838 202.988 29.6653 203.314 29.32C203.65 28.9747 203.87 28.5173 203.972 27.948C204.084 27.3787 204.14 26.674 204.14 25.834ZM207.149 25.834C207.149 24.2287 207.411 22.978 207.933 22.082C208.456 21.1767 209.371 20.724 210.677 20.724C211.975 20.724 212.885 21.1767 213.407 22.082C213.93 22.978 214.191 24.2287 214.191 25.834C214.191 27.4673 213.93 28.7367 213.407 29.642C212.885 30.5473 211.975 31 210.677 31C209.371 31 208.456 30.5473 207.933 29.642C207.411 28.7367 207.149 27.4673 207.149 25.834ZM212.931 25.834C212.931 25.022 212.875 24.336 212.763 23.776C212.661 23.2067 212.441 22.7493 212.105 22.404C211.779 22.0587 211.303 21.886 210.677 21.886C210.043 21.886 209.557 22.0587 209.221 22.404C208.895 22.7493 208.675 23.2067 208.563 23.776C208.461 24.336 208.409 25.022 208.409 25.834C208.409 26.674 208.461 27.3787 208.563 27.948C208.675 28.5173 208.895 28.9747 209.221 29.32C209.557 29.6653 210.043 29.838 210.677 29.838C211.303 29.838 211.779 29.6653 212.105 29.32C212.441 28.9747 212.661 28.5173 212.763 27.948C212.875 27.3787 212.931 26.674 212.931 25.834Z" fill="#91908F"/>
<path d="M176.928 26.408H215.073V27.108H176.928V26.408Z" fill="#91908F"/>
<mask id="path-5-inside-2_2027_75115" fill="white">
<path d="M0 68C0 63.5817 3.58172 60 8 60H384C388.418 60 392 63.5817 392 68V104C392 108.418 388.418 112 384 112H8C3.58172 112 0 108.418 0 104V68Z"/>
</mask>
<path d="M0 68C0 63.5817 3.58172 60 8 60H384C388.418 60 392 63.5817 392 68V104C392 108.418 388.418 112 384 112H8C3.58172 112 0 108.418 0 104V68Z" fill="#FAF8F7"/>
<path d="M8 60V61H384V60V59H8V60ZM392 68H391V104H392H393V68H392ZM384 112V111H8V112V113H384V112ZM0 104H1V68H0H-1V104H0ZM8 112V111C4.134 111 1 107.866 1 104H0H-1C-1 108.971 3.02943 113 8 113V112ZM392 104H391C391 107.866 387.866 111 384 111V112V113C388.971 113 393 108.971 393 104H392ZM384 60V61C387.866 61 391 64.134 391 68H392H393C393 63.0294 388.971 59 384 59V60ZM8 60V59C3.02944 59 -1 63.0294 -1 68H0H1C1 64.134 4.13401 61 8 61V60Z" fill="#0A2333" mask="url(#path-5-inside-2_2027_75115)"/>
<path d="M177.105 85.764C177.105 84.1493 177.375 82.8893 177.917 81.984C178.467 81.0693 179.41 80.612 180.745 80.612C182.079 80.612 183.017 81.0693 183.559 81.984C184.109 82.8893 184.385 84.1493 184.385 85.764C184.385 87.3973 184.109 88.676 183.559 89.6C183.017 90.5147 182.079 90.972 180.745 90.972C179.41 90.972 178.467 90.5147 177.917 89.6C177.375 88.676 177.105 87.3973 177.105 85.764ZM182.817 85.764C182.817 85.008 182.765 84.3687 182.663 83.846C182.569 83.3233 182.373 82.8987 182.075 82.572C181.776 82.236 181.333 82.068 180.745 82.068C180.157 82.068 179.713 82.236 179.415 82.572C179.116 82.8987 178.915 83.3233 178.813 83.846C178.719 84.3687 178.673 85.008 178.673 85.764C178.673 86.548 178.719 87.206 178.813 87.738C178.906 88.27 179.102 88.6993 179.401 89.026C179.709 89.3527 180.157 89.516 180.745 89.516C181.333 89.516 181.776 89.3527 182.075 89.026C182.383 88.6993 182.583 88.27 182.677 87.738C182.77 87.206 182.817 86.548 182.817 85.764ZM185.877 88.872V87.668L190.581 80.92H192.513V87.486H193.815V88.872H192.513V91H190.945V88.872H185.877ZM191.015 82.544L187.711 87.486H191.015V82.544ZM195.992 91.098C195.703 91.098 195.46 91 195.264 90.804C195.068 90.608 194.97 90.3653 194.97 90.076C194.97 89.7867 195.068 89.544 195.264 89.348C195.46 89.152 195.703 89.054 195.992 89.054C196.272 89.054 196.51 89.152 196.706 89.348C196.902 89.544 197 89.7867 197 90.076C197 90.3653 196.902 90.608 196.706 90.804C196.51 91 196.272 91.098 195.992 91.098ZM195.992 85.218C195.703 85.218 195.46 85.12 195.264 84.924C195.068 84.728 194.97 84.4853 194.97 84.196C194.97 83.9067 195.068 83.664 195.264 83.468C195.46 83.272 195.703 83.174 195.992 83.174C196.272 83.174 196.51 83.272 196.706 83.468C196.902 83.664 197 83.9067 197 84.196C197 84.4853 196.902 84.728 196.706 84.924C196.51 85.12 196.272 85.218 195.992 85.218ZM198.373 88.872V87.668L203.077 80.92H205.009V87.486H206.311V88.872H205.009V91H203.441V88.872H198.373ZM203.511 82.544L200.207 87.486H203.511V82.544ZM214.214 82.166H209.524V84.952C209.72 84.6907 210.009 84.4713 210.392 84.294C210.784 84.1167 211.199 84.028 211.638 84.028C212.422 84.028 213.057 84.196 213.542 84.532C214.037 84.868 214.387 85.2927 214.592 85.806C214.807 86.3193 214.914 86.8607 214.914 87.43C214.914 88.1207 214.779 88.7367 214.508 89.278C214.247 89.81 213.85 90.23 213.318 90.538C212.795 90.846 212.151 91 211.386 91C210.369 91 209.552 90.748 208.936 90.244C208.32 89.74 207.951 89.0727 207.83 88.242H209.384C209.487 88.6807 209.715 89.0307 210.07 89.292C210.425 89.544 210.868 89.67 211.4 89.67C212.063 89.67 212.557 89.4693 212.884 89.068C213.22 88.6667 213.388 88.1347 213.388 87.472C213.388 86.8 213.22 86.2867 212.884 85.932C212.548 85.568 212.053 85.386 211.4 85.386C210.943 85.386 210.555 85.5027 210.238 85.736C209.93 85.96 209.706 86.268 209.566 86.66H208.054V80.766H214.214V82.166Z" fill="#0A2333"/>
<mask id="path-8-inside-3_2027_75115" fill="white">
<path d="M0 128C0 123.582 3.58172 120 8 120H384C388.418 120 392 123.582 392 128V164C392 168.418 388.418 172 384 172H8C3.58172 172 0 168.418 0 164V128Z"/>
</mask>
<path d="M0 128C0 123.582 3.58172 120 8 120H384C388.418 120 392 123.582 392 128V164C392 168.418 388.418 172 384 172H8C3.58172 172 0 168.418 0 164V128Z" fill="white"/>
<path d="M8 120V121H384V120V119H8V120ZM392 128H391V164H392H393V128H392ZM384 172V171H8V172V173H384V172ZM0 164H1V128H0H-1V164H0ZM8 172V171C4.134 171 1 167.866 1 164H0H-1C-1 168.971 3.02943 173 8 173V172ZM392 164H391C391 167.866 387.866 171 384 171V172V173C388.971 173 393 168.971 393 164H392ZM384 120V121C387.866 121 391 124.134 391 128H392H393C393 123.029 388.971 119 384 119V120ZM8 120V119C3.02944 119 -1 123.029 -1 128H0H1C1 124.134 4.13401 121 8 121V120Z" fill="#CDCBCB" mask="url(#path-8-inside-3_2027_75115)"/>
<path d="M178.165 145.834C178.165 144.229 178.426 142.978 178.949 142.082C179.472 141.177 180.386 140.724 181.693 140.724C182.99 140.724 183.9 141.177 184.423 142.082C184.946 142.978 185.207 144.229 185.207 145.834C185.207 147.467 184.946 148.737 184.423 149.642C183.9 150.547 182.99 151 181.693 151C180.386 151 179.472 150.547 178.949 149.642C178.426 148.737 178.165 147.467 178.165 145.834ZM183.947 145.834C183.947 145.022 183.891 144.336 183.779 143.776C183.676 143.207 183.457 142.749 183.121 142.404C182.794 142.059 182.318 141.886 181.693 141.886C181.058 141.886 180.573 142.059 180.237 142.404C179.91 142.749 179.691 143.207 179.579 143.776C179.476 144.336 179.425 145.022 179.425 145.834C179.425 146.674 179.476 147.379 179.579 147.948C179.691 148.517 179.91 148.975 180.237 149.32C180.573 149.665 181.058 149.838 181.693 149.838C182.318 149.838 182.794 149.665 183.121 149.32C183.457 148.975 183.676 148.517 183.779 147.948C183.891 147.379 183.947 146.674 183.947 145.834ZM186.802 149.978C187.987 149.026 188.916 148.247 189.588 147.64C190.26 147.024 190.825 146.385 191.282 145.722C191.749 145.05 191.982 144.392 191.982 143.748C191.982 143.141 191.833 142.665 191.534 142.32C191.245 141.965 190.773 141.788 190.12 141.788C189.485 141.788 188.991 141.989 188.636 142.39C188.291 142.782 188.104 143.309 188.076 143.972H186.844C186.881 142.927 187.199 142.119 187.796 141.55C188.393 140.981 189.163 140.696 190.106 140.696C191.067 140.696 191.828 140.962 192.388 141.494C192.957 142.026 193.242 142.759 193.242 143.692C193.242 144.467 193.009 145.223 192.542 145.96C192.085 146.688 191.562 147.332 190.974 147.892C190.386 148.443 189.635 149.087 188.72 149.824H193.536V150.888H186.802V149.978ZM195.625 151.084C195.382 151.084 195.177 151 195.009 150.832C194.841 150.664 194.757 150.459 194.757 150.216C194.757 149.973 194.841 149.768 195.009 149.6C195.177 149.432 195.382 149.348 195.625 149.348C195.858 149.348 196.054 149.432 196.213 149.6C196.381 149.768 196.465 149.973 196.465 150.216C196.465 150.459 196.381 150.664 196.213 150.832C196.054 151 195.858 151.084 195.625 151.084ZM195.625 145.092C195.382 145.092 195.177 145.008 195.009 144.84C194.841 144.672 194.757 144.467 194.757 144.224C194.757 143.981 194.841 143.776 195.009 143.608C195.177 143.44 195.382 143.356 195.625 143.356C195.858 143.356 196.054 143.44 196.213 143.608C196.381 143.776 196.465 143.981 196.465 144.224C196.465 144.467 196.381 144.672 196.213 144.84C196.054 145.008 195.858 145.092 195.625 145.092ZM197.989 145.834C197.989 144.229 198.25 142.978 198.773 142.082C199.296 141.177 200.21 140.724 201.517 140.724C202.814 140.724 203.724 141.177 204.247 142.082C204.77 142.978 205.031 144.229 205.031 145.834C205.031 147.467 204.77 148.737 204.247 149.642C203.724 150.547 202.814 151 201.517 151C200.21 151 199.296 150.547 198.773 149.642C198.25 148.737 197.989 147.467 197.989 145.834ZM203.771 145.834C203.771 145.022 203.715 144.336 203.603 143.776C203.5 143.207 203.281 142.749 202.945 142.404C202.618 142.059 202.142 141.886 201.517 141.886C200.882 141.886 200.397 142.059 200.061 142.404C199.734 142.749 199.515 143.207 199.403 143.776C199.3 144.336 199.249 145.022 199.249 145.834C199.249 146.674 199.3 147.379 199.403 147.948C199.515 148.517 199.734 148.975 200.061 149.32C200.397 149.665 200.882 149.838 201.517 149.838C202.142 149.838 202.618 149.665 202.945 149.32C203.281 148.975 203.5 148.517 203.603 147.948C203.715 147.379 203.771 146.674 203.771 145.834ZM206.78 145.834C206.78 144.229 207.041 142.978 207.564 142.082C208.087 141.177 209.001 140.724 210.308 140.724C211.605 140.724 212.515 141.177 213.038 142.082C213.561 142.978 213.822 144.229 213.822 145.834C213.822 147.467 213.561 148.737 213.038 149.642C212.515 150.547 211.605 151 210.308 151C209.001 151 208.087 150.547 207.564 149.642C207.041 148.737 206.78 147.467 206.78 145.834ZM212.562 145.834C212.562 145.022 212.506 144.336 212.394 143.776C212.291 143.207 212.072 142.749 211.736 142.404C211.409 142.059 210.933 141.886 210.308 141.886C209.673 141.886 209.188 142.059 208.852 142.404C208.525 142.749 208.306 143.207 208.194 143.776C208.091 144.336 208.04 145.022 208.04 145.834C208.04 146.674 208.091 147.379 208.194 147.948C208.306 148.517 208.525 148.975 208.852 149.32C209.188 149.665 209.673 149.838 210.308 149.838C210.933 149.838 211.409 149.665 211.736 149.32C212.072 148.975 212.291 148.517 212.394 147.948C212.506 147.379 212.562 146.674 212.562 145.834Z" fill="#4B4A4A"/>
<mask id="path-11-inside-4_2027_75115" fill="white">
<path d="M0 188H392V256H0V188Z"/>
</mask>
<path d="M0 188V189H392V188V187H0V188Z" fill="#CDCBCB" mask="url(#path-11-inside-4_2027_75115)"/>
<mask id="path-13-inside-5_2027_75115" fill="white">
<path d="M0 230C0 215.641 11.6406 204 26 204H162C176.359 204 188 215.641 188 230C188 244.359 176.359 256 162 256H26C11.6406 256 0 244.359 0 230Z"/>
</mask>
<path d="M0 230M188 230M188 230M0 230M26 204V205H162V204V203H26V204ZM188 230M162 256V255H26V256V257H162V256ZM0 230M26 256V255C12.1929 255 1 243.807 1 230H0H-1C-1 244.912 11.0883 257 26 257V256ZM188 230H187C187 243.807 175.807 255 162 255V256V257C176.912 257 189 244.912 189 230H188ZM162 204V205C175.807 205 187 216.193 187 230H188H189C189 215.088 176.912 203 162 203V204ZM26 204V203C11.0883 203 -1 215.088 -1 230H0H1C1 216.193 12.1929 205 26 205V204Z" fill="#CDCBCB" mask="url(#path-13-inside-5_2027_75115)"/>
<path d="M56.5012 230.002C57.0238 230.095 57.4672 230.371 57.8312 230.828C58.1952 231.285 58.3772 231.803 58.3772 232.382C58.3772 232.877 58.2465 233.325 57.9852 233.726C57.7332 234.118 57.3645 234.431 56.8792 234.664C56.3938 234.888 55.8292 235 55.1852 235H51.2932V225.27H55.0032C55.6658 225.27 56.2352 225.382 56.7112 225.606C57.1872 225.83 57.5465 226.133 57.7892 226.516C58.0318 226.889 58.1532 227.309 58.1532 227.776C58.1532 228.336 58.0038 228.803 57.7052 229.176C57.4065 229.549 57.0052 229.825 56.5012 230.002ZM52.8892 229.358H54.8632C55.3858 229.358 55.7918 229.241 56.0812 229.008C56.3798 228.765 56.5292 228.42 56.5292 227.972C56.5292 227.533 56.3798 227.193 56.0812 226.95C55.7918 226.698 55.3858 226.572 54.8632 226.572H52.8892V229.358ZM55.0452 233.698C55.5865 233.698 56.0112 233.567 56.3192 233.306C56.6272 233.045 56.7812 232.681 56.7812 232.214C56.7812 231.738 56.6178 231.36 56.2912 231.08C55.9645 230.8 55.5305 230.66 54.9892 230.66H52.8892V233.698H55.0452ZM67.0975 227.286V235H65.5015V234.09C65.2495 234.407 64.9182 234.659 64.5075 234.846C64.1062 235.023 63.6769 235.112 63.2195 235.112C62.6129 235.112 62.0669 234.986 61.5815 234.734C61.1055 234.482 60.7275 234.109 60.4475 233.614C60.1769 233.119 60.0415 232.522 60.0415 231.822V227.286H61.6235V231.584C61.6235 232.275 61.7962 232.807 62.1415 233.18C62.4869 233.544 62.9582 233.726 63.5555 233.726C64.1529 233.726 64.6242 233.544 64.9695 233.18C65.3242 232.807 65.5015 232.275 65.5015 231.584V227.286H67.0975ZM71.0653 228.588V232.858C71.0653 233.147 71.1307 233.357 71.2613 233.488C71.4013 233.609 71.6347 233.67 71.9613 233.67H72.9413V235H71.6813C70.9627 235 70.412 234.832 70.0293 234.496C69.6467 234.16 69.4553 233.614 69.4553 232.858V228.588H68.5453V227.286H69.4553V225.368H71.0653V227.286H72.9413V228.588H71.0653ZM76.2743 228.588V232.858C76.2743 233.147 76.3396 233.357 76.4703 233.488C76.6103 233.609 76.8436 233.67 77.1703 233.67H78.1503V235H76.8903C76.1716 235 75.621 234.832 75.2383 234.496C74.8556 234.16 74.6643 233.614 74.6643 232.858V228.588H73.7543V227.286H74.6643V225.368H76.2743V227.286H78.1503V228.588H76.2743ZM82.9673 235.126C82.2393 235.126 81.5813 234.963 80.9933 234.636C80.4053 234.3 79.9433 233.833 79.6073 233.236C79.2713 232.629 79.1033 231.929 79.1033 231.136C79.1033 230.352 79.276 229.657 79.6213 229.05C79.9666 228.443 80.438 227.977 81.0353 227.65C81.6326 227.323 82.3 227.16 83.0373 227.16C83.7746 227.16 84.442 227.323 85.0393 227.65C85.6366 227.977 86.108 228.443 86.4533 229.05C86.7986 229.657 86.9713 230.352 86.9713 231.136C86.9713 231.92 86.794 232.615 86.4393 233.222C86.0846 233.829 85.5993 234.3 84.9833 234.636C84.3766 234.963 83.7046 235.126 82.9673 235.126ZM82.9673 233.74C83.378 233.74 83.7606 233.642 84.1153 233.446C84.4793 233.25 84.7733 232.956 84.9973 232.564C85.2213 232.172 85.3333 231.696 85.3333 231.136C85.3333 230.576 85.226 230.105 85.0113 229.722C84.7966 229.33 84.512 229.036 84.1573 228.84C83.8026 228.644 83.42 228.546 83.0093 228.546C82.5986 228.546 82.216 228.644 81.8613 228.84C81.516 229.036 81.2406 229.33 81.0353 229.722C80.83 230.105 80.7273 230.576 80.7273 231.136C80.7273 231.967 80.9373 232.611 81.3573 233.068C81.7866 233.516 82.3233 233.74 82.9673 233.74ZM92.441 227.16C93.0477 227.16 93.589 227.286 94.065 227.538C94.5504 227.79 94.9284 228.163 95.199 228.658C95.4697 229.153 95.605 229.75 95.605 230.45V235H94.023V230.688C94.023 229.997 93.8504 229.47 93.505 229.106C93.1597 228.733 92.6884 228.546 92.091 228.546C91.4937 228.546 91.0177 228.733 90.663 229.106C90.3177 229.47 90.145 229.997 90.145 230.688V235H88.549V227.286H90.145V228.168C90.4064 227.851 90.7377 227.603 91.139 227.426C91.5497 227.249 91.9837 227.16 92.441 227.16ZM102.874 233.712H106.164V235H101.278V225.27H102.874V233.712ZM106.966 231.108C106.966 230.333 107.125 229.647 107.442 229.05C107.769 228.453 108.208 227.991 108.758 227.664C109.318 227.328 109.934 227.16 110.606 227.16C111.213 227.16 111.74 227.281 112.188 227.524C112.646 227.757 113.01 228.051 113.28 228.406V227.286H114.89V235H113.28V233.852C113.01 234.216 112.641 234.519 112.174 234.762C111.708 235.005 111.176 235.126 110.578 235.126C109.916 235.126 109.309 234.958 108.758 234.622C108.208 234.277 107.769 233.801 107.442 233.194C107.125 232.578 106.966 231.883 106.966 231.108ZM113.28 231.136C113.28 230.604 113.168 230.142 112.944 229.75C112.73 229.358 112.445 229.059 112.09 228.854C111.736 228.649 111.353 228.546 110.942 228.546C110.532 228.546 110.149 228.649 109.794 228.854C109.44 229.05 109.15 229.344 108.926 229.736C108.712 230.119 108.604 230.576 108.604 231.108C108.604 231.64 108.712 232.107 108.926 232.508C109.15 232.909 109.44 233.217 109.794 233.432C110.158 233.637 110.541 233.74 110.942 233.74C111.353 233.74 111.736 233.637 112.09 233.432C112.445 233.227 112.73 232.928 112.944 232.536C113.168 232.135 113.28 231.668 113.28 231.136ZM118.583 228.434C118.853 228.061 119.222 227.757 119.689 227.524C120.165 227.281 120.692 227.16 121.271 227.16C121.952 227.16 122.568 227.323 123.119 227.65C123.669 227.977 124.103 228.443 124.421 229.05C124.738 229.647 124.897 230.333 124.897 231.108C124.897 231.883 124.738 232.578 124.421 233.194C124.103 233.801 123.665 234.277 123.105 234.622C122.554 234.958 121.943 235.126 121.271 235.126C120.673 235.126 120.141 235.009 119.675 234.776C119.217 234.543 118.853 234.244 118.583 233.88V235H116.987V224.64H118.583V228.434ZM123.273 231.108C123.273 230.576 123.161 230.119 122.937 229.736C122.722 229.344 122.433 229.05 122.069 228.854C121.714 228.649 121.331 228.546 120.921 228.546C120.519 228.546 120.137 228.649 119.773 228.854C119.418 229.059 119.129 229.358 118.905 229.75C118.69 230.142 118.583 230.604 118.583 231.136C118.583 231.668 118.69 232.135 118.905 232.536C119.129 232.928 119.418 233.227 119.773 233.432C120.137 233.637 120.519 233.74 120.921 233.74C121.331 233.74 121.714 233.637 122.069 233.432C122.433 233.217 122.722 232.909 122.937 232.508C123.161 232.107 123.273 231.64 123.273 231.108ZM133.545 230.954C133.545 231.243 133.526 231.505 133.489 231.738H127.595C127.641 232.354 127.87 232.849 128.281 233.222C128.691 233.595 129.195 233.782 129.793 233.782C130.651 233.782 131.258 233.423 131.613 232.704H133.335C133.101 233.413 132.677 233.997 132.061 234.454C131.454 234.902 130.698 235.126 129.793 235.126C129.055 235.126 128.393 234.963 127.805 234.636C127.226 234.3 126.769 233.833 126.433 233.236C126.106 232.629 125.943 231.929 125.943 231.136C125.943 230.343 126.101 229.647 126.419 229.05C126.745 228.443 127.198 227.977 127.777 227.65C128.365 227.323 129.037 227.16 129.793 227.16C130.521 227.16 131.169 227.319 131.739 227.636C132.308 227.953 132.751 228.401 133.069 228.98C133.386 229.549 133.545 230.207 133.545 230.954ZM131.879 230.45C131.869 229.862 131.659 229.391 131.249 229.036C130.838 228.681 130.329 228.504 129.723 228.504C129.172 228.504 128.701 228.681 128.309 229.036C127.917 229.381 127.683 229.853 127.609 230.45H131.879ZM136.711 224.64V235H135.115V224.64H136.711Z" fill="#91908F"/>
<path d="M204 230C204 215.641 215.641 204 230 204H366C380.359 204 392 215.641 392 230C392 244.359 380.359 256 366 256H230C215.641 256 204 244.359 204 230Z" fill="#0A2333"/>
<path d="M260.501 230.002C261.024 230.095 261.467 230.371 261.831 230.828C262.195 231.285 262.377 231.803 262.377 232.382C262.377 232.877 262.246 233.325 261.985 233.726C261.733 234.118 261.364 234.431 260.879 234.664C260.394 234.888 259.829 235 259.185 235H255.293V225.27H259.003C259.666 225.27 260.235 225.382 260.711 225.606C261.187 225.83 261.546 226.133 261.789 226.516C262.032 226.889 262.153 227.309 262.153 227.776C262.153 228.336 262.004 228.803 261.705 229.176C261.406 229.549 261.005 229.825 260.501 230.002ZM256.889 229.358H258.863C259.386 229.358 259.792 229.241 260.081 229.008C260.38 228.765 260.529 228.42 260.529 227.972C260.529 227.533 260.38 227.193 260.081 226.95C259.792 226.698 259.386 226.572 258.863 226.572H256.889V229.358ZM259.045 233.698C259.586 233.698 260.011 233.567 260.319 233.306C260.627 233.045 260.781 232.681 260.781 232.214C260.781 231.738 260.618 231.36 260.291 231.08C259.964 230.8 259.53 230.66 258.989 230.66H256.889V233.698H259.045ZM271.098 227.286V235H269.502V234.09C269.25 234.407 268.918 234.659 268.508 234.846C268.106 235.023 267.677 235.112 267.22 235.112C266.613 235.112 266.067 234.986 265.582 234.734C265.106 234.482 264.728 234.109 264.448 233.614C264.177 233.119 264.042 232.522 264.042 231.822V227.286H265.624V231.584C265.624 232.275 265.796 232.807 266.142 233.18C266.487 233.544 266.958 233.726 267.556 233.726C268.153 233.726 268.624 233.544 268.97 233.18C269.324 232.807 269.502 232.275 269.502 231.584V227.286H271.098ZM275.065 228.588V232.858C275.065 233.147 275.131 233.357 275.261 233.488C275.401 233.609 275.635 233.67 275.961 233.67H276.941V235H275.681C274.963 235 274.412 234.832 274.029 234.496C273.647 234.16 273.455 233.614 273.455 232.858V228.588H272.545V227.286H273.455V225.368H275.065V227.286H276.941V228.588H275.065ZM280.274 228.588V232.858C280.274 233.147 280.34 233.357 280.47 233.488C280.61 233.609 280.844 233.67 281.17 233.67H282.15V235H280.89C280.172 235 279.621 234.832 279.238 234.496C278.856 234.16 278.664 233.614 278.664 232.858V228.588H277.754V227.286H278.664V225.368H280.274V227.286H282.15V228.588H280.274ZM286.967 235.126C286.239 235.126 285.581 234.963 284.993 234.636C284.405 234.3 283.943 233.833 283.607 233.236C283.271 232.629 283.103 231.929 283.103 231.136C283.103 230.352 283.276 229.657 283.621 229.05C283.967 228.443 284.438 227.977 285.035 227.65C285.633 227.323 286.3 227.16 287.037 227.16C287.775 227.16 288.442 227.323 289.039 227.65C289.637 227.977 290.108 228.443 290.453 229.05C290.799 229.657 290.971 230.352 290.971 231.136C290.971 231.92 290.794 232.615 290.439 233.222C290.085 233.829 289.599 234.3 288.983 234.636C288.377 234.963 287.705 235.126 286.967 235.126ZM286.967 233.74C287.378 233.74 287.761 233.642 288.115 233.446C288.479 233.25 288.773 232.956 288.997 232.564C289.221 232.172 289.333 231.696 289.333 231.136C289.333 230.576 289.226 230.105 289.011 229.722C288.797 229.33 288.512 229.036 288.157 228.84C287.803 228.644 287.42 228.546 287.009 228.546C286.599 228.546 286.216 228.644 285.861 228.84C285.516 229.036 285.241 229.33 285.035 229.722C284.83 230.105 284.727 230.576 284.727 231.136C284.727 231.967 284.937 232.611 285.357 233.068C285.787 233.516 286.323 233.74 286.967 233.74ZM296.441 227.16C297.048 227.16 297.589 227.286 298.065 227.538C298.55 227.79 298.928 228.163 299.199 228.658C299.47 229.153 299.605 229.75 299.605 230.45V235H298.023V230.688C298.023 229.997 297.85 229.47 297.505 229.106C297.16 228.733 296.688 228.546 296.091 228.546C295.494 228.546 295.018 228.733 294.663 229.106C294.318 229.47 294.145 229.997 294.145 230.688V235H292.549V227.286H294.145V228.168C294.406 227.851 294.738 227.603 295.139 227.426C295.55 227.249 295.984 227.16 296.441 227.16ZM306.874 233.712H310.164V235H305.278V225.27H306.874V233.712ZM310.966 231.108C310.966 230.333 311.125 229.647 311.442 229.05C311.769 228.453 312.208 227.991 312.758 227.664C313.318 227.328 313.934 227.16 314.606 227.16C315.213 227.16 315.74 227.281 316.188 227.524C316.646 227.757 317.01 228.051 317.28 228.406V227.286H318.89V235H317.28V233.852C317.01 234.216 316.641 234.519 316.174 234.762C315.708 235.005 315.176 235.126 314.578 235.126C313.916 235.126 313.309 234.958 312.758 234.622C312.208 234.277 311.769 233.801 311.442 233.194C311.125 232.578 310.966 231.883 310.966 231.108ZM317.28 231.136C317.28 230.604 317.168 230.142 316.944 229.75C316.73 229.358 316.445 229.059 316.09 228.854C315.736 228.649 315.353 228.546 314.942 228.546C314.532 228.546 314.149 228.649 313.794 228.854C313.44 229.05 313.15 229.344 312.926 229.736C312.712 230.119 312.604 230.576 312.604 231.108C312.604 231.64 312.712 232.107 312.926 232.508C313.15 232.909 313.44 233.217 313.794 233.432C314.158 233.637 314.541 233.74 314.942 233.74C315.353 233.74 315.736 233.637 316.09 233.432C316.445 233.227 316.73 232.928 316.944 232.536C317.168 232.135 317.28 231.668 317.28 231.136ZM322.583 228.434C322.853 228.061 323.222 227.757 323.689 227.524C324.165 227.281 324.692 227.16 325.271 227.16C325.952 227.16 326.568 227.323 327.119 227.65C327.669 227.977 328.103 228.443 328.421 229.05C328.738 229.647 328.897 230.333 328.897 231.108C328.897 231.883 328.738 232.578 328.421 233.194C328.103 233.801 327.665 234.277 327.105 234.622C326.554 234.958 325.943 235.126 325.271 235.126C324.673 235.126 324.141 235.009 323.675 234.776C323.217 234.543 322.853 234.244 322.583 233.88V235H320.987V224.64H322.583V228.434ZM327.273 231.108C327.273 230.576 327.161 230.119 326.937 229.736C326.722 229.344 326.433 229.05 326.069 228.854C325.714 228.649 325.331 228.546 324.921 228.546C324.519 228.546 324.137 228.649 323.773 228.854C323.418 229.059 323.129 229.358 322.905 229.75C322.69 230.142 322.583 230.604 322.583 231.136C322.583 231.668 322.69 232.135 322.905 232.536C323.129 232.928 323.418 233.227 323.773 233.432C324.137 233.637 324.519 233.74 324.921 233.74C325.331 233.74 325.714 233.637 326.069 233.432C326.433 233.217 326.722 232.909 326.937 232.508C327.161 232.107 327.273 231.64 327.273 231.108ZM337.545 230.954C337.545 231.243 337.526 231.505 337.489 231.738H331.595C331.641 232.354 331.87 232.849 332.281 233.222C332.691 233.595 333.195 233.782 333.793 233.782C334.651 233.782 335.258 233.423 335.613 232.704H337.335C337.101 233.413 336.677 233.997 336.061 234.454C335.454 234.902 334.698 235.126 333.793 235.126C333.055 235.126 332.393 234.963 331.805 234.636C331.226 234.3 330.769 233.833 330.433 233.236C330.106 232.629 329.943 231.929 329.943 231.136C329.943 230.343 330.101 229.647 330.419 229.05C330.745 228.443 331.198 227.977 331.777 227.65C332.365 227.323 333.037 227.16 333.793 227.16C334.521 227.16 335.169 227.319 335.739 227.636C336.308 227.953 336.751 228.401 337.069 228.98C337.386 229.549 337.545 230.207 337.545 230.954ZM335.879 230.45C335.869 229.862 335.659 229.391 335.249 229.036C334.838 228.681 334.329 228.504 333.723 228.504C333.172 228.504 332.701 228.681 332.309 229.036C331.917 229.381 331.683 229.853 331.609 230.45H335.879ZM340.711 224.64V235H339.115V224.64H340.711Z" fill="white"/>
</svg>
