<svg width="392" height="196" viewBox="0 0 392 196" fill="none" xmlns="http://www.w3.org/2000/svg">
<mask id="path-2-inside-1_2027_75205" fill="white">
<path d="M0 8C0 3.58172 3.58172 0 8 0H384C388.418 0 392 3.58172 392 8V44C392 48.4183 388.418 52 384 52H8C3.58172 52 0 48.4183 0 44V8Z"/>
</mask>
<path d="M0 8C0 3.58172 3.58172 0 8 0H384C388.418 0 392 3.58172 392 8V44C392 48.4183 388.418 52 384 52H8C3.58172 52 0 48.4183 0 44V8Z" fill="#FAF8F7"/>
<path d="M8 0V1H384V0V-1H8V0ZM392 8H391V44H392H393V8H392ZM384 52V51H8V52V53H384V52ZM0 44H1V8H0H-1V44H0ZM8 52V51C4.134 51 1 47.866 1 44H0H-1C-1 48.9706 3.02943 53 8 53V52ZM392 44H391C391 47.866 387.866 51 384 51V52V53C388.971 53 393 48.9706 393 44H392ZM384 0V1C387.866 1 391 4.13401 391 8H392H393C393 3.02944 388.971 -1 384 -1V0ZM8 0V-1C3.02944 -1 -1 3.02944 -1 8H0H1C1 4.13401 4.13401 1 8 1V0Z" fill="#CDCBCB" mask="url(#path-2-inside-1_2027_75205)"/>
<path d="M177.796 25.834C177.796 24.2287 178.057 22.978 178.58 22.082C179.102 21.1767 180.017 20.724 181.324 20.724C182.621 20.724 183.531 21.1767 184.054 22.082C184.576 22.978 184.838 24.2287 184.838 25.834C184.838 27.4673 184.576 28.7367 184.054 29.642C183.531 30.5473 182.621 31 181.324 31C180.017 31 179.102 30.5473 178.58 29.642C178.057 28.7367 177.796 27.4673 177.796 25.834ZM183.578 25.834C183.578 25.022 183.522 24.336 183.41 23.776C183.307 23.2067 183.088 22.7493 182.752 22.404C182.425 22.0587 181.949 21.886 181.324 21.886C180.689 21.886 180.204 22.0587 179.868 22.404C179.541 22.7493 179.322 23.2067 179.21 23.776C179.107 24.336 179.056 25.022 179.056 25.834C179.056 26.674 179.107 27.3787 179.21 27.948C179.322 28.5173 179.541 28.9747 179.868 29.32C180.204 29.6653 180.689 29.838 181.324 29.838C181.949 29.838 182.425 29.6653 182.752 29.32C183.088 28.9747 183.307 28.5173 183.41 27.948C183.522 27.3787 183.578 26.674 183.578 25.834ZM186.587 25.834C186.587 24.2287 186.848 22.978 187.371 22.082C187.893 21.1767 188.808 20.724 190.115 20.724C191.412 20.724 192.322 21.1767 192.845 22.082C193.367 22.978 193.629 24.2287 193.629 25.834C193.629 27.4673 193.367 28.7367 192.845 29.642C192.322 30.5473 191.412 31 190.115 31C188.808 31 187.893 30.5473 187.371 29.642C186.848 28.7367 186.587 27.4673 186.587 25.834ZM192.369 25.834C192.369 25.022 192.313 24.336 192.201 23.776C192.098 23.2067 191.879 22.7493 191.543 22.404C191.216 22.0587 190.74 21.886 190.115 21.886C189.48 21.886 188.995 22.0587 188.659 22.404C188.332 22.7493 188.113 23.2067 188.001 23.776C187.898 24.336 187.847 25.022 187.847 25.834C187.847 26.674 187.898 27.3787 188.001 27.948C188.113 28.5173 188.332 28.9747 188.659 29.32C188.995 29.6653 189.48 29.838 190.115 29.838C190.74 29.838 191.216 29.6653 191.543 29.32C191.879 28.9747 192.098 28.5173 192.201 27.948C192.313 27.3787 192.369 26.674 192.369 25.834ZM195.994 31.084C195.751 31.084 195.546 31 195.378 30.832C195.21 30.664 195.126 30.4587 195.126 30.216C195.126 29.9733 195.21 29.768 195.378 29.6C195.546 29.432 195.751 29.348 195.994 29.348C196.227 29.348 196.423 29.432 196.582 29.6C196.75 29.768 196.834 29.9733 196.834 30.216C196.834 30.4587 196.75 30.664 196.582 30.832C196.423 31 196.227 31.084 195.994 31.084ZM195.994 25.092C195.751 25.092 195.546 25.008 195.378 24.84C195.21 24.672 195.126 24.4667 195.126 24.224C195.126 23.9813 195.21 23.776 195.378 23.608C195.546 23.44 195.751 23.356 195.994 23.356C196.227 23.356 196.423 23.44 196.582 23.608C196.75 23.776 196.834 23.9813 196.834 24.224C196.834 24.4667 196.75 24.672 196.582 24.84C196.423 25.008 196.227 25.092 195.994 25.092ZM198.358 25.834C198.358 24.2287 198.619 22.978 199.142 22.082C199.665 21.1767 200.579 20.724 201.886 20.724C203.183 20.724 204.093 21.1767 204.616 22.082C205.139 22.978 205.4 24.2287 205.4 25.834C205.4 27.4673 205.139 28.7367 204.616 29.642C204.093 30.5473 203.183 31 201.886 31C200.579 31 199.665 30.5473 199.142 29.642C198.619 28.7367 198.358 27.4673 198.358 25.834ZM204.14 25.834C204.14 25.022 204.084 24.336 203.972 23.776C203.869 23.2067 203.65 22.7493 203.314 22.404C202.987 22.0587 202.511 21.886 201.886 21.886C201.251 21.886 200.766 22.0587 200.43 22.404C200.103 22.7493 199.884 23.2067 199.772 23.776C199.669 24.336 199.618 25.022 199.618 25.834C199.618 26.674 199.669 27.3787 199.772 27.948C199.884 28.5173 200.103 28.9747 200.43 29.32C200.766 29.6653 201.251 29.838 201.886 29.838C202.511 29.838 202.987 29.6653 203.314 29.32C203.65 28.9747 203.869 28.5173 203.972 27.948C204.084 27.3787 204.14 26.674 204.14 25.834ZM207.149 25.834C207.149 24.2287 207.41 22.978 207.933 22.082C208.456 21.1767 209.37 20.724 210.677 20.724C211.974 20.724 212.884 21.1767 213.407 22.082C213.93 22.978 214.191 24.2287 214.191 25.834C214.191 27.4673 213.93 28.7367 213.407 29.642C212.884 30.5473 211.974 31 210.677 31C209.37 31 208.456 30.5473 207.933 29.642C207.41 28.7367 207.149 27.4673 207.149 25.834ZM212.931 25.834C212.931 25.022 212.875 24.336 212.763 23.776C212.66 23.2067 212.441 22.7493 212.105 22.404C211.778 22.0587 211.302 21.886 210.677 21.886C210.042 21.886 209.557 22.0587 209.221 22.404C208.894 22.7493 208.675 23.2067 208.563 23.776C208.46 24.336 208.409 25.022 208.409 25.834C208.409 26.674 208.46 27.3787 208.563 27.948C208.675 28.5173 208.894 28.9747 209.221 29.32C209.557 29.6653 210.042 29.838 210.677 29.838C211.302 29.838 211.778 29.6653 212.105 29.32C212.441 28.9747 212.66 28.5173 212.763 27.948C212.875 27.3787 212.931 26.674 212.931 25.834Z" fill="#91908F"/>
<path d="M176.928 26.408H215.073V27.108H176.928V26.408Z" fill="#91908F"/>
<mask id="path-5-inside-2_2027_75205" fill="white">
<path d="M0 68C0 63.5817 3.58172 60 8 60H384C388.418 60 392 63.5817 392 68V104C392 108.418 388.418 112 384 112H8C3.58172 112 0 108.418 0 104V68Z"/>
</mask>
<path d="M0 68C0 63.5817 3.58172 60 8 60H384C388.418 60 392 63.5817 392 68V104C392 108.418 388.418 112 384 112H8C3.58172 112 0 108.418 0 104V68Z" fill="white"/>
<path d="M8 60V61H384V60V59H8V60ZM392 68H391V104H392H393V68H392ZM384 112V111H8V112V113H384V112ZM0 104H1V68H0H-1V104H0ZM8 112V111C4.134 111 1 107.866 1 104H0H-1C-1 108.971 3.02943 113 8 113V112ZM392 104H391C391 107.866 387.866 111 384 111V112V113C388.971 113 393 108.971 393 104H392ZM384 60V61C387.866 61 391 64.134 391 68H392H393C393 63.0294 388.971 59 384 59V60ZM8 60V59C3.02944 59 -1 63.0294 -1 68H0H1C1 64.134 4.13401 61 8 61V60Z" fill="#CDCBCB" mask="url(#path-5-inside-2_2027_75205)"/>
<path d="M178.165 85.834C178.165 84.2287 178.426 82.978 178.949 82.082C179.471 81.1767 180.386 80.724 181.693 80.724C182.99 80.724 183.9 81.1767 184.423 82.082C184.945 82.978 185.207 84.2287 185.207 85.834C185.207 87.4673 184.945 88.7367 184.423 89.642C183.9 90.5473 182.99 91 181.693 91C180.386 91 179.471 90.5473 178.949 89.642C178.426 88.7367 178.165 87.4673 178.165 85.834ZM183.947 85.834C183.947 85.022 183.891 84.336 183.779 83.776C183.676 83.2067 183.457 82.7493 183.121 82.404C182.794 82.0587 182.318 81.886 181.693 81.886C181.058 81.886 180.573 82.0587 180.237 82.404C179.91 82.7493 179.691 83.2067 179.579 83.776C179.476 84.336 179.425 85.022 179.425 85.834C179.425 86.674 179.476 87.3787 179.579 87.948C179.691 88.5173 179.91 88.9747 180.237 89.32C180.573 89.6653 181.058 89.838 181.693 89.838C182.318 89.838 182.794 89.6653 183.121 89.32C183.457 88.9747 183.676 88.5173 183.779 87.948C183.891 87.3787 183.947 86.674 183.947 85.834ZM186.802 89.978C187.987 89.026 188.916 88.2467 189.588 87.64C190.26 87.024 190.824 86.3847 191.282 85.722C191.748 85.05 191.982 84.392 191.982 83.748C191.982 83.1413 191.832 82.6653 191.534 82.32C191.244 81.9653 190.773 81.788 190.12 81.788C189.485 81.788 188.99 81.9887 188.636 82.39C188.29 82.782 188.104 83.3093 188.076 83.972H186.844C186.881 82.9267 187.198 82.1193 187.796 81.55C188.393 80.9807 189.163 80.696 190.106 80.696C191.067 80.696 191.828 80.962 192.388 81.494C192.957 82.026 193.242 82.7587 193.242 83.692C193.242 84.4667 193.008 85.2227 192.542 85.96C192.084 86.688 191.562 87.332 190.974 87.892C190.386 88.4427 189.634 89.0867 188.72 89.824H193.536V90.888H186.802V89.978ZM195.625 91.084C195.382 91.084 195.177 91 195.009 90.832C194.841 90.664 194.757 90.4587 194.757 90.216C194.757 89.9733 194.841 89.768 195.009 89.6C195.177 89.432 195.382 89.348 195.625 89.348C195.858 89.348 196.054 89.432 196.213 89.6C196.381 89.768 196.465 89.9733 196.465 90.216C196.465 90.4587 196.381 90.664 196.213 90.832C196.054 91 195.858 91.084 195.625 91.084ZM195.625 85.092C195.382 85.092 195.177 85.008 195.009 84.84C194.841 84.672 194.757 84.4667 194.757 84.224C194.757 83.9813 194.841 83.776 195.009 83.608C195.177 83.44 195.382 83.356 195.625 83.356C195.858 83.356 196.054 83.44 196.213 83.608C196.381 83.776 196.465 83.9813 196.465 84.224C196.465 84.4667 196.381 84.672 196.213 84.84C196.054 85.008 195.858 85.092 195.625 85.092ZM197.989 85.834C197.989 84.2287 198.25 82.978 198.773 82.082C199.296 81.1767 200.21 80.724 201.517 80.724C202.814 80.724 203.724 81.1767 204.247 82.082C204.77 82.978 205.031 84.2287 205.031 85.834C205.031 87.4673 204.77 88.7367 204.247 89.642C203.724 90.5473 202.814 91 201.517 91C200.21 91 199.296 90.5473 198.773 89.642C198.25 88.7367 197.989 87.4673 197.989 85.834ZM203.771 85.834C203.771 85.022 203.715 84.336 203.603 83.776C203.5 83.2067 203.281 82.7493 202.945 82.404C202.618 82.0587 202.142 81.886 201.517 81.886C200.882 81.886 200.397 82.0587 200.061 82.404C199.734 82.7493 199.515 83.2067 199.403 83.776C199.3 84.336 199.249 85.022 199.249 85.834C199.249 86.674 199.3 87.3787 199.403 87.948C199.515 88.5173 199.734 88.9747 200.061 89.32C200.397 89.6653 200.882 89.838 201.517 89.838C202.142 89.838 202.618 89.6653 202.945 89.32C203.281 88.9747 203.5 88.5173 203.603 87.948C203.715 87.3787 203.771 86.674 203.771 85.834ZM206.78 85.834C206.78 84.2287 207.041 82.978 207.564 82.082C208.087 81.1767 209.001 80.724 210.308 80.724C211.605 80.724 212.515 81.1767 213.038 82.082C213.561 82.978 213.822 84.2287 213.822 85.834C213.822 87.4673 213.561 88.7367 213.038 89.642C212.515 90.5473 211.605 91 210.308 91C209.001 91 208.087 90.5473 207.564 89.642C207.041 88.7367 206.78 87.4673 206.78 85.834ZM212.562 85.834C212.562 85.022 212.506 84.336 212.394 83.776C212.291 83.2067 212.072 82.7493 211.736 82.404C211.409 82.0587 210.933 81.886 210.308 81.886C209.673 81.886 209.188 82.0587 208.852 82.404C208.525 82.7493 208.306 83.2067 208.194 83.776C208.091 84.336 208.04 85.022 208.04 85.834C208.04 86.674 208.091 87.3787 208.194 87.948C208.306 88.5173 208.525 88.9747 208.852 89.32C209.188 89.6653 209.673 89.838 210.308 89.838C210.933 89.838 211.409 89.6653 211.736 89.32C212.072 88.9747 212.291 88.5173 212.394 87.948C212.506 87.3787 212.562 86.674 212.562 85.834Z" fill="#4B4A4A"/>
<mask id="path-8-inside-3_2027_75205" fill="white">
<path d="M0 128H392V196H0V128Z"/>
</mask>
<path d="M0 128V129H392V128V127H0V128Z" fill="#CDCBCB" mask="url(#path-8-inside-3_2027_75205)"/>
<mask id="path-10-inside-4_2027_75205" fill="white">
<path d="M0 170C0 155.641 11.6406 144 26 144H162C176.359 144 188 155.641 188 170C188 184.359 176.359 196 162 196H26C11.6406 196 0 184.359 0 170Z"/>
</mask>
<path d="M0 170M188 170M188 170M0 170M26 144V145H162V144V143H26V144ZM188 170M162 196V195H26V196V197H162V196ZM0 170M26 196V195C12.1929 195 1 183.807 1 170H0H-1C-1 184.912 11.0883 197 26 197V196ZM188 170H187C187 183.807 175.807 195 162 195V196V197C176.912 197 189 184.912 189 170H188ZM162 144V145C175.807 145 187 156.193 187 170H188H189C189 155.088 176.912 143 162 143V144ZM26 144V143C11.0883 143 -1 155.088 -1 170H0H1C1 156.193 12.1929 145 26 145V144Z" fill="#CDCBCB" mask="url(#path-10-inside-4_2027_75205)"/>
<path d="M56.501 170.002C57.0237 170.095 57.467 170.371 57.831 170.828C58.195 171.285 58.377 171.803 58.377 172.382C58.377 172.877 58.2464 173.325 57.985 173.726C57.733 174.118 57.3644 174.431 56.879 174.664C56.3937 174.888 55.829 175 55.185 175H51.293V165.27H55.003C55.6657 165.27 56.235 165.382 56.711 165.606C57.187 165.83 57.5464 166.133 57.789 166.516C58.0317 166.889 58.153 167.309 58.153 167.776C58.153 168.336 58.0037 168.803 57.705 169.176C57.4064 169.549 57.005 169.825 56.501 170.002ZM52.889 169.358H54.863C55.3857 169.358 55.7917 169.241 56.081 169.008C56.3797 168.765 56.529 168.42 56.529 167.972C56.529 167.533 56.3797 167.193 56.081 166.95C55.7917 166.698 55.3857 166.572 54.863 166.572H52.889V169.358ZM55.045 173.698C55.5864 173.698 56.011 173.567 56.319 173.306C56.627 173.045 56.781 172.681 56.781 172.214C56.781 171.738 56.6177 171.36 56.291 171.08C55.9644 170.8 55.5304 170.66 54.989 170.66H52.889V173.698H55.045ZM67.0974 167.286V175H65.5014V174.09C65.2494 174.407 64.9181 174.659 64.5074 174.846C64.1061 175.023 63.6767 175.112 63.2194 175.112C62.6127 175.112 62.0667 174.986 61.5814 174.734C61.1054 174.482 60.7274 174.109 60.4474 173.614C60.1767 173.119 60.0414 172.522 60.0414 171.822V167.286H61.6234V171.584C61.6234 172.275 61.7961 172.807 62.1414 173.18C62.4867 173.544 62.9581 173.726 63.5554 173.726C64.1527 173.726 64.6241 173.544 64.9694 173.18C65.3241 172.807 65.5014 172.275 65.5014 171.584V167.286H67.0974ZM71.0652 168.588V172.858C71.0652 173.147 71.1305 173.357 71.2612 173.488C71.4012 173.609 71.6345 173.67 71.9612 173.67H72.9412V175H71.6812C70.9625 175 70.4119 174.832 70.0292 174.496C69.6465 174.16 69.4552 173.614 69.4552 172.858V168.588H68.5452V167.286H69.4552V165.368H71.0652V167.286H72.9412V168.588H71.0652ZM76.2742 168.588V172.858C76.2742 173.147 76.3395 173.357 76.4702 173.488C76.6102 173.609 76.8435 173.67 77.1702 173.67H78.1502V175H76.8902C76.1715 175 75.6208 174.832 75.2382 174.496C74.8555 174.16 74.6642 173.614 74.6642 172.858V168.588H73.7542V167.286H74.6642V165.368H76.2742V167.286H78.1502V168.588H76.2742ZM82.9672 175.126C82.2392 175.126 81.5812 174.963 80.9932 174.636C80.4052 174.3 79.9432 173.833 79.6072 173.236C79.2712 172.629 79.1032 171.929 79.1032 171.136C79.1032 170.352 79.2758 169.657 79.6212 169.05C79.9665 168.443 80.4378 167.977 81.0352 167.65C81.6325 167.323 82.2998 167.16 83.0372 167.16C83.7745 167.16 84.4418 167.323 85.0392 167.65C85.6365 167.977 86.1078 168.443 86.4532 169.05C86.7985 169.657 86.9712 170.352 86.9712 171.136C86.9712 171.92 86.7938 172.615 86.4392 173.222C86.0845 173.829 85.5992 174.3 84.9832 174.636C84.3765 174.963 83.7045 175.126 82.9672 175.126ZM82.9672 173.74C83.3778 173.74 83.7605 173.642 84.1152 173.446C84.4792 173.25 84.7732 172.956 84.9972 172.564C85.2212 172.172 85.3332 171.696 85.3332 171.136C85.3332 170.576 85.2258 170.105 85.0112 169.722C84.7965 169.33 84.5118 169.036 84.1572 168.84C83.8025 168.644 83.4198 168.546 83.0092 168.546C82.5985 168.546 82.2158 168.644 81.8612 168.84C81.5158 169.036 81.2405 169.33 81.0352 169.722C80.8298 170.105 80.7272 170.576 80.7272 171.136C80.7272 171.967 80.9372 172.611 81.3572 173.068C81.7865 173.516 82.3232 173.74 82.9672 173.74ZM92.4409 167.16C93.0476 167.16 93.5889 167.286 94.0649 167.538C94.5502 167.79 94.9282 168.163 95.1989 168.658C95.4696 169.153 95.6049 169.75 95.6049 170.45V175H94.0229V170.688C94.0229 169.997 93.8502 169.47 93.5049 169.106C93.1596 168.733 92.6882 168.546 92.0909 168.546C91.4936 168.546 91.0176 168.733 90.6629 169.106C90.3176 169.47 90.1449 169.997 90.1449 170.688V175H88.5489V167.286H90.1449V168.168C90.4062 167.851 90.7376 167.603 91.1389 167.426C91.5496 167.249 91.9836 167.16 92.4409 167.16ZM102.873 173.712H106.163V175H101.277V165.27H102.873V173.712ZM106.966 171.108C106.966 170.333 107.125 169.647 107.442 169.05C107.769 168.453 108.207 167.991 108.758 167.664C109.318 167.328 109.934 167.16 110.606 167.16C111.213 167.16 111.74 167.281 112.188 167.524C112.645 167.757 113.009 168.051 113.28 168.406V167.286H114.89V175H113.28V173.852C113.009 174.216 112.641 174.519 112.174 174.762C111.707 175.005 111.175 175.126 110.578 175.126C109.915 175.126 109.309 174.958 108.758 174.622C108.207 174.277 107.769 173.801 107.442 173.194C107.125 172.578 106.966 171.883 106.966 171.108ZM113.28 171.136C113.28 170.604 113.168 170.142 112.944 169.75C112.729 169.358 112.445 169.059 112.09 168.854C111.735 168.649 111.353 168.546 110.942 168.546C110.531 168.546 110.149 168.649 109.794 168.854C109.439 169.05 109.15 169.344 108.926 169.736C108.711 170.119 108.604 170.576 108.604 171.108C108.604 171.64 108.711 172.107 108.926 172.508C109.15 172.909 109.439 173.217 109.794 173.432C110.158 173.637 110.541 173.74 110.942 173.74C111.353 173.74 111.735 173.637 112.09 173.432C112.445 173.227 112.729 172.928 112.944 172.536C113.168 172.135 113.28 171.668 113.28 171.136ZM118.582 168.434C118.853 168.061 119.222 167.757 119.688 167.524C120.164 167.281 120.692 167.16 121.27 167.16C121.952 167.16 122.568 167.323 123.118 167.65C123.669 167.977 124.103 168.443 124.42 169.05C124.738 169.647 124.896 170.333 124.896 171.108C124.896 171.883 124.738 172.578 124.42 173.194C124.103 173.801 123.664 174.277 123.104 174.622C122.554 174.958 121.942 175.126 121.27 175.126C120.673 175.126 120.141 175.009 119.674 174.776C119.217 174.543 118.853 174.244 118.582 173.88V175H116.986V164.64H118.582V168.434ZM123.272 171.108C123.272 170.576 123.16 170.119 122.936 169.736C122.722 169.344 122.432 169.05 122.068 168.854C121.714 168.649 121.331 168.546 120.92 168.546C120.519 168.546 120.136 168.649 119.772 168.854C119.418 169.059 119.128 169.358 118.904 169.75C118.69 170.142 118.582 170.604 118.582 171.136C118.582 171.668 118.69 172.135 118.904 172.536C119.128 172.928 119.418 173.227 119.772 173.432C120.136 173.637 120.519 173.74 120.92 173.74C121.331 173.74 121.714 173.637 122.068 173.432C122.432 173.217 122.722 172.909 122.936 172.508C123.16 172.107 123.272 171.64 123.272 171.108ZM133.545 170.954C133.545 171.243 133.526 171.505 133.489 171.738H127.595C127.641 172.354 127.87 172.849 128.281 173.222C128.691 173.595 129.195 173.782 129.793 173.782C130.651 173.782 131.258 173.423 131.613 172.704H133.335C133.101 173.413 132.677 173.997 132.061 174.454C131.454 174.902 130.698 175.126 129.793 175.126C129.055 175.126 128.393 174.963 127.805 174.636C127.226 174.3 126.769 173.833 126.433 173.236C126.106 172.629 125.943 171.929 125.943 171.136C125.943 170.343 126.101 169.647 126.419 169.05C126.745 168.443 127.198 167.977 127.777 167.65C128.365 167.323 129.037 167.16 129.793 167.16C130.521 167.16 131.169 167.319 131.739 167.636C132.308 167.953 132.751 168.401 133.069 168.98C133.386 169.549 133.545 170.207 133.545 170.954ZM131.879 170.45C131.869 169.862 131.659 169.391 131.249 169.036C130.838 168.681 130.329 168.504 129.723 168.504C129.172 168.504 128.701 168.681 128.309 169.036C127.917 169.381 127.683 169.853 127.609 170.45H131.879ZM136.711 164.64V175H135.115V164.64H136.711Z" fill="#91908F"/>
<path d="M204 170C204 155.641 215.64 144 230 144H366C380.359 144 392 155.641 392 170C392 184.359 380.359 196 366 196H230C215.64 196 204 184.359 204 170Z" fill="#0A2333"/>
<path d="M260.501 170.002C261.024 170.095 261.467 170.371 261.831 170.828C262.195 171.285 262.377 171.803 262.377 172.382C262.377 172.877 262.246 173.325 261.985 173.726C261.733 174.118 261.364 174.431 260.879 174.664C260.394 174.888 259.829 175 259.185 175H255.293V165.27H259.003C259.666 165.27 260.235 165.382 260.711 165.606C261.187 165.83 261.546 166.133 261.789 166.516C262.032 166.889 262.153 167.309 262.153 167.776C262.153 168.336 262.004 168.803 261.705 169.176C261.406 169.549 261.005 169.825 260.501 170.002ZM256.889 169.358H258.863C259.386 169.358 259.792 169.241 260.081 169.008C260.38 168.765 260.529 168.42 260.529 167.972C260.529 167.533 260.38 167.193 260.081 166.95C259.792 166.698 259.386 166.572 258.863 166.572H256.889V169.358ZM259.045 173.698C259.586 173.698 260.011 173.567 260.319 173.306C260.627 173.045 260.781 172.681 260.781 172.214C260.781 171.738 260.618 171.36 260.291 171.08C259.964 170.8 259.53 170.66 258.989 170.66H256.889V173.698H259.045ZM271.097 167.286V175H269.501V174.09C269.249 174.407 268.918 174.659 268.507 174.846C268.106 175.023 267.677 175.112 267.219 175.112C266.613 175.112 266.067 174.986 265.581 174.734C265.105 174.482 264.727 174.109 264.447 173.614C264.177 173.119 264.041 172.522 264.041 171.822V167.286H265.623V171.584C265.623 172.275 265.796 172.807 266.141 173.18C266.487 173.544 266.958 173.726 267.555 173.726C268.153 173.726 268.624 173.544 268.969 173.18C269.324 172.807 269.501 172.275 269.501 171.584V167.286H271.097ZM275.065 168.588V172.858C275.065 173.147 275.131 173.357 275.261 173.488C275.401 173.609 275.635 173.67 275.961 173.67H276.941V175H275.681C274.963 175 274.412 174.832 274.029 174.496C273.647 174.16 273.455 173.614 273.455 172.858V168.588H272.545V167.286H273.455V165.368H275.065V167.286H276.941V168.588H275.065ZM280.274 168.588V172.858C280.274 173.147 280.34 173.357 280.47 173.488C280.61 173.609 280.844 173.67 281.17 173.67H282.15V175H280.89C280.172 175 279.621 174.832 279.238 174.496C278.856 174.16 278.664 173.614 278.664 172.858V168.588H277.754V167.286H278.664V165.368H280.274V167.286H282.15V168.588H280.274ZM286.967 175.126C286.239 175.126 285.581 174.963 284.993 174.636C284.405 174.3 283.943 173.833 283.607 173.236C283.271 172.629 283.103 171.929 283.103 171.136C283.103 170.352 283.276 169.657 283.621 169.05C283.967 168.443 284.438 167.977 285.035 167.65C285.633 167.323 286.3 167.16 287.037 167.16C287.775 167.16 288.442 167.323 289.039 167.65C289.637 167.977 290.108 168.443 290.453 169.05C290.799 169.657 290.971 170.352 290.971 171.136C290.971 171.92 290.794 172.615 290.439 173.222C290.085 173.829 289.599 174.3 288.983 174.636C288.377 174.963 287.705 175.126 286.967 175.126ZM286.967 173.74C287.378 173.74 287.761 173.642 288.115 173.446C288.479 173.25 288.773 172.956 288.997 172.564C289.221 172.172 289.333 171.696 289.333 171.136C289.333 170.576 289.226 170.105 289.011 169.722C288.797 169.33 288.512 169.036 288.157 168.84C287.803 168.644 287.42 168.546 287.009 168.546C286.599 168.546 286.216 168.644 285.861 168.84C285.516 169.036 285.241 169.33 285.035 169.722C284.83 170.105 284.727 170.576 284.727 171.136C284.727 171.967 284.937 172.611 285.357 173.068C285.787 173.516 286.323 173.74 286.967 173.74ZM296.441 167.16C297.048 167.16 297.589 167.286 298.065 167.538C298.55 167.79 298.928 168.163 299.199 168.658C299.47 169.153 299.605 169.75 299.605 170.45V175H298.023V170.688C298.023 169.997 297.85 169.47 297.505 169.106C297.16 168.733 296.688 168.546 296.091 168.546C295.494 168.546 295.018 168.733 294.663 169.106C294.318 169.47 294.145 169.997 294.145 170.688V175H292.549V167.286H294.145V168.168C294.406 167.851 294.738 167.603 295.139 167.426C295.55 167.249 295.984 167.16 296.441 167.16ZM306.873 173.712H310.163V175H305.277V165.27H306.873V173.712ZM310.966 171.108C310.966 170.333 311.125 169.647 311.442 169.05C311.769 168.453 312.207 167.991 312.758 167.664C313.318 167.328 313.934 167.16 314.606 167.16C315.213 167.16 315.74 167.281 316.188 167.524C316.645 167.757 317.009 168.051 317.28 168.406V167.286H318.89V175H317.28V173.852C317.009 174.216 316.641 174.519 316.174 174.762C315.707 175.005 315.175 175.126 314.578 175.126C313.915 175.126 313.309 174.958 312.758 174.622C312.207 174.277 311.769 173.801 311.442 173.194C311.125 172.578 310.966 171.883 310.966 171.108ZM317.28 171.136C317.28 170.604 317.168 170.142 316.944 169.75C316.729 169.358 316.445 169.059 316.09 168.854C315.735 168.649 315.353 168.546 314.942 168.546C314.531 168.546 314.149 168.649 313.794 168.854C313.439 169.05 313.15 169.344 312.926 169.736C312.711 170.119 312.604 170.576 312.604 171.108C312.604 171.64 312.711 172.107 312.926 172.508C313.15 172.909 313.439 173.217 313.794 173.432C314.158 173.637 314.541 173.74 314.942 173.74C315.353 173.74 315.735 173.637 316.09 173.432C316.445 173.227 316.729 172.928 316.944 172.536C317.168 172.135 317.28 171.668 317.28 171.136ZM322.582 168.434C322.853 168.061 323.222 167.757 323.688 167.524C324.164 167.281 324.692 167.16 325.27 167.16C325.952 167.16 326.568 167.323 327.118 167.65C327.669 167.977 328.103 168.443 328.42 169.05C328.738 169.647 328.896 170.333 328.896 171.108C328.896 171.883 328.738 172.578 328.42 173.194C328.103 173.801 327.664 174.277 327.104 174.622C326.554 174.958 325.942 175.126 325.27 175.126C324.673 175.126 324.141 175.009 323.674 174.776C323.217 174.543 322.853 174.244 322.582 173.88V175H320.986V164.64H322.582V168.434ZM327.272 171.108C327.272 170.576 327.16 170.119 326.936 169.736C326.722 169.344 326.432 169.05 326.068 168.854C325.714 168.649 325.331 168.546 324.92 168.546C324.519 168.546 324.136 168.649 323.772 168.854C323.418 169.059 323.128 169.358 322.904 169.75C322.69 170.142 322.582 170.604 322.582 171.136C322.582 171.668 322.69 172.135 322.904 172.536C323.128 172.928 323.418 173.227 323.772 173.432C324.136 173.637 324.519 173.74 324.92 173.74C325.331 173.74 325.714 173.637 326.068 173.432C326.432 173.217 326.722 172.909 326.936 172.508C327.16 172.107 327.272 171.64 327.272 171.108ZM337.545 170.954C337.545 171.243 337.526 171.505 337.489 171.738H331.595C331.641 172.354 331.87 172.849 332.281 173.222C332.691 173.595 333.195 173.782 333.793 173.782C334.651 173.782 335.258 173.423 335.613 172.704H337.335C337.101 173.413 336.677 173.997 336.061 174.454C335.454 174.902 334.698 175.126 333.793 175.126C333.055 175.126 332.393 174.963 331.805 174.636C331.226 174.3 330.769 173.833 330.433 173.236C330.106 172.629 329.943 171.929 329.943 171.136C329.943 170.343 330.101 169.647 330.419 169.05C330.745 168.443 331.198 167.977 331.777 167.65C332.365 167.323 333.037 167.16 333.793 167.16C334.521 167.16 335.169 167.319 335.739 167.636C336.308 167.953 336.751 168.401 337.069 168.98C337.386 169.549 337.545 170.207 337.545 170.954ZM335.879 170.45C335.869 169.862 335.659 169.391 335.249 169.036C334.838 168.681 334.329 168.504 333.723 168.504C333.172 168.504 332.701 168.681 332.309 169.036C331.917 169.381 331.683 169.853 331.609 170.45H335.879ZM340.711 164.64V175H339.115V164.64H340.711Z" fill="white"/>
</svg>
