<svg width="70" height="24" viewBox="0 0 70 24" fill="none" xmlns="http://www.w3.org/2000/svg">
<path d="M0 12C0 5.37258 5.37258 0 12 0H36C42.6274 0 48 5.37258 48 12C48 18.6274 42.6274 24 36 24H12C5.37258 24 0 18.6274 0 12Z" fill="#063E56"/>
<path d="M26 12C26 6.47715 30.4772 2 36 2C41.5228 2 46 6.47715 46 12C46 17.5228 41.5228 22 36 22C30.4772 22 26 17.5228 26 12Z" fill="white"/>
<path d="M56.716 16.084C55.94 16.084 55.232 15.904 54.592 15.544C53.952 15.176 53.444 14.668 53.068 14.02C52.7 13.364 52.516 12.628 52.516 11.812C52.516 10.996 52.7 10.264 53.068 9.616C53.444 8.96 53.952 8.452 54.592 8.092C55.232 7.724 55.94 7.54 56.716 7.54C57.5 7.54 58.212 7.724 58.852 8.092C59.492 8.452 59.996 8.956 60.364 9.604C60.732 10.252 60.916 10.988 60.916 11.812C60.916 12.636 60.732 13.372 60.364 14.02C59.996 14.668 59.492 15.176 58.852 15.544C58.212 15.904 57.5 16.084 56.716 16.084ZM56.716 15.136C57.3 15.136 57.824 15 58.288 14.728C58.76 14.456 59.128 14.068 59.392 13.564C59.664 13.06 59.8 12.476 59.8 11.812C59.8 11.14 59.664 10.556 59.392 10.06C59.128 9.556 58.764 9.168 58.3 8.896C57.836 8.624 57.308 8.488 56.716 8.488C56.124 8.488 55.596 8.624 55.132 8.896C54.668 9.168 54.3 9.556 54.028 10.06C53.764 10.556 53.632 11.14 53.632 11.812C53.632 12.476 53.764 13.06 54.028 13.564C54.3 14.068 54.668 14.456 55.132 14.728C55.604 15 56.132 15.136 56.716 15.136ZM65.5616 9.304C66.3616 9.304 67.0096 9.548 67.5056 10.036C68.0016 10.516 68.2496 11.212 68.2496 12.124V16H67.1696V12.28C67.1696 11.624 67.0056 11.124 66.6776 10.78C66.3496 10.428 65.9016 10.252 65.3336 10.252C64.7576 10.252 64.2976 10.432 63.9536 10.792C63.6176 11.152 63.4496 11.676 63.4496 12.364V16H62.3576V9.424H63.4496V10.36C63.6656 10.024 63.9576 9.764 64.3256 9.58C64.7016 9.396 65.1136 9.304 65.5616 9.304Z" fill="#0A2333"/>
</svg>
