<svg width="281" height="247" viewBox="0 0 281 247" fill="none" xmlns="http://www.w3.org/2000/svg">
<path d="M0 8.00001C0 3.58173 3.58172 0 8 0H273C277.418 0 281 3.58172 281 8V238.545C281 242.963 277.418 246.545 273 246.545H8C3.58172 246.545 0 242.963 0 238.545V8.00001Z" fill="#0A2333"/>
<g clip-path="url(#clip0_5609_12614)">
<path d="M120.754 29.0605L118.853 30.9609L118.933 31.0977C120.033 32.961 120.093 35.0264 119.101 36.7656C118.034 38.6353 115.961 39.7988 113.689 39.7988C113.038 39.7988 112.379 39.7039 111.729 39.5146L111.644 39.4893L111.565 39.5361C110.92 39.9252 110.774 40.6105 110.915 41.1152C111.077 41.6956 111.582 42.0722 112.2 42.0723L113.515 42.0742C117.679 42.0742 120.702 41.4326 121.339 46.5449H117.808C117.61 45.5884 116.756 45.2393 115.726 45.2393H111.447C110.192 45.2392 109.101 44.8352 108.373 44.1055C107.761 43.4893 107.439 42.6632 107.443 41.7148C107.431 40.3648 108.127 39.0398 109.176 38.415L109.407 38.2764L109.212 38.0908C108.089 37.0162 107.519 35.6662 107.519 34.0723C107.489 32.5896 108.009 31.2641 109.021 30.2314C110.186 29.0432 111.883 28.3624 113.679 28.3623C114.493 28.3623 115.282 28.5028 116.028 28.7783L116.15 28.8242L118.333 26.6396L120.754 29.0605ZM159.342 28.3027C161.335 28.3028 163.003 28.9574 164.347 30.2676C165.691 31.5778 166.361 33.2032 166.361 35.1465C166.361 37.0898 165.688 38.7173 164.347 40.0254C163.003 41.3356 161.335 41.9902 159.342 41.9902C157.937 41.9902 156.696 41.6578 155.61 41.0059V46.543H152.283V28.6162H155.61V29.2871C156.693 28.6351 157.937 28.3027 159.342 28.3027ZM188.949 28.3115C190.876 28.3115 192.564 28.8834 194.016 30.0254L192.402 32.2529C191.334 31.4516 190.208 31.0518 189.024 31.0518C188.425 31.0518 187.931 31.1486 187.549 31.3398C187.166 31.5312 186.973 31.8109 186.973 32.1768C186.973 32.3849 187.031 32.5661 187.146 32.7217C187.262 32.8772 187.456 33.0097 187.723 33.1211C187.99 33.2325 188.249 33.325 188.499 33.3965C188.749 33.468 189.094 33.5481 189.538 33.6406C189.921 33.7247 190.23 33.7967 190.464 33.8535C190.697 33.9124 191.002 34.0028 191.376 34.1289C191.752 34.2529 192.057 34.3789 192.295 34.5029C192.533 34.6291 192.792 34.7974 193.071 35.0098C193.351 35.2222 193.57 35.4496 193.728 35.6914C193.885 35.9332 194.022 36.2301 194.134 36.5791C194.247 36.9302 194.302 37.309 194.302 37.7168C194.302 38.6084 194.051 39.3848 193.551 40.043C193.05 40.7011 192.384 41.1931 191.549 41.5127C190.714 41.8345 189.767 41.9941 188.709 41.9941L188.32 41.9863C186.368 41.9083 184.663 41.2442 183.21 39.9922L184.823 37.79C185.934 38.7573 187.204 39.2412 188.638 39.2412C189.321 39.2412 189.879 39.1316 190.308 38.915C190.737 38.6984 190.951 38.3974 190.951 38.0146C190.951 37.8066 190.89 37.6215 190.771 37.4639C190.651 37.3062 190.455 37.1674 190.188 37.0518C189.921 36.9341 189.664 36.8393 189.418 36.7637C189.172 36.688 188.827 36.6019 188.386 36.501C188.085 36.4337 187.847 36.3809 187.673 36.3389C187.498 36.2968 187.258 36.2317 186.953 36.1455C186.648 36.0593 186.402 35.9771 186.215 35.9014C186.028 35.8257 185.804 35.725 185.546 35.5947C185.287 35.4665 185.077 35.3336 184.913 35.2012C184.751 35.0687 184.581 34.9042 184.4 34.7129C184.222 34.5216 184.079 34.318 183.976 34.1016C183.87 33.885 183.786 33.6344 183.719 33.3506C183.651 33.0667 183.62 32.7635 183.62 32.4375C183.62 31.5459 183.866 30.7824 184.358 30.1494C184.851 29.5165 185.49 29.0514 186.278 28.7549C187.067 28.4584 187.957 28.3115 188.949 28.3115ZM200.872 28.3115C202.798 28.3116 204.487 28.8835 205.938 30.0254L204.325 32.2529C203.257 31.4516 202.131 31.0518 200.947 31.0518C200.348 31.0518 199.853 31.1485 199.471 31.3398C199.088 31.5312 198.895 31.811 198.895 32.1768C198.895 32.385 198.954 32.566 199.069 32.7217C199.185 32.8773 199.378 33.0097 199.646 33.1211C199.913 33.2326 200.172 33.325 200.422 33.3965C200.672 33.468 201.017 33.5481 201.461 33.6406C201.844 33.7247 202.152 33.7968 202.386 33.8535C202.619 33.9124 202.924 34.0027 203.299 34.1289C203.675 34.253 203.98 34.3789 204.218 34.5029C204.455 34.6291 204.714 34.7974 204.994 35.0098C205.274 35.2221 205.493 35.4496 205.65 35.6914C205.808 35.9332 205.944 36.2302 206.056 36.5791C206.169 36.9302 206.227 37.3089 206.227 37.7168C206.227 38.6084 205.976 39.3848 205.476 40.043C204.975 40.7011 204.308 41.1931 203.474 41.5127C202.639 41.8345 201.692 41.9941 200.634 41.9941L200.242 41.9863C198.29 41.9082 196.585 41.2442 195.132 39.9922L196.745 37.79C197.856 38.7575 199.126 39.2412 200.561 39.2412C201.244 39.2412 201.801 39.1316 202.23 38.915C202.659 38.6984 202.874 38.3973 202.874 38.0146C202.874 37.8066 202.813 37.6215 202.693 37.4639C202.573 37.3061 202.377 37.1674 202.11 37.0518C201.843 36.934 201.587 36.8394 201.341 36.7637C201.095 36.688 200.749 36.6019 200.308 36.501C200.007 36.4337 199.769 36.3809 199.595 36.3389C199.42 36.2968 199.181 36.2317 198.876 36.1455C198.571 36.0593 198.325 35.9771 198.138 35.9014C197.951 35.8257 197.727 35.7251 197.469 35.5947C197.21 35.4665 197 35.3336 196.836 35.2012C196.674 35.0687 196.503 34.9043 196.322 34.7129C196.144 34.5217 196 34.318 195.897 34.1016C195.792 33.885 195.709 33.6344 195.642 33.3506C195.574 33.0667 195.542 32.7635 195.542 32.4375C195.542 31.5459 195.788 30.7824 196.28 30.1494C196.772 29.5164 197.413 29.0514 198.201 28.7549C198.99 28.4585 199.88 28.3115 200.872 28.3115ZM98.5635 28.3027C99.9684 28.3027 101.212 28.6351 102.295 29.2871V28.6162H105.622V41.6768H102.295V41.0059C101.212 41.6578 99.9684 41.9902 98.5635 41.9902C96.572 41.9901 94.9043 41.3355 93.5605 40.0254C92.2168 38.7152 91.5459 37.0897 91.5459 35.1465C91.5459 33.2033 92.2189 31.5757 93.5605 30.2676C94.9022 28.9574 96.5699 28.3028 98.5635 28.3027ZM128.156 28.3027C130.15 28.3027 131.818 28.9573 133.162 30.2676C134.504 31.5778 135.177 33.2033 135.177 35.1465C135.177 37.0897 134.506 38.7152 133.162 40.0254C131.818 41.3356 130.15 41.9902 128.156 41.9902C126.163 41.9901 124.493 41.3355 123.147 40.0254C121.799 38.7173 121.126 37.0898 121.126 35.1465C121.126 33.2032 121.799 31.5778 123.147 30.2676C124.493 28.9575 126.163 28.3028 128.156 28.3027ZM174.696 28.3027C176.101 28.3027 177.343 28.6351 178.428 29.2871V28.6162H181.755V41.6768H178.428V41.0059C177.345 41.6578 176.101 41.9902 174.696 41.9902C172.703 41.9902 171.035 41.3356 169.691 40.0254C168.348 38.7152 167.676 37.0898 167.676 35.1465C167.676 33.2032 168.35 31.5757 169.691 30.2676C171.035 28.9574 172.703 28.3028 174.696 28.3027ZM72.46 24C73.728 24 74.9205 24.2249 76.0371 24.6748C77.1538 25.1249 78.1111 25.7413 78.9082 26.5215C79.7052 27.3017 80.3316 28.2377 80.79 29.3291C81.2485 30.4227 81.4785 31.5901 81.4785 32.833C81.4785 34.0759 81.2485 35.2433 80.79 36.3369C80.3316 37.4282 79.7051 38.366 78.9082 39.1504C78.1111 39.9348 77.1539 40.5519 76.0371 41.002C74.9184 41.4519 73.7259 41.6768 72.46 41.6768H65.543V24H72.46ZM91.0283 31.8447H90.4648C89.2809 31.8447 88.3578 32.1706 87.6953 32.8203C87.0307 33.4702 86.7002 34.3538 86.7002 35.4727V41.6768H83.373V28.6162H86.7002V30.3047C87.7012 29.0367 88.9549 28.4043 90.4648 28.4043H91.0283V31.8447ZM144.549 28.3027C146.092 28.3028 147.326 28.7637 148.258 29.6846C149.187 30.6057 149.652 31.834 149.652 33.3691V41.6768H146.312V34.4463C146.312 33.563 146.052 32.8562 145.53 32.3262C145.009 31.7963 144.315 31.5312 143.448 31.5312C142.582 31.5313 141.804 31.8048 141.24 32.3516C140.677 32.8983 140.395 33.6173 140.395 34.5088V41.6768H137.067V28.6162H140.395V30.0674C141.446 28.8917 142.831 28.3027 144.549 28.3027ZM98.5664 31.5312C97.5317 31.5312 96.6751 31.8758 96 32.5635C95.3228 33.2512 94.9863 34.1139 94.9863 35.1465C94.9863 36.1791 95.3249 37.0418 96 37.7295C96.6772 38.4171 97.5422 38.7617 98.5664 38.7617C99.5904 38.7616 100.446 38.4145 101.13 37.7227C101.813 37.0308 102.156 36.1706 102.156 35.1465C102.156 34.1224 101.813 33.2622 101.13 32.5703C100.446 31.8764 99.6009 31.5313 98.5664 31.5312ZM128.156 31.5312C127.122 31.5314 126.276 31.8785 125.593 32.5703C124.909 33.2622 124.566 34.1224 124.566 35.1465C124.566 36.1706 124.909 37.0308 125.593 37.7227C126.276 38.4145 127.132 38.7616 128.156 38.7617C129.191 38.7617 130.045 38.4192 130.723 37.7295C131.398 37.0418 131.736 36.1812 131.736 35.1465C131.736 34.1118 131.4 33.2512 130.723 32.5635C130.048 31.8758 129.191 31.5312 128.156 31.5312ZM159.342 31.5312C158.318 31.5312 157.462 31.8785 156.778 32.5703C156.095 33.2622 155.752 34.1223 155.752 35.1465C155.752 36.1707 156.095 37.0307 156.778 37.7227C157.462 38.4166 158.307 38.7617 159.342 38.7617C160.376 38.7617 161.232 38.417 161.907 37.7295C162.584 37.0418 162.921 36.1791 162.921 35.1465C162.921 34.1139 162.582 33.2512 161.907 32.5635C161.23 31.876 160.366 31.5313 159.342 31.5312ZM174.696 31.5312C173.662 31.5313 172.806 31.876 172.131 32.5635C171.454 33.2512 171.117 34.1139 171.117 35.1465C171.117 36.1791 171.456 37.0418 172.131 37.7295C172.808 38.417 173.672 38.7617 174.696 38.7617C175.72 38.7617 176.576 38.4145 177.26 37.7227C177.943 37.0307 178.286 36.1707 178.286 35.1465C178.286 34.1223 177.943 33.2622 177.26 32.5703C176.576 31.8763 175.731 31.5312 174.696 31.5312ZM69.085 38.3457H72.3867V38.3496C73.9449 38.3496 75.2444 37.8238 76.2832 36.7725C77.3221 35.7209 77.8418 34.4083 77.8418 32.8311C77.8418 31.2538 77.3221 29.9438 76.2832 28.8965C75.2443 27.8492 73.9471 27.3252 72.3867 27.3252H69.085V38.3457ZM113.611 31.4453C112.169 31.4455 110.997 32.6169 110.997 34.0596C110.997 35.502 112.169 36.6727 113.611 36.6729C115.054 36.6729 116.225 35.5021 116.226 34.0596C116.226 32.6168 115.056 31.4453 113.611 31.4453Z" fill="#FAF8F7"/>
<path d="M215.457 27.6152C215.457 29.6132 213.838 31.2305 211.842 31.2305C209.846 31.2305 208.227 29.6111 208.227 27.6152C208.227 25.6194 209.846 24 211.842 24C213.838 24 215.457 25.6194 215.457 27.6152Z" fill="#FA4A3D"/>
</g>
<path d="M24 78.5449C24 74.1266 27.5817 70.5449 32 70.5449H249C253.418 70.5449 257 74.1266 257 78.5449V160.545C257 164.963 253.418 168.545 249 168.545H32C27.5817 168.545 24 164.963 24 160.545V78.5449Z" fill="white"/>
<rect x="115.5" y="115.545" width="8" height="8" rx="4" fill="#0A2333"/>
<rect x="121.5" y="100.545" width="8" height="8" rx="4" fill="#0A2333"/>
<rect x="152.5" y="100.545" width="8" height="8" rx="4" fill="#D53F34"/>
<rect x="121.5" y="130.545" width="8" height="8" rx="4" fill="#0A2333"/>
<rect x="136.5" y="94.5452" width="8" height="8" rx="4" fill="#0A2333"/>
<rect x="165.5" y="123.545" width="8" height="8" rx="4" transform="rotate(-180 165.5 123.545)" fill="#0A2333"/>
<rect x="159.5" y="138.545" width="8" height="8" rx="4" transform="rotate(-180 159.5 138.545)" fill="#0A2333"/>
<rect x="144.5" y="144.545" width="8" height="8" rx="4" transform="rotate(-180 144.5 144.545)" fill="#0A2333"/>
<path d="M98.4577 214.825C97.071 214.825 95.841 214.525 94.7677 213.925C93.701 213.325 92.8643 212.482 92.2577 211.395C91.651 210.302 91.3477 209.018 91.3477 207.545C91.3477 206.072 91.6543 204.792 92.2677 203.705C92.8877 202.612 93.741 201.765 94.8277 201.165C95.9143 200.565 97.151 200.265 98.5377 200.265C99.2577 200.265 99.9343 200.342 100.568 200.495C101.201 200.648 101.754 200.845 102.228 201.085L101.988 203.135C101.488 202.895 100.951 202.695 100.378 202.535C99.8043 202.375 99.1843 202.295 98.5177 202.295C97.4643 202.295 96.5843 202.528 95.8777 202.995C95.171 203.455 94.6343 204.082 94.2677 204.875C93.9077 205.662 93.7277 206.552 93.7277 207.545C93.7277 208.538 93.9043 209.432 94.2577 210.225C94.6177 211.012 95.1477 211.638 95.8477 212.105C96.5543 212.565 97.4277 212.795 98.4677 212.795C99.1543 212.795 99.7777 212.722 100.338 212.575C100.904 212.422 101.454 212.218 101.988 211.965L102.228 214.015C101.714 214.248 101.141 214.442 100.508 214.595C99.881 214.748 99.1977 214.825 98.4577 214.825ZM108.209 214.745C107.162 214.745 106.266 214.515 105.519 214.055C104.779 213.588 104.212 212.968 103.819 212.195C103.432 211.415 103.239 210.555 103.239 209.615C103.239 208.668 103.432 207.805 103.819 207.025C104.212 206.245 104.779 205.625 105.519 205.165C106.266 204.698 107.162 204.465 108.209 204.465C109.262 204.465 110.159 204.698 110.899 205.165C111.646 205.625 112.212 206.245 112.599 207.025C112.992 207.805 113.189 208.668 113.189 209.615C113.189 210.555 112.992 211.415 112.599 212.195C112.212 212.968 111.646 213.588 110.899 214.055C110.159 214.515 109.262 214.745 108.209 214.745ZM108.209 212.955C109.129 212.955 109.832 212.655 110.319 212.055C110.812 211.455 111.059 210.642 111.059 209.615C111.059 208.582 110.812 207.762 110.319 207.155C109.832 206.548 109.129 206.245 108.209 206.245C107.302 206.245 106.602 206.548 106.109 207.155C105.616 207.762 105.369 208.582 105.369 209.615C105.369 210.642 105.616 211.455 106.109 212.055C106.602 212.655 107.302 212.955 108.209 212.955ZM118.941 214.745C118.034 214.745 117.241 214.515 116.561 214.055C115.881 213.588 115.351 212.968 114.971 212.195C114.597 211.422 114.411 210.565 114.411 209.625C114.411 208.712 114.587 207.865 114.941 207.085C115.301 206.298 115.817 205.668 116.491 205.195C117.171 204.715 117.987 204.475 118.941 204.475C119.627 204.475 120.254 204.608 120.821 204.875C121.387 205.142 121.864 205.545 122.251 206.085L121.771 206.455V199.545H123.861V214.545H121.951L121.701 212.625L122.271 213.035C121.911 213.588 121.447 214.012 120.881 214.305C120.314 214.598 119.667 214.745 118.941 214.745ZM119.281 212.955C119.774 212.955 120.221 212.832 120.621 212.585C121.027 212.338 121.347 211.968 121.581 211.475C121.821 210.982 121.941 210.365 121.941 209.625C121.941 208.918 121.821 208.315 121.581 207.815C121.347 207.308 121.027 206.925 120.621 206.665C120.221 206.398 119.774 206.265 119.281 206.265C118.707 206.265 118.214 206.412 117.801 206.705C117.394 206.992 117.081 207.388 116.861 207.895C116.647 208.395 116.541 208.972 116.541 209.625C116.541 210.252 116.647 210.818 116.861 211.325C117.081 211.825 117.394 212.222 117.801 212.515C118.214 212.808 118.707 212.955 119.281 212.955ZM130.981 214.745C129.801 214.745 128.815 214.508 128.021 214.035C127.228 213.555 126.628 212.922 126.221 212.135C125.821 211.342 125.621 210.475 125.621 209.535C125.621 208.622 125.808 207.782 126.181 207.015C126.561 206.248 127.111 205.635 127.831 205.175C128.558 204.708 129.435 204.475 130.461 204.475C131.335 204.475 132.091 204.652 132.731 205.005C133.371 205.358 133.861 205.852 134.201 206.485C134.548 207.118 134.721 207.858 134.721 208.705C134.721 208.878 134.711 209.058 134.691 209.245C134.678 209.432 134.651 209.628 134.611 209.835H127.781C127.868 210.615 128.075 211.235 128.401 211.695C128.728 212.148 129.135 212.472 129.621 212.665C130.108 212.858 130.635 212.955 131.201 212.955C131.708 212.955 132.208 212.898 132.701 212.785C133.195 212.665 133.658 212.495 134.091 212.275L134.281 213.985C133.901 214.165 133.435 214.338 132.881 214.505C132.328 214.665 131.695 214.745 130.981 214.745ZM127.901 208.405H132.581C132.581 208.012 132.508 207.655 132.361 207.335C132.215 207.008 131.981 206.748 131.661 206.555C131.348 206.362 130.941 206.265 130.441 206.265C129.708 206.265 129.138 206.458 128.731 206.845C128.331 207.232 128.055 207.752 127.901 208.405ZM143.797 214.745C143.017 214.745 142.35 214.658 141.797 214.485C141.244 214.312 140.787 214.128 140.427 213.935L140.647 212.035C140.987 212.268 141.417 212.495 141.937 212.715C142.464 212.928 143.057 213.035 143.717 213.035C144.29 213.035 144.727 212.942 145.027 212.755C145.334 212.562 145.487 212.278 145.487 211.905C145.487 211.598 145.397 211.352 145.217 211.165C145.037 210.972 144.8 210.812 144.507 210.685C144.214 210.558 143.904 210.442 143.577 210.335C143.064 210.168 142.577 209.975 142.117 209.755C141.664 209.535 141.294 209.242 141.007 208.875C140.727 208.502 140.587 208.008 140.587 207.395C140.587 206.862 140.72 206.372 140.987 205.925C141.254 205.478 141.657 205.125 142.197 204.865C142.744 204.598 143.437 204.465 144.277 204.465C144.917 204.465 145.46 204.535 145.907 204.675C146.36 204.808 146.764 204.968 147.117 205.155L146.897 207.005C146.544 206.732 146.16 206.505 145.747 206.325C145.34 206.138 144.864 206.045 144.317 206.045C143.81 206.045 143.407 206.145 143.107 206.345C142.807 206.538 142.657 206.835 142.657 207.235C142.657 207.662 142.834 207.972 143.187 208.165C143.54 208.358 144.09 208.582 144.837 208.835C145.177 208.948 145.51 209.085 145.837 209.245C146.164 209.398 146.46 209.585 146.727 209.805C147 210.025 147.217 210.298 147.377 210.625C147.537 210.952 147.617 211.342 147.617 211.795C147.617 212.315 147.49 212.798 147.237 213.245C146.99 213.692 146.587 214.055 146.027 214.335C145.474 214.608 144.73 214.745 143.797 214.745ZM152.676 214.745C152.056 214.745 151.553 214.625 151.166 214.385C150.786 214.145 150.506 213.838 150.326 213.465C150.153 213.092 150.066 212.698 150.066 212.285V206.335H148.496L148.686 204.665H150.066V202.335L152.156 202.115V204.665H154.576V206.335H152.156V211.225C152.156 211.798 152.19 212.215 152.256 212.475C152.323 212.728 152.486 212.888 152.746 212.955C153.006 213.022 153.42 213.055 153.986 213.055H154.546L154.366 214.745H152.676ZM158.373 214.745C157.8 214.745 157.29 214.625 156.843 214.385C156.396 214.138 156.043 213.798 155.783 213.365C155.53 212.932 155.403 212.422 155.403 211.835C155.403 211.275 155.53 210.798 155.783 210.405C156.036 210.005 156.373 209.672 156.793 209.405C157.213 209.138 157.673 208.928 158.173 208.775C158.68 208.615 159.193 208.498 159.713 208.425C160.233 208.352 160.716 208.312 161.163 208.305C161.156 207.525 160.99 206.998 160.663 206.725C160.336 206.445 159.84 206.305 159.173 206.305C158.773 206.305 158.363 206.365 157.943 206.485C157.523 206.598 157.05 206.815 156.523 207.135L156.283 205.435C156.763 205.142 157.3 204.908 157.893 204.735C158.486 204.562 159.1 204.475 159.733 204.475C160.526 204.475 161.183 204.615 161.703 204.895C162.223 205.175 162.613 205.638 162.873 206.285C163.133 206.932 163.263 207.798 163.263 208.885V211.185C163.263 211.665 163.283 212.042 163.323 212.315C163.37 212.582 163.466 212.772 163.613 212.885C163.76 212.998 163.983 213.055 164.283 213.055H164.523L164.263 214.745H163.803C163.31 214.745 162.91 214.692 162.603 214.585C162.303 214.478 162.06 214.328 161.873 214.135C161.686 213.935 161.53 213.698 161.403 213.425C161.05 213.825 160.61 214.145 160.083 214.385C159.563 214.625 158.993 214.745 158.373 214.745ZM159.013 213.105C159.386 213.105 159.77 213.012 160.163 212.825C160.563 212.638 160.9 212.378 161.173 212.045V209.725C160.426 209.758 159.783 209.848 159.243 209.995C158.71 210.135 158.296 210.348 158.003 210.635C157.716 210.922 157.573 211.288 157.573 211.735C157.573 212.215 157.7 212.565 157.953 212.785C158.206 212.998 158.56 213.105 159.013 213.105ZM169.043 214.745C168.423 214.745 167.92 214.625 167.533 214.385C167.153 214.145 166.873 213.838 166.693 213.465C166.52 213.092 166.433 212.698 166.433 212.285V206.335H164.863L165.053 204.665H166.433V202.335L168.523 202.115V204.665H170.943V206.335H168.523V211.225C168.523 211.798 168.557 212.215 168.623 212.475C168.69 212.728 168.853 212.888 169.113 212.955C169.373 213.022 169.787 213.055 170.353 213.055H170.913L170.733 214.745H169.043ZM176.3 214.745C175.414 214.745 174.684 214.568 174.11 214.215C173.537 213.862 173.11 213.348 172.83 212.675C172.55 212.002 172.41 211.185 172.41 210.225V204.665H174.5V209.935C174.5 210.928 174.667 211.678 175 212.185C175.34 212.692 175.894 212.945 176.66 212.945C177.214 212.945 177.704 212.812 178.13 212.545C178.564 212.278 178.884 211.872 179.09 211.325L178.75 212.425V204.665H180.84V214.545H178.94L178.68 212.705L179.18 213.185C178.894 213.665 178.504 214.045 178.01 214.325C177.524 214.605 176.954 214.745 176.3 214.745ZM186.043 214.745C185.263 214.745 184.596 214.658 184.043 214.485C183.49 214.312 183.033 214.128 182.673 213.935L182.893 212.035C183.233 212.268 183.663 212.495 184.183 212.715C184.71 212.928 185.303 213.035 185.963 213.035C186.536 213.035 186.973 212.942 187.273 212.755C187.58 212.562 187.733 212.278 187.733 211.905C187.733 211.598 187.643 211.352 187.463 211.165C187.283 210.972 187.046 210.812 186.753 210.685C186.46 210.558 186.15 210.442 185.823 210.335C185.31 210.168 184.823 209.975 184.363 209.755C183.91 209.535 183.54 209.242 183.253 208.875C182.973 208.502 182.833 208.008 182.833 207.395C182.833 206.862 182.966 206.372 183.233 205.925C183.5 205.478 183.903 205.125 184.443 204.865C184.99 204.598 185.683 204.465 186.523 204.465C187.163 204.465 187.706 204.535 188.153 204.675C188.606 204.808 189.01 204.968 189.363 205.155L189.143 207.005C188.79 206.732 188.406 206.505 187.993 206.325C187.586 206.138 187.11 206.045 186.563 206.045C186.056 206.045 185.653 206.145 185.353 206.345C185.053 206.538 184.903 206.835 184.903 207.235C184.903 207.662 185.08 207.972 185.433 208.165C185.786 208.358 186.336 208.582 187.083 208.835C187.423 208.948 187.756 209.085 188.083 209.245C188.41 209.398 188.706 209.585 188.973 209.805C189.246 210.025 189.463 210.298 189.623 210.625C189.783 210.952 189.863 211.342 189.863 211.795C189.863 212.315 189.736 212.798 189.483 213.245C189.236 213.692 188.833 214.055 188.273 214.335C187.72 214.608 186.976 214.745 186.043 214.745Z" fill="white"/>
<defs>
<clipPath id="clip0_5609_12614">
<rect width="149.914" height="22.5449" fill="white" transform="translate(65.543 24)"/>
</clipPath>
</defs>
</svg>
