<svg width="281" height="237" viewBox="0 0 281 237" fill="none" xmlns="http://www.w3.org/2000/svg">
<path d="M0 8C0 3.58172 3.58172 0 8 0H273C277.418 0 281 3.58172 281 8V228.545C281 232.963 277.418 236.545 273 236.545H8C3.58172 236.545 0 232.963 0 228.545V8Z" fill="white"/>
<g clip-path="url(#clip0_7603_3786)">
<path d="M120.754 29.0605L118.853 30.9609L118.933 31.0977C120.033 32.961 120.093 35.0264 119.101 36.7656C118.034 38.6353 115.961 39.7988 113.689 39.7988C113.038 39.7988 112.379 39.7039 111.729 39.5146L111.644 39.4893L111.565 39.5361C110.92 39.9252 110.774 40.6105 110.915 41.1152C111.077 41.6956 111.582 42.0722 112.2 42.0723L113.515 42.0742C117.679 42.0742 120.702 41.4326 121.339 46.5449H117.808C117.61 45.5884 116.756 45.2393 115.726 45.2393H111.447C110.192 45.2392 109.101 44.8352 108.373 44.1055C107.761 43.4893 107.439 42.6632 107.443 41.7148C107.431 40.3648 108.127 39.0398 109.176 38.415L109.407 38.2764L109.212 38.0908C108.089 37.0162 107.519 35.6662 107.519 34.0723C107.489 32.5896 108.009 31.2641 109.021 30.2314C110.186 29.0432 111.883 28.3624 113.679 28.3623C114.493 28.3623 115.282 28.5028 116.028 28.7783L116.15 28.8242L118.333 26.6396L120.754 29.0605ZM159.342 28.3027C161.335 28.3028 163.003 28.9574 164.347 30.2676C165.691 31.5778 166.361 33.2032 166.361 35.1465C166.361 37.0898 165.688 38.7173 164.347 40.0254C163.003 41.3356 161.335 41.9902 159.342 41.9902C157.937 41.9902 156.696 41.6578 155.61 41.0059V46.543H152.283V28.6162H155.61V29.2871C156.693 28.6351 157.937 28.3027 159.342 28.3027ZM188.949 28.3115C190.876 28.3115 192.564 28.8834 194.016 30.0254L192.402 32.2529C191.334 31.4516 190.208 31.0518 189.024 31.0518C188.425 31.0518 187.931 31.1486 187.549 31.3398C187.166 31.5312 186.973 31.8109 186.973 32.1768C186.973 32.3849 187.031 32.5661 187.146 32.7217C187.262 32.8772 187.456 33.0097 187.723 33.1211C187.99 33.2325 188.249 33.325 188.499 33.3965C188.749 33.468 189.094 33.5481 189.538 33.6406C189.921 33.7247 190.23 33.7967 190.464 33.8535C190.697 33.9124 191.002 34.0028 191.376 34.1289C191.752 34.2529 192.057 34.3789 192.295 34.5029C192.533 34.6291 192.792 34.7974 193.071 35.0098C193.351 35.2222 193.57 35.4496 193.728 35.6914C193.885 35.9332 194.022 36.2301 194.134 36.5791C194.247 36.9302 194.302 37.309 194.302 37.7168C194.302 38.6084 194.051 39.3848 193.551 40.043C193.05 40.7011 192.384 41.1931 191.549 41.5127C190.714 41.8345 189.767 41.9941 188.709 41.9941L188.32 41.9863C186.368 41.9083 184.663 41.2442 183.21 39.9922L184.823 37.79C185.934 38.7573 187.204 39.2412 188.638 39.2412C189.321 39.2412 189.879 39.1316 190.308 38.915C190.737 38.6984 190.951 38.3974 190.951 38.0146C190.951 37.8066 190.89 37.6215 190.771 37.4639C190.651 37.3062 190.455 37.1674 190.188 37.0518C189.921 36.9341 189.664 36.8393 189.418 36.7637C189.172 36.688 188.827 36.6019 188.386 36.501C188.085 36.4337 187.847 36.3809 187.673 36.3389C187.498 36.2968 187.258 36.2317 186.953 36.1455C186.648 36.0593 186.402 35.9771 186.215 35.9014C186.028 35.8257 185.804 35.725 185.546 35.5947C185.287 35.4665 185.077 35.3336 184.913 35.2012C184.751 35.0687 184.581 34.9042 184.4 34.7129C184.222 34.5216 184.079 34.318 183.976 34.1016C183.87 33.885 183.786 33.6344 183.719 33.3506C183.651 33.0667 183.62 32.7635 183.62 32.4375C183.62 31.5459 183.866 30.7824 184.358 30.1494C184.851 29.5165 185.49 29.0514 186.278 28.7549C187.067 28.4584 187.957 28.3115 188.949 28.3115ZM200.872 28.3115C202.798 28.3116 204.487 28.8835 205.938 30.0254L204.325 32.2529C203.257 31.4516 202.131 31.0518 200.947 31.0518C200.348 31.0518 199.853 31.1485 199.471 31.3398C199.088 31.5312 198.895 31.811 198.895 32.1768C198.895 32.385 198.954 32.566 199.069 32.7217C199.185 32.8773 199.378 33.0097 199.646 33.1211C199.913 33.2326 200.172 33.325 200.422 33.3965C200.672 33.468 201.017 33.5481 201.461 33.6406C201.844 33.7247 202.152 33.7968 202.386 33.8535C202.619 33.9124 202.924 34.0027 203.299 34.1289C203.675 34.253 203.98 34.3789 204.218 34.5029C204.455 34.6291 204.714 34.7974 204.994 35.0098C205.274 35.2221 205.493 35.4496 205.65 35.6914C205.808 35.9332 205.944 36.2302 206.056 36.5791C206.169 36.9302 206.227 37.3089 206.227 37.7168C206.227 38.6084 205.976 39.3848 205.476 40.043C204.975 40.7011 204.308 41.1931 203.474 41.5127C202.639 41.8345 201.692 41.9941 200.634 41.9941L200.242 41.9863C198.29 41.9082 196.585 41.2442 195.132 39.9922L196.745 37.79C197.856 38.7575 199.126 39.2412 200.561 39.2412C201.244 39.2412 201.801 39.1316 202.23 38.915C202.659 38.6984 202.874 38.3973 202.874 38.0146C202.874 37.8066 202.813 37.6215 202.693 37.4639C202.573 37.3061 202.377 37.1674 202.11 37.0518C201.843 36.934 201.587 36.8394 201.341 36.7637C201.095 36.688 200.749 36.6019 200.308 36.501C200.007 36.4337 199.769 36.3809 199.595 36.3389C199.42 36.2968 199.181 36.2317 198.876 36.1455C198.571 36.0593 198.325 35.9771 198.138 35.9014C197.951 35.8257 197.727 35.7251 197.469 35.5947C197.21 35.4665 197 35.3336 196.836 35.2012C196.674 35.0687 196.503 34.9043 196.322 34.7129C196.144 34.5217 196 34.318 195.897 34.1016C195.792 33.885 195.709 33.6344 195.642 33.3506C195.574 33.0667 195.542 32.7635 195.542 32.4375C195.542 31.5459 195.788 30.7824 196.28 30.1494C196.772 29.5164 197.413 29.0514 198.201 28.7549C198.99 28.4585 199.88 28.3115 200.872 28.3115ZM98.5635 28.3027C99.9684 28.3027 101.212 28.6351 102.295 29.2871V28.6162H105.622V41.6768H102.295V41.0059C101.212 41.6578 99.9684 41.9902 98.5635 41.9902C96.572 41.9901 94.9043 41.3355 93.5605 40.0254C92.2168 38.7152 91.5459 37.0897 91.5459 35.1465C91.5459 33.2033 92.2189 31.5757 93.5605 30.2676C94.9022 28.9574 96.5699 28.3028 98.5635 28.3027ZM128.156 28.3027C130.15 28.3027 131.818 28.9573 133.162 30.2676C134.504 31.5778 135.177 33.2033 135.177 35.1465C135.177 37.0897 134.506 38.7152 133.162 40.0254C131.818 41.3356 130.15 41.9902 128.156 41.9902C126.163 41.9901 124.493 41.3355 123.147 40.0254C121.799 38.7173 121.126 37.0898 121.126 35.1465C121.126 33.2032 121.799 31.5778 123.147 30.2676C124.493 28.9575 126.163 28.3028 128.156 28.3027ZM174.696 28.3027C176.101 28.3027 177.343 28.6351 178.428 29.2871V28.6162H181.755V41.6768H178.428V41.0059C177.345 41.6578 176.101 41.9902 174.696 41.9902C172.703 41.9902 171.035 41.3356 169.691 40.0254C168.348 38.7152 167.676 37.0898 167.676 35.1465C167.676 33.2032 168.35 31.5757 169.691 30.2676C171.035 28.9574 172.703 28.3028 174.696 28.3027ZM72.46 24C73.728 24 74.9205 24.2249 76.0371 24.6748C77.1538 25.1249 78.1111 25.7413 78.9082 26.5215C79.7052 27.3017 80.3316 28.2377 80.79 29.3291C81.2485 30.4227 81.4785 31.5901 81.4785 32.833C81.4785 34.0759 81.2485 35.2433 80.79 36.3369C80.3316 37.4282 79.7051 38.366 78.9082 39.1504C78.1111 39.9348 77.1539 40.5519 76.0371 41.002C74.9184 41.4519 73.7259 41.6768 72.46 41.6768H65.543V24H72.46ZM91.0283 31.8447H90.4648C89.2809 31.8447 88.3578 32.1706 87.6953 32.8203C87.0307 33.4702 86.7002 34.3538 86.7002 35.4727V41.6768H83.373V28.6162H86.7002V30.3047C87.7012 29.0367 88.9549 28.4043 90.4648 28.4043H91.0283V31.8447ZM144.549 28.3027C146.092 28.3028 147.326 28.7637 148.258 29.6846C149.187 30.6057 149.652 31.834 149.652 33.3691V41.6768H146.312V34.4463C146.312 33.563 146.052 32.8562 145.53 32.3262C145.009 31.7963 144.315 31.5312 143.448 31.5312C142.582 31.5313 141.804 31.8048 141.24 32.3516C140.677 32.8983 140.395 33.6173 140.395 34.5088V41.6768H137.067V28.6162H140.395V30.0674C141.446 28.8917 142.831 28.3027 144.549 28.3027ZM98.5664 31.5312C97.5317 31.5312 96.6751 31.8758 96 32.5635C95.3228 33.2512 94.9863 34.1139 94.9863 35.1465C94.9863 36.1791 95.3249 37.0418 96 37.7295C96.6772 38.4171 97.5422 38.7617 98.5664 38.7617C99.5904 38.7616 100.446 38.4145 101.13 37.7227C101.813 37.0308 102.156 36.1706 102.156 35.1465C102.156 34.1224 101.813 33.2622 101.13 32.5703C100.446 31.8764 99.6009 31.5313 98.5664 31.5312ZM128.156 31.5312C127.122 31.5314 126.276 31.8785 125.593 32.5703C124.909 33.2622 124.566 34.1224 124.566 35.1465C124.566 36.1706 124.909 37.0308 125.593 37.7227C126.276 38.4145 127.132 38.7616 128.156 38.7617C129.191 38.7617 130.045 38.4192 130.723 37.7295C131.398 37.0418 131.736 36.1812 131.736 35.1465C131.736 34.1118 131.4 33.2512 130.723 32.5635C130.048 31.8758 129.191 31.5312 128.156 31.5312ZM159.342 31.5312C158.318 31.5312 157.462 31.8785 156.778 32.5703C156.095 33.2622 155.752 34.1223 155.752 35.1465C155.752 36.1707 156.095 37.0307 156.778 37.7227C157.462 38.4166 158.307 38.7617 159.342 38.7617C160.376 38.7617 161.232 38.417 161.907 37.7295C162.584 37.0418 162.921 36.1791 162.921 35.1465C162.921 34.1139 162.582 33.2512 161.907 32.5635C161.23 31.876 160.366 31.5313 159.342 31.5312ZM174.696 31.5312C173.662 31.5313 172.806 31.876 172.131 32.5635C171.454 33.2512 171.117 34.1139 171.117 35.1465C171.117 36.1791 171.456 37.0418 172.131 37.7295C172.808 38.417 173.672 38.7617 174.696 38.7617C175.72 38.7617 176.576 38.4145 177.26 37.7227C177.943 37.0307 178.286 36.1707 178.286 35.1465C178.286 34.1223 177.943 33.2622 177.26 32.5703C176.576 31.8763 175.731 31.5312 174.696 31.5312ZM69.085 38.3457H72.3867V38.3496C73.9449 38.3496 75.2444 37.8238 76.2832 36.7725C77.3221 35.7209 77.8418 34.4083 77.8418 32.8311C77.8418 31.2538 77.3221 29.9438 76.2832 28.8965C75.2443 27.8492 73.9471 27.3252 72.3867 27.3252H69.085V38.3457ZM113.611 31.4453C112.169 31.4455 110.997 32.6169 110.997 34.0596C110.997 35.502 112.169 36.6727 113.611 36.6729C115.054 36.6729 116.225 35.5021 116.226 34.0596C116.226 32.6168 115.056 31.4453 113.611 31.4453Z" fill="#0A2333"/>
<path d="M215.457 27.6152C215.457 29.6132 213.838 31.2305 211.842 31.2305C209.846 31.2305 208.227 29.6111 208.227 27.6152C208.227 25.6194 209.846 24 211.842 24C213.838 24 215.457 25.6194 215.457 27.6152Z" fill="#FA4A3D"/>
</g>
<path d="M24 78.5449C24 74.1266 27.5817 70.5449 32 70.5449H249C253.418 70.5449 257 74.1266 257 78.5449V150.545C257 154.963 253.418 158.545 249 158.545H32C27.5817 158.545 24 154.963 24 150.545V78.5449Z" fill="#0A2333" fill-opacity="0.04"/>
<path d="M136.94 99.2499C138.503 96.5321 142.493 96.5324 144.056 99.2499L158.632 124.56L158.634 124.564C160.193 127.286 158.145 130.544 155.076 130.545H125.921C122.852 130.544 120.805 127.286 122.364 124.564L122.366 124.56L136.94 99.2499ZM141.744 100.58C141.24 99.704 139.964 99.6487 139.364 100.415L139.252 100.58L124.676 125.892L124.675 125.89C124.193 126.735 124.786 127.878 125.921 127.879H155.076C156.211 127.878 156.802 126.737 156.322 125.892L141.744 100.58ZM140.498 121.212C141.602 121.212 142.498 122.107 142.498 123.212C142.498 124.316 141.602 125.212 140.498 125.212C139.393 125.212 138.498 124.316 138.498 123.212C138.498 122.107 139.393 121.212 140.498 121.212ZM140.498 109.212C141.234 109.212 141.831 109.809 141.831 110.546V117.212C141.831 117.948 141.234 118.545 140.498 118.545C139.761 118.545 139.165 117.948 139.165 117.212V110.546C139.165 109.809 139.761 109.212 140.498 109.212Z" fill="#E02D3C"/>
<path d="M98.4577 204.825C97.071 204.825 95.841 204.525 94.7677 203.925C93.701 203.325 92.8643 202.482 92.2577 201.395C91.651 200.302 91.3477 199.018 91.3477 197.545C91.3477 196.072 91.6543 194.792 92.2677 193.705C92.8877 192.612 93.741 191.765 94.8277 191.165C95.9143 190.565 97.151 190.265 98.5377 190.265C99.2577 190.265 99.9343 190.342 100.568 190.495C101.201 190.648 101.754 190.845 102.228 191.085L101.988 193.135C101.488 192.895 100.951 192.695 100.378 192.535C99.8043 192.375 99.1843 192.295 98.5177 192.295C97.4643 192.295 96.5843 192.528 95.8777 192.995C95.171 193.455 94.6343 194.082 94.2677 194.875C93.9077 195.662 93.7277 196.552 93.7277 197.545C93.7277 198.538 93.9043 199.432 94.2577 200.225C94.6177 201.012 95.1477 201.638 95.8477 202.105C96.5543 202.565 97.4277 202.795 98.4677 202.795C99.1543 202.795 99.7777 202.722 100.338 202.575C100.904 202.422 101.454 202.218 101.988 201.965L102.228 204.015C101.714 204.248 101.141 204.442 100.508 204.595C99.881 204.748 99.1977 204.825 98.4577 204.825ZM108.209 204.745C107.162 204.745 106.266 204.515 105.519 204.055C104.779 203.588 104.212 202.968 103.819 202.195C103.432 201.415 103.239 200.555 103.239 199.615C103.239 198.668 103.432 197.805 103.819 197.025C104.212 196.245 104.779 195.625 105.519 195.165C106.266 194.698 107.162 194.465 108.209 194.465C109.262 194.465 110.159 194.698 110.899 195.165C111.646 195.625 112.212 196.245 112.599 197.025C112.992 197.805 113.189 198.668 113.189 199.615C113.189 200.555 112.992 201.415 112.599 202.195C112.212 202.968 111.646 203.588 110.899 204.055C110.159 204.515 109.262 204.745 108.209 204.745ZM108.209 202.955C109.129 202.955 109.832 202.655 110.319 202.055C110.812 201.455 111.059 200.642 111.059 199.615C111.059 198.582 110.812 197.762 110.319 197.155C109.832 196.548 109.129 196.245 108.209 196.245C107.302 196.245 106.602 196.548 106.109 197.155C105.616 197.762 105.369 198.582 105.369 199.615C105.369 200.642 105.616 201.455 106.109 202.055C106.602 202.655 107.302 202.955 108.209 202.955ZM118.941 204.745C118.034 204.745 117.241 204.515 116.561 204.055C115.881 203.588 115.351 202.968 114.971 202.195C114.597 201.422 114.411 200.565 114.411 199.625C114.411 198.712 114.587 197.865 114.941 197.085C115.301 196.298 115.817 195.668 116.491 195.195C117.171 194.715 117.987 194.475 118.941 194.475C119.627 194.475 120.254 194.608 120.821 194.875C121.387 195.142 121.864 195.545 122.251 196.085L121.771 196.455V189.545H123.861V204.545H121.951L121.701 202.625L122.271 203.035C121.911 203.588 121.447 204.012 120.881 204.305C120.314 204.598 119.667 204.745 118.941 204.745ZM119.281 202.955C119.774 202.955 120.221 202.832 120.621 202.585C121.027 202.338 121.347 201.968 121.581 201.475C121.821 200.982 121.941 200.365 121.941 199.625C121.941 198.918 121.821 198.315 121.581 197.815C121.347 197.308 121.027 196.925 120.621 196.665C120.221 196.398 119.774 196.265 119.281 196.265C118.707 196.265 118.214 196.412 117.801 196.705C117.394 196.992 117.081 197.388 116.861 197.895C116.647 198.395 116.541 198.972 116.541 199.625C116.541 200.252 116.647 200.818 116.861 201.325C117.081 201.825 117.394 202.222 117.801 202.515C118.214 202.808 118.707 202.955 119.281 202.955ZM130.981 204.745C129.801 204.745 128.815 204.508 128.021 204.035C127.228 203.555 126.628 202.922 126.221 202.135C125.821 201.342 125.621 200.475 125.621 199.535C125.621 198.622 125.808 197.782 126.181 197.015C126.561 196.248 127.111 195.635 127.831 195.175C128.558 194.708 129.435 194.475 130.461 194.475C131.335 194.475 132.091 194.652 132.731 195.005C133.371 195.358 133.861 195.852 134.201 196.485C134.548 197.118 134.721 197.858 134.721 198.705C134.721 198.878 134.711 199.058 134.691 199.245C134.678 199.432 134.651 199.628 134.611 199.835H127.781C127.868 200.615 128.075 201.235 128.401 201.695C128.728 202.148 129.135 202.472 129.621 202.665C130.108 202.858 130.635 202.955 131.201 202.955C131.708 202.955 132.208 202.898 132.701 202.785C133.195 202.665 133.658 202.495 134.091 202.275L134.281 203.985C133.901 204.165 133.435 204.338 132.881 204.505C132.328 204.665 131.695 204.745 130.981 204.745ZM127.901 198.405H132.581C132.581 198.012 132.508 197.655 132.361 197.335C132.215 197.008 131.981 196.748 131.661 196.555C131.348 196.362 130.941 196.265 130.441 196.265C129.708 196.265 129.138 196.458 128.731 196.845C128.331 197.232 128.055 197.752 127.901 198.405ZM143.797 204.745C143.017 204.745 142.35 204.658 141.797 204.485C141.244 204.312 140.787 204.128 140.427 203.935L140.647 202.035C140.987 202.268 141.417 202.495 141.937 202.715C142.464 202.928 143.057 203.035 143.717 203.035C144.29 203.035 144.727 202.942 145.027 202.755C145.334 202.562 145.487 202.278 145.487 201.905C145.487 201.598 145.397 201.352 145.217 201.165C145.037 200.972 144.8 200.812 144.507 200.685C144.214 200.558 143.904 200.442 143.577 200.335C143.064 200.168 142.577 199.975 142.117 199.755C141.664 199.535 141.294 199.242 141.007 198.875C140.727 198.502 140.587 198.008 140.587 197.395C140.587 196.862 140.72 196.372 140.987 195.925C141.254 195.478 141.657 195.125 142.197 194.865C142.744 194.598 143.437 194.465 144.277 194.465C144.917 194.465 145.46 194.535 145.907 194.675C146.36 194.808 146.764 194.968 147.117 195.155L146.897 197.005C146.544 196.732 146.16 196.505 145.747 196.325C145.34 196.138 144.864 196.045 144.317 196.045C143.81 196.045 143.407 196.145 143.107 196.345C142.807 196.538 142.657 196.835 142.657 197.235C142.657 197.662 142.834 197.972 143.187 198.165C143.54 198.358 144.09 198.582 144.837 198.835C145.177 198.948 145.51 199.085 145.837 199.245C146.164 199.398 146.46 199.585 146.727 199.805C147 200.025 147.217 200.298 147.377 200.625C147.537 200.952 147.617 201.342 147.617 201.795C147.617 202.315 147.49 202.798 147.237 203.245C146.99 203.692 146.587 204.055 146.027 204.335C145.474 204.608 144.73 204.745 143.797 204.745ZM152.676 204.745C152.056 204.745 151.553 204.625 151.166 204.385C150.786 204.145 150.506 203.838 150.326 203.465C150.153 203.092 150.066 202.698 150.066 202.285V196.335H148.496L148.686 194.665H150.066V192.335L152.156 192.115V194.665H154.576V196.335H152.156V201.225C152.156 201.798 152.19 202.215 152.256 202.475C152.323 202.728 152.486 202.888 152.746 202.955C153.006 203.022 153.42 203.055 153.986 203.055H154.546L154.366 204.745H152.676ZM158.373 204.745C157.8 204.745 157.29 204.625 156.843 204.385C156.396 204.138 156.043 203.798 155.783 203.365C155.53 202.932 155.403 202.422 155.403 201.835C155.403 201.275 155.53 200.798 155.783 200.405C156.036 200.005 156.373 199.672 156.793 199.405C157.213 199.138 157.673 198.928 158.173 198.775C158.68 198.615 159.193 198.498 159.713 198.425C160.233 198.352 160.716 198.312 161.163 198.305C161.156 197.525 160.99 196.998 160.663 196.725C160.336 196.445 159.84 196.305 159.173 196.305C158.773 196.305 158.363 196.365 157.943 196.485C157.523 196.598 157.05 196.815 156.523 197.135L156.283 195.435C156.763 195.142 157.3 194.908 157.893 194.735C158.486 194.562 159.1 194.475 159.733 194.475C160.526 194.475 161.183 194.615 161.703 194.895C162.223 195.175 162.613 195.638 162.873 196.285C163.133 196.932 163.263 197.798 163.263 198.885V201.185C163.263 201.665 163.283 202.042 163.323 202.315C163.37 202.582 163.466 202.772 163.613 202.885C163.76 202.998 163.983 203.055 164.283 203.055H164.523L164.263 204.745H163.803C163.31 204.745 162.91 204.692 162.603 204.585C162.303 204.478 162.06 204.328 161.873 204.135C161.686 203.935 161.53 203.698 161.403 203.425C161.05 203.825 160.61 204.145 160.083 204.385C159.563 204.625 158.993 204.745 158.373 204.745ZM159.013 203.105C159.386 203.105 159.77 203.012 160.163 202.825C160.563 202.638 160.9 202.378 161.173 202.045V199.725C160.426 199.758 159.783 199.848 159.243 199.995C158.71 200.135 158.296 200.348 158.003 200.635C157.716 200.922 157.573 201.288 157.573 201.735C157.573 202.215 157.7 202.565 157.953 202.785C158.206 202.998 158.56 203.105 159.013 203.105ZM169.043 204.745C168.423 204.745 167.92 204.625 167.533 204.385C167.153 204.145 166.873 203.838 166.693 203.465C166.52 203.092 166.433 202.698 166.433 202.285V196.335H164.863L165.053 194.665H166.433V192.335L168.523 192.115V194.665H170.943V196.335H168.523V201.225C168.523 201.798 168.557 202.215 168.623 202.475C168.69 202.728 168.853 202.888 169.113 202.955C169.373 203.022 169.787 203.055 170.353 203.055H170.913L170.733 204.745H169.043ZM176.3 204.745C175.414 204.745 174.684 204.568 174.11 204.215C173.537 203.862 173.11 203.348 172.83 202.675C172.55 202.002 172.41 201.185 172.41 200.225V194.665H174.5V199.935C174.5 200.928 174.667 201.678 175 202.185C175.34 202.692 175.894 202.945 176.66 202.945C177.214 202.945 177.704 202.812 178.13 202.545C178.564 202.278 178.884 201.872 179.09 201.325L178.75 202.425V194.665H180.84V204.545H178.94L178.68 202.705L179.18 203.185C178.894 203.665 178.504 204.045 178.01 204.325C177.524 204.605 176.954 204.745 176.3 204.745ZM186.043 204.745C185.263 204.745 184.596 204.658 184.043 204.485C183.49 204.312 183.033 204.128 182.673 203.935L182.893 202.035C183.233 202.268 183.663 202.495 184.183 202.715C184.71 202.928 185.303 203.035 185.963 203.035C186.536 203.035 186.973 202.942 187.273 202.755C187.58 202.562 187.733 202.278 187.733 201.905C187.733 201.598 187.643 201.352 187.463 201.165C187.283 200.972 187.046 200.812 186.753 200.685C186.46 200.558 186.15 200.442 185.823 200.335C185.31 200.168 184.823 199.975 184.363 199.755C183.91 199.535 183.54 199.242 183.253 198.875C182.973 198.502 182.833 198.008 182.833 197.395C182.833 196.862 182.966 196.372 183.233 195.925C183.5 195.478 183.903 195.125 184.443 194.865C184.99 194.598 185.683 194.465 186.523 194.465C187.163 194.465 187.706 194.535 188.153 194.675C188.606 194.808 189.01 194.968 189.363 195.155L189.143 197.005C188.79 196.732 188.406 196.505 187.993 196.325C187.586 196.138 187.11 196.045 186.563 196.045C186.056 196.045 185.653 196.145 185.353 196.345C185.053 196.538 184.903 196.835 184.903 197.235C184.903 197.662 185.08 197.972 185.433 198.165C185.786 198.358 186.336 198.582 187.083 198.835C187.423 198.948 187.756 199.085 188.083 199.245C188.41 199.398 188.706 199.585 188.973 199.805C189.246 200.025 189.463 200.298 189.623 200.625C189.783 200.952 189.863 201.342 189.863 201.795C189.863 202.315 189.736 202.798 189.483 203.245C189.236 203.692 188.833 204.055 188.273 204.335C187.72 204.608 186.976 204.745 186.043 204.745Z" fill="#4B4A4A"/>
<defs>
<clipPath id="clip0_7603_3786">
<rect width="149.914" height="22.5449" fill="white" transform="translate(65.543 24)"/>
</clipPath>
</defs>
</svg>
