<svg width="281" height="295" viewBox="0 0 281 295" fill="none" xmlns="http://www.w3.org/2000/svg">
<path d="M0 7.99999C0 3.58172 3.58172 0 8 0H273C277.418 0 281 3.58172 281 8V286.545C281 290.963 277.418 294.545 273 294.545H8C3.58172 294.545 0 290.963 0 286.545V7.99999Z" fill="#0A2333"/>
<g clip-path="url(#clip0_3570_10199)">
<path d="M120.754 29.0605L118.853 30.9609L118.933 31.0977C120.033 32.961 120.093 35.0264 119.101 36.7656C118.034 38.6353 115.961 39.7988 113.689 39.7988C113.038 39.7988 112.379 39.7039 111.729 39.5146L111.644 39.4893L111.565 39.5361C110.92 39.9252 110.774 40.6105 110.915 41.1152C111.077 41.6956 111.582 42.0722 112.2 42.0723L113.515 42.0742C117.679 42.0742 120.702 41.4326 121.339 46.5449H117.808C117.61 45.5884 116.756 45.2393 115.726 45.2393H111.447C110.192 45.2392 109.101 44.8352 108.373 44.1055C107.761 43.4893 107.439 42.6632 107.443 41.7148C107.431 40.3648 108.127 39.0398 109.176 38.415L109.407 38.2764L109.212 38.0908C108.089 37.0162 107.519 35.6662 107.519 34.0723C107.489 32.5896 108.009 31.2641 109.021 30.2314C110.186 29.0432 111.883 28.3624 113.679 28.3623C114.493 28.3623 115.282 28.5028 116.028 28.7783L116.15 28.8242L118.333 26.6396L120.754 29.0605ZM159.342 28.3027C161.335 28.3028 163.003 28.9574 164.347 30.2676C165.691 31.5778 166.361 33.2032 166.361 35.1465C166.361 37.0898 165.688 38.7173 164.347 40.0254C163.003 41.3356 161.335 41.9902 159.342 41.9902C157.937 41.9902 156.696 41.6578 155.61 41.0059V46.543H152.283V28.6162H155.61V29.2871C156.693 28.6351 157.937 28.3027 159.342 28.3027ZM188.949 28.3115C190.876 28.3115 192.564 28.8834 194.016 30.0254L192.402 32.2529C191.334 31.4516 190.208 31.0518 189.024 31.0518C188.425 31.0518 187.931 31.1486 187.549 31.3398C187.166 31.5312 186.973 31.8109 186.973 32.1768C186.973 32.3849 187.031 32.5661 187.146 32.7217C187.262 32.8772 187.456 33.0097 187.723 33.1211C187.99 33.2325 188.249 33.325 188.499 33.3965C188.749 33.468 189.094 33.5481 189.538 33.6406C189.921 33.7247 190.23 33.7967 190.464 33.8535C190.697 33.9124 191.002 34.0028 191.376 34.1289C191.752 34.2529 192.057 34.3789 192.295 34.5029C192.533 34.6291 192.792 34.7974 193.071 35.0098C193.351 35.2222 193.57 35.4496 193.728 35.6914C193.885 35.9332 194.022 36.2301 194.134 36.5791C194.247 36.9302 194.302 37.309 194.302 37.7168C194.302 38.6084 194.051 39.3848 193.551 40.043C193.05 40.7011 192.384 41.1931 191.549 41.5127C190.714 41.8345 189.767 41.9941 188.709 41.9941L188.32 41.9863C186.368 41.9083 184.663 41.2442 183.21 39.9922L184.823 37.79C185.934 38.7573 187.204 39.2412 188.638 39.2412C189.321 39.2412 189.879 39.1316 190.308 38.915C190.737 38.6984 190.951 38.3974 190.951 38.0146C190.951 37.8066 190.89 37.6215 190.771 37.4639C190.651 37.3062 190.455 37.1674 190.188 37.0518C189.921 36.9341 189.664 36.8393 189.418 36.7637C189.172 36.688 188.827 36.6019 188.386 36.501C188.085 36.4337 187.847 36.3809 187.673 36.3389C187.498 36.2968 187.258 36.2317 186.953 36.1455C186.648 36.0593 186.402 35.9771 186.215 35.9014C186.028 35.8257 185.804 35.725 185.546 35.5947C185.287 35.4665 185.077 35.3336 184.913 35.2012C184.751 35.0687 184.581 34.9042 184.4 34.7129C184.222 34.5216 184.079 34.318 183.976 34.1016C183.87 33.885 183.786 33.6344 183.719 33.3506C183.651 33.0667 183.62 32.7635 183.62 32.4375C183.62 31.5459 183.866 30.7824 184.358 30.1494C184.851 29.5165 185.49 29.0514 186.278 28.7549C187.067 28.4584 187.957 28.3115 188.949 28.3115ZM200.872 28.3115C202.798 28.3116 204.487 28.8835 205.938 30.0254L204.325 32.2529C203.257 31.4516 202.131 31.0518 200.947 31.0518C200.348 31.0518 199.853 31.1485 199.471 31.3398C199.088 31.5312 198.895 31.811 198.895 32.1768C198.895 32.385 198.954 32.566 199.069 32.7217C199.185 32.8773 199.378 33.0097 199.646 33.1211C199.913 33.2326 200.172 33.325 200.422 33.3965C200.672 33.468 201.017 33.5481 201.461 33.6406C201.844 33.7247 202.152 33.7968 202.386 33.8535C202.619 33.9124 202.924 34.0027 203.299 34.1289C203.675 34.253 203.98 34.3789 204.218 34.5029C204.455 34.6291 204.714 34.7974 204.994 35.0098C205.274 35.2221 205.493 35.4496 205.65 35.6914C205.808 35.9332 205.944 36.2302 206.056 36.5791C206.169 36.9302 206.227 37.3089 206.227 37.7168C206.227 38.6084 205.976 39.3848 205.476 40.043C204.975 40.7011 204.308 41.1931 203.474 41.5127C202.639 41.8345 201.692 41.9941 200.634 41.9941L200.242 41.9863C198.29 41.9082 196.585 41.2442 195.132 39.9922L196.745 37.79C197.856 38.7575 199.126 39.2412 200.561 39.2412C201.244 39.2412 201.801 39.1316 202.23 38.915C202.659 38.6984 202.874 38.3973 202.874 38.0146C202.874 37.8066 202.813 37.6215 202.693 37.4639C202.573 37.3061 202.377 37.1674 202.11 37.0518C201.843 36.934 201.587 36.8394 201.341 36.7637C201.095 36.688 200.749 36.6019 200.308 36.501C200.007 36.4337 199.769 36.3809 199.595 36.3389C199.42 36.2968 199.181 36.2317 198.876 36.1455C198.571 36.0593 198.325 35.9771 198.138 35.9014C197.951 35.8257 197.727 35.7251 197.469 35.5947C197.21 35.4665 197 35.3336 196.836 35.2012C196.674 35.0687 196.503 34.9043 196.322 34.7129C196.144 34.5217 196 34.318 195.897 34.1016C195.792 33.885 195.709 33.6344 195.642 33.3506C195.574 33.0667 195.542 32.7635 195.542 32.4375C195.542 31.5459 195.788 30.7824 196.28 30.1494C196.772 29.5164 197.413 29.0514 198.201 28.7549C198.99 28.4585 199.88 28.3115 200.872 28.3115ZM98.5635 28.3027C99.9684 28.3027 101.212 28.6351 102.295 29.2871V28.6162H105.622V41.6768H102.295V41.0059C101.212 41.6578 99.9684 41.9902 98.5635 41.9902C96.572 41.9901 94.9043 41.3355 93.5605 40.0254C92.2168 38.7152 91.5459 37.0897 91.5459 35.1465C91.5459 33.2033 92.2189 31.5757 93.5605 30.2676C94.9022 28.9574 96.5699 28.3028 98.5635 28.3027ZM128.156 28.3027C130.15 28.3027 131.818 28.9573 133.162 30.2676C134.504 31.5778 135.177 33.2033 135.177 35.1465C135.177 37.0897 134.506 38.7152 133.162 40.0254C131.818 41.3356 130.15 41.9902 128.156 41.9902C126.163 41.9901 124.493 41.3355 123.147 40.0254C121.799 38.7173 121.126 37.0898 121.126 35.1465C121.126 33.2032 121.799 31.5778 123.147 30.2676C124.493 28.9575 126.163 28.3028 128.156 28.3027ZM174.696 28.3027C176.101 28.3027 177.343 28.6351 178.428 29.2871V28.6162H181.755V41.6768H178.428V41.0059C177.345 41.6578 176.101 41.9902 174.696 41.9902C172.703 41.9902 171.035 41.3356 169.691 40.0254C168.348 38.7152 167.676 37.0898 167.676 35.1465C167.676 33.2032 168.35 31.5757 169.691 30.2676C171.035 28.9574 172.703 28.3028 174.696 28.3027ZM72.46 24C73.728 24 74.9205 24.2249 76.0371 24.6748C77.1538 25.1249 78.1111 25.7413 78.9082 26.5215C79.7052 27.3017 80.3316 28.2377 80.79 29.3291C81.2485 30.4227 81.4785 31.5901 81.4785 32.833C81.4785 34.0759 81.2485 35.2433 80.79 36.3369C80.3316 37.4282 79.7051 38.366 78.9082 39.1504C78.1111 39.9348 77.1539 40.5519 76.0371 41.002C74.9184 41.4519 73.7259 41.6768 72.46 41.6768H65.543V24H72.46ZM91.0283 31.8447H90.4648C89.2809 31.8447 88.3578 32.1706 87.6953 32.8203C87.0307 33.4702 86.7002 34.3538 86.7002 35.4727V41.6768H83.373V28.6162H86.7002V30.3047C87.7012 29.0367 88.9549 28.4043 90.4648 28.4043H91.0283V31.8447ZM144.549 28.3027C146.092 28.3028 147.326 28.7637 148.258 29.6846C149.187 30.6057 149.652 31.834 149.652 33.3691V41.6768H146.312V34.4463C146.312 33.563 146.052 32.8562 145.53 32.3262C145.009 31.7963 144.315 31.5312 143.448 31.5312C142.582 31.5313 141.804 31.8048 141.24 32.3516C140.677 32.8983 140.395 33.6173 140.395 34.5088V41.6768H137.067V28.6162H140.395V30.0674C141.446 28.8917 142.831 28.3027 144.549 28.3027ZM98.5664 31.5312C97.5317 31.5312 96.6751 31.8758 96 32.5635C95.3228 33.2512 94.9863 34.1139 94.9863 35.1465C94.9863 36.1791 95.3249 37.0418 96 37.7295C96.6772 38.4171 97.5422 38.7617 98.5664 38.7617C99.5904 38.7616 100.446 38.4145 101.13 37.7227C101.813 37.0308 102.156 36.1706 102.156 35.1465C102.156 34.1224 101.813 33.2622 101.13 32.5703C100.446 31.8764 99.6009 31.5313 98.5664 31.5312ZM128.156 31.5312C127.122 31.5314 126.276 31.8785 125.593 32.5703C124.909 33.2622 124.566 34.1224 124.566 35.1465C124.566 36.1706 124.909 37.0308 125.593 37.7227C126.276 38.4145 127.132 38.7616 128.156 38.7617C129.191 38.7617 130.045 38.4192 130.723 37.7295C131.398 37.0418 131.736 36.1812 131.736 35.1465C131.736 34.1118 131.4 33.2512 130.723 32.5635C130.048 31.8758 129.191 31.5312 128.156 31.5312ZM159.342 31.5312C158.318 31.5312 157.462 31.8785 156.778 32.5703C156.095 33.2622 155.752 34.1223 155.752 35.1465C155.752 36.1707 156.095 37.0307 156.778 37.7227C157.462 38.4166 158.307 38.7617 159.342 38.7617C160.376 38.7617 161.232 38.417 161.907 37.7295C162.584 37.0418 162.921 36.1791 162.921 35.1465C162.921 34.1139 162.582 33.2512 161.907 32.5635C161.23 31.876 160.366 31.5313 159.342 31.5312ZM174.696 31.5312C173.662 31.5313 172.806 31.876 172.131 32.5635C171.454 33.2512 171.117 34.1139 171.117 35.1465C171.117 36.1791 171.456 37.0418 172.131 37.7295C172.808 38.417 173.672 38.7617 174.696 38.7617C175.72 38.7617 176.576 38.4145 177.26 37.7227C177.943 37.0307 178.286 36.1707 178.286 35.1465C178.286 34.1223 177.943 33.2622 177.26 32.5703C176.576 31.8763 175.731 31.5312 174.696 31.5312ZM69.085 38.3457H72.3867V38.3496C73.9449 38.3496 75.2444 37.8238 76.2832 36.7725C77.3221 35.7209 77.8418 34.4083 77.8418 32.8311C77.8418 31.2538 77.3221 29.9438 76.2832 28.8965C75.2443 27.8492 73.9471 27.3252 72.3867 27.3252H69.085V38.3457ZM113.611 31.4453C112.169 31.4455 110.997 32.6169 110.997 34.0596C110.997 35.502 112.169 36.6727 113.611 36.6729C115.054 36.6729 116.225 35.5021 116.226 34.0596C116.226 32.6168 115.056 31.4453 113.611 31.4453Z" fill="#FAF8F7"/>
<path d="M215.457 27.6152C215.457 29.6132 213.838 31.2305 211.842 31.2305C209.846 31.2305 208.227 29.6111 208.227 27.6152C208.227 25.6194 209.846 24 211.842 24C213.838 24 215.457 25.6194 215.457 27.6152Z" fill="#FA4A3D"/>
</g>
<mask id="path-4-inside-1_3570_10199" fill="white">
<path d="M24 70.5449H257V176.545C257 180.963 253.418 184.545 249 184.545H32C27.5817 184.545 24 180.963 24 176.545V70.5449Z"/>
</mask>
<path d="M24 70.5449H257V176.545C257 180.963 253.418 184.545 249 184.545H32C27.5817 184.545 24 180.963 24 176.545V70.5449Z" fill="white"/>
<path d="M24 69.5449H257V71.5449H24V69.5449ZM257 184.545H24H257ZM24 184.545V70.5449V184.545ZM257 70.5449V184.545V70.5449Z" fill="#006B99" mask="url(#path-4-inside-1_3570_10199)"/>
<path d="M49.044 101.545H47.448L42.646 94.2789V101.545H41.05V91.8009H42.646L47.448 99.0529V91.8009H49.044V101.545ZM54.4858 101.671C53.7578 101.671 53.0998 101.508 52.5118 101.181C51.9238 100.845 51.4618 100.378 51.1258 99.7809C50.7898 99.1743 50.6218 98.4743 50.6218 97.6809C50.6218 96.8969 50.7945 96.2016 51.1398 95.5949C51.4852 94.9883 51.9565 94.5216 52.5538 94.1949C53.1512 93.8683 53.8185 93.7049 54.5558 93.7049C55.2932 93.7049 55.9605 93.8683 56.5578 94.1949C57.1552 94.5216 57.6265 94.9883 57.9718 95.5949C58.3172 96.2016 58.4898 96.8969 58.4898 97.6809C58.4898 98.4649 58.3125 99.1603 57.9578 99.7669C57.6032 100.374 57.1178 100.845 56.5018 101.181C55.8952 101.508 55.2232 101.671 54.4858 101.671ZM54.4858 100.285C54.8965 100.285 55.2792 100.187 55.6338 99.9909C55.9978 99.7949 56.2918 99.5009 56.5158 99.1089C56.7398 98.7169 56.8518 98.2409 56.8518 97.6809C56.8518 97.1209 56.7445 96.6496 56.5298 96.2669C56.3152 95.8749 56.0305 95.5809 55.6758 95.3849C55.3212 95.1889 54.9385 95.0909 54.5278 95.0909C54.1172 95.0909 53.7345 95.1889 53.3798 95.3849C53.0345 95.5809 52.7592 95.8749 52.5538 96.2669C52.3485 96.6496 52.2458 97.1209 52.2458 97.6809C52.2458 98.5116 52.4558 99.1556 52.8758 99.6129C53.3052 100.061 53.8418 100.285 54.4858 100.285ZM63.1723 97.6809C63.1723 96.8876 63.331 96.1923 63.6483 95.5949C63.975 94.9883 64.423 94.5216 64.9923 94.1949C65.5616 93.8683 66.215 93.7049 66.9523 93.7049C67.8856 93.7049 68.6556 93.9289 69.2623 94.3769C69.8783 94.8156 70.2936 95.4456 70.5083 96.2669H68.7863C68.6463 95.8843 68.4223 95.5856 68.1143 95.3709C67.8063 95.1563 67.419 95.0489 66.9523 95.0489C66.299 95.0489 65.7763 95.2823 65.3843 95.7489C65.0016 96.2063 64.8103 96.8503 64.8103 97.6809C64.8103 98.5116 65.0016 99.1603 65.3843 99.6269C65.7763 100.094 66.299 100.327 66.9523 100.327C67.8763 100.327 68.4876 99.9209 68.7863 99.1089H70.5083C70.2843 99.8929 69.8643 100.518 69.2483 100.985C68.6323 101.442 67.867 101.671 66.9523 101.671C66.215 101.671 65.5616 101.508 64.9923 101.181C64.423 100.845 63.975 100.378 63.6483 99.7809C63.331 99.1743 63.1723 98.4743 63.1723 97.6809ZM75.4448 101.671C74.7168 101.671 74.0588 101.508 73.4708 101.181C72.8828 100.845 72.4208 100.378 72.0848 99.7809C71.7488 99.1743 71.5808 98.4743 71.5808 97.6809C71.5808 96.8969 71.7535 96.2016 72.0988 95.5949C72.4442 94.9883 72.9155 94.5216 73.5128 94.1949C74.1102 93.8683 74.7775 93.7049 75.5148 93.7049C76.2522 93.7049 76.9195 93.8683 77.5168 94.1949C78.1142 94.5216 78.5855 94.9883 78.9308 95.5949C79.2762 96.2016 79.4488 96.8969 79.4488 97.6809C79.4488 98.4649 79.2715 99.1603 78.9168 99.7669C78.5622 100.374 78.0768 100.845 77.4608 101.181C76.8542 101.508 76.1822 101.671 75.4448 101.671ZM75.4448 100.285C75.8555 100.285 76.2382 100.187 76.5928 99.9909C76.9568 99.7949 77.2508 99.5009 77.4748 99.1089C77.6988 98.7169 77.8108 98.2409 77.8108 97.6809C77.8108 97.1209 77.7035 96.6496 77.4888 96.2669C77.2742 95.8749 76.9895 95.5809 76.6348 95.3849C76.2802 95.1889 75.8975 95.0909 75.4868 95.0909C75.0762 95.0909 74.6935 95.1889 74.3388 95.3849C73.9935 95.5809 73.7182 95.8749 73.5128 96.2669C73.3075 96.6496 73.2048 97.1209 73.2048 97.6809C73.2048 98.5116 73.4148 99.1556 73.8348 99.6129C74.2642 100.061 74.8008 100.285 75.4448 100.285ZM80.4946 97.6529C80.4946 96.8783 80.6532 96.1923 80.9706 95.5949C81.2972 94.9976 81.7359 94.5356 82.2866 94.2089C82.8466 93.8729 83.4672 93.7049 84.1486 93.7049C84.6526 93.7049 85.1472 93.8169 85.6326 94.0409C86.1272 94.2556 86.5192 94.5449 86.8086 94.9089V91.1849H88.4186V101.545H86.8086V100.383C86.5472 100.756 86.1832 101.064 85.7166 101.307C85.2592 101.55 84.7319 101.671 84.1346 101.671C83.4626 101.671 82.8466 101.503 82.2866 101.167C81.7359 100.822 81.2972 100.346 80.9706 99.7389C80.6532 99.1229 80.4946 98.4276 80.4946 97.6529ZM86.8086 97.6809C86.8086 97.1489 86.6966 96.6869 86.4726 96.2949C86.2579 95.9029 85.9732 95.6043 85.6186 95.3989C85.2639 95.1936 84.8812 95.0909 84.4706 95.0909C84.0599 95.0909 83.6772 95.1936 83.3226 95.3989C82.9679 95.5949 82.6786 95.8889 82.4546 96.2809C82.2399 96.6636 82.1326 97.1209 82.1326 97.6529C82.1326 98.1849 82.2399 98.6516 82.4546 99.0529C82.6786 99.4543 82.9679 99.7623 83.3226 99.9769C83.6866 100.182 84.0692 100.285 84.4706 100.285C84.8812 100.285 85.2639 100.182 85.6186 99.9769C85.9732 99.7716 86.2579 99.4729 86.4726 99.0809C86.6966 98.6796 86.8086 98.2129 86.8086 97.6809ZM97.5848 97.4989C97.5848 97.7883 97.5662 98.0496 97.5288 98.2829H91.6348C91.6815 98.8989 91.9102 99.3936 92.3208 99.7669C92.7315 100.14 93.2355 100.327 93.8328 100.327C94.6915 100.327 95.2982 99.9676 95.6528 99.2489H97.3748C97.1415 99.9583 96.7168 100.542 96.1008 100.999C95.4942 101.447 94.7382 101.671 93.8328 101.671C93.0955 101.671 92.4328 101.508 91.8448 101.181C91.2662 100.845 90.8088 100.378 90.4728 99.7809C90.1462 99.1743 89.9828 98.4743 89.9828 97.6809C89.9828 96.8876 90.1415 96.1923 90.4588 95.5949C90.7855 94.9883 91.2382 94.5216 91.8168 94.1949C92.4048 93.8683 93.0768 93.7049 93.8328 93.7049C94.5608 93.7049 95.2095 93.8636 95.7788 94.1809C96.3482 94.4983 96.7915 94.9463 97.1088 95.5249C97.4262 96.0943 97.5848 96.7523 97.5848 97.4989ZM95.9188 96.9949C95.9095 96.4069 95.6995 95.9356 95.2888 95.5809C94.8782 95.2263 94.3695 95.0489 93.7628 95.0489C93.2122 95.0489 92.7408 95.2263 92.3488 95.5809C91.9568 95.9263 91.7235 96.3976 91.6488 96.9949H95.9188ZM104.388 94.9509C104.622 94.5589 104.93 94.2556 105.312 94.0409C105.704 93.8169 106.166 93.7049 106.698 93.7049V95.3569H106.292C105.667 95.3569 105.191 95.5156 104.864 95.8329C104.547 96.1503 104.388 96.7009 104.388 97.4849V101.545H102.792V93.8309H104.388V94.9509ZM115.235 97.4989C115.235 97.7883 115.217 98.0496 115.179 98.2829H109.285C109.332 98.8989 109.561 99.3936 109.971 99.7669C110.382 100.14 110.886 100.327 111.483 100.327C112.342 100.327 112.949 99.9676 113.303 99.2489H115.025C114.792 99.9583 114.367 100.542 113.751 100.999C113.145 101.447 112.389 101.671 111.483 101.671C110.746 101.671 110.083 101.508 109.495 101.181C108.917 100.845 108.459 100.378 108.123 99.7809C107.797 99.1743 107.633 98.4743 107.633 97.6809C107.633 96.8876 107.792 96.1923 108.109 95.5949C108.436 94.9883 108.889 94.5216 109.467 94.1949C110.055 93.8683 110.727 93.7049 111.483 93.7049C112.211 93.7049 112.86 93.8636 113.429 94.1809C113.999 94.4983 114.442 94.9463 114.759 95.5249C115.077 96.0943 115.235 96.7523 115.235 97.4989ZM113.569 96.9949C113.56 96.4069 113.35 95.9356 112.939 95.5809C112.529 95.2263 112.02 95.0489 111.413 95.0489C110.863 95.0489 110.391 95.2263 109.999 95.5809C109.607 95.9263 109.374 96.3976 109.299 96.9949H113.569ZM116.274 97.6529C116.274 96.8783 116.433 96.1923 116.75 95.5949C117.077 94.9976 117.515 94.5356 118.066 94.2089C118.626 93.8729 119.247 93.7049 119.928 93.7049C120.525 93.7049 121.053 93.8263 121.51 94.0689C121.977 94.3116 122.336 94.6056 122.588 94.9509V93.8309H124.198V105.213H122.588V100.425C122.336 100.77 121.972 101.064 121.496 101.307C121.02 101.55 120.479 101.671 119.872 101.671C119.209 101.671 118.603 101.503 118.052 101.167C117.511 100.822 117.077 100.346 116.75 99.7389C116.433 99.1229 116.274 98.4276 116.274 97.6529ZM122.588 97.6809C122.588 97.1489 122.476 96.6869 122.252 96.2949C122.037 95.9029 121.753 95.6043 121.398 95.3989C121.043 95.1936 120.661 95.0909 120.25 95.0909C119.839 95.0909 119.457 95.1936 119.102 95.3989C118.747 95.5949 118.458 95.8889 118.234 96.2809C118.019 96.6636 117.912 97.1209 117.912 97.6529C117.912 98.1849 118.019 98.6516 118.234 99.0529C118.458 99.4543 118.747 99.7623 119.102 99.9769C119.466 100.182 119.849 100.285 120.25 100.285C120.661 100.285 121.043 100.182 121.398 99.9769C121.753 99.7716 122.037 99.4729 122.252 99.0809C122.476 98.6796 122.588 98.2129 122.588 97.6809ZM133.28 93.8309V101.545H131.684V100.635C131.432 100.952 131.101 101.204 130.69 101.391C130.289 101.568 129.859 101.657 129.402 101.657C128.795 101.657 128.249 101.531 127.764 101.279C127.288 101.027 126.91 100.654 126.63 100.159C126.359 99.6643 126.224 99.0669 126.224 98.3669V93.8309H127.806V98.1289C127.806 98.8196 127.979 99.3516 128.324 99.7249C128.669 100.089 129.141 100.271 129.738 100.271C130.335 100.271 130.807 100.089 131.152 99.7249C131.507 99.3516 131.684 98.8196 131.684 98.1289V93.8309H133.28ZM136.198 92.8089C135.909 92.8089 135.666 92.7109 135.47 92.5149C135.274 92.3189 135.176 92.0763 135.176 91.7869C135.176 91.4976 135.274 91.2549 135.47 91.0589C135.666 90.8629 135.909 90.7649 136.198 90.7649C136.478 90.7649 136.716 90.8629 136.912 91.0589C137.108 91.2549 137.206 91.4976 137.206 91.7869C137.206 92.0763 137.108 92.3189 136.912 92.5149C136.716 92.7109 136.478 92.8089 136.198 92.8089ZM136.982 93.8309V101.545H135.386V93.8309H136.982ZM140.673 94.9509C140.907 94.5589 141.215 94.2556 141.597 94.0409C141.989 93.8169 142.451 93.7049 142.983 93.7049V95.3569H142.577C141.952 95.3569 141.476 95.5156 141.149 95.8329C140.832 96.1503 140.673 96.7009 140.673 97.4849V101.545H139.077V93.8309H140.673V94.9509ZM151.52 97.4989C151.52 97.7883 151.502 98.0496 151.464 98.2829H145.57C145.617 98.8989 145.846 99.3936 146.256 99.7669C146.667 100.14 147.171 100.327 147.768 100.327C148.627 100.327 149.234 99.9676 149.588 99.2489H151.31C151.077 99.9583 150.652 100.542 150.036 100.999C149.43 101.447 148.674 101.671 147.768 101.671C147.031 101.671 146.368 101.508 145.78 101.181C145.202 100.845 144.744 100.378 144.408 99.7809C144.082 99.1743 143.918 98.4743 143.918 97.6809C143.918 96.8876 144.077 96.1923 144.394 95.5949C144.721 94.9883 145.174 94.5216 145.752 94.1949C146.34 93.8683 147.012 93.7049 147.768 93.7049C148.496 93.7049 149.145 93.8636 149.714 94.1809C150.284 94.4983 150.727 94.9463 151.044 95.5249C151.362 96.0943 151.52 96.7523 151.52 97.4989ZM149.854 96.9949C149.845 96.4069 149.635 95.9356 149.224 95.5809C148.814 95.2263 148.305 95.0489 147.698 95.0489C147.148 95.0489 146.676 95.2263 146.284 95.5809C145.892 95.9263 145.659 96.3976 145.584 96.9949H149.854ZM152.559 97.6529C152.559 96.8783 152.718 96.1923 153.035 95.5949C153.362 94.9976 153.8 94.5356 154.351 94.2089C154.911 93.8729 155.532 93.7049 156.213 93.7049C156.717 93.7049 157.212 93.8169 157.697 94.0409C158.192 94.2556 158.584 94.5449 158.873 94.9089V91.1849H160.483V101.545H158.873V100.383C158.612 100.756 158.248 101.064 157.781 101.307C157.324 101.55 156.796 101.671 156.199 101.671C155.527 101.671 154.911 101.503 154.351 101.167C153.8 100.822 153.362 100.346 153.035 99.7389C152.718 99.1229 152.559 98.4276 152.559 97.6529ZM158.873 97.6809C158.873 97.1489 158.761 96.6869 158.537 96.2949C158.322 95.9029 158.038 95.6043 157.683 95.3989C157.328 95.1936 156.946 95.0909 156.535 95.0909C156.124 95.0909 155.742 95.1936 155.387 95.3989C155.032 95.5949 154.743 95.8889 154.519 96.2809C154.304 96.6636 154.197 97.1209 154.197 97.6529C154.197 98.1849 154.304 98.6516 154.519 99.0529C154.743 99.4543 155.032 99.7623 155.387 99.9769C155.751 100.182 156.134 100.285 156.535 100.285C156.946 100.285 157.328 100.182 157.683 99.9769C158.038 99.7716 158.322 99.4729 158.537 99.0809C158.761 98.6796 158.873 98.2129 158.873 97.6809Z" fill="#4B4A4A"/>
<path d="M47.5 127.545H46.408L42.016 120.885V127.545H40.924V119.169H42.016L46.408 125.817V119.169H47.5V127.545ZM52.2295 127.653C51.6135 127.653 51.0535 127.513 50.5495 127.233C50.0535 126.953 49.6615 126.557 49.3735 126.045C49.0935 125.525 48.9535 124.925 48.9535 124.245C48.9535 123.573 49.0975 122.981 49.3855 122.469C49.6815 121.949 50.0815 121.553 50.5855 121.281C51.0895 121.001 51.6535 120.861 52.2775 120.861C52.9015 120.861 53.4655 121.001 53.9695 121.281C54.4735 121.553 54.8695 121.945 55.1575 122.457C55.4535 122.969 55.6015 123.565 55.6015 124.245C55.6015 124.925 55.4495 125.525 55.1455 126.045C54.8495 126.557 54.4455 126.953 53.9335 127.233C53.4215 127.513 52.8535 127.653 52.2295 127.653ZM52.2295 126.693C52.6215 126.693 52.9895 126.601 53.3335 126.417C53.6775 126.233 53.9535 125.957 54.1615 125.589C54.3775 125.221 54.4855 124.773 54.4855 124.245C54.4855 123.717 54.3815 123.269 54.1735 122.901C53.9655 122.533 53.6935 122.261 53.3575 122.085C53.0215 121.901 52.6575 121.809 52.2655 121.809C51.8655 121.809 51.4975 121.901 51.1615 122.085C50.8335 122.261 50.5695 122.533 50.3695 122.901C50.1695 123.269 50.0695 123.717 50.0695 124.245C50.0695 124.781 50.1655 125.233 50.3575 125.601C50.5575 125.969 50.8215 126.245 51.1495 126.429C51.4775 126.605 51.8375 126.693 52.2295 126.693ZM59.8285 124.245C59.8285 123.565 59.9645 122.973 60.2365 122.469C60.5085 121.957 60.8845 121.561 61.3645 121.281C61.8525 121.001 62.4085 120.861 63.0325 120.861C63.8405 120.861 64.5045 121.057 65.0245 121.449C65.5525 121.841 65.9005 122.385 66.0685 123.081H64.8925C64.7805 122.681 64.5605 122.365 64.2325 122.133C63.9125 121.901 63.5125 121.785 63.0325 121.785C62.4085 121.785 61.9045 122.001 61.5205 122.433C61.1365 122.857 60.9445 123.461 60.9445 124.245C60.9445 125.037 61.1365 125.649 61.5205 126.081C61.9045 126.513 62.4085 126.729 63.0325 126.729C63.5125 126.729 63.9125 126.617 64.2325 126.393C64.5525 126.169 64.7725 125.849 64.8925 125.433H66.0685C65.8925 126.105 65.5405 126.645 65.0125 127.053C64.4845 127.453 63.8245 127.653 63.0325 127.653C62.4085 127.653 61.8525 127.513 61.3645 127.233C60.8845 126.953 60.5085 126.557 60.2365 126.045C59.9645 125.533 59.8285 124.933 59.8285 124.245ZM70.3936 127.653C69.7776 127.653 69.2176 127.513 68.7136 127.233C68.2176 126.953 67.8256 126.557 67.5376 126.045C67.2576 125.525 67.1176 124.925 67.1176 124.245C67.1176 123.573 67.2616 122.981 67.5496 122.469C67.8456 121.949 68.2456 121.553 68.7496 121.281C69.2536 121.001 69.8176 120.861 70.4416 120.861C71.0656 120.861 71.6296 121.001 72.1336 121.281C72.6376 121.553 73.0336 121.945 73.3216 122.457C73.6176 122.969 73.7656 123.565 73.7656 124.245C73.7656 124.925 73.6136 125.525 73.3096 126.045C73.0136 126.557 72.6096 126.953 72.0976 127.233C71.5856 127.513 71.0176 127.653 70.3936 127.653ZM70.3936 126.693C70.7856 126.693 71.1536 126.601 71.4976 126.417C71.8416 126.233 72.1176 125.957 72.3256 125.589C72.5416 125.221 72.6496 124.773 72.6496 124.245C72.6496 123.717 72.5456 123.269 72.3376 122.901C72.1296 122.533 71.8576 122.261 71.5216 122.085C71.1856 121.901 70.8216 121.809 70.4296 121.809C70.0296 121.809 69.6616 121.901 69.3256 122.085C68.9976 122.261 68.7336 122.533 68.5336 122.901C68.3336 123.269 68.2336 123.717 68.2336 124.245C68.2336 124.781 68.3296 125.233 68.5216 125.601C68.7216 125.969 68.9856 126.245 69.3136 126.429C69.6416 126.605 70.0016 126.693 70.3936 126.693ZM74.7933 124.233C74.7933 123.561 74.9293 122.973 75.2013 122.469C75.4733 121.957 75.8453 121.561 76.3173 121.281C76.7973 121.001 77.3333 120.861 77.9253 120.861C78.4373 120.861 78.9133 120.981 79.3533 121.221C79.7933 121.453 80.1293 121.761 80.3613 122.145V118.665H81.4653V127.545H80.3613V126.309C80.1453 126.701 79.8253 127.025 79.4013 127.281C78.9773 127.529 78.4813 127.653 77.9133 127.653C77.3293 127.653 76.7973 127.509 76.3173 127.221C75.8453 126.933 75.4733 126.529 75.2013 126.009C74.9293 125.489 74.7933 124.897 74.7933 124.233ZM80.3613 124.245C80.3613 123.749 80.2613 123.317 80.0613 122.949C79.8613 122.581 79.5893 122.301 79.2453 122.109C78.9093 121.909 78.5373 121.809 78.1293 121.809C77.7213 121.809 77.3493 121.905 77.0133 122.097C76.6773 122.289 76.4093 122.569 76.2093 122.937C76.0093 123.305 75.9093 123.737 75.9093 124.233C75.9093 124.737 76.0093 125.177 76.2093 125.553C76.4093 125.921 76.6773 126.205 77.0133 126.405C77.3493 126.597 77.7213 126.693 78.1293 126.693C78.5373 126.693 78.9093 126.597 79.2453 126.405C79.5893 126.205 79.8613 125.921 80.0613 125.553C80.2613 125.177 80.3613 124.741 80.3613 124.245ZM89.3107 124.005C89.3107 124.213 89.2987 124.433 89.2747 124.665H84.0187C84.0587 125.313 84.2787 125.821 84.6787 126.189C85.0867 126.549 85.5787 126.729 86.1547 126.729C86.6267 126.729 87.0187 126.621 87.3307 126.405C87.6507 126.181 87.8747 125.885 88.0027 125.517H89.1787C89.0027 126.149 88.6507 126.665 88.1227 127.065C87.5947 127.457 86.9387 127.653 86.1547 127.653C85.5307 127.653 84.9707 127.513 84.4747 127.233C83.9867 126.953 83.6027 126.557 83.3227 126.045C83.0427 125.525 82.9027 124.925 82.9027 124.245C82.9027 123.565 83.0387 122.969 83.3107 122.457C83.5827 121.945 83.9627 121.553 84.4507 121.281C84.9467 121.001 85.5147 120.861 86.1547 120.861C86.7787 120.861 87.3307 120.997 87.8107 121.269C88.2907 121.541 88.6587 121.917 88.9147 122.397C89.1787 122.869 89.3107 123.405 89.3107 124.005ZM88.1827 123.777C88.1827 123.361 88.0907 123.005 87.9067 122.709C87.7227 122.405 87.4707 122.177 87.1507 122.025C86.8387 121.865 86.4907 121.785 86.1067 121.785C85.5547 121.785 85.0827 121.961 84.6907 122.313C84.3067 122.665 84.0867 123.153 84.0307 123.777H88.1827ZM95.0433 122.037C95.2353 121.661 95.5073 121.369 95.8593 121.161C96.2193 120.953 96.6553 120.849 97.1673 120.849V121.977H96.8793C95.6553 121.977 95.0433 122.641 95.0433 123.969V127.545H93.9513V120.969H95.0433V122.037ZM104.428 124.005C104.428 124.213 104.416 124.433 104.392 124.665H99.1359C99.1759 125.313 99.3959 125.821 99.7959 126.189C100.204 126.549 100.696 126.729 101.272 126.729C101.744 126.729 102.136 126.621 102.448 126.405C102.768 126.181 102.992 125.885 103.12 125.517H104.296C104.12 126.149 103.768 126.665 103.24 127.065C102.712 127.457 102.056 127.653 101.272 127.653C100.648 127.653 100.088 127.513 99.5919 127.233C99.1039 126.953 98.7199 126.557 98.4399 126.045C98.1599 125.525 98.0199 124.925 98.0199 124.245C98.0199 123.565 98.1559 122.969 98.4279 122.457C98.6999 121.945 99.0799 121.553 99.5679 121.281C100.064 121.001 100.632 120.861 101.272 120.861C101.896 120.861 102.448 120.997 102.928 121.269C103.408 121.541 103.776 121.917 104.032 122.397C104.296 122.869 104.428 123.405 104.428 124.005ZM103.3 123.777C103.3 123.361 103.208 123.005 103.024 122.709C102.84 122.405 102.588 122.177 102.268 122.025C101.956 121.865 101.608 121.785 101.224 121.785C100.672 121.785 100.2 121.961 99.8079 122.313C99.4239 122.665 99.2039 123.153 99.1479 123.777H103.3ZM105.461 124.233C105.461 123.561 105.597 122.973 105.869 122.469C106.141 121.957 106.513 121.561 106.985 121.281C107.465 121.001 108.001 120.861 108.593 120.861C109.161 120.861 109.657 120.989 110.081 121.245C110.513 121.493 110.829 121.801 111.029 122.169V120.969H112.133V130.665H111.029V126.333C110.821 126.701 110.501 127.013 110.069 127.269C109.637 127.525 109.133 127.653 108.557 127.653C107.981 127.653 107.457 127.509 106.985 127.221C106.513 126.933 106.141 126.529 105.869 126.009C105.597 125.489 105.461 124.897 105.461 124.233ZM111.029 124.245C111.029 123.749 110.929 123.317 110.729 122.949C110.529 122.581 110.257 122.301 109.913 122.109C109.577 121.909 109.205 121.809 108.797 121.809C108.389 121.809 108.017 121.905 107.681 122.097C107.345 122.289 107.077 122.569 106.877 122.937C106.677 123.305 106.577 123.737 106.577 124.233C106.577 124.737 106.677 125.177 106.877 125.553C107.077 125.921 107.345 126.205 107.681 126.405C108.017 126.597 108.389 126.693 108.797 126.693C109.205 126.693 109.577 126.597 109.913 126.405C110.257 126.205 110.529 125.921 110.729 125.553C110.929 125.177 111.029 124.741 111.029 124.245ZM119.811 120.969V127.545H118.719V126.573C118.511 126.909 118.219 127.173 117.843 127.365C117.475 127.549 117.067 127.641 116.619 127.641C116.107 127.641 115.647 127.537 115.239 127.329C114.831 127.113 114.507 126.793 114.267 126.369C114.035 125.945 113.919 125.429 113.919 124.821V120.969H114.999V124.677C114.999 125.325 115.163 125.825 115.491 126.177C115.819 126.521 116.267 126.693 116.835 126.693C117.419 126.693 117.879 126.513 118.215 126.153C118.551 125.793 118.719 125.269 118.719 124.581V120.969H119.811ZM122.218 119.901C122.01 119.901 121.834 119.829 121.69 119.685C121.546 119.541 121.474 119.365 121.474 119.157C121.474 118.949 121.546 118.773 121.69 118.629C121.834 118.485 122.01 118.413 122.218 118.413C122.418 118.413 122.586 118.485 122.722 118.629C122.866 118.773 122.938 118.949 122.938 119.157C122.938 119.365 122.866 119.541 122.722 119.685C122.586 119.829 122.418 119.901 122.218 119.901ZM122.746 120.969V127.545H121.654V120.969H122.746ZM125.7 122.037C125.892 121.661 126.164 121.369 126.516 121.161C126.876 120.953 127.312 120.849 127.824 120.849V121.977H127.536C126.312 121.977 125.7 122.641 125.7 123.969V127.545H124.608V120.969H125.7V122.037ZM135.084 124.005C135.084 124.213 135.072 124.433 135.048 124.665H129.792C129.832 125.313 130.052 125.821 130.452 126.189C130.86 126.549 131.352 126.729 131.928 126.729C132.4 126.729 132.792 126.621 133.104 126.405C133.424 126.181 133.648 125.885 133.776 125.517H134.952C134.776 126.149 134.424 126.665 133.896 127.065C133.368 127.457 132.712 127.653 131.928 127.653C131.304 127.653 130.744 127.513 130.248 127.233C129.76 126.953 129.376 126.557 129.096 126.045C128.816 125.525 128.676 124.925 128.676 124.245C128.676 123.565 128.812 122.969 129.084 122.457C129.356 121.945 129.736 121.553 130.224 121.281C130.72 121.001 131.288 120.861 131.928 120.861C132.552 120.861 133.104 120.997 133.584 121.269C134.064 121.541 134.432 121.917 134.688 122.397C134.952 122.869 135.084 123.405 135.084 124.005ZM133.956 123.777C133.956 123.361 133.864 123.005 133.68 122.709C133.496 122.405 133.244 122.177 132.924 122.025C132.612 121.865 132.264 121.785 131.88 121.785C131.328 121.785 130.856 121.961 130.464 122.313C130.08 122.665 129.86 123.153 129.804 123.777H133.956ZM136.118 124.233C136.118 123.561 136.254 122.973 136.526 122.469C136.798 121.957 137.17 121.561 137.642 121.281C138.122 121.001 138.658 120.861 139.25 120.861C139.762 120.861 140.238 120.981 140.678 121.221C141.118 121.453 141.454 121.761 141.686 122.145V118.665H142.79V127.545H141.686V126.309C141.47 126.701 141.15 127.025 140.726 127.281C140.302 127.529 139.806 127.653 139.238 127.653C138.654 127.653 138.122 127.509 137.642 127.221C137.17 126.933 136.798 126.529 136.526 126.009C136.254 125.489 136.118 124.897 136.118 124.233ZM141.686 124.245C141.686 123.749 141.586 123.317 141.386 122.949C141.186 122.581 140.914 122.301 140.57 122.109C140.234 121.909 139.862 121.809 139.454 121.809C139.046 121.809 138.674 121.905 138.338 122.097C138.002 122.289 137.734 122.569 137.534 122.937C137.334 123.305 137.234 123.737 137.234 124.233C137.234 124.737 137.334 125.177 137.534 125.553C137.734 125.921 138.002 126.205 138.338 126.405C138.674 126.597 139.046 126.693 139.454 126.693C139.862 126.693 140.234 126.597 140.57 126.405C140.914 126.205 141.186 125.921 141.386 125.553C141.586 125.177 141.686 124.741 141.686 124.245ZM150.51 121.869H149.13V127.545H148.038V121.869H147.186V120.969H148.038V120.501C148.038 119.765 148.226 119.229 148.602 118.893C148.986 118.549 149.598 118.377 150.438 118.377V119.289C149.958 119.289 149.618 119.385 149.418 119.577C149.226 119.761 149.13 120.069 149.13 120.501V120.969H150.51V121.869ZM154.651 127.653C154.035 127.653 153.475 127.513 152.971 127.233C152.475 126.953 152.083 126.557 151.795 126.045C151.515 125.525 151.375 124.925 151.375 124.245C151.375 123.573 151.519 122.981 151.807 122.469C152.103 121.949 152.503 121.553 153.007 121.281C153.511 121.001 154.075 120.861 154.699 120.861C155.323 120.861 155.887 121.001 156.391 121.281C156.895 121.553 157.291 121.945 157.579 122.457C157.875 122.969 158.023 123.565 158.023 124.245C158.023 124.925 157.871 125.525 157.567 126.045C157.271 126.557 156.867 126.953 156.355 127.233C155.843 127.513 155.275 127.653 154.651 127.653ZM154.651 126.693C155.043 126.693 155.411 126.601 155.755 126.417C156.099 126.233 156.375 125.957 156.583 125.589C156.799 125.221 156.907 124.773 156.907 124.245C156.907 123.717 156.803 123.269 156.595 122.901C156.387 122.533 156.115 122.261 155.779 122.085C155.443 121.901 155.079 121.809 154.687 121.809C154.287 121.809 153.919 121.901 153.583 122.085C153.255 122.261 152.991 122.533 152.791 122.901C152.591 123.269 152.491 123.717 152.491 124.245C152.491 124.781 152.587 125.233 152.779 125.601C152.979 125.969 153.243 126.245 153.571 126.429C153.899 126.605 154.259 126.693 154.651 126.693ZM160.551 122.037C160.743 121.661 161.015 121.369 161.367 121.161C161.727 120.953 162.163 120.849 162.675 120.849V121.977H162.387C161.163 121.977 160.551 122.641 160.551 123.969V127.545H159.459V120.969H160.551V122.037ZM168.467 121.869V125.745C168.467 126.065 168.535 126.293 168.671 126.429C168.807 126.557 169.043 126.621 169.379 126.621H170.183V127.545H169.199C168.591 127.545 168.135 127.405 167.831 127.125C167.527 126.845 167.375 126.385 167.375 125.745V121.869H166.523V120.969H167.375V119.313H168.467V120.969H170.183V121.869H168.467ZM174.77 120.849C175.266 120.849 175.714 120.957 176.114 121.173C176.514 121.381 176.826 121.697 177.05 122.121C177.282 122.545 177.398 123.061 177.398 123.669V127.545H176.318V123.825C176.318 123.169 176.154 122.669 175.826 122.325C175.498 121.973 175.05 121.797 174.482 121.797C173.906 121.797 173.446 121.977 173.102 122.337C172.766 122.697 172.598 123.221 172.598 123.909V127.545H171.506V118.665H172.598V121.905C172.814 121.569 173.11 121.309 173.486 121.125C173.87 120.941 174.298 120.849 174.77 120.849ZM179.746 119.901C179.538 119.901 179.362 119.829 179.218 119.685C179.074 119.541 179.002 119.365 179.002 119.157C179.002 118.949 179.074 118.773 179.218 118.629C179.362 118.485 179.538 118.413 179.746 118.413C179.946 118.413 180.114 118.485 180.25 118.629C180.394 118.773 180.466 118.949 180.466 119.157C180.466 119.365 180.394 119.541 180.25 119.685C180.114 119.829 179.946 119.901 179.746 119.901ZM180.274 120.969V127.545H179.182V120.969H180.274ZM184.463 127.653C183.959 127.653 183.507 127.569 183.107 127.401C182.707 127.225 182.391 126.985 182.159 126.681C181.927 126.369 181.799 126.013 181.775 125.613H182.903C182.935 125.941 183.087 126.209 183.359 126.417C183.639 126.625 184.003 126.729 184.451 126.729C184.867 126.729 185.195 126.637 185.435 126.453C185.675 126.269 185.795 126.037 185.795 125.757C185.795 125.469 185.667 125.257 185.411 125.121C185.155 124.977 184.759 124.837 184.223 124.701C183.735 124.573 183.335 124.445 183.023 124.317C182.719 124.181 182.455 123.985 182.231 123.729C182.015 123.465 181.907 123.121 181.907 122.697C181.907 122.361 182.007 122.053 182.207 121.773C182.407 121.493 182.691 121.273 183.059 121.113C183.427 120.945 183.847 120.861 184.319 120.861C185.047 120.861 185.635 121.045 186.083 121.413C186.531 121.781 186.771 122.285 186.803 122.925H185.711C185.687 122.581 185.547 122.305 185.291 122.097C185.043 121.889 184.707 121.785 184.283 121.785C183.891 121.785 183.579 121.869 183.347 122.037C183.115 122.205 182.999 122.425 182.999 122.697C182.999 122.913 183.067 123.093 183.203 123.237C183.347 123.373 183.523 123.485 183.731 123.573C183.947 123.653 184.243 123.745 184.619 123.849C185.091 123.977 185.475 124.105 185.771 124.233C186.067 124.353 186.319 124.537 186.527 124.785C186.743 125.033 186.855 125.357 186.863 125.757C186.863 126.117 186.763 126.441 186.563 126.729C186.363 127.017 186.079 127.245 185.711 127.413C185.351 127.573 184.935 127.653 184.463 127.653ZM192.696 118.665V127.545H191.604V118.665H192.696ZM194.149 124.233C194.149 123.561 194.285 122.973 194.557 122.469C194.829 121.957 195.201 121.561 195.673 121.281C196.153 121.001 196.685 120.861 197.269 120.861C197.845 120.861 198.345 120.985 198.769 121.233C199.193 121.481 199.509 121.793 199.717 122.169V120.969H200.821V127.545H199.717V126.321C199.501 126.705 199.177 127.025 198.745 127.281C198.321 127.529 197.825 127.653 197.257 127.653C196.673 127.653 196.145 127.509 195.673 127.221C195.201 126.933 194.829 126.529 194.557 126.009C194.285 125.489 194.149 124.897 194.149 124.233ZM199.717 124.245C199.717 123.749 199.617 123.317 199.417 122.949C199.217 122.581 198.945 122.301 198.601 122.109C198.265 121.909 197.893 121.809 197.485 121.809C197.077 121.809 196.705 121.905 196.369 122.097C196.033 122.289 195.765 122.569 195.565 122.937C195.365 123.305 195.265 123.737 195.265 124.233C195.265 124.737 195.365 125.177 195.565 125.553C195.765 125.921 196.033 126.205 196.369 126.405C196.705 126.597 197.077 126.693 197.485 126.693C197.893 126.693 198.265 126.597 198.601 126.405C198.945 126.205 199.217 125.921 199.417 125.553C199.617 125.177 199.717 124.741 199.717 124.245ZM205.87 120.849C206.67 120.849 207.318 121.093 207.814 121.581C208.31 122.061 208.558 122.757 208.558 123.669V127.545H207.478V123.825C207.478 123.169 207.314 122.669 206.986 122.325C206.658 121.973 206.21 121.797 205.642 121.797C205.066 121.797 204.606 121.977 204.262 122.337C203.926 122.697 203.758 123.221 203.758 123.909V127.545H202.666V120.969H203.758V121.905C203.974 121.569 204.266 121.309 204.634 121.125C205.01 120.941 205.422 120.849 205.87 120.849ZM216.342 124.005C216.342 124.213 216.33 124.433 216.306 124.665H211.05C211.09 125.313 211.31 125.821 211.71 126.189C212.118 126.549 212.61 126.729 213.186 126.729C213.658 126.729 214.05 126.621 214.362 126.405C214.682 126.181 214.906 125.885 215.034 125.517H216.21C216.034 126.149 215.682 126.665 215.154 127.065C214.626 127.457 213.97 127.653 213.186 127.653C212.562 127.653 212.002 127.513 211.506 127.233C211.018 126.953 210.634 126.557 210.354 126.045C210.074 125.525 209.934 124.925 209.934 124.245C209.934 123.565 210.07 122.969 210.342 122.457C210.614 121.945 210.994 121.553 211.482 121.281C211.978 121.001 212.546 120.861 213.186 120.861C213.81 120.861 214.362 120.997 214.842 121.269C215.322 121.541 215.69 121.917 215.946 122.397C216.21 122.869 216.342 123.405 216.342 124.005ZM215.214 123.777C215.214 123.361 215.122 123.005 214.938 122.709C214.754 122.405 214.502 122.177 214.182 122.025C213.87 121.865 213.522 121.785 213.138 121.785C212.586 121.785 212.114 121.961 211.722 122.313C211.338 122.665 211.118 123.153 211.062 123.777H215.214ZM218.131 127.617C217.923 127.617 217.747 127.545 217.603 127.401C217.459 127.257 217.387 127.081 217.387 126.873C217.387 126.665 217.459 126.489 217.603 126.345C217.747 126.201 217.923 126.129 218.131 126.129C218.331 126.129 218.499 126.201 218.635 126.345C218.779 126.489 218.851 126.665 218.851 126.873C218.851 127.081 218.779 127.257 218.635 127.401C218.499 127.545 218.331 127.617 218.131 127.617ZM46.516 139.629C46.516 140.325 46.276 140.905 45.796 141.369C45.324 141.825 44.6 142.053 43.624 142.053H42.016V145.545H40.924V137.181H43.624C44.568 137.181 45.284 137.409 45.772 137.865C46.268 138.321 46.516 138.909 46.516 139.629ZM43.624 141.153C44.232 141.153 44.68 141.021 44.968 140.757C45.256 140.493 45.4 140.117 45.4 139.629C45.4 138.597 44.808 138.081 43.624 138.081H42.016V141.153H43.624ZM48.9652 136.665V145.545H47.8732V136.665H48.9652ZM56.8263 142.005C56.8263 142.213 56.8143 142.433 56.7903 142.665H51.5343C51.5743 143.313 51.7943 143.821 52.1943 144.189C52.6023 144.549 53.0943 144.729 53.6703 144.729C54.1423 144.729 54.5343 144.621 54.8463 144.405C55.1663 144.181 55.3903 143.885 55.5183 143.517H56.6943C56.5183 144.149 56.1663 144.665 55.6383 145.065C55.1103 145.457 54.4543 145.653 53.6703 145.653C53.0463 145.653 52.4863 145.513 51.9903 145.233C51.5023 144.953 51.1183 144.557 50.8383 144.045C50.5583 143.525 50.4183 142.925 50.4183 142.245C50.4183 141.565 50.5543 140.969 50.8263 140.457C51.0983 139.945 51.4783 139.553 51.9663 139.281C52.4623 139.001 53.0303 138.861 53.6703 138.861C54.2943 138.861 54.8463 138.997 55.3263 139.269C55.8063 139.541 56.1743 139.917 56.4303 140.397C56.6943 140.869 56.8263 141.405 56.8263 142.005ZM55.6983 141.777C55.6983 141.361 55.6063 141.005 55.4223 140.709C55.2383 140.405 54.9863 140.177 54.6663 140.025C54.3543 139.865 54.0063 139.785 53.6223 139.785C53.0703 139.785 52.5983 139.961 52.2063 140.313C51.8223 140.665 51.6023 141.153 51.5463 141.777H55.6983ZM57.8598 142.233C57.8598 141.561 57.9958 140.973 58.2678 140.469C58.5398 139.957 58.9118 139.561 59.3838 139.281C59.8638 139.001 60.3958 138.861 60.9798 138.861C61.5558 138.861 62.0558 138.985 62.4798 139.233C62.9038 139.481 63.2198 139.793 63.4278 140.169V138.969H64.5318V145.545H63.4278V144.321C63.2118 144.705 62.8878 145.025 62.4558 145.281C62.0318 145.529 61.5358 145.653 60.9678 145.653C60.3838 145.653 59.8558 145.509 59.3838 145.221C58.9118 144.933 58.5398 144.529 58.2678 144.009C57.9958 143.489 57.8598 142.897 57.8598 142.233ZM63.4278 142.245C63.4278 141.749 63.3278 141.317 63.1278 140.949C62.9278 140.581 62.6558 140.301 62.3118 140.109C61.9758 139.909 61.6038 139.809 61.1958 139.809C60.7878 139.809 60.4158 139.905 60.0798 140.097C59.7438 140.289 59.4758 140.569 59.2758 140.937C59.0758 141.305 58.9758 141.737 58.9758 142.233C58.9758 142.737 59.0758 143.177 59.2758 143.553C59.4758 143.921 59.7438 144.205 60.0798 144.405C60.4158 144.597 60.7878 144.693 61.1958 144.693C61.6038 144.693 61.9758 144.597 62.3118 144.405C62.6558 144.205 62.9278 143.921 63.1278 143.553C63.3278 143.177 63.4278 142.741 63.4278 142.245ZM68.7051 145.653C68.2011 145.653 67.7491 145.569 67.3491 145.401C66.9491 145.225 66.6331 144.985 66.4011 144.681C66.1691 144.369 66.0411 144.013 66.0171 143.613H67.1451C67.1771 143.941 67.3291 144.209 67.6011 144.417C67.8811 144.625 68.2451 144.729 68.6931 144.729C69.1091 144.729 69.4371 144.637 69.6771 144.453C69.9171 144.269 70.0371 144.037 70.0371 143.757C70.0371 143.469 69.9091 143.257 69.6531 143.121C69.3971 142.977 69.0011 142.837 68.4651 142.701C67.9771 142.573 67.5771 142.445 67.2651 142.317C66.9611 142.181 66.6971 141.985 66.4731 141.729C66.2571 141.465 66.1491 141.121 66.1491 140.697C66.1491 140.361 66.2491 140.053 66.4491 139.773C66.6491 139.493 66.9331 139.273 67.3011 139.113C67.6691 138.945 68.0891 138.861 68.5611 138.861C69.2891 138.861 69.8771 139.045 70.3251 139.413C70.7731 139.781 71.0131 140.285 71.0451 140.925H69.9531C69.9291 140.581 69.7891 140.305 69.5331 140.097C69.2851 139.889 68.9491 139.785 68.5251 139.785C68.1331 139.785 67.8211 139.869 67.5891 140.037C67.3571 140.205 67.2411 140.425 67.2411 140.697C67.2411 140.913 67.3091 141.093 67.4451 141.237C67.5891 141.373 67.7651 141.485 67.9731 141.573C68.1891 141.653 68.4851 141.745 68.8611 141.849C69.3331 141.977 69.7171 142.105 70.0131 142.233C70.3091 142.353 70.5611 142.537 70.7691 142.785C70.9851 143.033 71.0971 143.357 71.1051 143.757C71.1051 144.117 71.0051 144.441 70.8051 144.729C70.6051 145.017 70.3211 145.245 69.9531 145.413C69.5931 145.573 69.1771 145.653 68.7051 145.653ZM78.6467 142.005C78.6467 142.213 78.6347 142.433 78.6107 142.665H73.3547C73.3947 143.313 73.6147 143.821 74.0147 144.189C74.4227 144.549 74.9147 144.729 75.4907 144.729C75.9627 144.729 76.3547 144.621 76.6667 144.405C76.9867 144.181 77.2107 143.885 77.3387 143.517H78.5147C78.3387 144.149 77.9867 144.665 77.4587 145.065C76.9307 145.457 76.2747 145.653 75.4907 145.653C74.8667 145.653 74.3067 145.513 73.8107 145.233C73.3227 144.953 72.9387 144.557 72.6587 144.045C72.3787 143.525 72.2387 142.925 72.2387 142.245C72.2387 141.565 72.3747 140.969 72.6467 140.457C72.9187 139.945 73.2987 139.553 73.7867 139.281C74.2827 139.001 74.8507 138.861 75.4907 138.861C76.1147 138.861 76.6667 138.997 77.1467 139.269C77.6267 139.541 77.9947 139.917 78.2507 140.397C78.5147 140.869 78.6467 141.405 78.6467 142.005ZM77.5187 141.777C77.5187 141.361 77.4267 141.005 77.2427 140.709C77.0587 140.405 76.8067 140.177 76.4867 140.025C76.1747 139.865 75.8267 139.785 75.4427 139.785C74.8907 139.785 74.4187 139.961 74.0267 140.313C73.6427 140.665 73.4227 141.153 73.3667 141.777H77.5187ZM85.6153 145.653C85.1113 145.653 84.6593 145.569 84.2593 145.401C83.8593 145.225 83.5433 144.985 83.3113 144.681C83.0793 144.369 82.9513 144.013 82.9273 143.613H84.0553C84.0873 143.941 84.2393 144.209 84.5113 144.417C84.7913 144.625 85.1553 144.729 85.6033 144.729C86.0193 144.729 86.3473 144.637 86.5873 144.453C86.8273 144.269 86.9473 144.037 86.9473 143.757C86.9473 143.469 86.8193 143.257 86.5633 143.121C86.3073 142.977 85.9113 142.837 85.3753 142.701C84.8873 142.573 84.4873 142.445 84.1753 142.317C83.8713 142.181 83.6073 141.985 83.3833 141.729C83.1673 141.465 83.0593 141.121 83.0593 140.697C83.0593 140.361 83.1593 140.053 83.3593 139.773C83.5593 139.493 83.8433 139.273 84.2113 139.113C84.5793 138.945 84.9993 138.861 85.4713 138.861C86.1993 138.861 86.7873 139.045 87.2353 139.413C87.6833 139.781 87.9233 140.285 87.9553 140.925H86.8633C86.8393 140.581 86.6993 140.305 86.4433 140.097C86.1953 139.889 85.8593 139.785 85.4353 139.785C85.0433 139.785 84.7313 139.869 84.4993 140.037C84.2673 140.205 84.1513 140.425 84.1513 140.697C84.1513 140.913 84.2193 141.093 84.3553 141.237C84.4993 141.373 84.6753 141.485 84.8833 141.573C85.0993 141.653 85.3953 141.745 85.7713 141.849C86.2433 141.977 86.6273 142.105 86.9233 142.233C87.2193 142.353 87.4713 142.537 87.6793 142.785C87.8953 143.033 88.0073 143.357 88.0153 143.757C88.0153 144.117 87.9153 144.441 87.7153 144.729C87.5153 145.017 87.2313 145.245 86.8633 145.413C86.5033 145.573 86.0873 145.653 85.6153 145.653ZM92.8208 138.849C93.3168 138.849 93.7648 138.957 94.1648 139.173C94.5648 139.381 94.8768 139.697 95.1008 140.121C95.3328 140.545 95.4488 141.061 95.4488 141.669V145.545H94.3688V141.825C94.3688 141.169 94.2048 140.669 93.8768 140.325C93.5488 139.973 93.1008 139.797 92.5328 139.797C91.9568 139.797 91.4968 139.977 91.1528 140.337C90.8168 140.697 90.6488 141.221 90.6488 141.909V145.545H89.5568V136.665H90.6488V139.905C90.8648 139.569 91.1608 139.309 91.5368 139.125C91.9208 138.941 92.3488 138.849 92.8208 138.849ZM100.101 145.653C99.4846 145.653 98.9246 145.513 98.4206 145.233C97.9246 144.953 97.5326 144.557 97.2446 144.045C96.9646 143.525 96.8246 142.925 96.8246 142.245C96.8246 141.573 96.9686 140.981 97.2566 140.469C97.5526 139.949 97.9526 139.553 98.4566 139.281C98.9606 139.001 99.5246 138.861 100.149 138.861C100.773 138.861 101.337 139.001 101.841 139.281C102.345 139.553 102.741 139.945 103.029 140.457C103.325 140.969 103.473 141.565 103.473 142.245C103.473 142.925 103.321 143.525 103.017 144.045C102.721 144.557 102.317 144.953 101.805 145.233C101.293 145.513 100.725 145.653 100.101 145.653ZM100.101 144.693C100.493 144.693 100.861 144.601 101.205 144.417C101.549 144.233 101.825 143.957 102.033 143.589C102.249 143.221 102.357 142.773 102.357 142.245C102.357 141.717 102.253 141.269 102.045 140.901C101.837 140.533 101.565 140.261 101.229 140.085C100.893 139.901 100.529 139.809 100.137 139.809C99.7366 139.809 99.3686 139.901 99.0326 140.085C98.7046 140.261 98.4406 140.533 98.2406 140.901C98.0406 141.269 97.9406 141.717 97.9406 142.245C97.9406 142.781 98.0366 143.233 98.2286 143.601C98.4286 143.969 98.6926 144.245 99.0206 144.429C99.3486 144.605 99.7086 144.693 100.101 144.693ZM113.668 138.969L111.616 145.545H110.488L108.904 140.325L107.32 145.545H106.192L104.128 138.969H105.244L106.756 144.489L108.388 138.969H109.504L111.1 144.501L112.588 138.969H113.668ZM119.283 139.869V143.745C119.283 144.065 119.351 144.293 119.487 144.429C119.623 144.557 119.859 144.621 120.195 144.621H120.999V145.545H120.015C119.407 145.545 118.951 145.405 118.647 145.125C118.343 144.845 118.191 144.385 118.191 143.745V139.869H117.339V138.969H118.191V137.313H119.283V138.969H120.999V139.869H119.283ZM125.586 138.849C126.082 138.849 126.53 138.957 126.93 139.173C127.33 139.381 127.642 139.697 127.866 140.121C128.098 140.545 128.214 141.061 128.214 141.669V145.545H127.134V141.825C127.134 141.169 126.97 140.669 126.642 140.325C126.314 139.973 125.866 139.797 125.298 139.797C124.722 139.797 124.262 139.977 123.918 140.337C123.582 140.697 123.414 141.221 123.414 141.909V145.545H122.322V136.665H123.414V139.905C123.63 139.569 123.926 139.309 124.302 139.125C124.686 138.941 125.114 138.849 125.586 138.849ZM130.562 137.901C130.354 137.901 130.178 137.829 130.034 137.685C129.89 137.541 129.818 137.365 129.818 137.157C129.818 136.949 129.89 136.773 130.034 136.629C130.178 136.485 130.354 136.413 130.562 136.413C130.762 136.413 130.93 136.485 131.066 136.629C131.21 136.773 131.282 136.949 131.282 137.157C131.282 137.365 131.21 137.541 131.066 137.685C130.93 137.829 130.762 137.901 130.562 137.901ZM131.09 138.969V145.545H129.998V138.969H131.09ZM135.279 145.653C134.775 145.653 134.323 145.569 133.923 145.401C133.523 145.225 133.207 144.985 132.975 144.681C132.743 144.369 132.615 144.013 132.591 143.613H133.719C133.751 143.941 133.903 144.209 134.175 144.417C134.455 144.625 134.819 144.729 135.267 144.729C135.683 144.729 136.011 144.637 136.251 144.453C136.491 144.269 136.611 144.037 136.611 143.757C136.611 143.469 136.483 143.257 136.227 143.121C135.971 142.977 135.575 142.837 135.039 142.701C134.551 142.573 134.151 142.445 133.839 142.317C133.535 142.181 133.271 141.985 133.047 141.729C132.831 141.465 132.723 141.121 132.723 140.697C132.723 140.361 132.823 140.053 133.023 139.773C133.223 139.493 133.507 139.273 133.875 139.113C134.243 138.945 134.663 138.861 135.135 138.861C135.863 138.861 136.451 139.045 136.899 139.413C137.347 139.781 137.587 140.285 137.619 140.925H136.527C136.503 140.581 136.363 140.305 136.107 140.097C135.859 139.889 135.523 139.785 135.099 139.785C134.707 139.785 134.395 139.869 134.163 140.037C133.931 140.205 133.815 140.425 133.815 140.697C133.815 140.913 133.883 141.093 134.019 141.237C134.163 141.373 134.339 141.485 134.547 141.573C134.763 141.653 135.059 141.745 135.435 141.849C135.907 141.977 136.291 142.105 136.587 142.233C136.883 142.353 137.135 142.537 137.343 142.785C137.559 143.033 137.671 143.357 137.679 143.757C137.679 144.117 137.579 144.441 137.379 144.729C137.179 145.017 136.895 145.245 136.527 145.413C136.167 145.573 135.751 145.653 135.279 145.653ZM144.748 145.653C144.244 145.653 143.792 145.569 143.392 145.401C142.992 145.225 142.676 144.985 142.444 144.681C142.212 144.369 142.084 144.013 142.06 143.613H143.188C143.22 143.941 143.372 144.209 143.644 144.417C143.924 144.625 144.288 144.729 144.736 144.729C145.152 144.729 145.48 144.637 145.72 144.453C145.96 144.269 146.08 144.037 146.08 143.757C146.08 143.469 145.952 143.257 145.696 143.121C145.44 142.977 145.044 142.837 144.508 142.701C144.02 142.573 143.62 142.445 143.308 142.317C143.004 142.181 142.74 141.985 142.516 141.729C142.3 141.465 142.192 141.121 142.192 140.697C142.192 140.361 142.292 140.053 142.492 139.773C142.692 139.493 142.976 139.273 143.344 139.113C143.712 138.945 144.132 138.861 144.604 138.861C145.332 138.861 145.92 139.045 146.368 139.413C146.816 139.781 147.056 140.285 147.088 140.925H145.996C145.972 140.581 145.832 140.305 145.576 140.097C145.328 139.889 144.992 139.785 144.568 139.785C144.176 139.785 143.864 139.869 143.632 140.037C143.4 140.205 143.284 140.425 143.284 140.697C143.284 140.913 143.352 141.093 143.488 141.237C143.632 141.373 143.808 141.485 144.016 141.573C144.232 141.653 144.528 141.745 144.904 141.849C145.376 141.977 145.76 142.105 146.056 142.233C146.352 142.353 146.604 142.537 146.812 142.785C147.028 143.033 147.14 143.357 147.148 143.757C147.148 144.117 147.048 144.441 146.848 144.729C146.648 145.017 146.364 145.245 145.996 145.413C145.636 145.573 145.22 145.653 144.748 145.653ZM148.282 142.245C148.282 141.565 148.418 140.973 148.69 140.469C148.962 139.957 149.338 139.561 149.818 139.281C150.306 139.001 150.862 138.861 151.486 138.861C152.294 138.861 152.958 139.057 153.478 139.449C154.006 139.841 154.354 140.385 154.522 141.081H153.346C153.234 140.681 153.014 140.365 152.686 140.133C152.366 139.901 151.966 139.785 151.486 139.785C150.862 139.785 150.358 140.001 149.974 140.433C149.59 140.857 149.398 141.461 149.398 142.245C149.398 143.037 149.59 143.649 149.974 144.081C150.358 144.513 150.862 144.729 151.486 144.729C151.966 144.729 152.366 144.617 152.686 144.393C153.006 144.169 153.226 143.849 153.346 143.433H154.522C154.346 144.105 153.994 144.645 153.466 145.053C152.938 145.453 152.278 145.653 151.486 145.653C150.862 145.653 150.306 145.513 149.818 145.233C149.338 144.953 148.962 144.557 148.69 144.045C148.418 143.533 148.282 142.933 148.282 142.245ZM157.071 140.037C157.263 139.661 157.535 139.369 157.887 139.161C158.247 138.953 158.683 138.849 159.195 138.849V139.977H158.907C157.683 139.977 157.071 140.641 157.071 141.969V145.545H155.979V138.969H157.071V140.037ZM166.455 142.005C166.455 142.213 166.443 142.433 166.419 142.665H161.163C161.203 143.313 161.423 143.821 161.823 144.189C162.231 144.549 162.723 144.729 163.299 144.729C163.771 144.729 164.163 144.621 164.475 144.405C164.795 144.181 165.019 143.885 165.147 143.517H166.323C166.147 144.149 165.795 144.665 165.267 145.065C164.739 145.457 164.083 145.653 163.299 145.653C162.675 145.653 162.115 145.513 161.619 145.233C161.131 144.953 160.747 144.557 160.467 144.045C160.187 143.525 160.047 142.925 160.047 142.245C160.047 141.565 160.183 140.969 160.455 140.457C160.727 139.945 161.107 139.553 161.595 139.281C162.091 139.001 162.659 138.861 163.299 138.861C163.923 138.861 164.475 138.997 164.955 139.269C165.435 139.541 165.803 139.917 166.059 140.397C166.323 140.869 166.455 141.405 166.455 142.005ZM165.327 141.777C165.327 141.361 165.235 141.005 165.051 140.709C164.867 140.405 164.615 140.177 164.295 140.025C163.983 139.865 163.635 139.785 163.251 139.785C162.699 139.785 162.227 139.961 161.835 140.313C161.451 140.665 161.231 141.153 161.175 141.777H165.327ZM173.897 142.005C173.897 142.213 173.885 142.433 173.861 142.665H168.605C168.645 143.313 168.865 143.821 169.265 144.189C169.673 144.549 170.165 144.729 170.741 144.729C171.213 144.729 171.605 144.621 171.917 144.405C172.237 144.181 172.461 143.885 172.589 143.517H173.765C173.589 144.149 173.237 144.665 172.709 145.065C172.181 145.457 171.525 145.653 170.741 145.653C170.117 145.653 169.557 145.513 169.061 145.233C168.573 144.953 168.189 144.557 167.909 144.045C167.629 143.525 167.489 142.925 167.489 142.245C167.489 141.565 167.625 140.969 167.897 140.457C168.169 139.945 168.549 139.553 169.037 139.281C169.533 139.001 170.101 138.861 170.741 138.861C171.365 138.861 171.917 138.997 172.397 139.269C172.877 139.541 173.245 139.917 173.501 140.397C173.765 140.869 173.897 141.405 173.897 142.005ZM172.769 141.777C172.769 141.361 172.677 141.005 172.493 140.709C172.309 140.405 172.057 140.177 171.737 140.025C171.425 139.865 171.077 139.785 170.693 139.785C170.141 139.785 169.669 139.961 169.277 140.313C168.893 140.665 168.673 141.153 168.617 141.777H172.769ZM178.542 138.849C179.342 138.849 179.99 139.093 180.486 139.581C180.982 140.061 181.23 140.757 181.23 141.669V145.545H180.15V141.825C180.15 141.169 179.986 140.669 179.658 140.325C179.33 139.973 178.882 139.797 178.314 139.797C177.738 139.797 177.278 139.977 176.934 140.337C176.598 140.697 176.43 141.221 176.43 141.909V145.545H175.338V138.969H176.43V139.905C176.646 139.569 176.938 139.309 177.306 139.125C177.682 138.941 178.094 138.849 178.542 138.849ZM189.081 145.653C188.465 145.653 187.905 145.513 187.401 145.233C186.905 144.953 186.513 144.557 186.225 144.045C185.945 143.525 185.805 142.925 185.805 142.245C185.805 141.573 185.949 140.981 186.237 140.469C186.533 139.949 186.933 139.553 187.437 139.281C187.941 139.001 188.505 138.861 189.129 138.861C189.753 138.861 190.317 139.001 190.821 139.281C191.325 139.553 191.721 139.945 192.009 140.457C192.305 140.969 192.453 141.565 192.453 142.245C192.453 142.925 192.301 143.525 191.997 144.045C191.701 144.557 191.297 144.953 190.785 145.233C190.273 145.513 189.705 145.653 189.081 145.653ZM189.081 144.693C189.473 144.693 189.841 144.601 190.185 144.417C190.529 144.233 190.805 143.957 191.013 143.589C191.229 143.221 191.337 142.773 191.337 142.245C191.337 141.717 191.233 141.269 191.025 140.901C190.817 140.533 190.545 140.261 190.209 140.085C189.873 139.901 189.509 139.809 189.117 139.809C188.717 139.809 188.349 139.901 188.013 140.085C187.685 140.261 187.421 140.533 187.221 140.901C187.021 141.269 186.921 141.717 186.921 142.245C186.921 142.781 187.017 143.233 187.209 143.601C187.409 143.969 187.673 144.245 188.001 144.429C188.329 144.605 188.689 144.693 189.081 144.693ZM197.093 138.849C197.893 138.849 198.541 139.093 199.037 139.581C199.533 140.061 199.781 140.757 199.781 141.669V145.545H198.701V141.825C198.701 141.169 198.537 140.669 198.209 140.325C197.881 139.973 197.433 139.797 196.865 139.797C196.289 139.797 195.829 139.977 195.485 140.337C195.149 140.697 194.981 141.221 194.981 141.909V145.545H193.889V138.969H194.981V139.905C195.197 139.569 195.489 139.309 195.857 139.125C196.233 138.941 196.645 138.849 197.093 138.849ZM205.856 136.665V145.545H204.764V136.665H205.856ZM207.309 142.233C207.309 141.561 207.445 140.973 207.717 140.469C207.989 139.957 208.361 139.561 208.833 139.281C209.313 139.001 209.845 138.861 210.429 138.861C211.005 138.861 211.505 138.985 211.929 139.233C212.353 139.481 212.669 139.793 212.877 140.169V138.969H213.981V145.545H212.877V144.321C212.661 144.705 212.337 145.025 211.905 145.281C211.481 145.529 210.985 145.653 210.417 145.653C209.833 145.653 209.305 145.509 208.833 145.221C208.361 144.933 207.989 144.529 207.717 144.009C207.445 143.489 207.309 142.897 207.309 142.233ZM212.877 142.245C212.877 141.749 212.777 141.317 212.577 140.949C212.377 140.581 212.105 140.301 211.761 140.109C211.425 139.909 211.053 139.809 210.645 139.809C210.237 139.809 209.865 139.905 209.529 140.097C209.193 140.289 208.925 140.569 208.725 140.937C208.525 141.305 208.425 141.737 208.425 142.233C208.425 142.737 208.525 143.177 208.725 143.553C208.925 143.921 209.193 144.205 209.529 144.405C209.865 144.597 210.237 144.693 210.645 144.693C211.053 144.693 211.425 144.597 211.761 144.405C212.105 144.205 212.377 143.921 212.577 143.553C212.777 143.177 212.877 142.741 212.877 142.245ZM219.03 138.849C219.83 138.849 220.478 139.093 220.974 139.581C221.47 140.061 221.718 140.757 221.718 141.669V145.545H220.638V141.825C220.638 141.169 220.474 140.669 220.146 140.325C219.818 139.973 219.37 139.797 218.802 139.797C218.226 139.797 217.766 139.977 217.422 140.337C217.086 140.697 216.918 141.221 216.918 141.909V145.545H215.826V138.969H216.918V139.905C217.134 139.569 217.426 139.309 217.794 139.125C218.17 138.941 218.582 138.849 219.03 138.849ZM229.502 142.005C229.502 142.213 229.49 142.433 229.466 142.665H224.21C224.25 143.313 224.47 143.821 224.87 144.189C225.278 144.549 225.77 144.729 226.346 144.729C226.818 144.729 227.21 144.621 227.522 144.405C227.842 144.181 228.066 143.885 228.194 143.517H229.37C229.194 144.149 228.842 144.665 228.314 145.065C227.786 145.457 227.13 145.653 226.346 145.653C225.722 145.653 225.162 145.513 224.666 145.233C224.178 144.953 223.794 144.557 223.514 144.045C223.234 143.525 223.094 142.925 223.094 142.245C223.094 141.565 223.23 140.969 223.502 140.457C223.774 139.945 224.154 139.553 224.642 139.281C225.138 139.001 225.706 138.861 226.346 138.861C226.97 138.861 227.522 138.997 228.002 139.269C228.482 139.541 228.85 139.917 229.106 140.397C229.37 140.869 229.502 141.405 229.502 142.005ZM228.374 141.777C228.374 141.361 228.282 141.005 228.098 140.709C227.914 140.405 227.662 140.177 227.342 140.025C227.03 139.865 226.682 139.785 226.298 139.785C225.746 139.785 225.274 139.961 224.882 140.313C224.498 140.665 224.278 141.153 224.222 141.777H228.374ZM46.924 160.005C46.924 160.213 46.912 160.433 46.888 160.665H41.632C41.672 161.313 41.892 161.821 42.292 162.189C42.7 162.549 43.192 162.729 43.768 162.729C44.24 162.729 44.632 162.621 44.944 162.405C45.264 162.181 45.488 161.885 45.616 161.517H46.792C46.616 162.149 46.264 162.665 45.736 163.065C45.208 163.457 44.552 163.653 43.768 163.653C43.144 163.653 42.584 163.513 42.088 163.233C41.6 162.953 41.216 162.557 40.936 162.045C40.656 161.525 40.516 160.925 40.516 160.245C40.516 159.565 40.652 158.969 40.924 158.457C41.196 157.945 41.576 157.553 42.064 157.281C42.56 157.001 43.128 156.861 43.768 156.861C44.392 156.861 44.944 156.997 45.424 157.269C45.904 157.541 46.272 157.917 46.528 158.397C46.792 158.869 46.924 159.405 46.924 160.005ZM45.796 159.777C45.796 159.361 45.704 159.005 45.52 158.709C45.336 158.405 45.084 158.177 44.764 158.025C44.452 157.865 44.104 157.785 43.72 157.785C43.168 157.785 42.696 157.961 42.304 158.313C41.92 158.665 41.7 159.153 41.644 159.777H45.796ZM51.5694 156.849C52.3694 156.849 53.0174 157.093 53.5134 157.581C54.0094 158.061 54.2574 158.757 54.2574 159.669V163.545H53.1774V159.825C53.1774 159.169 53.0134 158.669 52.6854 158.325C52.3574 157.973 51.9094 157.797 51.3414 157.797C50.7654 157.797 50.3054 157.977 49.9614 158.337C49.6254 158.697 49.4574 159.221 49.4574 159.909V163.545H48.3654V156.969H49.4574V157.905C49.6734 157.569 49.9654 157.309 50.3334 157.125C50.7094 156.941 51.1214 156.849 51.5694 156.849ZM57.3732 157.869V161.745C57.3732 162.065 57.4412 162.293 57.5772 162.429C57.7132 162.557 57.9492 162.621 58.2852 162.621H59.0892V163.545H58.1052C57.4972 163.545 57.0412 163.405 56.7372 163.125C56.4332 162.845 56.2812 162.385 56.2812 161.745V157.869H55.4292V156.969H56.2812V155.313H57.3732V156.969H59.0892V157.869H57.3732ZM61.5043 158.037C61.6963 157.661 61.9683 157.369 62.3203 157.161C62.6803 156.953 63.1163 156.849 63.6283 156.849V157.977H63.3403C62.1163 157.977 61.5043 158.641 61.5043 159.969V163.545H60.4123V156.969H61.5043V158.037ZM70.5528 156.969L66.5928 166.641H65.4648L66.7608 163.473L64.1088 156.969H65.3208L67.3848 162.297L69.4248 156.969H70.5528Z" fill="#4B4A4A"/>
<path d="M93.5171 233.985L93.2771 232.105C93.9304 232.105 94.3971 231.962 94.6771 231.675C94.9638 231.395 95.1071 230.918 95.1071 230.245V216.545H97.2871V230.745C97.2871 231.892 97.0171 232.718 96.4771 233.225C95.9371 233.732 95.1504 233.985 94.1171 233.985H93.5171ZM104.176 230.745C103.129 230.745 102.232 230.515 101.486 230.055C100.746 229.588 100.179 228.968 99.7857 228.195C99.399 227.415 99.2057 226.555 99.2057 225.615C99.2057 224.668 99.399 223.805 99.7857 223.025C100.179 222.245 100.746 221.625 101.486 221.165C102.232 220.698 103.129 220.465 104.176 220.465C105.229 220.465 106.126 220.698 106.866 221.165C107.612 221.625 108.179 222.245 108.566 223.025C108.959 223.805 109.156 224.668 109.156 225.615C109.156 226.555 108.959 227.415 108.566 228.195C108.179 228.968 107.612 229.588 106.866 230.055C106.126 230.515 105.229 230.745 104.176 230.745ZM104.176 228.955C105.096 228.955 105.799 228.655 106.286 228.055C106.779 227.455 107.026 226.642 107.026 225.615C107.026 224.582 106.779 223.762 106.286 223.155C105.799 222.548 105.096 222.245 104.176 222.245C103.269 222.245 102.569 222.548 102.076 223.155C101.582 223.762 101.336 224.582 101.336 225.615C101.336 226.642 101.582 227.455 102.076 228.055C102.569 228.655 103.269 228.955 104.176 228.955ZM110.938 230.545V215.545H113.038V222.255L112.438 222.045C112.878 221.592 113.354 221.218 113.868 220.925C114.388 220.625 115.031 220.475 115.798 220.475C116.658 220.475 117.368 220.668 117.928 221.055C118.488 221.435 118.904 221.968 119.178 222.655C119.451 223.342 119.588 224.138 119.588 225.045V230.545H117.498V225.245C117.498 224.225 117.321 223.475 116.968 222.995C116.614 222.508 116.058 222.265 115.298 222.265C114.691 222.265 114.171 222.418 113.738 222.725C113.311 223.032 112.958 223.442 112.678 223.955L113.038 222.755V230.545H110.938ZM121.876 230.545V220.665H123.666L123.916 222.535L123.276 222.035C123.816 221.475 124.379 221.075 124.966 220.835C125.552 220.595 126.166 220.475 126.806 220.475C128.172 220.475 129.166 220.895 129.786 221.735C130.406 222.568 130.716 223.678 130.716 225.065V230.545H128.626V225.155C128.626 224.162 128.449 223.432 128.096 222.965C127.742 222.498 127.146 222.265 126.306 222.265C125.686 222.265 125.139 222.408 124.666 222.695C124.199 222.975 123.859 223.395 123.646 223.955L123.966 222.805V230.545H121.876ZM141.891 230.825C141.318 230.825 140.734 230.775 140.141 230.675C139.554 230.582 139.011 230.462 138.511 230.315C138.011 230.168 137.601 230.022 137.281 229.875L137.561 227.555C137.968 227.755 138.424 227.948 138.931 228.135C139.444 228.322 139.984 228.478 140.551 228.605C141.118 228.732 141.691 228.795 142.271 228.795C143.078 228.795 143.721 228.645 144.201 228.345C144.681 228.038 144.921 227.565 144.921 226.925C144.921 226.445 144.794 226.055 144.541 225.755C144.288 225.448 143.904 225.185 143.391 224.965C142.884 224.738 142.238 224.502 141.451 224.255C140.698 224.015 140.008 223.735 139.381 223.415C138.761 223.095 138.264 222.678 137.891 222.165C137.518 221.645 137.331 220.968 137.331 220.135C137.331 219.382 137.521 218.715 137.901 218.135C138.288 217.548 138.854 217.092 139.601 216.765C140.348 216.432 141.271 216.265 142.371 216.265C143.264 216.265 144.094 216.365 144.861 216.565C145.634 216.758 146.281 216.968 146.801 217.195L146.581 219.475C145.808 219.062 145.074 218.762 144.381 218.575C143.694 218.388 142.988 218.295 142.261 218.295C141.474 218.295 140.838 218.435 140.351 218.715C139.871 218.995 139.631 219.438 139.631 220.045C139.631 220.485 139.748 220.842 139.981 221.115C140.214 221.382 140.558 221.612 141.011 221.805C141.464 221.998 142.018 222.198 142.671 222.405C143.664 222.705 144.508 223.045 145.201 223.425C145.894 223.805 146.421 224.268 146.781 224.815C147.148 225.362 147.331 226.038 147.331 226.845C147.331 227.365 147.238 227.862 147.051 228.335C146.871 228.808 146.571 229.235 146.151 229.615C145.731 229.988 145.171 230.285 144.471 230.505C143.778 230.718 142.918 230.825 141.891 230.825ZM149.004 230.545V220.665H150.714L150.994 222.365L150.444 221.995C150.958 221.488 151.494 221.108 152.054 220.855C152.614 220.602 153.228 220.475 153.894 220.475C154.401 220.475 154.868 220.555 155.294 220.715C155.721 220.868 156.098 221.118 156.424 221.465C156.758 221.812 157.024 222.272 157.224 222.845L156.684 222.655C156.991 221.975 157.448 221.442 158.054 221.055C158.668 220.668 159.434 220.475 160.354 220.475C161.214 220.475 161.928 220.645 162.494 220.985C163.068 221.318 163.494 221.812 163.774 222.465C164.054 223.112 164.194 223.908 164.194 224.855V230.545H162.104V224.945C162.104 224.018 161.938 223.342 161.604 222.915C161.278 222.482 160.738 222.265 159.984 222.265C159.511 222.265 159.121 222.342 158.814 222.495C158.508 222.642 158.268 222.845 158.094 223.105C157.928 223.358 157.811 223.642 157.744 223.955C157.678 224.268 157.644 224.588 157.644 224.915V230.545H155.554V225.155C155.554 224.428 155.471 223.855 155.304 223.435C155.138 223.015 154.894 222.715 154.574 222.535C154.254 222.355 153.868 222.265 153.414 222.265C152.788 222.265 152.244 222.405 151.784 222.685C151.331 222.965 150.994 223.385 150.774 223.945L151.094 222.815V230.545H149.004ZM166.465 230.545V220.665H168.555V230.545H166.465ZM166.465 218.745V216.545H168.555V218.745H166.465ZM174.268 230.745C173.648 230.745 173.145 230.625 172.758 230.385C172.378 230.145 172.098 229.838 171.918 229.465C171.745 229.092 171.658 228.698 171.658 228.285V222.335H170.088L170.278 220.665H171.658V218.335L173.748 218.115V220.665H176.168V222.335H173.748V227.225C173.748 227.798 173.781 228.215 173.848 228.475C173.915 228.728 174.078 228.888 174.338 228.955C174.598 229.022 175.011 229.055 175.578 229.055H176.138L175.958 230.745H174.268ZM177.715 230.545V215.545H179.815V222.255L179.215 222.045C179.655 221.592 180.132 221.218 180.645 220.925C181.165 220.625 181.808 220.475 182.575 220.475C183.435 220.475 184.145 220.668 184.705 221.055C185.265 221.435 185.682 221.968 185.955 222.655C186.228 223.342 186.365 224.138 186.365 225.045V230.545H184.275V225.245C184.275 224.225 184.098 223.475 183.745 222.995C183.392 222.508 182.835 222.265 182.075 222.265C181.468 222.265 180.948 222.418 180.515 222.725C180.088 223.032 179.735 223.442 179.455 223.955L179.815 222.755V230.545H177.715Z" fill="white"/>
<path d="M52.9934 262.545V259.105H46.0634L53.6134 248.545H55.1434V257.285H56.9434V259.105H55.1434V262.545H52.9934ZM49.1034 257.955L48.7034 257.285H52.9934V251.155L53.4734 251.785L49.1034 257.955ZM62.5675 262.815C61.8142 262.815 61.1042 262.718 60.4375 262.525C59.7775 262.325 59.1942 262.062 58.6875 261.735L59.2075 259.735C59.7008 260.015 60.2075 260.252 60.7275 260.445C61.2542 260.638 61.8408 260.735 62.4875 260.735C63.3275 260.735 64.0008 260.508 64.5075 260.055C65.0142 259.595 65.2675 258.975 65.2675 258.195C65.2675 257.335 64.9875 256.675 64.4275 256.215C63.8675 255.748 63.1075 255.515 62.1475 255.515C61.6675 255.515 61.2042 255.548 60.7575 255.615C60.3175 255.675 59.8708 255.758 59.4175 255.865L60.2875 248.545H66.8875L66.7775 250.635H62.0075L61.4975 254.805L60.8475 253.955C61.1608 253.882 61.4875 253.825 61.8275 253.785C62.1675 253.745 62.5208 253.725 62.8875 253.725C63.8408 253.725 64.6642 253.912 65.3575 254.285C66.0508 254.658 66.5842 255.182 66.9575 255.855C67.3308 256.522 67.5175 257.302 67.5175 258.195C67.5175 259.148 67.3008 259.972 66.8675 260.665C66.4408 261.352 65.8542 261.882 65.1075 262.255C64.3608 262.628 63.5142 262.815 62.5675 262.815ZM74.3288 262.825C73.3488 262.825 72.5021 262.608 71.7888 262.175C71.0821 261.735 70.5388 261.125 70.1588 260.345C69.7788 259.565 69.5888 258.655 69.5888 257.615C69.5888 256.502 69.7754 255.462 70.1488 254.495C70.5288 253.522 71.0288 252.635 71.6488 251.835C72.2688 251.028 72.9454 250.325 73.6788 249.725C74.4188 249.125 75.1521 248.638 75.8788 248.265L77.3788 249.565C76.8854 249.805 76.3754 250.108 75.8488 250.475C75.3221 250.842 74.8121 251.262 74.3188 251.735C73.8321 252.202 73.3888 252.718 72.9888 253.285C72.5954 253.852 72.2821 254.458 72.0488 255.105C71.8221 255.752 71.7088 256.432 71.7088 257.145L71.0387 256.145C71.3721 255.538 71.8521 255.052 72.4788 254.685C73.1121 254.318 73.8821 254.135 74.7888 254.135C75.5888 254.135 76.2988 254.318 76.9188 254.685C77.5454 255.052 78.0354 255.555 78.3888 256.195C78.7488 256.828 78.9288 257.552 78.9288 258.365C78.9288 259.245 78.7354 260.018 78.3488 260.685C77.9688 261.352 77.4321 261.875 76.7388 262.255C76.0521 262.635 75.2488 262.825 74.3288 262.825ZM74.3388 260.985C75.0721 260.985 75.6654 260.738 76.1188 260.245C76.5788 259.752 76.8088 259.152 76.8088 258.445C76.8088 257.745 76.5788 257.162 76.1188 256.695C75.6654 256.222 75.0721 255.985 74.3388 255.985C73.6054 255.985 73.0088 256.222 72.5488 256.695C72.0888 257.162 71.8588 257.748 71.8588 258.455C71.8588 259.175 72.0888 259.778 72.5488 260.265C73.0088 260.745 73.6054 260.985 74.3388 260.985ZM84.6573 262.815C83.904 262.815 83.194 262.718 82.5273 262.525C81.8673 262.325 81.284 262.062 80.7773 261.735L81.2973 259.735C81.7907 260.015 82.2973 260.252 82.8173 260.445C83.344 260.638 83.9307 260.735 84.5773 260.735C85.4173 260.735 86.0907 260.508 86.5973 260.055C87.104 259.595 87.3573 258.975 87.3573 258.195C87.3573 257.335 87.0773 256.675 86.5173 256.215C85.9573 255.748 85.1973 255.515 84.2373 255.515C83.7573 255.515 83.294 255.548 82.8473 255.615C82.4073 255.675 81.9607 255.758 81.5073 255.865L82.3773 248.545H88.9773L88.8673 250.635H84.0973L83.5873 254.805L82.9373 253.955C83.2507 253.882 83.5773 253.825 83.9173 253.785C84.2573 253.745 84.6107 253.725 84.9773 253.725C85.9307 253.725 86.754 253.912 87.4473 254.285C88.1407 254.658 88.674 255.182 89.0473 255.855C89.4207 256.522 89.6073 257.302 89.6073 258.195C89.6073 259.148 89.3907 259.972 88.9573 260.665C88.5307 261.352 87.944 261.882 87.1973 262.255C86.4507 262.628 85.604 262.815 84.6573 262.815ZM100.911 262.825C99.9308 262.825 99.0841 262.608 98.3708 262.175C97.6641 261.735 97.1208 261.125 96.7408 260.345C96.3608 259.565 96.1708 258.655 96.1708 257.615C96.1708 256.502 96.3574 255.462 96.7308 254.495C97.1108 253.522 97.6108 252.635 98.2308 251.835C98.8508 251.028 99.5274 250.325 100.261 249.725C101.001 249.125 101.734 248.638 102.461 248.265L103.961 249.565C103.467 249.805 102.957 250.108 102.431 250.475C101.904 250.842 101.394 251.262 100.901 251.735C100.414 252.202 99.9708 252.718 99.5708 253.285C99.1774 253.852 98.8641 254.458 98.6308 255.105C98.4041 255.752 98.2908 256.432 98.2908 257.145L97.6208 256.145C97.9541 255.538 98.4341 255.052 99.0608 254.685C99.6941 254.318 100.464 254.135 101.371 254.135C102.171 254.135 102.881 254.318 103.501 254.685C104.127 255.052 104.617 255.555 104.971 256.195C105.331 256.828 105.511 257.552 105.511 258.365C105.511 259.245 105.317 260.018 104.931 260.685C104.551 261.352 104.014 261.875 103.321 262.255C102.634 262.635 101.831 262.825 100.911 262.825ZM100.921 260.985C101.654 260.985 102.247 260.738 102.701 260.245C103.161 259.752 103.391 259.152 103.391 258.445C103.391 257.745 103.161 257.162 102.701 256.695C102.247 256.222 101.654 255.985 100.921 255.985C100.187 255.985 99.5908 256.222 99.1308 256.695C98.6708 257.162 98.4408 257.748 98.4408 258.455C98.4408 259.175 98.6708 259.778 99.1308 260.265C99.5908 260.745 100.187 260.985 100.921 260.985ZM111.079 262.825C110.286 262.825 109.553 262.725 108.879 262.525C108.206 262.325 107.616 262.095 107.109 261.835L107.639 259.905C108.153 260.185 108.689 260.422 109.249 260.615C109.816 260.808 110.433 260.905 111.099 260.905C111.913 260.905 112.553 260.708 113.019 260.315C113.486 259.915 113.719 259.372 113.719 258.685C113.719 257.938 113.473 257.355 112.979 256.935C112.493 256.515 111.743 256.305 110.729 256.305H109.619V254.295H110.719C111.519 254.295 112.143 254.108 112.589 253.735C113.043 253.362 113.269 252.845 113.269 252.185C113.269 251.538 113.083 251.045 112.709 250.705C112.343 250.358 111.813 250.185 111.119 250.185C110.553 250.185 110.019 250.285 109.519 250.485C109.026 250.685 108.536 250.938 108.049 251.245L107.709 249.165C108.196 248.898 108.746 248.682 109.359 248.515C109.973 248.348 110.646 248.265 111.379 248.265C112.266 248.265 113.016 248.422 113.629 248.735C114.243 249.048 114.709 249.478 115.029 250.025C115.349 250.572 115.509 251.202 115.509 251.915C115.509 252.815 115.253 253.578 114.739 254.205C114.233 254.832 113.533 255.248 112.639 255.455L112.629 254.995C113.656 255.182 114.469 255.578 115.069 256.185C115.669 256.792 115.969 257.612 115.969 258.645C115.969 259.525 115.759 260.278 115.339 260.905C114.919 261.525 114.339 262.002 113.599 262.335C112.866 262.662 112.026 262.825 111.079 262.825ZM118.85 262.545L124.32 249.685L124.92 250.595H117.99V248.545H127.1L121.14 262.545H118.85ZM133.814 262.545V259.105H126.884L134.434 248.545H135.964V257.285H137.764V259.105H135.964V262.545H133.814ZM129.924 257.955L129.524 257.285H133.814V251.155L134.294 251.785L129.924 257.955ZM150.22 262.545V259.105H143.29L150.84 248.545H152.37V257.285H154.17V259.105H152.37V262.545H150.22ZM146.33 257.955L145.93 257.285H150.22V251.155L150.7 251.785L146.33 257.955ZM157.855 262.545V251.655C157.469 251.948 157.122 252.172 156.815 252.325C156.509 252.472 156.205 252.585 155.905 252.665L155.625 250.725C155.959 250.632 156.309 250.472 156.675 250.245C157.042 250.018 157.382 249.758 157.695 249.465C158.009 249.165 158.249 248.858 158.415 248.545H159.995V262.545H157.855ZM163.42 262.545L168.89 249.685L169.49 250.595H162.56V248.545H171.67L165.71 262.545H163.42ZM177.239 262.825C176.259 262.825 175.412 262.608 174.699 262.175C173.992 261.735 173.449 261.125 173.069 260.345C172.689 259.565 172.499 258.655 172.499 257.615C172.499 256.502 172.686 255.462 173.059 254.495C173.439 253.522 173.939 252.635 174.559 251.835C175.179 251.028 175.856 250.325 176.589 249.725C177.329 249.125 178.062 248.638 178.789 248.265L180.289 249.565C179.796 249.805 179.286 250.108 178.759 250.475C178.232 250.842 177.722 251.262 177.229 251.735C176.742 252.202 176.299 252.718 175.899 253.285C175.506 253.852 175.192 254.458 174.959 255.105C174.732 255.752 174.619 256.432 174.619 257.145L173.949 256.145C174.282 255.538 174.762 255.052 175.389 254.685C176.022 254.318 176.792 254.135 177.699 254.135C178.499 254.135 179.209 254.318 179.829 254.685C180.456 255.052 180.946 255.555 181.299 256.195C181.659 256.828 181.839 257.552 181.839 258.365C181.839 259.245 181.646 260.018 181.259 260.685C180.879 261.352 180.342 261.875 179.649 262.255C178.962 262.635 178.159 262.825 177.239 262.825ZM177.249 260.985C177.982 260.985 178.576 260.738 179.029 260.245C179.489 259.752 179.719 259.152 179.719 258.445C179.719 257.745 179.489 257.162 179.029 256.695C178.576 256.222 177.982 255.985 177.249 255.985C176.516 255.985 175.919 256.222 175.459 256.695C174.999 257.162 174.769 257.748 174.769 258.455C174.769 259.175 174.999 259.778 175.459 260.265C175.919 260.745 176.516 260.985 177.249 260.985ZM194.19 262.825C192.983 262.825 191.936 262.512 191.05 261.885C190.17 261.258 189.49 260.392 189.01 259.285C188.53 258.172 188.29 256.885 188.29 255.425C188.29 253.998 188.54 252.748 189.04 251.675C189.54 250.595 190.23 249.758 191.11 249.165C191.996 248.565 193.023 248.265 194.19 248.265C195.376 248.265 196.41 248.565 197.29 249.165C198.176 249.765 198.863 250.602 199.35 251.675C199.843 252.748 200.09 253.998 200.09 255.425C200.09 256.885 199.85 258.172 199.37 259.285C198.896 260.392 198.22 261.258 197.34 261.885C196.46 262.512 195.41 262.825 194.19 262.825ZM194.19 260.855C194.936 260.855 195.583 260.655 196.13 260.255C196.676 259.855 197.096 259.255 197.39 258.455C197.69 257.648 197.84 256.638 197.84 255.425C197.84 253.672 197.503 252.365 196.83 251.505C196.156 250.645 195.276 250.215 194.19 250.215C193.143 250.215 192.273 250.645 191.58 251.505C190.886 252.358 190.54 253.665 190.54 255.425C190.54 256.632 190.69 257.638 190.99 258.445C191.29 259.245 191.713 259.848 192.26 260.255C192.806 260.655 193.45 260.855 194.19 260.855ZM205.353 262.545L203.853 261.245C204.32 261.012 204.803 260.722 205.303 260.375C205.81 260.022 206.3 259.618 206.773 259.165C207.253 258.712 207.683 258.215 208.063 257.675C208.45 257.128 208.756 256.542 208.983 255.915C209.21 255.288 209.323 254.632 209.323 253.945L209.993 254.945C209.666 255.552 209.186 256.038 208.553 256.405C207.926 256.772 207.156 256.955 206.243 256.955C205.443 256.955 204.73 256.772 204.103 256.405C203.483 256.038 202.993 255.538 202.633 254.905C202.28 254.265 202.103 253.538 202.103 252.725C202.103 251.845 202.293 251.072 202.673 250.405C203.06 249.738 203.596 249.215 204.283 248.835C204.976 248.455 205.783 248.265 206.703 248.265C207.683 248.265 208.526 248.485 209.233 248.925C209.946 249.358 210.493 249.965 210.873 250.745C211.253 251.525 211.443 252.435 211.443 253.475C211.443 254.548 211.26 255.558 210.893 256.505C210.526 257.445 210.043 258.305 209.443 259.085C208.85 259.858 208.196 260.538 207.483 261.125C206.77 261.712 206.06 262.185 205.353 262.545ZM206.693 255.075C207.42 255.075 208.01 254.842 208.463 254.375C208.923 253.908 209.153 253.328 209.153 252.635C209.153 251.915 208.923 251.322 208.463 250.855C208.01 250.382 207.42 250.145 206.693 250.145C205.966 250.145 205.373 250.385 204.913 250.865C204.46 251.345 204.233 251.938 204.233 252.645C204.233 253.332 204.46 253.908 204.913 254.375C205.373 254.842 205.966 255.075 206.693 255.075ZM217.232 262.825C216.438 262.825 215.705 262.725 215.032 262.525C214.358 262.325 213.768 262.095 213.262 261.835L213.792 259.905C214.305 260.185 214.842 260.422 215.402 260.615C215.968 260.808 216.585 260.905 217.252 260.905C218.065 260.905 218.705 260.708 219.172 260.315C219.638 259.915 219.872 259.372 219.872 258.685C219.872 257.938 219.625 257.355 219.132 256.935C218.645 256.515 217.895 256.305 216.882 256.305H215.772V254.295H216.872C217.672 254.295 218.295 254.108 218.742 253.735C219.195 253.362 219.422 252.845 219.422 252.185C219.422 251.538 219.235 251.045 218.862 250.705C218.495 250.358 217.965 250.185 217.272 250.185C216.705 250.185 216.172 250.285 215.672 250.485C215.178 250.685 214.688 250.938 214.202 251.245L213.862 249.165C214.348 248.898 214.898 248.682 215.512 248.515C216.125 248.348 216.798 248.265 217.532 248.265C218.418 248.265 219.168 248.422 219.782 248.735C220.395 249.048 220.862 249.478 221.182 250.025C221.502 250.572 221.662 251.202 221.662 251.915C221.662 252.815 221.405 253.578 220.892 254.205C220.385 254.832 219.685 255.248 218.792 255.455L218.782 254.995C219.808 255.182 220.622 255.578 221.222 256.185C221.822 256.792 222.122 257.612 222.122 258.645C222.122 259.525 221.912 260.278 221.492 260.905C221.072 261.525 220.492 262.002 219.752 262.335C219.018 262.662 218.178 262.825 217.232 262.825ZM230.533 262.545V259.105H223.603L231.153 248.545H232.683V257.285H234.483V259.105H232.683V262.545H230.533ZM226.643 257.955L226.243 257.285H230.533V251.155L231.013 251.785L226.643 257.955Z" fill="#AFAEAD"/>
<defs>
<clipPath id="clip0_3570_10199">
<rect width="149.914" height="22.5449" fill="white" transform="translate(65.543 24)"/>
</clipPath>
</defs>
</svg>
